<svg id="Ebene_1" data-name="Ebene 1" xmlns="http://www.w3.org/2000/svg" viewBox="0 0 324.05 132.16"><defs><style>.cls-1{fill:#8abd24;}.cls-2{fill:#00528a;}</style></defs><path class="cls-1" d="M213.87,5.33c-5.49,0-7.35,1.9-7.35,7.54,0,5.32,1.86,7.12,7.35,7.12,5.33,0,7.13-2,7.13-7.76,0-5.23-1.74-6.9-7.13-6.9" transform="translate(-6.33 -5.33)"/><path class="cls-2" d="M75.26,67c-5.43-3.8-9.05-6.84-9.05-9.32s.47-4.06,6.77-4.06a71,71,0,0,1,8,.47c3.2.48,5.42-1.47,5.42-4.7a4.39,4.39,0,0,0-2.54-4.18c-2.13-1.06-6-1.6-11.46-1.6-12,0-18.05,4.83-18.05,14.35,0,5.75,3,9.94,11.61,16,7.73,5.55,9.24,8.26,9.24,11.07,0,3-1.37,4.92-8.21,4.92a53.37,53.37,0,0,1-8.27-.66,4.46,4.46,0,0,0-4,1.25,4.88,4.88,0,0,0-1.22,3.36,4.68,4.68,0,0,0,3.19,4.73,33,33,0,0,0,10,1.34C80.41,100,87.07,95,87.07,84.59,87.07,77.65,83.87,72.89,75.26,67Z" transform="translate(-6.33 -5.33)"/><path class="cls-2" d="M122.61,43.63c-4.55,0-11,.71-14.2,2.73a4.54,4.54,0,0,0-2.21,4,5.23,5.23,0,0,0,1.25,3.72,4,4,0,0,0,2.92,1.2,4.91,4.91,0,0,0,1.16-.14A52.67,52.67,0,0,1,121.93,54c8.92,0,9.37,3,9.37,7.81,0,4.69-.54,4.74-2.57,4.93l-8.11.87c-14.09,1.53-18.38,5.51-18.38,17,0,11,5.54,15.13,20.46,15.13,11.55,0,20.38-.54,20.38-7.41V62C143.08,48.44,137.72,43.63,122.61,43.63ZM131.3,79v6c0,5.07-.91,5.6-9.75,5.6-6.29,0-6.87-.59-6.87-7,0-6.65,1.59-7.72,6.67-7.72h5.12C131,75.81,131.3,77.13,131.3,79Z" transform="translate(-6.33 -5.33)"/><path class="cls-2" d="M185.66,43.63a95,95,0,0,0-16.53,1.86c-4,.87-5.39,2.75-5.39,7.19V94.51c0,1.48.61,4.92,6.18,4.92,5.21,0,6-3.08,6-4.92V56.92c0-2.75,0-3.18,7.06-3.18,1.46,0,2.83.09,4,.17s1.93.12,2.8.12c2.71,0,4.34-1.94,4.34-5.2C194.06,44,190.58,43.63,185.66,43.63Z" transform="translate(-6.33 -5.33)"/><path class="cls-2" d="M213.76,44.11c-5,0-6.08,2.67-6.08,4.91V94.51c0,1.48.59,4.92,6.08,4.92,5.29,0,6.08-3.08,6.08-4.92V49C219.84,46.78,218.78,44.11,213.76,44.11Z" transform="translate(-6.33 -5.33)"/><path class="cls-2" d="M281,91.35c-4.75-7.65-10.35-16.42-12.63-19.91a2.58,2.58,0,0,1-.48-1.31,1.72,1.72,0,0,1,.33-1.12c2.47-3.65,8-12.06,10.89-16.64a5.21,5.21,0,0,0,.94-3.16c0-2.92-3.56-5.1-6.75-5.1-2.34,0-3.62,1.87-4.63,3.62C266,52.4,262,58.88,259.54,62.48c-.38.57-.51.69-.64.71a.74.74,0,0,1-.81-.49c-1.9-3.08-5.84-9.47-8.84-15-.91-1.62-2-3.63-4.93-3.63-3.48,0-6.66,2.43-6.66,5.1a5.77,5.77,0,0,0,1,3.09c3.47,5.81,8,12.65,10.86,16.74a2.44,2.44,0,0,1,.31,1,2.41,2.41,0,0,1-.25,1.14l-1.47,2.25c-2.48,3.79-7.1,10.85-11.49,17.93A5,5,0,0,0,236,94a5.6,5.6,0,0,0,5.79,5.4c3,0,4.51-1.93,5.5-3.61,2.11-3.65,4.82-8.1,7-11.73,1.64-2.71,2.87-4.73,3.72-6.18.32-.65.43-.65.74-.65.12,0,.37,0,.81.69,2.14,3.3,7.5,11.92,10.79,17.88.89,1.52,2.12,3.6,5.1,3.6,3.59,0,6.27-2.85,6.27-5.4A5.15,5.15,0,0,0,281,91.35Z" transform="translate(-6.33 -5.33)"/><path class="cls-2" d="M188.83,7.34H71.8c-24.8,0-40.41,4.35-50.61,14.1C10.77,31.39,6.33,46.57,6.33,69.85c0,22,3.6,37,11.31,47.27,8.07,10.7,20.65,16.51,39.59,18.31.29,0,.57.06.88.08,3.94.27,5.28-.91,5.57-5.36.14-2-.11-3.28-.8-4s-2-1.18-4.06-1.32l-.5,0C27.47,121.83,17.09,108,17.09,69.85c0-20.34,3.34-32.82,11.53-40.65S50,18.08,71.8,18.08h117c4,0,5.21-1.34,5.21-5.72C194,8.42,192.92,7.34,188.83,7.34Z" transform="translate(-6.33 -5.33)"/><path class="cls-2" d="M277,135.64c2-.15,4-.34,5.86-.58,17.68-2.22,29.43-8.26,37-19,7.18-10.2,10.52-24.88,10.52-46.19,0-23.28-4.44-38.46-14.85-48.41-9.88-9.43-24.68-13.78-48-14.08H238.86c-4.12,0-5.38,1.3-5.38,5.55,0,4,1.26,5.2,5.38,5.2h28.69c20.28.28,32.78,3.7,40.54,11.11,8.19,7.83,11.53,20.31,11.53,40.65,0,37.22-9.61,51-38.11,54.56-1.58.2-3.31.37-5.15.52-.26,0-.5,0-.75,0-2.11.14-3.36.54-4.06,1.31s-.94,2-.81,4c.3,4.45,1.65,5.62,5.58,5.36l.26,0Z" transform="translate(-6.33 -5.33)"/><path class="cls-2" d="M257.26,126.23a3.76,3.76,0,0,0-3.12-1.29,4.64,4.64,0,0,0-2,.4,4,4,0,0,0-1.5,1.17,5.56,5.56,0,0,0-1,1.9,8.8,8.8,0,0,0-.35,2.58,7,7,0,0,0,1.23,4.39,4.65,4.65,0,0,0,3.89,1.57,9.85,9.85,0,0,0,1.37-.09,5.21,5.21,0,0,0,1.12-.29,1.88,1.88,0,0,0,.76-.51,1.08,1.08,0,0,0,.28-.74,2.16,2.16,0,0,0-.42-1.26,6.47,6.47,0,0,1-1.05.46,4.5,4.5,0,0,1-1.47.2,3,3,0,0,1-2.25-.8,4.27,4.27,0,0,1-.86-2.77h6.23c0-.2.05-.42.07-.66s0-.48,0-.74A5.48,5.48,0,0,0,257.26,126.23ZM252,129.45a3.44,3.44,0,0,1,.76-1.89,1.83,1.83,0,0,1,1.39-.63,1.57,1.57,0,0,1,1.28.61,2.78,2.78,0,0,1,.46,1.91Z" transform="translate(-6.33 -5.33)"/><path class="cls-2" d="M247.67,126.47a1.17,1.17,0,0,0-.28-.79,2.1,2.1,0,0,0-.7-.47,3.71,3.71,0,0,0-.9-.22c-.32,0-.61,0-.87,0a4.79,4.79,0,0,0-3.91,1.64,6.92,6.92,0,0,0-1.36,4.57,6.81,6.81,0,0,0,1.18,4.26,4.47,4.47,0,0,0,3.79,1.54,7.34,7.34,0,0,0,1.18-.09,3.92,3.92,0,0,0,1-.3,2.12,2.12,0,0,0,.7-.53,1.13,1.13,0,0,0,.26-.76,2.06,2.06,0,0,0-.12-.67,1.83,1.83,0,0,0-.38-.63,3.83,3.83,0,0,1-1,.51,4.05,4.05,0,0,1-1.31.2,2.39,2.39,0,0,1-1.95-.9,4.32,4.32,0,0,1-.75-2.82,4.4,4.4,0,0,1,.76-2.87,2.42,2.42,0,0,1,2-.91,3.78,3.78,0,0,1,1.26.2,4.29,4.29,0,0,1,.91.44,2.16,2.16,0,0,0,.53-1.35" transform="translate(-6.33 -5.33)"/><path class="cls-2" d="M231,128a4.63,4.63,0,0,1,.92-.44,3.22,3.22,0,0,1,1.12-.2,1.67,1.67,0,0,1,1.23.42,2.25,2.25,0,0,1,.42,1.57v7.36h2.48V128.4a3.55,3.55,0,0,0-.84-2.66,3.29,3.29,0,0,0-2.39-.8,3.2,3.2,0,0,0-2,.51,3.58,3.58,0,0,0-1.05,1.32h-.13a4.08,4.08,0,0,0-.39-1.56h-1.88v11.46H231Z" transform="translate(-6.33 -5.33)"/><path class="cls-2" d="M224.83,126.23a3.76,3.76,0,0,0-3.12-1.29,4.64,4.64,0,0,0-2,.4,4,4,0,0,0-1.5,1.17,5.56,5.56,0,0,0-1,1.9,8.8,8.8,0,0,0-.35,2.58,7,7,0,0,0,1.23,4.39,4.65,4.65,0,0,0,3.89,1.57,10,10,0,0,0,1.37-.09,5.21,5.21,0,0,0,1.12-.29,2,2,0,0,0,.76-.51,1.07,1.07,0,0,0,.27-.74,2.15,2.15,0,0,0-.41-1.26,6.47,6.47,0,0,1-1,.46,4.5,4.5,0,0,1-1.47.2,3,3,0,0,1-2.25-.8,4.26,4.26,0,0,1-.87-2.77h6.24c0-.2,0-.42.07-.66s0-.48,0-.74A5.48,5.48,0,0,0,224.83,126.23Zm-5.3,3.22a3.44,3.44,0,0,1,.77-1.89,1.83,1.83,0,0,1,1.39-.63,1.57,1.57,0,0,1,1.28.61,2.78,2.78,0,0,1,.46,1.91Z" transform="translate(-6.33 -5.33)"/><rect class="cls-2" x="205.58" y="114.96" width="2.47" height="16.39"/><rect class="cls-2" x="199.99" y="114.96" width="2.47" height="16.39"/><path class="cls-2" d="M202.62,126.23a3.76,3.76,0,0,0-3.12-1.29,4.64,4.64,0,0,0-2,.4,4,4,0,0,0-1.5,1.17,5.56,5.56,0,0,0-1,1.9,8.8,8.8,0,0,0-.35,2.58,7,7,0,0,0,1.23,4.39,4.64,4.64,0,0,0,3.88,1.57,10,10,0,0,0,1.38-.09,5.21,5.21,0,0,0,1.12-.29,2,2,0,0,0,.76-.51,1.08,1.08,0,0,0,.28-.74,2.16,2.16,0,0,0-.42-1.26,6.47,6.47,0,0,1-1.05.46,4.5,4.5,0,0,1-1.47.2,2.94,2.94,0,0,1-2.24-.8,4.15,4.15,0,0,1-.88-2.77h6.24c0-.2.05-.42.07-.66s0-.48,0-.74A5.48,5.48,0,0,0,202.62,126.23Zm-5.3,3.22a3.51,3.51,0,0,1,.77-1.89,1.83,1.83,0,0,1,1.39-.63,1.57,1.57,0,0,1,1.28.61,2.78,2.78,0,0,1,.46,1.91Z" transform="translate(-6.33 -5.33)"/><path class="cls-2" d="M193,126.47a1.13,1.13,0,0,0-.29-.79,2,2,0,0,0-.69-.47,3.71,3.71,0,0,0-.9-.22c-.32,0-.61,0-.87,0a4.78,4.78,0,0,0-3.91,1.64,6.92,6.92,0,0,0-1.36,4.57,6.81,6.81,0,0,0,1.18,4.26A4.47,4.47,0,0,0,190,137a7.34,7.34,0,0,0,1.18-.09,3.92,3.92,0,0,0,1-.3,2.12,2.12,0,0,0,.7-.53,1.19,1.19,0,0,0,.26-.76,1.85,1.85,0,0,0-.13-.67,1.67,1.67,0,0,0-.37-.63,3.83,3.83,0,0,1-1,.51,4.05,4.05,0,0,1-1.31.2,2.42,2.42,0,0,1-2-.9,4.39,4.39,0,0,1-.74-2.82,4.46,4.46,0,0,1,.75-2.87,2.44,2.44,0,0,1,2-.91,3.78,3.78,0,0,1,1.26.2,4.29,4.29,0,0,1,.91.44,2.16,2.16,0,0,0,.53-1.35" transform="translate(-6.33 -5.33)"/><polygon class="cls-2" points="174.23 125.46 177.67 119.89 174.78 119.89 172.95 123.26 171.16 119.89 168.16 119.89 171.59 125.55 168.02 131.35 170.91 131.35 172.88 127.75 174.8 131.35 177.78 131.35 174.23 125.46"/><path class="cls-2" d="M171.86,126.23a3.74,3.74,0,0,0-3.11-1.29,4.61,4.61,0,0,0-2,.4,4.09,4.09,0,0,0-1.51,1.17,5.56,5.56,0,0,0-1,1.9A8.81,8.81,0,0,0,164,131a7,7,0,0,0,1.22,4.39,4.66,4.66,0,0,0,3.89,1.57,9.75,9.75,0,0,0,1.37-.09,5.31,5.31,0,0,0,1.13-.29,1.91,1.91,0,0,0,.75-.51,1,1,0,0,0,.28-.74,2.22,2.22,0,0,0-.41-1.26,7,7,0,0,1-1.06.46,4.44,4.44,0,0,1-1.46.2,3,3,0,0,1-2.25-.8,4.21,4.21,0,0,1-.87-2.77h6.23a6.08,6.08,0,0,0,.07-.66c0-.23,0-.48,0-.74A5.48,5.48,0,0,0,171.86,126.23Zm-5.29,3.22a3.44,3.44,0,0,1,.77-1.89,1.82,1.82,0,0,1,1.38-.63,1.6,1.6,0,0,1,1.29.61,2.83,2.83,0,0,1,.45,1.91Z" transform="translate(-6.33 -5.33)"/><path class="cls-2" d="M80.5,125.44a9.24,9.24,0,0,1,1,.06,3.54,3.54,0,0,1,.92.26,1.78,1.78,0,0,1,.65.48,1.11,1.11,0,0,1,.26.74,1.91,1.91,0,0,1-.56,1.28,3.91,3.91,0,0,0-.93-.49,3.66,3.66,0,0,0-1.36-.24,1.81,1.81,0,0,0-1.21.32,1.1,1.1,0,0,0-.36.85,1,1,0,0,0,.35.75,4.52,4.52,0,0,0,.85.6c.33.19.71.39,1.11.6a5.68,5.68,0,0,1,1.12.73,4,4,0,0,1,.85,1,2.77,2.77,0,0,1,.34,1.42,3.89,3.89,0,0,1-.31,1.63,3,3,0,0,1-.87,1.15,3.74,3.74,0,0,1-1.35.68,6.58,6.58,0,0,1-1.72.22,9.12,9.12,0,0,1-1-.06,4.19,4.19,0,0,1-1-.24,2.41,2.41,0,0,1-.82-.5,1.14,1.14,0,0,1-.33-.86,2.53,2.53,0,0,1,.11-.69,1.71,1.71,0,0,1,.37-.64,4.63,4.63,0,0,0,2.6.8,2.08,2.08,0,0,0,1.28-.33,1.1,1.1,0,0,0,.42-.9,1,1,0,0,0-.33-.74,4.65,4.65,0,0,0-.85-.59l-1.11-.59a5.68,5.68,0,0,1-1.1-.73,3.65,3.65,0,0,1-.85-1.06,3.28,3.28,0,0,1-.34-1.54,3.11,3.11,0,0,1,1.06-2.49A4.67,4.67,0,0,1,80.5,125.44Z" transform="translate(-6.33 -5.33)"/><path class="cls-2" d="M90.21,125.44a4,4,0,0,1,3.32,1.46,6.82,6.82,0,0,1,1.16,4.33,7.42,7.42,0,0,1-1.24,4.69,4.32,4.32,0,0,1-3.61,1.57A4.18,4.18,0,0,1,86.38,136a7.19,7.19,0,0,1-1.16-4.53,6.85,6.85,0,0,1,1.3-4.51A4.52,4.52,0,0,1,90.21,125.44ZM90,127.62a1.76,1.76,0,0,0-1.65,1,6,6,0,0,0-.54,2.82,6.47,6.47,0,0,0,.51,3,1.8,1.8,0,0,0,3.18-.05,6.91,6.91,0,0,0,.49-3,6.34,6.34,0,0,0-.48-2.78A1.59,1.59,0,0,0,90,127.62Z" transform="translate(-6.33 -5.33)"/><path class="cls-2" d="M97.38,137.21v-9.54H95.89v-2h1.49v-1.38a4,4,0,0,1,1-2.82,3.76,3.76,0,0,1,2.88-1,6.92,6.92,0,0,1,.9.06,3,3,0,0,1,.84.22,1.88,1.88,0,0,1,.63.42,1,1,0,0,1,.26.7,2,2,0,0,1-.51,1.34,2.83,2.83,0,0,0-.74-.36,3.35,3.35,0,0,0-1.08-.15,1.44,1.44,0,0,0-1.33.52,2.37,2.37,0,0,0-.32,1.3v1.17h2.73v2H99.87v9.54Z" transform="translate(-6.33 -5.33)"/><path class="cls-2" d="M106.91,125.71H110v2h-3.08v6a1.81,1.81,0,0,0,.28,1.12,1.16,1.16,0,0,0,1,.37,2.74,2.74,0,0,0,1-.16,2.9,2.9,0,0,0,.76-.41,1.78,1.78,0,0,1,.59,1.24,1.41,1.41,0,0,1-.74,1.21,3.9,3.9,0,0,1-2.06.47,3.14,3.14,0,0,1-2.52-.88,3.71,3.71,0,0,1-.75-2.5v-6.44H103v-2h1.47v-.87a1.69,1.69,0,0,1,.46-1.36,1.91,1.91,0,0,1,1.27-.39h.46a1.59,1.59,0,0,1,.3.06Z" transform="translate(-6.33 -5.33)"/><path class="cls-2" d="M116.68,137.21h-3L111,125.71h2.72l1.61,9,2.11-9h3.15l2.12,9,1.61-9h2.53l-2.58,11.5h-3.15l-2.21-9.11Z" transform="translate(-6.33 -5.33)"/><path class="cls-2" d="M133.22,130.08a6.06,6.06,0,0,1,.7,0l.61.09v-.85a2,2,0,0,0-.4-1.24,1.87,1.87,0,0,0-1.53-.51,4.53,4.53,0,0,0-1.67.28,7.26,7.26,0,0,0-1.28.62,1.65,1.65,0,0,1-.6-1.27,1.08,1.08,0,0,1,.36-.8,2.77,2.77,0,0,1,.92-.57,7,7,0,0,1,1.28-.33,8.69,8.69,0,0,1,1.45-.11,5.1,5.1,0,0,1,1.93.31,2.87,2.87,0,0,1,1.84,2,6,6,0,0,1,.18,1.49v7.93h-1.86c-.08-.2-.16-.41-.24-.64a3,3,0,0,1-.17-.74h-.14a2.53,2.53,0,0,1-.95,1.2,3.23,3.23,0,0,1-1.84.46,3.19,3.19,0,0,1-2.47-1,3.76,3.76,0,0,1-.86-2.64,4.44,4.44,0,0,1,.24-1.47,3.1,3.1,0,0,1,.79-1.21,4,4,0,0,1,1.46-.83A7.27,7.27,0,0,1,133.22,130.08Zm.2,1.82a2.77,2.77,0,0,0-1.87.48,1.69,1.69,0,0,0-.52,1.31,1.55,1.55,0,0,0,.44,1.22,1.77,1.77,0,0,0,1.22.39,2.83,2.83,0,0,0,1.09-.2,3.23,3.23,0,0,0,.75-.46V132L134,132A3.17,3.17,0,0,0,133.42,131.9Z" transform="translate(-6.33 -5.33)"/><path class="cls-2" d="M141.84,125.71a5.77,5.77,0,0,1,.31.91,5.18,5.18,0,0,1,.13,1h.16a3.51,3.51,0,0,1,.23-.8,2.34,2.34,0,0,1,.44-.68,1.94,1.94,0,0,1,.69-.48,2.43,2.43,0,0,1,1-.18,2.2,2.2,0,0,1,1.4.35,1.19,1.19,0,0,1,.44,1,3,3,0,0,1-.13.83,2.51,2.51,0,0,1-.43.8,2,2,0,0,0-.66-.33,3.35,3.35,0,0,0-.9-.11,2.08,2.08,0,0,0-2,1.15v8.12H140v-11.5Z" transform="translate(-6.33 -5.33)"/><path class="cls-2" d="M150.79,134.45a3,3,0,0,0,2.25.81,4.51,4.51,0,0,0,1.48-.21,6.89,6.89,0,0,0,1-.46,2.16,2.16,0,0,1,.42,1.26,1,1,0,0,1-.28.75,2,2,0,0,1-.76.51,5.37,5.37,0,0,1-1.12.29,10,10,0,0,1-1.38.09,4.64,4.64,0,0,1-3.9-1.58,7,7,0,0,1-1.23-4.4,8.93,8.93,0,0,1,.34-2.59,5.54,5.54,0,0,1,1-1.91,4.08,4.08,0,0,1,1.5-1.17,4.69,4.69,0,0,1,2-.4,3.74,3.74,0,0,1,3.13,1.3,5.49,5.49,0,0,1,1,3.53c0,.26,0,.51,0,.74s0,.46-.07.66h-6.25A4.24,4.24,0,0,0,150.79,134.45Zm3-4.48a2.84,2.84,0,0,0-.46-1.92,1.6,1.6,0,0,0-1.29-.61,1.83,1.83,0,0,0-1.39.63,3.44,3.44,0,0,0-.77,1.9Z" transform="translate(-6.33 -5.33)"/></svg>