<svg id="Gruppe_47680" data-name="Gruppe 47680" xmlns="http://www.w3.org/2000/svg" xmlns:xlink="http://www.w3.org/1999/xlink" width="28.433" height="45.029" viewBox="0 0 28.433 45.029">
  <defs>
    <clipPath id="clip-path">
      <rect id="Rechteck_677" data-name="Rechteck 677" width="28.433" height="45.029" fill="none"/>
    </clipPath>
    <clipPath id="clip-path-3">
      <rect id="Rechteck_675" data-name="Rechteck 675" width="9.433" height="14.916" fill="none"/>
    </clipPath>
  </defs>
  <g id="Gruppe_40566" data-name="Gruppe 40566" clip-path="url(#clip-path)">
    <g id="Gruppe_40565" data-name="Gruppe 40565">
      <g id="Gruppe_40564" data-name="Gruppe 40564" clip-path="url(#clip-path)">
        <path id="Pfad_39607" data-name="Pfad 39607" d="M54.345,17.716a5.9,5.9,0,0,0-8.033,1.241,47.4,47.4,0,0,0-6.428,14.9A42.788,42.788,0,0,0,39.567,50.6a9.6,9.6,0,0,0,11.312,6.948,9.385,9.385,0,0,0,6.663-12.628l.011,0s-4.384-10.051-.976-20.53a5.886,5.886,0,0,0-2.231-6.668" transform="translate(-29.762 -12.751)" fill="#27113b"/>
        <path id="Pfad_39608" data-name="Pfad 39608" d="M53.485,18.347l.543-.815a5.894,5.894,0,0,0-7.715,1.439,47.4,47.4,0,0,0-6.428,14.905,42.788,42.788,0,0,0-.317,16.735,9.6,9.6,0,0,0,11.312,6.948s-4.4-10.945-3.162-20.593c1.292-10.052,3.794-15.157,5.769-18.619" transform="translate(-29.762 -12.765)" fill="#3c1a5c"/>
        <g id="Gruppe_40563" data-name="Gruppe 40563" transform="translate(9.131 29.407)" style="mix-blend-mode: multiply;isolation: isolate">
          <g id="Gruppe_40562" data-name="Gruppe 40562">
            <g id="Gruppe_40561" data-name="Gruppe 40561" clip-path="url(#clip-path-3)">
              <path id="Pfad_39609" data-name="Pfad 39609" d="M45.278,140.177a8.393,8.393,0,0,0-6.372-14.845,35.721,35.721,0,0,0,.661,8.367,9.561,9.561,0,0,0,5.711,6.478" transform="translate(-38.893 -125.261)" fill="#7f55a6"/>
            </g>
          </g>
        </g>
        <path id="Pfad_39610" data-name="Pfad 39610" d="M89.719,17.06l1.2-1.8c-1.336-.606-3.33-.015-4.671.211l3.14,2.182q.17-.306.336-.6" transform="translate(-65.997 -11.477)" fill="#4a851d"/>
        <path id="Pfad_39611" data-name="Pfad 39611" d="M101.5,16.32a2.208,2.208,0,0,0-.35-.193l-1.2,1.8c-.11.193-.222.393-.336.6l3.615,2.512c-.279-1.458-.418-3.8-1.733-4.713" transform="translate(-76.23 -12.341)" fill="#345e15"/>
        <path id="Pfad_39612" data-name="Pfad 39612" d="M70.576,41.657a.624.624,0,1,0-.795.384.624.624,0,0,0,.795-.384" transform="translate(-53.078 -31.243)" fill="#fff"/>
        <path id="Pfad_39613" data-name="Pfad 39613" d="M74.894,29.88a1.326,1.326,0,1,0-.816-1.689,1.326,1.326,0,0,0,.816,1.689" transform="translate(-56.63 -20.892)" fill="#fff"/>
        <path id="Pfad_39614" data-name="Pfad 39614" d="M102.2,0c-.611.7-2.188,2.6-2.9,3.654l1.154.776c.7-1,2.048-2.64,2.8-3.514Z" transform="translate(-75.991)" fill="#4a851d"/>
        <path id="Pfad_39615" data-name="Pfad 39615" d="M107.018,3.9c-.751.873-2.1,2.514-2.8,3.514l1.178.791c.55-.818,1.938-2.516,2.687-3.378Z" transform="translate(-79.752 -2.986)" fill="#345e15"/>
        <path id="Pfad_39616" data-name="Pfad 39616" d="M8.349,136.669A8.415,8.415,0,1,0,0,128.254a8.382,8.382,0,0,0,8.349,8.415" transform="translate(0 -91.705)" fill="#3c1a5c"/>
        <path id="Pfad_39617" data-name="Pfad 39617" d="M17.811,130.075a7.856,7.856,0,1,0-7.856,7.856,7.856,7.856,0,0,0,7.856-7.856" transform="translate(-1.606 -93.526)" fill="#ebe794"/>
        <path id="Pfad_39618" data-name="Pfad 39618" d="M19.816,132.966a6.969,6.969,0,1,0-6.969,6.969,6.969,6.969,0,0,0,6.969-6.969" transform="translate(-4.498 -96.417)" fill="#ffe7ba"/>
        <path id="Pfad_39619" data-name="Pfad 39619" d="M18.748,141.6c.485-.611.14-1.692-.77-2.413s-2.041-.81-2.525-.2-.14,1.692.77,2.413,2.041.811,2.525.2M15.7,139.185c.3-.384,1.014-.328,1.586.125s.788,1.131.484,1.515-1.014.328-1.585-.125-.788-1.132-.484-1.515" transform="translate(-11.657 -106.045)" fill="#ebcd94"/>
        <path id="Pfad_39620" data-name="Pfad 39620" d="M13.734,155.865c1.132-.261,1.907-1.09,1.731-1.85s-1.235-1.165-2.366-.9-1.907,1.09-1.731,1.85,1.235,1.165,2.367.9m-.965-2.138c.71-.164,1.376.09,1.486.567s-.376,1-1.087,1.161-1.376-.09-1.486-.567.377-1,1.087-1.161" transform="translate(-8.68 -117.105)" fill="#ebcd94"/>
        <path id="Pfad_39621" data-name="Pfad 39621" d="M24.912,164.04c.5-1.047.338-2.169-.366-2.507s-1.681.239-2.183,1.286-.338,2.169.366,2.507,1.681-.239,2.183-1.286m-2.273-.579c.315-.658.929-1.019,1.37-.807s.545.916.23,1.574-.929,1.019-1.37.807-.545-.917-.23-1.574" transform="translate(-16.891 -123.536)" fill="#ebcd94"/>
        <path id="Pfad_39622" data-name="Pfad 39622" d="M38.243,165.3c.7-.339.862-1.463.357-2.508s-1.485-1.618-2.187-1.278-.862,1.463-.357,2.508,1.484,1.618,2.187,1.278m-1.29-2.668c.441-.213,1.056.146,1.373.8s.217,1.361-.224,1.575-1.056-.146-1.373-.8-.217-1.362.224-1.575" transform="translate(-27.366 -123.523)" fill="#ebcd94"/>
        <path id="Pfad_39623" data-name="Pfad 39623" d="M46.251,154.9c.173-.761-.605-1.586-1.738-1.844s-2.191.151-2.363.912.6,1.586,1.737,1.843,2.191-.151,2.364-.912m-2.889-.656c.108-.478.773-.734,1.484-.573s1.2.68,1.091,1.158-.773.734-1.484.573-1.2-.68-1.091-1.158" transform="translate(-32.236 -117.068)" fill="#ebcd94"/>
        <path id="Pfad_39624" data-name="Pfad 39624" d="M42.707,141.345c.908-.724,1.249-1.806.762-2.416s-1.617-.517-2.525.208-1.249,1.806-.762,2.416,1.617.517,2.525-.208m-1.075-2.085c.57-.455,1.28-.513,1.585-.131s.092,1.062-.478,1.517-1.279.513-1.585.131-.092-1.062.478-1.517" transform="translate(-30.579 -106.004)" fill="#ebcd94"/>
        <path id="Pfad_39625" data-name="Pfad 39625" d="M32.371,133.036c0-1.161-.632-2.1-1.413-2.1s-1.413.941-1.413,2.1.632,2.1,1.413,2.1,1.413-.941,1.413-2.1m-2.3-.46c0-.729.4-1.32.887-1.32s.887.591.887,1.32-.4,1.32-.887,1.32-.887-.591-.887-1.32" transform="translate(-22.609 -100.194)" fill="#ebcd94"/>
      </g>
    </g>
  </g>
</svg>
