<svg id="Gruppe_44491" data-name="Gruppe 44491" xmlns="http://www.w3.org/2000/svg" xmlns:xlink="http://www.w3.org/1999/xlink" width="43.309" height="40.083" viewBox="0 0 43.309 40.083">
  <defs>
    <clipPath id="clip-path">
      <rect id="Rechteck_712" data-name="Rechteck 712" width="43.309" height="40.083" fill="none"/>
    </clipPath>
    <clipPath id="clip-path-3">
      <path id="Pfad_39761" data-name="Pfad 39761" d="M91.411,70.647A31.819,31.819,0,0,0,70.732,88.681l0,.009a.922.922,0,0,0,.073.774.248.248,0,0,0,.192.13h0c.083,0,.161-.068.214-.2A31.992,31.992,0,0,1,91.6,70.8c.064-.019.077-.068.028-.11a.256.256,0,0,0-.156-.05.213.213,0,0,0-.056.007" transform="translate(-70.675 -70.64)" fill="none"/>
    </clipPath>
    <linearGradient id="linear-gradient" x1="-1.003" y1="1" x2="-0.989" y2="1" gradientUnits="objectBoundingBox">
      <stop offset="0" stop-color="#74d128"/>
      <stop offset="0.345" stop-color="#4e9c0e"/>
      <stop offset="1" stop-color="#4e9c0e"/>
    </linearGradient>
    <clipPath id="clip-path-5">
      <rect id="Rechteck_694" data-name="Rechteck 694" width="12.193" height="8.847" fill="none"/>
    </clipPath>
    <clipPath id="clip-path-6">
      <rect id="Rechteck_695" data-name="Rechteck 695" width="16.582" height="12.845" fill="none"/>
    </clipPath>
    <clipPath id="clip-path-7">
      <path id="Pfad_39772" data-name="Pfad 39772" d="M4.014,70.69c-.05.042-.037.09.028.11A31.993,31.993,0,0,1,24.425,89.4c.052.128.131.2.213.2h0a.248.248,0,0,0,.192-.13.922.922,0,0,0,.074-.774l0-.009A31.819,31.819,0,0,0,4.226,70.647a.209.209,0,0,0-.056-.007.256.256,0,0,0-.156.05" transform="translate(-3.984 -70.64)" fill="none"/>
    </clipPath>
    <linearGradient id="linear-gradient-2" x1="-0.056" y1="1" x2="-0.042" y2="1" xlink:href="#linear-gradient"/>
    <clipPath id="clip-path-11">
      <path id="Pfad_39783" data-name="Pfad 39783" d="M89.805,28.12A40.992,40.992,0,0,0,71.73,58.5a.092.092,0,0,0,0,.013,1.187,1.187,0,0,0,.4.917c.241.187.451.076.474-.246A41.218,41.218,0,0,1,90.092,28.233c.071-.05.067-.114-.01-.145a.265.265,0,0,0-.1-.017.333.333,0,0,0-.179.049" transform="translate(-71.728 -28.071)" fill="none"/>
    </clipPath>
    <linearGradient id="linear-gradient-3" x1="-1.161" y1="1.004" x2="-1.145" y2="1.004" xlink:href="#linear-gradient"/>
    <clipPath id="clip-path-13">
      <rect id="Rechteck_702" data-name="Rechteck 702" width="11.402" height="19.508" fill="none"/>
    </clipPath>
    <clipPath id="clip-path-14">
      <rect id="Rechteck_703" data-name="Rechteck 703" width="0.01" height="0.059" fill="none"/>
    </clipPath>
    <clipPath id="clip-path-15">
      <rect id="Rechteck_704" data-name="Rechteck 704" width="0.077" height="0.561" fill="none"/>
    </clipPath>
    <clipPath id="clip-path-16">
      <rect id="Rechteck_705" data-name="Rechteck 705" width="13.444" height="22.452" fill="none"/>
    </clipPath>
    <clipPath id="clip-path-17">
      <path id="Pfad_39807" data-name="Pfad 39807" d="M12.588,28.088c-.077.031-.081.1-.01.145A41.217,41.217,0,0,1,30.066,59.184c.023.322.233.433.474.246a1.186,1.186,0,0,0,.4-.917V58.5A40.993,40.993,0,0,0,12.865,28.12a.334.334,0,0,0-.179-.049.27.27,0,0,0-.1.017" transform="translate(-12.527 -28.071)" fill="none"/>
    </clipPath>
    <linearGradient id="linear-gradient-4" x1="-0.202" y1="1.004" x2="-0.186" y2="1.004" xlink:href="#linear-gradient"/>
    <clipPath id="clip-path-19">
      <rect id="Rechteck_709" data-name="Rechteck 709" width="13.444" height="22.721" fill="none"/>
    </clipPath>
    <clipPath id="clip-path-20">
      <path id="Pfad_39823" data-name="Pfad 39823" d="M71.221.327,70.78,39.56v.014A.61.61,0,1,0,72,39.56L71.559.327a.17.17,0,0,0-.168-.168h0a.169.169,0,0,0-.169.168" transform="translate(-70.78 -0.159)" fill="none"/>
    </clipPath>
    <linearGradient id="linear-gradient-5" x1="-17.306" y1="1" x2="-17.061" y2="1" xlink:href="#linear-gradient"/>
  </defs>
  <g id="Gruppe_40651" data-name="Gruppe 40651" clip-path="url(#clip-path)">
    <g id="Gruppe_40605" data-name="Gruppe 40605">
      <g id="Gruppe_40604" data-name="Gruppe 40604" clip-path="url(#clip-path)">
        <path id="Pfad_39753" data-name="Pfad 39753" d="M92.257,75.514c5.2-3.991,9.043-7.227,6.6-9.129-2.229-1.7-7.141-3.666-14.2,1.191-4.614,3.655-2.311,9.717-3.7,11.581l.264.348c1.376-1.753,5.355.62,11.048-3.991" transform="translate(-56.734 -45.215)" fill="#317018"/>
        <path id="Pfad_39754" data-name="Pfad 39754" d="M99.471,70.773a31.851,31.851,0,0,0-17.644,13.12c1.376-1.753,5.355.62,11.048-3.991,7.9-5.427,9.14-6.965,6.6-9.129" transform="translate(-57.351 -49.604)" fill="#245411"/>
        <path id="Pfad_39755" data-name="Pfad 39755" d="M94.292,96.538l.057-.052a.9.9,0,0,1,.153-.121,1.424,1.424,0,0,1,.261-.141,2.113,2.113,0,0,1,.38-.124,2.644,2.644,0,0,1,.476-.069,3.334,3.334,0,0,1,.542.007,4.233,4.233,0,0,1,.576.094,4.311,4.311,0,0,1,.572.188c.37.15.713.384,1.068.555a6.308,6.308,0,0,0,1.008.407,3.027,3.027,0,0,0,.792.136,1.817,1.817,0,0,0,.319-.017h0a.056.056,0,0,0,.048-.055.047.047,0,0,0-.057-.04,1.7,1.7,0,0,1-.3.006,2.883,2.883,0,0,1-.751-.156,6.131,6.131,0,0,1-.968-.431c-.34-.177-.669-.42-1.059-.6a4.068,4.068,0,0,0-1.2-.352,3.7,3.7,0,0,0-.584-.034,3.018,3.018,0,0,0-.526.052,2.381,2.381,0,0,0-.438.121,1.7,1.7,0,0,0-.329.161,1.268,1.268,0,0,0-.191.139l-.059.049-.007.006a.2.2,0,0,0-.027.263.163.163,0,0,0,.243.012" transform="translate(-65.89 -67.099)" fill="#336609"/>
        <path id="Pfad_39756" data-name="Pfad 39756" d="M107.759,85.581l.058-.038a.84.84,0,0,1,.152-.085,1.487,1.487,0,0,1,.256-.095,2.388,2.388,0,0,1,.372-.075,3.9,3.9,0,0,1,.99.012,4.488,4.488,0,0,1,1.1.29c.354.14.681.345,1.022.5a7.3,7.3,0,0,0,.967.384,3.619,3.619,0,0,0,.763.157,2.134,2.134,0,0,0,.309.007h0c.031,0,.055-.022.054-.045s-.029-.041-.061-.039a2.015,2.015,0,0,1-.286-.016,3.383,3.383,0,0,1-.718-.172,6.939,6.939,0,0,1-.922-.4c-.324-.162-.635-.374-1.01-.543a4.805,4.805,0,0,0-1.164-.357,4.322,4.322,0,0,0-1.089-.058,2.806,2.806,0,0,0-.437.068,1.844,1.844,0,0,0-.333.107,1.277,1.277,0,0,0-.2.1l-.06.035-.008.005a.151.151,0,0,0-.04.232.214.214,0,0,0,.271.027" transform="translate(-75.31 -59.572)" fill="#336609"/>
        <path id="Pfad_39757" data-name="Pfad 39757" d="M122.263,77.343l.047-.021a1.111,1.111,0,0,1,.128-.052,1.2,1.2,0,0,1,.46-.058,2.893,2.893,0,0,1,.732.163c.27.089.555.2.852.312s.6.2.9.29a7.463,7.463,0,0,0,.832.2,2.707,2.707,0,0,0,.632.039c.15-.01.231-.022.231-.022h0c.03,0,.048-.023.039-.043a.077.077,0,0,0-.077-.032s-.081.008-.221.011a2.643,2.643,0,0,1-.573-.061,11.263,11.263,0,0,1-1.642-.529c-.286-.112-.567-.234-.85-.337a3.315,3.315,0,0,0-.845-.208,1.66,1.66,0,0,0-.652.068,1.379,1.379,0,0,0-.144.054l-.048.019-.006,0a.1.1,0,0,0-.042.168.234.234,0,0,0,.246.038" transform="translate(-85.498 -53.959)" fill="#336609"/>
        <path id="Pfad_39758" data-name="Pfad 39758" d="M92.971,77.213a.051.051,0,0,0-.063.03v0a1.254,1.254,0,0,0-.046.271,2.43,2.43,0,0,0,.068.718,6.171,6.171,0,0,0,.322.976c.14.352.342.705.458,1.074a3.977,3.977,0,0,1,.134.569,4.077,4.077,0,0,1,.039.57,3.435,3.435,0,0,1-.042.539,3.011,3.011,0,0,1-.108.475,2.465,2.465,0,0,1-.149.381,1.635,1.635,0,0,1-.153.262,1,1,0,0,1-.124.153l-.052.057-.006.006a.194.194,0,0,0,.006.262.167.167,0,0,0,.245-.024l.05-.06a1.41,1.41,0,0,0,.145-.193,2.053,2.053,0,0,0,.18-.332,2.852,2.852,0,0,0,.155-.441,3.281,3.281,0,0,0,.1-.525,3.724,3.724,0,0,0,.023-.579,4.248,4.248,0,0,0-.067-.6,4.1,4.1,0,0,0-.167-.593c-.145-.39-.359-.729-.507-1.067a5.979,5.979,0,0,1-.35-.939,2.322,2.322,0,0,1-.091-.683,1.163,1.163,0,0,1,.034-.254.046.046,0,0,0-.034-.056" transform="translate(-65.081 -54.116)" fill="#4b9910"/>
        <path id="Pfad_39759" data-name="Pfad 39759" d="M107.152,70.117c.008-.021-.007-.044-.036-.052a.059.059,0,0,0-.071.022v0a.8.8,0,0,0-.053.212,1.589,1.589,0,0,0,.045.573,4.357,4.357,0,0,0,.284.791c.125.287.311.578.412.875a2.355,2.355,0,0,1,.131.905,2.243,2.243,0,0,1-.18.784,1.7,1.7,0,0,1-.158.288,1.24,1.24,0,0,1-.157.194.786.786,0,0,1-.125.111l-.053.042-.007.006a.149.149,0,0,0,0,.234.218.218,0,0,0,.274-.005l.051-.044a1.172,1.172,0,0,0,.15-.145,1.509,1.509,0,0,0,.19-.254,1.9,1.9,0,0,0,.166-.34,2.413,2.413,0,0,0,.152-.867,2.523,2.523,0,0,0-.2-.959c-.132-.318-.331-.6-.465-.872a4.324,4.324,0,0,1-.315-.761,1.53,1.53,0,0,1-.071-.543.748.748,0,0,1,.039-.2" transform="translate(-74.982 -49.105)" fill="#4b9910"/>
        <path id="Pfad_39760" data-name="Pfad 39760" d="M122.239,70.117a1.054,1.054,0,0,1-.113.066l-.043.024-.006,0a.091.091,0,0,0-.007.161.222.222,0,0,0,.233.014l.042-.025a1.259,1.259,0,0,0,.12-.076.753.753,0,0,0,.3-.384,1.011,1.011,0,0,0-.035-.578c-.06-.2-.15-.41-.224-.616a3.472,3.472,0,0,1-.246-1.12.583.583,0,0,1,.105-.332.869.869,0,0,1,.094-.111c.016-.015.008-.038-.019-.052a.084.084,0,0,0-.083,0l0,0a1.037,1.037,0,0,0-.108.114.657.657,0,0,0-.14.357,1.938,1.938,0,0,0,.034.536,5.51,5.51,0,0,0,.145.619c.063.211.139.421.183.614a.891.891,0,0,1,0,.506.584.584,0,0,1-.229.276" transform="translate(-85.525 -47.016)" fill="#4b9910"/>
      </g>
    </g>
    <g id="Gruppe_40607" data-name="Gruppe 40607" transform="translate(21.14 21.13)">
      <g id="Gruppe_40606" data-name="Gruppe 40606" clip-path="url(#clip-path-3)">
        <rect id="Rechteck_693" data-name="Rechteck 693" width="21.038" height="18.953" transform="translate(-0.041)" fill="url(#linear-gradient)"/>
      </g>
    </g>
    <g id="Gruppe_40615" data-name="Gruppe 40615">
      <g id="Gruppe_40614" data-name="Gruppe 40614" clip-path="url(#clip-path)">
        <g id="Gruppe_40610" data-name="Gruppe 40610" transform="translate(26.154 22.354)" style="mix-blend-mode: multiply;isolation: isolate">
          <g id="Gruppe_40609" data-name="Gruppe 40609">
            <g id="Gruppe_40608" data-name="Gruppe 40608" clip-path="url(#clip-path-5)">
              <path id="Pfad_39762" data-name="Pfad 39762" d="M98.685,75.634a3.849,3.849,0,0,1,.948-.9,31.909,31.909,0,0,0-12.194,8.847c1.346-.568,3.286-1.089,4.537-1.581,1.933-.759,5.894-5.073,6.709-6.367" transform="translate(-87.439 -74.735)" fill="#92a889"/>
            </g>
          </g>
        </g>
        <g id="Gruppe_40613" data-name="Gruppe 40613" transform="translate(24.709 19.296)" style="mix-blend-mode: multiply;isolation: isolate">
          <g id="Gruppe_40612" data-name="Gruppe 40612">
            <g id="Gruppe_40611" data-name="Gruppe 40611" clip-path="url(#clip-path-6)">
              <path id="Pfad_39763" data-name="Pfad 39763" d="M96.246,67.57a23.65,23.65,0,0,1,2.943-1.744c-2.5-1.492-7.085-2.576-13.376,1.75-3.585,2.84-2.994,7.134-3.206,9.781a3.167,3.167,0,0,1,1.445-.941A31.908,31.908,0,0,1,96.246,67.57" transform="translate(-82.607 -64.512)" fill="#83967b"/>
            </g>
          </g>
        </g>
        <path id="Pfad_39764" data-name="Pfad 39764" d="M19.85,79.5l.264-.348c-1.391-1.863.911-7.926-3.7-11.581-7.064-4.857-11.976-2.895-14.2-1.191-2.446,1.9,1.393,5.138,6.6,9.129C14.5,80.125,18.474,77.752,19.85,79.5" transform="translate(-1.017 -45.215)" fill="#245411"/>
        <path id="Pfad_39765" data-name="Pfad 39765" d="M18.833,83.894A31.851,31.851,0,0,0,1.189,70.774c-2.543,2.165-1.3,3.7,6.6,9.129,5.693,4.611,9.672,2.238,11.048,3.991" transform="translate(0 -49.604)" fill="#317018"/>
        <path id="Pfad_39766" data-name="Pfad 39766" d="M28.979,97.4a1.816,1.816,0,0,0,.319.017,3.023,3.023,0,0,0,.792-.135,6.287,6.287,0,0,0,1.008-.407c.355-.171.7-.4,1.068-.555a4.325,4.325,0,0,1,.571-.188,4.241,4.241,0,0,1,.575-.094,3.341,3.341,0,0,1,.543-.007,2.673,2.673,0,0,1,.475.069,2.112,2.112,0,0,1,.38.124,1.44,1.44,0,0,1,.261.141.93.93,0,0,1,.153.121l.057.052a.163.163,0,0,0,.243-.012.2.2,0,0,0-.027-.263l-.007-.006-.059-.049a1.251,1.251,0,0,0-.191-.139,1.724,1.724,0,0,0-.329-.161,2.382,2.382,0,0,0-.439-.121,2.984,2.984,0,0,0-.526-.051,3.7,3.7,0,0,0-.584.033,4.549,4.549,0,0,0-.608.127,4.5,4.5,0,0,0-.6.225c-.39.182-.719.424-1.059.6a6.118,6.118,0,0,1-.968.431,2.867,2.867,0,0,1-.75.156,1.707,1.707,0,0,1-.3-.006.047.047,0,0,0-.057.04.056.056,0,0,0,.048.055h0" transform="translate(-20.274 -67.099)" fill="#4b9910"/>
        <path id="Pfad_39767" data-name="Pfad 39767" d="M16.134,86.643a2.19,2.19,0,0,0,.309-.007,3.642,3.642,0,0,0,.763-.157,7.331,7.331,0,0,0,.967-.384c.341-.157.668-.362,1.022-.5a4.491,4.491,0,0,1,1.1-.29,3.89,3.89,0,0,1,.99-.012,2.353,2.353,0,0,1,.373.075,1.449,1.449,0,0,1,.256.095.855.855,0,0,1,.152.085l.058.038a.214.214,0,0,0,.271-.027.151.151,0,0,0-.04-.232l-.008-.005-.06-.035a1.258,1.258,0,0,0-.2-.1,1.859,1.859,0,0,0-.333-.108,2.833,2.833,0,0,0-.437-.068,4.324,4.324,0,0,0-1.09.058,4.823,4.823,0,0,0-1.164.357c-.374.17-.686.382-1.01.544a7,7,0,0,1-.922.4,3.421,3.421,0,0,1-.718.172,1.982,1.982,0,0,1-.286.015c-.033,0-.06.016-.062.04s.022.043.054.045h0" transform="translate(-11.267 -59.573)" fill="#4b9910"/>
        <path id="Pfad_39768" data-name="Pfad 39768" d="M5.688,78.19s.08.012.231.022a2.707,2.707,0,0,0,.632-.039,7.461,7.461,0,0,0,.832-.2c.294-.086.6-.181.9-.29s.582-.223.852-.312a2.884,2.884,0,0,1,.732-.163,1.214,1.214,0,0,1,.46.058,1.126,1.126,0,0,1,.127.052l.047.021a.234.234,0,0,0,.246-.038.1.1,0,0,0-.042-.168l-.006,0-.048-.019a1.38,1.38,0,0,0-.144-.054,1.66,1.66,0,0,0-.652-.068,3.327,3.327,0,0,0-.845.208c-.283.1-.564.224-.85.337a11.316,11.316,0,0,1-1.642.529,2.658,2.658,0,0,1-.573.061c-.139,0-.221-.011-.221-.011a.077.077,0,0,0-.077.032c-.008.019.009.038.039.043h0" transform="translate(-3.954 -53.958)" fill="#4b9910"/>
        <path id="Pfad_39769" data-name="Pfad 39769" d="M48.336,79.146c-.148.338-.362.677-.507,1.067a4.137,4.137,0,0,0-.167.593,4.247,4.247,0,0,0-.067.6,3.724,3.724,0,0,0,.023.579,3.281,3.281,0,0,0,.1.525,2.866,2.866,0,0,0,.155.441,2.038,2.038,0,0,0,.18.332,1.431,1.431,0,0,0,.145.193l.05.06a.167.167,0,0,0,.245.024A.194.194,0,0,0,48.5,83.3l-.006-.006-.052-.057a1.033,1.033,0,0,1-.124-.153,1.7,1.7,0,0,1-.153-.262,2.5,2.5,0,0,1-.149-.381,3.044,3.044,0,0,1-.108-.475,3.507,3.507,0,0,1-.042-.539,4.075,4.075,0,0,1,.039-.57,3.923,3.923,0,0,1,.133-.569c.116-.369.318-.722.458-1.074a6.172,6.172,0,0,0,.322-.976,2.419,2.419,0,0,0,.068-.718,1.231,1.231,0,0,0-.046-.271v0a.051.051,0,0,0-.063-.03.046.046,0,0,0-.034.056,1.141,1.141,0,0,1,.034.254,2.3,2.3,0,0,1-.091.683,5.975,5.975,0,0,1-.349.939" transform="translate(-33.357 -54.116)" fill="#4b9910"/>
        <path id="Pfad_39770" data-name="Pfad 39770" d="M34.53,71.618c-.135.275-.334.555-.465.872a2.516,2.516,0,0,0-.2.959,2.406,2.406,0,0,0,.151.867,1.9,1.9,0,0,0,.167.34,1.492,1.492,0,0,0,.189.254,1.215,1.215,0,0,0,.15.145l.051.044a.218.218,0,0,0,.274.005.149.149,0,0,0,0-.234l-.007-.006-.053-.042a.8.8,0,0,1-.125-.111,1.226,1.226,0,0,1-.157-.194,1.7,1.7,0,0,1-.158-.288,2.249,2.249,0,0,1-.18-.784,2.36,2.36,0,0,1,.13-.905c.1-.3.286-.588.412-.875a4.406,4.406,0,0,0,.284-.791,1.6,1.6,0,0,0,.045-.573.81.81,0,0,0-.053-.212v0a.059.059,0,0,0-.07-.022c-.028.008-.044.032-.036.052a.737.737,0,0,1,.039.2,1.529,1.529,0,0,1-.071.543,4.34,4.34,0,0,1-.315.761" transform="translate(-23.737 -49.105)" fill="#4b9910"/>
        <path id="Pfad_39771" data-name="Pfad 39771" d="M20.272,69.321a1.014,1.014,0,0,0-.034.578.747.747,0,0,0,.3.384,1.28,1.28,0,0,0,.12.077l.042.025a.221.221,0,0,0,.233-.014.091.091,0,0,0-.007-.16l-.006,0-.043-.024a1.066,1.066,0,0,1-.113-.066.579.579,0,0,1-.229-.275.891.891,0,0,1,0-.506c.044-.194.121-.4.183-.614a5.516,5.516,0,0,0,.145-.619,1.949,1.949,0,0,0,.034-.536.659.659,0,0,0-.14-.357,1.026,1.026,0,0,0-.108-.115l0,0a.084.084,0,0,0-.083,0c-.027.014-.035.037-.019.052a.9.9,0,0,1,.094.111.587.587,0,0,1,.1.332A3.47,3.47,0,0,1,20.5,68.7c-.074.206-.164.413-.224.616" transform="translate(-14.164 -47.016)" fill="#336609"/>
      </g>
    </g>
    <g id="Gruppe_40617" data-name="Gruppe 40617" transform="translate(1.192 21.13)">
      <g id="Gruppe_40616" data-name="Gruppe 40616" clip-path="url(#clip-path-7)">
        <rect id="Rechteck_697" data-name="Rechteck 697" width="21.038" height="18.953" transform="translate(-0.019)" fill="url(#linear-gradient-2)"/>
      </g>
    </g>
    <g id="Gruppe_40625" data-name="Gruppe 40625">
      <g id="Gruppe_40624" data-name="Gruppe 40624" clip-path="url(#clip-path)">
        <g id="Gruppe_40620" data-name="Gruppe 40620" transform="translate(4.961 22.354)" style="mix-blend-mode: multiply;isolation: isolate">
          <g id="Gruppe_40619" data-name="Gruppe 40619">
            <g id="Gruppe_40618" data-name="Gruppe 40618" clip-path="url(#clip-path-5)">
              <path id="Pfad_39773" data-name="Pfad 39773" d="M24.243,82c1.251.492,3.191,1.013,4.537,1.581a31.908,31.908,0,0,0-12.193-8.847,3.849,3.849,0,0,1,.948.9c.814,1.294,4.776,5.608,6.709,6.367" transform="translate(-16.587 -74.735)" fill="#92a889"/>
            </g>
          </g>
        </g>
        <g id="Gruppe_40623" data-name="Gruppe 40623" transform="translate(2.018 19.296)" style="mix-blend-mode: multiply;isolation: isolate">
          <g id="Gruppe_40622" data-name="Gruppe 40622">
            <g id="Gruppe_40621" data-name="Gruppe 40621" clip-path="url(#clip-path-6)">
              <path id="Pfad_39774" data-name="Pfad 39774" d="M21.884,76.416a3.164,3.164,0,0,1,1.445.941c-.211-2.648.379-6.941-3.206-9.781C13.833,63.25,9.25,64.334,6.748,65.826A23.649,23.649,0,0,1,9.691,67.57a31.9,31.9,0,0,1,12.193,8.847" transform="translate(-6.748 -64.512)" fill="#83967b"/>
            </g>
          </g>
        </g>
        <path id="Pfad_39775" data-name="Pfad 39775" d="M73.408,49.691c.98-2.7,6.8-1.39,11.923-9.32,4.768-6.976,8.169-12.478,4.41-13.825-3.413-1.191-10.215-1.621-16.912,7.161-4.18,6.327,1.072,12.824.117,15.664l.462.32" transform="translate(-49.896 -18.158)" fill="#317018"/>
        <path id="Pfad_39776" data-name="Pfad 39776" d="M90.527,41.866c7.489-9.815,8.393-12.2,4.411-13.825A41.035,41.035,0,0,0,78.6,51.187c.98-2.7,6.8-1.39,11.922-9.32" transform="translate(-55.093 -19.654)" fill="#245411"/>
        <path id="Pfad_39777" data-name="Pfad 39777" d="M87.206,76.083,87.255,76a1.172,1.172,0,0,1,.139-.209,1.841,1.841,0,0,1,.262-.278,2.73,2.73,0,0,1,.415-.3,3.421,3.421,0,0,1,.555-.275,4.336,4.336,0,0,1,.666-.21,5.458,5.458,0,0,1,.742-.116,5.538,5.538,0,0,1,.775,0c.513.036,1.027.184,1.53.25a8.15,8.15,0,0,0,1.4.094,3.906,3.906,0,0,0,1.024-.152,2.354,2.354,0,0,0,.384-.149l0,0a.072.072,0,0,0,.037-.087.061.061,0,0,0-.086-.025,2.175,2.175,0,0,1-.363.127,3.7,3.7,0,0,1-.982.112,7.918,7.918,0,0,1-1.358-.14c-.488-.08-.987-.246-1.538-.312a5.224,5.224,0,0,0-1.615.053,4.734,4.734,0,0,0-.729.193,3.894,3.894,0,0,0-.624.275,3.069,3.069,0,0,0-.488.325,2.213,2.213,0,0,0-.338.33,1.627,1.627,0,0,0-.178.247l-.052.083-.006.01a.255.255,0,0,0,.072.333.21.21,0,0,0,.3-.083" transform="translate(-60.836 -52.063)" fill="#336609"/>
        <path id="Pfad_39778" data-name="Pfad 39778" d="M99.1,57.417l.056-.069a1.113,1.113,0,0,1,.152-.165,1.894,1.894,0,0,1,.276-.219,3.054,3.054,0,0,1,.426-.241,5.023,5.023,0,0,1,1.217-.383,5.816,5.816,0,0,1,1.468-.088c.489.03.972.149,1.452.2a9.4,9.4,0,0,0,1.338.082,4.677,4.677,0,0,0,1-.114,2.8,2.8,0,0,0,.381-.115l.005,0c.037-.016.058-.05.048-.077a.069.069,0,0,0-.092-.024,2.555,2.555,0,0,1-.356.1,4.391,4.391,0,0,1-.948.078,9.05,9.05,0,0,1-1.29-.123c-.461-.068-.927-.2-1.454-.26a6.2,6.2,0,0,0-1.568.03,5.568,5.568,0,0,0-1.357.367,3.642,3.642,0,0,0-.508.258,2.409,2.409,0,0,0-.364.265,1.618,1.618,0,0,0-.2.2l-.059.066-.008.01a.2.2,0,0,0,.044.3.277.277,0,0,0,.343-.076" transform="translate(-69.15 -39.222)" fill="#336609"/>
        <path id="Pfad_39779" data-name="Pfad 39779" d="M113.355,41.99l.049-.044a1.454,1.454,0,0,1,.135-.115,1.55,1.55,0,0,1,.54-.256,3.718,3.718,0,0,1,.962-.095c.366,0,.762.027,1.169.04s.819.008,1.214-.005a9.564,9.564,0,0,0,1.1-.092,3.5,3.5,0,0,0,.789-.205c.18-.073.274-.12.274-.12l.006,0c.035-.018.049-.048.031-.068a.1.1,0,0,0-.107-.008s-.1.042-.266.1a3.4,3.4,0,0,1-.726.156,14.538,14.538,0,0,1-2.222.011c-.4-.022-.788-.059-1.175-.071a4.262,4.262,0,0,0-1.119.085,2.14,2.14,0,0,0-.77.345,1.751,1.751,0,0,0-.155.124l-.051.043-.006.005a.127.127,0,0,0,.015.223.3.3,0,0,0,.316-.051" transform="translate(-79.176 -28.741)" fill="#336609"/>
        <path id="Pfad_39780" data-name="Pfad 39780" d="M80.321,62.033a1.285,1.285,0,0,1-.09.237l-.041.091,0,.01a.25.25,0,0,0,.113.318.216.216,0,0,0,.29-.128s.013-.032.037-.093a1.871,1.871,0,0,0,.1-.295,2.617,2.617,0,0,0,.087-.479,3.687,3.687,0,0,0,.013-.6,4.224,4.224,0,0,0-.089-.683,4.784,4.784,0,0,0-.2-.718,5.423,5.423,0,0,0-.323-.71,5.268,5.268,0,0,0-.443-.659c-.334-.42-.732-.748-1.048-1.1a7.712,7.712,0,0,1-.8-1.01,2.983,2.983,0,0,1-.386-.8,1.492,1.492,0,0,1-.06-.325.06.06,0,0,0-.065-.055.066.066,0,0,0-.065.062.011.011,0,0,0,0,0,1.591,1.591,0,0,0,.052.351,3.127,3.127,0,0,0,.372.852,7.945,7.945,0,0,0,.786,1.065c.313.375.7.725.992,1.131a5.078,5.078,0,0,1,.392.643,5.259,5.259,0,0,1,.277.683,4.49,4.49,0,0,1,.165.677,3.894,3.894,0,0,1,.059.625,3.215,3.215,0,0,1-.03.527,2.129,2.129,0,0,1-.082.382" transform="translate(-54.204 -38.57)" fill="#4b9910"/>
        <path id="Pfad_39781" data-name="Pfad 39781" d="M91.871,40.585a.076.076,0,0,0-.077.056v0a1.044,1.044,0,0,0,.02.281,2.048,2.048,0,0,0,.285.683,5.642,5.642,0,0,0,.665.855c.269.3.613.583.855.906a3.04,3.04,0,0,1,.523,1.056,2.9,2.9,0,0,1,.094,1.033,2.182,2.182,0,0,1-.078.416,1.6,1.6,0,0,1-.115.3,1.024,1.024,0,0,1-.109.186l-.048.072-.007.01a.192.192,0,0,0,.091.287.28.28,0,0,0,.333-.116l.045-.074a1.552,1.552,0,0,0,.126-.238,1.934,1.934,0,0,0,.13-.387,2.469,2.469,0,0,0,.067-.483,3.1,3.1,0,0,0-.162-1.122,3.237,3.237,0,0,0-.626-1.1c-.289-.336-.645-.6-.92-.881a5.594,5.594,0,0,1-.691-.8,1.971,1.971,0,0,1-.3-.637.951.951,0,0,1-.032-.258c0-.029-.027-.051-.065-.05" transform="translate(-64.335 -28.445)" fill="#4b9910"/>
        <path id="Pfad_39782" data-name="Pfad 39782" d="M109.9,30.606c.014-.025-.005-.05-.044-.056a.108.108,0,0,0-.1.036l0,0a1.278,1.278,0,0,0-.086.183.848.848,0,0,0-.028.493,2.514,2.514,0,0,0,.256.643,7.182,7.182,0,0,0,.427.7c.161.234.339.459.471.679A1.15,1.15,0,0,1,111,33.9a.751.751,0,0,1-.17.43,1.441,1.441,0,0,1-.112.126l-.044.046-.006.007a.117.117,0,0,0,.055.2.285.285,0,0,0,.291-.076l.041-.047a1.582,1.582,0,0,0,.116-.142.964.964,0,0,0,.208-.59,1.3,1.3,0,0,0-.274-.694c-.155-.224-.348-.442-.521-.664a4.468,4.468,0,0,1-.752-1.272.755.755,0,0,1,0-.448,1.135,1.135,0,0,1,.071-.173" transform="translate(-76.828 -21.411)" fill="#4b9910"/>
      </g>
    </g>
    <g id="Gruppe_40627" data-name="Gruppe 40627" transform="translate(21.455 8.396)">
      <g id="Gruppe_40626" data-name="Gruppe 40626" clip-path="url(#clip-path-11)">
        <rect id="Rechteck_701" data-name="Rechteck 701" width="18.457" height="31.547" transform="translate(-0.021 0)" fill="url(#linear-gradient-3)"/>
      </g>
    </g>
    <g id="Gruppe_40641" data-name="Gruppe 40641">
      <g id="Gruppe_40640" data-name="Gruppe 40640" clip-path="url(#clip-path)">
        <g id="Gruppe_40630" data-name="Gruppe 40630" transform="translate(23.162 11.04)" style="mix-blend-mode: multiply;isolation: isolate">
          <g id="Gruppe_40629" data-name="Gruppe 40629">
            <g id="Gruppe_40628" data-name="Gruppe 40628" clip-path="url(#clip-path-13)">
              <path id="Pfad_39784" data-name="Pfad 39784" d="M77.434,56.417c1.318-2.027,4.6-4.519,6.128-5.838,1.8-1.556,3.426-8.225,4.58-11.074a12.168,12.168,0,0,0,.694-2.6,13.218,13.218,0,0,1-.377,1.668A41.037,41.037,0,0,0,77.434,56.148h0c0,.092,0,.182,0,.269" transform="translate(-77.434 -36.909)" fill="#a1ba97"/>
            </g>
          </g>
        </g>
        <g id="Gruppe_40633" data-name="Gruppe 40633" transform="translate(34.563 10.981)" style="mix-blend-mode: multiply;isolation: isolate">
          <g id="Gruppe_40632" data-name="Gruppe 40632">
            <g id="Gruppe_40631" data-name="Gruppe 40631" clip-path="url(#clip-path-14)">
              <path id="Pfad_39785" data-name="Pfad 39785" d="M115.552,36.77c0-.02.006-.039.01-.06,0,.02-.007.04-.01.06" transform="translate(-115.552 -36.71)" fill="#a1ba97"/>
            </g>
          </g>
        </g>
        <g id="Gruppe_40636" data-name="Gruppe 40636" transform="translate(34.573 10.419)" style="mix-blend-mode: multiply;isolation: isolate">
          <g id="Gruppe_40635" data-name="Gruppe 40635">
            <g id="Gruppe_40634" data-name="Gruppe 40634" clip-path="url(#clip-path-15)">
              <path id="Pfad_39786" data-name="Pfad 39786" d="M115.584,35.4c.029-.187.056-.374.077-.561-.022.188-.048.375-.077.561" transform="translate(-115.584 -34.834)" fill="#a1ba97"/>
            </g>
          </g>
        </g>
        <g id="Gruppe_40639" data-name="Gruppe 40639" transform="translate(21.293 7.827)" style="mix-blend-mode: multiply;isolation: isolate">
          <g id="Gruppe_40638" data-name="Gruppe 40638">
            <g id="Gruppe_40637" data-name="Gruppe 40637" clip-path="url(#clip-path-16)">
              <path id="Pfad_39787" data-name="Pfad 39787" d="M84.08,31.048a12.471,12.471,0,0,0,.477-4.882c-3.4.38-7.584,2.284-11.731,7.723-3.773,5.71.134,11.556.229,14.73A41.035,41.035,0,0,1,84.08,31.048" transform="translate(-71.187 -26.166)" fill="#92a889"/>
            </g>
          </g>
        </g>
        <path id="Pfad_39788" data-name="Pfad 39788" d="M25.76,33.707c-6.7-8.782-13.5-8.352-16.912-7.161-3.759,1.348-.357,6.849,4.411,13.825,5.118,7.93,10.942,6.623,11.922,9.32l.462-.32c-.955-2.84,4.3-9.337.117-15.664" transform="translate(-5.076 -18.158)" fill="#245411"/>
        <path id="Pfad_39789" data-name="Pfad 39789" d="M23.484,51.187A41.037,41.037,0,0,0,7.151,28.041c-3.982,1.629-3.078,4.01,4.411,13.825,5.118,7.93,10.942,6.622,11.922,9.32" transform="translate(-3.379 -19.654)" fill="#317018"/>
        <path id="Pfad_39790" data-name="Pfad 39790" d="M31.391,74.8a3.916,3.916,0,0,0,1.024.152,8.121,8.121,0,0,0,1.4-.095c.5-.066,1.017-.214,1.53-.25a5.585,5.585,0,0,1,.775,0,5.458,5.458,0,0,1,.742.117,4.369,4.369,0,0,1,.666.209,3.435,3.435,0,0,1,.555.276,2.692,2.692,0,0,1,.415.3,1.817,1.817,0,0,1,.262.278A1.156,1.156,0,0,1,38.9,76l.049.086a.211.211,0,0,0,.3.083.255.255,0,0,0,.072-.333l-.006-.01-.052-.084a1.644,1.644,0,0,0-.178-.246,2.224,2.224,0,0,0-.338-.33,3.089,3.089,0,0,0-.488-.325,3.88,3.88,0,0,0-.623-.275,4.745,4.745,0,0,0-.729-.193,5.765,5.765,0,0,0-.8-.089,5.868,5.868,0,0,0-.819.036c-.551.066-1.05.232-1.538.312a7.85,7.85,0,0,1-1.357.14,3.691,3.691,0,0,1-.982-.111,2.188,2.188,0,0,1-.363-.127.061.061,0,0,0-.086.025.072.072,0,0,0,.037.087l0,0a2.355,2.355,0,0,0,.384.149" transform="translate(-21.7 -52.063)" fill="#4b9910"/>
        <path id="Pfad_39791" data-name="Pfad 39791" d="M19.612,56.311a2.8,2.8,0,0,0,.381.115,4.691,4.691,0,0,0,1,.114,9.4,9.4,0,0,0,1.338-.083c.48-.055.963-.174,1.453-.2a5.8,5.8,0,0,1,1.468.088,5.027,5.027,0,0,1,1.217.383,3.069,3.069,0,0,1,.426.241,1.9,1.9,0,0,1,.276.218,1.114,1.114,0,0,1,.152.165l.056.069a.276.276,0,0,0,.342.076.2.2,0,0,0,.044-.3l-.008-.01-.059-.067a1.639,1.639,0,0,0-.2-.2,2.426,2.426,0,0,0-.364-.265,3.658,3.658,0,0,0-.508-.259,5.571,5.571,0,0,0-1.357-.366A6.185,6.185,0,0,0,23.7,56c-.527.057-.993.192-1.455.26a8.96,8.96,0,0,1-1.29.123,4.4,4.4,0,0,1-.948-.077,2.556,2.556,0,0,1-.356-.1.069.069,0,0,0-.091.024.066.066,0,0,0,.048.077l.005,0" transform="translate(-13.707 -39.223)" fill="#4b9910"/>
        <path id="Pfad_39792" data-name="Pfad 39792" d="M10.9,41.217a3.5,3.5,0,0,0,.789.205,9.62,9.62,0,0,0,1.1.092c.395.013.8.019,1.214,0s.8-.039,1.168-.04a3.731,3.731,0,0,1,.962.095,1.56,1.56,0,0,1,.54.256,1.448,1.448,0,0,1,.135.115l.049.044a.3.3,0,0,0,.316.051.127.127,0,0,0,.015-.222l-.006-.005-.05-.043a1.873,1.873,0,0,0-.155-.124A2.139,2.139,0,0,0,16.2,41.3a4.285,4.285,0,0,0-1.118-.085c-.387.012-.78.048-1.176.071a14.493,14.493,0,0,1-2.222-.011,3.37,3.37,0,0,1-.727-.156c-.169-.059-.265-.1-.265-.1a.1.1,0,0,0-.106.008c-.018.021,0,.051.031.068l.006,0s.094.047.274.12" transform="translate(-7.416 -28.741)" fill="#4b9910"/>
        <path id="Pfad_39793" data-name="Pfad 39793" d="M57.419,59.822a5.3,5.3,0,0,1,.277-.683,5.1,5.1,0,0,1,.392-.643c.29-.406.68-.756.992-1.131a7.944,7.944,0,0,0,.786-1.065,3.126,3.126,0,0,0,.372-.852,1.6,1.6,0,0,0,.052-.35v0a.067.067,0,0,0-.066-.062.06.06,0,0,0-.065.055,1.5,1.5,0,0,1-.06.325,2.987,2.987,0,0,1-.386.8,7.712,7.712,0,0,1-.8,1.01c-.316.354-.714.683-1.049,1.1a5.3,5.3,0,0,0-.442.659,5.423,5.423,0,0,0-.323.71,4.782,4.782,0,0,0-.2.718,4.225,4.225,0,0,0-.089.683,3.687,3.687,0,0,0,.013.6,2.643,2.643,0,0,0,.087.479,1.859,1.859,0,0,0,.1.295l.038.093a.215.215,0,0,0,.29.128.25.25,0,0,0,.113-.318l0-.01L57.4,62.27a1.288,1.288,0,0,1-.09-.237,2.13,2.13,0,0,1-.082-.382,3.217,3.217,0,0,1-.03-.527,3.862,3.862,0,0,1,.059-.625,4.489,4.489,0,0,1,.164-.677" transform="translate(-39.807 -38.57)" fill="#4b9910"/>
        <path id="Pfad_39794" data-name="Pfad 39794" d="M46.736,40.3l0,.045-.014.093a1.157,1.157,0,0,1-.053.185,1.972,1.972,0,0,1-.18.36,4.744,4.744,0,0,1-.519.662,8.192,8.192,0,0,1-.612.6,4.721,4.721,0,0,0-.614.648,3.348,3.348,0,0,0-.66,1.655,3.09,3.09,0,0,0-.016.45c.013.167.041.293.061.442a2.131,2.131,0,0,0,.129.434l.018.051a.382.382,0,0,0,.015.037l.013.024.052.1.052.1.007.012,0,.006a.848.848,0,1,0,.016-.1h0l0,0,.014.023.029.047-.013.1a.359.359,0,0,0,.416.15.27.27,0,0,0,.054-.025.246.246,0,0,0,.052-.04.26.26,0,0,0,.066-.11.283.283,0,0,0-.041-.235l.117-.082-.042-.063,0-.006v0l0,0v0l-.009-.015-.019-.032-.076-.128h0v0a2.631,2.631,0,0,1-.109-.309c-.022-.121-.058-.279-.068-.368a2.67,2.67,0,0,1,.042-.73,2.85,2.85,0,0,1,.415-1.023,3.024,3.024,0,0,1,.223-.3c.33-.369.749-.74,1.073-1.171A4.109,4.109,0,0,0,47,41.1a2.19,2.19,0,0,0,.154-.4,1.542,1.542,0,0,0,.042-.217l.009-.112v-.113h0c0,.021-.005.077-.025.095l.023-.108v-.013h0l0-.021a.2.2,0,0,0-.024-.053.221.221,0,0,0-.058-.063.257.257,0,0,0-.128-.049h-.031a.294.294,0,0,0-.038,0,.235.235,0,0,0-.077.028.209.209,0,0,0-.105.191h0l.019.068a.476.476,0,0,1-.019-.063v.03Zm.1.311a1.179,1.179,0,0,0,.035-.17l.008-.085v-.073h0s0,0,0-.007h0v0a.17.17,0,0,1,.025-.1l-.023.108v0l0,.009a.108.108,0,0,0,.013.03.1.1,0,0,0,.024.027.072.072,0,0,0,.036.014h.02a.1.1,0,0,0,.03-.011.122.122,0,0,0,.057-.11l-.02-.069c.036.106.013.062.02.074v.067l-.006.063c0,.042-.012.082-.02.121a1.489,1.489,0,0,1-.07.233,2.286,2.286,0,0,1-.216.415,4.609,4.609,0,0,1-.567.7,8.483,8.483,0,0,1-.645.6,4.474,4.474,0,0,0-.6.6v0a3.246,3.246,0,0,0-.49,1.156,3.064,3.064,0,0,0-.06.845c.02.173.046.272.068.411a2.539,2.539,0,0,0,.148.437l0,0,.076.131.045.077.042.063.07.106-.012.005a.2.2,0,0,1-.228-.09l-.013.1-.028-.046-.014-.023,0,0h0a.867.867,0,1,0,.015-.1l0-.006-.006-.012L44.5,46l-.05-.1-.012-.024c.007.016,0-.011,0-.014l-.017-.052a1.924,1.924,0,0,1-.11-.4c-.015-.139-.043-.3-.048-.421a2.856,2.856,0,0,1,.026-.42,3.115,3.115,0,0,1,.654-1.526l0,0a3.484,3.484,0,0,1,.255-.33c.184-.21.383-.389.566-.571a7.642,7.642,0,0,0,.517-.573,3.778,3.778,0,0,0,.422-.625,1.853,1.853,0,0,0,.135-.336" transform="translate(-30.882 -28.063)" fill="#336609"/>
        <path id="Pfad_39795" data-name="Pfad 39795" d="M47.116,58.92h0l0,0Z" transform="translate(-33.022 -41.294)" fill="#336609"/>
        <path id="Pfad_39796" data-name="Pfad 39796" d="M53,40.787h0s0,0,0,.005h0Z" transform="translate(-37.149 -28.586)" fill="#336609"/>
        <path id="Pfad_39797" data-name="Pfad 39797" d="M47.464,59.506v0l0,0" transform="translate(-33.265 -41.704)" fill="#336609"/>
        <rect id="Rechteck_706" data-name="Rechteck 706" width="0.002" height="0.008" transform="translate(16.321 12.178) rotate(-4.581)" fill="#336609"/>
        <path id="Pfad_39798" data-name="Pfad 39798" d="M54.57,40.733v.006c0-.007,0-.011,0-.006" transform="translate(-38.247 -28.547)" fill="#336609"/>
        <path id="Pfad_39799" data-name="Pfad 39799" d="M53.479,40.857h0v0c0-.007,0,.008,0,0Z" transform="translate(-37.483 -28.636)" fill="#336609"/>
        <path id="Pfad_39800" data-name="Pfad 39800" d="M53.479,40.857h0" transform="translate(-37.483 -28.636)" fill="#336609"/>
        <path id="Pfad_39801" data-name="Pfad 39801" d="M53.476,40.828h0v-.012h0v.012Z" transform="translate(-37.48 -28.607)" fill="#336609"/>
        <path id="Pfad_39802" data-name="Pfad 39802" d="M53.479,40.857v0h0v0" transform="translate(-37.483 -28.635)" fill="#336609"/>
        <path id="Pfad_39803" data-name="Pfad 39803" d="M53.5,40.493a.172.172,0,0,0-.025.1V40.6Z" transform="translate(-37.48 -28.381)" fill="#336609"/>
        <path id="Pfad_39804" data-name="Pfad 39804" d="M53.473,40.8v0h0v0" transform="translate(-37.478 -28.597)" fill="#336609"/>
        <path id="Pfad_39805" data-name="Pfad 39805" d="M48.336,41.887c-.161.2-.337.394-.517.573s-.382.361-.566.571a3.362,3.362,0,0,0-.255.33,4.474,4.474,0,0,1,.6-.6,8.487,8.487,0,0,0,.645-.6,4.606,4.606,0,0,0,.567-.7,2.315,2.315,0,0,0,.216-.415,1.5,1.5,0,0,0,.07-.233c.008-.04.016-.08.02-.121l.006-.064v-.067c-.007-.013.016.031-.02-.074l.02.068a.122.122,0,0,1-.057.11.087.087,0,0,1-.03.011H49.02c.008,0-.006,0-.006,0a.069.069,0,0,1-.036-.014.1.1,0,0,1-.024-.027.111.111,0,0,1-.013-.031l0-.008c0,.009,0-.006,0,0h0v-.012c0,.008,0,.012,0,.007h0v.073l-.008.085a1.187,1.187,0,0,1-.035.17,1.86,1.86,0,0,1-.135.335,3.78,3.78,0,0,1-.422.625" transform="translate(-32.941 -28.38)" fill="#336609"/>
        <path id="Pfad_39806" data-name="Pfad 39806" d="M31.1,32.5c-.174.222-.367.439-.521.664a1.3,1.3,0,0,0-.274.694.966.966,0,0,0,.208.59,1.565,1.565,0,0,0,.117.141l.041.048a.286.286,0,0,0,.291.076.117.117,0,0,0,.055-.2l-.006-.007-.043-.046a1.4,1.4,0,0,1-.112-.126.75.75,0,0,1-.17-.43,1.152,1.152,0,0,1,.207-.618c.132-.219.31-.445.471-.678a7.191,7.191,0,0,0,.427-.7,2.523,2.523,0,0,0,.256-.643.85.85,0,0,0-.028-.492,1.337,1.337,0,0,0-.086-.183l0,0a.106.106,0,0,0-.1-.036c-.038.006-.057.031-.044.056a1.1,1.1,0,0,1,.071.173.753.753,0,0,1,0,.448A4.476,4.476,0,0,1,31.1,32.5" transform="translate(-21.24 -21.411)" fill="#336609"/>
      </g>
    </g>
    <g id="Gruppe_40643" data-name="Gruppe 40643" transform="translate(3.747 8.396)">
      <g id="Gruppe_40642" data-name="Gruppe 40642" clip-path="url(#clip-path-17)">
        <rect id="Rechteck_708" data-name="Rechteck 708" width="18.457" height="31.547" transform="translate(-0.02 0)" fill="url(#linear-gradient-4)"/>
      </g>
    </g>
    <g id="Gruppe_40648" data-name="Gruppe 40648">
      <g id="Gruppe_40647" data-name="Gruppe 40647" clip-path="url(#clip-path)">
        <g id="Gruppe_40646" data-name="Gruppe 40646" transform="translate(8.884 7.827)" style="mix-blend-mode: multiply;isolation: isolate">
          <g id="Gruppe_40645" data-name="Gruppe 40645">
            <g id="Gruppe_40644" data-name="Gruppe 40644" clip-path="url(#clip-path-19)">
              <path id="Pfad_39808" data-name="Pfad 39808" d="M41.5,33.888c-4.147-5.438-8.333-7.342-11.731-7.722a12.581,12.581,0,0,0,.794,5.809c1.154,2.849,2.778,9.518,4.58,11.074,1.527,1.319,4.81,3.811,6.128,5.838-.138-3.1,4.111-9.124.229-15" transform="translate(-29.7 -26.166)" fill="#a1ba97"/>
            </g>
          </g>
        </g>
        <path id="Pfad_39809" data-name="Pfad 39809" d="M56.988,31.018c0-3.181,7.794-5.479,7.794-14.952C64.782,7.635,60.964,0,56.67,0c-3.461,0-5.392,2.178-6.485,9.679a44.654,44.654,0,0,0-.407,6.387c0,8.83,6.574,11.771,6.574,14.952Z" transform="translate(-34.889)" fill="#317018"/>
        <path id="Pfad_39810" data-name="Pfad 39810" d="M52.28,31.018,52.6,0c-3.332,0-6.041,2.2-7.239,8.979,0,0-1.391,2.039-1.391,7.087,0,9.474,8.311,11.771,8.311,14.952" transform="translate(-30.817)" fill="#317018"/>
        <path id="Pfad_39811" data-name="Pfad 39811" d="M81.448,16.066c0-5.048-1.39-7.087-1.39-7.087C78.86,2.2,76.151,0,72.819,0l.318,31.018c0-3.181,8.311-5.479,8.311-14.952" transform="translate(-51.038)" fill="#245411"/>
        <path id="Pfad_39812" data-name="Pfad 39812" d="M74.789,15.282A78.328,78.328,0,0,0,72.819,0l.171,29.677.323.508c.969-2.723,1.477-7.89,1.477-14.9" transform="translate(-51.038 -0.001)" fill="#317018"/>
        <path id="Pfad_39813" data-name="Pfad 39813" d="M68.2,0a78.333,78.333,0,0,0-1.97,15.281c0,7.014.507,12.181,1.476,14.9l.323-.508Z" transform="translate(-46.422)" fill="#245411"/>
        <path id="Pfad_39814" data-name="Pfad 39814" d="M71.958,38.655s0,.01,0,.013a.257.257,0,0,0,.514.022s0-.033,0-.095a1.1,1.1,0,0,1,.028-.235,1.759,1.759,0,0,1,.1-.35,2.7,2.7,0,0,1,.222-.446,4.229,4.229,0,0,1,.833-.972,4.878,4.878,0,0,1,1.259-.8c.462-.206.984-.321,1.455-.5a8.343,8.343,0,0,0,1.252-.55,3.512,3.512,0,0,0,.79-.574,1.878,1.878,0,0,0,.242-.288l0,0a.071.071,0,0,0-.119-.078,1.75,1.75,0,0,1-.234.257,3.355,3.355,0,0,1-.772.516,8.118,8.118,0,0,1-1.239.487c-.462.153-.981.243-1.5.44a5.213,5.213,0,0,0-1.386.789,4.642,4.642,0,0,0-.967,1.027,3.158,3.158,0,0,0-.282.505,2.229,2.229,0,0,0-.151.441,1.607,1.607,0,0,0-.048.293c-.006.061-.009.094-.009.094" transform="translate(-50.434 -23.672)" fill="#336609"/>
        <path id="Pfad_39815" data-name="Pfad 39815" d="M76.84,57.747c-.524.174-1.112.278-1.69.5a5.835,5.835,0,0,0-1.56.893,5.3,5.3,0,0,0-.614.567,4.347,4.347,0,0,0-.471.592,3.564,3.564,0,0,0-.316.568,2.513,2.513,0,0,0-.168.493,1.75,1.75,0,0,0-.053.328c-.006.07-.01.107-.01.107v.012a.257.257,0,0,0,.514.024s0-.037.005-.107a1.241,1.241,0,0,1,.032-.27,2.023,2.023,0,0,1,.119-.4,3.124,3.124,0,0,1,.256-.509,3.952,3.952,0,0,1,.405-.555,4.932,4.932,0,0,1,.547-.549,6.049,6.049,0,0,1,.669-.5,6.192,6.192,0,0,1,.764-.4c.526-.233,1.117-.361,1.649-.557a9.386,9.386,0,0,0,1.416-.619,3.953,3.953,0,0,0,.893-.646,2.109,2.109,0,0,0,.273-.323l0,0a.071.071,0,0,0-.12-.078,1.967,1.967,0,0,1-.266.293,3.786,3.786,0,0,1-.875.587,9.174,9.174,0,0,1-1.4.556" transform="translate(-50.434 -39.445)" fill="#336609"/>
        <path id="Pfad_39816" data-name="Pfad 39816" d="M72.305,17.837a.214.214,0,0,0,.224-.2s0-.024,0-.069a1.351,1.351,0,0,1,.015-.184,1.091,1.091,0,0,1,.231-.523A2.381,2.381,0,0,1,73.5,16.3c.305-.17.657-.327,1-.5s.682-.371.992-.565a5.556,5.556,0,0,0,.808-.6,1.884,1.884,0,0,0,.441-.576,2.26,2.26,0,0,0,.1-.252l0-.006a.071.071,0,0,0-.134-.048,2.127,2.127,0,0,1-.115.229,1.807,1.807,0,0,1-.436.5,9.192,9.192,0,0,1-1.8,1.033c-.345.16-.7.3-1.034.473a2.739,2.739,0,0,0-.853.616,1.492,1.492,0,0,0-.344.727,1.656,1.656,0,0,0-.024.2c0,.045-.006.069-.006.069v.009a.215.215,0,0,0,.2.224" transform="translate(-50.535 -9.611)" fill="#336609"/>
        <path id="Pfad_39817" data-name="Pfad 39817" d="M73.863,65.546a4.37,4.37,0,0,0-.471.592c-.062.092-.118.183-.168.273l.008,1.463a.252.252,0,0,0,.127-.2s0-.037.005-.107a1.241,1.241,0,0,1,.032-.27,2.042,2.042,0,0,1,.12-.4,3.1,3.1,0,0,1,.255-.509,3.931,3.931,0,0,1,.405-.555,4.905,4.905,0,0,1,.547-.549c.085-.074.176-.145.269-.215.006-.151.011-.3.016-.455a5.874,5.874,0,0,0-.532.372,5.328,5.328,0,0,0-.614.567" transform="translate(-51.322 -45.281)" fill="#4b9910"/>
        <path id="Pfad_39818" data-name="Pfad 39818" d="M74.205,41.16a4.642,4.642,0,0,0-.967,1.027c-.057.083-.108.167-.154.248l.008,1.351a.257.257,0,0,0,.169-.231l0-.095a1.094,1.094,0,0,1,.028-.235,1.758,1.758,0,0,1,.1-.35,2.693,2.693,0,0,1,.222-.446,4.229,4.229,0,0,1,.833-.972,4.832,4.832,0,0,1,.438-.328c-.008-.138-.018-.276-.028-.414a5.139,5.139,0,0,0-.657.444" transform="translate(-51.224 -28.537)" fill="#4b9910"/>
        <path id="Pfad_39819" data-name="Pfad 39819" d="M73.928,21.125a2.736,2.736,0,0,0-.853.616,1.65,1.65,0,0,0-.118.162l.006,1.062a.211.211,0,0,0,.166-.2s0-.024,0-.069a1.345,1.345,0,0,1,.015-.184,1.1,1.1,0,0,1,.231-.523,2.383,2.383,0,0,1,.718-.551l.065-.033c-.018-.124-.037-.246-.055-.367-.059.028-.12.054-.177.083" transform="translate(-51.134 -14.748)" fill="#4b9910"/>
        <path id="Pfad_39820" data-name="Pfad 39820" d="M48.7,56.716a3.957,3.957,0,0,0,.893.646,9.434,9.434,0,0,0,1.416.619c.532.2,1.123.324,1.649.557a6.279,6.279,0,0,1,.765.4,6.119,6.119,0,0,1,.669.5,4.9,4.9,0,0,1,.547.549,3.955,3.955,0,0,1,.405.555,3.085,3.085,0,0,1,.255.509,2.042,2.042,0,0,1,.12.4,1.241,1.241,0,0,1,.032.27c0,.07.005.107.005.107v.012a.257.257,0,0,0,.513-.048s0-.037-.01-.107a1.79,1.79,0,0,0-.053-.328,2.487,2.487,0,0,0-.168-.493,3.575,3.575,0,0,0-.316-.568,4.387,4.387,0,0,0-.471-.591,5.3,5.3,0,0,0-.614-.567,6.463,6.463,0,0,0-.734-.5,6.552,6.552,0,0,0-.826-.393c-.579-.224-1.167-.328-1.69-.5a9.192,9.192,0,0,1-1.4-.556,3.779,3.779,0,0,1-.875-.587,1.967,1.967,0,0,1-.266-.293.071.071,0,0,0-.12.078l0,0a2.117,2.117,0,0,0,.273.324" transform="translate(-33.934 -39.445)" fill="#4b9910"/>
        <path id="Pfad_39821" data-name="Pfad 39821" d="M51.487,34.175a3.5,3.5,0,0,0,.79.574,8.313,8.313,0,0,0,1.252.55c.47.174.993.289,1.455.5a4.871,4.871,0,0,1,1.258.8,4.226,4.226,0,0,1,.833.972,2.715,2.715,0,0,1,.222.446,1.759,1.759,0,0,1,.1.35,1.092,1.092,0,0,1,.027.235c0,.062,0,.095,0,.095s0,.01,0,.013a.257.257,0,1,0,.512-.049s0-.033-.009-.094a1.588,1.588,0,0,0-.048-.293,2.213,2.213,0,0,0-.151-.441,3.158,3.158,0,0,0-.282-.505,4.649,4.649,0,0,0-.967-1.027,5.213,5.213,0,0,0-1.386-.789c-.514-.2-1.033-.287-1.5-.44a8.106,8.106,0,0,1-1.239-.487,3.345,3.345,0,0,1-.772-.516,1.75,1.75,0,0,1-.234-.257.071.071,0,0,0-.119.078l0,0a1.886,1.886,0,0,0,.242.287" transform="translate(-35.907 -23.672)" fill="#4b9910"/>
        <path id="Pfad_39822" data-name="Pfad 39822" d="M58.215,14.626a5.546,5.546,0,0,0,.809.591c.311.192.645.384.993.561s.7.335,1,.506a2.4,2.4,0,0,1,.722.558,1.1,1.1,0,0,1,.232.532,1.317,1.317,0,0,1,.014.185c0,.045,0,.069,0,.069v.009a.2.2,0,0,0,.4-.036s0-.024-.006-.069a1.6,1.6,0,0,0-.024-.2,1.473,1.473,0,0,0-.342-.718A2.72,2.72,0,0,0,61.169,16c-.331-.168-.688-.31-1.034-.469a8.877,8.877,0,0,1-1.8-1.045,1.766,1.766,0,0,1-.431-.5,2.187,2.187,0,0,1-.111-.231.071.071,0,0,0-.134.048l0,.005a2.252,2.252,0,0,0,.108.25,1.932,1.932,0,0,0,.446.568" transform="translate(-40.41 -9.608)" fill="#4b9910"/>
      </g>
    </g>
    <g id="Gruppe_40650" data-name="Gruppe 40650" transform="translate(21.171 0.048)">
      <g id="Gruppe_40649" data-name="Gruppe 40649" clip-path="url(#clip-path-20)">
        <rect id="Rechteck_711" data-name="Rechteck 711" width="1.223" height="40.021" transform="translate(0 0)" fill="url(#linear-gradient-5)"/>
      </g>
    </g>
  </g>
</svg>
