<svg xmlns="http://www.w3.org/2000/svg" width="45.712" height="39.595" viewBox="0 0 45.712 39.595">
  <g id="Gruppe_46778" data-name="Gruppe 46778" transform="translate(-8.663 -11.263)">
    <g id="Gruppe_47582" data-name="Gruppe 47582" transform="translate(17.862 12.666)">
      <path id="Pfad_47757" data-name="Pfad 47757" d="M.572.7c2.5-.749,4.4-2.6,4.248-4.125S2.519-5.59.019-4.841s-4.4,2.595-4.248,4.125S-1.927,1.445.572.7" transform="translate(4.238 5.156)" fill="#fffcde"/>
    </g>
    <g id="Gruppe_47583" data-name="Gruppe 47583" transform="translate(26.751 14.396)">
      <path id="Pfad_47758" data-name="Pfad 47758" d="M0,0V.009a.026.026,0,0,0,0,0Z" fill="#dcdfc5"/>
    </g>
    <g id="Gruppe_47584" data-name="Gruppe 47584" transform="translate(17.683 12.559)">
      <path id="Pfad_47759" data-name="Pfad 47759" d="M.133.313a6.545,6.545,0,0,1,1.62-1.344,8.055,8.055,0,0,1,1.821-.8A6.991,6.991,0,0,1,5.333-2.1a3.1,3.1,0,0,1,2.394.8,1.47,1.47,0,0,1,.321.6c.023.142.036.22.037.233v0s0,0,0,0v.26c-.008.082-.028.169-.044.278a2.616,2.616,0,0,1-.133.381A4.637,4.637,0,0,1,6.182,2.332a8.624,8.624,0,0,1-1.548.815,8.469,8.469,0,0,1-1.883.51,4.831,4.831,0,0,1-2.037-.11A1.669,1.669,0,0,1-.611,2.211,2.68,2.68,0,0,1,.133.313M.574,3.973a5.184,5.184,0,0,0,2.239.173,7.738,7.738,0,0,0,2.012-.523,7.527,7.527,0,0,0,1.632-.9A5,5,0,0,0,8.261.591,2.948,2.948,0,0,0,8.4.143c.018-.142.035-.268.04-.361-.007-.175-.01-.268-.01-.268V-.5S8.4-.6,8.365-.79A1.762,1.762,0,0,0,7.947-1.5,2.471,2.471,0,0,0,6.88-2.127a4.82,4.82,0,0,0-1.552-.187,7.2,7.2,0,0,0-1.8.3,8.68,8.68,0,0,0-1.892.772A6.8,6.8,0,0,0-.1.115a3.011,3.011,0,0,0-.88,2.132A1.769,1.769,0,0,0-.455,3.362a2.553,2.553,0,0,0,1.029.612" transform="translate(0.981 2.317)" fill="#dcdfc5"/>
    </g>
    <g id="Gruppe_47585" data-name="Gruppe 47585" transform="translate(26.206 11.358)">
      <path id="Pfad_47760" data-name="Pfad 47760" d="M.632.753V-5.576H.6c-2.914,0-5.277,1.418-5.277,3.166S-2.318.754.6.754H.632" transform="translate(4.681 5.577)" fill="#fffcde"/>
    </g>
    <g id="Gruppe_47586" data-name="Gruppe 47586" transform="translate(31.519 11.359)">
      <path id="Pfad_47761" data-name="Pfad 47761" d="M0,0V6.329c2.9-.011,5.239-1.423,5.239-3.165S2.9.012,0,0" fill="#e2dfb9"/>
    </g>
    <g id="Gruppe_47587" data-name="Gruppe 47587" transform="translate(36.545 14.506)">
      <path id="Pfad_47762" data-name="Pfad 47762" d="M0,0V-.01A.088.088,0,0,0,0,0" transform="translate(0 0.01)" fill="#dcdfc5"/>
    </g>
    <g id="Gruppe_47588" data-name="Gruppe 47588" transform="translate(31.519 11.263)">
      <path id="Pfad_47763" data-name="Pfad 47763" d="M.585.457a2.272,2.272,0,0,1-.2.394A4.234,4.234,0,0,1-1.959,2.425,7.772,7.772,0,0,1-3.9,2.77l-.436.01V3.3c.159,0,.311-.007.464-.01A8.218,8.218,0,0,0-1.8,2.912,4.546,4.546,0,0,0,.772,1.089,2.731,2.731,0,0,0,1,.6,3.94,3.94,0,0,0,1.1.2c.015-.2.023-.3.023-.3V-.123s-.011-.116-.034-.334a2.372,2.372,0,0,0-.348-.858A4.54,4.54,0,0,0-1.843-3.032a9.064,9.064,0,0,0-2.489-.352v.2A7.439,7.439,0,0,1-1.919-2.8,4.216,4.216,0,0,1,.417-1.117a1.939,1.939,0,0,1,.261.725c.01.168.015.255.016.263a.09.09,0,0,1,0-.012v.012C.692-.1.683-.006.667.16.647.248.618.339.585.457" transform="translate(4.332 3.384)" fill="#bcb992"/>
    </g>
    <g id="Gruppe_47589" data-name="Gruppe 47589" transform="translate(26.037 11.263)">
      <path id="Pfad_47764" data-name="Pfad 47764" d="M.18.156A5.894,5.894,0,0,1,2.36-.768,8.209,8.209,0,0,1,4.149-.958v-.2a9.1,9.1,0,0,0-1.835.176A6.419,6.419,0,0,0,.028-.059a3.686,3.686,0,0,0-.933.9,2.719,2.719,0,0,0-.309.6l-.089.342-.031.314A2.808,2.808,0,0,0-.013,4.325a6.343,6.343,0,0,0,2.3.986A8.421,8.421,0,0,0,3.475,5.5c.2.019.379.019.566.03.039,0,.07,0,.108,0V5.007l-.092,0c-.184,0-.378,0-.56-.015a8.031,8.031,0,0,1-1.111-.143A5.936,5.936,0,0,1,.221,3.993,2.467,2.467,0,0,1-.994,2.118,2.476,2.476,0,0,1,.18.156" transform="translate(1.333 1.157)" fill="#dcdfc5"/>
    </g>
    <g id="Gruppe_47590" data-name="Gruppe 47590" transform="translate(36.225 12.647)">
      <path id="Pfad_47765" data-name="Pfad 47765" d="M.9.483C1.1-.809-.433-2.464-2.522-3.212s-3.943-.308-4.142.984S-5.329.719-3.241,1.467.7,1.775.9.483" transform="translate(6.681 3.576)" fill="#e2dfb9"/>
    </g>
    <g id="Gruppe_47591" data-name="Gruppe 47591" transform="translate(36.061 12.552)">
      <path id="Pfad_47766" data-name="Pfad 47766" d="M.04.2C.045.071.049,0,.05-.02c0,0,0,0,0,0v0c0-.014.016-.077.041-.193A1.22,1.22,0,0,1,.384-.7a2.661,2.661,0,0,1,2.061-.583A6.223,6.223,0,0,1,5.439-.215,5.3,5.3,0,0,1,6.751,1a2.271,2.271,0,0,1,.529,1.64,1.4,1.4,0,0,1-1.173,1.05,4.1,4.1,0,0,1-1.722,0,7.237,7.237,0,0,1-1.567-.518,7.466,7.466,0,0,1-1.274-.754A3.939,3.939,0,0,1,.162.76,1.769,1.769,0,0,1,.04.2M1.251,2.794A6.235,6.235,0,0,0,2.6,3.637a6.517,6.517,0,0,0,1.7.536,4.44,4.44,0,0,0,1.924-.052,2.207,2.207,0,0,0,.911-.484,1.538,1.538,0,0,0,.5-.94A2.57,2.57,0,0,0,6.961.842,6.055,6.055,0,0,0,5.549-.383,7.327,7.327,0,0,0,2.457-1.46,2.928,2.928,0,0,0,.188-.9,1.529,1.529,0,0,0-.206-.31c-.042.161-.065.246-.065.246v.014S-.279.028-.293.176a2.07,2.07,0,0,0,.109.7A4.278,4.278,0,0,0,1.251,2.794" transform="translate(0.293 1.483)" fill="#bcb992"/>
    </g>
    <g id="Gruppe_47592" data-name="Gruppe 47592" transform="translate(36.402 14.008)">
      <path id="Pfad_47767" data-name="Pfad 47767" d="M0,0A.023.023,0,0,0,0,0V-.011Z" transform="translate(0 0.011)" fill="#bcb992"/>
    </g>
    <g id="Gruppe_47593" data-name="Gruppe 47593" transform="translate(42.415 16.885)">
      <path id="Pfad_47768" data-name="Pfad 47768" d="M.965.645C1.084-.968-.633-3.136-2.871-4.2s-4.15-.613-4.27,1S-5.543.583-3.3,1.644s4.151.613,4.27-1" transform="translate(7.147 4.773)" fill="#e2dfb9"/>
    </g>
    <g id="Gruppe_47594" data-name="Gruppe 47594" transform="translate(42.258 16.785)">
      <path id="Pfad_47769" data-name="Pfad 47769" d="M.039.231c0-.154,0-.241,0-.257v0c0-.01.011-.089.03-.235A1.4,1.4,0,0,1,.336-.868a1.656,1.656,0,0,1,.894-.554,3.32,3.32,0,0,1,1.438-.007A6.839,6.839,0,0,1,5.9.26,6.992,6.992,0,0,1,7.227,1.839,3.392,3.392,0,0,1,7.8,3.808a1.43,1.43,0,0,1-.375.851,1.66,1.66,0,0,1-.838.431A3.932,3.932,0,0,1,4.631,4.9a7.9,7.9,0,0,1-1.707-.834A8.75,8.75,0,0,1,1.586,3,5.528,5.528,0,0,1,.178.9,2.973,2.973,0,0,1,.039.231M2.645,4.5a7.228,7.228,0,0,0,1.834.882,4.374,4.374,0,0,0,2.207.156,2.05,2.05,0,0,0,1.041-.592A1.808,1.808,0,0,0,8.17,3.811a3.8,3.8,0,0,0-.687-2.132A7.306,7.306,0,0,0,6.054.082a8.08,8.08,0,0,0-3.35-1.7,3.783,3.783,0,0,0-1.528-.024,1.908,1.908,0,0,0-1.052.6,1.69,1.69,0,0,0-.358.717c-.031.183-.047.28-.047.28v.01s0,.092-.006.262a3.214,3.214,0,0,0,.123.781A5.876,5.876,0,0,0,1.252,3.33,7.783,7.783,0,0,0,2.645,4.5" transform="translate(0.286 1.708)" fill="#bcb992"/>
    </g>
    <g id="Gruppe_47595" data-name="Gruppe 47595" transform="translate(42.578 18.462)">
      <path id="Pfad_47770" data-name="Pfad 47770" d="M0,0v-.01Z" transform="translate(0 0.009)" fill="#bcb992"/>
    </g>
    <g id="Gruppe_47596" data-name="Gruppe 47596" transform="translate(31.483 13.842)">
      <path id="Pfad_47771" data-name="Pfad 47771" d="M1.256.5c0-2.04-2.362-3.918-5.276-4.2S-9.3-2.543-9.3-.5s2.362,3.918,5.277,4.2S1.256,2.543,1.256.5" transform="translate(9.297 3.727)" fill="#e2dfb9"/>
    </g>
    <g id="Gruppe_47597" data-name="Gruppe 47597" transform="translate(31.651 17.055)">
      <path id="Pfad_47772" data-name="Pfad 47772" d="M0,0V-.01Z" transform="translate(0 0.01)" fill="#bcb992"/>
    </g>
    <g id="Gruppe_47598" data-name="Gruppe 47598" transform="translate(31.317 13.762)">
      <path id="Pfad_47773" data-name="Pfad 47773" d="M.042.358A2.4,2.4,0,0,1,.28-.452a2.924,2.924,0,0,1,.851-1.024,4.548,4.548,0,0,1,1.587-.779,7.068,7.068,0,0,1,4.413.3,5.981,5.981,0,0,1,2.1,1.37,3.267,3.267,0,0,1,1.009,2.264A2.665,2.665,0,0,1,9.057,3.734a5.079,5.079,0,0,1-2.278.843,7.379,7.379,0,0,1-2.31-.083A7.63,7.63,0,0,1,2.5,3.835,4.737,4.737,0,0,1,.3,1.763a2.915,2.915,0,0,1-.245-.8C.036.774.027.67.026.652a.026.026,0,0,1,0,0V.645s0,.006,0,.007S.032.541.042.358m-.087,1.56A5.1,5.1,0,0,0,2.28,4.263,7.228,7.228,0,0,0,4.373,5a7.38,7.38,0,0,0,1.2.135,7.2,7.2,0,0,0,1.274-.074,5.416,5.416,0,0,0,2.472-.977A3.041,3.041,0,0,0,10.585,1.65,3.59,3.59,0,0,0,9.414-.775,6.5,6.5,0,0,0,7.206-2.15a7.832,7.832,0,0,0-4.538-.287,4.924,4.924,0,0,0-1.684.766A3.186,3.186,0,0,0,.02-.586a2.739,2.739,0,0,0-.3.9l-.03.338V.669s.007.11.017.319a3.275,3.275,0,0,0,.246.93" transform="translate(0.309 2.648)" fill="#bcb992"/>
    </g>
    <g id="Gruppe_47599" data-name="Gruppe 47599" transform="translate(36.745 16.633)">
      <path id="Pfad_47774" data-name="Pfad 47774" d="M1.256.639c0-2.331-2.362-4.68-5.276-5.245S-9.3-3.74-9.3-1.409-6.935,3.27-4.02,3.836,1.256,2.97,1.256.639" transform="translate(9.297 4.73)" fill="#e2dfb9"/>
    </g>
    <g id="Gruppe_47600" data-name="Gruppe 47600" transform="translate(36.572 16.53)">
      <path id="Pfad_47775" data-name="Pfad 47775" d="M.043.369A3,3,0,0,1,.258-.507a2.906,2.906,0,0,1,.85-1.12A3.843,3.843,0,0,1,2.792-2.4a5.945,5.945,0,0,1,2.232-.018,7.083,7.083,0,0,1,2.329.889A6.622,6.622,0,0,1,9.33.233a4.3,4.3,0,0,1,.891,2.516,2.9,2.9,0,0,1-1.14,2.26,4.338,4.338,0,0,1-2.419.8A7.254,7.254,0,0,1,4.25,5.436,7.057,7.057,0,0,1,2.294,4.43,6.548,6.548,0,0,1,.959,3.139,5.194,5.194,0,0,1,.263,1.9a3.949,3.949,0,0,1-.21-.88C.037.814.028.7.027.686v0c0-.01.006-.117.016-.317M-.1,2.025A6,6,0,0,0,2.012,4.811,7.262,7.262,0,0,0,6.687,6.293a4.8,4.8,0,0,0,2.659-.944,3.289,3.289,0,0,0,1.246-2.622A4.337,4.337,0,0,0,10.3,1.3,5.319,5.319,0,0,0,9.581.047a6.9,6.9,0,0,0-2.1-1.8,7.423,7.423,0,0,0-2.427-.871,6.192,6.192,0,0,0-2.309-.006,4.286,4.286,0,0,0-1.8.792,3.217,3.217,0,0,0-.966,1.2A3.311,3.311,0,0,0-.291.335C-.309.567-.319.69-.319.69V.7s.006.118.016.338a4.408,4.408,0,0,0,.2.986" transform="translate(0.319 2.733)" fill="#bcb992"/>
    </g>
    <g id="Gruppe_47601" data-name="Gruppe 47601" transform="translate(36.918 19.942)">
      <path id="Pfad_47776" data-name="Pfad 47776" d="M0,0V-.01Z" transform="translate(0 0.01)" fill="#bcb992"/>
    </g>
    <g id="Gruppe_47602" data-name="Gruppe 47602" transform="translate(42.014 20.965)">
      <path id="Pfad_47777" data-name="Pfad 47777" d="M1.256.857c0-2.622-2.362-5.66-5.276-6.786S-9.3-5.841-9.3-3.219-6.935,2.443-4.02,3.568,1.256,3.479,1.256.857" transform="translate(9.297 6.349)" fill="#e2dfb9"/>
    </g>
    <g id="Gruppe_47603" data-name="Gruppe 47603" transform="translate(41.756 20.863)">
      <path id="Pfad_47778" data-name="Pfad 47778" d="M.063.344A3.594,3.594,0,0,1,.251-.594a2.487,2.487,0,0,1,.875-1.19,3.189,3.189,0,0,1,1.893-.56,5.829,5.829,0,0,1,2.325.574A8.358,8.358,0,0,1,7.576-.274,8.806,8.806,0,0,1,9.344,1.977,7.213,7.213,0,0,1,9.91,3.326a5.587,5.587,0,0,1,.211,1.436,2.788,2.788,0,0,1-1.2,2.392,3.61,3.61,0,0,1-2.639.377c-.224-.042-.428-.1-.646-.162-.226-.084-.435-.141-.632-.236a7.19,7.19,0,0,1-1.145-.6A8.885,8.885,0,0,1,2.048,5.011,9.069,9.069,0,0,1,.863,3.4a6.447,6.447,0,0,1-.6-1.409,4.828,4.828,0,0,1-.184-.953C.062.82.054.7.053.68v0c0-.014,0-.127.01-.336M-.263,2.135A8.086,8.086,0,0,0,1.609,5.414,9.421,9.421,0,0,0,3.555,7.028,7.415,7.415,0,0,0,6.188,8.075a4.132,4.132,0,0,0,3.015-.5,2.95,2.95,0,0,0,1.047-1.235,3.82,3.82,0,0,0,.321-1.575A5.98,5.98,0,0,0,10.31,3.2,7.606,7.606,0,0,0,9.679,1.79a9.184,9.184,0,0,0-1.892-2.3A8.664,8.664,0,0,0,5.446-2a6.6,6.6,0,0,0-2.426-.546A3.957,3.957,0,0,0,.97-2.016,2.837,2.837,0,0,0-.148-.759,3.486,3.486,0,0,0-.433.3c-.02.252-.032.386-.032.386V.7s.007.127.017.364A5.426,5.426,0,0,0-.263,2.135" transform="translate(0.465 2.547)" fill="#bcb992"/>
    </g>
    <g id="Gruppe_47604" data-name="Gruppe 47604" transform="translate(42.273 24.082)">
      <path id="Pfad_47779" data-name="Pfad 47779" d="M0,0V-.012Z" transform="translate(0 0.012)" fill="#bcb992"/>
    </g>
    <g id="Gruppe_47605" data-name="Gruppe 47605" transform="translate(26.207 25.372)">
      <path id="Pfad_47780" data-name="Pfad 47780" d="M1.256.628A5.276,5.276,0,0,0-4.02-4.648,5.276,5.276,0,0,0-9.3.628,5.276,5.276,0,0,0-4.02,5.9,5.276,5.276,0,0,0,1.256.628" transform="translate(9.297 4.648)" fill="#fffcde"/>
    </g>
    <g id="Gruppe_47606" data-name="Gruppe 47606" transform="translate(25.949 25.113)">
      <path id="Pfad_47781" data-name="Pfad 47781" d="M.062.658A5.017,5.017,0,1,1,10.1.658,5.017,5.017,0,1,1,.062.658m10.553,0a5.535,5.535,0,0,0-11.07,0,5.535,5.535,0,0,0,11.07,0" transform="translate(0.456 4.876)" fill="#dcdfc5"/>
    </g>
    <g id="Gruppe_47607" data-name="Gruppe 47607" transform="translate(12.268 16.897)">
      <path id="Pfad_47782" data-name="Pfad 47782" d="M.519.779C2.667-.453,4.21-2.749,3.964-4.349S1.778-6.243-.371-5.01-4.061-1.482-3.816.118-1.63,2.012.519.779" transform="translate(3.842 5.771)" fill="#fffcde"/>
    </g>
    <g id="Gruppe_47608" data-name="Gruppe 47608" transform="translate(19.815 18.342)">
      <path id="Pfad_47783" data-name="Pfad 47783" d="M0,0A.05.05,0,0,0,0,.01.064.064,0,0,0,0,.018Z" fill="#dcdfc5"/>
    </g>
    <g id="Gruppe_47609" data-name="Gruppe 47609" transform="translate(12.064 16.765)">
      <path id="Pfad_47784" data-name="Pfad 47784" d="M.1.477A6.955,6.955,0,0,1,1.3-1.2,8.081,8.081,0,0,1,2.79-2.428a5.6,5.6,0,0,1,1.578-.715A3.111,3.111,0,0,1,5.795-3.22a1.6,1.6,0,0,1,.88.5,1.381,1.381,0,0,1,.285.555c.025.127.039.2.042.216a.05.05,0,0,1,0-.01l0,.018a.064.064,0,0,1,0-.008q0,.036.017.252a2.75,2.75,0,0,1-.077.654A4.457,4.457,0,0,1,6.55-.034a6.916,6.916,0,0,1-.8,1.177A7.9,7.9,0,0,1,4.521,2.325,7.707,7.707,0,0,1,2.9,3.3a3.912,3.912,0,0,1-1.92.346,1.617,1.617,0,0,1-.858-.364,1.4,1.4,0,0,1-.431-.822A3.431,3.431,0,0,1,.1.477m.8,3.646A4.411,4.411,0,0,0,3.1,3.8,7.359,7.359,0,0,0,4.874,2.785,8.457,8.457,0,0,0,6.2,1.524,5.861,5.861,0,0,0,7.47-.921a3.355,3.355,0,0,0,.07-.816C7.525-1.908,7.516-2,7.516-2l0-.017s-.025-.1-.075-.288a1.687,1.687,0,0,0-.446-.717,1.952,1.952,0,0,0-1.151-.494,4.017,4.017,0,0,0-1.529.173A7.942,7.942,0,0,0,1.091-1.395,7.283,7.283,0,0,0-.214.314,3.776,3.776,0,0,0-.732,2.52,1.844,1.844,0,0,0-.19,3.613a2.094,2.094,0,0,0,1.1.51" transform="translate(0.751 3.532)" fill="#dcdfc5"/>
    </g>
    <g id="Gruppe_47610" data-name="Gruppe 47610" transform="translate(20.924 13.841)">
      <path id="Pfad_47785" data-name="Pfad 47785" d="M.628.883C3.541.6,5.9-1.274,5.9-3.313S3.541-6.782.628-6.5s-5.276,2.158-5.276,4.2S-2.286,1.161.628.883" transform="translate(4.648 6.538)" fill="#fffcde"/>
    </g>
    <g id="Gruppe_47611" data-name="Gruppe 47611" transform="translate(31.306 17.054)">
      <path id="Pfad_47786" data-name="Pfad 47786" d="M0,0A.064.064,0,0,0,0,.008v0Z" transform="translate(0.001)" fill="#dcdfc5"/>
    </g>
    <g id="Gruppe_47612" data-name="Gruppe 47612" transform="translate(20.747 13.76)">
      <path id="Pfad_47787" data-name="Pfad 47787" d="M.042.515A3.269,3.269,0,0,1,1.051-1.75,5.981,5.981,0,0,1,3.145-3.117a7.073,7.073,0,0,1,4.412-.3,4.556,4.556,0,0,1,1.587.778,2.9,2.9,0,0,1,.85,1.023,2.374,2.374,0,0,1,.238.809c.01.183.016.283.017.294v0c0,.018-.011.123-.027.311a2.91,2.91,0,0,1-.245.8A4.734,4.734,0,0,1,7.772,2.674a7.574,7.574,0,0,1-1.965.659,7.345,7.345,0,0,1-2.31.083,5.079,5.079,0,0,1-2.278-.843A2.663,2.663,0,0,1,.042.515M3.43,3.9A7.2,7.2,0,0,0,4.7,3.973a7.394,7.394,0,0,0,1.2-.134A7.242,7.242,0,0,0,8,3.1,5.1,5.1,0,0,0,10.322.756a3.256,3.256,0,0,0,.247-.93c.01-.209.017-.32.017-.32V-.5l-.03-.339a2.687,2.687,0,0,0-.3-.9,3.189,3.189,0,0,0-.964-1.086A4.931,4.931,0,0,0,7.608-3.6a7.837,7.837,0,0,0-4.539.288A6.485,6.485,0,0,0,.86-1.937,3.589,3.589,0,0,0-.31.49,3.041,3.041,0,0,0,.957,2.923,5.405,5.405,0,0,0,3.43,3.9" transform="translate(0.311 3.811)" fill="#dcdfc5"/>
    </g>
    <g id="Gruppe_47613" data-name="Gruppe 47613" transform="translate(15.662 16.633)">
      <path id="Pfad_47788" data-name="Pfad 47788" d="M.628,1.019C3.541.454,5.9-1.895,5.9-4.226S3.541-7.989.628-7.423-4.648-4.509-4.648-2.178s2.362,3.763,5.276,3.2" transform="translate(4.648 7.547)" fill="#fffcde"/>
    </g>
    <g id="Gruppe_47614" data-name="Gruppe 47614" transform="translate(26.026 19.942)">
      <path id="Pfad_47789" data-name="Pfad 47789" d="M0,0V.011Z" fill="#dcdfc5"/>
    </g>
    <g id="Gruppe_47615" data-name="Gruppe 47615" transform="translate(15.463 16.503)">
      <path id="Pfad_47790" data-name="Pfad 47790" d="M.047.656A4.293,4.293,0,0,1,.939-1.851,6.616,6.616,0,0,1,2.913-3.605a7.03,7.03,0,0,1,2.323-.882,5.887,5.887,0,0,1,2.22.016A3.822,3.822,0,0,1,9.133-3.7,2.9,2.9,0,0,1,9.98-2.6a3.007,3.007,0,0,1,.216.871c.01.2.016.305.016.316s0-.007,0-.007V-1.4a.026.026,0,0,1,0,0c0,.018-.009.129-.024.33A3.948,3.948,0,0,1,9.98-.2,5.691,5.691,0,0,1,7.959,2.332,7.047,7.047,0,0,1,6.005,3.34a7.132,7.132,0,0,1-2.412.37,4.336,4.336,0,0,1-2.414-.8A2.886,2.886,0,0,1,.047.656M3.568,4.2A7.3,7.3,0,0,0,8.246,2.718,6.01,6.01,0,0,0,10.365-.066a4.327,4.327,0,0,0,.207-.989c.011-.22.017-.338.017-.338V-1.4l-.026-.358a3.351,3.351,0,0,0-.267-.973,3.216,3.216,0,0,0-.968-1.212,4.284,4.284,0,0,0-1.813-.8,6.191,6.191,0,0,0-2.318,0,7.411,7.411,0,0,0-2.435.877A6.912,6.912,0,0,0,.66-2.059,5.339,5.339,0,0,0-.056-.8,4.344,4.344,0,0,0-.35.631,3.3,3.3,0,0,0,.9,3.259,4.8,4.8,0,0,0,3.568,4.2" transform="translate(0.35 4.855)" fill="#dcdfc5"/>
    </g>
    <g id="Gruppe_47616" data-name="Gruppe 47616" transform="translate(26.199 17.017)">
      <path id="Pfad_47791" data-name="Pfad 47791" d="M.633,1V-7.434l-.043,0c-2.915,0-5.277,1.89-5.277,4.221S-2.325,1.005.59,1.005H.633" transform="translate(4.687 7.436)" fill="#fffcde"/>
    </g>
    <g id="Gruppe_47617" data-name="Gruppe 47617" transform="translate(31.519 17.019)">
      <path id="Pfad_47792" data-name="Pfad 47792" d="M0,0V8.438c2.893-.018,5.233-1.9,5.233-4.219S2.893.019,0,0" fill="#e2dfb9"/>
    </g>
    <g id="Gruppe_47618" data-name="Gruppe 47618" transform="translate(36.493 21.221)">
      <path id="Pfad_47793" data-name="Pfad 47793" d="M0,0V-.01Z" transform="translate(0 0.01)" fill="#dcdfc5"/>
    </g>
    <g id="Gruppe_47619" data-name="Gruppe 47619" transform="translate(25.957 16.953)">
      <path id="Pfad_47794" data-name="Pfad 47794" d="M.427.054A6.405,6.405,0,0,1,2.4-.257V-.4A6.8,6.8,0,0,0,.373-.115,5.44,5.44,0,0,0-2,1.255,3.848,3.848,0,0,0-3.163,3.887a3.97,3.97,0,0,0,1.1,2.689A5.444,5.444,0,0,0,.322,8.048a6.522,6.522,0,0,0,1.321.271c.226.034.423.023.633.036.043,0,.082,0,.124,0v-.5c-.034,0-.072,0-.1,0a5.983,5.983,0,0,1-.614-.039,6.084,6.084,0,0,1-1.2-.253A5.107,5.107,0,0,1-1.687,6.228a3.468,3.468,0,0,1-.99-2.342,3.577,3.577,0,0,1,.93-2.4A5.078,5.078,0,0,1,.427.054" transform="translate(3.163 0.398)" fill="#dcdfc5"/>
    </g>
    <g id="Gruppe_47620" data-name="Gruppe 47620" transform="translate(31.519 16.952)">
      <path id="Pfad_47795" data-name="Pfad 47795" d="M.565.648A3.9,3.9,0,0,1-.175,1.8,4.967,4.967,0,0,1-1.629,2.863a5.968,5.968,0,0,1-2.081.57c-.156.006-.319.015-.476.018v.5c.178,0,.345-.01.518-.015a6.5,6.5,0,0,0,2.269-.6A5.135,5.135,0,0,0,.218,2.161,4.433,4.433,0,0,0,1.054.839a4.073,4.073,0,0,0,.232-1C1.3-.38,1.306-.5,1.306-.5V-.513s-.01-.126-.03-.361a4.052,4.052,0,0,0-.253-.98A4.093,4.093,0,0,0,.159-3.133a5.255,5.255,0,0,0-1.621-1.1,6.821,6.821,0,0,0-2.224-.552c-.163-.009-.33-.011-.5-.011v.142c.166,0,.331,0,.494.02a5.714,5.714,0,0,1,2.125.617A4.8,4.8,0,0,1-.116-2.881,4.236,4.236,0,0,1,.6-1.687a3.564,3.564,0,0,1,.18.863c.008.19.011.292.012.305v0c0,.026-.009.134-.022.325a3.494,3.494,0,0,1-.2.842" transform="translate(4.185 4.799)" fill="#bcb992"/>
    </g>
    <g id="Gruppe_47621" data-name="Gruppe 47621" transform="translate(31.476 20.093)">
      <path id="Pfad_47796" data-name="Pfad 47796" d="M1.256.628c0-2.622-2.362-4.974-5.276-5.252S-9.3-3-9.3-.379-6.935,4.6-4.02,4.873,1.256,3.25,1.256.628" transform="translate(9.297 4.651)" fill="#e2dfb9"/>
    </g>
    <g id="Gruppe_47622" data-name="Gruppe 47622" transform="translate(31.669 24.355)">
      <path id="Pfad_47797" data-name="Pfad 47797" d="M0,0v-.01Z" transform="translate(0 0.009)" fill="#bcb992"/>
    </g>
    <g id="Gruppe_47623" data-name="Gruppe 47623" transform="translate(31.284 19.962)">
      <path id="Pfad_47798" data-name="Pfad 47798" d="M.048.484a3.952,3.952,0,0,1,.18-.936A3.983,3.983,0,0,1,.955-1.744,4.246,4.246,0,0,1,2.511-2.89a5.033,5.033,0,0,1,2.267-.415,5.783,5.783,0,0,1,2.494.676A5.82,5.82,0,0,1,9.339-.823,5.415,5.415,0,0,1,9.971.437a4.826,4.826,0,0,1,.222,1.4,3.873,3.873,0,0,1-.983,2.537,3.933,3.933,0,0,1-1.062.851,4.334,4.334,0,0,1-1.245.48,5.356,5.356,0,0,1-1.28.136A6.376,6.376,0,0,1,4.377,5.69a5.916,5.916,0,0,1-2.085-.918A5.858,5.858,0,0,1,.917,3.42,5.024,5.024,0,0,1,.247,2.1a4.24,4.24,0,0,1-.192-.931C.042.951.034.836.033.819V.811a.026.026,0,0,0,0,.008c0-.01.006-.124.015-.335m-.2,1.734a5.47,5.47,0,0,0,.7,1.46A6.03,6.03,0,0,0,2.011,5.169,6.4,6.4,0,0,0,4.262,6.186,5.914,5.914,0,0,0,5.6,6.353a5.751,5.751,0,0,0,1.42-.17,4.833,4.833,0,0,0,1.363-.552A4.359,4.359,0,0,0,9.543,4.67,4.286,4.286,0,0,0,10.59,1.817a5.252,5.252,0,0,0-.266-1.5,5.824,5.824,0,0,0-.7-1.342A6.151,6.151,0,0,0,7.41-2.9a6.3,6.3,0,0,0-2.619-.675A5.321,5.321,0,0,0,2.4-3.156a4.752,4.752,0,0,0-1.684,1.2A4.327,4.327,0,0,0-.109-.567,4.369,4.369,0,0,0-.329.452c-.016.242-.024.37-.024.37v.01s.006.124.016.355A4.714,4.714,0,0,0-.15,2.218" transform="translate(0.353 3.582)" fill="#bcb992"/>
    </g>
    <g id="Gruppe_47624" data-name="Gruppe 47624" transform="translate(36.745 25.012)">
      <path id="Pfad_47799" data-name="Pfad 47799" d="M1.256.761a6.718,6.718,0,0,0-5.276-6.3A4.224,4.224,0,0,0-9.3-1.286a6.716,6.716,0,0,0,5.277,6.3A4.224,4.224,0,0,0,1.256.761" transform="translate(9.297 5.639)" fill="#e2dfb9"/>
    </g>
    <g id="Gruppe_47625" data-name="Gruppe 47625" transform="translate(36.606 24.912)">
      <path id="Pfad_47800" data-name="Pfad 47800" d="M.035.486A4.373,4.373,0,0,1,.206-.527,4.068,4.068,0,0,1,.934-1.94,3.976,3.976,0,0,1,2.609-3.133,4.57,4.57,0,0,1,5.047-3.3a6.186,6.186,0,0,1,2.5,1.113A6.9,6.9,0,0,1,9.459.019a5.966,5.966,0,0,1,.765,2.891A5.213,5.213,0,0,1,9.98,4.366,4.087,4.087,0,0,1,9.257,5.63,3.886,3.886,0,0,1,6.818,6.942a5.261,5.261,0,0,1-2.639-.325,6.639,6.639,0,0,1-2.045-1.3A6.852,6.852,0,0,1,.842,3.7,5.827,5.827,0,0,1,.226,2.229,4,4,0,0,1,.1,1.653a2.921,2.921,0,0,1-.054-.435C.029.986.021.86.021.848v0c0-.007,0-.131.014-.362M-.2,1.691a4.153,4.153,0,0,0,.115.617A6.171,6.171,0,0,0,.521,3.88,7.186,7.186,0,0,0,1.839,5.625,6.988,6.988,0,0,0,4,7.055a5.748,5.748,0,0,0,2.888.395A4.3,4.3,0,0,0,9.619,5.932,4.538,4.538,0,0,0,10.4,4.507a5.52,5.52,0,0,0,.241-1.617A6.442,6.442,0,0,0,10.4,1.3,6.561,6.561,0,0,0,9.774-.157,7.219,7.219,0,0,0,7.716-2.424,6.417,6.417,0,0,0,5.08-3.53a5.065,5.065,0,0,0-2.539.213A4.182,4.182,0,0,0,.774-2.073,4.389,4.389,0,0,0-.029-.6,4.667,4.667,0,0,0-.235.467C-.251.718-.259.851-.259.851V.857s0,.131.014.375A3.135,3.135,0,0,0-.2,1.691" transform="translate(0.259 3.601)" fill="#bcb992"/>
    </g>
    <g id="Gruppe_47626" data-name="Gruppe 47626" transform="translate(36.886 29.357)">
      <path id="Pfad_47801" data-name="Pfad 47801" d="M0,0V-.006Z" transform="translate(0 0.006)" fill="#bcb992"/>
    </g>
    <g id="Gruppe_47627" data-name="Gruppe 47627" transform="translate(10.393 20.965)">
      <path id="Pfad_47802" data-name="Pfad 47802" d="M.628,1.18C3.541.054,5.9-2.983,5.9-5.607S3.541-9.443.628-8.317-4.648-4.154-4.648-1.531-2.286,2.306.628,1.18" transform="translate(4.648 8.737)" fill="#fffcde"/>
    </g>
    <g id="Gruppe_47628" data-name="Gruppe 47628" transform="translate(20.72 24.083)">
      <path id="Pfad_47803" data-name="Pfad 47803" d="M0,0V.012Z" fill="#dcdfc5"/>
    </g>
    <g id="Gruppe_47629" data-name="Gruppe 47629" transform="translate(10.202 20.843)">
      <path id="Pfad_47804" data-name="Pfad 47804" d="M.137.538a8.542,8.542,0,0,1,1.78-2.259A7.1,7.1,0,0,1,6.5-3.742a3.42,3.42,0,0,1,1.88.562,2.483,2.483,0,0,1,.908,1.162,3.268,3.268,0,0,1,.2.942c.008.215.012.329.014.341v0c0,.019-.009.138-.022.355A4.859,4.859,0,0,1,9.3.581a7.689,7.689,0,0,1-1.788,3.05A8.938,8.938,0,0,1,5.675,5.15a7.351,7.351,0,0,1-1.153.592c-.2.093-.409.151-.636.234a6.618,6.618,0,0,1-.649.162A3.656,3.656,0,0,1,.58,5.756,2.815,2.815,0,0,1-.636,3.344,5.9,5.9,0,0,1,.137.538m.193,5.6a4.086,4.086,0,0,0,3,.5A7.318,7.318,0,0,0,5.944,5.579,9.438,9.438,0,0,0,7.87,3.96,8.143,8.143,0,0,0,9.742.706a5.488,5.488,0,0,0,.19-1.061c.011-.238.018-.364.018-.364V-.732s-.01-.133-.028-.384A3.784,3.784,0,0,0,9.65-2.17,2.851,2.851,0,0,0,8.563-3.454,3.686,3.686,0,0,0,6.5-3.983a6.533,6.533,0,0,0-2.414.589A8.626,8.626,0,0,0,1.759-1.9,9.472,9.472,0,0,0-.123.393,7.684,7.684,0,0,0-.754,1.8a6.011,6.011,0,0,0-.263,1.546A3.787,3.787,0,0,0-.7,4.907,2.93,2.93,0,0,0,.33,6.134" transform="translate(1.017 3.984)" fill="#dcdfc5"/>
    </g>
    <g id="Gruppe_47630" data-name="Gruppe 47630" transform="translate(20.931 20.093)">
      <path id="Pfad_47805" data-name="Pfad 47805" d="M.628,1.133C3.541.855,5.9-1.5,5.9-4.119S3.541-8.642.628-8.364s-5.276,2.63-5.276,5.252S-2.286,1.411.628,1.133" transform="translate(4.648 8.391)" fill="#fffcde"/>
    </g>
    <g id="Gruppe_47631" data-name="Gruppe 47631" transform="translate(31.285 24.354)">
      <path id="Pfad_47806" data-name="Pfad 47806" d="M0,0S0,.006,0,.007s0,0,0,0Z" transform="translate(0.001)" fill="#dcdfc5"/>
    </g>
    <g id="Gruppe_47632" data-name="Gruppe 47632" transform="translate(20.748 19.985)">
      <path id="Pfad_47807" data-name="Pfad 47807" d="M.043.642A4.836,4.836,0,0,1,.265-.765,5.458,5.458,0,0,1,.9-2.031,5.848,5.848,0,0,1,2.972-3.847a5.786,5.786,0,0,1,2.5-.68A5.063,5.063,0,0,1,7.749-4.1,4.245,4.245,0,0,1,9.305-2.947a4.013,4.013,0,0,1,.722,1.3,3.974,3.974,0,0,1,.176.938c.008.21.014.323.014.334v0c0,.017-.009.134-.024.347A4.167,4.167,0,0,1,10,.9a5.012,5.012,0,0,1-.669,1.323A5.921,5.921,0,0,1,7.958,3.572a5.922,5.922,0,0,1-2.082.921,6.552,6.552,0,0,1-1.246.157,5.31,5.31,0,0,1-1.281-.134A4.354,4.354,0,0,1,2.1,4.037a3.944,3.944,0,0,1-1.067-.85A3.894,3.894,0,0,1,.043.642M1.875,4.429a4.846,4.846,0,0,0,1.361.554,5.792,5.792,0,0,0,1.419.173A5.874,5.874,0,0,0,5.992,4.99,6.416,6.416,0,0,0,8.244,3.976,6,6,0,0,0,9.711,2.484a5.422,5.422,0,0,0,.7-1.461,4.606,4.606,0,0,0,.187-1.033c.01-.232.016-.354.016-.354V-.375l-.026-.37a4.32,4.32,0,0,0-.226-1.019,4.29,4.29,0,0,0-.824-1.381A4.766,4.766,0,0,0,7.85-4.338a5.306,5.306,0,0,0-2.387-.407,6.3,6.3,0,0,0-2.608.672A6.117,6.117,0,0,0,.645-2.209a5.758,5.758,0,0,0-.7,1.336A5.249,5.249,0,0,0-.321.622,4.271,4.271,0,0,0,.716,3.466a4.37,4.37,0,0,0,1.159.963" transform="translate(0.321 4.755)" fill="#dcdfc5"/>
    </g>
    <g id="Gruppe_47633" data-name="Gruppe 47633" transform="translate(15.662 25.012)">
      <path id="Pfad_47808" data-name="Pfad 47808" d="M.628,1.267A6.717,6.717,0,0,0,5.9-5.033,4.224,4.224,0,0,0,.628-9.285a6.718,6.718,0,0,0-5.276,6.3A4.224,4.224,0,0,0,.628,1.267" transform="translate(4.648 9.385)" fill="#fffcde"/>
    </g>
    <g id="Gruppe_47634" data-name="Gruppe 47634" transform="translate(26.011 29.353)">
      <path id="Pfad_47809" data-name="Pfad 47809" d="M0,0V.01Z" fill="#dcdfc5"/>
    </g>
    <g id="Gruppe_47635" data-name="Gruppe 47635" transform="translate(15.473 24.896)">
      <path id="Pfad_47810" data-name="Pfad 47810" d="M.045.776a5.963,5.963,0,0,1,.77-2.9,6.926,6.926,0,0,1,1.926-2.2,6.152,6.152,0,0,1,2.5-1.106,4.687,4.687,0,0,1,2.426.2A3.873,3.873,0,0,1,9.315-4.039a4.074,4.074,0,0,1,.713,1.4,4.387,4.387,0,0,1,.166,1c.008.226.012.347.012.356a.049.049,0,0,1,0-.006v.006c0,.016-.008.141-.022.368a2.928,2.928,0,0,1-.052.431,4.042,4.042,0,0,1-.121.569A5.847,5.847,0,0,1,9.4,1.546,7.036,7.036,0,0,1,8.133,3.156,6.567,6.567,0,0,1,6.1,4.467a5.473,5.473,0,0,1-2.633.356A3.861,3.861,0,0,1,1.017,3.511,4.081,4.081,0,0,1,.291,2.239,5.242,5.242,0,0,1,.045.776M3.4,5.305a5.585,5.585,0,0,0,2.893-.363A7.068,7.068,0,0,0,8.476,3.517,6.9,6.9,0,0,0,10.43.191a4.271,4.271,0,0,0,.12-.624A3.272,3.272,0,0,0,10.6-.9c.01-.244.016-.375.016-.375v-.01s-.009-.135-.025-.388a4.765,4.765,0,0,0-.211-1.078,4.424,4.424,0,0,0-.818-1.49,4.293,4.293,0,0,0-1.8-1.245,4.954,4.954,0,0,0-2.552-.177A6.466,6.466,0,0,0,2.58-4.548,7.233,7.233,0,0,0,.532-2.28,6.574,6.574,0,0,0-.092-.822,6.444,6.444,0,0,0-.331.757,5.544,5.544,0,0,0-.092,2.368a4.489,4.489,0,0,0,.778,1.42A4.315,4.315,0,0,0,3.4,5.305" transform="translate(0.331 5.748)" fill="#dcdfc5"/>
    </g>
    <g id="Gruppe_47636" data-name="Gruppe 47636" transform="translate(31.519 25.374)">
      <path id="Pfad_47811" data-name="Pfad 47811" d="M0,0V10.548A5.275,5.275,0,0,0,5.233,5.273,5.275,5.275,0,0,0,0,0" fill="#fffcde"/>
    </g>
    <g id="Gruppe_47637" data-name="Gruppe 47637" transform="translate(26.199 25.371)">
      <path id="Pfad_47812" data-name="Pfad 47812" d="M.633,1.255V-9.293L.59-9.3A5.276,5.276,0,0,0-4.687-4.019,5.276,5.276,0,0,0,.59,1.258l.043,0" transform="translate(4.687 9.295)" fill="#fffcde"/>
    </g>
    <g id="Gruppe_47638" data-name="Gruppe 47638" transform="translate(31.519 25.115)">
      <path id="Pfad_47813" data-name="Pfad 47813" d="M0,1.255v.516A5.539,5.539,0,0,0,5.491-3.761,5.54,5.54,0,0,0,0-9.293v.516A5.022,5.022,0,0,1,4.974-3.761,5.022,5.022,0,0,1,0,1.255" transform="translate(0 9.293)" fill="#dcdfc5"/>
    </g>
    <g id="Gruppe_47639" data-name="Gruppe 47639" transform="translate(25.941 25.114)">
      <path id="Pfad_47814" data-name="Pfad 47814" d="M.658.061.7.064V-.453l-.043,0a5.534,5.534,0,1,0,0,11.069l.043,0v-.518l-.043,0A5.017,5.017,0,1,1,.658.061" transform="translate(4.876 0.455)" fill="#dcdfc5"/>
    </g>
    <g id="Gruppe_47640" data-name="Gruppe 47640" transform="translate(33.831 25.817)">
      <path id="Pfad_47815" data-name="Pfad 47815" d="M0,2.388l6.79.288s4.1-.994,6.5-7.512a11.938,11.938,0,0,0-2.479-12.848c.183,6.13-4.735,8.074-6.313,11.959Z" transform="translate(0 17.683)" fill="#529e2c"/>
    </g>
    <g id="Gruppe_47641" data-name="Gruppe 47641" transform="translate(33.832 30.471)">
      <path id="Pfad_47816" data-name="Pfad 47816" d="M1.581.975a12.332,12.332,0,0,0,.313-8.194,14.118,14.118,0,0,1-4.92,6.142A22.458,22.458,0,0,0-3.6-4.745C-4.787-3.38-6.563-1.51-7.211.086l-4.5,8.112,6.79.288s4.1-.994,6.5-7.512" transform="translate(11.709 7.219)" fill="#448224"/>
    </g>
    <g id="Gruppe_47642" data-name="Gruppe 47642" transform="translate(15.05 25.816)">
      <path id="Pfad_47817" data-name="Pfad 47817" d="M.1,1.529C2.506,8.046,6.6,9.04,6.6,9.04l6.79-.288L8.9.64C7.318-3.245,2.4-5.188,2.582-11.32A11.94,11.94,0,0,0,.1,1.529" transform="translate(0.764 11.32)" fill="#60b834"/>
    </g>
    <g id="Gruppe_47643" data-name="Gruppe 47643" transform="translate(15.051 30.471)">
      <path id="Pfad_47818" data-name="Pfad 47818" d="M.877,1.869l6.79-.288-4.5-8.112C2.52-8.128.744-10-.446-11.363A22.215,22.215,0,0,0-1.017-7.7a14.11,14.11,0,0,1-4.92-6.142,12.325,12.325,0,0,0,.313,8.194c2.4,6.517,6.5,7.512,6.5,7.512" transform="translate(6.491 13.837)" fill="#539e2c"/>
    </g>
    <g id="Gruppe_47644" data-name="Gruppe 47644" transform="translate(8.663 19.436)">
      <path id="Pfad_47819" data-name="Pfad 47819" d="M.1,2.1c3.133,7.928,10.446,11.409,18.391,11.409,3.53,0-1.381-.659-4.948-8.41C11.592.854,2.668,1.157,3.469-15.543c0,0-6.5,9.714-3.368,17.642" transform="translate(0.752 15.543)" fill="#60b834"/>
    </g>
    <g id="Gruppe_47645" data-name="Gruppe 47645" transform="translate(14.521 40.02)">
      <path id="Pfad_47820" data-name="Pfad 47820" d="M.843.1A5.046,5.046,0,0,1,.331.466a6.592,6.592,0,0,1-.6.367,10.045,10.045,0,0,1-1.365.654,12.425,12.425,0,0,1-2.721.74c-.763.123-1.894.17-1.894.17l.674.6a9.863,9.863,0,0,0,1.326-.235A12.879,12.879,0,0,0-1.5,1.781,10.179,10.179,0,0,0-.157,1.005,6.265,6.265,0,0,0,.419.586,5.085,5.085,0,0,0,.907.18a6.981,6.981,0,0,0,.675-.667l.244-.264-.263.244A6.927,6.927,0,0,1,.843.1" transform="translate(6.245 0.752)" fill="#539e2c"/>
    </g>
    <g id="Gruppe_47646" data-name="Gruppe 47646" transform="translate(20.62 43.154)">
      <path id="Pfad_47821" data-name="Pfad 47821" d="M0,.434,1.211.818S1.333.8,1.674.753A14.709,14.709,0,0,0,4.8-.347,8.952,8.952,0,0,0,5.6-.767c.261-.14.505-.3.739-.456A7.415,7.415,0,0,0,6.994-1.7a5.7,5.7,0,0,0,.56-.462,8.043,8.043,0,0,0,.773-.756l.279-.3-.3.279a7.868,7.868,0,0,1-.818.7,5.627,5.627,0,0,1-.582.418,7.278,7.278,0,0,1-.678.422c-.239.138-.488.278-.754.4s-.528.25-.8.356a14.426,14.426,0,0,1-1.636.549C2.5.041,2,.155,1.57.219.7.363,0,.434,0,.434" transform="translate(0 3.215)" fill="#539e2c"/>
    </g>
    <g id="Gruppe_47647" data-name="Gruppe 47647" transform="translate(10.666 34.999)">
      <path id="Pfad_47822" data-name="Pfad 47822" d="M.676.085a7.181,7.181,0,0,1-.94.61,8.326,8.326,0,0,1-1.155.544,10.513,10.513,0,0,1-2.3.607c-.645.1-1.291.142-1.291.142l.27.6A8.375,8.375,0,0,0-3.61,2.379a10.928,10.928,0,0,0,2.322-.846A8.571,8.571,0,0,0-.156.868a7.408,7.408,0,0,0,.9-.7,5.972,5.972,0,0,0,.568-.569l.2-.225-.224.205a5.921,5.921,0,0,1-.612.51" transform="translate(5.005 0.63)" fill="#539e2c"/>
    </g>
    <g id="Gruppe_47648" data-name="Gruppe 47648" transform="translate(9.615 27.407)">
      <path id="Pfad_47823" data-name="Pfad 47823" d="M.351.042a4.573,4.573,0,0,1-1.1.547A5.348,5.348,0,0,1-1.941.847a3.658,3.658,0,0,1-.533.024L-2.6,1.5a3.653,3.653,0,0,0,.763-.117A5.786,5.786,0,0,0-.623.884,4.783,4.783,0,0,0,.415.12,3.163,3.163,0,0,0,.7-.19L.8-.311l-.121.1A3.086,3.086,0,0,1,.351.042" transform="translate(2.599 0.311)" fill="#539e2c"/>
    </g>
    <g id="Gruppe_47649" data-name="Gruppe 47649" transform="translate(20.4 37.387)">
      <path id="Pfad_47824" data-name="Pfad 47824" d="M.893,1.321c3.53,0-1.381-.661-4.948-8.41A7.572,7.572,0,0,0-6.6-9.78c-.008.185-.018.371-.018.555,0,5.426,1.743,8.709,4.354,10.35a25.876,25.876,0,0,0,3.154.2" transform="translate(6.615 9.78)" fill="#539e2c"/>
    </g>
    <g id="Gruppe_47650" data-name="Gruppe 47650" transform="translate(33.912 19.436)">
      <path id="Pfad_47825" data-name="Pfad 47825" d="M.734,2.456c-3.566,7.75-8.478,8.41-4.948,8.41,7.945,0,15.258-3.481,18.391-11.409s-3.367-17.642-3.367-17.642c.8,16.7-8.124,16.4-10.077,20.642" transform="translate(5.432 18.186)" fill="#529e2c"/>
    </g>
    <g id="Gruppe_47651" data-name="Gruppe 47651" transform="translate(40.27 40.021)">
      <path id="Pfad_47826" data-name="Pfad 47826" d="M.109.111A5.137,5.137,0,0,0,.6.518a6.323,6.323,0,0,0,.575.419,10.307,10.307,0,0,0,1.343.776,13.006,13.006,0,0,0,2.746.98,9.7,9.7,0,0,0,1.326.234l.673-.6s-1.131-.047-1.894-.169a12.546,12.546,0,0,1-2.72-.74A9.985,9.985,0,0,1,1.282.763,6.2,6.2,0,0,1,.686.4,5.2,5.2,0,0,1,.173.032,6.769,6.769,0,0,1-.546-.576L-.81-.82s.09.1.244.263A6.852,6.852,0,0,0,.109.111" transform="translate(0.81 0.82)" fill="#40821d"/>
    </g>
    <g id="Gruppe_47652" data-name="Gruppe 47652" transform="translate(33.638 43.153)">
      <path id="Pfad_47827" data-name="Pfad 47827" d="M.125.126A6.017,6.017,0,0,0,.684.588a7.431,7.431,0,0,0,.658.473c.233.158.478.317.738.457s.522.291.795.419A14.74,14.74,0,0,0,6,3.038c.343.044.463.064.463.064l1.212-.383s-.7-.073-1.57-.216c-.435-.065-.935-.177-1.469-.312a14.627,14.627,0,0,1-1.634-.548c-.275-.108-.545-.226-.8-.358a8.131,8.131,0,0,1-.753-.4A7.449,7.449,0,0,1,.771.466,6.078,6.078,0,0,1,.189.047a7.848,7.848,0,0,1-.817-.7l-.3-.28.279.3A7.772,7.772,0,0,0,.125.126" transform="translate(0.927 0.931)" fill="#40821d"/>
    </g>
    <g id="Gruppe_47653" data-name="Gruppe 47653" transform="translate(49.849 27.407)">
      <path id="Pfad_47828" data-name="Pfad 47828" d="M.169.142a5.725,5.725,0,0,0,1.213.5,3.653,3.653,0,0,0,.763.117L2.021.129A3.465,3.465,0,0,1,1.487.1,5.348,5.348,0,0,1,.3-.153,4.532,4.532,0,0,1-.8-.7a2.972,2.972,0,0,1-.328-.251l-.121-.1.1.121a3.276,3.276,0,0,0,.284.31A4.793,4.793,0,0,0,.169.142" transform="translate(1.254 1.053)" fill="#40821d"/>
    </g>
    <g id="Gruppe_47654" data-name="Gruppe 47654" transform="translate(45.681 34.998)">
      <path id="Pfad_47829" data-name="Pfad 47829" d="M.092.094a7.274,7.274,0,0,0,.9.7,8.585,8.585,0,0,0,1.133.665,10.929,10.929,0,0,0,2.321.847,8.243,8.243,0,0,0,1.125.207l.271-.6s-.647-.044-1.291-.142a10.457,10.457,0,0,1-2.3-.607A8.319,8.319,0,0,1,1.1.626a7.259,7.259,0,0,1-.94-.61,5.767,5.767,0,0,1-.611-.51L-.68-.7l.205.225A5.681,5.681,0,0,0,.092.094" transform="translate(0.68 0.699)" fill="#40821d"/>
    </g>
    <g id="Gruppe_47655" data-name="Gruppe 47655" transform="translate(33.89 37.387)">
      <path id="Pfad_47830" data-name="Pfad 47830" d="M.52,1.3C3.131-.344,4.874-3.627,4.874-9.053c0-.183-.01-.369-.018-.555A7.581,7.581,0,0,0,2.314-6.917c-3.566,7.75-8.478,8.41-4.948,8.41A25.637,25.637,0,0,0,.52,1.3" transform="translate(3.852 9.608)" fill="#448224"/>
    </g>
    <g id="Gruppe_47656" data-name="Gruppe 47656" transform="translate(22.336 19.375)">
      <path id="Pfad_47831" data-name="Pfad 47831" d="M2.185,2.209C2.185-6.135-7-16.358-7-16.358S-16.181-6.135-16.181,2.209-12.07,13.857-7,13.857s9.184-3.3,9.184-11.648" transform="translate(16.181 16.358)" fill="#60b834"/>
    </g>
    <g id="Gruppe_47657" data-name="Gruppe 47657" transform="translate(29.583 21.128)">
      <path id="Pfad_47832" data-name="Pfad 47832" d="M.461,3.307V-22.551a1.936,1.936,0,0,0-1.936-1.936,1.936,1.936,0,0,0-1.936,1.936V3.307A1.937,1.937,0,0,0-1.476,5.243,1.937,1.937,0,0,0,.461,3.307" transform="translate(3.412 24.487)" fill="#60b834"/>
    </g>
    <g id="Gruppe_47658" data-name="Gruppe 47658" transform="translate(31.519 21.127)">
      <path id="Pfad_47833" data-name="Pfad 47833" d="M.23.23A1.937,1.937,0,0,0-1.706-1.706v29.73A1.936,1.936,0,0,0,.23,26.088Z" transform="translate(1.706 1.706)" fill="#529e2c"/>
    </g>
    <g id="Gruppe_47659" data-name="Gruppe 47659" transform="translate(31.519 19.375)">
      <path id="Pfad_47834" data-name="Pfad 47834" d="M0,0V30.215c5.071,0,9.184-3.3,9.184-11.648S0,0,0,0" fill="#529e2c"/>
    </g>
    <g id="Gruppe_47660" data-name="Gruppe 47660" transform="translate(32.307 26.078)">
      <path id="Pfad_47835" data-name="Pfad 47835" d="M.108.348a6.127,6.127,0,0,0,1.637-.9,6.17,6.17,0,0,0,1.27-1.325,5.369,5.369,0,0,0,.327-.5l.116-.194-.14.178a4.764,4.764,0,0,1-.381.455A5.941,5.941,0,0,1,1.563-.823,5.688,5.688,0,0,1-.047-.174,3.7,3.7,0,0,1-.8-.066l.054.642C-.753.577-.647.564-.5.53A4.893,4.893,0,0,0,.108.348" transform="translate(0.8 2.578)" fill="#40821d"/>
    </g>
    <g id="Gruppe_47661" data-name="Gruppe 47661" transform="translate(32.458 32.918)">
      <path id="Pfad_47836" data-name="Pfad 47836" d="M.056.622A8.606,8.606,0,0,0,1.1.336,9.772,9.772,0,0,0,2.5-.252a10.52,10.52,0,0,0,1.469-.9,11.362,11.362,0,0,0,1.3-1.119c.193-.194.362-.4.531-.581a6.911,6.911,0,0,0,.438-.549c.128-.176.26-.326.35-.479l.245-.385.213-.335-.236.319-.271.365a5.851,5.851,0,0,1-.379.451c-.146.159-.286.346-.47.512s-.359.358-.561.533a11.085,11.085,0,0,1-1.342,1,10.01,10.01,0,0,1-1.473.771A9.2,9.2,0,0,1,.944-.186,6.819,6.819,0,0,1-.415.049l.053.642L-.253.676c.076-.01.179-.03.309-.054" transform="translate(0.415 4.605)" fill="#40821d"/>
    </g>
    <g id="Gruppe_47662" data-name="Gruppe 47662" transform="translate(32.458 37.962)">
      <path id="Pfad_47837" data-name="Pfad 47837" d="M.061.682A9.649,9.649,0,0,0,1.208.371C1.443.3,1.686.195,1.948.1c.254-.119.53-.222.8-.37a11.582,11.582,0,0,0,1.62-.99A12.543,12.543,0,0,0,5.8-2.489c.213-.212.4-.436.587-.638s.335-.418.485-.6.288-.358.387-.527.2-.305.271-.423l.237-.368-.26.353-.3.4a6.458,6.458,0,0,1-.417.5,7.175,7.175,0,0,1-.516.566c-.2.187-.394.4-.616.59a12.144,12.144,0,0,1-1.477,1.11,11.189,11.189,0,0,1-1.624.857c-.264.126-.537.207-.785.305-.257.076-.494.163-.721.215a7.671,7.671,0,0,1-1.5.266L-.4.757-.277.741C-.194.73-.081.709.061.682" transform="translate(0.451 5.049)" fill="#40821d"/>
    </g>
    <g id="Gruppe_47663" data-name="Gruppe 47663" transform="translate(32.457 41.783)">
      <path id="Pfad_47838" data-name="Pfad 47838" d="M.059.657a9.288,9.288,0,0,0,1.106-.3c.226-.067.46-.17.713-.263.243-.115.51-.215.766-.358A11.009,11.009,0,0,0,4.2-1.219,12.126,12.126,0,0,0,5.582-2.4c.2-.2.384-.42.563-.614s.322-.4.467-.582a6.213,6.213,0,0,0,.371-.507c.1-.157.188-.294.261-.407l.227-.354-.25.339-.287.388a6.22,6.22,0,0,1-.4.478,7.341,7.341,0,0,1-.5.544c-.19.18-.379.38-.594.568A11.8,11.8,0,0,1,4.02-1.486a10.658,10.658,0,0,1-1.563.822c-.254.12-.516.2-.755.293-.247.073-.476.157-.694.205A7.339,7.339,0,0,1-.437.088L-.383.73-.268.715C-.186.7-.078.684.059.657" transform="translate(0.437 4.868)" fill="#40821d"/>
    </g>
    <g id="Gruppe_47664" data-name="Gruppe 47664" transform="translate(22.327 37.962)">
      <path id="Pfad_47839" data-name="Pfad 47839" d="M.106.157c.15.186.293.406.485.6s.373.426.587.638A12.774,12.774,0,0,0,2.613,2.627a11.582,11.582,0,0,0,1.62.99c.267.148.544.251.8.37.262.1.505.2.74.272a9.649,9.649,0,0,0,1.148.311c.143.027.255.048.339.059l.119.016L7.429,4a7.6,7.6,0,0,1-1.5-.264C5.7,3.685,5.46,3.6,5.2,3.522c-.249-.1-.52-.18-.784-.305A11.2,11.2,0,0,1,2.794,2.36,12.445,12.445,0,0,1,1.318,1.25C1.1,1.055.9.847.7.66S.346.268.185.093a6.458,6.458,0,0,1-.417-.5l-.3-.4-.259-.352s.085.134.236.368l.272.423c.1.169.244.334.386.527" transform="translate(0.788 1.161)" fill="#4fa023"/>
    </g>
    <g id="Gruppe_47665" data-name="Gruppe 47665" transform="translate(22.636 41.784)">
      <path id="Pfad_47840" data-name="Pfad 47840" d="M.1.151A7.265,7.265,0,0,0,.569.732c.179.2.359.411.563.615a12.126,12.126,0,0,0,1.38,1.184,11.223,11.223,0,0,0,1.558.955c.257.143.523.242.766.358.253.093.487.2.713.263a9.512,9.512,0,0,0,1.106.3c.137.026.245.047.327.057L7.1,4.48l.054-.644A7.272,7.272,0,0,1,5.7,3.584c-.218-.05-.446-.133-.694-.205-.238-.094-.5-.173-.755-.293a10.769,10.769,0,0,1-1.563-.822A11.8,11.8,0,0,1,1.272,1.2C1.058,1.011.868.812.679.631S.336.255.181.087s-.3-.325-.4-.479L-.507-.78l-.25-.338.227.354.261.407c.094.162.235.321.371.507" transform="translate(0.757 1.118)" fill="#4fa023"/>
    </g>
    <g id="Gruppe_47666" data-name="Gruppe 47666" transform="translate(26.544 26.079)">
      <path id="Pfad_47841" data-name="Pfad 47841" d="M.2.24a6.113,6.113,0,0,0,1.637.9,4.893,4.893,0,0,0,.606.182c.149.034.255.048.247.048L2.749.731A3.736,3.736,0,0,1,2,.624,5.707,5.707,0,0,1,.385-.026,5.965,5.965,0,0,1-.988-1.148,4.942,4.942,0,0,1-1.369-1.6c-.09-.112-.14-.177-.14-.177s.042.07.117.193a4.967,4.967,0,0,0,.326.5A6.172,6.172,0,0,0,.2.24" transform="translate(1.509 1.78)" fill="#4fa023"/>
    </g>
    <g id="Gruppe_47667" data-name="Gruppe 47667" transform="translate(23.194 32.918)">
      <path id="Pfad_47842" data-name="Pfad 47842" d="M.1.143c.136.169.264.37.438.549s.338.388.531.581a11.476,11.476,0,0,0,1.3,1.119,10.479,10.479,0,0,0,1.469.9,9.827,9.827,0,0,0,1.4.588,8.882,8.882,0,0,0,1.043.286c.129.025.233.044.309.054l.109.015L6.745,3.6a6.822,6.822,0,0,1-1.36-.235A9.15,9.15,0,0,1,4.021,2.9a10.073,10.073,0,0,1-1.474-.771,11.266,11.266,0,0,1-1.342-1C1,.948.824.76.644.591S.321.238.174.079-.106-.226-.2-.372-.4-.636-.476-.737l-.236-.319s.078.121.213.335l.246.385c.089.153.22.3.348.479" transform="translate(0.712 1.056)" fill="#4fa023"/>
    </g>
  </g>
</svg>
