<svg id="Gruppe_46776" data-name="Gruppe 46776" xmlns="http://www.w3.org/2000/svg" xmlns:xlink="http://www.w3.org/1999/xlink" width="39.82" height="41.269" viewBox="0 0 39.82 41.269">
  <defs>
    <clipPath id="clip-path">
      <rect id="Rechteck_673" data-name="Rechteck 673" width="39.82" height="41.269" fill="none"/>
    </clipPath>
    <clipPath id="clip-path-3">
      <rect id="Rechteck_670" data-name="Rechteck 670" width="19.91" height="27.411" fill="none"/>
    </clipPath>
  </defs>
  <g id="Gruppe_40558" data-name="Gruppe 40558" clip-path="url(#clip-path)">
    <g id="Gruppe_40557" data-name="Gruppe 40557">
      <g id="Gruppe_40556" data-name="Gruppe 40556" clip-path="url(#clip-path)">
        <g id="Gruppe_40552" data-name="Gruppe 40552" transform="translate(19.91 0.014)" style="mix-blend-mode: multiply;isolation: isolate">
          <g id="Gruppe_40551" data-name="Gruppe 40551">
            <g id="Gruppe_40550" data-name="Gruppe 40550" clip-path="url(#clip-path-3)">
              <path id="Pfad_39507" data-name="Pfad 39507" d="M71.29.645a.94.94,0,0,0-1.4-.237.9.9,0,0,0-.333.609.9.9,0,0,0-.228-.656.987.987,0,0,0-.61-.311V27.461a.952.952,0,0,0,.309-.222.912.912,0,0,0,.243-.662.94.94,0,0,0,.333.642.929.929,0,0,0,.6.219,1.019,1.019,0,0,0,.114-.007.96.96,0,0,0,.657-.378.909.909,0,0,0,.169-.675.942.942,0,0,0,.417.6.91.91,0,0,0,.487.144.871.871,0,0,0,.234-.032.94.94,0,0,0,.6-.453.909.909,0,0,0,.08-.692.9.9,0,0,0,.853.6.9.9,0,0,0,.368-.078.876.876,0,0,0,.516-.528.92.92,0,0,0-.023-.681.9.9,0,0,0,.547.361.932.932,0,0,0,.184.019.926.926,0,0,0,.928-.874.826.826,0,0,0-.026-.187c.013-.008.028-.011.041-.02a.869.869,0,0,0,.217-.225.653.653,0,0,0,.075.014c.03,0,.06,0,.09,0l.017,0a.914.914,0,0,0,.154.308.971.971,0,0,0,.68.371h.042a.967.967,0,0,0,.673-.266.907.907,0,0,0,.278-.628.908.908,0,0,0,.278.628.97.97,0,0,0,.682.265h.048a.962.962,0,0,0,.665-.369.911.911,0,0,0,.183-.656.906.906,0,0,0,.369.568.952.952,0,0,0,.545.167,1.085,1.085,0,0,0,.22-.023.968.968,0,0,0,.6-.475.9.9,0,0,0,.067-.681.916.916,0,0,0,.858.595.934.934,0,0,0,.892-.648.89.89,0,0,0-.049-.666.933.933,0,0,0,.592.411.946.946,0,0,0,.19.019.847.847,0,0,0,.513-.17.9.9,0,0,0,.241-1.279.9.9,0,0,0,.608.256h.014a.919.919,0,0,0,.675-.3.879.879,0,0,0,.249-.7.913.913,0,0,0-.307-.6.894.894,0,0,0,.434.121.91.91,0,0,0,.815-.5.942.942,0,0,0,.033-.767.872.872,0,0,0-.467-.461.966.966,0,0,0,.205.03.907.907,0,0,0,.467-.128.961.961,0,0,0,.412-.629.883.883,0,0,0-.186-.726.9.9,0,0,0-.555-.317.9.9,0,0,0,.555-.316.884.884,0,0,0,.185-.727.962.962,0,0,0-.416-.631.911.911,0,0,0-.66-.1.869.869,0,0,0,.459-.456.946.946,0,0,0-.035-.772.913.913,0,0,0-.59-.47.9.9,0,0,0-.643.082.912.912,0,0,0,.294-.593.876.876,0,0,0-.246-.7.837.837,0,0,0-.693-.3.9.9,0,0,0-.608.256.919.919,0,0,0,.149-.446.859.859,0,0,0,.055-.484.893.893,0,0,0-1.079-.76.871.871,0,0,0,.478-.433.99.99,0,0,0,.006-.8.967.967,0,0,0-.588-.5A.883.883,0,0,0,83.851,9a.915.915,0,0,0,.351-.585A.878.878,0,0,0,84.01,7.7a.893.893,0,0,0-.653-.362.912.912,0,0,0-.67.223.885.885,0,0,0,.231-.621.988.988,0,0,0-.353-.708.971.971,0,0,0-.75-.185.886.886,0,0,0-.563.36.923.923,0,0,0,.073-.715.865.865,0,0,0-.479-.546A.893.893,0,0,0,79.6,5.6a.887.887,0,0,0-.067-.674.945.945,0,0,0-.614-.467.9.9,0,0,0-.739.135.916.916,0,0,0-.372.565.89.89,0,0,0-.107-.416,1.045,1.045,0,0,0-.167-.48.988.988,0,0,0-.687-.38.884.884,0,0,0-.635.206.915.915,0,0,0,.256-.668.885.885,0,0,0-.324-.662.912.912,0,0,0-1.332.1.892.892,0,0,0,.12-.663.961.961,0,0,0-.457-.624.91.91,0,0,0-.745-.091.927.927,0,0,0-.553.464.9.9,0,0,0,.005-.684A1,1,0,0,0,72.61.718a.962.962,0,0,0-.765.065.9.9,0,0,0-.44.548A.9.9,0,0,0,71.29.645" transform="translate(-68.717 -0.05)" fill="#c5deb1"/>
            </g>
          </g>
        </g>
        <path id="Pfad_39508" data-name="Pfad 39508" d="M57.249,88.3c-1.289.5-2.281-6.863-2.281-6.863l-1.19.1a26.431,26.431,0,0,1,.793,8.053Z" transform="translate(-38.197 -57.845)" fill="#6ba335"/>
        <path id="Pfad_39509" data-name="Pfad 39509" d="M47.33,79.73H43.936s-.2,4.979-.4,5.97-1.093,3.182-2.2.992c-1.4-2.777-3.394-6.367-3.394-6.367h-3S38.845,86.2,38.845,90.46V97.9h9.783V91.849c0-2.578,2.994-8.945,5.89-10.433l-.7-.992s-4.392,5.276-5.69,5.97-2,.992-1.7-1.388.9-5.276.9-5.276" transform="translate(-24.825 -56.629)" fill="#8dcc50"/>
        <path id="Pfad_39510" data-name="Pfad 39510" d="M71.312,79.73h-2.6V97.9H72.61V91.849c0-2.578,2.994-8.945,5.89-10.433l-.7-.992s-4.392,5.276-5.69,5.97-2,.992-1.7-1.388.9-5.276.9-5.276" transform="translate(-48.807 -56.629)" fill="#6ba335"/>
        <path id="Pfad_39511" data-name="Pfad 39511" d="M37.947,81.784h-3a33.343,33.343,0,0,1,2.672,5.081h3.058c-1.291-2.485-2.735-5.081-2.735-5.081" transform="translate(-24.825 -58.088)" fill="#6ba335"/>
        <path id="Pfad_39512" data-name="Pfad 39512" d="M54.969,81.441l-1.19.1a21.506,21.506,0,0,1,.79,5.081h1.479a37.781,37.781,0,0,1-1.08-5.18" transform="translate(-38.197 -57.845)" fill="#6ba335"/>
        <path id="Pfad_39513" data-name="Pfad 39513" d="M65.891,79.73h-.8s-.171,4.251-.354,5.676h1.153Z" transform="translate(-45.981 -56.629)" fill="#6ba335"/>
        <path id="Pfad_39514" data-name="Pfad 39514" d="M71.312,79.73h-2.6v5.676h1.654c.011-.124.025-.257.043-.4.3-2.38.9-5.276.9-5.276" transform="translate(-48.807 -56.629)" fill="#58872c"/>
        <path id="Pfad_39515" data-name="Pfad 39515" d="M89.742,83.118l-.7-.992s-2.707,3.249-4.5,4.982h1.623a10.529,10.529,0,0,1,3.574-3.99" transform="translate(-60.049 -58.331)" fill="#58872c"/>
        <path id="Pfad_39516" data-name="Pfad 39516" d="M31.683,7.5l.034.263.12.227.331.2V8.22l.08.321.194.26.194.11.159-.4-.072-.141.234-.054.314-.256.125-.234A.933.933,0,0,0,34.75,8.8a.951.951,0,0,0,.469-.552.953.953,0,0,0,.059.718.943.943,0,0,0,.841.517.956.956,0,0,0,.9-.654.95.95,0,0,0,.059.714.945.945,0,0,0,.841.517.955.955,0,0,0,.9-.654.948.948,0,0,0,.06.715.944.944,0,0,0,.84.517.956.956,0,0,0,.9-.654A.944.944,0,0,0,41.81,11.17c.349-.109.426-.326.439-.43a.785.785,0,0,0,.012-.137.932.932,0,0,0,1.632-.037.95.95,0,0,0,.071-.715.954.954,0,0,0,.907.67.94.94,0,0,0,.834-.5.954.954,0,0,0,.071-.716.956.956,0,0,0,.908.671.94.94,0,0,0,.272-.04.952.952,0,0,0,.634-1.177.95.95,0,0,0,.454.554.944.944,0,0,0,1.286-.389.952.952,0,0,0,.071-.715.95.95,0,0,0,1.179.63.907.907,0,0,0,.65-1l.037.084.214.262.285.166.195.027-.136.13.151.407.219-.124.191-.259.068-.311.216-.105.231-.3.055-.26V7.49l-.435.006,0,.038-.07.161-.02-.072-.15-.2L52,7.246l-.264-.05a.916.916,0,0,0,.4-.364A.852.852,0,0,0,52.19,6.1a.89.89,0,0,0-1.2-.564.869.869,0,0,0,.387-.518.933.933,0,0,0-.836-1.17.886.886,0,0,0-.635.206.915.915,0,0,0,.257-.668.886.886,0,0,0-.324-.662.912.912,0,0,0-1.332.1.892.892,0,0,0,.12-.663.962.962,0,0,0-.457-.624.91.91,0,0,0-.745-.091.928.928,0,0,0-.553.464.9.9,0,0,0,.005-.684,1,1,0,0,0-.568-.544.963.963,0,0,0-.766.065.9.9,0,0,0-.44.548.9.9,0,0,0-.114-.686.94.94,0,0,0-1.4-.237.9.9,0,0,0-.333.609.9.9,0,0,0-.227-.656.937.937,0,0,0-1.423,0,.9.9,0,0,0-.226.655.9.9,0,0,0-.334-.608,1,1,0,0,0-.765-.2,1,1,0,0,0-.638.44.9.9,0,0,0-.112.686.907.907,0,0,0-.444-.551A.967.967,0,0,0,38.307.69a.992.992,0,0,0-.556.541.893.893,0,0,0,.006.685.93.93,0,0,0-.556-.465.911.911,0,0,0-.741.093A.96.96,0,0,0,36,2.166a.893.893,0,0,0,.121.666.922.922,0,0,0-.617-.339.9.9,0,0,0-.706.23.889.889,0,0,0-.333.67.917.917,0,0,0,.258.668.889.889,0,0,0-.635-.2,1,1,0,0,0-.7.4.989.989,0,0,0-.135.776.867.867,0,0,0,.387.515.9.9,0,0,0-.693,0,.882.882,0,0,0-.5.552.868.868,0,0,0,.06.751.909.909,0,0,0,.389.358l-.275.056-.282.182-.145.207-.012.052-.066-.135V7.5Zm19.964.12.233.05.19.218-.006.027-.09.039-.134-.043-.208-.29Zm-19.029.165L33,7.636l-.131.214-.21.1-.091-.039Z" transform="translate(-22.503 0.001)" fill="#41751a"/>
        <path id="Pfad_39517" data-name="Pfad 39517" d="M71.06.615a.941.941,0,0,0-1.4-.237.9.9,0,0,0-.333.609A.906.906,0,0,0,69.1.331a1,1,0,0,0-.7-.324V10.684a.866.866,0,0,0,.29.276.943.943,0,0,0,1.285-.389.948.948,0,0,0,.071-.715.954.954,0,0,0,.907.67.94.94,0,0,0,.834-.5.952.952,0,0,0,.071-.716.956.956,0,0,0,.908.671.946.946,0,0,0,.905-1.217.951.951,0,0,0,.455.554A.944.944,0,0,0,75.4,8.927a.952.952,0,0,0,.071-.715.949.949,0,0,0,1.179.63.908.908,0,0,0,.65-1l.037.084.214.262.285.166.195.028-.136.13.152.407.219-.124.191-.259.067-.311.216-.105.231-.3.056-.26V7.5l-.434.006,0,.038-.07.161L78.5,7.63l-.15-.2-.284-.176-.264-.05a.913.913,0,0,0,.4-.364.851.851,0,0,0,.061-.734.887.887,0,0,0-.507-.565.9.9,0,0,0-.693,0,.872.872,0,0,0,.386-.518.933.933,0,0,0-.836-1.17.884.884,0,0,0-.635.206.916.916,0,0,0,.256-.667.885.885,0,0,0-.324-.662.912.912,0,0,0-1.332.1.892.892,0,0,0,.12-.663.961.961,0,0,0-.457-.624.911.911,0,0,0-.745-.091.928.928,0,0,0-.553.464.9.9,0,0,0,0-.684A1,1,0,0,0,72.38.688a.962.962,0,0,0-.765.065.9.9,0,0,0-.441.548A.9.9,0,0,0,71.06.615m6.66,7.008.233.05.19.218-.006.027-.09.039-.134-.043-.209-.29Z" transform="translate(-48.576 -0.005)" fill="#305713"/>
        <path id="Pfad_39518" data-name="Pfad 39518" d="M15.7,18.767a.97.97,0,0,0-.422.667.942.942,0,0,0,.233.737.883.883,0,0,0,.556.282.9.9,0,0,0-.566.337.937.937,0,0,0,.25,1.336.923.923,0,0,0,.471.13.887.887,0,0,0,.208-.037.908.908,0,0,0-.437.529.846.846,0,0,0,.1.722.871.871,0,0,0,.612.437.946.946,0,0,0,.163.014.894.894,0,0,0,.5-.165.894.894,0,0,0,.084,1.3.9.9,0,0,0,1.3-.11.878.878,0,0,0-.068.63.98.98,0,0,0,.5.609,1.019,1.019,0,0,0,.406.085.936.936,0,0,0,.37-.075.885.885,0,0,0,.466-.481.92.92,0,0,0,.075.7.9.9,0,0,0,.589.447.914.914,0,0,0,.249.035.9.9,0,0,0,.485-.143.928.928,0,0,0,.41-.595.9.9,0,0,0,.179.657.977.977,0,0,0,.687.369h.052a.957.957,0,0,0,.666-.263.907.907,0,0,0,.282-.621.928.928,0,0,0,.305.634.917.917,0,0,0,.618.237.932.932,0,0,0,.094,0,.953.953,0,0,0,.671-.366.9.9,0,0,0,.178-.653.91.91,0,0,0,1.135.677.885.885,0,0,0,.59-.448.923.923,0,0,0,.071-.716.907.907,0,0,0,.5.484.922.922,0,0,0,.335.063.942.942,0,0,0,.913-.7.885.885,0,0,0-.079-.638.878.878,0,0,0,.558.314.888.888,0,0,0,.124.008.97.97,0,0,0,.627-.24.952.952,0,0,0,.305-.714.881.881,0,0,0-.253-.589.922.922,0,0,0,.493.153,1,1,0,0,0,.156-.013.961.961,0,0,0,.615-.452.913.913,0,0,0,.07-.765A.88.88,0,0,0,31.7,22.1a.772.772,0,0,0,.652-.1.882.882,0,0,0,.412-.621.862.862,0,0,0-.176-.727A.915.915,0,0,0,32,20.318a.914.914,0,0,0,.579-.32.879.879,0,0,0,.189-.717.894.894,0,0,0-1.08-.761.874.874,0,0,0,.478-.433.994.994,0,0,0,.005-.8.965.965,0,0,0-.589-.5.878.878,0,0,0-.643.059.914.914,0,0,0,.352-.585.876.876,0,0,0-.193-.708.892.892,0,0,0-.654-.362.919.919,0,0,0-.67.223.883.883,0,0,0,.231-.621.991.991,0,0,0-.353-.708A.969.969,0,0,0,28.9,13.9a.884.884,0,0,0-.563.36.921.921,0,0,0,.073-.714.868.868,0,0,0-.48-.547.895.895,0,0,0-1.249.452.884.884,0,0,0-.066-.674A.95.95,0,0,0,26,12.309a.9.9,0,0,0-.74.137.914.914,0,0,0-.371.564.9.9,0,0,0-.226-.613.962.962,0,0,0-.714-.315.981.981,0,0,0-.7.336.881.881,0,0,0-.206.608.933.933,0,0,0-.4-.571.863.863,0,0,0-.718-.109.9.9,0,0,0-.669,1.149.888.888,0,0,0-.483-.474.94.94,0,0,0-.768.04.912.912,0,0,0-.4,1.257.913.913,0,0,0-1.314-.127.947.947,0,0,0-.338.69.889.889,0,0,0,.227.617.929.929,0,0,0-.643-.2.913.913,0,0,0-.656.366.886.886,0,0,0-.186.724.912.912,0,0,0,.364.579.918.918,0,0,0-.676-.041.9.9,0,0,0-.55.513.922.922,0,0,0,.006.763.9.9,0,0,0,.505.449.869.869,0,0,0-.651.117" transform="translate(-10.847 -8.581)" fill="#41751a"/>
        <path id="Pfad_39519" data-name="Pfad 39519" d="M48.087,12.8a.951.951,0,0,0-.615-.468.9.9,0,0,0-.74.137.913.913,0,0,0-.371.564.9.9,0,0,0-.225-.613.953.953,0,0,0-.638-.307V26.656a.931.931,0,0,0,.078-.329.929.929,0,0,0,.306.633.916.916,0,0,0,.618.237.938.938,0,0,0,.094,0,.954.954,0,0,0,.67-.366.9.9,0,0,0,.178-.653.912.912,0,0,0,1.135.677.886.886,0,0,0,.59-.448.923.923,0,0,0,.071-.716.907.907,0,0,0,.5.484.921.921,0,0,0,.335.063.941.941,0,0,0,.913-.7A.884.884,0,0,0,50.9,24.9a.878.878,0,0,0,.558.314.841.841,0,0,0,.123.008.97.97,0,0,0,.627-.24.949.949,0,0,0,.305-.713.88.88,0,0,0-.253-.589.924.924,0,0,0,.493.154.994.994,0,0,0,.156-.013.96.96,0,0,0,.615-.452.914.914,0,0,0,.07-.766.879.879,0,0,0-.431-.482.772.772,0,0,0,.652-.1.881.881,0,0,0,.412-.621.861.861,0,0,0-.175-.727.917.917,0,0,0-.585-.328.913.913,0,0,0,.579-.32.878.878,0,0,0,.189-.717.894.894,0,0,0-1.08-.761.871.871,0,0,0,.478-.433.994.994,0,0,0,.006-.8.965.965,0,0,0-.589-.5.876.876,0,0,0-.643.059.914.914,0,0,0,.352-.586.878.878,0,0,0-.193-.708.893.893,0,0,0-.654-.362.919.919,0,0,0-.67.223.88.88,0,0,0,.231-.621.991.991,0,0,0-.353-.708.97.97,0,0,0-.751-.185.886.886,0,0,0-.563.36.92.92,0,0,0,.073-.714.868.868,0,0,0-.48-.546.894.894,0,0,0-1.248.452.884.884,0,0,0-.066-.674" transform="translate(-32.314 -8.602)" fill="#305713"/>
        <path id="Pfad_39520" data-name="Pfad 39520" d="M66.743,21.592a.875.875,0,0,0,.248.71.9.9,0,0,0,.606.264.882.882,0,0,0-.527.345.925.925,0,0,0,.352,1.372.877.877,0,0,0,.379.087.914.914,0,0,0,.287-.058.877.877,0,0,0-.44.505.956.956,0,0,0,.1.775.939.939,0,0,0,.64.426.851.851,0,0,0,.645-.153.907.907,0,0,0-.271.634.951.951,0,0,0,.923.934c.023,0,.047,0,.07,0a.915.915,0,0,0,.617-.308.9.9,0,0,0-.107.646.955.955,0,0,0,.464.623,1,1,0,0,0,.46.114.917.917,0,0,0,.313-.054A.882.882,0,0,0,71.993,28a.917.917,0,0,0,.037.7.9.9,0,0,0,.566.477.885.885,0,0,0,.737-.07.925.925,0,0,0,.43-.555.891.891,0,0,0,.164.634.987.987,0,0,0,.683.388l.061,0a.972.972,0,0,0,.663-.258.9.9,0,0,0,.282-.611.932.932,0,0,0,.306.628.918.918,0,0,0,.615.236.877.877,0,0,0,.1,0,.951.951,0,0,0,.67-.367.9.9,0,0,0,.178-.652.911.911,0,0,0,1.135.677.887.887,0,0,0,.59-.448.922.922,0,0,0,.071-.716.9.9,0,0,0,.83.546.94.94,0,0,0,.912-.7.885.885,0,0,0-.079-.639.881.881,0,0,0,.557.315,1.058,1.058,0,0,0,.125.008.977.977,0,0,0,.628-.24.954.954,0,0,0,.3-.714.88.88,0,0,0-.252-.588.923.923,0,0,0,.493.152.982.982,0,0,0,.156-.012.964.964,0,0,0,.616-.453.914.914,0,0,0,.069-.765.879.879,0,0,0-.429-.482.766.766,0,0,0,.649-.1.881.881,0,0,0,.412-.621.86.86,0,0,0-.176-.726.915.915,0,0,0-.582-.328.92.92,0,0,0,.577-.32.881.881,0,0,0,.188-.717.893.893,0,0,0-1.08-.76.87.87,0,0,0,.479-.433.988.988,0,0,0,.006-.8.966.966,0,0,0-.588-.5.884.884,0,0,0-.643.058.913.913,0,0,0,.351-.585.878.878,0,0,0-.193-.708.894.894,0,0,0-.653-.362.911.911,0,0,0-.67.223.887.887,0,0,0,.231-.621.991.991,0,0,0-.353-.708.972.972,0,0,0-.75-.185.885.885,0,0,0-.563.36.924.924,0,0,0,.073-.715.864.864,0,0,0-.479-.546.893.893,0,0,0-1.248.45.887.887,0,0,0-.067-.674.945.945,0,0,0-.614-.467.9.9,0,0,0-.739.135.915.915,0,0,0-.372.565.89.89,0,0,0-.223-.61.933.933,0,0,0-1.413.008.891.891,0,0,0-.214.638.926.926,0,0,0-.386-.612.875.875,0,0,0-.715-.136.907.907,0,0,0-.716,1.125.889.889,0,0,0-.458-.5.954.954,0,0,0-.773,0,.931.931,0,0,0-.51.559.91.91,0,0,0,.042.668.917.917,0,0,0-.585-.373.873.873,0,0,0-.711.177.9.9,0,0,0-.185,1.291.84.84,0,0,0-.592-.212.993.993,0,0,0-.717.358.981.981,0,0,0-.174.763.869.869,0,0,0,.358.531.917.917,0,0,0-1.2,1.242.893.893,0,0,0,.488.435.917.917,0,0,0-.647.19.839.839,0,0,0-.33.648" transform="translate(-47.402 -10.28)" fill="#396617"/>
        <path id="Pfad_39521" data-name="Pfad 39521" d="M99.633,15.185a.946.946,0,0,0-.614-.467.9.9,0,0,0-.739.135.916.916,0,0,0-.372.565.889.889,0,0,0-.223-.61.964.964,0,0,0-.665-.314V29.082a.9.9,0,0,0,.1-.36.931.931,0,0,0,.306.628.916.916,0,0,0,.616.236c.031,0,.063,0,.095,0a.951.951,0,0,0,.67-.367.9.9,0,0,0,.178-.652.911.911,0,0,0,1.135.677.888.888,0,0,0,.59-.448.925.925,0,0,0,.071-.716.9.9,0,0,0,.5.484.914.914,0,0,0,.333.062.941.941,0,0,0,.912-.7.886.886,0,0,0-.079-.639A.882.882,0,0,0,103,27.6a.988.988,0,0,0,.124.008.976.976,0,0,0,.628-.24.952.952,0,0,0,.3-.714.876.876,0,0,0-.252-.588.924.924,0,0,0,.493.152.982.982,0,0,0,.156-.012.965.965,0,0,0,.616-.453.915.915,0,0,0,.069-.765.879.879,0,0,0-.429-.482.768.768,0,0,0,.649-.1.882.882,0,0,0,.412-.621.86.86,0,0,0-.176-.726.915.915,0,0,0-.582-.328.919.919,0,0,0,.577-.32.88.88,0,0,0,.189-.717.894.894,0,0,0-1.08-.76.87.87,0,0,0,.479-.433.989.989,0,0,0,.006-.8.966.966,0,0,0-.588-.5.884.884,0,0,0-.643.058.913.913,0,0,0,.351-.585.878.878,0,0,0-.193-.708.894.894,0,0,0-.653-.362.91.91,0,0,0-.67.223.884.884,0,0,0,.231-.621.991.991,0,0,0-.353-.708.973.973,0,0,0-.75-.185.886.886,0,0,0-.563.36.922.922,0,0,0,.073-.715.864.864,0,0,0-.479-.546.893.893,0,0,0-1.248.45.887.887,0,0,0-.067-.674" transform="translate(-68.911 -10.295)" fill="#305713"/>
        <path id="Pfad_39522" data-name="Pfad 39522" d="M.394,45.06a.878.878,0,0,0-.384.622.867.867,0,0,0,.207.7.9.9,0,0,0,.52.3A.922.922,0,0,0,.212,47,.9.9,0,0,0,.436,48.3a.92.92,0,0,0,.481.135.914.914,0,0,0,.149-.025.91.91,0,0,0-.4.489.828.828,0,0,0,.079.712.833.833,0,0,0,.588.428.852.852,0,0,0,.167.016.908.908,0,0,0,.456-.137.9.9,0,0,0-.214.591.855.855,0,0,0,.315.654.859.859,0,0,0,.57.215.876.876,0,0,0,.132-.009.905.905,0,0,0,.537-.288.91.91,0,0,0-.021.606.865.865,0,0,0,.483.536.864.864,0,0,0,.723.01.919.919,0,0,0,.456-.439.926.926,0,0,0,.129.625.845.845,0,0,0,.586.394.89.89,0,0,0,.189.02.872.872,0,0,0,.517-.17.925.925,0,0,0,.35-.534.9.9,0,0,0,.23.566.9.9,0,0,0,1.36-.01.9.9,0,0,0,.22-.561.926.926,0,0,0,.348.525.88.88,0,0,0,.7.15.869.869,0,0,0,.595-.411.921.921,0,0,0,.12-.617.924.924,0,0,0,.467.436.882.882,0,0,0,.338.068.819.819,0,0,0,.368-.087.851.851,0,0,0,.485-.535.917.917,0,0,0-.028-.62.926.926,0,0,0,.56.289.851.851,0,0,0,.108.007.817.817,0,0,0,.565-.219.844.844,0,0,0,.313-.655.916.916,0,0,0-.223-.6.912.912,0,0,0,.445.13.888.888,0,0,0,.182-.018.9.9,0,0,0,.651-1.143.914.914,0,0,0-.409-.488.894.894,0,0,0,.132.021.913.913,0,0,0,.481-.136.9.9,0,0,0,.221-1.3A.929.929,0,0,0,14.4,46.6a.928.928,0,0,0,.531-.315.833.833,0,0,0,.183-.686.864.864,0,0,0-.384-.618.908.908,0,0,0-.644-.135.892.892,0,0,0,.461-.424A.9.9,0,0,0,14,43.177a.883.883,0,0,0-.591.025.892.892,0,0,0,.138-1.237.888.888,0,0,0-.644-.349.942.942,0,0,0-.619.2.923.923,0,0,0,.208-.644.844.844,0,0,0-.332-.624.854.854,0,0,0-.694-.195.92.92,0,0,0-.546.3.9.9,0,0,0-1.217-1.144.881.881,0,0,0-.419.455.9.9,0,0,0-.129-.624.89.89,0,0,0-.625-.395.874.874,0,0,0-.7.2.9.9,0,0,0-.3.525.93.93,0,0,0-.32-.535.833.833,0,0,0-.685-.179.869.869,0,0,0-.618.39.906.906,0,0,0-.128.637.877.877,0,0,0-.414-.444.944.944,0,0,0-.774-.006.93.93,0,0,0-.48.579.879.879,0,0,0,.038.579.915.915,0,0,0-.539-.293.876.876,0,0,0-.692.194.852.852,0,0,0-.335.636.925.925,0,0,0,.187.608.944.944,0,0,0-.609-.16.859.859,0,0,0-.622.355.877.877,0,0,0-.169.709.913.913,0,0,0,.354.553.888.888,0,0,0-.62-.047.892.892,0,0,0-.536,1.268.879.879,0,0,0,.458.406.9.9,0,0,0-.633.137" transform="translate(0 -27.656)" fill="#3c6b18"/>
        <path id="Pfad_39523" data-name="Pfad 39523" d="M33.964,28.478a.877.877,0,0,0-.384.622.867.867,0,0,0,.206.7.9.9,0,0,0,.52.295.925.925,0,0,0-.525.324.9.9,0,0,0,.225,1.292.923.923,0,0,0,.482.135.911.911,0,0,0,.149-.025.91.91,0,0,0-.4.489.88.88,0,0,0,.835,1.156.907.907,0,0,0,.456-.137.9.9,0,0,0-.214.591.9.9,0,0,0,.885.869.87.87,0,0,0,.131-.009.9.9,0,0,0,.537-.288.911.911,0,0,0-.021.607.865.865,0,0,0,.484.536.861.861,0,0,0,.723.01.919.919,0,0,0,.456-.439.926.926,0,0,0,.129.625.845.845,0,0,0,.585.394.893.893,0,0,0,.189.02.874.874,0,0,0,.517-.17.924.924,0,0,0,.35-.535.9.9,0,0,0,.23.566.9.9,0,0,0,1.36-.01.9.9,0,0,0,.22-.561.925.925,0,0,0,.348.525.887.887,0,0,0,.519.169.9.9,0,0,0,.186-.019.869.869,0,0,0,.595-.411.92.92,0,0,0,.12-.616.927.927,0,0,0,.467.436.889.889,0,0,0,.338.068.814.814,0,0,0,.368-.087.852.852,0,0,0,.485-.535.919.919,0,0,0-.028-.62.925.925,0,0,0,.56.289.851.851,0,0,0,.108.007.819.819,0,0,0,.565-.219.844.844,0,0,0,.314-.655.916.916,0,0,0-.223-.6.91.91,0,0,0,.446.13.89.89,0,0,0,.182-.018.9.9,0,0,0,.651-1.143.911.911,0,0,0-.409-.488.93.93,0,0,0,.131.021.912.912,0,0,0,.481-.136.9.9,0,0,0,.222-1.3.928.928,0,0,0-.536-.322.931.931,0,0,0,.531-.315.832.832,0,0,0,.183-.686A.862.862,0,0,0,48.3,28.4a.908.908,0,0,0-.644-.135.893.893,0,0,0,.461-.424.9.9,0,0,0-.547-1.248.883.883,0,0,0-.591.025.891.891,0,0,0,.138-1.237.888.888,0,0,0-.644-.349.942.942,0,0,0-.619.2.923.923,0,0,0,.208-.644.844.844,0,0,0-.332-.624.855.855,0,0,0-.694-.195.92.92,0,0,0-.545.3.9.9,0,0,0-1.218-1.144.881.881,0,0,0-.418.455.88.88,0,0,0-.754-1.019.875.875,0,0,0-.7.2.907.907,0,0,0-.3.524.932.932,0,0,0-.32-.535.833.833,0,0,0-.685-.179.868.868,0,0,0-.617.39.905.905,0,0,0-.128.637.874.874,0,0,0-.414-.444.943.943,0,0,0-.774-.007.931.931,0,0,0-.48.579.881.881,0,0,0,.038.579.915.915,0,0,0-.539-.294.876.876,0,0,0-.692.194.852.852,0,0,0-.335.636.923.923,0,0,0,.187.608.943.943,0,0,0-.609-.16.859.859,0,0,0-.622.355.876.876,0,0,0-.169.709.911.911,0,0,0,.354.553.888.888,0,0,0-.62-.047.892.892,0,0,0-.536,1.268.88.88,0,0,0,.459.406.9.9,0,0,0-.634.137" transform="translate(-23.844 -15.878)" fill="#41751a"/>
        <path id="Pfad_39524" data-name="Pfad 39524" d="M61.276,22.76a.89.89,0,0,0-.625-.395.875.875,0,0,0-.7.2.889.889,0,0,0-.265.428V36.408c.018,0,.036.006.054.006a.936.936,0,0,0,.674-.314.9.9,0,0,0,.22-.561.925.925,0,0,0,.348.525.887.887,0,0,0,.519.169.919.919,0,0,0,.186-.019.87.87,0,0,0,.595-.411.92.92,0,0,0,.12-.616.925.925,0,0,0,.467.436.883.883,0,0,0,.338.068.817.817,0,0,0,.368-.087.852.852,0,0,0,.485-.535.918.918,0,0,0-.028-.62.926.926,0,0,0,.561.289.906.906,0,0,0,.108.006.818.818,0,0,0,.565-.219.843.843,0,0,0,.314-.655.915.915,0,0,0-.223-.6.914.914,0,0,0,.446.13.89.89,0,0,0,.182-.018.9.9,0,0,0,.651-1.143.913.913,0,0,0-.409-.488.93.93,0,0,0,.131.021.912.912,0,0,0,.481-.136.9.9,0,0,0,.222-1.3.928.928,0,0,0-.536-.323.93.93,0,0,0,.531-.315.832.832,0,0,0,.183-.686.862.862,0,0,0-.384-.617.91.91,0,0,0-.644-.135.893.893,0,0,0,.461-.424.9.9,0,0,0-.547-1.248.881.881,0,0,0-.591.025.891.891,0,0,0,.138-1.237.887.887,0,0,0-.644-.349.942.942,0,0,0-.619.2.923.923,0,0,0,.208-.645.844.844,0,0,0-.332-.623.853.853,0,0,0-.695-.195.917.917,0,0,0-.545.3.9.9,0,0,0-1.218-1.144.88.88,0,0,0-.418.455.9.9,0,0,0-.129-.624" transform="translate(-42.391 -15.878)" fill="#305713"/>
        <path id="Pfad_39525" data-name="Pfad 39525" d="M.394,45.079A.878.878,0,0,0,.01,45.7a.867.867,0,0,0,.207.7.9.9,0,0,0,.52.3.923.923,0,0,0-.525.324.9.9,0,0,0,.225,1.292.92.92,0,0,0,.481.135.914.914,0,0,0,.149-.025.91.91,0,0,0-.4.489.828.828,0,0,0,.079.712.833.833,0,0,0,.588.428.852.852,0,0,0,.167.016.908.908,0,0,0,.456-.137.9.9,0,0,0-.214.591.855.855,0,0,0,.315.654.859.859,0,0,0,.57.215.876.876,0,0,0,.132-.009.905.905,0,0,0,.537-.288.91.91,0,0,0-.021.606.865.865,0,0,0,.483.536.864.864,0,0,0,.723.01.919.919,0,0,0,.456-.439.926.926,0,0,0,.129.625.845.845,0,0,0,.586.394.89.89,0,0,0,.189.02.872.872,0,0,0,.517-.17.925.925,0,0,0,.35-.534.9.9,0,0,0,.23.566.921.921,0,0,0,.632.3V39.6a.816.816,0,0,0-.035.1.93.93,0,0,0-.32-.535.833.833,0,0,0-.685-.179.869.869,0,0,0-.618.39.906.906,0,0,0-.128.637.877.877,0,0,0-.414-.444.944.944,0,0,0-.774-.006.93.93,0,0,0-.48.579.879.879,0,0,0,.038.579.915.915,0,0,0-.539-.294.876.876,0,0,0-.692.194.852.852,0,0,0-.335.636.925.925,0,0,0,.187.608.944.944,0,0,0-.609-.16.859.859,0,0,0-.622.355.877.877,0,0,0-.169.709.913.913,0,0,0,.354.553.888.888,0,0,0-.62-.047.892.892,0,0,0-.536,1.268.879.879,0,0,0,.458.406.9.9,0,0,0-.633.137" transform="translate(0 -27.676)" fill="#41751a"/>
        <path id="Pfad_39526" data-name="Pfad 39526" d="M27.707,39.342a.889.889,0,0,0-.625-.394.874.874,0,0,0-.7.2.892.892,0,0,0-.265.428V52.99c.018,0,.035.006.054.006a.937.937,0,0,0,.675-.314.9.9,0,0,0,.22-.561.925.925,0,0,0,.348.525.886.886,0,0,0,.519.169.9.9,0,0,0,.186-.019.87.87,0,0,0,.595-.411.92.92,0,0,0,.12-.616.924.924,0,0,0,.467.436.882.882,0,0,0,.338.068A.819.819,0,0,0,30,52.187a.851.851,0,0,0,.485-.535.916.916,0,0,0-.028-.62.927.927,0,0,0,.56.289.851.851,0,0,0,.108.007.817.817,0,0,0,.565-.219.843.843,0,0,0,.313-.655.916.916,0,0,0-.223-.6.909.909,0,0,0,.445.13.888.888,0,0,0,.182-.018.9.9,0,0,0,.651-1.143.915.915,0,0,0-.409-.488.9.9,0,0,0,.132.021.91.91,0,0,0,.481-.136.9.9,0,0,0,.221-1.3.927.927,0,0,0-.536-.322.93.93,0,0,0,.531-.315.834.834,0,0,0,.183-.686.863.863,0,0,0-.384-.617.91.91,0,0,0-.644-.135.892.892,0,0,0,.461-.424.9.9,0,0,0-.547-1.248.881.881,0,0,0-.591.025.892.892,0,0,0,.138-1.237.888.888,0,0,0-.644-.349.945.945,0,0,0-.619.2.923.923,0,0,0,.208-.644.845.845,0,0,0-.332-.624.855.855,0,0,0-.694-.195.919.919,0,0,0-.546.3.9.9,0,0,0-1.217-1.145.88.88,0,0,0-.419.456.9.9,0,0,0-.129-.625" transform="translate(-18.549 -27.657)" fill="#305713"/>
        <path id="Pfad_39527" data-name="Pfad 39527" d="M68.5,37.725a.961.961,0,0,0-.412.628.886.886,0,0,0,.186.727.9.9,0,0,0,.555.316.9.9,0,0,0-.556.317.884.884,0,0,0-.185.726.961.961,0,0,0,.417.631.888.888,0,0,0,.46.125.975.975,0,0,0,.206-.03.872.872,0,0,0-.467.46.945.945,0,0,0,.036.772.913.913,0,0,0,.59.47.924.924,0,0,0,.222.027.891.891,0,0,0,.434-.121.913.913,0,0,0-.307.6.875.875,0,0,0,.246.7.924.924,0,0,0,.679.3h.014a.9.9,0,0,0,.608-.255.912.912,0,0,0-.161.647.9.9,0,0,0,.392.625.861.861,0,0,0,.525.177.924.924,0,0,0,.781-.43.892.892,0,0,0-.049.666.962.962,0,0,0,.52.571.926.926,0,0,0,.751,0,.921.921,0,0,0,.48-.513.905.905,0,0,0,.068.681.974.974,0,0,0,.614.479,1.029,1.029,0,0,0,.2.021.955.955,0,0,0,.546-.169.908.908,0,0,0,.37-.568.91.91,0,0,0,.183.656.97.97,0,0,0,.68.371h.042a.967.967,0,0,0,.673-.266.907.907,0,0,0,.278-.628.907.907,0,0,0,.278.628.97.97,0,0,0,.682.265h.048a.961.961,0,0,0,.665-.369.912.912,0,0,0,.183-.656.907.907,0,0,0,.369.568.952.952,0,0,0,.545.167,1.065,1.065,0,0,0,.22-.023.968.968,0,0,0,.6-.475.905.905,0,0,0,.067-.681.916.916,0,0,0,.858.595.934.934,0,0,0,.892-.648.89.89,0,0,0-.049-.666.933.933,0,0,0,.592.411.945.945,0,0,0,.19.019.845.845,0,0,0,.513-.17.9.9,0,0,0,.241-1.279.9.9,0,0,0,.608.255h.014a.92.92,0,0,0,.675-.3.879.879,0,0,0,.249-.7.913.913,0,0,0-.307-.6.891.891,0,0,0,.434.121.91.91,0,0,0,.815-.5.943.943,0,0,0,.033-.768.873.873,0,0,0-.467-.46.967.967,0,0,0,.205.03.907.907,0,0,0,.467-.128.961.961,0,0,0,.412-.629.883.883,0,0,0-.186-.726.9.9,0,0,0-.555-.317.9.9,0,0,0,.555-.316.884.884,0,0,0,.185-.727.962.962,0,0,0-.416-.631.911.911,0,0,0-.66-.1.869.869,0,0,0,.459-.456.945.945,0,0,0-.035-.772.913.913,0,0,0-.59-.47.9.9,0,0,0-.643.082.912.912,0,0,0,.294-.594.875.875,0,0,0-.246-.7.837.837,0,0,0-.693-.3.9.9,0,0,0-.608.256.913.913,0,0,0,.161-.647.9.9,0,0,0-.392-.625.876.876,0,0,0-.714-.158.932.932,0,0,0-.591.41.891.891,0,0,0,.049-.666.963.963,0,0,0-.519-.571.92.92,0,0,0-1.231.518.905.905,0,0,0-.067-.681.926.926,0,0,0-1.363-.33.906.906,0,0,0-.369.568.912.912,0,0,0-.183-.657.969.969,0,0,0-.68-.37,1.034,1.034,0,0,0-.715.265.906.906,0,0,0-.278.628.906.906,0,0,0-.278-.628,1,1,0,0,0-.73-.264.961.961,0,0,0-.665.369.911.911,0,0,0-.183.657.907.907,0,0,0-.37-.568.926.926,0,0,0-1.363.33.905.905,0,0,0-.068.681.921.921,0,0,0-.48-.513.935.935,0,0,0-.759,0,.961.961,0,0,0-.512.568.893.893,0,0,0,.049.666.932.932,0,0,0-.591-.41.866.866,0,0,0-.7.151.9.9,0,0,0-.241,1.279.9.9,0,0,0-.608-.256.848.848,0,0,0-.689.3.878.878,0,0,0-.25.7.912.912,0,0,0,.295.594.9.9,0,0,0-.644-.083.915.915,0,0,0-.592.475.942.942,0,0,0-.033.768.869.869,0,0,0,.459.455.917.917,0,0,0-.664.1" transform="translate(-48.351 -22.348)" fill="#396617"/>
        <path id="Pfad_39528" data-name="Pfad 39528" d="M99.949,31.835a.971.971,0,0,0-.68-.37,1.031,1.031,0,0,0-.715.265.906.906,0,0,0-.278.628v9.723H96.557l-.108,4.569a.893.893,0,0,0,.154.308.971.971,0,0,0,.68.371h.042A.966.966,0,0,0,98,47.064a.91.91,0,0,0,.278-.628v0a.907.907,0,0,0,.278.628.969.969,0,0,0,.682.265h.048a.962.962,0,0,0,.666-.369.911.911,0,0,0,.183-.656.9.9,0,0,0,.369.568.95.95,0,0,0,.545.168,1.075,1.075,0,0,0,.22-.023.964.964,0,0,0,.6-.475.9.9,0,0,0,.068-.681.917.917,0,0,0,.858.6.935.935,0,0,0,.892-.648.889.889,0,0,0-.049-.666.932.932,0,0,0,.592.411.947.947,0,0,0,.19.02.846.846,0,0,0,.513-.17.9.9,0,0,0,.242-1.279.9.9,0,0,0,.607.256h.014a.919.919,0,0,0,.675-.3.877.877,0,0,0,.249-.7.913.913,0,0,0-.307-.6.9.9,0,0,0,.434.121.912.912,0,0,0,.814-.5.942.942,0,0,0,.033-.768.871.871,0,0,0-.467-.46.988.988,0,0,0,.205.03.907.907,0,0,0,.468-.128.964.964,0,0,0,.412-.628.885.885,0,0,0-.186-.726.9.9,0,0,0-.555-.317.9.9,0,0,0,.555-.316.886.886,0,0,0,.185-.727.963.963,0,0,0-.417-.631.91.91,0,0,0-.659-.1.869.869,0,0,0,.459-.455.947.947,0,0,0-.035-.772.915.915,0,0,0-.59-.47.9.9,0,0,0-.643.082.912.912,0,0,0,.294-.593.872.872,0,0,0-.246-.7.836.836,0,0,0-.693-.3.9.9,0,0,0-.607.255.911.911,0,0,0,.16-.647.9.9,0,0,0-.392-.625.875.875,0,0,0-.714-.158.931.931,0,0,0-.592.411.89.89,0,0,0,.049-.666.962.962,0,0,0-.52-.571.921.921,0,0,0-1.231.519.9.9,0,0,0-.068-.681.926.926,0,0,0-1.363-.33.905.905,0,0,0-.369.568.912.912,0,0,0-.183-.656" transform="translate(-68.504 -22.348)" fill="#305713"/>
        <path id="Pfad_39529" data-name="Pfad 39529" d="M32.319,47.957a.91.91,0,0,0-.373.659.945.945,0,0,0,.254.73.866.866,0,0,0,.574.253.906.906,0,0,0-.557.346.968.968,0,0,0-.132.752.9.9,0,0,0,.483.6.887.887,0,0,0,.382.087.873.873,0,0,0,.223-.033.9.9,0,0,0-.342.524.856.856,0,0,0,.163.718.841.841,0,0,0,.639.374c.025,0,.05,0,.076,0a.906.906,0,0,0,.585-.228.9.9,0,0,0-.173.66.877.877,0,0,0,.395.625.918.918,0,0,0,.525.168.891.891,0,0,0,.215-.026.909.909,0,0,0,.543-.393.889.889,0,0,0-.012.642.956.956,0,0,0,.542.549.943.943,0,0,0,.343.066.924.924,0,0,0,.868-.61.91.91,0,0,0,.1.672.951.951,0,0,0,.62.444,1.049,1.049,0,0,0,.189.017.955.955,0,0,0,.555-.176.909.909,0,0,0,.37-.59.939.939,0,0,0,.2.691.929.929,0,0,0,.658.349c.025,0,.051,0,.077,0a.959.959,0,0,0,.642-.241.913.913,0,0,0,.306-.638.939.939,0,0,0,.943.956h.015a.962.962,0,0,0,.69-.308.915.915,0,0,0,.243-.662.939.939,0,0,0,.333.642.929.929,0,0,0,.6.219,1.02,1.02,0,0,0,.114-.007.961.961,0,0,0,.657-.378.91.91,0,0,0,.169-.675.939.939,0,0,0,.416.6.912.912,0,0,0,.488.144.869.869,0,0,0,.234-.032.939.939,0,0,0,.6-.453.911.911,0,0,0,.081-.692.9.9,0,0,0,.853.6.9.9,0,0,0,.368-.078.877.877,0,0,0,.516-.528.92.92,0,0,0-.023-.681.9.9,0,0,0,.547.361.932.932,0,0,0,.184.019.926.926,0,0,0,.928-.874.871.871,0,0,0-.2-.6.862.862,0,0,0,.51.183c.03,0,.06,0,.089,0a.962.962,0,0,0,.681-.419.947.947,0,0,0,.092-.779.856.856,0,0,0-.42-.475.954.954,0,0,0,.224.038.858.858,0,0,0,.866-.736.874.874,0,0,0-.175-.729.908.908,0,0,0-.567-.325.9.9,0,0,0,.754-1.04.935.935,0,0,0-.421-.642.875.875,0,0,0-.633-.116.909.909,0,0,0,.479-.459.89.89,0,0,0,0-.738.873.873,0,0,0-.525-.516.923.923,0,0,0-.715.035.886.886,0,0,0,.388-.539A.98.98,0,0,0,50.5,44.5a.926.926,0,0,0-.645-.387.94.94,0,0,0-.673.183.9.9,0,0,0,.283-.611.927.927,0,0,0-1.015-.978.9.9,0,0,0-.6.305.923.923,0,0,0,.163-.675.942.942,0,0,0-.414-.642.966.966,0,0,0-.759-.117.893.893,0,0,0-.533.406.925.925,0,0,0,.028-.7.911.911,0,0,0-.524-.539.974.974,0,0,0-.769.027.885.885,0,0,0-.442.5.925.925,0,0,0-.116-.7.892.892,0,0,0-.616-.414.976.976,0,0,0-.749.181.879.879,0,0,0-.329.576.927.927,0,0,0-.255-.652.88.88,0,0,0-.694-.28.972.972,0,0,0-.694.337.88.88,0,0,0-.205.61.917.917,0,0,0-1.118-.693.974.974,0,0,0-.607.473.886.886,0,0,0-.065.664.924.924,0,0,0-.5-.5.908.908,0,0,0-.746.02.973.973,0,0,0-.5.581.886.886,0,0,0,.055.655.931.931,0,0,0-.586-.384.892.892,0,0,0-.715.165.958.958,0,0,0-.389.66.892.892,0,0,0,.177.636.931.931,0,0,0-.65-.271h0a.875.875,0,0,0-.66.289.907.907,0,0,0,.021,1.314.911.911,0,0,0-.673-.149.9.9,0,0,0-.61.408.888.888,0,0,0-.139.727.92.92,0,0,0,.4.56.881.881,0,0,0-.648-.021.966.966,0,0,0-.556.546.921.921,0,0,0,.039.754.908.908,0,0,0,.491.432.907.907,0,0,0-.641.162" transform="translate(-22.688 -28.394)" fill="#41751a"/>
        <path id="Pfad_39530" data-name="Pfad 39530" d="M49.355,59.725a.63.63,0,1,0-.63.63.63.63,0,0,0,.63-.63" transform="translate(-34.16 -41.973)" fill="#4d8c20"/>
        <path id="Pfad_39531" data-name="Pfad 39531" d="M54.721,56.873a.511.511,0,1,0-.511.511.511.511,0,0,0,.511-.511" transform="translate(-38.14 -40.032)" fill="#4d8c20"/>
        <path id="Pfad_39532" data-name="Pfad 39532" d="M50.485,53.867a.511.511,0,1,0-.511.511.511.511,0,0,0,.511-.511" transform="translate(-35.132 -37.897)" fill="#4d8c20"/>
        <path id="Pfad_39533" data-name="Pfad 39533" d="M89.48,43.133a.354.354,0,1,0-.354.354.354.354,0,0,0,.354-.354" transform="translate(-63.052 -30.384)" fill="#41751a"/>
        <path id="Pfad_39534" data-name="Pfad 39534" d="M96.672,40.066a.413.413,0,1,0-.413.413.412.412,0,0,0,.413-.413" transform="translate(-68.077 -28.164)" fill="#41751a"/>
        <path id="Pfad_39535" data-name="Pfad 39535" d="M91.161,37.552a.511.511,0,1,0-.511.511.511.511,0,0,0,.511-.511" transform="translate(-64.022 -26.309)" fill="#41751a"/>
        <path id="Pfad_39536" data-name="Pfad 39536" d="M82.678,25.72a.354.354,0,1,0-.354.354.354.354,0,0,0,.354-.354" transform="translate(-58.22 -18.017)" fill="#41751a"/>
        <path id="Pfad_39537" data-name="Pfad 39537" d="M91.435,21.5a.413.413,0,1,0-.413.413.413.413,0,0,0,.413-.413" transform="translate(-64.357 -14.974)" fill="#41751a"/>
        <path id="Pfad_39538" data-name="Pfad 39538" d="M85.442,21.118a.511.511,0,1,0-.511.511.511.511,0,0,0,.511-.511" transform="translate(-59.96 -14.636)" fill="#41751a"/>
        <path id="Pfad_39539" data-name="Pfad 39539" d="M11.252,54.692a.63.63,0,1,0-.63.63.63.63,0,0,0,.63-.63" transform="translate(-7.097 -38.398)" fill="#4d8c20"/>
        <path id="Pfad_39540" data-name="Pfad 39540" d="M16.616,51.84a.511.511,0,1,0-.511.511.511.511,0,0,0,.511-.511" transform="translate(-11.076 -36.457)" fill="#4d8c20"/>
        <path id="Pfad_39541" data-name="Pfad 39541" d="M12.381,48.834a.511.511,0,1,0-.511.511.511.511,0,0,0,.511-.511" transform="translate(-8.068 -34.322)" fill="#4d8c20"/>
        <path id="Pfad_39542" data-name="Pfad 39542" d="M42.623,34.515a.34.34,0,1,0-.34.34.34.34,0,0,0,.34-.34" transform="translate(-29.791 -24.273)" fill="#4d8c20"/>
        <path id="Pfad_39543" data-name="Pfad 39543" d="M46.352,32.3a.431.431,0,1,0-.431.431.431.431,0,0,0,.431-.431" transform="translate(-32.311 -22.638)" fill="#4d8c20"/>
        <path id="Pfad_39544" data-name="Pfad 39544" d="M44.441,37.62a.344.344,0,1,0-.344.344.344.344,0,0,0,.344-.344" transform="translate(-31.076 -26.476)" fill="#4d8c20"/>
        <path id="Pfad_39545" data-name="Pfad 39545" d="M57.4,9.839a.34.34,0,1,0-.34.34.34.34,0,0,0,.34-.34" transform="translate(-40.283 -6.747)" fill="#4d8c20"/>
        <path id="Pfad_39546" data-name="Pfad 39546" d="M59.82,5.5a.431.431,0,1,0-.431.431A.43.43,0,0,0,59.82,5.5" transform="translate(-41.876 -3.603)" fill="#4d8c20"/>
        <path id="Pfad_39547" data-name="Pfad 39547" d="M53.716,7.516a.344.344,0,1,0-.344.344.344.344,0,0,0,.344-.344" transform="translate(-37.664 -5.094)" fill="#4d8c20"/>
        <path id="Pfad_39548" data-name="Pfad 39548" d="M33.724,23.851a.34.34,0,1,0-.34.34.34.34,0,0,0,.34-.34" transform="translate(-23.471 -16.699)" fill="#4d8c20"/>
        <path id="Pfad_39549" data-name="Pfad 39549" d="M36.149,19.516a.431.431,0,1,0-.431.431.43.43,0,0,0,.431-.431" transform="translate(-25.064 -13.555)" fill="#4d8c20"/>
        <path id="Pfad_39550" data-name="Pfad 39550" d="M29.7,21.872a.344.344,0,1,0-.344-.344.344.344,0,0,0,.344.344" transform="translate(-20.851 -15.046)" fill="#4d8c20"/>
        <g id="Gruppe_40555" data-name="Gruppe 40555" transform="translate(19.91 0.014)" style="mix-blend-mode: multiply;isolation: isolate">
          <g id="Gruppe_40554" data-name="Gruppe 40554">
            <g id="Gruppe_40553" data-name="Gruppe 40553" clip-path="url(#clip-path-3)">
              <path id="Pfad_39551" data-name="Pfad 39551" d="M71.29.645a.94.94,0,0,0-1.4-.237.9.9,0,0,0-.333.609.9.9,0,0,0-.228-.656.987.987,0,0,0-.61-.311V27.461a.952.952,0,0,0,.309-.222.912.912,0,0,0,.243-.662.94.94,0,0,0,.333.642.929.929,0,0,0,.6.219,1.019,1.019,0,0,0,.114-.007.96.96,0,0,0,.657-.378.909.909,0,0,0,.169-.675.942.942,0,0,0,.417.6.91.91,0,0,0,.487.144.871.871,0,0,0,.234-.032.94.94,0,0,0,.6-.453.909.909,0,0,0,.08-.692.9.9,0,0,0,.853.6.9.9,0,0,0,.368-.078.876.876,0,0,0,.516-.528.92.92,0,0,0-.023-.681.9.9,0,0,0,.547.361.932.932,0,0,0,.184.019.926.926,0,0,0,.928-.874.826.826,0,0,0-.026-.187c.013-.008.028-.011.041-.02a.869.869,0,0,0,.217-.225.653.653,0,0,0,.075.014c.03,0,.06,0,.09,0l.017,0a.914.914,0,0,0,.154.308.971.971,0,0,0,.68.371h.042a.967.967,0,0,0,.673-.266.907.907,0,0,0,.278-.628.908.908,0,0,0,.278.628.97.97,0,0,0,.682.265h.048a.962.962,0,0,0,.665-.369.911.911,0,0,0,.183-.656.906.906,0,0,0,.369.568.952.952,0,0,0,.545.167,1.085,1.085,0,0,0,.22-.023.968.968,0,0,0,.6-.475.9.9,0,0,0,.067-.681.916.916,0,0,0,.858.595.934.934,0,0,0,.892-.648.89.89,0,0,0-.049-.666.933.933,0,0,0,.592.411.946.946,0,0,0,.19.019.847.847,0,0,0,.513-.17.9.9,0,0,0,.241-1.279.9.9,0,0,0,.608.256h.014a.919.919,0,0,0,.675-.3.879.879,0,0,0,.249-.7.913.913,0,0,0-.307-.6.894.894,0,0,0,.434.121.91.91,0,0,0,.815-.5.942.942,0,0,0,.033-.767.872.872,0,0,0-.467-.461.966.966,0,0,0,.205.03.907.907,0,0,0,.467-.128.961.961,0,0,0,.412-.629.883.883,0,0,0-.186-.726.9.9,0,0,0-.555-.317.9.9,0,0,0,.555-.316.884.884,0,0,0,.185-.727.962.962,0,0,0-.416-.631.911.911,0,0,0-.66-.1.869.869,0,0,0,.459-.456.946.946,0,0,0-.035-.772.913.913,0,0,0-.59-.47.9.9,0,0,0-.643.082.912.912,0,0,0,.294-.593.876.876,0,0,0-.246-.7.837.837,0,0,0-.693-.3.9.9,0,0,0-.608.256.919.919,0,0,0,.149-.446.859.859,0,0,0,.055-.484.893.893,0,0,0-1.079-.76.871.871,0,0,0,.478-.433.99.99,0,0,0,.006-.8.967.967,0,0,0-.588-.5A.883.883,0,0,0,83.851,9a.915.915,0,0,0,.351-.585A.878.878,0,0,0,84.01,7.7a.893.893,0,0,0-.653-.362.912.912,0,0,0-.67.223.885.885,0,0,0,.231-.621.988.988,0,0,0-.353-.708.971.971,0,0,0-.75-.185.886.886,0,0,0-.563.36.923.923,0,0,0,.073-.715.865.865,0,0,0-.479-.546A.893.893,0,0,0,79.6,5.6a.887.887,0,0,0-.067-.674.945.945,0,0,0-.614-.467.9.9,0,0,0-.739.135.916.916,0,0,0-.372.565.89.89,0,0,0-.107-.416,1.045,1.045,0,0,0-.167-.48.988.988,0,0,0-.687-.38.884.884,0,0,0-.635.206.915.915,0,0,0,.256-.668.885.885,0,0,0-.324-.662.912.912,0,0,0-1.332.1.892.892,0,0,0,.12-.663.961.961,0,0,0-.457-.624.91.91,0,0,0-.745-.091.927.927,0,0,0-.553.464.9.9,0,0,0,.005-.684A1,1,0,0,0,72.61.718a.962.962,0,0,0-.765.065.9.9,0,0,0-.44.548A.9.9,0,0,0,71.29.645" transform="translate(-68.717 -0.05)" fill="#c5deb1"/>
            </g>
          </g>
        </g>
      </g>
    </g>
  </g>
</svg>
