<svg id="Gruppe_40156" data-name="Gruppe 40156" xmlns="http://www.w3.org/2000/svg" width="56.707" height="33.572" viewBox="0 0 56.707 33.572">
  <g id="Gruppe_15240" data-name="Gruppe 15240" transform="translate(46.681 6.159)">
    <path id="Pfad_16450" data-name="Pfad 16450" d="M-.925-1.645c-.036-.129-.083-.258-.12-.393C-1.2-2.6-.986-3.468-.454-2.6-.718-3.032-.4-3.911-.287-4.35c.179-.689.7-1,1.122-1.533A2.282,2.282,0,0,1,.8-4.239c.476-.182.689-.281.458.313C1.135-3.614.9-3.267.995-2.916a2.153,2.153,0,0,0,1.564-.672C2.9-3.939,3.08-4.5,3.61-4.6a2.1,2.1,0,0,0-.05.4c.374-.1.465-.481.737-.71.135-.113.731-.414.879-.205s-.348.362-.357.554c-.025.424.823-.008,1.041-.022a.843.843,0,0,1,.517.074c.058.032.4.461.332.488a7.206,7.206,0,0,0-1.69.723c.213.339.625.539.92.83-.544.138-1.07-.083-1.611.079a2.906,2.906,0,0,1,.7.413c-1.272.612-2.59-.06-3.572,1.357.81.269,2.472-1.328,2.941-.47-.088.039-.179.066-.273.1a1.383,1.383,0,0,1,1.145.223A1.589,1.589,0,0,1,3.96-.247c.1.1.122.273.263.382C3.929.588,3.4.312,3.017.142c.556.712-.329,1.24-.967,1.019S1.162.562.409.562c-1.3,0-2.439.919-3.718.884C-2.9,1.456-2.161.5-1.914.217-1.605-.133-1.035-.544-.9-1a1.146,1.146,0,0,0-.022-.65" transform="translate(3.309 5.883)" fill="#6a993b"/>
  </g>
  <g id="Gruppe_15241" data-name="Gruppe 15241" transform="translate(42.826 13.786)">
    <path id="Pfad_16451" data-name="Pfad 16451" d="M-.747-1.1c-.014-.094-.037-.187-.053-.285-.066-.408.16-1,.462-.349-.15-.321.145-.912.259-1.21C.1-3.41.49-3.585.833-3.924A1.609,1.609,0,0,1,.673-2.775c.349-.089.506-.141.3.257-.11.208-.3.433-.266.686a1.509,1.509,0,0,0,1.151-.344c.267-.218.441-.6.82-.623a1.415,1.415,0,0,0-.068.28c.269-.041.365-.3.575-.437.1-.069.546-.231.633-.072s-.274.223-.3.358c-.052.294.577.063.731.07a.592.592,0,0,1,.356.094c.037.027.243.357.193.37a5.039,5.039,0,0,0-1.243.368c.121.255.394.429.577.658C3.739-1.06,3.388-1.257,3-1.187a2.031,2.031,0,0,1,.459.346c-.942.326-1.81-.254-2.615.659.545.254,1.841-.729,2.1-.089-.066.021-.131.032-.2.049a.977.977,0,0,1,.784.249,1.112,1.112,0,0,1-.959.254c.062.079.063.2.153.29-.243.294-.592.058-.846-.094.332.546-.331.843-.761.637S.536.62.008.558C-.9.452-1.776,1-2.67.875-2.384.916-1.788.3-1.591.128c.244-.22.677-.462.808-.768A.81.81,0,0,0-.747-1.1" transform="translate(2.67 3.924)" fill="#6a993b"/>
  </g>
  <g id="Gruppe_15242" data-name="Gruppe 15242" transform="translate(41.97 20.145)">
    <path id="Pfad_16452" data-name="Pfad 16452" d="M-2.045-.743a.81.81,0,0,1,.287.236.7.7,0,0,1-.427.085C-1.9.035-.939-.111-.6.355a.926.926,0,0,0-.278.06c.231.148.616.215.736.529.135.358-1.121.03-1.182.028.134.3.591.661.138.943-.115.072-.617-.889-.788-.962-.512-.218-.058.407.043.553-.061.214-.354-.045-.455-.115A1.3,1.3,0,0,1-2.765.924C-2.877.751-3.2.365-3.4.667s.437.651.594.834c.3.352.026.4-.325.235-.011-.005.061.336.061.347a.567.567,0,0,1-.158.372c-.107.1-.278.106-.41.17a3.262,3.262,0,0,0-.7-1A1.551,1.551,0,0,1-4.878.754c.013.114-.332.385-.439.35-.359-.112.009-.67.062-.854.145-.5-.432-.831-.775-1.048a4.2,4.2,0,0,0-1.284-.615c.024,0,1.016-.333,1.3-.359s.59.03.808-.2c.192-.2.271-.486.459-.689a.89.89,0,0,1,.372.455c.053.193-.048.455.055.632.231.393.95-.276,1.185-.4.433.459-.437.555-.277.894.086.179.684.153.853.184a1.788,1.788,0,0,1,.515.155" transform="translate(7.315 2.657)" fill="#6a993b"/>
  </g>
  <g id="Gruppe_15243" data-name="Gruppe 15243" transform="translate(46.92 17.284)">
    <path id="Pfad_16453" data-name="Pfad 16453" d="M-2.439-1.912c.18-.679-1.178-.822-1.245-.953.944-.943,2.411-.067,3.473-.715a1.449,1.449,0,0,0,.5-.561c.123-.338-.176-.351-.5-.395A7.545,7.545,0,0,0-1.739-4.5c.187-.11.71-.323.661-.571-.638.145-1.15.105-1.805.215.457-.335.772-.253,1-.683-.527-.625-1.7.467-2.266.489,1.026-.679,1.6-1.663,1.2-1.773s-1.06.328-1.388.535A8.306,8.306,0,0,1-7.65-5.14c-.225.035-1.305.286-1.03.4,2,.8,3.294,3.464,6.241,2.831" transform="translate(8.725 6.839)" fill="#6a993b"/>
  </g>
  <g id="Gruppe_15244" data-name="Gruppe 15244" transform="translate(41.262 9.566)">
    <path id="Pfad_16454" data-name="Pfad 16454" d="M-1.2-1.758a5.971,5.971,0,0,1,1.272.429c.375.216.694.815,1.16.722a.973.973,0,0,0-.255-.51c.416-.372,1.783.226,2.034-.541.193-.591-1.249-.742-1.628-.614A.6.6,0,0,0,1.6-2.805a.957.957,0,0,1-.767.073A1.71,1.71,0,0,1,2.2-3.8c.316-.032,1.9.237,1.669-.5-.226.081-.482.156-.636-.076.334-.48,1.088-.748.574-1.407a5.817,5.817,0,0,1-1.233.8,4.42,4.42,0,0,1-.142-.979c-.334.3-.42.746-.77,1.033a2.227,2.227,0,0,0,.038-.65C.729-5.017.589-3.844-.789-3.821c.182-.658,1.981-1.05,1.621-1.744-.066.042-.124.091-.188.138a1.112,1.112,0,0,0,.362-.859,1.271,1.271,0,0,0-.925.64c-.022-.111-.126-.2-.136-.344-.432-.008-.486.468-.542.8-.225-.687-.969-.335-1.107.187s0,.856-.334,1.357c-.577.861-1.7,1.21-2.24,2.075A4.174,4.174,0,0,1-1.2-1.758" transform="translate(4.279 6.286)" fill="#6a993b"/>
  </g>
  <g id="Gruppe_15245" data-name="Gruppe 15245" transform="translate(38.056 0)">
    <path id="Pfad_16455" data-name="Pfad 16455" d="M-2.115-.947c-.692.763-.239,1.52-.638,2.335-.188-.726.122-1.87-.478-2.431A.925.925,0,0,0-3.405-.5c-.555-.436-.217-1.673-.776-2.181a1.2,1.2,0,0,1-.119.354c-.159-.324-.189-.838-.581-1.04-.447-.232-.21,1.459-.216,1.539-.37-.22-.772-.873-1.212-.322.179.631,1.208.935,1.284,1.566.073.6-.488.2-.752.394.19.249.916.67.978.934.124.527-.555.218-.784.058C-5.85.616-7.53-.907-7.565.172c-.01.323.367.613.579.8.378.335.764.663,1.159.977a2.629,2.629,0,0,1,.558.51c.093.131.106.253-.086.288-.116.022-.306-.126-.39-.045.108.119,1.016.746,1.307,1.053.569.6,1.249,1.058,1.445,1.865.02.081.175.689.107.73.859-.521,1.4-6.434.77-7.3" transform="translate(7.565 3.387)" fill="#6a993b"/>
  </g>
  <g id="Gruppe_15246" data-name="Gruppe 15246" transform="translate(44.799 0.546)">
    <path id="Pfad_16456" data-name="Pfad 16456" d="M-1.293-2.682a4.525,4.525,0,0,0,.587-.3A4.42,4.42,0,0,0,.635-4.021c.1-.129.289-.368.138-.519a.735.735,0,0,0-.356-.125A2.634,2.634,0,0,0-.1-4.76c.065-.089,1.29-.242,1.5-.764-.035-.4-.461-.372-.61-.392C.677-5.93.48-5.927.4-6c.072-.171,1.082-.519,1.343-1.186C1.428-7.258.3-6.515.112-6.532c-.109-.01,2.9-1.9,1.958-3.062A3.424,3.424,0,0,0-.475-7.836c-.02-.112.3-1.429.271-1.545-.652.341-.633,1.305-.949,1.938-.1-.344.212-.963-.008-1.294A1.57,1.57,0,0,0-2-7.317c-.1-.483.073-1.507-.523-1.675-.818-.228-.821.9-.961,1.366,0,0-.166-.659-.174-.662-.442.122,0,2.629-.066,2.637a3,3,0,0,0-.681-1.6c-.785.374.839,4.2-.091,5.672.937-.746,2.261-.735,3.2-1.107" transform="translate(4.625 9.594)" fill="#6a993b"/>
  </g>
  <g id="Gruppe_15247" data-name="Gruppe 15247" transform="translate(41.429 7.178)">
    <path id="Pfad_16457" data-name="Pfad 16457" d="M-.514-1.095a12.279,12.279,0,0,0,.088-2,3.077,3.077,0,0,0-.056-.824A2.535,2.535,0,0,0-.6-3.1c-.037.507-.048,1.21-.158,1.965A4.686,4.686,0,0,1-1.376.69c-.261.423-.488.645-.46.674s.29-.157.6-.576A4.14,4.14,0,0,0-.514-1.095" transform="translate(1.838 3.915)" fill="#6a993b"/>
  </g>
  <g id="Gruppe_15248" data-name="Gruppe 15248" transform="translate(37.784 13.162)">
    <path id="Pfad_16458" data-name="Pfad 16458" d="M-1.049-.588A28.223,28.223,0,0,0,1.7-2.1,14.075,14.075,0,0,0-1.1-.842a11.006,11.006,0,0,0-2.65,1.8c.066.042,1.21-.756,2.7-1.55" transform="translate(3.752 2.104)" fill="#6a993b"/>
  </g>
  <g id="Gruppe_15249" data-name="Gruppe 15249" transform="translate(27.482 4.664)">
    <path id="Pfad_16459" data-name="Pfad 16459" d="M-.265-6.631c-.186.087-.368.168-.551.25-.077-.107-.053-.638-.132-.744q.306-.139.617-.287C1.622-8.342,4.814-9.03,6.84-10.486c.506-.363,1-.736,1.472-1.113s.924-.76,1.353-1.165c.857-.8,1.655-1.616,2.407-2.4,1.5-1.564,2.8-3.021,3.862-4.272A37.37,37.37,0,0,0,18.31-22.5c.517-.756.7-1.228.726-1.219a3.635,3.635,0,0,1-.586,1.308,29.477,29.477,0,0,1-2.283,3.167c-1.034,1.282-2.319,2.764-3.811,4.35-.746.793-1.542,1.614-2.4,2.432-.428.409-.892.815-1.375,1.192s-.975.76-1.488,1.127C5.041-8.664,1.713-7.549-.265-6.631" transform="translate(0.948 23.715)" fill="#6a993b"/>
  </g>
  <g id="Gruppe_15250" data-name="Gruppe 15250" transform="translate(28.137 19.081)">
    <path id="Pfad_16460" data-name="Pfad 16460" d="M-.174-1.1c-.143.061-.282.124-.422.186.022.1-.043.522-.022.62.156-.067.313-.136.475-.2A79.023,79.023,0,0,1,8.122-3.006c.462-.1.921-.192,1.377-.271s.9-.138,1.346-.176c.891-.077,1.756-.119,2.58-.148,1.647-.058,3.132-.058,4.38-.024a28.048,28.048,0,0,1,2.94.205c.691.089,1.051.225,1.06.2a2.811,2.811,0,0,0-1.039-.33,22.1,22.1,0,0,0-2.953-.311c-1.251-.064-2.743-.087-4.4-.045-.828.02-1.7.056-2.6.131A13.667,13.667,0,0,0,9.444-3.6c-.46.078-.926.167-1.394.272A74.438,74.438,0,0,0-.174-1.1" transform="translate(0.622 3.922)" fill="#6a993b"/>
  </g>
  <g id="Gruppe_15251" data-name="Gruppe 15251" transform="translate(26.825 9.24)">
    <path id="Pfad_16461" data-name="Pfad 16461" d="M-.4-4.976c-.192.032-.383.061-.573.092-.044-.118-.4-.523-.448-.64.212-.037.425-.072.641-.111A99.679,99.679,0,0,0,9.675-8.644c.56-.206,1.106-.426,1.641-.656s1.044-.47,1.542-.736c.995-.528,1.936-1.077,2.827-1.61,1.78-1.068,3.35-2.085,4.644-2.976a35.656,35.656,0,0,0,2.965-2.231c.669-.568.957-.957.979-.943a3.517,3.517,0,0,1-.872,1.06,27.7,27.7,0,0,1-2.906,2.352c-1.277.925-2.838,1.97-4.614,3.062-.889.543-1.831,1.1-2.834,1.64-.5.269-1.029.529-1.569.756s-1.093.457-1.658.667A94.137,94.137,0,0,1-.4-4.976" transform="translate(1.417 17.797)" fill="#6a993b"/>
  </g>
  <g id="Gruppe_15252" data-name="Gruppe 15252" transform="translate(35.915 20.004)">
    <path id="Pfad_16462" data-name="Pfad 16462" d="M-3.339-.819a13.9,13.9,0,0,0-1.908-.725c-.836-.264-1.857-.546-3.019-.815-.581-.135-1.2-.267-1.852-.38-.326-.058-.671-.1-1.024-.134-.238-.022-.481-.039-.728-.055,0,0,0,.005,0,.008a1.3,1.3,0,0,1-.071.209c.236.014.47.031.7.052.351.028.681.072,1.006.128.649.11,1.264.238,1.847.366,1.163.258,2.19.522,3.038.767a18.459,18.459,0,0,1,1.943.655c.441.182.631.332.646.321s-.153-.189-.577-.4" transform="translate(11.943 2.928)" fill="#6a993b"/>
  </g>
  <g id="Gruppe_15253" data-name="Gruppe 15253" transform="translate(38.562 17.092)">
    <path id="Pfad_16463" data-name="Pfad 16463" d="M-2.925-.155A10.88,10.88,0,0,1-4.577.583C-5.3.852-6.2,1.14-7.211,1.419c-.509.138-1.049.275-1.624.394a8.987,8.987,0,0,1-.9.143c-.211.024-.426.044-.645.062,0,0,0-.006,0-.008a1.537,1.537,0,0,0-.078-.206c.21-.017.417-.036.622-.058.31-.031.6-.079.888-.136.571-.116,1.109-.248,1.619-.381C-6.314.962-5.418.689-4.679.439A14.287,14.287,0,0,0-2.992-.229,5.492,5.492,0,0,0-2.44-.554c.016.011-.122.19-.486.4" transform="translate(10.463 0.555)" fill="#6a993b"/>
  </g>
  <g id="Gruppe_15254" data-name="Gruppe 15254" transform="translate(0 19.451)">
    <path id="Pfad_16464" data-name="Pfad 16464" d="M-11.319-1.126c0-.006-.87-2.47-2.954-2.887a2.195,2.195,0,0,0-1.008.2c-.625.21-1.238.47-1.841.733-1.864.813-3.671,1.749-5.492,2.653C-24.884.7-27.1,1.935-29.344,3.11-31.55,4.266-39.772,8.474-40.207,8.939a.707.707,0,0,0-.1,1.017c.654.608,7.378-.955,9.626-1.426a51.07,51.07,0,0,0,7.051-2.146c.723-.259,1.447-.517,2.17-.777,1.708-.615,3.421-1.222,5.126-1.845.777-.285,4.014-1.781,4.572-2.1A1.96,1.96,0,0,0-10.984-.26a3.905,3.905,0,0,0-.335-.866" transform="translate(40.484 4.026)" fill="#ff5420"/>
  </g>
  <g id="Gruppe_15255" data-name="Gruppe 15255" transform="translate(0.522 19.744)">
    <path id="Pfad_16465" data-name="Pfad 16465" d="M-1.966-3.816A59.65,59.65,0,0,0,3.39-6.468c2.078-1.2,4.338-2.14,6.468-3.243,1.787-.925,3.552-1.9,5.363-2.778a3.621,3.621,0,0,1,.991-.37,4.169,4.169,0,0,0,1.1-.439,3.917,3.917,0,0,1,.681-.332c.488-.121.941.4,1.295.663a1.322,1.322,0,0,1,.644,1.3,1.228,1.228,0,0,1-.731.808,2.419,2.419,0,0,1-1.836.357,2.313,2.313,0,0,0-.517.019,1.925,1.925,0,0,0-.879.291q-.545.255-1.094.5c-.731.329-1.467.651-2.2.983q-.625.285-1.243.586c-1.648.8-3.277,1.652-4.987,2.322-1.578.617-3.209,1.032-4.837,1.5A16.726,16.726,0,0,0-2.258-2.717,8.171,8.171,0,0,1-4.243-1.708C-4.959-1.524-6.353-.563-7.032-1a36.137,36.137,0,0,1,5.066-2.82" transform="translate(7.032 13.648)" fill="#ff855b"/>
  </g>
  <g id="Gruppe_15256" data-name="Gruppe 15256" transform="translate(12.838 25.532)">
    <path id="Pfad_16466" data-name="Pfad 16466" d="M-.345-.23c.383.46.456.967.347,1S-.327.43-.664.028-1.3-.711-1.224-.8s.5.115.879.574" transform="translate(1.235 0.824)" fill="#bd3f1d"/>
  </g>
  <g id="Gruppe_15257" data-name="Gruppe 15257" transform="translate(11.999 26.073)">
    <path id="Pfad_16467" data-name="Pfad 16467" d="M-.187-.107C-.035.087.041.3-.044.379S-.34.361-.511.146s-.2-.465-.1-.517.274.072.425.264" transform="translate(0.67 0.382)" fill="#bd3f1d"/>
  </g>
  <g id="Gruppe_15258" data-name="Gruppe 15258" transform="translate(6.74 31.809)">
    <path id="Pfad_16468" data-name="Pfad 16468" d="M-.054-.172c-.11-.14-.181-.3-.112-.4s.279-.05.434.142.14.414.038.455-.249-.06-.36-.2" transform="translate(0.193 0.614)" fill="#bd3f1d"/>
  </g>
  <g id="Gruppe_15259" data-name="Gruppe 15259" transform="translate(20.086 25.437)">
    <path id="Pfad_16469" data-name="Pfad 16469" d="M-.267-.5C-.45-.852-.624-1.156-.76-1.375s-.224-.361-.185-.4.2.029.408.219A3.2,3.2,0,0,1,.1-.691C.469.054.637.684.546.733.438.79.087.208-.267-.5" transform="translate(0.955 1.791)" fill="#bd3f1d"/>
  </g>
  <g id="Gruppe_15260" data-name="Gruppe 15260" transform="translate(21.953 26.003)">
    <path id="Pfad_16470" data-name="Pfad 16470" d="M-.255-.253c.236.445.223.887.108.9S-.41.331-.621-.067-.978-.829-.883-.9s.4.2.628.643" transform="translate(0.912 0.905)" fill="#bd3f1d"/>
  </g>
  <g id="Gruppe_15261" data-name="Gruppe 15261" transform="translate(21.86 21.224)">
    <path id="Pfad_16471" data-name="Pfad 16471" d="M-.436-.355C0,.308.2.906.107.959S-.361.5-.774-.123s-.836-1.033-.779-1.129c.03-.045.2,0,.415.153a2.892,2.892,0,0,1,.7.744" transform="translate(1.558 1.268)" fill="#bd3f1d"/>
  </g>
  <g id="Gruppe_15262" data-name="Gruppe 15262" transform="translate(10.779 29.607)">
    <path id="Pfad_16472" data-name="Pfad 16472" d="M-.3-.281c.339.434.6.8.526.887S-.261.433-.621-.028-1.139-.943-1.044-1s.4.285.744.718" transform="translate(1.071 1.006)" fill="#bd3f1d"/>
  </g>
  <g id="Gruppe_15263" data-name="Gruppe 15263" transform="translate(6.125 32.014)">
    <path id="Pfad_16473" data-name="Pfad 16473" d="M-.17-.079c.122.18.112.385.008.428S-.408.3-.511.15-.644-.188-.552-.257s.262,0,.383.178" transform="translate(0.607 0.282)" fill="#bd3f1d"/>
  </g>
</svg>
