<svg xmlns="http://www.w3.org/2000/svg" width="46.751" height="41.17" viewBox="0 0 46.751 41.17">
  <g id="Gruppe_46761" data-name="Gruppe 46761" transform="translate(-1461.411 -1573.046)">
    <g id="Gruppe_46753" data-name="Gruppe 46753" transform="translate(1461.411 1573.046)">
      <path id="Pfad_46634" data-name="Pfad 46634" d="M.186.828c-.15.165-.274.32-.274.322-.044.047-.059.064-.182.065h0a.873.873,0,0,1-.421-.12L-2.671-.014A.906.906,0,0,0-3.585.02a1.469,1.469,0,0,0-.4.359,2.087,2.087,0,0,0-.244.558l-.092.363c-.031.212-.056.5-.072.8a5.882,5.882,0,0,0,.063.759l.009.071a2.8,2.8,0,0,0,.1.388h0a1.682,1.682,0,0,0,.725.993A.921.921,0,0,0-2.491,4.3L-.68,3.056a1.08,1.08,0,0,1,.537-.22,2.794,2.794,0,0,0,.318.27c.085.071.187.145.263.2l.123.085a.5.5,0,0,1,.085.66L-.581,5.957A1.059,1.059,0,0,0-.288,7.4l.445.3c.2.138.354.266.36.269l.015.011a.791.791,0,0,0,.656.137H1.2A.994.994,0,0,0,2,7.8L3.48,6.156a1.239,1.239,0,0,1,.387-.271l.1-.049c.052.021.138.054.282.106a5.1,5.1,0,0,1,.72.333l.041.026a1.411,1.411,0,0,1,.337.294.971.971,0,0,1,.146.3.32.32,0,0,1-.1.326L3.7,8.732a1.477,1.477,0,0,0-.4.583A.753.753,0,0,0,3.374,10l.517.873h0a1.1,1.1,0,0,0,1.463.414L7.331,10.3a.478.478,0,0,1,.369-.024.522.522,0,0,1,.3.272l.475,1.019a.484.484,0,0,1-.25.64l-2.048.979a1.051,1.051,0,0,0-.483,1.424l.6,1.16a1.167,1.167,0,0,0,.731.579,1.055,1.055,0,0,0,.831-.119l1.88-1.151a.506.506,0,0,1,.642.048l.005,0a3.4,3.4,0,0,0,.561.7c.077.113.056.346-.129.589L9.384,18.167a.921.921,0,0,0-.207.741,1.262,1.262,0,0,0,.579.861,2.309,2.309,0,0,0,.253.151l.5.266c.367.181.734.317.749.322h0a1.26,1.26,0,0,0,1.02-.039,1.018,1.018,0,0,0,.528-.643l.583-2.128a.494.494,0,0,1,.5-.41l.475.077c.248.044.513.071.514.071a.5.5,0,0,1,.379.546l-.191,2.261a1.044,1.044,0,0,0,.928,1.139l1.19.119a1.08,1.08,0,0,0,.808-.244,1.108,1.108,0,0,0,.407-.754l.221-2.2a.489.489,0,0,1,.5-.454s.269.024.512.036c.263.021.5.018.5.02.193,0,.367.231.389.5l.14,2.258a.976.976,0,0,0,.368.709,1.145,1.145,0,0,0,.72.253,1.223,1.223,0,0,0,.184-.015s.379-.049.727-.126c.372-.067.714-.164.714-.164h0a1.142,1.142,0,0,0,.725-.537,1.1,1.1,0,0,0,.1-.859l-.642-2.112a.487.487,0,0,1,.267-.617l1.008-.36a.485.485,0,0,1,.612.3l.822,2.113a1.065,1.065,0,0,0,1.335.62l1.057-.374h0a1.107,1.107,0,0,0,.667-1.371l-.623-2.12a.463.463,0,0,1,.046-.368.515.515,0,0,1,.331-.247l1.179-.271a.524.524,0,0,1,.41.076.467.467,0,0,1,.2.312l.366,2.24a1.039,1.039,0,0,0,1.127.894s.267-.036.543-.061.538-.047.541-.047h.006a1.111,1.111,0,0,0,.987-1.174l-.105-2.208a.482.482,0,0,1,.127-.351.5.5,0,0,1,.347-.164l.481-.023c.094.1.275.312.508.607l1.417,2a1.02,1.02,0,0,0,.815.438,1.3,1.3,0,0,0,1.091-.511,3.238,3.238,0,0,0,.518-.993,4.2,4.2,0,0,0,.178-1.121v-.01h0a2.085,2.085,0,0,0-.324-1.195.96.96,0,0,0-.892-.486l-2.2.211a.48.48,0,0,1-.367-.109.5.5,0,0,1-.173-.345l-.041-.608c-.018-.3-.023-.6-.023-.608a.571.571,0,0,1,.166-.423.4.4,0,0,1,.327-.129l2.27.071a1.039,1.039,0,0,0,1.1-.9s.019-.253.053-.51.073-.5.073-.5A1.1,1.1,0,0,0,38.9,8.29L36.744,7.8a.435.435,0,0,1-.282-.21.567.567,0,0,1-.052-.449s.085-.3.181-.6.195-.567.2-.579a.544.544,0,0,1,.292-.323.447.447,0,0,1,.362-.007l2.1.871a1.041,1.041,0,0,0,1.354-.482l.518-1.23h0a1.13,1.13,0,0,0-.005-.919,1.06,1.06,0,0,0-.646-.589L38.667,2.6a.473.473,0,0,1-.359-.541l.186-.92c.014-.139.251-.312.536-.282l2.265.094A.974.974,0,0,0,42.088.6a1.249,1.249,0,0,0,.264-.884l-.016-.24a3.267,3.267,0,0,0-.072-.589L42.106-1.9,42.1-1.933a1.381,1.381,0,0,0-.721-.86.942.942,0,0,0-.776-.013l-2.029.846c-.3.116-.562.051-.622-.064L37.715-2.4l-.272-.378a.5.5,0,0,1,.134-.644l1.751-1.43a1.028,1.028,0,0,0,.388-.693,1.034,1.034,0,0,0-.2-.761l-.1-.132a2.126,2.126,0,0,1-.161-.22c-.022-.036-.05-.075-.077-.113-.009-.014-.02-.027-.027-.039l-.051-.1-.024-.04a.449.449,0,0,0-.443-.2l-.152.006a1.007,1.007,0,0,1-.134-.016,1.153,1.153,0,0,0-.448-.014l-2.182.367a.5.5,0,0,1-.563-.358s-.046-.25-.1-.462a3.069,3.069,0,0,0-.085-.321l-.041-.133c-.045-.144.094-.384.367-.506l.676-.3a.87.87,0,0,0,.526-1.173s-.179-.325-.39-.648l-.436-.6a1.237,1.237,0,0,0-.883-.457.937.937,0,0,0-.694.265l-.421.477c-.228.216-.51.241-.625.132,0,0-.175-.128-.348-.259l-.394-.273a.509.509,0,0,1-.052-.63l1.07-2a.958.958,0,0,0,.07-.765,1.175,1.175,0,0,0-.613-.685A5.511,5.511,0,0,0,32.1-15.8l-.641-.241h-.006a1.115,1.115,0,0,0-.906.033,1.1,1.1,0,0,0-.575.672l-.626,2.113a.471.471,0,0,1-.532.372L27.7-13.133a.488.488,0,0,1-.3-.228.492.492,0,0,1-.049-.379L27.7-14.9a1.049,1.049,0,0,0-.717-1.29l-1.166-.326h0a1.086,1.086,0,0,0-.835.1,1.11,1.11,0,0,0-.528.675L24.1-14.642a.5.5,0,0,1-.6.352l-1.066-.289a.487.487,0,0,1-.328-.6l.558-2.2a1.036,1.036,0,0,0-.117-.8,1.058,1.058,0,0,0-.663-.486l-1.239-.282h0a1.125,1.125,0,0,0-.869.165,1.077,1.077,0,0,0-.468.706L18.9-15.905a.482.482,0,0,1-.532.418l-1.026-.139a.488.488,0,0,1-.377-.542l.145-2.263a1,1,0,0,0-.265-.745,1.146,1.146,0,0,0-.826-.36s-.359-.006-.735.011l-.745.056h0a1.257,1.257,0,0,0-.909.515.98.98,0,0,0-.17.8L13.926-16a.6.6,0,0,1-.144.588l0,.009a1.952,1.952,0,0,0-.631.306l0,0a.807.807,0,0,1-.522-.26l-1.611-1.579a.865.865,0,0,0-.727-.256,1.305,1.305,0,0,0-.954.588,2.206,2.206,0,0,0-.182.276l-.3.541c-.183.393-.334.792-.334.792l0,.005A1.1,1.1,0,0,0,9.2-13.6l2.073.767a.471.471,0,0,1,.272.253.515.515,0,0,1,0,.411s-.1.266-.217.538l-.232.546a.576.576,0,0,1-.326.306.439.439,0,0,1-.351-.021l-2.033-1.01a1.031,1.031,0,0,0-1.373.356s-.118.219-.251.42-.26.383-.262.387l0,0A1.105,1.105,0,0,0,6.772-9.2L8.466-7.773a.43.43,0,0,1,.152.312.563.563,0,0,1-.147.417l-.746.812a.484.484,0,0,1-.671,0L5.322-7.694a1.02,1.02,0,0,0-.755-.239,1.117,1.117,0,0,0-.757.408L3.153-6.8h0a1.11,1.11,0,0,0,.031,1.5L4.675-3.668a.473.473,0,0,1,.12.344.536.536,0,0,1-.186.372l-.894.743a.482.482,0,0,1-.363.109.493.493,0,0,1-.334-.186L1.6-4.054A1.055,1.055,0,0,0,.117-4.217l-.971.8,0,0a1.161,1.161,0,0,0-.408.806,1.061,1.061,0,0,0,.273.792L.477-.175A.49.49,0,0,1,.51.489Z" transform="translate(4.397 19.537)" fill="#79c634"/>
    </g>
    <g id="Gruppe_46754" data-name="Gruppe 46754" transform="translate(1468.992 1577.91)">
      <path id="Pfad_46635" data-name="Pfad 46635" d="M.33.426C.308.447.209.534.184.557L-.327-.164ZM9.189,18.451l.152.022-.3,1.264c0-.006.148-1.286.148-1.286M12.48-4.366l.1.613-.095.006L12.3-3.755ZM22.3,1.58l-1.129.345c-.006-.027-.028-.158-.028-.158ZM-5.725.77a1.694,1.694,0,0,0-.663.142l-.033.015-.032.018A1.986,1.986,0,0,0-7.371,2a4.787,4.787,0,0,0-.3,1.084l-.006.046-.047,0-.028.717c0,.005-.039.7-.039.7l.144.008a1.724,1.724,0,0,0,.411.651,1.608,1.608,0,0,0,1.165.454L-4.7,5.611l0,.02-1.345.3a1.558,1.558,0,0,0-1,.712,1.665,1.665,0,0,0-.193,1.282s.042.162.1.359l-.007,0,.2.675.2.693.153-.046a1.657,1.657,0,0,0,.5.388,1.629,1.629,0,0,0,.74.18,1.565,1.565,0,0,0,.517-.087l1.258-.423.022.057-1.252.551a1.566,1.566,0,0,0-.846.892,1.67,1.67,0,0,0,.063,1.3l.153.31-.017.008.329.625.315.636.15-.075a1.64,1.64,0,0,0,.566.294,1.624,1.624,0,0,0,.463.067,1.606,1.606,0,0,0,.787-.205l1.163-.65.024.038-1.109.818a1.537,1.537,0,0,0-.63,1.057,1.682,1.682,0,0,0,.361,1.274s.187.233.366.435c.193.231.408.446.434.471l.518.516.1-.1a1.831,1.831,0,0,0,.679.127h0a1.558,1.558,0,0,0,1.154-.531l.9-1.01L.441,17.785a1.523,1.523,0,0,0-.124,1.226,1.742,1.742,0,0,0,.96,1.055l.517.214a4.193,4.193,0,0,0,.488.177l.157.047A1.781,1.781,0,0,0,3,20.594a1.714,1.714,0,0,0,.847-.222,1.584,1.584,0,0,0,.766-1.029l.3-1.328.033,0-.1,1.358a1.57,1.57,0,0,0,.378,1.165,1.622,1.622,0,0,0,1.111.564l.231.019v.02l.732.038.693.054.014-.168a1.649,1.649,0,0,0,1-1.161,1.6,1.6,0,0,0,1.119,1.766l.82.25a1.669,1.669,0,0,0,.459.081c.093.009.2.018.295.018l.079,0a1.52,1.52,0,0,0,1.509-1.352l.107-1.235.573.785a1.536,1.536,0,0,0,1.067.64,1.684,1.684,0,0,0,1.289-.375l.27-.228.009.011.538-.475.54-.457-.108-.125a1.689,1.689,0,0,0,.143-.607,1.609,1.609,0,0,0-.433-1.187l-.9-.966.054-.053.982.938a1.623,1.623,0,0,0,1.143.44h0a1.634,1.634,0,0,0,1.156-.527l.2-.215,0,0,.449-.5.508-.555-.119-.109a1.66,1.66,0,0,0,.071-.593,1.627,1.627,0,0,0-.553-1.131l-.985-.865.054-.064,1.052.851a1.593,1.593,0,0,0,1,.355,1.8,1.8,0,0,0,.182-.009,1.625,1.625,0,0,0,1.1-.624l.181-.236,0,0,.42-.556.446-.579-.128-.1a1.706,1.706,0,0,0,.02-.617,1.6,1.6,0,0,0-.659-1.076l-1.01-.723,1.251.468a1.466,1.466,0,0,0,.558.11,1.545,1.545,0,0,0,.7-.17,1.792,1.792,0,0,0,.9-1.18,7.328,7.328,0,0,0,.134-.758c.048-.388.052-.745.052-.745a1.806,1.806,0,0,0-.568-1.365,1.561,1.561,0,0,0-1.053-.417c-.054,0-.107,0-.149.007l-1.369.124a.006.006,0,0,1,0,0l1.316-.413a1.555,1.555,0,0,0,.939-.8,1.651,1.651,0,0,0,.083-1.278s-.093-.279-.193-.531l-.188-.488-.29-.724-.186.092a1.693,1.693,0,0,0-1.039-.348,1.539,1.539,0,0,0-.154.006A1.548,1.548,0,0,0,23.5.917,1.714,1.714,0,0,0,23.768-.4s-.06-.279-.143-.6l.03-.011-.241-.66-.232-.675-.137.048a1.749,1.749,0,0,0-.672-.47,1.608,1.608,0,0,0-.577-.109,1.5,1.5,0,0,0-.691.168l-1.114.561.881-.886a1.533,1.533,0,0,0,.454-1.124,1.735,1.735,0,0,0-.571-1.236s-.181-.162-.378-.323l.036-.053-.556-.372-.514-.422-.1.118a1.962,1.962,0,0,0-.611-.1,1.666,1.666,0,0,0-.479.068,1.446,1.446,0,0,0-.925.8l-.5,1.059L16.592-5.7a1.514,1.514,0,0,0-.611-1.066A1.7,1.7,0,0,0,14.963-7.1a1.765,1.765,0,0,0-.326.031l-.91.182h-.045l-.073.024a1.6,1.6,0,0,0-1.007.721,1.227,1.227,0,0,0-.417-.531l.034-.075-.432-.244-.436-.4-.122.131a1.367,1.367,0,0,0-.317-.071,1.6,1.6,0,0,0-.211-.014,1.609,1.609,0,0,0-1.05.393l-.918.794.729-1.129a1.577,1.577,0,0,0,.108-1.453,1.887,1.887,0,0,0-.884-.881A3.944,3.944,0,0,0,7.6-9.981a4.71,4.71,0,0,0-.661-.066l-.058,0c-.061,0-.12-.006-.173-.006a2.153,2.153,0,0,0-.335.025,2.005,2.005,0,0,0-1.543.969,1.424,1.424,0,0,0-.072,1.309l.491,1.111-.873-.665a1.543,1.543,0,0,0-.949-.32,1.716,1.716,0,0,0-.25.019,1.678,1.678,0,0,0-1.123.716l-.18.27-.011-.006-.388.6s-.391.587-.391.587l.139.092a1.662,1.662,0,0,0,.025.591,1.62,1.62,0,0,0,.72,1.028l1.093.7L3-2.929,1.9-3.689a1.614,1.614,0,0,0-.919-.288,1.6,1.6,0,0,0-1.3.664c-.018.024-.12.17-.231.309l-.822,1.035.215.107a1.673,1.673,0,0,0,.17.953,1.6,1.6,0,0,0-.919-.3A1.387,1.387,0,0,0-2.634-1l-.35.188s-.194.087-.194.087L-3.813-.5l.065.189A1.741,1.741,0,0,0-4.059,1.3l.219.7-.937-.862A1.372,1.372,0,0,0-5.725.77" transform="translate(7.788 10.056)" fill="#6fb52f"/>
    </g>
    <g id="Gruppe_46755" data-name="Gruppe 46755" transform="translate(1469.745 1578.627)">
      <path id="Pfad_46636" data-name="Pfad 46636" d="M.012.57A.853.853,0,0,0,.651.819l1.7-.064c.166,0,.329.1.344.23,0,0,.023.2.051.389s.066.4.067.405a.316.316,0,0,1-.256.344L.848,2.5A.848.848,0,0,0,.3,2.892a.948.948,0,0,0-.107.73s.066.26.14.515l.146.5.3-.09-.3.092a.992.992,0,0,0,.489.593.9.9,0,0,0,.7.053L3.29,4.739a.317.317,0,0,1,.4.175L4,5.7a.311.311,0,0,1-.175.4l-1.6.7a.854.854,0,0,0-.461.487.945.945,0,0,0,.034.73l.461.931.282-.143-.28.148a1,1,0,0,0,.594.493.9.9,0,0,0,.7-.077l1.485-.831a.313.313,0,0,1,.423.093l.444.7a.312.312,0,0,1-.1.417L4.393,10.785a.833.833,0,0,0-.339.571.971.971,0,0,0,.211.731s.174.218.356.423.361.4.389.422l.01.01h0a1.054,1.054,0,0,0,.764.324.853.853,0,0,0,.635-.29L7.551,11.7a.323.323,0,0,1,.41-.088l.327.257.3.2a.325.325,0,0,1,.056.416l-.842,1.53a.813.813,0,0,0-.063.654,1.019,1.019,0,0,0,.551.608l.531.22a3.5,3.5,0,0,0,.409.148L9.4,15.7h0a1.03,1.03,0,0,0,.831-.072.872.872,0,0,0,.423-.567l.379-1.654c.047-.182.179-.293.318-.274l.806.1a.323.323,0,0,1,.277.34L12.3,15.313a.86.86,0,0,0,.21.638.9.9,0,0,0,.621.315l.941.074.024-.315-.023.316a.944.944,0,0,0,1-.833l.194-1.693a.291.291,0,0,1,.117-.2.347.347,0,0,1,.27-.061l.484.075c.22.03.439.083.453.087a.391.391,0,0,1,.254.167.264.264,0,0,1,.036.2l-.405,1.706a.891.891,0,0,0,.6,1.067l.835.255h0a1.043,1.043,0,0,0,.3.05c.071.006.156.014.226.014h.042a.817.817,0,0,0,.832-.7l.148-1.69a4.483,4.483,0,0,1,.1-.464l0,0c.034-.016.071-.034.107-.055l.005,0,.208-.131a.326.326,0,0,1,.383.128l1.03,1.41a.829.829,0,0,0,.575.341.954.954,0,0,0,.732-.212l.8-.68-.206-.239.208.237a.969.969,0,0,0,.334-.685.908.908,0,0,0-.242-.665l-1.161-1.247a.313.313,0,0,1,0-.44l.612-.608a.316.316,0,0,1,.44,0l1.265,1.208a.9.9,0,0,0,.629.241.915.915,0,0,0,.646-.3l.672-.736-.233-.214.236.212a.952.952,0,0,0,.247-.7.916.916,0,0,0-.311-.637L25.267,9.438A.315.315,0,0,1,25.234,9l.561-.667a.315.315,0,0,1,.439-.04l1.361,1.1a.86.86,0,0,0,.649.189.905.905,0,0,0,.618-.349l.613-.8-.25-.193.252.191a.973.973,0,0,0,.187-.736.9.9,0,0,0-.367-.6L27.912,6.1a.316.316,0,0,1-.1-.414s.126-.181.22-.339c.058-.091.105-.174.133-.225l.089-.11a.236.236,0,0,1,.075-.043.441.441,0,0,1,.269.011l1.631.61a.768.768,0,0,0,.653-.035,1.068,1.068,0,0,0,.532-.709,6.575,6.575,0,0,0,.121-.678c.042-.337.046-.662.046-.667h0a1.087,1.087,0,0,0-.334-.825.837.837,0,0,0-.655-.225L28.9,2.6c-.189.008-.342-.072-.364-.19,0,0-.032-.192-.076-.377s-.1-.393-.1-.4a.317.317,0,0,1,.228-.359l1.67-.523a.847.847,0,0,0,.51-.438.939.939,0,0,0,.043-.73s-.085-.26-.181-.5l-.18-.47h0l0-.007h0a.93.93,0,0,0-1.142-.489l-1.637.5a.241.241,0,0,1-.19-.028.431.431,0,0,1-.2-.286s-.059-.246-.1-.472l-.081-.47A.307.307,0,0,1,27.369-3l1.723-.279a.824.824,0,0,0,.564-.345.978.978,0,0,0,.152-.753s-.061-.287-.14-.587-.188-.594-.188-.594l-.3.1.3-.108a1.094,1.094,0,0,0-.622-.66.824.824,0,0,0-.687.029l-1.517.763a.342.342,0,0,1-.4-.016l-.006,0a2.146,2.146,0,0,0-.45-.588l.006-.006a.325.325,0,0,1,.075-.393l1.232-1.239a.825.825,0,0,0,.242-.6,1,1,0,0,0-.331-.712s-.21-.188-.422-.356l-.413-.34-.2.245.176-.263a1.3,1.3,0,0,0-1.056-.219.742.742,0,0,0-.482.415L23.9-7.963A.839.839,0,0,1,23.7-7.7l-.057.027a1.782,1.782,0,0,0-.247-.038l-.327-.01h0a.363.363,0,0,1-.222-.305l-.22-1.729a.808.808,0,0,0-.328-.566.988.988,0,0,0-.771-.175l-.978.2h0a.925.925,0,0,0-.715,1.08l.287,1.68a.248.248,0,0,1-.053.195.421.421,0,0,1-.294.153l-.526.034-.585-.026a.606.606,0,0,1-.442-.238.143.143,0,0,1-.021-.132L18.7-9.238c.1-.389.067-.839-.229-1a2.044,2.044,0,0,0-.18-.118c-.08-.079-.156-.149-.156-.149l-.243.261.148-.324a1.292,1.292,0,0,0-.473-.177.887.887,0,0,0-.7.212L15.57-9.42a.322.322,0,0,1-.415-.006L14.886-9.7c-.133-.13-.266-.238-.268-.239a.163.163,0,0,1-.045-.121.544.544,0,0,1,.082-.273l.949-1.47a.831.831,0,0,0,.057-.765,1.231,1.231,0,0,0-.593-.56,3.3,3.3,0,0,0-.857-.271,4.371,4.371,0,0,0-.567-.055l-.069,0a1.511,1.511,0,0,0-.35.013h0a1.3,1.3,0,0,0-1.024.607.722.722,0,0,0-.042.673l.686,1.556a.951.951,0,0,1,.081.33c0,.029,0,.047,0,.052a2.433,2.433,0,0,0-.445.435l0,0a.333.333,0,0,1-.409-.008l-1.391-1.059a.84.84,0,0,0-.649-.161.957.957,0,0,0-.637.405l-.57.854.265.174-.266-.171a.952.952,0,0,0-.132.728.908.908,0,0,0,.405.577l1.437.915a.315.315,0,0,1,.092.44l-.5.769a.35.35,0,0,1-.225.152.285.285,0,0,1-.221-.045l-1.439-1a.887.887,0,0,0-1.222.2s-.126.178-.257.344l-.267.338h0a0,0,0,0,0,0,0l-.005.006h0a.923.923,0,0,0,.129,1.266L7.889-3.93a.248.248,0,0,1,.082.182.408.408,0,0,1-.129.3s-.169.173-.358.338-.369.326-.369.326a.458.458,0,0,1-.345.108.226.226,0,0,1-.159-.1L5.6-4.2a.854.854,0,0,0-1.126-.3l-.349.186a1.73,1.73,0,0,1-.286.132l.1.3-.124-.287a.941.941,0,0,0-.449,1.14l.511,1.633a.227.227,0,0,1-.027.179.465.465,0,0,1-.293.207L3.411-1c-.088.016-.175.031-.2.034v.009a3.693,3.693,0,0,1-.413-.3L1.477-2.463a.751.751,0,0,0-.841-.092,1.309,1.309,0,0,0-.6.706,4.13,4.13,0,0,0-.25.924c-.056.348-.074.671-.074.671l.316.018L-.291-.249a1.076,1.076,0,0,0,.3.819" transform="translate(0.292 13.465)" fill="#87dc39"/>
    </g>
    <g id="Gruppe_46756" data-name="Gruppe 46756" transform="translate(1474.728 1583.658)">
      <path id="Pfad_46637" data-name="Pfad 46637" d="M.52.667.773.861.5.735.52.667M-3.758-13.224a1.489,1.489,0,0,0-.3.029A1.611,1.611,0,0,0-5.1-12.51l-.508.764a1.557,1.557,0,0,0-.263.865l-.128-.032-.641-.212-.051.155a1.717,1.717,0,0,0-.747.262,1.548,1.548,0,0,0-.7,1.047l-.157.887-.738-.782a1.4,1.4,0,0,0-1.082-.493c-.051,0-.1,0-.157.008a1.9,1.9,0,0,0-1.444,1.029,5.262,5.262,0,0,0-.391.969,6.024,6.024,0,0,0-.159.788,1.745,1.745,0,0,0,.4,1.405A1.569,1.569,0,0,0-10.7-5.3l.88.015-.869.17a1.572,1.572,0,0,0-1.028.689,1.636,1.636,0,0,0-.219,1.262l.067.271-.013,0,.186.693s.169.687.169.687l.168-.043a1.646,1.646,0,0,0,.429.353,1.649,1.649,0,0,0,.815.216,1.7,1.7,0,0,0,.445-.059l.7-.193-.715.625A1.494,1.494,0,0,0-10.245.545,1.65,1.65,0,0,0-9.7,1.826s.191.184.409.362l-.021.03.573.4.54.418.1-.133a1.706,1.706,0,0,0,.358.038A1.687,1.687,0,0,0-7.406,2.9,1.586,1.586,0,0,0-6.373,2.2l.457-.709-.362.8a1.563,1.563,0,0,0-.041,1.234,1.6,1.6,0,0,0,.873.9s.173.076.376.154l-.007.022.651.214.666.244L-3.7,4.9a1.684,1.684,0,0,0,.631-.19,1.6,1.6,0,0,0,.791-.976l.233-.8.04.924A1.408,1.408,0,0,0-1.447,5a1.889,1.889,0,0,0,1.164.382,2.319,2.319,0,0,0,.665-.1l.237-.088a2.568,2.568,0,0,0,.733-.38,3.511,3.511,0,0,0,.84-.788l.432-.576-.081-.06a2.133,2.133,0,0,0,.108-.734A1.532,1.532,0,0,0,2.432,1.9l.392.2.38-.378A1.618,1.618,0,0,0,4.237.073l0-.324.44.9a1.407,1.407,0,0,0,1.113.827,1.487,1.487,0,0,0,.225.016A1.751,1.751,0,0,0,7.364.808a4.524,4.524,0,0,0,.558-.871c.036-.074.072-.147.105-.219l.033.011L8.3-.945c0-.005.246-.664.246-.664l-.133-.049a1.6,1.6,0,0,0-.155-.623,1.668,1.668,0,0,0-1-.855l-.783-.238.826.161a1.566,1.566,0,0,0,.32.033,1.589,1.589,0,0,0,.9-.281A1.6,1.6,0,0,0,9.2-4.523l.043-.269h.01l.1-.693.113-.721L9.292-6.23a1.658,1.658,0,0,0-.272-.518A1.621,1.621,0,0,0,7.908-7.37l-.646-.072.967-.685a1.428,1.428,0,0,0,.66-1.25,1.744,1.744,0,0,0-.913-1.465,4.62,4.62,0,0,0-.91-.382c-.073-.026-.148-.049-.223-.069l0-.014-1.384-.314-.039.164a1.635,1.635,0,0,0-.893.577,1.542,1.542,0,0,0-.65-1.269,1.325,1.325,0,0,0-.659-.358l-.143-.074-.023.044a2.037,2.037,0,0,0-.279-.02,2.072,2.072,0,0,0-.709.125l-.67.256.588-.861a1.4,1.4,0,0,0,.211-1.3,1.906,1.906,0,0,0-1.278-1.2,5.072,5.072,0,0,0-.93-.189l-.032-.005L-.7-15.758a3.532,3.532,0,0,0-.354.015l-.706.083.01.107A1.7,1.7,0,0,0-2.441-15a1.511,1.511,0,0,0-.181,1.6l.462.935-.688-.477a1.572,1.572,0,0,0-.909-.289" transform="translate(12.283 15.758)" fill="#79c634"/>
    </g>
    <g id="Gruppe_46757" data-name="Gruppe 46757" transform="translate(1475.445 1584.375)">
      <path id="Pfad_46638" data-name="Pfad 46638" d="M.587.628v0H.58s0,0,.006,0M1.1-11.41a.1.1,0,0,1,.017.016L1.1-11.4l-.06.117-.186.063Zm-14.7,5.3a.854.854,0,0,0,.638.3l1.7.029c.2.007.335.108.341.2l.084.742a.3.3,0,0,1-.272.3l-1.718.336a.859.859,0,0,0-.562.377.913.913,0,0,0-.123.7l.236.952.306-.079-.305.082a.916.916,0,0,0,.427.559.94.94,0,0,0,.716.088l1.642-.451a.318.318,0,0,1,.22.015c.088.058.132.088.18.314l.022.22-.031.07.041.048.006.089h0a.108.108,0,0,1,0,.01.519.519,0,0,1-.155.237L-11.525.163a.782.782,0,0,0-.286.608.972.972,0,0,0,.327.749s.222.215.448.388l.426.328.194-.25-.18.26a.994.994,0,0,0,.763.164.881.881,0,0,0,.574-.391L-8.334.588A.31.31,0,0,1-7.963.436s.171.1.346.193l.349.184a.3.3,0,0,1,.082.392L-7.91,2.8a.845.845,0,0,0-.022.671.9.9,0,0,0,.5.508s.242.108.49.194l.477.175.108-.3-.1.3a.983.983,0,0,0,.764-.065.89.89,0,0,0,.442-.543l.473-1.632c.053-.176.2-.28.3-.259A3.552,3.552,0,0,0-4.1,1.93l.215.04c.032.005.073.014.118.017a.521.521,0,0,1,.122.369l.071,1.728a.7.7,0,0,0,.288.565,1.163,1.163,0,0,0,.721.229,1.589,1.589,0,0,0,.417-.058l.24-.089a1.906,1.906,0,0,0,.558-.289A2.819,2.819,0,0,0-.661,3.8l0,0a1.367,1.367,0,0,0,.316-.917.774.774,0,0,0-.464-.709l-1.552-.707a.908.908,0,0,1-.267-.2.256.256,0,0,1,.009-.1l.154-.447A3.969,3.969,0,0,1-2.294.3l.047-.1a.616.616,0,0,1,.275-.245c.117-.05.167-.01.184,0l1.4,1.075a1.777,1.777,0,0,0,.643.327L.4,1.431.542,1.3a.646.646,0,0,0,.116-.044c.368-.052.571-.5.582-.96L1.217-1.418a.2.2,0,0,1,.068-.153.45.45,0,0,1,.353-.1c.18.013.229.018.255.022.065.094.183.279.321.521l.834,1.7a.7.7,0,0,0,.561.4,1.013,1.013,0,0,0,.919-.41A3.975,3.975,0,0,0,5-.175c.191-.38.34-.783.346-.8l-.3-.108.3.106a1,1,0,0,0-.016-.785.934.934,0,0,0-.559-.477L3.143-2.732a.3.3,0,0,1-.24-.334l.186-.776a.3.3,0,0,1,.364-.2L5.171-3.7a.867.867,0,0,0,.666-.137.882.882,0,0,0,.371-.583l.151-.966-.313-.046.313.045A.933.933,0,0,0,6.171-6.1a.914.914,0,0,0-.624-.349l-1.693-.19a.3.3,0,0,1-.292-.287l.008-.12c.078-.076.239-.22.459-.394L5.566-8.524a.716.716,0,0,0,.325-.63A1.023,1.023,0,0,0,5.344-10a4.042,4.042,0,0,0-.792-.33c-.137-.047-.278-.081-.407-.112-.06-.015-.117-.028-.18-.046l-.25-.057-.072.307.068-.309a.921.921,0,0,0-1.085.712l-.383,1.66a.3.3,0,0,1-.136.19.321.321,0,0,1-.249.031l-.9-.278A.4.4,0,0,1,.72-8.449a.25.25,0,0,1,0-.205l.722-1.6a.874.874,0,0,0-.282-1.114l-.023-.013a.458.458,0,0,0-.042-.032l0,0a1.051,1.051,0,0,0-1.06-.133l-1.6.612a.249.249,0,0,1-.2-.017.366.366,0,0,1-.193-.2l-.031-.088a1.392,1.392,0,0,0-.069-.174.082.082,0,0,0-.005-.015c0-.007.007-.017.013-.026L-2-11.54a2.307,2.307,0,0,1,.154-.285l.981-1.436A.687.687,0,0,0-.77-13.9a1.215,1.215,0,0,0-.836-.745A4.724,4.724,0,0,0-2.4-14.8l-.568-.031c-.189,0-.3.01-.3.01v.007a1.213,1.213,0,0,0-.891.463.806.806,0,0,0-.107.851l.758,1.539a2.248,2.248,0,0,1,.119.323l.023.073c-.034.038-.076.082-.119.133-.11.129-.225.28-.225.28a.314.314,0,0,1-.4.011l-1.436-1a.861.861,0,0,0-.665-.142.89.89,0,0,0-.573.378l-.508.763a.918.918,0,0,0,.268,1.25l1.392.986a.276.276,0,0,1,.118.193.344.344,0,0,1-.08.266s-.147.189-.321.382c-.088.1-.164.176-.267.278a2.07,2.07,0,0,1-.162.15.653.653,0,0,1-.552.2A.094.094,0,0,1-6.964-7.5L-7.6-9.19c-.3-.681-.429-.7-.592-.73l-.272-.09-.1.3.079-.306a1.079,1.079,0,0,0-.848.12.842.842,0,0,0-.383.569l-.3,1.681a.527.527,0,0,1-.177.314.883.883,0,0,0-.141,0,3.727,3.727,0,0,1-.34-.288l-1.2-1.271a.7.7,0,0,0-.615-.23,1.187,1.187,0,0,0-.891.664,4.558,4.558,0,0,0-.325.811,5.541,5.541,0,0,0-.143.7h0a1.038,1.038,0,0,0,.227.838" transform="translate(13.847 14.831)" fill="#92eb3c"/>
    </g>
    <g id="Gruppe_46758" data-name="Gruppe 46758" transform="translate(1480.69 1590.196)">
      <path id="Pfad_46639" data-name="Pfad 46639" d="M0,.305.015.476l.046.4L.112.9a1.32,1.32,0,0,0,.048.139,2.6,2.6,0,0,0,.349.687l.026.05.052.053.2.247H.824a1.475,1.475,0,0,0,.964.353l.071,0a1.375,1.375,0,0,0,1.118-.6L3.139,1.6A1.356,1.356,0,0,0,3.8,2.32a1.573,1.573,0,0,0,.706.168,1.473,1.473,0,0,0,.561-.109l0,0,.005.011L5.737,2.1l.656-.273-.077-.18a1.484,1.484,0,0,0,.2-.359A1.468,1.468,0,0,0,6.6.933a1.408,1.408,0,0,0,.358.129,1.4,1.4,0,0,0,.31.033A1.5,1.5,0,0,0,8.118.827l.6-.439a1.489,1.489,0,0,0,.59-1.035,1.5,1.5,0,0,0-.044-.542,1.4,1.4,0,0,0,.247.022,1.423,1.423,0,0,0,.364-.047,1.574,1.574,0,0,0,1-.859l.078-.175a2.422,2.422,0,0,0,.176-.511c.042-.166.076-.335.1-.483a1.816,1.816,0,0,0,.02-.409,1.914,1.914,0,0,0-.033-.32l-.038-.345h-.07a1.555,1.555,0,0,0-.5-.636,1.389,1.389,0,0,0-.826-.28,1.129,1.129,0,0,0-.378.059l-.2.06.043-.128A1.348,1.348,0,0,0,9.142-6.35,1.61,1.61,0,0,0,8-7.121l-.458-.057C7.308-7.2,7.085-7.2,7.062-7.2H6.34v.169a1.418,1.418,0,0,0-.385.281,1.4,1.4,0,0,0-.257.36,1.437,1.437,0,0,0-.319-.268,1.446,1.446,0,0,0-.767-.219,1.506,1.506,0,0,0-.382.05,3.358,3.358,0,0,0-1,.338l-.041.028a1.828,1.828,0,0,0-.193.129l-.315.213.036.067a1.4,1.4,0,0,0-.162.261A1.359,1.359,0,0,0,2.5-4.7a1.36,1.36,0,0,0-.487-.089,1.4,1.4,0,0,0-.523.1,1.525,1.525,0,0,0-.862.9s-.072.2-.14.419a4.2,4.2,0,0,0-.113.42h0A1.481,1.481,0,0,0,.563-1.782,1.466,1.466,0,0,0,.909-1.4a1.479,1.479,0,0,0-.481.366A1.823,1.823,0,0,0,0,.305" transform="translate(0.006 7.203)" fill="#87dc39"/>
    </g>
    <g id="Gruppe_46759" data-name="Gruppe 46759" transform="translate(1481.407 1590.913)">
      <path id="Pfad_46640" data-name="Pfad 46640" d="M.08.224-1.18.377a.667.667,0,0,0-.459.244,1.113,1.113,0,0,0-.254.811l.014.171.014.007a1.816,1.816,0,0,0,.1.4,1.916,1.916,0,0,0,.28.532h0s0,0,0,0l.006.008h0a.8.8,0,0,0,.7.351.669.669,0,0,0,.555-.292l.8-1.15c.09-.119.171-.215.233-.284a.627.627,0,0,1,.031.079L1.179,2.46a.628.628,0,0,0,.341.407.862.862,0,0,0,.383.09A.758.758,0,0,0,2.186,2.9L2.84,2.63l-.125-.291.126.29a.734.734,0,0,0,.4-.413.76.76,0,0,0-.017-.589L2.711.5a.127.127,0,0,1,0-.094c.027-.079.038-.063.038-.063S2.874.289,3,.218L3.245.085A.146.146,0,0,1,3.39.163l.667,1.065a.7.7,0,0,0,.452.32.755.755,0,0,0,.579-.115L5.683,1h0a.764.764,0,0,0,.3-.534A.735.735,0,0,0,5.814-.1l-.8-.93a.153.153,0,0,1-.038-.165v0c.078-.07.182-.184.345-.365a.246.246,0,0,1,.166.045l1.043.7a.675.675,0,0,0,.549.09.842.842,0,0,0,.527-.46l.078-.175a1.8,1.8,0,0,0,.136-.388c.036-.149.067-.3.088-.419a1.147,1.147,0,0,0,.013-.25h0a.933.933,0,0,0-.348-.779.622.622,0,0,0-.57-.108l-1.174.35a2.035,2.035,0,0,1-.271.048l-.005,0A.474.474,0,0,1,5.575-3.1l.387-1.191a.642.642,0,0,0-.052-.526.877.877,0,0,0-.6-.41l-.429-.055c-.208-.018-.4-.02-.42-.02H4.449a.823.823,0,0,0-.589.233.732.732,0,0,0-.208.549l.064,1.222c0,.094-.046.151-.067.153,0,0-.137.015-.279.036L3.1-3.062c-.028.009-.1-.038-.12-.121L2.712-4.41a.7.7,0,0,0-.321-.457.746.746,0,0,0-.577-.085,3.785,3.785,0,0,0-.8.246l0,.007a.9.9,0,0,0-.426.4.628.628,0,0,0-.009.559l.5,1.1a1.1,1.1,0,0,1,.061.214l-.117.134-.033.043a.293.293,0,0,1-.166-.025L-.3-2.817a.668.668,0,0,0-.551-.019.8.8,0,0,0-.45.474s-.068.192-.129.387-.1.385-.1.385h0a.776.776,0,0,0,.1.609.729.729,0,0,0,.479.328l1.2.237c.087.018.132.079.125.122L.3.168A1.035,1.035,0,0,1,.08.224" transform="translate(1.897 5.3)" fill="#9fff42"/>
    </g>
    <g id="Gruppe_46760" data-name="Gruppe 46760" transform="translate(1483.737 1592.447)">
      <path id="Pfad_46641" data-name="Pfad 46641" d="M0,.109C-.032.5.337.893.616,1.131a.509.509,0,0,0,.566.014C1.8.855,2.888.271,2.888.271L3.277.9a.33.33,0,0,0,.51.066S4.012.8,4.119.724A.321.321,0,0,0,4.188.308c-.064-.1-.226-.471-.226-.471s.754-.382.772-.829c.008-.176-.327-.745-.49-.773a3.415,3.415,0,0,0-1.58.454c-.1.041-.43-.611-.639-1.035a.421.421,0,0,0-.5-.217l-.323.1a.424.424,0,0,0-.272.557A5.793,5.793,0,0,1,1.305-.823C1.232-.639.041-.382,0,.109" transform="translate(0.002 2.581)" fill="#87dc39"/>
    </g>
  </g>
</svg>
