<svg xmlns="http://www.w3.org/2000/svg" width="11.265" height="15.02" viewBox="0 0 11.265 15.02">
  <path id="Icon_awesome-file-contract" data-name="Icon awesome-file-contract" d="M6.571,3.99V0H.7A.7.7,0,0,0,0,.7V14.316a.7.7,0,0,0,.7.7h9.857a.7.7,0,0,0,.7-.7V4.694H7.275A.706.706,0,0,1,6.571,3.99ZM1.878,2.112a.235.235,0,0,1,.235-.235H4.459a.235.235,0,0,1,.235.235v.469a.235.235,0,0,1-.235.235H2.112a.235.235,0,0,1-.235-.235Zm0,1.878a.235.235,0,0,1,.235-.235H4.459a.235.235,0,0,1,.235.235c0,.6-.105.7-.235.7H2.112a.235.235,0,0,1-.235-.235ZM11.06,3.08,8.188.205A.7.7,0,0,0,7.689,0H7.51V3.755h3.755V3.576A.7.7,0,0,0,11.06,3.08Z" fill="#792d66"/>
</svg>
