<svg xmlns="http://www.w3.org/2000/svg" width="9.387" height="15.02" viewBox="0 0 9.387 15.02">
  <path id="Icon_metro-location" data-name="Icon metro-location" d="M13.049,1.928A4.694,4.694,0,0,0,8.355,6.622c0,4.694,4.694,10.326,4.694,10.326s4.694-5.633,4.694-10.326a4.694,4.694,0,0,0-4.694-4.694Zm0,7.569a2.875,2.875,0,1,1,2.875-2.875A2.875,2.875,0,0,1,13.049,9.5ZM11.23,6.622a1.819,1.819,0,1,1,1.819,1.819A1.819,1.819,0,0,1,11.23,6.622Z" transform="translate(-8.355 -1.928)" fill="#792d66"/>
</svg>
