<svg xmlns="http://www.w3.org/2000/svg" width="45.983" height="40.083" viewBox="0 0 45.983 40.083">
  <g id="Gruppe_40148" data-name="Gruppe 40148" transform="translate(-839.74 -396.106)">
    <g id="Gruppe_40125" data-name="Gruppe 40125" transform="translate(855.803 420.043)">
      <path id="Pfad_32581" data-name="Pfad 32581" d="M-4.545-6.825c3.114,0,6.61-1.192,8.367-3.041,1.238-1.3,1.422-3.2,1.691-4.97C5.869-19.2.765-21.957-4.545-21.957S-14.959-19.2-14.6-14.836c.269,1.77.453,3.666,1.691,4.97,1.757,1.849,5.254,3.041,8.367,3.041" transform="translate(14.62 21.957)" fill="#b9e69c"/>
    </g>
    <g id="Gruppe_40126" data-name="Gruppe 40126" transform="translate(865.879 420.043)">
      <path id="Pfad_32582" data-name="Pfad 32582" d="M-4.537-3.212c.356-4.362-4.749-7.121-10.058-7.121V4.8c3.114,0,6.61-1.192,8.367-3.041,1.239-1.3,1.422-3.2,1.691-4.97" transform="translate(14.595 10.333)" fill="#9fc686"/>
    </g>
    <g id="Gruppe_40127" data-name="Gruppe 40127" transform="translate(862.346 398.145)">
      <path id="Pfad_32583" data-name="Pfad 32583" d="M-.66-6.675c.174.765,2.07.829,2.07,3.062V-21.474c-.744,0-.622,1.615-1.613,1.861-1.381.342-1.977.461-1.917,1.205.245,3.073,2.7,2.355,2.721,3.989.019,1.461-2.393.091-2.044,1.875.19.974,1.613,1.365,1.613,1.861s-1.605-.31-1.365.992C-1.058-8.949.418-8.451.294-7.83S-.92-7.812-.66-6.675" transform="translate(2.123 21.474)" fill="#66b338"/>
    </g>
    <g id="Gruppe_40128" data-name="Gruppe 40128" transform="translate(865.879 398.145)">
      <path id="Pfad_32584" data-name="Pfad 32584" d="M-1.592-1.383c.059-.744-.536-.864-1.917-1.205-.99-.245-.868-1.861-1.613-1.861V13.412c0-2.233,1.9-2.3,2.07-3.062.26-1.137-.83-.535-.954-1.156s1.351-1.119,1.489-1.86c.24-1.3-1.365-.5-1.365-.992s1.422-.887,1.613-1.861c.349-1.784-2.063-.414-2.044-1.875C-4.292.972-1.838,1.69-1.592-1.383" transform="translate(5.122 4.449)" fill="#52912c"/>
    </g>
    <g id="Gruppe_40129" data-name="Gruppe 40129" transform="translate(865.416 398.145)">
      <path id="Pfad_32585" data-name="Pfad 32585" d="M-.187,0-.6,21.933H.324L-.091,0Z" transform="translate(0.602)" fill="#b9e69c"/>
    </g>
    <g id="Gruppe_40130" data-name="Gruppe 40130" transform="translate(851.616 401.142)">
      <path id="Pfad_32586" data-name="Pfad 32586" d="M-2.555-.486C-3.808-2.447-5.5-1.249-6.314-.649S-7.24-1.521-8.22-.976C-.921,6.323.986,12.7.986,12.7c-.763-2.506,1.471-2.178,1.2-3.431S.768,9.973.332,8.611s2.614-.871,1.852-3.1S.223,5.452-.43,4.743.931,2.946.277,2.4s-1.58,1.2-2.015.491S-1.3,1.475-2.555-.486" transform="translate(8.22 1.564)" fill="#52912c"/>
    </g>
    <g id="Gruppe_40131" data-name="Gruppe 40131" transform="translate(851.569 401.73)">
      <path id="Pfad_32587" data-name="Pfad 32587" d="M-3.166-5.16C-2.73-4.615-1.859-5-1.15-3.253c0,0-2.942-8.5-8.988-13.346-.292.292.879.708.36,1.345-.269.329-.743,1.1.565,2.413,1.689,1.688,2.288.49,3.105,1.416.34.385-.926.272-.381.708A4.005,4.005,0,0,1-5.181-9.681c.381.6-.817.327.163,1.526,1.311,1.6,1.471.381,1.906,1.362S-3.6-5.7-3.166-5.16" transform="translate(10.186 16.599)" fill="#66b338"/>
    </g>
    <g id="Gruppe_40132" data-name="Gruppe 40132" transform="translate(851.584 401.694)">
      <path id="Pfad_32588" data-name="Pfad 32588" d="M-.672-.678C-.378-.37-.065,0,.286.384c.173.2.359.4.54.611l.534.691.564.729c.194.247.36.524.547.792l.555.824c.189.278.349.579.527.872l.527.89.482.924c.334.611.615,1.247.9,1.868s.521,1.254.773,1.853c.216.614.448,1.2.624,1.769s.353,1.1.487,1.606c.285,1,.47,1.845.589,2.435.059.3.1.527.125.68s.039.243.039.243l1-.167s-.018-.088-.05-.252-.089-.411-.162-.714c-.148-.606-.374-1.467-.707-2.477-.159-.508-.354-1.05-.566-1.621s-.463-1.161-.708-1.777c-.283-.6-.542-1.235-.865-1.852s-.629-1.254-.992-1.861l-.527-.917-.571-.881c-.193-.289-.368-.586-.57-.86l-.6-.812c-.2-.263-.379-.534-.586-.777l-.6-.713L1.033.817C.842.606.645.413.463.222.093-.155-.236-.509-.544-.807l-.831-.735-.723-.64-.063.073.694.667.8.764" transform="translate(2.161 2.182)" fill="#b9e69c"/>
    </g>
    <g id="Gruppe_40133" data-name="Gruppe 40133" transform="translate(869.025 401.774)">
      <path id="Pfad_32589" data-name="Pfad 32589" d="M-.056-3.189C-.818-.955,2.233-1.446,1.8-.084S.217-.683-.056.57,1.906,1.5,1.143,4c0,0,1.906-6.373,9.206-13.673-.981-.545-1.09.926-1.906.327s-2.506-1.8-3.759.163S4.3-6.512,3.867-5.8,2.5-6.839,1.851-6.293s1.362,1.634.708,2.342S.707-5.422-.056-3.189" transform="translate(0.179 10.259)" fill="#406f22"/>
    </g>
    <g id="Gruppe_40134" data-name="Gruppe 40134" transform="translate(870.564 402.362)">
      <path id="Pfad_32590" data-name="Pfad 32590" d="M-4.054,0c-6.047,4.848-8.988,13.346-8.988,13.346.708-1.744,1.58-1.362,2.016-1.907s-.491-.653-.054-1.634.595.241,1.906-1.362c.981-1.2-.218-.926.163-1.525A3.993,3.993,0,0,1-7.7,5.883c.545-.436-.722-.323-.381-.708.817-.926,1.416.272,3.1-1.416,1.309-1.309.835-2.084.566-2.413C-4.934.708-3.762.292-4.054,0" transform="translate(13.042)" fill="#518f2c"/>
    </g>
    <g id="Gruppe_40135" data-name="Gruppe 40135" transform="translate(868.257 402.326)">
      <path id="Pfad_32591" data-name="Pfad 32591" d="M-.582-8.319c.116-.589.3-1.433.58-2.432.133-.5.3-1.039.482-1.606s.4-1.155.617-1.769c.251-.6.478-1.234.767-1.853s.563-1.258.895-1.869l.479-.926.523-.89c.177-.293.337-.595.524-.872l.553-.826c.185-.268.351-.544.544-.793l.562-.731.532-.693c.181-.216.366-.416.538-.613.349-.389.661-.756.954-1.065l.793-.766.692-.669-.063-.073-.725.637-.833.733c-.309.3-.64.65-1.01,1.026-.183.19-.38.383-.573.593l-.569.673-.6.713c-.207.242-.387.513-.588.776l-.6.81c-.2.274-.379.571-.573.859l-.573.88-.531.917c-.366.606-.68,1.24-1,1.859s-.586,1.252-.87,1.852c-.247.615-.51,1.2-.715,1.777s-.411,1.114-.571,1.622c-.336,1.011-.565,1.872-.715,2.48-.074.3-.13.545-.164.716s-.051.252-.051.252l1.13.189s.012-.085.037-.243.065-.382.123-.678" transform="translate(1.872 26.763)" fill="#9fc686"/>
    </g>
    <g id="Gruppe_40136" data-name="Gruppe 40136" transform="translate(857.463 427.616)">
      <path id="Pfad_32592" data-name="Pfad 32592" d="M-.113-.076h0A1.6,1.6,0,0,0-.2-.244c-.054.029-.108.059-.162.09Z" transform="translate(0.363 0.244)" fill="#9fc686"/>
    </g>
    <g id="Gruppe_40137" data-name="Gruppe 40137" transform="translate(855.935 426.653)">
      <path id="Pfad_32593" data-name="Pfad 32593" d="M-.009-.016a.029.029,0,0,1-.019,0l.007,0c0-.006.02,0,.043,0V-.053C.01-.036,0-.027-.009-.016" transform="translate(0.028 0.053)" fill="#9fc686"/>
    </g>
    <g id="Gruppe_40138" data-name="Gruppe 40138" transform="translate(855.557 425.745)">
      <path id="Pfad_32594" data-name="Pfad 32594" d="M-.173-.429l-.007,0a.025.025,0,0,0,.019,0c.008-.01.019-.019.032-.036h0c0-.01,0-.034,0-.032a.04.04,0,0,1,0,.031v.048l.031,0,.118.044a2.446,2.446,0,0,1,.487.311,2.862,2.862,0,0,1,.771.87h0L1.37.974l.158-.09c.3-.172.628-.329.95-.478S3.133.122,3.468,0s.673-.242,1.014-.346S5.17-.541,5.516-.628s.7-.154,1.05-.2.707-.092,1.061-.134c.356-.016.711-.051,1.067-.04.176,0,.36,0,.529.008l.54.037.026-.373L9.247-1.37c-.192-.014-.369,0-.554-.008-.367-.01-.732.026-1.1.044-.363.043-.728.072-1.088.14s-.718.136-1.075.212-.708.181-1.056.29-.695.225-1.035.356-.677.271-1.011.42c-.277.129-.549.261-.82.408.031.054.061.109.088.168h0L1.348.581C1.4.55,1.456.521,1.51.491a2.9,2.9,0,0,0-.289-.4,3.862,3.862,0,0,0-.47-.462,2.8,2.8,0,0,0-.56-.378C.136-.771.078-.795.017-.816A.614.614,0,0,0-.219-.844a.28.28,0,0,0-.159.05.273.273,0,0,0-.135.148.54.54,0,0,0-.036.1.3.3,0,0,0,0,.046l0,.079.427.027V-.425c-.023,0-.044-.01-.043,0" transform="translate(0.558 1.38)" fill="#9fc686"/>
    </g>
    <g id="Gruppe_40139" data-name="Gruppe 40139" transform="translate(868.313 427.824)">
      <path id="Pfad_32595" data-name="Pfad 32595" d="M0-.277l.289.121a2.006,2.006,0,0,0,.12-.571c0-.054,0-.109,0-.164-.044.052-.088.1-.129.158A2.679,2.679,0,0,0,0-.277" transform="translate(0 0.89)" fill="#b9e69c"/>
    </g>
    <g id="Gruppe_40140" data-name="Gruppe 40140" transform="translate(865.858 425.765)">
      <path id="Pfad_32596" data-name="Pfad 32596" d="M-1.237-1.261A2.55,2.55,0,0,1-.7-2.023a1.835,1.835,0,0,1,.8-.471A1.725,1.725,0,0,1,.559-2.56a2.971,2.971,0,0,1,.481.04c.314.054.64.138.959.223a11.05,11.05,0,0,0,1.971.418,3.315,3.315,0,0,0,.51,0,2.476,2.476,0,0,0,.506-.088,1.9,1.9,0,0,0,.468-.213,2.1,2.1,0,0,0,.4-.323l-.07-.066a2.009,2.009,0,0,1-.385.294,1.79,1.79,0,0,1-.444.189,2.411,2.411,0,0,1-.481.07,3.219,3.219,0,0,1-.489-.014,10.894,10.894,0,0,1-1.928-.465c-.322-.094-.641-.187-.983-.255a3.157,3.157,0,0,0-.513-.056,2.014,2.014,0,0,0-.528.061,2.114,2.114,0,0,0-.923.513A2.24,2.24,0,0,0-1.117-2c0,.055,0,.11,0,.165a2.008,2.008,0,0,1-.121.57l-.289-.121a2.727,2.727,0,0,1,.279-.456c.041-.054.085-.106.129-.158a1.489,1.489,0,0,0-.062-.414,1.389,1.389,0,0,0-.1-.276,1.487,1.487,0,0,0-.151-.253,1.508,1.508,0,0,0-.191-.222,1.3,1.3,0,0,0-.219-.189,2.859,2.859,0,0,0-.486-.3c-.085-.039-.173-.068-.26-.1a2.209,2.209,0,0,0-.263-.093l-.272-.07a2.578,2.578,0,0,0-.269-.061l-.523-.083-.063.422.525.07a1.937,1.937,0,0,1,.249.05l.243.056a1.948,1.948,0,0,1,.238.076c.078.029.159.054.235.085a2.505,2.505,0,0,1,.424.243.969.969,0,0,1,.186.151,1.142,1.142,0,0,1,.159.174,1.19,1.19,0,0,1,.125.2,1.073,1.073,0,0,1,.088.216,1.436,1.436,0,0,1,.064.468,1.7,1.7,0,0,1-.083.466Z" transform="translate(3.979 4.057)" fill="#b9e69c"/>
    </g>
    <g id="Gruppe_40141" data-name="Gruppe 40141" transform="translate(871.913 430.73)">
      <path id="Pfad_32597" data-name="Pfad 32597" d="M0,0H0V0H0" fill="#b9e69c"/>
    </g>
    <g id="Gruppe_40142" data-name="Gruppe 40142" transform="translate(871.909 430.724)">
      <path id="Pfad_32598" data-name="Pfad 32598" d="M0,0,0,0H0L0,0" transform="translate(0.003 0.005)" fill="#b9e69c"/>
    </g>
    <g id="Gruppe_40143" data-name="Gruppe 40143" transform="translate(871.914 430.724)">
      <path id="Pfad_32599" data-name="Pfad 32599" d="M-.044,0c.006-.01-.006.012-.012.015A.057.057,0,0,1-.12.02.079.079,0,0,1-.143,0s0,0,0,0h0v0l.045.061.013.016L-.071.06Z" transform="translate(0.143 0.004)" fill="#b9e69c"/>
    </g>
    <g id="Gruppe_40144" data-name="Gruppe 40144" transform="translate(865.879 429.849)">
      <path id="Pfad_32600" data-name="Pfad 32600" d="M-.826-1.823a7.85,7.85,0,0,0,.871-.205A7.232,7.232,0,0,0,.977-2.4,6.08,6.08,0,0,0,1.9-2.965a5.448,5.448,0,0,0,.81-.77,4.84,4.84,0,0,0,.626-.938c.039-.078.075-.154.105-.227l-.013-.016L3.38-4.978l0,0h0c-.008-.01,0,0,0,0h0l0,0c0-.006,0,0,0,0a.079.079,0,0,0,.023.017.057.057,0,0,0,.063-.007c.006,0,.018-.025.012-.014l-.026.061L3.438-4.9a1.25,1.25,0,0,0,.083.1,1.9,1.9,0,0,0,.21.193,2.06,2.06,0,0,0,.985.427,1.866,1.866,0,0,0,.964-.137,2.527,2.527,0,0,0,1.1-.9,2.26,2.26,0,0,0,.2-.366l.048-.123-.4-.151-.045.123a1.891,1.891,0,0,1-.154.284,2.12,2.12,0,0,1-.9.773,1.494,1.494,0,0,1-.765.126A1.7,1.7,0,0,1,3.952-4.9a1.532,1.532,0,0,1-.174-.153A1.1,1.1,0,0,1,3.7-5.133l-.034-.044L3.652-5.2l-.02-.023a.266.266,0,0,0-.078-.057.289.289,0,0,0-.312.039.3.3,0,0,0-.087.123l-.024.062c-.032.086-.065.164-.1.239a4.541,4.541,0,0,1-.552.891,5.2,5.2,0,0,1-.742.755A5.87,5.87,0,0,1,.874-2.6a7.065,7.065,0,0,1-.888.391,7.884,7.884,0,0,1-.844.229,5.819,5.819,0,0,1-.731.123,4.575,4.575,0,0,1-.571.054l-.5.026v.1l.505-.01a4.57,4.57,0,0,0,.58-.035,5.934,5.934,0,0,0,.747-.1" transform="translate(2.658 5.864)" fill="#b9e69c"/>
    </g>
    <g id="Gruppe_40145" data-name="Gruppe 40145" transform="translate(871.914 430.73)">
      <path id="Pfad_32601" data-name="Pfad 32601" d="M0,0H0V0H0L0,0" fill="#b9e69c"/>
    </g>
    <g id="Gruppe_40146" data-name="Gruppe 40146" transform="translate(860.855 431.183)">
      <path id="Pfad_32602" data-name="Pfad 32602" d="M0,0s0,.037,0,.087A1.9,1.9,0,0,0,0,.308,2.293,2.293,0,0,0,.069.636a2.075,2.075,0,0,0,.154.4,2.285,2.285,0,0,0,.27.426,2.649,2.649,0,0,0,.393.394l.231.178.256.149a3.77,3.77,0,0,0,.543.252,5.582,5.582,0,0,0,.566.177,4.979,4.979,0,0,0,.559.116,9.412,9.412,0,0,0,1,.114c.292.012.535.008.706.012l.267,0,0-.107-.267-.015c-.17-.012-.413-.019-.7-.045l-.462-.063a3.659,3.659,0,0,1-.511-.091A5.04,5.04,0,0,1,2.541,2.4a5.306,5.306,0,0,1-.534-.192,3.4,3.4,0,0,1-.5-.257l-.231-.146-.2-.17a2.3,2.3,0,0,1-.334-.362A2.018,2.018,0,0,1,.524.9,1.742,1.742,0,0,1,.408.551,1.841,1.841,0,0,1,.365.276a1.389,1.389,0,0,1,0-.227Z" transform="translate(0.007)" fill="#9fc686"/>
    </g>
    <g id="Gruppe_40147" data-name="Gruppe 40147" transform="translate(870.137 419.898)">
      <path id="Pfad_32603" data-name="Pfad 32603" d="M-.965-.21a.219.219,0,0,0-.1-.254L-1.389-.65a.192.192,0,0,0-.24.037c-.236.263-.86.864-1.474.694l1.72,1.068Z" transform="translate(3.103 0.676)" fill="#9fc686"/>
    </g>
    <path id="Pfad_39090" data-name="Pfad 39090" d="M0-72.1H45.983v-40.083H0Z" transform="translate(839.74 508.285)" fill="none"/>
  </g>
</svg>
