<svg id="Gruppe_47669" data-name="Gruppe 47669" xmlns="http://www.w3.org/2000/svg" width="17.526" height="45.112" viewBox="0 0 17.526 45.112">
  <g id="Gruppe_25677" data-name="Gruppe 25677" transform="translate(1.434 3.382)">
    <path id="Pfad_25981" data-name="Pfad 25981" d="M-4.323-12.128A59.517,59.517,0,0,0-5.837-18.04c-.5-1.138-3.382-10.99-4-12.485s-1.559-5.1-1.559-5.1S-12.567-36.5-12.874-36s4.02,17.351,4.781,17.97,2.534,5.887,2.534,5.887Z" transform="translate(12.889 36.159)" fill="#3a5b35"/>
  </g>
  <g id="Gruppe_25678" data-name="Gruppe 25678" transform="translate(4.603 0.565)">
    <path id="Pfad_25982" data-name="Pfad 25982" d="M-1.49-11.234s-.845-4.868-.947-7.053-.934-10.665-.819-12.091a15.105,15.105,0,0,0-.055-2.755s-1.071-.71-1.117-.14c-.088,2.328.251,12.758.421,14.326s1.329,7.478,1.329,7.478Z" transform="translate(4.443 33.496)" fill="#568759"/>
  </g>
  <g id="Gruppe_25679" data-name="Gruppe 25679" transform="translate(0.001 0)">
    <path id="Pfad_25983" data-name="Pfad 25983" d="M-4.966-13.474a11.592,11.592,0,0,1-2.485-4.792c-.976-.782-1.285-.638-1.285-.638s-3.622-11.821-3.8-15.171a48.758,48.758,0,0,0-.611-5.7s-1.57-.9-1.663,0c.1,1.354,1.445,15.011,4.67,21.18,2.275,4.35,3.439,5.977,3.821,7s2.391,5.1,2.68,6.55S-3.739-.053-2.147.2A6.216,6.216,0,0,1-.2-.372s-.005-1.9-1.879-5.05a33.9,33.9,0,0,1-2.887-8.051" transform="translate(14.807 40.172)" fill="#7c9e59"/>
  </g>
  <g id="Gruppe_25680" data-name="Gruppe 25680" transform="translate(10.265 31.377)">
    <path id="Pfad_25984" data-name="Pfad 25984" d="M-.4-.025C-.366,0,.088,1.163.125,1.187.144,1.2-.255.077-.236.089S.317,1.4.348,1.416-.09.171-.062.184A2.941,2.941,0,0,1,.175.628,2.138,2.138,0,0,1,.15.239a7.284,7.284,0,0,1,.386.8A6.139,6.139,0,0,1,.388.2,19.423,19.423,0,0,0,1.809,3.3c1.873,3.15,1.878,5.05,1.878,5.05a6.226,6.226,0,0,0-1.947.576C.148,8.667.542,5.126.253,3.677A24.69,24.69,0,0,0-1.193-.076c.013,0,.429.783.429.783S-1.014-.046-1-.045A3.645,3.645,0,0,1-.7.512,3.51,3.51,0,0,1-.881-.037C-.829-.032,0,1.75,0,1.75S-.665-.023-.635-.023a2.975,2.975,0,0,1,.306.51A2.943,2.943,0,0,1-.4-.025" transform="translate(1.193 0.076)" fill="#f4edea"/>
  </g>
  <g id="Gruppe_25681" data-name="Gruppe 25681">
    <path id="Pfad_25985" data-name="Pfad 25985" d="M-.839-.2A48.758,48.758,0,0,1-.229,5.5c.1,1.943,1.364,6.738,2.405,10.422-.014.013.181.97.181.97s-.253-.905-.267-.893.071.421.071.421-.117-.381-.124-.375.137.658.137.658a4.286,4.286,0,0,0-.252-.568c-.03.023.383,1.379.383,1.379s-.5-1.294-.509-1.285.119.647.119.647-.2-.59-.22-.578.27,1.012.27,1.012-.344-.964-.355-.956a2.07,2.07,0,0,0,.025.358,1.526,1.526,0,0,0-.142-.286c-.011.007.085.441.085.441A2.683,2.683,0,0,0,1.4,16.48c-.027.015.223.884.223.884s-.333-.825-.347-.817.1.393.1.393-.149-.371-.158-.366.27.867.27.867-.329-.839-.34-.835a1.43,1.43,0,0,0,0,.278s-.1-.235-.126-.226.189.677.189.677-.253-.652-.267-.647A1.736,1.736,0,0,0,.976,17s-.122-.272-.144-.264.168.775.168.775a6.82,6.82,0,0,0-.311-.726,4.308,4.308,0,0,0,.158.586s-.261-.555-.272-.552l-.036.011A97.352,97.352,0,0,1-2.5-.2c.092-.9,1.664,0,1.664,0" transform="translate(2.503 0.598)" fill="#44723f"/>
  </g>
  <g id="Gruppe_25682" data-name="Gruppe 25682" transform="translate(0 0.003)">
    <path id="Pfad_25986" data-name="Pfad 25986" d="M-.2,0S.289,5.149,1.152,9.746A74.477,74.477,0,0,0,3.715,19.1c-.406.818-1.426-2.173-1.426-2.173a64.975,64.975,0,0,1-1.545-6.7C.465,7.767-.6.4-.6.4Z" transform="translate(0.604)" fill="#6b9677"/>
  </g>
  <g id="Gruppe_25683" data-name="Gruppe 25683" transform="translate(13.906 39.917)">
    <path id="Pfad_25987" data-name="Pfad 25987" d="M-.667-2.568A19.949,19.949,0,0,0-1.1-5.114c-.118-.419-.294-.816-.4-1.238a2.953,2.953,0,0,0-.456-1.126c-.1-.122.106-.253.2-.132A3.014,3.014,0,0,1-1.29-6.468c.112.436.29.846.413,1.278A19.7,19.7,0,0,1-.428-2.584c.022.153-.217.168-.239.016" transform="translate(1.988 7.657)" fill="#c1af89"/>
  </g>
  <g id="Gruppe_25684" data-name="Gruppe 25684" transform="translate(13.987 39.896)">
    <path id="Pfad_25988" data-name="Pfad 25988" d="M-.961-2.335A4.824,4.824,0,0,0-1.72-4.449,15.541,15.541,0,0,0-2.843-6.78c-.09-.126.11-.257.2-.132A15.733,15.733,0,0,1-1.5-4.545a5,5,0,0,1,.78,2.193c0,.154-.239.171-.239.017" transform="translate(2.866 6.962)" fill="#c1af89"/>
  </g>
  <g id="Gruppe_25685" data-name="Gruppe 25685" transform="translate(14.571 39.861)">
    <path id="Pfad_25989" data-name="Pfad 25989" d="M-.113-.024A8.413,8.413,0,0,1,.927,2.031c.292.719.832,1.308,1.087,2.046a.12.12,0,0,1-.227.076C1.542,3.442,1.019,2.879.733,2.188A8.634,8.634,0,0,0-.313.107c-.094-.122.106-.253.2-.132" transform="translate(0.338 0.072)" fill="#c1af89"/>
  </g>
  <g id="Gruppe_25686" data-name="Gruppe 25686" transform="translate(13.608 39.856)">
    <path id="Pfad_25990" data-name="Pfad 25990" d="M-.1-.016a1.848,1.848,0,0,1,.419.83A11.3,11.3,0,0,1,.6,2.089c.076.425.141.851.221,1.274a2.067,2.067,0,0,0,.214.758c.091.125-.109.255-.2.131a1.886,1.886,0,0,1-.225-.724C.53,3.116.467,2.7.4,2.289.321,1.855.24,1.419.122.993A1.79,1.79,0,0,0-.259.162C-.372.057-.213-.122-.1-.016" transform="translate(0.298 0.049)" fill="#c1af89"/>
  </g>
  <g id="Gruppe_25687" data-name="Gruppe 25687" transform="translate(13.395 39.773)">
    <path id="Pfad_25991" data-name="Pfad 25991" d="M-.121-.054c.094,1.446.2,2.89.387,4.329.019.154-.219.168-.239.016C-.156,2.853-.265,1.408-.359-.038A.12.12,0,0,1-.121-.054" transform="translate(0.359 0.162)" fill="#c1af89"/>
  </g>
  <g id="Gruppe_25688" data-name="Gruppe 25688" transform="translate(12.872 40.058)">
    <path id="Pfad_25992" data-name="Pfad 25992" d="M-.1-.014A1.006,1.006,0,0,1,.2.608a4.445,4.445,0,0,1,.035.968c-.015.352-.045.7-.063,1.054a3.222,3.222,0,0,0,.023.827c.032.149-.194.227-.227.077a3.1,3.1,0,0,1-.041-.769c.013-.338.042-.675.06-1.012A6.1,6.1,0,0,0-.021.78.9.9,0,0,0-.261.164c-.119-.1.041-.276.16-.178" transform="translate(0.303 0.043)" fill="#c1af89"/>
  </g>
  <g id="Gruppe_25689" data-name="Gruppe 25689" transform="translate(12.17 40.007)">
    <path id="Pfad_25993" data-name="Pfad 25993" d="M-.366-.054A37.253,37.253,0,0,1-.853,4.152c-.008.152-.247.17-.239.017A37.306,37.306,0,0,0-.6-.038.12.12,0,0,1-.366-.054" transform="translate(1.091 0.162)" fill="#c1af89"/>
  </g>
  <g id="Gruppe_25690" data-name="Gruppe 25690" transform="translate(14.787 39.588)">
    <path id="Pfad_25994" data-name="Pfad 25994" d="M-.116-.041c.35,1.58-.008,3.215.335,4.792.032.15-.194.227-.227.076C-.35,3.248.007,1.613-.342.036c-.033-.149.193-.227.226-.076" transform="translate(0.345 0.122)" fill="#c1af89"/>
  </g>
  <g id="Gruppe_25691" data-name="Gruppe 25691" transform="translate(14.142 39.825)">
    <path id="Pfad_25995" data-name="Pfad 25995" d="M-.123-.054c-.011.732,0,1.466.029,2.2.015.342.033.685.063,1.025a1.575,1.575,0,0,1-.093.846c-.065.14-.279.034-.214-.106a1.52,1.52,0,0,0,.062-.8c-.029-.349-.046-.7-.06-1.049-.029-.7-.035-1.4-.025-2.1,0-.154.241-.17.239-.017" transform="translate(0.366 0.161)" fill="#aa997a"/>
  </g>
  <g id="Gruppe_25692" data-name="Gruppe 25692" transform="translate(13.724 40.021)">
    <path id="Pfad_25996" data-name="Pfad 25996" d="M-.118-.04A8.962,8.962,0,0,1-.032,3.709c-.016.154-.251.106-.235-.045A8.684,8.684,0,0,0-.344.037.12.12,0,0,1-.118-.04" transform="translate(0.351 0.119)" fill="#aa997a"/>
  </g>
  <g id="Gruppe_25693" data-name="Gruppe 25693" transform="translate(12.028 40.131)">
    <path id="Pfad_25997" data-name="Pfad 25997" d="M-.566-.054a11.85,11.85,0,0,1-.883,3.6c-.043.147-.278.1-.235-.045A11.716,11.716,0,0,0-.805-.038c0-.154.235-.171.239-.017" transform="translate(1.689 0.162)" fill="#aa997a"/>
  </g>
  <g id="Gruppe_25694" data-name="Gruppe 25694" transform="translate(14.355 40.077)">
    <path id="Pfad_25998" data-name="Pfad 25998" d="M-.1-.012A1.761,1.761,0,0,1,.417.673,9.384,9.384,0,0,1,.8,1.615c.12.32.264.624.408.935.191.41.365.829.568,1.234.068.136-.131.269-.2.131-.189-.378-.357-.768-.532-1.153C.9,2.438.743,2.125.617,1.793.5,1.486.39,1.177.252.878A1.691,1.691,0,0,0-.263.166C-.39.079-.229-.1-.1-.012" transform="translate(0.309 0.035)" fill="#aa997a"/>
  </g>
  <g id="Gruppe_25695" data-name="Gruppe 25695" transform="translate(14.867 39.856)">
    <path id="Pfad_25999" data-name="Pfad 25999" d="M-.1-.015c.948.792,1.433,2,2.414,2.755.122.094-.039.272-.16.178C1.171,2.159.686.954-.261.163c-.118-.1.041-.277.16-.178" transform="translate(0.303 0.044)" fill="#aa997a"/>
  </g>
  <g id="Gruppe_25696" data-name="Gruppe 25696" transform="translate(12.728 40.018)">
    <path id="Pfad_26000" data-name="Pfad 26000" d="M-.506-.071c-.073.546-.288,1.059-.4,1.6-.129.6-.169,1.208-.358,1.792-.047.145-.282.1-.235-.046a14.54,14.54,0,0,0,.348-1.746C-1.049.97-.816.446-.741-.116c.021-.154.255-.107.235.045" transform="translate(1.509 0.21)" fill="#c1af89"/>
  </g>
  <g id="Gruppe_25697" data-name="Gruppe 25697" transform="translate(14.845 39.86)">
    <path id="Pfad_26001" data-name="Pfad 26001" d="M-.113-.024A18.281,18.281,0,0,1,.924,1.531q.5.808.968,1.634c.076.134-.124.267-.2.132-.3-.54-.623-1.073-.948-1.6A18.162,18.162,0,0,0-.313.107c-.094-.122.106-.253.2-.132" transform="translate(0.338 0.073)" fill="#c1af89"/>
  </g>
  <g id="Gruppe_25698" data-name="Gruppe 25698" transform="translate(13.272 40.117)">
    <path id="Pfad_26002" data-name="Pfad 26002" d="M-.121-.053C.046.987.03,2.046.125,3.094a.12.12,0,0,1-.239.017C-.208,2.062-.192,1-.36-.038-.384-.19-.146-.2-.121-.053" transform="translate(0.362 0.159)" fill="#aa997a"/>
  </g>
  <g id="Gruppe_25699" data-name="Gruppe 25699" transform="translate(14.832 39.866)">
    <path id="Pfad_26003" data-name="Pfad 26003" d="M-.12-.037A10.247,10.247,0,0,0,.408,1.071a11.97,11.97,0,0,0,.867.987c.094.121-.106.252-.2.131C.8,1.839.448,1.579.208,1.2A9.668,9.668,0,0,1-.347.038C-.411-.1-.184-.176-.12-.037" transform="translate(0.358 0.111)" fill="#aa997a"/>
  </g>
</svg>
