<svg xmlns="http://www.w3.org/2000/svg" width="47.962" height="43.349" viewBox="0 0 47.962 43.349">
  <g id="Gruppe_47678" data-name="Gruppe 47678" transform="translate(-1586.983 -1223.587)">
    <g id="Gruppe_47670" data-name="Gruppe 47670" transform="translate(1586.983 1223.587)">
      <path id="Pfad_48319" data-name="Pfad 48319" d="M-.239-.51c-.153.173-.281.337-.281.339C-.565-.121-.58-.1-.707-.1h0A.879.879,0,0,1-1.14-.228L-3.169-1.4a.913.913,0,0,0-.938.034,1.55,1.55,0,0,0-.416.378A2.266,2.266,0,0,0-4.773-.4l-.094.382c-.032.222-.058.524-.074.84a6.588,6.588,0,0,0,.064.8l.01.074a3.1,3.1,0,0,0,.1.409h0a1.769,1.769,0,0,0,.744,1.047.924.924,0,0,0,1.035-.013l1.859-1.3a1.1,1.1,0,0,1,.55-.231,2.789,2.789,0,0,0,.326.284c.088.074.191.152.269.207l.126.091a.541.541,0,0,1,.089.694l-1.259,2.01a1.133,1.133,0,0,0,.3,1.518l.457.316C-.062,6.87.1,7,.1,7.009l.015.012a.791.791,0,0,0,.672.144H.8a1.006,1.006,0,0,0,.82-.335L3.14,5.1a1.29,1.29,0,0,1,.4-.284c.048-.024.081-.041.1-.052.052.021.141.057.289.112a5.1,5.1,0,0,1,.739.35l.042.027a1.484,1.484,0,0,1,.345.309,1.014,1.014,0,0,1,.149.32.341.341,0,0,1-.1.344L3.364,7.812a1.556,1.556,0,0,0-.409.613.814.814,0,0,0,.077.724l.531.919h0a1.114,1.114,0,0,0,1.5.436L7.091,9.466a.478.478,0,0,1,.379-.024.534.534,0,0,1,.306.286L8.264,10.8a.517.517,0,0,1-.257.675l-2.1,1.031a1.1,1.1,0,0,0-.556.645A1.127,1.127,0,0,0,5.41,14l.62,1.222a1.2,1.2,0,0,0,.75.609,1.056,1.056,0,0,0,.853-.125L9.56,14.5a.511.511,0,0,1,.66.05l0,0a3.581,3.581,0,0,0,.576.741.59.59,0,0,1-.133.619L9.2,17.747a.985.985,0,0,0-.213.78,1.33,1.33,0,0,0,.594.906,2.215,2.215,0,0,0,.259.159l.508.279c.377.191.753.334.769.34h0a1.263,1.263,0,0,0,1.047-.041,1.063,1.063,0,0,0,.542-.678l.6-2.241c.081-.3.324-.471.51-.432l.488.082c.254.046.526.074.526.074a.522.522,0,0,1,.389.575l-.2,2.38a1.091,1.091,0,0,0,.951,1.2l1.222.125h0A1.09,1.09,0,0,0,18.022,21a1.178,1.178,0,0,0,.416-.794l.227-2.314a.507.507,0,0,1,.515-.479s.276.025.525.038c.269.023.517.021.516.021.2,0,.378.243.4.531l.143,2.377a1.038,1.038,0,0,0,.378.747,1.16,1.16,0,0,0,.739.267,1.115,1.115,0,0,0,.188-.016s.39-.051.746-.133c.382-.07.732-.172.732-.172v0a1.174,1.174,0,0,0,.848-1.469l-.659-2.224a.516.516,0,0,1,.274-.649l1.034-.38a.5.5,0,0,1,.628.315l.843,2.224a1.085,1.085,0,0,0,1.37.654l1.084-.395h0a1.175,1.175,0,0,0,.683-1.444l-.639-2.232a.494.494,0,0,1,.047-.387.531.531,0,0,1,.34-.261l1.21-.285a.52.52,0,0,1,.421.081.486.486,0,0,1,.206.327l.376,2.359a1.073,1.073,0,0,0,1.155.942s.274-.039.558-.064.552-.05.555-.05h.007A1.159,1.159,0,0,0,34.9,16.9L34.8,14.577a.518.518,0,0,1,.131-.37.5.5,0,0,1,.356-.172l.492-.023c.1.107.283.327.522.638l1.453,2.107a1.039,1.039,0,0,0,.836.461,1.319,1.319,0,0,0,1.12-.537,3.432,3.432,0,0,0,.531-1.046,4.454,4.454,0,0,0,.183-1.179v-.012h0a2.224,2.224,0,0,0-.333-1.258.975.975,0,0,0-.915-.511l-2.256.222a.488.488,0,0,1-.376-.116.532.532,0,0,1-.178-.363l-.041-.64c-.019-.314-.024-.636-.024-.64a.608.608,0,0,1,.17-.445.4.4,0,0,1,.335-.137l2.329.076a1.076,1.076,0,0,0,1.126-.946s.019-.267.054-.536.074-.526.075-.529a1.15,1.15,0,0,0-.91-1.272l-2.213-.516a.445.445,0,0,1-.289-.22.613.613,0,0,1-.053-.473s.088-.315.187-.628.2-.6.2-.609a.568.568,0,0,1,.3-.341.442.442,0,0,1,.37-.008l2.152.918a1.057,1.057,0,0,0,1.39-.508l.532-1.3h0a1.214,1.214,0,0,0-.006-.968,1.1,1.1,0,0,0-.662-.62l-2.149-.726a.5.5,0,0,1-.367-.569l.191-.969c.012-.147.257-.328.548-.3l2.324.1a.987.987,0,0,0,.814-.365,1.336,1.336,0,0,0,.271-.93L43-1.931a3.626,3.626,0,0,0-.073-.62l-.163-.829-.01-.035a1.441,1.441,0,0,0-.739-.905.945.945,0,0,0-.8-.014l-2.082.891c-.312.122-.576.054-.639-.066l-.239-.4-.28-.4a.535.535,0,0,1,.139-.678l1.8-1.506a1.094,1.094,0,0,0,.4-.73,1.109,1.109,0,0,0-.2-.8L40-8.163a2.208,2.208,0,0,1-.166-.231c-.023-.038-.051-.079-.078-.118-.01-.015-.021-.028-.029-.041l-.053-.108L39.656-8.7a.459.459,0,0,0-.454-.209l-.157.007a.789.789,0,0,1-.138-.017,1.164,1.164,0,0,0-.459-.014l-2.238.386a.512.512,0,0,1-.579-.376s-.046-.264-.1-.486a3.264,3.264,0,0,0-.088-.338l-.041-.14c-.047-.152.1-.4.375-.532l.695-.32a.922.922,0,0,0,.54-1.234s-.185-.344-.4-.684l-.446-.633a1.258,1.258,0,0,0-.906-.482.948.948,0,0,0-.713.278l-.431.5c-.235.228-.523.253-.642.14,0,0-.179-.135-.357-.273l-.4-.288a.545.545,0,0,1-.054-.662l1.1-2.1a1.035,1.035,0,0,0,.071-.806,1.222,1.222,0,0,0-.629-.722,5.6,5.6,0,0,0-.7-.308l-.658-.253h-.006a1.124,1.124,0,0,0-.93.036,1.147,1.147,0,0,0-.59.707L29.676-15.3a.485.485,0,0,1-.546.391l-1.143-.3a.506.506,0,0,1-.308-.24.529.529,0,0,1-.05-.4l.357-1.216a1.11,1.11,0,0,0-.736-1.359l-1.2-.343h0a1.086,1.086,0,0,0-.857.107,1.163,1.163,0,0,0-.542.71L24.3-16.8a.506.506,0,0,1-.611.37l-1.094-.3a.515.515,0,0,1-.337-.633l.572-2.315a1.116,1.116,0,0,0-.12-.839,1.086,1.086,0,0,0-.68-.511l-1.272-.3h0a1.135,1.135,0,0,0-.892.174,1.138,1.138,0,0,0-.48.743l-.423,2.282a.5.5,0,0,1-.545.44l-1.053-.146a.514.514,0,0,1-.386-.571l.148-2.382a1.062,1.062,0,0,0-.272-.784,1.165,1.165,0,0,0-.846-.379s-.368-.007-.755.012l-.765.06h0a1.28,1.28,0,0,0-.931.541,1.053,1.053,0,0,0-.175.844l.476,2.265a.638.638,0,0,1-.148.618l0,.01a1.97,1.97,0,0,0-.647.323l0,0a.819.819,0,0,1-.537-.273l-1.652-1.662a.881.881,0,0,0-.746-.271,1.343,1.343,0,0,0-.978.619,2.383,2.383,0,0,0-.187.292l-.3.568c-.188.414-.343.835-.343.835v0a1.168,1.168,0,0,0,.7,1.461l2.127.807a.49.49,0,0,1,.28.267.563.563,0,0,1,0,.433s-.1.28-.223.566l-.239.575a.6.6,0,0,1-.334.324.448.448,0,0,1-.361-.022L8.18-13.82a1.04,1.04,0,0,0-1.408.376s-.121.229-.258.442-.266.4-.268.406l0,0a1.187,1.187,0,0,0,.274,1.528l1.739,1.5a.465.465,0,0,1,.156.329A.6.6,0,0,1,8.26-8.8L7.5-7.943a.489.489,0,0,1-.689,0L5.03-9.481a1.028,1.028,0,0,0-.774-.252A1.135,1.135,0,0,0,3.48-9.3l-.675.762h0a1.193,1.193,0,0,0,.031,1.583L4.366-5.243a.5.5,0,0,1,.123.361.571.571,0,0,1-.19.393l-.917.782a.488.488,0,0,1-.373.115.5.5,0,0,1-.342-.2L1.207-5.65A1.064,1.064,0,0,0-.309-5.821l-1,.84,0,0a1.231,1.231,0,0,0-.418.848,1.14,1.14,0,0,0,.28.834L.059-1.565a.524.524,0,0,1,.035.7Z" transform="translate(4.941 21.952)" fill="#621b1b"/>
    </g>
    <g id="Gruppe_47671" data-name="Gruppe 47671" transform="translate(1594.76 1228.708)">
      <path id="Pfad_48320" data-name="Pfad 48320" d="M-.422-.262l-.15.139L-1.1-.885ZM8.666,18.717l.155.023-.307,1.331c0-.007.152-1.355.152-1.355M12.042-5.307l.108.646-.1.006-.2-.009ZM22.116.952l-1.158.364c-.006-.029-.029-.167-.029-.167ZM-6.634.1a1.679,1.679,0,0,0-.68.149l-.035.015-.033.019A2.075,2.075,0,0,0-8.323,1.4a5.19,5.19,0,0,0-.3,1.142c0,.017,0,.033-.007.048h-.048l-.03.755s-.04.736-.04.736l.148.008a1.807,1.807,0,0,0,.423.687,1.626,1.626,0,0,0,1.2.478l1.4-.054,0,.021-1.378.314a1.6,1.6,0,0,0-1.029.75,1.793,1.793,0,0,0-.2,1.35s.042.17.1.378l-.007,0,.209.711.209.73.157-.049a1.713,1.713,0,0,0,.509.409A1.639,1.639,0,0,0-6.254,10a1.589,1.589,0,0,0,.531-.09l1.29-.445.023.061-1.284.58a1.628,1.628,0,0,0-.869.94A1.805,1.805,0,0,0-6.5,12.414l.157.325-.017.009.338.658.323.67L-5.544,14a1.7,1.7,0,0,0,.582.31,1.634,1.634,0,0,0,.474.07,1.621,1.621,0,0,0,.807-.216l1.193-.685.026.039-1.139.861a1.633,1.633,0,0,0-.645,1.113,1.812,1.812,0,0,0,.369,1.342s.192.246.376.457c.2.244.418.47.444.5l.531.542.1-.106a1.834,1.834,0,0,0,.7.135h0A1.58,1.58,0,0,0-.541,17.8l.918-1.064-.686,1.283a1.643,1.643,0,0,0-.128,1.29,1.824,1.824,0,0,0,.985,1.11l.531.226a4.386,4.386,0,0,0,.5.187l.161.049a1.769,1.769,0,0,0,.577.1,1.724,1.724,0,0,0,.869-.233,1.664,1.664,0,0,0,.786-1.084l.312-1.4.034,0-.108,1.43A1.684,1.684,0,0,0,4.6,20.919a1.644,1.644,0,0,0,1.139.594l.238.02,0,.021.751.039.712.058.013-.177a1.724,1.724,0,0,0,1.028-1.222A1.689,1.689,0,0,0,9.629,22.11l.842.264a1.667,1.667,0,0,0,.471.086c.1.009.209.019.3.019l.082,0a1.575,1.575,0,0,0,1.547-1.424l.11-1.3.589.826a1.605,1.605,0,0,0,1.318.689,1.7,1.7,0,0,0,1.1-.41l.277-.24.01.013.551-.5.553-.482-.11-.132a1.812,1.812,0,0,0,.147-.638,1.721,1.721,0,0,0-.444-1.25L16.05,16.61l.056-.057,1.008.989A1.643,1.643,0,0,0,18.286,18h0a1.654,1.654,0,0,0,1.185-.556l.2-.226,0,0,.462-.525.521-.585L20.538,16a1.806,1.806,0,0,0,.072-.625,1.729,1.729,0,0,0-.567-1.191l-1.012-.911.056-.067,1.079.9a1.6,1.6,0,0,0,1.027.375,1.747,1.747,0,0,0,.187-.01,1.658,1.658,0,0,0,1.133-.657l.187-.249,0,0,.43-.584.458-.61-.132-.1a1.821,1.821,0,0,0,.021-.651,1.694,1.694,0,0,0-.676-1.131l-1.036-.763,1.283.493a1.463,1.463,0,0,0,.573.116,1.556,1.556,0,0,0,.713-.179,1.881,1.881,0,0,0,.927-1.242,7.723,7.723,0,0,0,.138-.8c.049-.408.053-.785.053-.785a1.926,1.926,0,0,0-.582-1.438A1.582,1.582,0,0,0,23.8,5.452a1.2,1.2,0,0,0-.154.009l-1.4.13a.011.011,0,0,1,0,0l1.35-.435a1.608,1.608,0,0,0,.964-.843,1.78,1.78,0,0,0,.085-1.346s-.1-.293-.2-.558l-.192-.514-.3-.762-.189.1A1.7,1.7,0,0,0,22.693.858c-.052,0-.1,0-.158.007a1.594,1.594,0,0,0,.811-.61,1.843,1.843,0,0,0,.277-1.389s-.062-.294-.147-.628l.031-.012-.246-.694-.24-.711-.14.05a1.785,1.785,0,0,0-.69-.5A1.611,1.611,0,0,0,21.6-3.74a1.511,1.511,0,0,0-.71.176l-1.143.59.9-.933a1.632,1.632,0,0,0,.467-1.183,1.847,1.847,0,0,0-.586-1.3s-.187-.171-.388-.341l.037-.056-.57-.392-.526-.444-.1.123a1.99,1.99,0,0,0-.626-.1,1.681,1.681,0,0,0-.492.071,1.5,1.5,0,0,0-.949.839L16.4-5.579,16.26-6.711a1.6,1.6,0,0,0-.626-1.123,1.711,1.711,0,0,0-1.043-.354,1.8,1.8,0,0,0-.335.032l-.934.191h-.047l-.074.025a1.641,1.641,0,0,0-1.034.76,1.281,1.281,0,0,0-.427-.558l.035-.079-.444-.257L10.886-8.5l-.125.139a1.371,1.371,0,0,0-.325-.074,1.616,1.616,0,0,0-.216-.015,1.623,1.623,0,0,0-1.076.414L8.2-7.2l.747-1.188a1.694,1.694,0,0,0,.11-1.53,1.955,1.955,0,0,0-.906-.928,3.92,3.92,0,0,0-1.114-.375,4.854,4.854,0,0,0-.678-.069l-.06,0q-.1-.006-.177-.006a2.115,2.115,0,0,0-.344.026A2.058,2.058,0,0,0,4.2-10.252a1.533,1.533,0,0,0-.072,1.378l.5,1.17-.9-.7a1.555,1.555,0,0,0-.973-.338,1.784,1.784,0,0,0-.257.021,1.723,1.723,0,0,0-1.152.754l-.185.284L1.153-7.69l-.4.637-.4.618.143.1a1.811,1.811,0,0,0,.026.623,1.7,1.7,0,0,0,.739,1.081L2.382-3.9,2.316-3.8,1.194-4.6A1.62,1.62,0,0,0,.25-4.9a1.631,1.631,0,0,0-1.331.7c-.017.024-.122.178-.236.324l-.844,1.09.221.112a1.8,1.8,0,0,0,.174,1,1.622,1.622,0,0,0-.943-.314,1.4,1.4,0,0,0-.754.217l-.359.2-.2.091-.652.237.067.2a1.87,1.87,0,0,0-.319,1.7l.225.736L-5.663.486A1.388,1.388,0,0,0-6.634.1" transform="translate(8.751 11.299)" fill="#4e0a13"/>
    </g>
    <g id="Gruppe_47672" data-name="Gruppe 47672" transform="translate(1595.534 1229.463)">
      <path id="Pfad_48321" data-name="Pfad 48321" d="M-.016-.351A.865.865,0,0,0,.64-.09L2.383-.156a.333.333,0,0,1,.353.243S2.76.293,2.789.5s.068.426.069.427a.331.331,0,0,1-.264.362l-1.751.4a.872.872,0,0,0-.56.409,1.023,1.023,0,0,0-.109.769s.068.273.144.542l.149.525.311-.095-.31.1a1.031,1.031,0,0,0,.5.624.9.9,0,0,0,.721.056l1.656-.572a.322.322,0,0,1,.409.185l.314.831a.331.331,0,0,1-.179.418l-1.644.741a.892.892,0,0,0-.473.513,1.022,1.022,0,0,0,.035.769l.473.98.289-.15-.287.155A1.027,1.027,0,0,0,2.895,9a.9.9,0,0,0,.715-.08l1.524-.875a.318.318,0,0,1,.434.1l.456.734a.334.334,0,0,1-.1.439L4.479,10.4a.882.882,0,0,0-.348.6,1.044,1.044,0,0,0,.216.77s.179.23.366.445.37.416.4.444h0l.01.011h0a1.071,1.071,0,0,0,.784.34.869.869,0,0,0,.651-.3l1.159-1.342a.327.327,0,0,1,.42-.093l.336.273.312.208a.347.347,0,0,1,.057.437l-.864,1.612a.876.876,0,0,0-.064.689,1.067,1.067,0,0,0,.565.64l.544.231a3.415,3.415,0,0,0,.42.155l.175.056h0a1.034,1.034,0,0,0,.852-.077.913.913,0,0,0,.434-.6l.389-1.742c.049-.192.184-.309.326-.289l.827.106a.339.339,0,0,1,.285.358l-.138,1.835a.936.936,0,0,0,.853,1l.965.078.026-.331-.024.332a.974.974,0,0,0,1.02-.876l.2-1.784a.307.307,0,0,1,.12-.208.352.352,0,0,1,.277-.065l.5.08c.226.031.45.087.465.09a.4.4,0,0,1,.261.177.277.277,0,0,1,.037.215l-.416,1.8a.942.942,0,0,0,.619,1.124l.857.269h0a1.036,1.036,0,0,0,.311.052c.073.008.161.015.232.015h.044a.847.847,0,0,0,.853-.736l.152-1.778a4.584,4.584,0,0,1,.1-.489l0,0c.034-.017.072-.036.11-.059l0,0,.213-.139a.332.332,0,0,1,.393.136l1.056,1.484a.846.846,0,0,0,.59.359.962.962,0,0,0,.751-.223l.824-.716-.211-.251.214.249a1.028,1.028,0,0,0,.342-.72.968.968,0,0,0-.248-.7l-1.191-1.312a.335.335,0,0,1,0-.463l.627-.64a.318.318,0,0,1,.451,0l1.3,1.273a.9.9,0,0,0,.644.253.924.924,0,0,0,.662-.311l.691-.775-.24-.226.242.223a1.02,1.02,0,0,0,.253-.737.974.974,0,0,0-.319-.67L25.893,8.986a.339.339,0,0,1-.033-.467l.575-.7a.318.318,0,0,1,.451-.042l1.4,1.157a.867.867,0,0,0,.666.2.93.93,0,0,0,.634-.367l.629-.84-.257-.2.258.2a1.044,1.044,0,0,0,.192-.775.945.945,0,0,0-.376-.634L28.607,5.47a.337.337,0,0,1-.1-.436s.129-.191.225-.358c.06-.095.108-.183.137-.236l.09-.116a.229.229,0,0,1,.078-.046.443.443,0,0,1,.275.013l1.674.642a.77.77,0,0,0,.669-.037A1.124,1.124,0,0,0,32.2,4.15a7.222,7.222,0,0,0,.124-.714c.043-.354.047-.7.047-.7h0v0h0a1.158,1.158,0,0,0-.343-.868.843.843,0,0,0-.671-.236l-1.733.16c-.194.009-.35-.076-.373-.2,0,0-.033-.2-.078-.4s-.1-.413-.1-.415A.335.335,0,0,1,29.307.4L31.02-.155a.874.874,0,0,0,.522-.46,1.014,1.014,0,0,0,.045-.77s-.089-.273-.187-.527l-.186-.5h0l0-.007h0A.946.946,0,0,0,30.04-2.93L28.361-2.4a.238.238,0,0,1-.2-.03.447.447,0,0,1-.2-.3s-.062-.259-.1-.5l-.084-.5a.322.322,0,0,1,.266-.388l1.767-.293a.85.85,0,0,0,.579-.363,1.049,1.049,0,0,0,.156-.793s-.063-.3-.143-.617-.193-.626-.193-.626l-.306.108.3-.113a1.147,1.147,0,0,0-.639-.7.824.824,0,0,0-.7.031l-1.556.8c-.2.1-.365.052-.41-.016l-.008,0a2.225,2.225,0,0,0-.462-.619l.007-.007a.348.348,0,0,1,.077-.413l1.264-1.306a.874.874,0,0,0,.247-.634,1.064,1.064,0,0,0-.34-.75s-.215-.2-.432-.376l-.424-.357-.207.257.181-.276a1.305,1.305,0,0,0-1.083-.231.772.772,0,0,0-.494.437l-.74,1.622a.9.9,0,0,1-.21.28l-.059.028a1.708,1.708,0,0,0-.254-.04l-.335-.011h0A.381.381,0,0,1,23.4-9.4l-.226-1.821a.854.854,0,0,0-.337-.6A.992.992,0,0,0,22.049-12l-1,.205h0a.974.974,0,0,0-.734,1.138L20.6-8.887a.262.262,0,0,1-.054.205.428.428,0,0,1-.3.161l-.54.037-.6-.028a.624.624,0,0,1-.453-.25.155.155,0,0,1-.022-.14l.521-1.777c.1-.409.069-.884-.236-1.058a1.9,1.9,0,0,0-.185-.124c-.083-.084-.16-.157-.16-.157l-.249.273.151-.341a1.285,1.285,0,0,0-.485-.186.888.888,0,0,0-.717.223L15.945-10.87a.323.323,0,0,1-.425-.006l-.276-.294c-.137-.137-.273-.25-.275-.251a.175.175,0,0,1-.046-.127.564.564,0,0,1,.085-.287l.973-1.548a.892.892,0,0,0,.058-.806,1.278,1.278,0,0,0-.608-.589,3.321,3.321,0,0,0-.878-.284,4.267,4.267,0,0,0-.582-.059l-.07,0a1.434,1.434,0,0,0-.359.014h0a1.322,1.322,0,0,0-1.05.639.779.779,0,0,0-.044.708l.7,1.639a1.03,1.03,0,0,1,.083.349c0,.03,0,.049,0,.054a2.554,2.554,0,0,0-.456.458l0,0a.334.334,0,0,1-.42-.009L10.93-12.391a.848.848,0,0,0-.666-.169.978.978,0,0,0-.653.427l-.585.9.271.183-.273-.18a1.03,1.03,0,0,0-.135.766.964.964,0,0,0,.416.609l1.475.963a.338.338,0,0,1,.094.463l-.514.81a.365.365,0,0,1-.231.161A.287.287,0,0,1,9.9-7.507L8.425-8.559a.9.9,0,0,0-1.253.207s-.128.189-.263.362l-.275.356h0l-.006.006h0a.991.991,0,0,0,.133,1.334l1.3,1.2A.266.266,0,0,1,8.15-4.9a.44.44,0,0,1-.133.317s-.172.182-.366.356-.379.343-.378.343a.461.461,0,0,1-.354.114.235.235,0,0,1-.165-.1L5.714-5.379A.866.866,0,0,0,4.559-5.7L4.2-5.5a1.7,1.7,0,0,1-.292.14l.1.311-.128-.3a1,1,0,0,0-.461,1.2l.523,1.719a.236.236,0,0,1-.028.189.473.473,0,0,1-.3.219L3.471-2c-.09.016-.179.031-.208.035v.01a3.737,3.737,0,0,1-.423-.311L1.487-3.545a.758.758,0,0,0-.864-.1A1.37,1.37,0,0,0,.006-2.9a4.492,4.492,0,0,0-.258.972c-.056.366-.075.707-.075.707L0-1.2l-.324-.014a1.155,1.155,0,0,0,.311.862" transform="translate(0.328 15.13)" fill="#781128"/>
    </g>
    <g id="Gruppe_47673" data-name="Gruppe 47673" transform="translate(1600.646 1234.76)">
      <path id="Pfad_48322" data-name="Pfad 48322" d="M-.666-.411l.259.2L-.69-.34s.016-.05.024-.071M-5.055-15.037a1.523,1.523,0,0,0-.308.03,1.647,1.647,0,0,0-1.065.722l-.521.8a1.671,1.671,0,0,0-.269.911L-7.35-12.6l-.658-.223-.051.163a1.723,1.723,0,0,0-.767.275,1.633,1.633,0,0,0-.72,1.1l-.162.934-.757-.823a1.426,1.426,0,0,0-1.111-.519,1.533,1.533,0,0,0-.161.009A1.946,1.946,0,0,0-13.217-10.6a5.549,5.549,0,0,0-.4,1.021,6.507,6.507,0,0,0-.164.829,1.872,1.872,0,0,0,.405,1.48,1.594,1.594,0,0,0,1.2.577l.9.016-.892.179a1.607,1.607,0,0,0-1.055.725,1.764,1.764,0,0,0-.225,1.329l.069.285-.012,0,.189.731.174.722.172-.045a1.657,1.657,0,0,0,.44.372,1.657,1.657,0,0,0,.837.229,1.723,1.723,0,0,0,.456-.063l.721-.2-.734.658A1.588,1.588,0,0,0-11.711-.54,1.76,1.76,0,0,0-11.15.808s.2.194.419.38l-.021.032.588.418.555.44.106-.141a1.7,1.7,0,0,0,.366.039,1.657,1.657,0,0,0,.34-.034A1.629,1.629,0,0,0-7.739,1.2l.469-.746-.371.838a1.688,1.688,0,0,0-.042,1.3,1.669,1.669,0,0,0,.9.951s.177.08.386.162l-.008.023.668.225.682.257L-5,4.042a1.7,1.7,0,0,0,.646-.2,1.679,1.679,0,0,0,.812-1.028l.239-.847.041.973a1.493,1.493,0,0,0,.575,1.212,1.9,1.9,0,0,0,1.194.4,2.3,2.3,0,0,0,.681-.107l.244-.093a2.608,2.608,0,0,0,.751-.4,3.659,3.659,0,0,0,.863-.83l.442-.608-.083-.063a2.327,2.327,0,0,0,.111-.773A1.662,1.662,0,0,0,1.3.882l.4.208.391-.4a1.707,1.707,0,0,0,1.059-1.73l0-.341.451.944a1.446,1.446,0,0,0,1.141.87,1.544,1.544,0,0,0,.231.017A1.781,1.781,0,0,0,6.356-.264a4.844,4.844,0,0,0,.571-.917c.038-.077.074-.154.108-.231l.034.013.248-.71c0-.006.252-.7.252-.7L7.433-2.86a1.716,1.716,0,0,0-.159-.655,1.729,1.729,0,0,0-1.024-.9l-.8-.25.848.168a1.529,1.529,0,0,0,.327.036,1.6,1.6,0,0,0,.923-.3,1.693,1.693,0,0,0,.691-1.118l.044-.282h.01l.1-.729.115-.761-.173-.025a1.742,1.742,0,0,0-.28-.544,1.645,1.645,0,0,0-1.139-.655L6.25-8.95l.993-.722a1.513,1.513,0,0,0,.678-1.315,1.842,1.842,0,0,0-.937-1.541,4.589,4.589,0,0,0-.933-.4c-.075-.027-.153-.05-.229-.071l0-.014L4.4-13.348l-.039.173a1.669,1.669,0,0,0-.917.608A1.64,1.64,0,0,0,2.781-13.9a1.351,1.351,0,0,0-.677-.376l-.147-.079-.024.046a2.094,2.094,0,0,0-.286-.021A2.075,2.075,0,0,0,.92-14.2l-.687.271.6-.907A1.5,1.5,0,0,0,1.052-16.2,1.977,1.977,0,0,0-.259-17.467a5.172,5.172,0,0,0-.954-.2l-.033,0-.671-.035c-.231,0-.364.015-.364.015L-3-17.6l.01.112a1.758,1.758,0,0,0-.71.587,1.625,1.625,0,0,0-.186,1.687l.473.986-.705-.5a1.59,1.59,0,0,0-.933-.3" transform="translate(13.801 17.706)" fill="#621b1b"/>
    </g>
    <g id="Gruppe_47674" data-name="Gruppe 47674" transform="translate(1601.38 1235.515)">
      <path id="Pfad_48323" data-name="Pfad 48323" d="M-.751-.387v0l-.007,0s0,0,.007,0M-.23-13.063a.143.143,0,0,1,.017.018l-.014-.008-.063.122-.19.066ZM-15.314-7.48a.871.871,0,0,0,.656.316l1.741.03c.207.009.343.114.349.212l.087.782a.317.317,0,0,1-.279.314l-1.762.353a.878.878,0,0,0-.577.4.98.98,0,0,0-.127.735l.242,1,.314-.082-.313.085a.955.955,0,0,0,.439.589.939.939,0,0,0,.734.093l1.685-.476a.307.307,0,0,1,.226.017c.089.061.135.091.184.329l.023.232-.031.073.041.05.007.093h0s0,.008,0,.012a.562.562,0,0,1-.159.248l-1.339,1.2a.832.832,0,0,0-.293.64,1.032,1.032,0,0,0,.336.788s.228.227.46.409l.438.346.2-.264-.185.273a1.008,1.008,0,0,0,.783.173.907.907,0,0,0,.589-.413L-9.9-.43a.317.317,0,0,1,.382-.159s.175.108.354.2l.359.2a.323.323,0,0,1,.084.411L-9.468,1.9A.918.918,0,0,0-9.49,2.6a.939.939,0,0,0,.509.533s.249.114.5.205l.489.184.111-.313-.1.316a.983.983,0,0,0,.784-.067.932.932,0,0,0,.452-.571l.486-1.72C-6.2.987-6.045.878-5.946.9a3.6,3.6,0,0,0,.388.083l.221.042a1.046,1.046,0,0,0,.122.018.559.559,0,0,1,.124.389l.073,1.82a.743.743,0,0,0,.3.595,1.172,1.172,0,0,0,.739.241,1.528,1.528,0,0,0,.427-.063l.246-.093a1.907,1.907,0,0,0,.572-.3,2.874,2.874,0,0,0,.706-.672l0,0A1.458,1.458,0,0,0-1.71,1.99a.818.818,0,0,0-.476-.747L-3.778.5A.938.938,0,0,1-4.051.293a.275.275,0,0,1,.01-.106l.158-.47a4.048,4.048,0,0,1,.178-.449l.048-.108A.646.646,0,0,1-3.376-1.1c.121-.052.171-.011.19,0L-1.749.036a1.83,1.83,0,0,0,.66.345l.15.077L-.8.315A.613.613,0,0,0-.678.269c.377-.054.585-.529.6-1.01L-.1-2.541A.217.217,0,0,1-.035-2.7a.456.456,0,0,1,.363-.109c.186.013.235.019.262.023.067.1.187.294.329.549l.856,1.79a.717.717,0,0,0,.575.425,1.024,1.024,0,0,0,.943-.431,4.1,4.1,0,0,0,.483-.778c.2-.4.348-.823.355-.841l-.3-.115.3.112A1.074,1.074,0,0,0,4.117-2.9a.973.973,0,0,0-.573-.5l-1.672-.52a.319.319,0,0,1-.246-.351l.19-.816A.305.305,0,0,1,2.189-5.3l1.763.35a.869.869,0,0,0,.683-.144.932.932,0,0,0,.382-.613L5.17-6.724,4.85-6.772l.321.047a.994.994,0,0,0-.192-.743.93.93,0,0,0-.641-.368L2.6-8.036a.315.315,0,0,1-.3-.3l.009-.126c.08-.08.245-.231.47-.415l1.576-1.143a.761.761,0,0,0,.334-.663,1.082,1.082,0,0,0-.562-.9,4.148,4.148,0,0,0-.813-.348,4.292,4.292,0,0,0-.417-.118c-.062-.015-.12-.029-.185-.047l-.257-.061-.073.324.069-.325a.945.945,0,0,0-1.114.749L.949-9.659a.313.313,0,0,1-.14.2.325.325,0,0,1-.255.034L-.374-9.72a.408.408,0,0,1-.24-.224.268.268,0,0,1,0-.216l.741-1.684A.937.937,0,0,0-.16-13.018l-.024-.013a.512.512,0,0,0-.044-.033l0,0a1.057,1.057,0,0,0-1.088-.141l-1.638.645a.253.253,0,0,1-.2-.018.383.383,0,0,1-.2-.215l-.032-.093a1.419,1.419,0,0,0-.07-.184.088.088,0,0,1,0-.015c0-.008.008-.018.011-.028l.04-.083a2.35,2.35,0,0,1,.159-.3l1.006-1.512a.737.737,0,0,0,.1-.672A1.255,1.255,0,0,0-3-16.469a5,5,0,0,0-.812-.163l-.582-.032c-.193,0-.306.012-.306.012v.007a1.233,1.233,0,0,0-.913.487.861.861,0,0,0-.11.9l.777,1.62a2.37,2.37,0,0,1,.123.34l.023.076c-.035.039-.078.088-.122.141-.113.137-.231.295-.231.295a.314.314,0,0,1-.412.012l-1.473-1.051a.862.862,0,0,0-.681-.148.907.907,0,0,0-.588.4l-.521.8a.982.982,0,0,0,.274,1.316l1.428,1.038a.3.3,0,0,1,.121.2.371.371,0,0,1-.083.28s-.149.2-.329.4c-.09.105-.168.187-.273.294a2.128,2.128,0,0,1-.167.157.656.656,0,0,1-.566.207A.1.1,0,0,1-8.5-8.944l-.647-1.779c-.3-.718-.441-.737-.608-.769l-.279-.095-.1.316.081-.321a1.077,1.077,0,0,0-.87.125.891.891,0,0,0-.393.6L-11.621-9.1a.551.551,0,0,1-.181.329.772.772,0,0,0-.145,0,3.971,3.971,0,0,1-.348-.3L-13.522-10.4a.709.709,0,0,0-.631-.243,1.221,1.221,0,0,0-.914.7,4.764,4.764,0,0,0-.335.854,5.985,5.985,0,0,0-.146.733h0a1.116,1.116,0,0,0,.233.882" transform="translate(15.56 16.664)" fill="#921f30"/>
    </g>
    <g id="Gruppe_47675" data-name="Gruppe 47675" transform="translate(1606.763 1241.645)">
      <path id="Pfad_48324" data-name="Pfad 48324" d="M0-.188l.014.18L.062.413.114.441A1.345,1.345,0,0,0,.163.588a2.793,2.793,0,0,0,.358.724l.027.053L.6,1.42l.2.261H.845a1.493,1.493,0,0,0,.989.371l.072,0a1.4,1.4,0,0,0,1.148-.631l.166-.244a1.414,1.414,0,0,0,.682.759,1.579,1.579,0,0,0,.724.176A1.467,1.467,0,0,0,5.2,2l0,0L5.21,2l.675-.3.673-.288-.079-.189a1.559,1.559,0,0,0,.2-.378A1.556,1.556,0,0,0,6.774.472,1.4,1.4,0,0,0,7.14.608a1.392,1.392,0,0,0,.318.036,1.515,1.515,0,0,0,.87-.283L8.944-.1a1.577,1.577,0,0,0,.6-1.09,1.613,1.613,0,0,0-.044-.57,1.443,1.443,0,0,0,.252.023,1.451,1.451,0,0,0,.373-.05,1.63,1.63,0,0,0,1.025-.9l.08-.185a2.593,2.593,0,0,0,.182-.537c.043-.175.077-.354.1-.509a2,2,0,0,0,.019-.43,2.061,2.061,0,0,0-.033-.337l-.039-.363h-.071a1.644,1.644,0,0,0-.508-.67,1.408,1.408,0,0,0-.847-.295,1.105,1.105,0,0,0-.388.063l-.208.063.043-.136A1.451,1.451,0,0,0,9.378-7.2a1.653,1.653,0,0,0-1.167-.812l-.469-.061c-.246-.022-.474-.025-.5-.025H6.5v.177a1.486,1.486,0,0,0-.394.3,1.473,1.473,0,0,0-.265.379,1.483,1.483,0,0,0-.326-.283,1.466,1.466,0,0,0-.788-.23,1.466,1.466,0,0,0-.39.053,3.408,3.408,0,0,0-1.032.356l-.042.029a1.927,1.927,0,0,0-.2.137l-.323.224.037.069a1.637,1.637,0,0,0-.167.274,1.468,1.468,0,0,0-.053,1.152,1.362,1.362,0,0,0-.5-.093,1.4,1.4,0,0,0-.537.106A1.589,1.589,0,0,0,.643-4.5S.569-4.281.5-4.055c-.049.17-.092.314-.116.442h0A1.594,1.594,0,0,0,.577-2.385a1.527,1.527,0,0,0,.355.4A1.518,1.518,0,0,0,.438-1.6,1.954,1.954,0,0,0,0-.188" transform="translate(0.007 8.093)" fill="#1b6423"/>
    </g>
    <g id="Gruppe_47676" data-name="Gruppe 47676" transform="translate(1607.498 1242.4)">
      <path id="Pfad_48325" data-name="Pfad 48325" d="M-.1-.138-1.4.023a.68.68,0,0,0-.47.256,1.2,1.2,0,0,0-.261.854l.014.181.013.007a1.969,1.969,0,0,0,.1.418,2.063,2.063,0,0,0,.287.561h0l0,0,.006.009h0a.811.811,0,0,0,.722.37A.684.684,0,0,0-.41,2.372L.41,1.161C.5,1.036.586.935.65.863A.6.6,0,0,1,.682.946l.342,1.271a.656.656,0,0,0,.35.427.851.851,0,0,0,.392.095.749.749,0,0,0,.291-.057l.671-.287L2.6,2.089l.129.306a.77.77,0,0,0,.406-.435.824.824,0,0,0-.018-.62L2.6.154a.135.135,0,0,1,0-.1c.028-.083.038-.066.038-.066s.13-.06.261-.134l.25-.14c.023-.014.1.006.149.082L3.976.919a.723.723,0,0,0,.464.337.752.752,0,0,0,.593-.121L5.646.678h0A.808.808,0,0,0,5.957.116.789.789,0,0,0,5.78-.475l-.817-.979a.167.167,0,0,1-.038-.174h0c.08-.074.187-.2.354-.385a.242.242,0,0,1,.17.048l1.07.738a.673.673,0,0,0,.563.095.869.869,0,0,0,.542-.484L7.7-1.8a2,2,0,0,0,.139-.409c.037-.155.069-.315.089-.441a1.23,1.23,0,0,0,.013-.264h0a.987.987,0,0,0-.358-.819A.625.625,0,0,0,7-3.848l-1.2.369a2.164,2.164,0,0,1-.278.051l-.006,0a.49.49,0,0,1,.02-.2l.4-1.254a.691.691,0,0,0-.053-.554.9.9,0,0,0-.619-.431l-.442-.059c-.213-.019-.412-.021-.431-.021H4.379a.821.821,0,0,0-.6.245.779.779,0,0,0-.214.578l.065,1.286c0,.1-.048.159-.069.16,0,0-.14.017-.286.039L3-3.6c-.029.01-.1-.039-.123-.127L2.6-5.018a.737.737,0,0,0-.329-.48.748.748,0,0,0-.593-.091,3.623,3.623,0,0,0-.822.26l0,.007A.938.938,0,0,0,.419-4.9a.684.684,0,0,0-.01.589L.925-3.151a1.106,1.106,0,0,1,.065.225l-.12.142-.034.045a.3.3,0,0,1-.17-.026L-.5-3.341a.67.67,0,0,0-.566-.019.835.835,0,0,0-.462.5s-.069.2-.132.408-.108.405-.108.405h0a.837.837,0,0,0,.1.64.753.753,0,0,0,.492.346L.06-.813c.089.019.135.084.128.128L.123-.2A1,1,0,0,1-.1-.138" transform="translate(2.131 5.954)" fill="#621b1b"/>
    </g>
    <g id="Gruppe_47677" data-name="Gruppe 47677" transform="translate(1609.888 1244.015)">
      <path id="Pfad_48326" data-name="Pfad 48326" d="M0-.067A1.518,1.518,0,0,0,.632,1.008a.508.508,0,0,0,.581.014C1.841.718,2.963.1,2.963.1l.4.665a.334.334,0,0,0,.523.069S4.116.661,4.226.58A.345.345,0,0,0,4.3.142c-.067-.107-.232-.5-.232-.5s.773-.4.793-.873c.008-.186-.336-.784-.5-.814a3.416,3.416,0,0,0-1.622.479c-.1.042-.442-.643-.656-1.091a.427.427,0,0,0-.516-.228l-.332.1a.448.448,0,0,0-.279.586,6.191,6.191,0,0,1,.388,1.143C1.264-.856.042-.585,0-.067" transform="translate(0.002 2.9)" fill="#1a660d"/>
    </g>
  </g>
</svg>
