<svg xmlns="http://www.w3.org/2000/svg" width="20.091" height="38.041" viewBox="0 0 20.091 38.041">
  <g id="Gruppe_46775" data-name="Gruppe 46775" transform="translate(-1452.315 -1577.509)">
    <g id="Gruppe_46763" data-name="Gruppe 46763" transform="translate(1455.302 1590.041)">
      <path id="Pfad_46775" data-name="Pfad 46775" d="M-1.2-2.3c-.129.054-.25.108-.358.162a3.545,3.545,0,0,1,.135-.935c-.261-.831-.582-1.647-.891-2.459-.064-.168-.128-.334-.192-.5a1.993,1.993,0,0,0-.272-.385,2.583,2.583,0,0,0-.647-.5,2.714,2.714,0,0,0-1.541-.319c-.081.009-.1-.134-.015-.143a2.808,2.808,0,0,1,1.735.373,3.536,3.536,0,0,1,.5.358c-.623-1.595-1.269-3.181-1.9-4.77a2.223,2.223,0,0,0-.185-.233,2.741,2.741,0,0,0-1.183-.787.055.055,0,0,1,.032-.106,2.9,2.9,0,0,1,1.166.7c-.065-.163-.13-.327-.194-.49-.409-1.039-.805-2.082-1.171-3.135a1.835,1.835,0,0,0-1.084.169,2.167,2.167,0,0,0-.7.594,17.584,17.584,0,0,1-.139,3.08c3.674.836-.045,3.6.76,5.944,1.937-.59,2.374-.7,2.391,1.265A15.97,15.97,0,0,0-4.541-.366c1.07-1.126,2.264-.767,3.561-.905-.049-.283-.106-.564-.175-.843-.015-.063-.033-.126-.049-.189" transform="translate(8.108 15.498)" fill="#688b29"/>
    </g>
    <g id="Gruppe_46764" data-name="Gruppe 46764" transform="translate(1461.415 1598.455)">
      <path id="Pfad_46776" data-name="Pfad 46776" d="M-.151-.555A13.191,13.191,0,0,0,1.1-3.733a3.943,3.943,0,0,0-2.117.887l.2.532c.221.582.45,1.167.66,1.759" transform="translate(1.015 3.733)" fill="#688b29"/>
    </g>
    <g id="Gruppe_46765" data-name="Gruppe 46765" transform="translate(1462.742 1602.725)">
      <path id="Pfad_46777" data-name="Pfad 46777" d="M-.007-.1Q.1.341.17.784L.2.777C.392.3.59-.176.745-.672c-.249.1-.52.2-.785.3l-.005.117c.013.052.026.1.038.157" transform="translate(0.045 0.672)" fill="#688b29"/>
    </g>
    <g id="Gruppe_46766" data-name="Gruppe 46766" transform="translate(1457.797 1590.196)">
      <path id="Pfad_46778" data-name="Pfad 46778" d="M-.735-.562a.966.966,0,0,1,.193-.3c-.107-.085-.216-.168-.327-.249C-1.946-1.828-3.5-3.3-4.935-3.785c0,.021-.005.042-.009.062C-4.479-2.5-4-1.284-3.505-.07a3.9,3.9,0,0,1,.2-.587A3.119,3.119,0,0,1-2.443-1.8c.036-.031.088.021.052.054A2.787,2.787,0,0,0-3.176-.515,6.472,6.472,0,0,0-3.343.33q.455,1.125.912,2.249c.367.908.732,1.815,1.084,2.729C-1.418,3.828-.309,2.647.27,1.477-.46.71-1,.007-.735-.562" transform="translate(4.944 3.785)" fill="#688b29"/>
    </g>
    <g id="Gruppe_46767" data-name="Gruppe 46767" transform="translate(1452.315 1577.509)">
      <path id="Pfad_46779" data-name="Pfad 46779" d="M-.667-2.22A1.841,1.841,0,0,1,.416-2.389q-.1-.287-.2-.576A2.56,2.56,0,0,0-.31-3.78a3.22,3.22,0,0,0-1.044-.647c-.07-.028-.039-.14.034-.114a3.267,3.267,0,0,1,1.289.807c-.219-.7-.421-1.4-.6-2.1A44.48,44.48,0,0,0-2.547-12.5c-.03-.07.072-.129.1-.059A24.4,24.4,0,0,1-1.214-9.265C-.561-7.05,0-4.824.815-2.658c0,0,0,.008,0,.012a3.929,3.929,0,0,1,.553-1.959.05.05,0,0,1,.086.052A6.016,6.016,0,0,0,1-2.251C2.437-1.77,3.991-.295,5.069.425q.165.121.327.249A.845.845,0,0,1,5.753.456a2.476,2.476,0,0,1-.487-2.088l.054.028a6.521,6.521,0,0,0-1.3-1.3A2.1,2.1,0,0,1,6.2-2.975C6.137-6.082,2-6.92.787-9.515c.49.112,1.144-.049,1.634.063C1.164-11.838-1.9-12.694-3.037-14.939-3.1-12.83-5.437-6.04-4.051-6.6c3.111-.993-.041,2.67.471,3.817l.6.084c1.1-.5,1.507.11,1.616,1.069a2.157,2.157,0,0,1,.7-.594" transform="translate(4.489 14.939)" fill="#79a238"/>
    </g>
    <g id="Gruppe_46768" data-name="Gruppe 46768" transform="translate(1454.253 1579.859)">
      <path id="Pfad_46780" data-name="Pfad 46780" d="M-.9-2.522a6.446,6.446,0,0,1,.169-.845A2.785,2.785,0,0,1,.054-4.6C.09-4.628.039-4.681,0-4.649A3.121,3.121,0,0,0-.86-3.51a3.818,3.818,0,0,0-.2.587C-1.55-4.136-2.034-5.352-2.5-6.575l.008-.062a6.016,6.016,0,0,1,.458-2.3.05.05,0,0,0-.086-.052,3.92,3.92,0,0,0-.553,1.959s0-.009,0-.012C-3.487-9.21-4.052-11.436-4.7-13.65a24.413,24.413,0,0,0-1.229-3.293c-.032-.07-.135-.011-.1.059a44.48,44.48,0,0,1,1.914,6.661c.18.708.383,1.409.6,2.1a3.267,3.267,0,0,0-1.289-.807c-.073-.026-.1.087-.034.114A3.22,3.22,0,0,1-3.8-8.166a2.569,2.569,0,0,1,.53.815q.1.289.2.577c.366,1.053.762,2.1,1.172,3.135q.1.245.193.49a2.88,2.88,0,0,0-1.166-.7.055.055,0,0,0-.032.106,2.718,2.718,0,0,1,1.182.787,2.313,2.313,0,0,1,.186.232C-.907-1.13-.261.455.361,2.05a3.473,3.473,0,0,0-.5-.358,2.8,2.8,0,0,0-1.735-.373c-.081.009-.066.151.015.143a2.714,2.714,0,0,1,1.541.319,2.583,2.583,0,0,1,.647.5A1.993,1.993,0,0,1,.6,2.67c.064.166.129.333.192.5.31.813.629,1.628.891,2.46a6.594,6.594,0,0,1,.3-.83c-.209-.591-.439-1.176-.66-1.758-.067-.178-.136-.356-.2-.533L1.1,2.521c0-.022,0-.044,0-.066C.746,1.541.382.633.014-.274Q-.441-1.4-.9-2.522" transform="translate(6.043 16.975)" fill="#465f12"/>
    </g>
    <g id="Gruppe_46769" data-name="Gruppe 46769" transform="translate(1462.578 1607.499)">
      <path id="Pfad_46781" data-name="Pfad 46781" d="M0-.476c-.012.247.342.244.375.011A23.87,23.87,0,0,0,.6-3.206a2.556,2.556,0,0,1-.514.381C.077-2.041.039-1.256,0-.476" transform="translate(0 3.206)" fill="#465f12"/>
    </g>
    <g id="Gruppe_46770" data-name="Gruppe 46770" transform="translate(1462.204 1603.023)">
      <path id="Pfad_46782" data-name="Pfad 46782" d="M-.131-.2c-.05-.3-.109-.591-.177-.884-.012-.053-.026-.1-.038-.158l.005-.117c-.187.072-.372.142-.542.214.017.063.035.125.05.189.068.278.126.56.175.843,0,.026.009.053.014.08s0,.035,0,.052a.059.059,0,0,0,.01.028c.045.28.081.561.11.844.117-.35.256-.7.4-1.047,0-.014,0-.03-.007-.044" transform="translate(0.884 1.36)" fill="#465f12"/>
    </g>
    <g id="Gruppe_46771" data-name="Gruppe 46771" transform="translate(1461.976 1580.369)">
      <path id="Pfad_46783" data-name="Pfad 46783" d="M-1.566-3.255C-2.127-4.827-3.138-5.5-2.914-7.074A4.164,4.164,0,0,1-.105-10.332a4,4,0,0,0-1.8-1.235c-.225-1.46.562-2.472,1.348-3.595a6.844,6.844,0,0,1-1.46.337c-1.235-.674.112-4.718,0-7.078-1.123,1.235-2.247,2.584-3.37,3.819-.787.787-2.022,4.381-3.258,2.359-1.338.669.643,5.541-1.743,4.3l-.054-.028a2.474,2.474,0,0,0,.488,2.088c.106.192.212.387.307.587a.913.913,0,0,1,.1-.091,10.072,10.072,0,0,1,1.573-.787,9.388,9.388,0,0,0,3.438-4.167q.307-1.806.632-3.608c.02-.115.193-.066.174.048-.128.735-.255,1.47-.375,2.206q-.1.618-.2,1.238a20.48,20.48,0,0,1,.036,7.878c-.782,5.081-.374,10.248-.18,15.425a2.964,2.964,0,0,1,1.079.415c0-1.236-1.011-2.809-.225-4.044.337.225.9.112,1.235.225-.225-.674-2.583-6.516.562-4.606-.225-.787-3.371-6.4.225-4.606" transform="translate(10.536 21.903)" fill="#84b047"/>
    </g>
    <g id="Gruppe_46772" data-name="Gruppe 46772" transform="translate(1466.093 1588.33)">
      <path id="Pfad_46784" data-name="Pfad 46784" d="M-.376-1.375A20.48,20.48,0,0,0-.412-9.253c-.709,4.5-1.3,9.02-1.565,13.573-.131,2.289-.109,4.584-.238,6.873-.063,1.121-.154,2.242-.309,3.354,0,.022-.007.045-.009.067a1.907,1.907,0,0,1,1.977-.564c-.194-5.177-.6-10.343.18-15.424" transform="translate(2.533 9.253)" fill="#79a238"/>
    </g>
    <g id="Gruppe_46773" data-name="Gruppe 46773" transform="translate(1461.391 1588.447)">
      <path id="Pfad_46785" data-name="Pfad 46785" d="M-.886-1.913C-.539-5.587.009-9.236.627-12.872A9.38,9.38,0,0,1-2.812-8.705a10.147,10.147,0,0,0-1.573.787,1,1,0,0,0-.1.092,2.414,2.414,0,0,1,.217,1.818c-.022.049-.046.1-.071.148-.579,1.17-1.688,2.352-1.618,3.83,0,.022,0,.043,0,.066l.018-.012a3.951,3.951,0,0,1,2.117-.886A13.164,13.164,0,0,1-5.075.315a6.594,6.594,0,0,0-.3.83,3.545,3.545,0,0,0-.135.935c.107-.054.229-.108.358-.162.17-.072.354-.142.542-.213.265-.1.536-.2.785-.3-.155.5-.353.975-.547,1.449l-.021.052c-.142.35-.282.7-.4,1.046a4.4,4.4,0,0,0-.158,2.732,2.2,2.2,0,0,0,.26-.124,2.575,2.575,0,0,0,.513-.381A3.457,3.457,0,0,0-3.6,5.449c.449,1.461-.787,2.809-.674,4.381,2.022-2.022,2.584,1.461,2.247,2.809l.094-.187c.026-.131.052-.262.076-.393.816-4.613.53-9.322.97-13.972" transform="translate(5.964 12.872)" fill="#79a238"/>
    </g>
    <g id="Gruppe_46774" data-name="Gruppe 46774" transform="translate(1465.081 1584.773)">
      <path id="Pfad_46786" data-name="Pfad 46786" d="M-.232-4.189c.129-2.289.106-4.584.238-6.873.261-4.552.856-9.071,1.565-13.573q.1-.619.2-1.238c.118-.736.247-1.471.375-2.206.02-.113-.153-.163-.174-.048q-.323,1.8-.632,3.608C.72-20.883.172-17.235-.176-13.56-.615-8.91-.33-4.2-1.146.412c-.023.131-.049.262-.075.392-.109.539-.238,1.073-.339,1.613a.137.137,0,0,0,.264.072A14.479,14.479,0,0,0-.551-.769c0-.022.006-.044.009-.066.156-1.113.247-2.232.31-3.354" transform="translate(1.563 28.193)" fill="#567b1d"/>
    </g>
  </g>
</svg>
