<svg id="Gruppe_46762" data-name="Gruppe 46762" xmlns="http://www.w3.org/2000/svg" width="36.746" height="39.595" viewBox="0 0 36.746 39.595">
  <g id="Gruppe_5189" data-name="Gruppe 5189" transform="translate(24.63 4.533)">
    <path id="Pfad_5602" data-name="Pfad 5602" d="M-.239-2.808C2.9-4.3,1.619-8.663,4.391-10.854a14.4,14.4,0,0,0,4.631-5.872,5.239,5.239,0,0,0,.533-1.86c-.022-.519-.316-.6-.507-1.023-.177-.389.053-.535.073-.9a7,7,0,0,1,.021-1.4c-.136-.017-.369-.161-.519-.158a2.483,2.483,0,0,0,.241-.923c-.092-.442-.23-.32-.548-.55a3.988,3.988,0,0,0-2.083-1.033c.349,0,.577-1.462.59-1.717a1.026,1.026,0,0,0-.557-1.139c1.052.1-.07-1.215-.344-1.442a5.277,5.277,0,0,0-1.855-1.009,3.4,3.4,0,0,0-3.3.657c-1.615,1.562-1.967,5.2-2.38,7.287A59.107,59.107,0,0,0-2.446-7.378c.122,2.312-.15,5.02.23,7.217A2.224,2.224,0,0,0-.239-2.808" transform="translate(2.558 30.041)" fill="#598433"/>
  </g>
  <g id="Gruppe_5190" data-name="Gruppe 5190" transform="translate(0 0)">
    <path id="Pfad_5603" data-name="Pfad 5603" d="M-1.324-3.329C-2-4.211-3.066-4.4-3.815-5.293-4.384-5.974-4.976-6.576-5.6-7.211c-.247-.25-1.482-.792-1.56-.965-.2-.446.6-1.273.567-1.793-.051-.806-.819-1.373-1.49-1.718a7.708,7.708,0,0,1-1.256-.733,7.76,7.76,0,0,1-1.187-.762c-.292-.388-.214-1.211-.685-1.765-.548-.644-1.137-.565-1.543-.988-.894-.933-.463-2.273-.411-3.207a2.7,2.7,0,0,0-.6-1.795c-.115-.214-.422-.45-.4-.769.044-.628.93-.73.786-1.489a.727.727,0,0,1,.09.108c.107-.519.1-1.05.195-1.566.119-.616.471-.851.677-1.334.181-.422.1-.863.3-1.307.215-.477.89-.9,1.258-1.267,1.615-1.622,1.19-3.038,1.791-5.07A1.822,1.822,0,0,1-6.9-35.091c2.482.152,6.512-1.73,8.307.85.851,1.223.806,1.43,2.211,1.092a11.739,11.739,0,0,1,3.107-.218c.444.015.809.315,1.236.315.694,0,.777-.506,1.354-.581,1.615-.21-.129,1.436.045,2.109,1.614,0,1.081.87.742,1.9-.7,2.109-1.674,4.059-2.314,6.205A12.564,12.564,0,0,1,7-20.853c-1.212,2.306-1.083,5.109-.958,7.616.14,2.786,1.41,5.456.558,8.285A34.617,34.617,0,0,0,5.535,2.273c-.149,1.83-.644,2.285-1.944.91C2.6,2.132,1.978.774.968-.258A10.4,10.4,0,0,1-1.079-2.944a2.582,2.582,0,0,0-.245-.384" transform="translate(14.165 35.611)" fill="#779e3f"/>
  </g>
  <g id="Gruppe_5191" data-name="Gruppe 5191" transform="translate(14.897 9.972)">
    <path id="Pfad_5604" data-name="Pfad 5604" d="M-.052-1.464a4.147,4.147,0,0,1,0-1.687.442.442,0,0,0,.3-.053,3.767,3.767,0,0,0-.8-1.825c.084-.068.389-.112.493-.175C-.3-6.321.626-7.081.661-8.3a10.646,10.646,0,0,1,.2-2.908,11.17,11.17,0,0,1,.593-2.4c.344-.746,1.2-.87,1.226-2.017,2.3-.471,3.006,2.678,3.427,4.287.538,2.061.57,4.076.948,6.172a7.472,7.472,0,0,1,.221,3.294C7-.347,6.752,2.745,5.7,3.938c-1.56,1.763-3.219.819-3.874-.953C1.5,2.122,1.679,1.111,1.346.271c-.2-.509-1.356-1.547-1.4-1.735" transform="translate(0.552 15.665)" fill="#9bb556"/>
  </g>
  <g id="Gruppe_5192" data-name="Gruppe 5192" transform="translate(18.165 10.878)">
    <path id="Pfad_5605" data-name="Pfad 5605" d="M0-1.913A7.427,7.427,0,0,0,1.852-6.241C1.966-8.746,1.791-16.833,0-20.363c1.624-.911,3.668,4.555,3.675,7.631s-.8,6.719-.8,7.972a16.454,16.454,0,0,1-.342,2.847Z" transform="translate(0 20.464)" fill="#ccd1aa"/>
  </g>
  <g id="Gruppe_5193" data-name="Gruppe 5193" transform="translate(17.044 5.439)">
    <path id="Pfad_5606" data-name="Pfad 5606" d="M-.933-.881C-.684-2.965.972-7.819-1.4-9.116c-2.111-1.153-3.744,1.229-4.553,2.858C-7.225-3.7-6.559-2.045-6.7.627-6.784,2.1-7.936,1.921-8.5,3.009c-.293.57.129,1.27.012,1.891-.152.81-.354.306-.665.957-.257.536.171,1.128.139,1.589a9.483,9.483,0,0,1-.771,2.021c-.71,1.931.7,3.5,1.508,5.109s1.347,3.321,2.3,4.883c1.2,1.958,1.269-7.275,2.195-9.036C-1.985,7.013-1.382,2.9-.933-.881" transform="translate(9.978 9.421)" fill="#306621"/>
  </g>
  <g id="Gruppe_5194" data-name="Gruppe 5194" transform="translate(28.716 11.785)">
    <path id="Pfad_5607" data-name="Pfad 5607" d="M-.052-.535c.545-1.3,1.59-2.44,2.264-3.693a3.251,3.251,0,0,1,1.12-1.5c.323.909-.57,2.17-1.1,2.9A4.788,4.788,0,0,0,1.177.332C2.357-.6,3.953.165,4.987.939,3.273.908-.151,1.121.634,3.834c.163-.651.812-.418,1.375-.43C1.18,3.786.452,4.581,1.385,4.914c.233.082.879-.024,1.2.063.358.1.595.4,1.058.412a.867.867,0,0,1-.09.4c-1.5-.228-2.515-.561-2.283,1.45a9.161,9.161,0,0,1,1.844-.054C1.859,7.783,1.355,7,1.082,8.35c-.168.826-.4,1.562-.611,2.408C-.536,10.014-.537,8.5-.543,7.367A14.482,14.482,0,0,1-.487,5.325,6.2,6.2,0,0,0-.46,2.844,6.334,6.334,0,0,1-.052-.535" transform="translate(0.551 5.725)" fill="#427026"/>
  </g>
  <g id="Gruppe_5195" data-name="Gruppe 5195" transform="translate(17.775)">
    <path id="Pfad_5608" data-name="Pfad 5608" d="M-.516-4.049S5.591-16.863,5.421-19.084a65.67,65.67,0,0,1,.453-11.424,40.915,40.915,0,0,1,1.1-6.765c.4-1.473,2-3.443.743-4.719-1.225-1.246-3.446-.031-4.786-.227-.77-.112-1.457-1.64-2.462-.9-.5.372-.168,2.46-.2,3.008C-3.77-42.511-1.032-29.791-1.78-28c-.026.065-1.175,1.562-1.24,1.653-.342.474-.874,1.094-1.312,1.67C-5.583-23.028-5.908-21.806-5-19.768-2.267-13.617-.516-4.049-.516-4.049" transform="translate(5.518 43.32)" fill="#5b892d"/>
  </g>
  <g id="Gruppe_5196" data-name="Gruppe 5196" transform="translate(19.999 1.813)">
    <path id="Pfad_5609" data-name="Pfad 5609" d="M-.308-3.752s2.478-5.21,3.5-7.6A44.883,44.883,0,0,0,5.927-21.945c.171-2.648-.085-9.139.6-12.214A42.616,42.616,0,0,1,8.49-40.138C6.354-38,5.608-35.079,5.329-31.682a41.166,41.166,0,0,0-.085,5.723A13.9,13.9,0,0,1,4.09-29.888a7.646,7.646,0,0,0,.046,3.814c.125.616.283,1.229.438,1.838a7.684,7.684,0,0,1,.481,1.616C4.023-23.758,4.127-25.3,3.4-26.543c-.491.5.117,2.206.3,2.773A7.534,7.534,0,0,1,4.424-21.3c-.545-.2-1.56-.533-1.769-1.128.026.891.925,1.73,1.1,2.641.317,1.631-1.338,1.015-2.24.314.052.826,1.1,1.658,1.5,2.328.681,1.128.085,1.5-.325,2.584-.678,1.79-1,4.119-2.157,5.658A28.066,28.066,0,0,1-3.3-5.375v2.05Z" transform="translate(3.298 40.138)" fill="#ccd1aa"/>
  </g>
  <g id="Gruppe_5197" data-name="Gruppe 5197" transform="translate(17.775 9.065)">
    <path id="Pfad_5610" data-name="Pfad 5610" d="M0-2.171S1.794-4.22,2.392-3.793s1.28.907,1.707-.059,1.965-1.479,1.965-3.1S7-9.6,6.577-11.4s-1.2-2.563-.939-4.185c.145-.921-.3-2.1.126-2.954.176-.359.559-.535.76-.874a2.415,2.415,0,0,0,.191-1.315,4.382,4.382,0,0,1,.1-1.648c.208-.36.828-.325.736-.847-1.731-.051-2.284.558-3.111,1.924a7.447,7.447,0,0,0-1.35,3.143,20.837,20.837,0,0,0-.04,2.461c.044,1.818.311,3.912-.314,5.662-.854,2.391-.257,2.477-1.2,4.441S0-2.171,0-2.171" transform="translate(0 23.221)" fill="#8eaa4c"/>
  </g>
  <g id="Gruppe_5198" data-name="Gruppe 5198" transform="translate(3.465 8.159)">
    <path id="Pfad_5611" data-name="Pfad 5611" d="M-.623-2.1c-.087-.531-.364-.87-.436-1.418C-1.121-4-.981-4.508-1.026-5a4.445,4.445,0,0,0-1-2.345A6.762,6.762,0,0,0-4.4-9.271a4.756,4.756,0,0,1-2.257-1.85c.4.112.632.461.969.687a7.079,7.079,0,0,0,1.576.709,9.607,9.607,0,0,0,2.664.682,2.957,2.957,0,0,0-.991-2c-.256-.247-1.5-1.693-1.764-1.72a13,13,0,0,1,2.555,1.7,13.922,13.922,0,0,0-.073-1.946,2.468,2.468,0,0,0-1.181-1.316c-.679-.424-2.731-1.785-2.553-2.6.489.044.8.941,1.189,1.266a4.17,4.17,0,0,0,1.816.777c.037-.974-.933-1.277-1.266-2.046a14.414,14.414,0,0,1-.47-3c.967,1.105-.083,2.32,1.932,3.991C-.892-14.813-.847-11.312-.9-9.586c.378-1.595-.175-6.185-.09-7.119A23.113,23.113,0,0,0-.951-21c.684.8.347,2.115.3,3.049a2.127,2.127,0,0,0,.1,1.008c-.045-.1,1.845-1.486,1.916-1.844.1-.5-.024-1.027.08-1.537a5.028,5.028,0,0,1,.325-1.178c.011.471-.132,1.636.39,1.871.778.348,1.6-1.138,1.749-1.7a9.76,9.76,0,0,1,.19-1.108,4.484,4.484,0,0,1-.96,3.16c-.579.536-1.741,1.323-2.352,1.81-.64.511-1.425.858-1.3,1.755a10.816,10.816,0,0,1,.42,2c0,.294-.081,2.6-.346,2.663,1.84-2.733,3.679-6.173,6.295-6.574A6.3,6.3,0,0,0,3.01-14.742a3.561,3.561,0,0,0,1.405-.364c.331-.135.576-.436.891-.535-.056.617-1.547,1.184-2.073,1.283-.307.058-.334.047-.536.257-.738.769-.921,1.9-1.589,2.727A5.3,5.3,0,0,0,.121-9.048c.61-.347.984-1.162,1.41-1.716a2.989,2.989,0,0,1,2.051-1.044c1.372-.281,2.719-.635,4.089-.916-.648.683-1.917.559-2.779.991-.664.331-1.911.458-2.313,1.115a16.156,16.156,0,0,1,2.464.221c.594.117,1.278-.083,1.8.066-.051-.015-.8.425-.927.465a4.652,4.652,0,0,1-1.169.2A8.382,8.382,0,0,0,2.5-9.7c-.816.257-1.08,1.479-1.346,2.185A6.551,6.551,0,0,0,.467-4.3a3.526,3.526,0,0,1,2.41-.934A7.226,7.226,0,0,0,.477-2.5,13.272,13.272,0,0,0-.269,1.263C-1.228.916-.495-1.324-.623-2.1" transform="translate(6.662 22.442)" fill="#5b892d"/>
  </g>
  <g id="Gruppe_5199" data-name="Gruppe 5199" transform="translate(9.136 3.626)">
    <path id="Pfad_5612" data-name="Pfad 5612" d="M-.819-3.318-1.5-5.937s-6.492-10.763-7-15.66a64.451,64.451,0,0,1,.285-13.9,13.748,13.748,0,0,0,.1,1.717c.006.645-.121,1.272-.087,1.909.446-.47.956-1.939,1.692-1.744a18.457,18.457,0,0,0-1.049,2.5,13.752,13.752,0,0,0-.317,2.66,4.705,4.705,0,0,1,2.23-2.426c-1.7,1.666-2.445,5.576-1.89,7.807.234-2.176.1-4.1,2.451-5.528a7.868,7.868,0,0,0-2,6.289A7.184,7.184,0,0,0-5.82-18.979c.443-.415.628-1.3,1.015-1.828.29-.392.706-.628.969-1.015A8.434,8.434,0,0,0-4.918-18.31c0,.455-.374,1.932.274,1.9.16.431.592.664.883,1.01a6.019,6.019,0,0,1,1.005,1.941c.466,1.416,1.2,2.749,1.538,4.215A11.91,11.91,0,0,0,.889-5.653L3.566-5.6l1.366.114L3.793-3.318Z" transform="translate(8.763 35.492)" fill="#ccd1aa"/>
  </g>
</svg>
