<svg id="Gruppe_42617" data-name="Gruppe 42617" xmlns="http://www.w3.org/2000/svg" width="32.924" height="40.083" viewBox="0 0 32.924 40.083">
  <g id="Gruppe_17793" data-name="Gruppe 17793" transform="translate(21.071 24.55)">
    <path id="Pfad_19203" data-name="Pfad 19203" d="M-.028-.658a25.128,25.128,0,0,1-.1-2.868A12.923,12.923,0,0,1,.2-.739,10.038,10.038,0,0,1,.018,2.192C-.047,2.161.046.886-.028-.658" transform="translate(0.149 3.527)" fill="#5e990a"/>
  </g>
  <g id="Gruppe_17794" data-name="Gruppe 17794" transform="translate(22.489 22.093)">
    <path id="Pfad_19204" data-name="Pfad 19204" d="M-.3-.31a11.274,11.274,0,0,1,1.53-1A2.9,2.9,0,0,1,1.9-1.656a2.366,2.366,0,0,1-.591.477C.93-.913.38-.575-.162-.136A4.349,4.349,0,0,0-1.305,1.206c-.21.4-.277.686-.314.678a1.483,1.483,0,0,1,.171-.745A3.806,3.806,0,0,1-.3-.31" transform="translate(1.629 1.659)" fill="#5e990a"/>
  </g>
  <g id="Gruppe_17795" data-name="Gruppe 17795" transform="translate(17.601 18.265)">
    <path id="Pfad_19205" data-name="Pfad 19205" d="M-.516-1.333c-.1-.016-.2-.026-.3-.044-.424-.071-.926-.488-.189-.569-.366.041-.848-.444-1.1-.657-.4-.334-.442-.774-.661-1.223a1.684,1.684,0,0,1,1.076.54c.028-.371.03-.544.351-.2.167.177.323.443.583.49A1.564,1.564,0,0,0-.709-4.247c-.126-.334-.441-.632-.339-1.013A1.485,1.485,0,0,0-.8-5.1c.051-.278-.172-.457-.238-.708-.032-.126-.044-.615.14-.647s.13.342.255.411c.272.148.254-.547.312-.7a.615.615,0,0,1,.212-.318c.04-.028.431-.121.426-.067A5.224,5.224,0,0,0,.256-5.782a4.068,4.068,0,0,0,.837-.346c-.078.4-.39.68-.452,1.089a2.173,2.173,0,0,1,.492-.335C1.14-4.341.282-3.68.911-2.586c.432-.451-.1-2.05.612-2.092,0,.071-.011.14-.02.212a1.024,1.024,0,0,1,.508-.687,1.167,1.167,0,0,1-.07,1.029c.1-.035.219,0,.334-.055.208.336-.141.6-.374.8.647-.145.718.605.373.959s-.676.4-.912.9C.954-.664,1.2.378.778,1.213.915.946.513.157.405-.1A3.061,3.061,0,0,0-.08-1.144a.823.823,0,0,0-.436-.189" transform="translate(2.767 7.143)" fill="#75ba0a"/>
  </g>
  <g id="Gruppe_17796" data-name="Gruppe 17796" transform="translate(24.272 19.751)">
    <path id="Pfad_19206" data-name="Pfad 19206" d="M-1.27-.088a.981.981,0,0,1,.447.017.83.83,0,0,1-.346.392C-.566.554.25-.291.912-.089.81-.028.781.062.688.171c.329-.028.749-.245,1.092-.032C2.171.382.73.988.668,1.031c.347.19,1.048.2.821.8-.058.153-1.24-.4-1.457-.345-.65.164.241.431.443.5.1.251-.371.217-.52.222a1.539,1.539,0,0,1-.7-.172c-.234-.084-.828-.216-.8.22.028.415.893.3,1.176.364.545.116.316.361-.138.462-.015,0,.3.278.312.288a.675.675,0,0,1,.121.47c-.028.175-.188.307-.268.464a3.94,3.94,0,0,0-1.4-.438,1.878,1.878,0,0,1-1.148-.448c.1.1-.036.611-.164.656-.426.154-.481-.649-.564-.863-.226-.582-1.022-.479-1.508-.437a5.089,5.089,0,0,0-1.68.349c.027-.012.73-1.06.984-1.293s.586-.4.629-.778c.037-.332-.1-.663-.066-1A1.062,1.062,0,0,1-4.57.221c.193.145.287.469.516.564.509.207.707-.96.838-1.254.751.122-.014.852.389,1.059.214.11.766-.354.952-.449A2.189,2.189,0,0,1-1.27-.088" transform="translate(6.806 0.47)" fill="#75ba0a"/>
  </g>
  <g id="Gruppe_17797" data-name="Gruppe 17797" transform="translate(23.896 10.543)">
    <path id="Pfad_19207" data-name="Pfad 19207" d="M-1.365-.924C-2.081-1.377-2.734.133-2.908.164c-.744-1.427.793-2.8.431-4.251a1.762,1.762,0,0,0-.466-.773c-.345-.262-.468.076-.637.438a9.1,9.1,0,0,0-.5,1.758c-.058-.253-.114-.931-.416-.965-.063.786-.3,1.359-.406,2.153-.22-.647-.011-.978-.423-1.4C-6.238-2.49-5.4-.752-5.584-.09-6-1.514-6.919-2.53-7.19-2.111c-.281.435-.006,1.337.114,1.789A9.992,9.992,0,0,1-6.953,3.9C-7,4.171-7.1,5.5-6.869,5.226-5.222,3.217-1.7,2.691-1.365-.924" transform="translate(7.312 4.952)" fill="#75ba0a"/>
  </g>
  <g id="Gruppe_17798" data-name="Gruppe 17798" transform="translate(13.048 6.849)">
    <path id="Pfad_19208" data-name="Pfad 19208" d="M-1.029-1.67A7.163,7.163,0,0,1-.075-2.978c.381-.351,1.186-.5,1.246-1.071a1.172,1.172,0,0,0-.678.109c-.278-.612.9-1.968.112-2.534C0-6.909-.7-5.3-.687-4.824a.721.721,0,0,0-.536-.435,1.16,1.16,0,0,1-.19.908A2.054,2.054,0,0,1-2.152-6.31c.077-.376.958-2.1.021-2.1.012.288,0,.608-.318.7-.429-.556-.466-1.519-1.409-1.166a6.95,6.95,0,0,1,.473,1.7,5.373,5.373,0,0,1-1.177-.19c.223.491.706.752.909,1.257a2.726,2.726,0,0,0-.732-.279c.306,1.324,1.6,1.909,1.133,3.5-.691-.446-.492-2.656-1.42-2.492.024.09.06.176.089.267-.216-.329-.454-.671-.856-.726a1.527,1.527,0,0,0,.4,1.292c-.135-.013-.277.073-.444.033-.163.494.363.728.721.911-.871.011-.734.993-.185,1.34s.986.306,1.439.872C-2.726-.411-2.73,1-1.933,1.939a5.038,5.038,0,0,1,.9-3.609" transform="translate(5.513 8.949)" fill="#75ba0a"/>
  </g>
  <g id="Gruppe_17799" data-name="Gruppe 17799" transform="translate(0 10.846)">
    <path id="Pfad_19209" data-name="Pfad 19209" d="M-.88-.009C-.254,1.06.78.813,1.572,1.566c-.9-.045-2.1-.813-2.965-.327a1.1,1.1,0,0,0,.562.4c-.7.481-2-.354-2.787.1.148.048.212.155.364.265-.43.065-1.031-.086-1.405.29-.427.43,1.6.768,1.692.8-.387.346-1.282.573-.808,1.277.791.022,1.51-1.051,2.264-.911.721.133.053.633.182,1.005C-.975,4.343-.23,3.66.1,3.685c.65.047.05.718-.216.922-.313.24-2.669,1.622-1.441,2.05,1.116.39,4.785-4.176,8.791-3.148C6.94,2.335.34-.419-.88-.009" transform="translate(4.718 0.051)" fill="#75ba0a"/>
  </g>
  <g id="Gruppe_17800" data-name="Gruppe 17800" transform="translate(3.442 0)">
    <path id="Pfad_19210" data-name="Pfad 19210" d="M-1.666-1.59c-.035-.479.057-3.171-.821-2.829a2.625,2.625,0,0,0-.2.861c0-.044-.234-2.468-.8-2.774,0,.019-.431.145-.239,1.169-.65-1.27-3.968-3.816-5.079-3.28a5.077,5.077,0,0,0,.863,3.6c-.136-.017-.321.053-.465.041.157.872,1.274,1.2,1.885,1.79-.434,0-1.031-.591-1.49-.457A1.894,1.894,0,0,0-6.678-2c-.593-.057-1.706-.629-2.113,0-.557.857.735,1.266,1.222,1.6,0,0-.817-.046-.824-.039C-8.412.111-5.373.512-5.385.585A3.6,3.6,0,0,0-7.468.794c.146,1.036,5.136.551,6.487,2.151A17.2,17.2,0,0,1-1.666-1.59" transform="translate(8.928 8.517)" fill="#75ba0a"/>
  </g>
  <g id="Gruppe_17801" data-name="Gruppe 17801" transform="translate(9.021 13.417)">
    <path id="Pfad_19211" data-name="Pfad 19211" d="M-.741-.244A15.044,15.044,0,0,0-3-1.067,3.863,3.863,0,0,0-3.971-1.3a3.081,3.081,0,0,0,.9.429c.569.228,1.372.493,2.2.891A5.646,5.646,0,0,1,1,1.39c.392.452.565.793.609.772a1.989,1.989,0,0,0-.446-.9,4.991,4.991,0,0,0-1.9-1.5" transform="translate(3.971 1.306)" fill="#5e990a"/>
  </g>
  <g id="Gruppe_17802" data-name="Gruppe 17802" transform="translate(16.045 15.072)">
    <path id="Pfad_19212" data-name="Pfad 19212" d="M-.176-.849a33.936,33.936,0,0,0-.744-3.7A16.975,16.975,0,0,0-.487-.885a13.2,13.2,0,0,0,1.118,3.7C.7,2.752.2,1.149-.176-.849" transform="translate(0.942 4.549)" fill="#5e990a"/>
  </g>
  <g id="Gruppe_17803" data-name="Gruppe 17803" transform="translate(7.821 7.135)">
    <path id="Pfad_19213" data-name="Pfad 19213" d="M-3.023-6.188c.033.245.061.484.089.724l-.451.153c-.034-.268-.069-.538-.109-.813a47.471,47.471,0,0,0-1.9-8.241c-.233-.713-.484-1.411-.747-2.094s-.54-1.335-.852-1.974c-.616-1.276-1.259-2.487-1.885-3.632-1.257-2.289-2.462-4.312-3.519-5.98a44.56,44.56,0,0,0-2.661-3.836c-.682-.867-1.158-1.248-1.139-1.275a4.4,4.4,0,0,1,1.292,1.145,35.071,35.071,0,0,1,2.816,3.767c1.1,1.65,2.34,3.662,3.626,5.948.641,1.143,1.3,2.355,1.925,3.641.316.64.617,1.32.876,2.011s.521,1.4.759,2.117A45.638,45.638,0,0,1-3.023-6.188" transform="translate(16.199 33.158)" fill="#5e990a"/>
  </g>
  <g id="Gruppe_17804" data-name="Gruppe 17804" transform="translate(20.595 17.231)">
    <path id="Pfad_19214" data-name="Pfad 19214" d="M-.044-5.109c.02.187.041.369.063.551l.36.033c-.02-.2-.043-.409-.061-.619a36.234,36.234,0,0,1-.04-6.432q.073-.854.185-1.681c.07-.552.166-1.083.284-1.61.232-1.052.5-2.061.76-3.018.529-1.914,1.063-3.622,1.553-5.041a34.53,34.53,0,0,1,1.3-3.306c.353-.761.638-1.127.619-1.144A3.364,3.364,0,0,0,4.221-26.3,26.711,26.711,0,0,0,2.8-23.02c-.525,1.415-1.09,3.122-1.641,5.039-.273.958-.547,1.969-.787,3.031-.121.529-.224,1.085-.294,1.641s-.142,1.125-.19,1.7a34.583,34.583,0,0,0,.07,6.5" transform="translate(0.235 27.376)" fill="#5e990a"/>
  </g>
</svg>
