<svg xmlns="http://www.w3.org/2000/svg" width="23.074" height="38.051" viewBox="0 0 23.074 38.051">
  <g id="Gruppe_40742" data-name="Gruppe 40742" transform="translate(0)">
    <g id="Gruppe_17774" data-name="Gruppe 17774" transform="translate(1.952 10.528)">
      <path id="Pfad_19184" data-name="Pfad 19184" d="M-6.1-7.945H-6.43a.746.746,0,0,1-.326-.533c-.059-.385.142-3.645,0-4.625a8.363,8.363,0,0,0-1.6-4.121c-.5-.451-1.779-2.224-2.786-2.164s-2.609.441-2.876.354c1.008-.3,2.52-.68,2.52-.68l-.652-.267a10.476,10.476,0,0,0-2.046-.564c-.823-.085-1.245-.3-1.927-.415a8.935,8.935,0,0,1,2.4.267,13.211,13.211,0,0,1,2.342.771,11.542,11.542,0,0,1,1.749.888A13.963,13.963,0,0,1-7.053-15.95a14.8,14.8,0,0,1,.741,4.061c0,1.1.208,3.943.208,3.943" transform="translate(16.124 20.989)" fill="#99b259"/>
    </g>
    <g id="Gruppe_17775" data-name="Gruppe 17775" transform="translate(0 6.586)">
      <path id="Pfad_19185" data-name="Pfad 19185" d="M-5.717-4.484c.52-.171.606.6.589.963-.024.538-.212.616-.6.94-.275.231-2.327,1.4-1.849.133-.461-.044-.525-.209-.578-.575-.072-.493.057-.51.36-.77.078-.066.083-.173.15-.227a1.314,1.314,0,0,1,.585-.337,2.532,2.532,0,0,0-1.354.536,2.4,2.4,0,0,1-1.835.795C-11.434-3-11.2-3.906-10.8-4.7c-.26-.086-.367.056-.59.118a3.44,3.44,0,0,1-1.551.048,12.073,12.073,0,0,1-1.263-.5c-.035-.282.17-.44.294-.631-1.117-.16-.6-1.468-.548-2.325-.879-.7-.722-1.7-.329-2.662.424-1.04,1.838-1.081,2.8-1.143a4.656,4.656,0,0,1,1.576.033c.416.124.525.5.861.662.306.147.634-.084.957.057.5.218.492.871.817,1.237.467.526.942.546,1.134,1.349a6.664,6.664,0,0,1,.009,2.394A3.7,3.7,0,0,1-4.918-7.73c.591-.178,1.058-.1.874.687-.126.539-.666.692-.981,1.1-.212.275.227.707.184,1.033-.046.342-.876.424-.876.424" transform="translate(15.104 11.844)" fill="#688640"/>
    </g>
    <g id="Gruppe_17776" data-name="Gruppe 17776" transform="translate(0.386 7.424)">
      <path id="Pfad_19186" data-name="Pfad 19186" d="M-.652-2.035c.179.082.418-.134.574-.211A2.615,2.615,0,0,1,.937-2.51a5.278,5.278,0,0,1,.911.219,1.626,1.626,0,0,1,.541.17c.145.079.922.218.764.462-.1.157-.543.174-.712.195-.2.024-.595.21-.769.065-.285-.239-1.217-.228-1.5-.382.078.19.439.258.61.305.086.024.705.135.482.329-.049.042-.22.042-.283.055C.733-1.036.479-1,.221-.968A6.576,6.576,0,0,0-.971-.832,4.681,4.681,0,0,0,.562-.844c.28-.037.557-.085.834-.14.129-.025.257-.052.384-.08.1-.023.241-.112.337-.1a9.4,9.4,0,0,1-.629.951C1.2.262.242.724.149.88a1.643,1.643,0,0,0,.9-.411,2.79,2.79,0,0,0,.771-.751,1.8,1.8,0,0,1,1.3-1.073A7.413,7.413,0,0,1,5.712-.142c.149.149.053.175-.117.233a2.547,2.547,0,0,1-.551.162C4.369.323,3.679.323,3,.337a2.635,2.635,0,0,0,.771.156,3.277,3.277,0,0,1,.933.1,4.784,4.784,0,0,1-1.048.3,5.649,5.649,0,0,0-1.082.263c.162.105.54-.05.731-.075A6.212,6.212,0,0,0,4.6.8c.35-.124.658-.316,1.012-.426A1.233,1.233,0,0,1,6.29.286c.314.1.644.342.5.681-.114.278-.035.47-.116.764-.068.247-.4.386-.556.583-.18.227-.438.283-.628.465.176-.088.37-.138.543-.224.231-.114.631-.782.721-.336a1.787,1.787,0,0,1-.076.774A1.77,1.77,0,0,0,6.87,1.961c.022-.342.155-.657.168-1,.1.371.51-.053.494-.068h0C7.368.746,6.845.325,6.684.156c-.243-.257-.638-.339-.83-.633-.139-.213-.2-.405-.372-.623-.462-.6-.352-1.413-.621-2.1,0,.257.028.511.017.767C4.337-2.51,4.2-3.146,3.921-3.5c-.118.432.237.71.485,1a3.241,3.241,0,0,0,.395.352c.191.161.187.769.408,1.212a3.011,3.011,0,0,1-1.557-.971,2.675,2.675,0,0,1-.209-1.119,1.9,1.9,0,0,0-.085-.757c-.056-.32.218-.513.082-.952a2.868,2.868,0,0,1-.231.884c-.347-.093-.421-.454-.573-.7s-.277-.573-.429-.822A3.668,3.668,0,0,0,3.025-3.7a.948.948,0,0,1,.258.719A1.757,1.757,0,0,1,3.2-2.17c-.2-.106-.35-.607-.413-.823-.076-.264.129-.762-.061-.958a3.065,3.065,0,0,1-.135.928c-.125-.186-.347-.344-.465-.524a1.964,1.964,0,0,1-.2-.356c-.167-.4,0-.943-.236-1.33.011.431.092.851.078,1.294-.221-.179-.441-.412-.653-.607A4.54,4.54,0,0,0,.076-5.177c.479.4,1.276,1.158,1.725,1.615.366.373.857.751.943,1.307-.269-.169-.517-.124-.731-.378-.264-.314-.637-.528-.882-.838a1.278,1.278,0,0,0,.394.546c.057.042.273.166.268.246-.014.232-.556,0-.619-.018C.993-2.753.514-2.72.433-2.776c-.19-.129-.394-.676-.575-.843-.224-.207-.977-.946-1.58-.926A3.652,3.652,0,0,1,.012-3.051c.019.056.1.149.07.2-.053.089-.438.163-.52.192a8.754,8.754,0,0,1-.948.188c.319.256,1.142-.112,1.542-.1-.059.118-.318.22-.436.295s-.41.184-.373.237" transform="translate(1.722 5.376)" fill="#506d2d"/>
    </g>
    <g id="Gruppe_17777" data-name="Gruppe 17777" transform="translate(9.317 10.91)">
      <path id="Pfad_19187" data-name="Pfad 19187" d="M-.576-1.591c.045-.255-.315-.835.076-1.035S.432-3.779.242-4.2c-.06.722-1,.729-1.263.972a1.227,1.227,0,0,0-.391.605c0,.083.323.216,0,.367-.291.135.113.133-.087.636-.147.369.481.369.481.369s.389-.04.442-.336" transform="translate(1.521 4.204)" fill="#3d5926"/>
    </g>
    <g id="Gruppe_17778" data-name="Gruppe 17778" transform="translate(12.06 14.975)">
      <path id="Pfad_19188" data-name="Pfad 19188" d="M-.265-5.056c-.1.03-.232-.009-.435-.149A26.869,26.869,0,0,0,.307-8.444,16.52,16.52,0,0,1,2.06-12.366c.163-.261.53-1.1.9-.978.46.159-.091.7-.233.912q-.462.7-.887,1.427A22.231,22.231,0,0,0,.059-5.8c-.1.357-.134.687-.324.747" transform="translate(0.7 13.357)" fill="#99b259"/>
    </g>
    <g id="Gruppe_17779" data-name="Gruppe 17779" transform="translate(14.652 1.606)">
      <path id="Pfad_19189" data-name="Pfad 19189" d="M-4.425-1.456c-.152-.4.29-.777-.087-1.114-.254-.227-.2-.134-.446-.232-.141-.056-.221.068-.365-.058-.121-.107-.014-.372-.122-.485-.326-.344-.843.089-1.255,0s-.516-.491-.955-.5c-.489-.012-1.02.373-1.527.427a2.414,2.414,0,0,0-1.707.877c-.372.394-.841.8-.79,1.374A4.051,4.051,0,0,0-10.9.758c.482.478,1.261.278,1.551,1.033.157.408.1,1.962-.629,1.378-.238-.19-.13-.275-.513-.217-.295.045-.479.094-.448.416.028.3.131.21.337.346.3.2.219.2.272.554a7.518,7.518,0,0,1,.176.958c0,.11.066.534-.06.592s-.147-.131-.207-.17c-.153-.1-.526-.038-.7-.016a.58.58,0,0,0-.529.332.5.5,0,0,0,.28.625c.24.12.521-.011.766.084s.328.289.166.514a.6.6,0,0,1-.474.252.561.561,0,0,0-.48.766c.058.145.227.266.19.408s-.158.231-.178.389a4.352,4.352,0,0,1-.077.614,3.894,3.894,0,0,0-.109.5c-.1.815.94.546,1.378.389.214-.077.648-.176.782-.364a.754.754,0,0,0,.089-.308c-.009-.14-.043-.089-.127-.168-.159-.148-.055-.2-.042-.413s-.162-.219-.24-.393a1.675,1.675,0,0,1-.032-.5,1.36,1.36,0,0,1,.513-.926,1.05,1.05,0,0,1,.524-.218c.173-.053.255-.126.439-.024.078.044.219.18.267,0A.461.461,0,0,0-7.829,7.1c.035-.047,0-.1.03-.134a.4.4,0,0,1,.2-.158c.227-.1.236-.069.245-.315s.09-.421-.149-.586a.693.693,0,0,0-.6-.05c-.247.081-.485.682-.807.459.264-.171.039-.431.252-.616.091-.079.155-.128.234-.21a.791.791,0,0,1,.247-.155c.149-.073.4-.183.218-.37.554-.14.584-.672.847-1.083A1.659,1.659,0,0,1-5.9,3.159c.808-.117,1.746.019,2.281-.741.585-.83.26-2,0-2.9-.083-.285-.374-.46-.536-.7-.04-.06-.25-.214-.275-.277" transform="translate(11.689 3.846)" fill="#688640"/>
    </g>
    <g id="Gruppe_17780" data-name="Gruppe 17780" transform="translate(15.413 2.389)">
      <path id="Pfad_19190" data-name="Pfad 19190" d="M-1.745-4.045c.07-.167.131-.553.259-.668.152-.137.557-.108.752-.174A3.7,3.7,0,0,0,.353-5.5c-.475.027-.821.385-1.3.415-.07-.538.832-.977,1.03-1.385-.3-.042-.814.485-.968.748-.124.214-.272.641-.557.68-.017-.1.124-.788.139-.99a3.779,3.779,0,0,1,.063-.992c.221-.487.8-.827,1.029-1.355a7.538,7.538,0,0,0,.744-2.3A8.141,8.141,0,0,1-.793-7.892c-.352.34-.439.477-.543-.017a5.751,5.751,0,0,0-.652-1.762,5.717,5.717,0,0,1,.3,1.42,5.332,5.332,0,0,1,.2,2.374,3.425,3.425,0,0,1-.689-.67c-.33-.342-.25-.777-.231-1.209a1.614,1.614,0,0,0-.153.822c-.157-.18-.4-.45-.564-.654a7.279,7.279,0,0,1-.849-1.3A5.126,5.126,0,0,0-2.822-6.93a9.87,9.87,0,0,0,.787.766c.808.737.37,1.118.093,1.958-.239.72-.418,1.358-.708,2.043C-2.77-2.832-3.2-3.9-3.745-3.9a2.568,2.568,0,0,1,.828,1.5c.206.99-.523,2.289-.9,3.071-.226.472-.853,1.007-.79,1.561.412-.241.591-1.016.869-1.41S-3.318-.3-2.917-.547c.326-.2.922-.03,1.131-.423a8.956,8.956,0,0,1-1.122.318c-.147.022.313-1.146.35-1.23.322-.718.513-1.437.813-2.163" transform="translate(4.609 10.685)" fill="#506d2d"/>
    </g>
    <g id="Gruppe_17781" data-name="Gruppe 17781" transform="translate(21.212 3.346)">
      <path id="Pfad_19191" data-name="Pfad 19191" d="M-.477-.331A9.621,9.621,0,0,1,.287.689,6.689,6.689,0,0,1,.6,2.79,1.656,1.656,0,0,1-1.259,4.321a1.908,1.908,0,0,0,.832-.547c.118-.126.5-.547.441-.7C-.052,2.9-.334,2.9-.5,2.849c.127-.37.577-1.045-.074-1.183h0C-.792,1.216-.568.744-.586.255-.849.246-.708-.738-.492-.875c.014-.009-.13.369.016.544" transform="translate(1.259 0.875)" fill="#3d5926"/>
    </g>
    <g id="Gruppe_17782" data-name="Gruppe 17782" transform="translate(15.034 15.175)">
      <path id="Pfad_19192" data-name="Pfad 19192" d="M-1.152-.415A.9.9,0,0,0-.959-.8a.394.394,0,0,0,0-.216c-.023-.06-.127-.125-.16-.03s.073.216-.1.2a.1.1,0,0,0-.08-.05c-.048.008-.026.047-.093.038A.349.349,0,0,0-1.57-.87a.822.822,0,0,1-.321.03.448.448,0,0,0-.3.075,5.179,5.179,0,0,0-.505.27c-.1.085-.167.339-.343.308.379.426,1.665,0,1.89-.229" transform="translate(3.042 1.097)" fill="#3d5926"/>
    </g>
    <g id="Gruppe_17783" data-name="Gruppe 17783" transform="translate(13.074 3.762)">
      <path id="Pfad_19193" data-name="Pfad 19193" d="M-.2-2.4a8.677,8.677,0,0,1,.674-.8A1.952,1.952,0,0,1,.941-3.6a2.524,2.524,0,0,0,.9-.869c.106-.237.108-.693.321-.858-.026-.054-.052-.163-.1-.2s-.11.017-.144-.006c-.081-.053-.19-.29-.256-.313-.081-.029-.242.064-.328.055-.131-.013-.144-.153-.308-.014C.691-6.061.811-6.507.3-6.264c-.55.262-.68.986-.793,1.528A4.722,4.722,0,0,0-.4-3.615,2.164,2.164,0,0,0-.33-2.9c.069.172.186.334.348.288A.188.188,0,0,0,.182-2.8Z" transform="translate(0.516 6.334)" fill="#3d5926"/>
    </g>
    <g id="Gruppe_17784" data-name="Gruppe 17784" transform="translate(9.808 0)">
      <path id="Pfad_19194" data-name="Pfad 19194" d="M0-.385A3.389,3.389,0,0,1,.569-.929,1.146,1.146,0,0,1,1-1.016s.112.14.195.087.181.027.3.025a1.727,1.727,0,0,1,.547.052c.131.058.763-.083.7.168s.26.466.076.769a7.637,7.637,0,0,0-.427.969Z" transform="translate(0 1.016)" fill="#3d5926"/>
    </g>
    <g id="Gruppe_17785" data-name="Gruppe 17785" transform="translate(9.341 0.438)">
      <path id="Pfad_19195" data-name="Pfad 19195" d="M-1.554-4.614s-.164-1.4-.185-1.875A4.768,4.768,0,0,0-2.58-8.272,19.781,19.781,0,0,1-4.1-12.017a1.319,1.319,0,0,1,.712-.093c.139.053.24.27.308.156s.273-.346.449-.177.4.027.591.048a1.319,1.319,0,0,1,.468.128.7.7,0,0,1,.155.131c.056.053.1.03.165-.006.127-.072.233-.173.365-.049a.655.655,0,0,1,.176.484c.007.116.018.15.121.21a.985.985,0,0,0,.207.085.787.787,0,0,1,.39.188.313.313,0,0,1,.062.235,2.866,2.866,0,0,0,.109.807A3.59,3.59,0,0,1,.3-8.955c0,.075.025.132.024.208a.322.322,0,0,0,.071.265c.07.07.145.132.211.205a1.049,1.049,0,0,1,.272.5.655.655,0,0,1-.029.328c-.177.5.235.763-.078,1.38S.613-5.2.162-4.918l-.728.458s.408-.187.475.086.22,1.017-.052,1.364a5.258,5.258,0,0,0-.9,1.3c-.143.441-.434-.077-.434-.077Z" transform="translate(4.104 12.19)" fill="#688640"/>
    </g>
    <g id="Gruppe_17786" data-name="Gruppe 17786" transform="translate(10.753 0.967)">
      <path id="Pfad_19196" data-name="Pfad 19196" d="M-.983-4.7l.371-1.4a4.757,4.757,0,0,0,.9-.24c-.264.026-.867.032-.867.032l.352-.665S.4-7.232.616-7.341c.03-.136-.815.116-.815.116l.074-.187c.132-.334.4-1.014.416-1.149C.3-8.652.331-8.814.346-9a2.047,2.047,0,0,0-.017-.547c-.062.272-.139.484-.511-.145s-.472-.823-.5-.687A3.271,3.271,0,0,0,.026-9.1c.195.087.205.1.035.538s-.408.91-.408.91L-.936-5.74a4.224,4.224,0,0,1-.142-1.136A6.352,6.352,0,0,0-1.11-8.007l.592-.4s.316-.129.309-.288a2.112,2.112,0,0,1-.462.268l-.418.17-.117-.65s.72-.452.618-.763c-.08.1-.5.574-.546.506s.028-1.255-.065-1.477c.224-.35.695-1.161.421-1.782a4.6,4.6,0,0,1-.513,1.56l-.206-.29s.178-.533-.008-.533a3.787,3.787,0,0,0-.154.424s-.341.052-.916-.825c-.179.346.928,1.214.928,1.214l.232.368-.035.723s-.34-.02-.608-.575c-.317-.151.516.726.579.92s.171,1.738.171,1.738a15.572,15.572,0,0,0,.159,2.071c.12.534.168.922.168.922" transform="translate(2.597 12.418)" fill="#506d2d"/>
    </g>
    <g id="Gruppe_17787" data-name="Gruppe 17787" transform="translate(11.555 6.229)">
      <path id="Pfad_19197" data-name="Pfad 19197" d="M-.552-11.618l-.5.316a6.49,6.49,0,0,1-.382-1.721c-.083-1.072.1-4.22.09-4.68s.1-3.474.144-3.78a40.156,40.156,0,0,0,.185-4.086c-.082-.649-.13-4.291-.283-5.121a19.6,19.6,0,0,1,.768,5,36.913,36.913,0,0,1-.19,5.117,39.141,39.141,0,0,0-.134,6.318c.122.788.3,2.635.3,2.635" transform="translate(1.458 30.691)" fill="#99b259"/>
    </g>
    <g id="Gruppe_17788" data-name="Gruppe 17788" transform="translate(16.844 12.434)">
      <path id="Pfad_19198" data-name="Pfad 19198" d="M-.122-.334a.52.52,0,0,1,.134-.15A1.362,1.362,0,0,1,.223-.56.763.763,0,0,1,.7-.643c.192.032.657.173.655-.14-.006-.007-.069.1-.125.012.044-.2-.21-.071-.3-.065a2.88,2.88,0,0,0-.607.007A1.27,1.27,0,0,0,.1-.716c-.094.042-.235.031-.312.11-.1.1-.063.327-.114.442.054-.043.114-.082.164-.129A.292.292,0,0,0-.122-.334" transform="translate(0.323 0.882)" fill="#3d5926"/>
    </g>
    <g id="Gruppe_17789" data-name="Gruppe 17789" transform="translate(8.464 23.185)">
      <path id="Pfad_19199" data-name="Pfad 19199" d="M-2.466,0l.149.3A4.076,4.076,0,0,1-.332,1.808,4.186,4.186,0,0,1,.231,5.662,2.966,2.966,0,0,1-2.644,7.234,4.34,4.34,0,0,1-5.875,5.87,3.987,3.987,0,0,1-6.142,2.1,6.056,6.056,0,0,1-3.86.237L-3.711,0Z" transform="translate(6.515)" fill="#f63a1a"/>
    </g>
    <g id="Gruppe_17790" data-name="Gruppe 17790" transform="translate(10.457 28.945)">
      <path id="Pfad_19200" data-name="Pfad 19200" d="M-1.555-.793a1.207,1.207,0,0,1-.151-.013,1.8,1.8,0,0,0-.265-.021c-.139,0-.372.016-.4.188A9.779,9.779,0,0,0-2.271.915a10.169,10.169,0,0,1,.08,1.818A17.481,17.481,0,0,1-2.508,5.2c-.165.518-.145,1.612.078,1.761-.065.124-.183-.008-.183-.008a2.859,2.859,0,0,1-.081-1.687A19.651,19.651,0,0,0-2.473,2.6c0-1.435-.266-1.895-.272-2.634-.006-.684.094-.684-.707-.878a.439.439,0,0,1-.237-.131c-.081-.076-.2-.09-.275-.17a.7.7,0,0,0,.2.05c.065.016.2.062.265.015.156-.117-.309-.215-.364-.23s-.216-.06-.242-.137c.055-.011.05.03.088.044a.5.5,0,0,0,.132.008c.1,0,.181.079.3.117a.505.505,0,0,0-.063-.275c-.069-.1-.163-.152-.167-.283.042.029.062.084.1.117s.117.039.145.086,0,.129.014.176a.32.32,0,0,0,.139.214c.058.048.336.209.278,0-.023-.085-.121-.088-.1-.2.07.063.2.29.321.216.1-.063.029-.3.029-.395,0-.146-.007-.321.131-.408a1.511,1.511,0,0,0,0,.228,3.309,3.309,0,0,0-.034.415c.009.147.069.158.108.015.007-.029.075-.144.074-.157,0,.043-.106.451.028.382.063-.033.088-.186.106-.249a.872.872,0,0,0-.059-.4c.1.022.016.223.137.26A.2.2,0,0,0-2.2-1.672a.654.654,0,0,1,.089-.086A.941.941,0,0,0-2.016-1.8a.694.694,0,0,1-.244.338c-.046.034-.239.143-.194.221.03.052.15,0,.189-.015a.75.75,0,0,0,.35-.212.3.3,0,0,1-.139.2c-.035.018-.1.013-.112.06a.839.839,0,0,0,.216,0c-.012.057-.2.047-.242.058-.071.018-.169.009-.144.125.011.048.208-.04.232-.058a.529.529,0,0,1,.352-.125s-.188.136-.207.147-.1.114-.106.113c.094.027.187-.055.28-.067A.378.378,0,0,1-1.546-1a1.192,1.192,0,0,0-.263.1c.007.048.3.044.354.035.127-.021.255-.076.376-.1a.569.569,0,0,1-.306.152.512.512,0,0,1-.171.023" transform="translate(4.109 2.095)" fill="#f3bc82"/>
    </g>
    <g id="Gruppe_17791" data-name="Gruppe 17791" transform="translate(11.066 22.812)">
      <path id="Pfad_19201" data-name="Pfad 19201" d="M-1.047-.192C-1-.3-1.014-.349-1.152-.324c-.106.02-.119.125-.233.042-.072-.052-.082-.165-.185-.173-.121-.009-.172.085-.171.188-.052,0-.089-.066-.136-.062-.021,0-.116.059-.086.089a.512.512,0,0,0-.163-.1c-.093-.033-.146.05-.234.03-.12-.027-.049-.211-.168-.2s-.076.193-.08.267a.528.528,0,0,1-.155.369,3.724,3.724,0,0,0,.616.024A2.407,2.407,0,0,1-1.831.2,1.118,1.118,0,0,0-1.41.2c.06-.017.188-.019.229-.068a2.18,2.18,0,0,0,.134-.324" transform="translate(2.765 0.508)" fill="#752c15"/>
    </g>
    <g id="Gruppe_17792" data-name="Gruppe 17792" transform="translate(9.133 24.558)">
      <path id="Pfad_19202" data-name="Pfad 19202" d="M-.751-.131C-.5-.311-.094-.473.151-.2.546.25-.071,1.068-.267,1.473c-.791,1.64-.22,2.069-.5,2.4-.375.45-.963-.343-1.079-.635a2.763,2.763,0,0,1,.009-1.752A3.5,3.5,0,0,1-.751-.131" transform="translate(1.983 0.345)" fill="#ff5241"/>
    </g>
  </g>
</svg>
