<svg id="Gruppe_44490" data-name="Gruppe 44490" xmlns="http://www.w3.org/2000/svg" xmlns:xlink="http://www.w3.org/1999/xlink" width="41.09" height="36.491" viewBox="0 0 41.09 36.491">
  <defs>
    <clipPath id="clip-path">
      <path id="Pfad_28719" data-name="Pfad 28719" d="M0-3.554H41.09V-40.045H0Z" transform="translate(0 40.045)" fill="none"/>
    </clipPath>
  </defs>
  <g id="Gruppe_30748" data-name="Gruppe 30748" clip-path="url(#clip-path)">
    <g id="Gruppe_30743" data-name="Gruppe 30743" transform="translate(3.533 0)">
      <path id="Pfad_28714" data-name="Pfad 28714" d="M-1.539-1.511C-2.9.835-3.245,1.852-6.394,1.559A11.913,11.913,0,0,1-13-1.074c-.693-.6-4.142-3.617-3.2-4.524-.21.2-.957-1.344-1.028-1.568-.345-1.1.181-1.044.693-1.71.25-.324-.4-.573.263-.719a5.55,5.55,0,0,1,1.017-1.054c.579-.265,1.272-.2,1.819-.532.9-.546.318-1.543.9-2.083.119-.111.431.126.538.054l0,0a3.828,3.828,0,0,1,2.265-.94c-.276.016.435-.845.527-.9A5.025,5.025,0,0,1-7.959-15.4a12.318,12.318,0,0,0,3.016-1.043c.589.894.6-.175,1.113-.35-.272.093.832.575,1.02.566.655-.033.889-.48,1.465-.7s.416-.026,1.023.086a8.5,8.5,0,0,0,1.68.307c.271,0,2.409-.264,2.444-.046.02.122.065.223.091.328,1.279-.137,1.329-.853,1.724.42s1.751,3.221,1.276,4.581c-.346.99-2.2,1.6-3.042,2.314C1.511-6.944-.016-4.133-1.539-1.511" transform="translate(17.339 17.023)" fill="#560a23"/>
    </g>
    <g id="Gruppe_30744" data-name="Gruppe 30744" transform="translate(9.615 0.295)">
      <path id="Pfad_28715" data-name="Pfad 28715" d="M-1.339-3.165S2.124-.951,4.409-1.477,8.9-3.885,11.254-6.221a24.234,24.234,0,0,0,5.057-8.449c.328-1.535-.477-7.607-1.182-8.9a6.27,6.27,0,0,1-.755-3.183c.034-.939.228-2.315-.53-3.045-.478-.46-1.289-.414-1.894-.54a2.232,2.232,0,0,1-1.444-.924C9.8-32.03,9.279-33.1,8.349-33.626a9.792,9.792,0,0,0-2.785-1.013c-.563-.086-1.126.322-1.668.1-.844-.34-.769-1.237-1.889-1.009-.313.065-.6.37-.912.4-.5.044-.227-.026-.643-.206-.572-.249-.052-.355-.788-.273a6.811,6.811,0,0,0-1.228.408A9.9,9.9,0,0,0-4.594-33.6c-.977.849-.739,1.674-1.354,2.674-.416.677-.251.253-.8.534-.441.227-.747.8-1.207.9-.71.166-1.454-.275-2.168-.269a3.774,3.774,0,0,0-1.945.486,8.456,8.456,0,0,0-2.229,2.088,4.293,4.293,0,0,0-.686,2.162c-.544,2.892,1.106,6.16,2.044,8.873a61.8,61.8,0,0,0,3.8,9.269,5.8,5.8,0,0,0,2,2.568,13.621,13.621,0,0,0,5.8,1.147" transform="translate(15.088 35.654)" fill="#720f2d"/>
    </g>
    <g id="Gruppe_30745" data-name="Gruppe 30745" transform="translate(14.825 7.404)">
      <path id="Pfad_28716" data-name="Pfad 28716" d="M-.865-2.644A4.474,4.474,0,0,1-4.753-4.88a12.7,12.7,0,0,1-.633-2.243c-.757-2.249-4.888-3.239-4.3-5.971a18.128,18.128,0,0,1,6.525,1.165c0-5.1-1.036-8.041-2.459-10.487C-6.7-24.278-7.834-26.65-9.166-28.657c1.12.149,2.28,1.989,2.856,2.818.241.344.689,1.493,1.182,1.049.364-.328.082-1.456.165-1.916a8.86,8.86,0,0,1,.314,1.644,7.458,7.458,0,0,1-.259,1.022c-.137.97.488,1.555.867,2.391.457,1.011.908,2.027,1.406,3.018A2.775,2.775,0,0,0,.005-17.356c2.018-.155,1.829-3.191,1.62-4.479-.248-1.54-.12-1.589-1.087-2.423A5.9,5.9,0,0,1-.568-25.366c-.318-.469-.282-1.021-.529-1.479a9.561,9.561,0,0,0,1.463,1.8c.3.327.724.542.98.888C.6-25.617.458-27.507-.11-29.06c2.166,2.269,3.2,10.534,3.423,9.72.424-1.563.138-4.776,1.008-6.046.369,2.086-.016,4.625.506,6.99.966-1.256,2-4.128,1.546-9.049C8.406-25.5,7.706-22.055,7.426-19.53c.926-1.71,1.845-3.426,2.842-5.174a16.456,16.456,0,0,0,1.655-5.087c.541,2.654-.757,5.057-2.053,7.29-1.122,1.935-1.986,4.42-3.439,6.2,2.968-.927,4.875-4.747,6.3-6.561-.7,1.778-3.43,7.486-5.214,8.293,2.171-.94,4.435-1.659,5.518-3.768.4-.777,1.955-3.617,1.955-3.617s-1.36,4.222-1.774,4.976c-1.571,2.866-3.735,4.092-6.789,4.926.892-.3,5.559-1.353,5.559-1.353A18.921,18.921,0,0,1,9.916-11.32c.342.168,1.636-.484,2.111-.547-.88.735-3.5,2.53-4.69,2.462a4.577,4.577,0,0,0,3.757-.261,8.05,8.05,0,0,0,2.765-2.445,38.11,38.11,0,0,1-2.3,3.5,8.749,8.749,0,0,1-3.6,2.183c.488.467.8.426,2.732-.23C9.161-4.461,4.9-2.027,4.864-2.019a7.684,7.684,0,0,1-3.834.175c-1.732-.485-1.894-.8-1.894-.8" transform="translate(9.744 29.791)" fill="#e0e0d3"/>
    </g>
    <g id="Gruppe_30746" data-name="Gruppe 30746" transform="translate(0 5.775)">
      <path id="Pfad_28717" data-name="Pfad 28717" d="M-.329-1.853S-3.637-6.016-3.472-7.3s-.627-3.865.024-6.15A14.515,14.515,0,0,0-3-16.428c.026-.368.231-.859.242-1.149.016-.359-.16-.328-.32-.688-.175-.4-.283-1.936.1-2.189.447-.3,1.27-.053,1.778-.077.849-.04,1.667-.348,2.524-.347a8.321,8.321,0,0,1,1.492.341c.349.066.7.005.993.239.221.175.182.474.364.659s.4.181.6.315c.352.233.336.266.6.692a7.505,7.505,0,0,0,2.914,2.947c.755.307,1,1.107,1.463,1.7.612.792,1.6.516,2.487.531a4.36,4.36,0,0,1,2.128.174c.906.554,1.206,2.092,1.351,3.058a5.213,5.213,0,0,0,.151,1.025A2.834,2.834,0,0,0,17.4-7.819c.832.334,2.029.275,2.5,1.123a2.121,2.121,0,0,1,.052,1.422,15.875,15.875,0,0,0-.2,2.648c.033,1.291,1.044,2.447.962,3.8-.073,1.232-1.866,3.72-.815,4.842.721.771,3.147.184,2.791,1.884a2.026,2.026,0,0,1-1.055,1.3c-1.523.571-3.123.231-4.772.314a15.562,15.562,0,0,1-6.568-1.747C6.655,6.041-.329-1.853-.329-1.853" transform="translate(3.709 20.878)" fill="#8e2d44"/>
    </g>
    <g id="Gruppe_30747" data-name="Gruppe 30747" transform="translate(1.678 9.655)">
      <path id="Pfad_28718" data-name="Pfad 28718" d="M-.207-1.424a6.563,6.563,0,0,1-.842-2.143c-.267-1.047-1.586-2.277-1.213-3.944A10.117,10.117,0,0,0-1.055-4.788c.313.527,1.669,2.568,2.236,3.25C1.4-3.427-.163-5.112-.207-6.992A4.579,4.579,0,0,0-.77-9.269a7.811,7.811,0,0,1-.883-3.288,11.584,11.584,0,0,1,.065-3.486,16.875,16.875,0,0,0,.292,2.6A11.64,11.64,0,0,0-.137-9.074,3.864,3.864,0,0,1,.7-6.687c.14,1.338.449,2.1.682,3.45A8.85,8.85,0,0,0,1.85-5.973a13.974,13.974,0,0,0,.882,4.4c.7-1.869.86-3.332,2.206-4.584C3.731-4.556,4.03-3.144,3.894-1.573c-.077.888.36,1.867,1.542.815,2-1.786,1.9-4.8,3.618-6.772,1.309-1.5,2.572-4.78,5.392-4.447a3.444,3.444,0,0,0-2.274,1.137,11.5,11.5,0,0,0-1.695,2.277A9.031,9.031,0,0,0,9.308-5.939c-.257,1.313-.82,2.386-1.14,3.65.686-.036,1.147-.724,1.826-.838-.962.816-3.3,1.945-3.832,3.051-.729,1.522,1-.334,1.9-.14-.388.828-1.59,1.5-1.254,2.979.765.113.928-.438,1.155-.936A4.759,4.759,0,0,1,9.5.019a7.578,7.578,0,0,0-.383,1.839C10.4,2.2,10.59-.865,10.978-1.671a3.443,3.443,0,0,1,2.777-2.035c1.5-.387,4.486-1.191,5.523-2.394.58,1.767-6.163,1.64-5.8,4.047,1.573.086,2.719.539,4.211.169-.545,1.185-4.089-.327-5.214.116A3.028,3.028,0,0,0,11.251.586C11.917.373,12.643.029,13.3-.25c-.367,1.5-1.966,1.463-2.869,2.371-.633.637-.251,1.549-.887,2.238,2.306.141,4.4-.79,6.487-1.535,1.09-.388,2.18-.159,3.265-.53.865-.3,1.487-1.034,2.47-.96a6.942,6.942,0,0,1-4.394,2.487,8.99,8.99,0,0,0-3.131,1.153,18.639,18.639,0,0,0,2.11-.359c-.388.153-.688.432-1.08.564-.612.207-1.4.076-2.044.245a2.048,2.048,0,0,0-1.468.96c1.914,1.105,5.878-.644,6.975-1.752.1,1.4-2.337,2.025-3.372,2.385-.391.135-2.531.425-2.592.75,1.164.312,3.213-.128,4.42-.066,1.707.087,1.6.881,5.2,1.158-.767.366-5.638-.206-4.964,1.221.311.661,1.278.5,1.92.575a10.994,10.994,0,0,1-3.115.049c-4.39-.176-7.89-.357-11.141-3.639a5.942,5.942,0,0,1-1.5-2.328c-.361-1.023-.9-2.13-1.267-3.27C1.9.139.577-.333-.207-1.424" transform="translate(2.327 16.043)" fill="#e0e0d3"/>
    </g>
  </g>
</svg>
