<svg id="Gruppe_44490" data-name="Gruppe 44490" xmlns="http://www.w3.org/2000/svg" xmlns:xlink="http://www.w3.org/1999/xlink" width="35.605" height="40.083" viewBox="0 0 35.605 40.083">
  <defs>
    <clipPath id="clip-path">
      <rect id="Rechteck_691" data-name="Rechteck 691" width="35.605" height="40.083" fill="none"/>
    </clipPath>
    <clipPath id="clip-path-3">
      <rect id="Rechteck_682" data-name="Rechteck 682" width="7.472" height="12.583" fill="none"/>
    </clipPath>
    <clipPath id="clip-path-4">
      <rect id="Rechteck_683" data-name="Rechteck 683" width="4.878" height="7.66" fill="none"/>
    </clipPath>
    <clipPath id="clip-path-7">
      <rect id="Rechteck_686" data-name="Rechteck 686" width="5.716" height="13.237" fill="none"/>
    </clipPath>
    <clipPath id="clip-path-8">
      <rect id="Rechteck_687" data-name="Rechteck 687" width="1.783" height="4.769" fill="none"/>
    </clipPath>
  </defs>
  <g id="Gruppe_40603" data-name="Gruppe 40603" clip-path="url(#clip-path)">
    <g id="Gruppe_40602" data-name="Gruppe 40602">
      <g id="Gruppe_40601" data-name="Gruppe 40601" clip-path="url(#clip-path)">
        <path id="Pfad_39730" data-name="Pfad 39730" d="M99.09,4.847A98.827,98.827,0,0,0,87.871,34.359c.65-3.08,3.533-2.935,4.276-3.7.764-.767-1.48-.693-1.421-1.592s3.652-1.63,4.029-2.214c.914-1.428-2.948-.921-2.741-1.588.6-1.907,4.7-2.049,5.066-2.649,1.093-1.777-4.644-.585-3.934-2.516,2.077-5.306,3.734-3.649,6.508-7.135.775-.949,2.111-2.382-.808-2.667-2.54-.264,1.512-5.039.244-5.451" transform="translate(-65.037 -3.587)" fill="#437424"/>
        <path id="Pfad_39731" data-name="Pfad 39731" d="M79.1,23.747c-.027.7,2.552,3.473,2.166,4.263s-2.238-.639-1.965.472,2.727,2.72,2.077,5.8A98.833,98.833,0,0,1,92.6,4.772c-1.361-.458-2.889,5.152-4.841,3.93-2.328-1.451-2.632.325-2.843,1.459-.706,4.171,2.017,3-.41,9.152-.709,1.931-4.428-2.389-4.727-.349-.1.688,3.047,3.228,2.448,5.135-.207.667-3.064-2.063-3.123-.352" transform="translate(-58.546 -3.512)" fill="#56962f"/>
        <path id="Pfad_39732" data-name="Pfad 39732" d="M94.046,4.765a98.845,98.845,0,0,0-12.9,37.951l.755.25A98.843,98.843,0,0,1,94.174,4.807l-.128-.042" transform="translate(-60.057 -3.527)" fill="#a3c989"/>
        <g id="Gruppe_40579" data-name="Gruppe 40579" transform="translate(21.117 15.623)" style="mix-blend-mode: multiply;isolation: isolate">
          <g id="Gruppe_40578" data-name="Gruppe 40578">
            <g id="Gruppe_40577" data-name="Gruppe 40577" clip-path="url(#clip-path-3)">
              <path id="Pfad_39733" data-name="Pfad 39733" d="M81.472,69.072c-.07.362-.143.724-.209,1.086A10.8,10.8,0,0,1,82.814,72.7a5.32,5.32,0,0,0,1.539-.858c.7-.826-1.531-.572-1.543-1.473s3.509-1.916,3.839-2.529c.8-1.5-3.013-.682-2.859-1.364.444-1.949,4.523-2.418,4.838-3.046.948-1.859-4.676-.212-4.123-2.193.064-.212.128-.409.193-.6a9.612,9.612,0,0,1-1.044-.52q-.332,1.128-.637,2.262a3.368,3.368,0,0,1,.81,2.7c-.093.3-.718-.084-1.384-.444q-.268,1.1-.509,2.208c.588.873,1.127,1.754.935,2.147-.218.441-.891.19-1.4.076" transform="translate(-81.263 -60.12)" fill="#92b57d"/>
            </g>
          </g>
        </g>
        <g id="Gruppe_40582" data-name="Gruppe 40582" transform="translate(26.25 4.648)" style="mix-blend-mode: multiply;isolation: isolate">
          <g id="Gruppe_40581" data-name="Gruppe 40581">
            <g id="Gruppe_40580" data-name="Gruppe 40580" clip-path="url(#clip-path-4)">
              <path id="Pfad_39734" data-name="Pfad 39734" d="M102.192,17.931c-.405.949-.79,1.906-1.165,2.866-.138,2.249.926,2.6.69,4.748a11.873,11.873,0,0,0,3.323-3.2c.7-1.008,1.914-2.543-1.019-2.594-.977-.023-1.044-.782-.827-1.727a1.551,1.551,0,0,0-1-.1" transform="translate(-101.015 -17.886)" fill="#92b57d"/>
            </g>
          </g>
        </g>
        <path id="Pfad_39735" data-name="Pfad 39735" d="M1.8,10.3c-2.919.285-1.583,1.719-.808,2.668C3.763,16.452,5.419,14.795,7.5,20.1c.71,1.931-5.027.739-3.934,2.516.364.6,4.467.742,5.066,2.649.207.667-3.655.16-2.741,1.588.377.584,3.972,1.315,4.029,2.214s-2.185.824-1.421,1.592c.743.763,3.626.618,4.276,3.7A98.83,98.83,0,0,0,1.553,4.847C.285,5.259,4.337,10.035,1.8,10.3" transform="translate(0 -3.587)" fill="#66b338"/>
        <path id="Pfad_39736" data-name="Pfad 39736" d="M13.658,10.161c-.212-1.135-.515-2.91-2.843-1.46-1.952,1.222-3.48-4.388-4.841-3.93A98.831,98.831,0,0,1,17.192,34.283c-.65-3.08,1.792-4.7,2.077-5.8s-1.575.318-1.964-.472,2.192-3.563,2.166-4.263c-.059-1.71-2.916,1.019-3.123.352-.6-1.907,2.545-4.447,2.448-5.135-.3-2.039-4.018,2.281-4.727.35-2.427-6.157.3-4.981-.41-9.152" transform="translate(-4.421 -3.512)" fill="#53912d"/>
        <path id="Pfad_39737" data-name="Pfad 39737" d="M5.854,4.765l-.128.042A98.838,98.838,0,0,1,18,42.966l.755-.25A98.845,98.845,0,0,0,5.854,4.765" transform="translate(-4.238 -3.527)" fill="#bae69c"/>
        <g id="Gruppe_40585" data-name="Gruppe 40585" transform="translate(7.016 15.623)" style="mix-blend-mode: multiply;isolation: isolate">
          <g id="Gruppe_40584" data-name="Gruppe 40584">
            <g id="Gruppe_40583" data-name="Gruppe 40583" clip-path="url(#clip-path-3)">
              <path id="Pfad_39738" data-name="Pfad 39738" d="M27.109,63.434c.315.627,4.394,1.1,4.838,3.046.154.681-3.656-.133-2.859,1.364.329.613,3.854,1.628,3.839,2.529s-2.244.647-1.544,1.473a5.326,5.326,0,0,0,1.539.857,10.807,10.807,0,0,1,1.551-2.544c-.067-.363-.139-.724-.209-1.086-.5.114-1.177.365-1.4-.076-.192-.392.347-1.273.935-2.147q-.242-1.107-.509-2.208c-.667.36-1.291.742-1.385.444a3.368,3.368,0,0,1,.81-2.7q-.3-1.135-.637-2.262a9.686,9.686,0,0,1-1.044.52c.064.191.129.389.193.6.553,1.981-5.07.335-4.123,2.193" transform="translate(-27.001 -60.12)" fill="#92b57d"/>
            </g>
          </g>
        </g>
        <g id="Gruppe_40588" data-name="Gruppe 40588" transform="translate(4.477 4.648)" style="mix-blend-mode: multiply;isolation: isolate">
          <g id="Gruppe_40587" data-name="Gruppe 40587">
            <g id="Gruppe_40586" data-name="Gruppe 40586" clip-path="url(#clip-path-4)">
              <path id="Pfad_39739" data-name="Pfad 39739" d="M19.1,19.755c-2.933.051-1.715,1.587-1.019,2.594a11.862,11.862,0,0,0,3.323,3.2c-.235-2.148.828-2.5.69-4.748-.375-.96-.76-1.917-1.165-2.866a1.552,1.552,0,0,0-1,.1c.216.945.149,1.7-.828,1.727" transform="translate(-17.229 -17.886)" fill="#92b57d"/>
            </g>
          </g>
        </g>
        <path id="Pfad_39740" data-name="Pfad 39740" d="M21.562,8c-2.933.051-1.715,1.587-1.019,2.594,2.487,3.7,4.271,2.177,5.917,7.632.553,1.981-5.07.335-4.123,2.193.315.627,4.394,1.1,4.838,3.046.154.682-3.656-.132-2.859,1.364.329.613,3.854,1.628,3.839,2.529s-2.244.647-1.543,1.473c.68.82,3.565.906,3.967,4.029A98.832,98.832,0,0,0,21.755,2.55c-1.3.309,2.361,5.393-.192,5.453" transform="translate(-14.574 -1.887)" fill="#66b338"/>
        <path id="Pfad_39741" data-name="Pfad 39741" d="M34.862,8.492c-.12-1.148-.281-2.942-2.718-1.682-2.043,1.062-3.118-4.652-4.511-4.3a98.838,98.838,0,0,1,8.825,30.314c-.4-3.122,2.161-4.539,2.534-5.616s-1.6.191-1.92-.627,2.47-3.376,2.5-4.077c.077-1.71-2.988.783-3.142.1-.444-1.949,2.892-4.229,2.85-4.923-.135-2.057-4.187,1.952-4.74-.03-1.927-6.331.693-4.942.323-9.156" transform="translate(-20.452 -1.843)" fill="#53912d"/>
        <path id="Pfad_39742" data-name="Pfad 39742" d="M27.511,2.488l-.131.032a98.84,98.84,0,0,1,9.188,39.018l.773-.189A98.844,98.844,0,0,0,27.511,2.488" transform="translate(-20.265 -1.841)" fill="#bae69c"/>
        <path id="Pfad_39743" data-name="Pfad 39743" d="M85.168,2.55a98.827,98.827,0,0,0-8.825,30.313c.4-3.122,3.288-3.208,3.968-4.029.7-.826-1.531-.572-1.543-1.473s3.509-1.916,3.839-2.529c.8-1.5-3.013-.682-2.859-1.364.444-1.949,4.523-2.419,4.838-3.046.948-1.859-4.675-.212-4.122-2.193,1.646-5.455,3.43-3.936,5.917-7.632C87.075,9.59,88.293,8.054,85.36,8c-2.553-.06,1.1-5.144-.192-5.453" transform="translate(-56.505 -1.887)" fill="#437424"/>
        <path id="Pfad_39744" data-name="Pfad 39744" d="M64.36,22.5c.029.7,2.822,3.258,2.5,4.077s-2.282-.458-1.92.627,2.936,2.494,2.534,5.616A98.834,98.834,0,0,1,76.3,2.506c-1.393-.348-2.468,5.367-4.511,4.3-2.436-1.26-2.6.534-2.718,1.682-.37,4.214,2.25,2.824.323,9.156-.553,1.982-4.6-2.027-4.74.03-.042.694,3.295,2.974,2.85,4.923-.153.682-3.219-1.811-3.142-.1" transform="translate(-47.634 -1.844)" fill="#56962f"/>
        <path id="Pfad_39745" data-name="Pfad 39745" d="M82.056,2.488a98.84,98.84,0,0,0-9.829,38.861l.773.189A98.84,98.84,0,0,1,82.187,2.52l-.131-.032" transform="translate(-53.458 -1.841)" fill="#a3c989"/>
        <g id="Gruppe_40591" data-name="Gruppe 40591" transform="translate(18.589 15.509)" style="mix-blend-mode: multiply;isolation: isolate">
          <g id="Gruppe_40590" data-name="Gruppe 40590">
            <g id="Gruppe_40589" data-name="Gruppe 40589" clip-path="url(#clip-path-7)">
              <path id="Pfad_39746" data-name="Pfad 39746" d="M71.535,69.195v2.024a6.116,6.116,0,0,1,1,1.7c.862-1,2.014-1.512,2.341-2.09.547-.965-1.609-.192-1.783-1.061s3.077-2.682,3.262-3.352a.68.68,0,0,0,0-.446c-.11-.043-.172-.1-.169-.185-.692-.406-2.921.54-2.921-.012,0-1.988,3.816-3.4,3.957-4.085a.846.846,0,0,0,.006-.351.682.682,0,0,1-.33-.343c-1.064-.348-4.238,1.182-4.238-.453,0-.123,0-.239,0-.357-.382-.163-.773-.351-1.137-.5v2.312c.775.9,1.5,1.961,1.278,2.937-.064.285-.639.015-1.278-.271v2.789c.442.6.756,1.152.636,1.457-.1.248-.348.3-.636.289" transform="translate(-71.535 -59.681)" fill="#a2c98a"/>
            </g>
          </g>
        </g>
        <g id="Gruppe_40594" data-name="Gruppe 40594" transform="translate(21.398 5.155)" style="mix-blend-mode: multiply;isolation: isolate">
          <g id="Gruppe_40593" data-name="Gruppe 40593">
            <g id="Gruppe_40592" data-name="Gruppe 40592" clip-path="url(#clip-path-8)">
              <path id="Pfad_39747" data-name="Pfad 39747" d="M82.707,19.849a4.476,4.476,0,0,0-.326,1.483,5.688,5.688,0,0,0,.533,3.274,8.372,8.372,0,0,0,.966-2.353c.266-1.025.722-2.561-1.173-2.4" transform="translate(-82.344 -19.838)" fill="#a2c98a"/>
            </g>
          </g>
        </g>
        <g id="Gruppe_40597" data-name="Gruppe 40597" transform="translate(11.675 15.509)" style="mix-blend-mode: multiply;isolation: isolate">
          <g id="Gruppe_40596" data-name="Gruppe 40596">
            <g id="Gruppe_40595" data-name="Gruppe 40595" clip-path="url(#clip-path-7)">
              <path id="Pfad_39748" data-name="Pfad 39748" d="M45.274,60.993a.682.682,0,0,1-.33.343.842.842,0,0,0,.006.351c.141.681,3.957,2.1,3.957,4.085,0,.552-2.228-.394-2.921.012,0,.083-.059.142-.169.185a.681.681,0,0,0,0,.447c.185.67,3.436,2.483,3.262,3.352s-2.329.1-1.783,1.061c.327.578,1.479,1.089,2.341,2.09a6.116,6.116,0,0,1,1-1.7V69.195c-.288.013-.537-.042-.636-.289-.12-.306.194-.854.636-1.457V64.659c-.64.286-1.214.556-1.278.271-.223-.976.5-2.035,1.278-2.937V59.681c-.364.151-.755.34-1.137.5,0,.117,0,.233,0,.357,0,1.635-3.174.1-4.238.453" transform="translate(-44.929 -59.681)" fill="#a2c98a"/>
            </g>
          </g>
        </g>
        <g id="Gruppe_40600" data-name="Gruppe 40600" transform="translate(12.799 5.155)" style="mix-blend-mode: multiply;isolation: isolate">
          <g id="Gruppe_40599" data-name="Gruppe 40599">
            <g id="Gruppe_40598" data-name="Gruppe 40598" clip-path="url(#clip-path-8)">
              <path id="Pfad_39749" data-name="Pfad 39749" d="M51,21.332a4.476,4.476,0,0,0-.326-1.483c-1.895-.157-1.438,1.379-1.172,2.4a8.365,8.365,0,0,0,.966,2.353A5.688,5.688,0,0,0,51,21.332" transform="translate(-49.254 -19.838)" fill="#a2c98a"/>
            </g>
          </g>
        </g>
        <path id="Pfad_39750" data-name="Pfad 39750" d="M71.651,5.287C69.285,5.842,70.615,0,69.23,0V31.5c0-3.127,2.8-3.889,3.346-4.845s-1.609-.192-1.783-1.061,3.078-2.682,3.262-3.352c.45-1.634-3.089.052-3.089-.643,0-1.988,3.816-3.4,3.957-4.085.418-2.02-4.562.9-4.562-1.147,0-5.667,2.129-4.618,3.212-8.8.3-1.144.84-2.932-1.923-2.283" transform="translate(-51.24 0.001)" fill="#53912d"/>
        <path id="Pfad_39751" data-name="Pfad 39751" d="M47.247,17.514c.141.68,3.957,2.1,3.957,4.085,0,.695-3.539-.991-3.089.643.185.67,3.436,2.483,3.262,3.352s-2.329.1-1.783,1.061,3.346,1.718,3.346,4.845V0c-1.385,0-.055,5.842-2.421,5.288C47.757,4.638,48.3,6.426,48.6,7.57c1.083,4.179,3.212,2.214,3.212,8.8,0,2.046-4.98-.873-4.562,1.147" transform="translate(-34.951 0.001)" fill="#66b338"/>
        <path id="Pfad_39752" data-name="Pfad 39752" d="M68.03,0,67.7,40.083h.8L68.166,0Z" transform="translate(-50.108 0)" fill="#bae69c"/>
      </g>
    </g>
  </g>
</svg>
