<svg xmlns="http://www.w3.org/2000/svg" xmlns:xlink="http://www.w3.org/1999/xlink" width="19.077" height="38.993" viewBox="0 0 19.077 38.993">
  <defs>
    <clipPath id="clip-path">
      <rect id="Rechteck_792" data-name="Rechteck 792" width="5.213" height="13.901" fill="none"/>
    </clipPath>
    <clipPath id="clip-path-2">
      <path id="Pfad_46165" data-name="Pfad 46165" d="M117.226-66.167h5.213v-13.9h-5.213Z" transform="translate(-117.226 80.068)" fill="none"/>
    </clipPath>
  </defs>
  <g id="Gruppe_46752" data-name="Gruppe 46752" transform="translate(-1678.928 -1550.125)">
    <path id="Pfad_45822" data-name="Pfad 45822" d="M123.063-65.347h-5.1v3.266h5.1Z" transform="translate(1568.168 1651.198)" fill="#76b633"/>
    <g id="Gruppe_46431" data-name="Gruppe 46431" transform="translate(1687.556 1551.364)">
      <path id="Pfad_46081" data-name="Pfad 46081" d="M-.14,0-.506.074.249,3.832l.367-.074Z" transform="translate(0.506)" fill="#76b633"/>
    </g>
    <g id="Gruppe_46432" data-name="Gruppe 46432" transform="translate(1688.43 1552.207)">
      <path id="Pfad_46082" data-name="Pfad 46082" d="M-.175,0-.632,2.982l.369.057L.194.057Z" transform="translate(0.632)" fill="#76b633"/>
    </g>
    <g id="Gruppe_46433" data-name="Gruppe 46433" transform="translate(1687.723 1554.925)">
      <path id="Pfad_46083" data-name="Pfad 46083" d="M-.331,0h-.1A.278.278,0,0,0-.71.258L-1.2,6.745h.918L-.053.289A.279.279,0,0,0-.331,0" transform="translate(1.197)" fill="#76b633"/>
    </g>
    <g id="Gruppe_46434" data-name="Gruppe 46434" transform="translate(1688.205 1554.925)">
      <path id="Pfad_46084" data-name="Pfad 46084" d="M-.147,0-.531,6.735l.437.01L.131.289A.279.279,0,0,0-.147,0" transform="translate(0.531)" fill="#679f2c"/>
    </g>
    <g id="Gruppe_46435" data-name="Gruppe 46435" transform="translate(1688.256 1557.218)">
      <path id="Pfad_46085" data-name="Pfad 46085" d="M-.447,0C-.6,1.01-1.6,4.476-1.615,4.51l.359.1C-1.214,4.471-.237,1.091-.078.057Z" transform="translate(1.615)" fill="#76b633"/>
    </g>
    <g id="Gruppe_46436" data-name="Gruppe 46436" transform="translate(1686.875 1561.553)">
      <path id="Pfad_46086" data-name="Pfad 46086" d="M-.766-.136A.354.354,0,0,0-1.117-.49h-.631A.355.355,0,0,0-2.1-.135c-.008,19.2-.667,24.393-.667,24.393H.271S-.754,20.01-.766-.136" transform="translate(2.767 0.49)" fill="#76b633"/>
    </g>
    <g id="Gruppe_46437" data-name="Gruppe 46437" transform="translate(1688.18 1561.553)">
      <path id="Pfad_46087" data-name="Pfad 46087" d="M-.267-.136A.354.354,0,0,0-.618-.49H-.963l.006,24.748H.77S-.254,20.01-.267-.136" transform="translate(0.963 0.49)" fill="#679f2c"/>
    </g>
    <g id="Gruppe_46438" data-name="Gruppe 46438" transform="translate(1686.901 1583.042)">
      <path id="Pfad_46088" data-name="Pfad 46088" d="M-.082,0C-.163,1.327-.263,2.682-.3,3.028l.168.231H1.391A7.649,7.649,0,0,1-.082,0" transform="translate(0.298)" fill="#69a02d"/>
    </g>
    <g id="Gruppe_46439" data-name="Gruppe 46439" transform="translate(1692.93 1556.588)">
      <path id="Pfad_46089" data-name="Pfad 46089" d="M-.373,0h-.973l.271,6.13H-.1Z" transform="translate(1.346)" fill="#76b633"/>
    </g>
    <g id="Gruppe_46440" data-name="Gruppe 46440" transform="translate(1693.422 1556.588)">
      <path id="Pfad_46090" data-name="Pfad 46090" d="M-.184,0H-.665l.271,6.13H.087Z" transform="translate(0.665)" fill="#679f2c"/>
    </g>
    <g id="Gruppe_46441" data-name="Gruppe 46441" transform="translate(1694.743 1559.306)">
      <path id="Pfad_46091" data-name="Pfad 46091" d="M0,0-.007.02c0,.008,0,.016,0,.024Z" transform="translate(0.008)" fill="#76b633"/>
    </g>
    <g id="Gruppe_46442" data-name="Gruppe 46442" transform="translate(1693.865 1556.436)">
      <path id="Pfad_46092" data-name="Pfad 46092" d="M-.479,0-.732-.007C-.79.956-.813,1.919-.854,2.882c0-.006,0-.012.006-.019l-.007.043c0-.008,0-.016,0-.025-.292,1.116-.6,2.227-.878,3.345l.362.1c.311-1.118.588-2.244.883-3.365l.006-.023v-.02c0-.973.019-1.944,0-2.917" transform="translate(1.732 0.007)" fill="#76b633"/>
    </g>
    <g id="Gruppe_46443" data-name="Gruppe 46443" transform="translate(1691.328 1555.262)">
      <path id="Pfad_46093" data-name="Pfad 46093" d="M-.216-1.369A17.964,17.964,0,0,0,.626.969L1.076,2l.34-.153L.943.828A17.629,17.629,0,0,1,.061-1.449,16.277,16.277,0,0,1-.451-3.838c-.044-.331-.078-.608-.1-.8s-.031-.305-.031-.305l-.2.016s.009.112.025.308.041.477.078.813a16.479,16.479,0,0,0,.462,2.44" transform="translate(0.781 4.946)" fill="#76b633"/>
    </g>
    <g id="Gruppe_46444" data-name="Gruppe 46444" transform="translate(1691.525 1552.421)">
      <path id="Pfad_46094" data-name="Pfad 46094" d="M-.667,0-2.41,4.524l.175.067L-.493.067Z" transform="translate(2.41)" fill="#76b633"/>
    </g>
    <g id="Gruppe_46445" data-name="Gruppe 46445" transform="translate(1693.055 1550.392)">
      <path id="Pfad_46095" data-name="Pfad 46095" d="M-.1-.837.785-3.023a.789.789,0,0,0-.438.27L.237-2.827a1.029,1.029,0,0,0-.21.312,3,3,0,0,0-.185-.238.967.967,0,0,0-.174.316c-.111.576.351.965.17,1.553Z" transform="translate(0.35 3.023)" fill="#76b633"/>
    </g>
    <g id="Gruppe_46446" data-name="Gruppe 46446" transform="translate(1693.308 1550.392)">
      <path id="Pfad_46096" data-name="Pfad 46096" d="M-.338,0-1.22,2.186l.08.012c.278-.549.881-.509,1.2-1A.977.977,0,0,0,.155.849s-.185.017-.3.043A1.029,1.029,0,0,0-.079.521L-.21.5A.784.784,0,0,0-.338,0" transform="translate(1.22)" fill="#679f2c"/>
    </g>
    <g id="Gruppe_46447" data-name="Gruppe 46447" transform="translate(1689.995 1552.006)">
      <path id="Pfad_46097" data-name="Pfad 46097" d="M-.011-.507C.245.161,1.03.269,1.215,1L1.321,1,.872-1.833a.973.973,0,0,0-.318.562L.378-1.278A1.166,1.166,0,0,0,.346-.82C.208-.879-.023-.947-.023-.947a1.1,1.1,0,0,0,.012.44" transform="translate(0.041 1.833)" fill="#76b633"/>
    </g>
    <g id="Gruppe_46448" data-name="Gruppe 46448" transform="translate(1690.907 1552.007)">
      <path id="Pfad_46098" data-name="Pfad 46098" d="M-.43-.216s-.2.136-.312.235A1.163,1.163,0,0,0-.914-.407l-.165.061a.971.971,0,0,0-.476-.435l.449,2.835.09-.038C-1.065,1.267-.344.92-.305.206A1.1,1.1,0,0,0-.43-.216" transform="translate(1.555 0.782)" fill="#679f2c"/>
    </g>
    <g id="Gruppe_46449" data-name="Gruppe 46449" transform="translate(1691.25 1554.804)">
      <path id="Pfad_46099" data-name="Pfad 46099" d="M-.075,0l-.2.031L-.2.511,0,.479Z" transform="translate(0.271)" fill="#76b633"/>
    </g>
    <g id="Gruppe_46450" data-name="Gruppe 46450" transform="translate(1691.445 1553.496)">
      <path id="Pfad_46100" data-name="Pfad 46100" d="M-.79,0A22.7,22.7,0,0,0-2.854,1.454l.041.148c.453-.671,1.127-.067,1.691-.317a1.013,1.013,0,0,0,.281-.254S-1.014.94-1.128.9A1.063,1.063,0,0,0-.859.607l-.1-.095A.826.826,0,0,0-.79,0" transform="translate(2.854)" fill="#76b633"/>
    </g>
    <g id="Gruppe_46451" data-name="Gruppe 46451" transform="translate(1691.332 1553.196)">
      <path id="Pfad_46101" data-name="Pfad 46101" d="M-.626-.111-.681-.24a1.088,1.088,0,0,0-.363.155c0-.122-.028-.315-.028-.315a1.008,1.008,0,0,0-.335.179c-.426.445-.241,1.053-.736,1.469L-2.15,1.2l-.112-.109.055.344A18.124,18.124,0,0,1-.085-.1.823.823,0,0,0-.626-.111" transform="translate(2.262 0.4)" fill="#679f2c"/>
    </g>
    <g id="Gruppe_46452" data-name="Gruppe 46452" transform="translate(1688.895 1554.226)">
      <path id="Pfad_46102" data-name="Pfad 46102" d="M-.14-.369a1.023,1.023,0,0,0,.346.155c.613.065,1.068-.719,1.706-.221L1.905-.588A22.665,22.665,0,0,0-.507-1.334.827.827,0,0,0-.184-.9l-.069.122a1.072,1.072,0,0,0,.346.192C0-.509-.14-.369-.14-.369" transform="translate(0.507 1.334)" fill="#76b633"/>
    </g>
    <g id="Gruppe_46453" data-name="Gruppe 46453" transform="translate(1688.895 1553.635)">
      <path id="Pfad_46103" data-name="Pfad 46103" d="M-.2-.1l-.012.14A.829.829,0,0,0-.724.212a18.133,18.133,0,0,1,2.491.8L1.65.859C1.051.616,1.039-.019.5-.311A1.021,1.021,0,0,0,.123-.378s.034.192.07.309A1.076,1.076,0,0,0-.2-.1" transform="translate(0.724 0.378)" fill="#679f2c"/>
    </g>
    <g id="Gruppe_46454" data-name="Gruppe 46454" transform="translate(1693.595 1552.284)">
      <path id="Pfad_46104" data-name="Pfad 46104" d="M-.535-1.416l.005-3.7a1.258,1.258,0,0,0-.519.651l-.222-.045a1.51,1.51,0,0,0-.134.576c-.163-.1-.443-.237-.443-.237a1.411,1.411,0,0,0-.075.562c.191.9,1.167,1.2,1.255,2.162Z" transform="translate(1.933 5.115)" fill="#76b633"/>
    </g>
    <g id="Gruppe_46455" data-name="Gruppe 46455" transform="translate(1694.993 1552.284)">
      <path id="Pfad_46105" data-name="Pfad 46105" d="M-.505-.363s-.281.132-.445.236A1.515,1.515,0,0,0-1.082-.7L-1.3-.66a1.259,1.259,0,0,0-.517-.652l-.005,3.7.122-.03C-1.614,1.4-.626,1.1-.432.2A1.41,1.41,0,0,0-.505-.363" transform="translate(1.826 1.312)" fill="#679f2c"/>
    </g>
    <g id="Gruppe_46456" data-name="Gruppe 46456" transform="translate(1694.859 1555.953)">
      <path id="Pfad_46106" data-name="Pfad 46106" d="M0,0V.626H.254V0Z" transform="translate(0.001)" fill="#76b633"/>
    </g>
    <g id="Gruppe_46457" data-name="Gruppe 46457" transform="translate(1695.083 1554.708)">
      <path id="Pfad_46107" data-name="Pfad 46107" d="M0-.548l.022.2c.712-.761,1.449.145,2.216-.06a1.309,1.309,0,0,0,.41-.266s-.2-.15-.339-.228a1.392,1.392,0,0,0,.4-.314L2.6-1.36a1.06,1.06,0,0,0,.323-.618A29.255,29.255,0,0,0,0-.548" transform="translate(0 1.978)" fill="#76b633"/>
    </g>
    <g id="Gruppe_46458" data-name="Gruppe 46458" transform="translate(1694.994 1554.125)">
      <path id="Pfad_46108" data-name="Pfad 46108" d="M0-.631v.448A23.494,23.494,0,0,1,3.01-1.7a1.061,1.061,0,0,0-.686-.123L2.281-2a1.394,1.394,0,0,0-.494.123c.023-.155.028-.407.028-.407a1.3,1.3,0,0,0-.461.161C.721-1.64.833-.83.118-.4l0-.068Z" transform="translate(0.001 2.281)" fill="#679f2c"/>
    </g>
    <g id="Gruppe_46459" data-name="Gruppe 46459" transform="translate(1691.987 1554.7)">
      <path id="Pfad_46109" data-name="Pfad 46109" d="M-.26-.6c.767.207,1.506-.7,2.216.067l.022-.2A29.357,29.357,0,0,0-.939-2.17a1.061,1.061,0,0,0,.322.618l-.113.141a1.406,1.406,0,0,0,.4.316,4.064,4.064,0,0,0-.339.226A1.311,1.311,0,0,0-.26-.6" transform="translate(0.939 2.17)" fill="#76b633"/>
    </g>
    <g id="Gruppe_46460" data-name="Gruppe 46460" transform="translate(1691.987 1554.12)">
      <path id="Pfad_46110" data-name="Pfad 46110" d="M-.263-.175a1.062,1.062,0,0,0-.686.121A23.441,23.441,0,0,1,2.058,1.47l-.119-.218C1.226.821,1.341.011.709-.472A1.311,1.311,0,0,0,.248-.633s0,.252.027.407A1.4,1.4,0,0,0-.219-.351Z" transform="translate(0.949 0.633)" fill="#679f2c"/>
    </g>
    <g id="Gruppe_46461" data-name="Gruppe 46461" transform="translate(1688.028 1567.754)">
      <path id="Pfad_46111" data-name="Pfad 46111" d="M-1.209,0h-.631a.384.384,0,0,0-.375.354C-3.5,19.551-4.368,21.3-4.368,21.3H-1.33s-.883-.8.448-20.943A.327.327,0,0,0-1.209,0" transform="translate(4.368)" fill="#76b633"/>
    </g>
    <g id="Gruppe_46462" data-name="Gruppe 46462" transform="translate(1691.629 1559.212)">
      <path id="Pfad_46112" data-name="Pfad 46112" d="M-.162,0-.587,2.266l.367.069L.2.069Z" transform="translate(0.587)" fill="#76b633"/>
    </g>
    <g id="Gruppe_46463" data-name="Gruppe 46463" transform="translate(1691.827 1559.264)">
      <path id="Pfad_46113" data-name="Pfad 46113" d="M-.162,0-.587,2.266l.168.017L.007.017Z" transform="translate(0.587)" fill="#679f2c"/>
    </g>
    <g id="Gruppe_46464" data-name="Gruppe 46464" transform="translate(1691.1 1557.546)">
      <path id="Pfad_46114" data-name="Pfad 46114" d="M-.012,0A13.93,13.93,0,0,0,.464,3.93l.181-.047A14.088,14.088,0,0,1,.173.023Z" transform="translate(0.043)" fill="#76b633"/>
    </g>
    <g id="Gruppe_46465" data-name="Gruppe 46465" transform="translate(1690.49 1561.219)">
      <path id="Pfad_46115" data-name="Pfad 46115" d="M-.5,0H-.6A.3.3,0,0,0-.9.258l-.92,6.487H-.9L-.244.289A.258.258,0,0,0-.5,0" transform="translate(1.819)" fill="#76b633"/>
    </g>
    <g id="Gruppe_46466" data-name="Gruppe 46466" transform="translate(1690.774 1561.219)">
      <path id="Pfad_46116" data-name="Pfad 46116" d="M-.4,0H-.44l-.987,6.745h.635L-.135.289A.258.258,0,0,0-.4,0" transform="translate(1.427)" fill="#679f2c"/>
    </g>
    <g id="Gruppe_46467" data-name="Gruppe 46467" transform="translate(1689.929 1563.355)">
      <path id="Pfad_46117" data-name="Pfad 46117" d="M-.02,0A24.026,24.026,0,0,0,.412,4.945l.369-.064A24.612,24.612,0,0,1,.345.08Z" transform="translate(0.071)" fill="#76b633"/>
    </g>
    <g id="Gruppe_46468" data-name="Gruppe 46468" transform="translate(1688.522 1563.712)">
      <path id="Pfad_46118" data-name="Pfad 46118" d="M-.378-.462A3.7,3.7,0,0,1,.083.386,1.836,1.836,0,0,1,.167.678C.183.757.192.8.192.8L.557.721S.545.677.527.6A2.389,2.389,0,0,0,.41.256a4.015,4.015,0,0,0-.545-.9,5.027,5.027,0,0,0-.722-.748,2.087,2.087,0,0,0-.4-.276l-.1.21a1.786,1.786,0,0,1,.341.26,4.777,4.777,0,0,1,.647.736" transform="translate(1.366 1.668)" fill="#76b633"/>
    </g>
    <g id="Gruppe_46469" data-name="Gruppe 46469" transform="translate(1686.25 1562.304)">
      <path id="Pfad_46119" data-name="Pfad 46119" d="M-.56-.638a1.167,1.167,0,0,1,.887.091l.1-.1L-2.024-2.306a1.252,1.252,0,0,0,.17.488.368.368,0,0,0-.028.124,1.318,1.318,0,0,0,.153.1.367.367,0,0,0-.1.093,1.219,1.219,0,0,0,.349.24.5.5,0,0,0-.138.037c0,.04.074.132.082.133a.763.763,0,0,0-.205.14.916.916,0,0,0,.27.234.218.218,0,0,0-.041.1c.268.189.677.026.953-.028" transform="translate(2.024 2.306)" fill="#76b633"/>
    </g>
    <g id="Gruppe_46470" data-name="Gruppe 46470" transform="translate(1686.251 1562.063)">
      <path id="Pfad_46120" data-name="Pfad 46120" d="M-.315-.047A.36.36,0,0,0-.364.081a1.271,1.271,0,0,0-.153-.1.364.364,0,0,0-.1.072,1.236,1.236,0,0,0-.516.022L.756,1.357l.593.4.031-.172A1.535,1.535,0,0,1,.954.815C.9.538.9.1.628-.081A.226.226,0,0,0,.545,0,.9.9,0,0,0,.228-.169.783.783,0,0,0,.173.073.284.284,0,0,0,.02.047.509.509,0,0,0,.037.189,1.2,1.2,0,0,0-.315-.047" transform="translate(1.137 0.169)" fill="#679f2c"/>
    </g>
    <g id="Gruppe_46471" data-name="Gruppe 46471" transform="translate(1688.945 1559.778)">
      <path id="Pfad_46121" data-name="Pfad 46121" d="M-.234-.416c-.046.021-.1.16-.1.168A.978.978,0,0,0-.606-.39,1.142,1.142,0,0,0-.7.046a.274.274,0,0,0-.14.016c-.048.406.373.757.6,1.027A1.451,1.451,0,0,1,.181,2.115l.164.051L.713-1.5a1.55,1.55,0,0,0-.433.475.462.462,0,0,0-.152.043A1.532,1.532,0,0,0,.1-.756.464.464,0,0,0-.057-.811a1.5,1.5,0,0,0-.055.524A.621.621,0,0,0-.234-.416" transform="translate(0.845 1.502)" fill="#76b633"/>
    </g>
    <g id="Gruppe_46472" data-name="Gruppe 46472" transform="translate(1690.131 1559.778)">
      <path id="Pfad_46122" data-name="Pfad 46122" d="M-.323-.239A.463.463,0,0,0-.464-.31a1.55,1.55,0,0,0-.33-.552l-.283,2.835-.089.887.208-.068a1.911,1.911,0,0,1,.59-.925c.273-.22.756-.481.788-.888A.282.282,0,0,0,.286.935,1.128,1.128,0,0,0,.278.49a.963.963,0,0,0-.3.085A.351.351,0,0,0-.082.39a.63.63,0,0,0-.145.1,1.5,1.5,0,0,0,.05-.524A.449.449,0,0,0-.346-.01,1.671,1.671,0,0,0-.323-.239" transform="translate(1.167 0.862)" fill="#679f2c"/>
    </g>
    <g id="Gruppe_46473" data-name="Gruppe 46473" transform="translate(1689.23 1567.754)">
      <path id="Pfad_46123" data-name="Pfad 46123" d="M-.749,0H-1.1c-.085,1.506-.518,9.128-.7,10.9-.151,1.515-.675,7.635-.91,10.394H-.87s-.883-.8.448-20.944A.326.326,0,0,0-.749,0" transform="translate(2.707)" fill="#679f2c"/>
    </g>
    <g id="Gruppe_46474" data-name="Gruppe 46474" transform="translate(1684.466 1555.427)">
      <path id="Pfad_46124" data-name="Pfad 46124" d="M-.071,0H-.258A15,15,0,0,0,.723,3.929L.9,3.861A15.117,15.117,0,0,1-.071,0" transform="translate(0.258)" fill="#76b633"/>
    </g>
    <g id="Gruppe_46475" data-name="Gruppe 46475" transform="translate(1685.47 1557.105)">
      <path id="Pfad_46125" data-name="Pfad 46125" d="M-.051,0-.184,2.266l.372.022L.322.022Z" transform="translate(0.184)" fill="#76b633"/>
    </g>
    <g id="Gruppe_46476" data-name="Gruppe 46476" transform="translate(1685.184 1559.089)">
      <path id="Pfad_46126" data-name="Pfad 46126" d="M-.171,0h-.1A.258.258,0,0,0-.533.258L-.618,6.745H.3L.125.289A.3.3,0,0,0-.171,0" transform="translate(0.618)" fill="#76b633"/>
    </g>
    <g id="Gruppe_46477" data-name="Gruppe 46477" transform="translate(1685.552 1559.089)">
      <path id="Pfad_46127" data-name="Pfad 46127" d="M-.144-.11A.3.3,0,0,0-.44-.4H-.52l.108,6.744H.03Z" transform="translate(0.52 0.399)" fill="#679f2c"/>
    </g>
    <g id="Gruppe_46478" data-name="Gruppe 46478" transform="translate(1685.81 1561.248)">
      <path id="Pfad_46128" data-name="Pfad 46128" d="M-.522,0c-.31.977-1.354,4.094-1.365,4.126l.354.119C-1.523,4.213-.478,1.093-.167.113Z" transform="translate(1.887)" fill="#76b633"/>
    </g>
    <g id="Gruppe_46479" data-name="Gruppe 46479" transform="translate(1684.467 1561.049)">
      <path id="Pfad_46129" data-name="Pfad 46129" d="M-.277-1.15l.372.037.01-.133a2.564,2.564,0,0,0,0-.38,4.736,4.736,0,0,0-.22-1.085A6.1,6.1,0,0,0-.54-3.723a2.532,2.532,0,0,0-.279-.43L-1-4a2.2,2.2,0,0,1,.231.4,5.8,5.8,0,0,1,.36.98,4.475,4.475,0,0,1,.16,1.017,2.145,2.145,0,0,1-.012.326l-.016.133" transform="translate(1 4.153)" fill="#76b633"/>
    </g>
    <g id="Gruppe_46480" data-name="Gruppe 46480" transform="translate(1682.754 1558.687)">
      <path id="Pfad_46130" data-name="Pfad 46130" d="M-.067-.675a.193.193,0,0,0-.07.083c.185.3.606.311.873.375a1.207,1.207,0,0,1,.776.463L1.631.2-.08-2.437a1.4,1.4,0,0,0,0,.541.349.349,0,0,0-.064.106,1.512,1.512,0,0,0,.107.165.3.3,0,0,0-.119.046A1.415,1.415,0,0,0,.092-1.2a.472.472,0,0,0-.137-.023.336.336,0,0,0,.033.163.644.644,0,0,0-.229.048,1.114,1.114,0,0,0,.174.339" transform="translate(0.241 2.437)" fill="#76b633"/>
    </g>
    <g id="Gruppe_46481" data-name="Gruppe 46481" transform="translate(1682.915 1558.688)">
      <path id="Pfad_46131" data-name="Pfad 46131" d="M-.63-.229a.187.187,0,0,0-.1.04A1.033,1.033,0,0,0-.966-.482a.74.74,0,0,0-.123.21c0-.007-.093-.091-.131-.09a.525.525,0,0,0-.029.144,1.419,1.419,0,0,0-.246-.375.331.331,0,0,0-.084.1,1.582,1.582,0,0,0-.106-.164A.31.31,0,0,0-1.8-.632a1.22,1.22,0,0,0-.474-.2L-.953,1.206l.414.636.081-.152A1.82,1.82,0,0,1-.609.769c.038-.287.174-.71-.021-1" transform="translate(2.276 0.828)" fill="#679f2c"/>
    </g>
    <g id="Gruppe_46482" data-name="Gruppe 46482" transform="translate(1686.336 1557.746)">
      <path id="Pfad_46132" data-name="Pfad 46132" d="M-.248-.34c-.046.012-.112.139-.11.148a1.109,1.109,0,0,0-.256-.2A1.074,1.074,0,0,0-.745.024.269.269,0,0,0-.883.011c-.083.4.3.84.492,1.159A1.677,1.677,0,0,1-.066,2.29l.156.086.683-3.6a1.279,1.279,0,0,0-.466.385.411.411,0,0,0-.152.009,1.532,1.532,0,0,0-.043.226A.513.513,0,0,0-.04-.7a1.478,1.478,0,0,0-.1.515A.769.769,0,0,0-.248-.34" transform="translate(0.895 1.228)" fill="#76b633"/>
    </g>
    <g id="Gruppe_46483" data-name="Gruppe 46483" transform="translate(1687.313 1557.745)">
      <path id="Pfad_46133" data-name="Pfad 46133" d="M-.37-.239A1.857,1.857,0,0,0-.644-.864l-.527,2.787-.165.871.208-.023a1.626,1.626,0,0,1,.659-.8c.285-.163.78-.322.848-.724a.3.3,0,0,0-.127-.072A1.176,1.176,0,0,0,.285.723a.873.873,0,0,0-.3.021.4.4,0,0,0-.044-.2A.537.537,0,0,0-.209.618,1.468,1.468,0,0,0-.114.1.423.423,0,0,0-.281.088,1.664,1.664,0,0,0-.238-.137a.539.539,0,0,0-.132-.1" transform="translate(1.336 0.864)" fill="#679f2c"/>
    </g>
    <g id="Gruppe_46484" data-name="Gruppe 46484" transform="translate(1685.016 1565.625)">
      <path id="Pfad_46134" data-name="Pfad 46134" d="M-1.371-8.153s-.985-.8-2.248-20.943a.382.382,0,0,0-.374-.354h-.631a.329.329,0,0,0-.329.354c1.184,19.2.544,20.943.544,20.943Z" transform="translate(4.954 29.45)" fill="#76b633"/>
    </g>
    <g id="Gruppe_46485" data-name="Gruppe 46485" transform="translate(1685.63 1565.625)">
      <path id="Pfad_46135" data-name="Pfad 46135" d="M-1-7.671c-.4-1.965-1.084-6.971-1.881-19.685a.382.382,0,0,0-.373-.354H-3.6c.1,1.929.417,8.19.682,10.942.167,1.733.489,4.725.754,7.158A11.412,11.412,0,0,0-1-7.671" transform="translate(3.596 27.709)" fill="#679f2c"/>
    </g>
    <g id="Gruppe_46486" data-name="Gruppe 46486" transform="translate(1687.286 1585.664)">
      <path id="Pfad_46136" data-name="Pfad 46136" d="M-.362,0l-.945.051c.052.479.1.892.133,1.207H0S-.129,1.148-.362,0" transform="translate(1.307)" fill="#679f2c"/>
    </g>
    <g id="Gruppe_46487" data-name="Gruppe 46487" transform="translate(1684.46 1555.815)">
      <path id="Pfad_46137" data-name="Pfad 46137" d="M-.519-.089A.35.35,0,0,0-.7-.03.959.959,0,0,0-.812-.321a1.153,1.153,0,0,0-.364.257A.28.28,0,0,0-1.29-.146c-.31.267-.236.811-.253,1.16a1.85,1.85,0,0,1-.331,1.23l.664-.594L.913-.251a1.555,1.555,0,0,0-.641.058A.478.478,0,0,0,.131-.265,1.712,1.712,0,0,0-.04-.111.441.441,0,0,0-.122-.26,1.486,1.486,0,0,0-.516.089a.64.64,0,0,0,0-.178" transform="translate(1.874 0.321)" fill="#76b633"/>
    </g>
    <g id="Gruppe_46488" data-name="Gruppe 46488" transform="translate(1684.46 1555.885)">
      <path id="Pfad_46138" data-name="Pfad 46138" d="M-1.067,0-3.19,1.9l-.664.594A1.852,1.852,0,0,1-2.6,2.3c.349.021.882.155,1.182-.124a.276.276,0,0,0-.069-.122,1.143,1.143,0,0,0,.3-.333.96.96,0,0,0-.277-.139.352.352,0,0,0,.079-.178.634.634,0,0,0-.177-.022,1.5,1.5,0,0,0,.391-.354.453.453,0,0,0-.14-.1A1.574,1.574,0,0,0-1.14.778.459.459,0,0,0-1.2.63,1.54,1.54,0,0,0-1.067,0" transform="translate(3.854)" fill="#679f2c"/>
    </g>
    <g id="Gruppe_46489" data-name="Gruppe 46489" transform="translate(1681.399 1557.084)">
      <path id="Pfad_46139" data-name="Pfad 46139" d="M-.373,0h-.973L-.079,8.557H.894Z" transform="translate(1.346)" fill="#76b633"/>
    </g>
    <g id="Gruppe_46490" data-name="Gruppe 46490" transform="translate(1681.833 1557.084)">
      <path id="Pfad_46140" data-name="Pfad 46140" d="M-.206,0H-.745L.522,8.557h.539Z" transform="translate(0.745)" fill="#679f2c"/>
    </g>
    <g id="Gruppe_46491" data-name="Gruppe 46491" transform="translate(1683.423 1555.244)">
      <path id="Pfad_46141" data-name="Pfad 46141" d="M-.112,0-.406,10.4h.3L.191,0Z" transform="translate(0.406)" fill="#76b633"/>
    </g>
    <g id="Gruppe_46492" data-name="Gruppe 46492" transform="translate(1683.657 1557.828)">
      <path id="Pfad_46142" data-name="Pfad 46142" d="M-.508-.052-.636-.188a3.828,3.828,0,0,0-1.2,2.152h.187c0-.926,1.129-2.005,1.14-2.016" transform="translate(1.835 0.188)" fill="#76b633"/>
    </g>
    <g id="Gruppe_46493" data-name="Gruppe 46493" transform="translate(1678.928 1557.26)">
      <path id="Pfad_46143" data-name="Pfad 46143" d="M0-.35a.963.963,0,0,0,.145.33c.389.438.98.31,1.336.811L1.558.768.361-1.263A.789.789,0,0,0,.309-.75L.182-.709A1.028,1.028,0,0,0,.3-.352a2.926,2.926,0,0,0-.3,0" transform="translate(0 1.263)" fill="#76b633"/>
    </g>
    <g id="Gruppe_46494" data-name="Gruppe 46494" transform="translate(1679.288 1557.261)">
      <path id="Pfad_46144" data-name="Pfad 46144" d="M-.456-.158A.963.963,0,0,0-.676-.445a2.913,2.913,0,0,0-.148.262A1.023,1.023,0,0,0-1.078-.46l-.1.091a.785.785,0,0,0-.473-.2l1.2,2.031L-.394,1.4C-.66.848-.262.395-.456-.158" transform="translate(1.649 0.572)" fill="#679f2c"/>
    </g>
    <g id="Gruppe_46495" data-name="Gruppe 46495" transform="translate(1682.18 1550.125)">
      <path id="Pfad_46145" data-name="Pfad 46145" d="M-.649-1.714V-6.191a1.521,1.521,0,0,0-.627.788l-.268-.054a1.823,1.823,0,0,0-.161.7c-.2-.125-.537-.286-.537-.286a1.715,1.715,0,0,0-.09.681C-2.1-3.272-.917-2.914-.81-1.749Z" transform="translate(2.345 6.191)" fill="#76b633"/>
    </g>
    <g id="Gruppe_46496" data-name="Gruppe 46496" transform="translate(1683.875 1550.125)">
      <path id="Pfad_46146" data-name="Pfad 46146" d="M-.61-.439s-.34.161-.537.286a1.823,1.823,0,0,0-.161-.7L-1.577-.8A1.517,1.517,0,0,0-2.2-1.585V2.892l.148-.036C-1.949,1.692-.753,1.334-.52.242A1.715,1.715,0,0,0-.61-.439" transform="translate(2.204 1.585)" fill="#679f2c"/>
    </g>
    <path id="Pfad_45823" data-name="Pfad 45823" d="M114.62-107.851h.309v-.756h-.309Z" transform="translate(1569.094 1663.174)" fill="#76b633"/>
    <g id="Gruppe_46497" data-name="Gruppe 46497" transform="translate(1683.985 1553.055)">
      <path id="Pfad_46148" data-name="Pfad 46148" d="M0-.665l.027.239C.888-1.35,1.78-.253,2.709-.5a1.592,1.592,0,0,0,.5-.323s-.244-.182-.411-.275a1.683,1.683,0,0,0,.485-.381l-.136-.171A1.288,1.288,0,0,0,3.534-2.4,35.438,35.438,0,0,0,0-.665" transform="translate(0 2.401)" fill="#76b633"/>
    </g>
    <g id="Gruppe_46498" data-name="Gruppe 46498" transform="translate(1683.877 1552.351)">
      <path id="Pfad_46149" data-name="Pfad 46149" d="M0-.765v.542A28.32,28.32,0,0,1,3.642-2.061a1.286,1.286,0,0,0-.831-.148l-.052-.213a1.683,1.683,0,0,0-.6.15,4.84,4.84,0,0,0,.033-.493,1.59,1.59,0,0,0-.559.195C.871-1.988,1.008-1.006.143-.487l0-.083Z" transform="translate(0 2.765)" fill="#679f2c"/>
    </g>
    <g id="Gruppe_46499" data-name="Gruppe 46499" transform="translate(1680.235 1553.055)">
      <path id="Pfad_46150" data-name="Pfad 46150" d="M-.316-.727c.929.249,1.821-.847,2.682.077l.027-.239A35.438,35.438,0,0,0-1.141-2.625a1.286,1.286,0,0,0,.391.748l-.136.171A1.675,1.675,0,0,0-.4-1.325c-.166.093-.411.275-.411.275a1.592,1.592,0,0,0,.5.323" transform="translate(1.141 2.625)" fill="#76b633"/>
    </g>
    <g id="Gruppe_46500" data-name="Gruppe 46500" transform="translate(1680.235 1552.351)">
      <path id="Pfad_46151" data-name="Pfad 46151" d="M-.318-.213a1.286,1.286,0,0,0-.831.148A28.3,28.3,0,0,1,2.494,1.775L2.35,1.51C1.486.991,1.623.009.858-.573A1.6,1.6,0,0,0,.3-.768S.3-.463.332-.275a1.677,1.677,0,0,0-.6-.15Z" transform="translate(1.149 0.768)" fill="#679f2c"/>
    </g>
    <g id="Gruppe_46501" data-name="Gruppe 46501" transform="translate(1680.307 1559.078)">
      <path id="Pfad_46152" data-name="Pfad 46152" d="M-.061,0-.222.1A21.706,21.706,0,0,0,1.7,2.653l.14-.123A21.363,21.363,0,0,1-.061,0" transform="translate(0.222)" fill="#76b633"/>
    </g>
    <g id="Gruppe_46502" data-name="Gruppe 46502" transform="translate(1682.454 1565.629)">
      <path id="Pfad_46153" data-name="Pfad 46153" d="M-1.409-8.991,2.032-9l-.552-2.213S-1.557-14.4-1.928-16.92C-3.041-24.49-3.508-30.693-3.61-32.154a.35.35,0,0,0-.35-.326h-.778a.351.351,0,0,0-.351.375c.114,1.687.622,8.776,1.532,15.26.592,4.223,1.63,7.854,2.149,7.854" transform="translate(5.09 32.48)" fill="#76b633"/>
    </g>
    <g id="Gruppe_46503" data-name="Gruppe 46503" transform="translate(1683.091 1565.629)">
      <path id="Pfad_46154" data-name="Pfad 46154" d="M-1.29-6.814a6.912,6.912,0,0,1-.845-2.24c-1.114-7.57-1.582-13.773-1.683-15.234a.35.35,0,0,0-.351-.326h-.492c.176,2.227.782,9.695,1.222,12.777.372,2.6.838,3.849,2.149,5.024" transform="translate(4.661 24.615)" fill="#679f2c"/>
    </g>
    <g id="Gruppe_46504" data-name="Gruppe 46504" transform="translate(1684.394 1583.602)">
      <path id="Pfad_46155" data-name="Pfad 46155" d="M0,0C.122.654.252,1.274.385,1.846H8.26C8.392,1.274,8.523.654,8.645,0H6.477c-.02.031-.039.064-.059.094,0-.03,0-.064,0-.094Z" fill="#85cf39"/>
    </g>
    <g id="Gruppe_46505" data-name="Gruppe 46505" transform="translate(1687.894 1562.665)">
      <path id="Pfad_46156" data-name="Pfad 46156" d="M-2.106-7.12A163.534,163.534,0,0,0-1.07-25.365a.352.352,0,0,0-.351-.353H-2.2a.35.35,0,0,0-.352.35A138.614,138.614,0,0,1-3.736-7.194c-.37,2.52-2.13,3.774-2.991,4.915a5.916,5.916,0,0,0-.881,3l3.353.01C-3.736.735-2.7-2.9-2.106-7.12" transform="translate(7.608 25.718)" fill="#76b633"/>
    </g>
    <g id="Gruppe_46506" data-name="Gruppe 46506" transform="translate(1690.151 1562.665)">
      <path id="Pfad_46157" data-name="Pfad 46157" d="M-1.242-7.12A163.534,163.534,0,0,0-.206-25.365a.352.352,0,0,0-.351-.353h-.495c-.008,2.081-.126,17.01-1.567,20.824A42.488,42.488,0,0,0-4.487.731l1.1,0c.519,0,1.556-3.631,2.149-7.854" transform="translate(4.487 25.718)" fill="#679f2c"/>
    </g>
    <g id="Gruppe_46507" data-name="Gruppe 46507" transform="translate(1685.235 1587.281)">
      <path id="Pfad_46158" data-name="Pfad 46158" d="M-2.3-.7c.227,0,.555-.7.9-1.837H-8.314C-7.968-1.4-7.641-.7-7.414-.7Z" transform="translate(8.314 2.54)" fill="#b8e08a"/>
    </g>
    <g id="Gruppe_46508" data-name="Gruppe 46508" transform="translate(1684.751 1585.441)">
      <path id="Pfad_46159" data-name="Pfad 46159" d="M-3.016,0H-10.9c.161.694.325,1.318.485,1.846H-3.5c.161-.529.325-1.153.485-1.846" transform="translate(10.895)" fill="#92dc46"/>
    </g>
    <g id="Gruppe_46509" data-name="Gruppe 46509" transform="translate(1687.053 1583.602)">
      <path id="Pfad_46160" data-name="Pfad 46160" d="M-.435-.707c-.088-.458-.188-1.061-.3-1.846H-1.57c0,.042.009.082.014.123A11.627,11.627,0,0,0-.546-.707Z" transform="translate(1.57 2.553)" fill="#76b633"/>
    </g>
    <g id="Gruppe_46510" data-name="Gruppe 46510" transform="translate(1690.151 1587.281)">
      <path id="Pfad_46161" data-name="Pfad 46161" d="M-.456-.689A.5.5,0,0,0-.37-.771a.225.225,0,0,0,.017-.02A1.252,1.252,0,0,0-.262-.926l.014-.025c.034-.057.068-.12.1-.193s.072-.155.108-.242c.005-.012.01-.022.014-.035C.014-1.506.05-1.6.086-1.7L.1-1.748c.036-.1.073-.205.111-.317l.016-.05C.27-2.235.31-2.358.35-2.489H-1.139c-.224.7-.384,1.277-.507,1.833l1.1,0a.157.157,0,0,0,.082-.03l.012-.007" transform="translate(1.646 2.489)" fill="#a0c579"/>
    </g>
    <g id="Gruppe_46511" data-name="Gruppe 46511" transform="translate(1690.657 1585.441)">
      <path id="Pfad_46162" data-name="Pfad 46162" d="M-.619-.538c.037-.133.074-.27.112-.412,0-.007,0-.015.006-.023.08-.3.16-.628.239-.97H-1.6c-.26.714-.468,1.315-.638,1.846H-.748c.037-.121.074-.248.111-.378l.018-.063" transform="translate(2.236 1.943)" fill="#80c03d"/>
    </g>
    <g id="Gruppe_46512" data-name="Gruppe 46512" transform="translate(1691.291 1583.602)">
      <path id="Pfad_46163" data-name="Pfad 46163" d="M-.262,0C-.524.694-.751,1.3-.948,1.846H.389C.522,1.274.652.654.774,0Z" transform="translate(0.948)" fill="#75b331"/>
    </g>
    <g id="Gruppe_46513" data-name="Gruppe 46513" transform="translate(1685.599 1575.206)" style="mix-blend-mode: multiply;isolation: isolate">
      <g id="Gruppe_46751" data-name="Gruppe 46751">
        <g id="Gruppe_46750" data-name="Gruppe 46750" clip-path="url(#clip-path)">
          <g id="Gruppe_46749" data-name="Gruppe 46749" transform="translate(0 0)" clip-path="url(#clip-path-2)">
            <g id="Gruppe_46748" data-name="Gruppe 46748" transform="translate(0 0)">
              <path id="Pfad_46164" data-name="Pfad 46164" d="M0-.8C.054.885.082,2.3.093,3.476A12.936,12.936,0,0,0,2.726,8.018c.007.03.014.058.021.086,0,.011,0,.022-.005.032a6.6,6.6,0,0,0-.588,2.891h.14a5.926,5.926,0,0,1,.881-3C3.7,7.335,4.541,6.6,5.212,5.58V3.848A11.454,11.454,0,0,1,3.021,7.706c.183-1.375.4-3.315.657-6.044-.049-.855-.1-1.809-.14-2.88C3.194,2.89,3.03,5.617,2.83,7.422,2.6,6.079,2.318,3.291,1.806-2.874,1.777-1.631,1.745-.516,1.712.485c.377,3.9.695,5.987.92,7.1A11.144,11.144,0,0,1,.505,2.48C.4,1.584.114.053,0-.8" transform="translate(0 2.874)" fill="#c0d3a7"/>
            </g>
          </g>
        </g>
      </g>
    </g>
  </g>
</svg>
