<svg id="Gruppe_46777" data-name="Gruppe 46777" xmlns="http://www.w3.org/2000/svg" width="16.674" height="41.626" viewBox="0 0 16.674 41.626">
  <path id="Pfad_5450" data-name="Pfad 5450" d="M-.1-17.7A3,3,0,0,0,2.275-18.2a64.282,64.282,0,0,1-1.5-7.217A1.152,1.152,0,0,0,.82-26.578a11.587,11.587,0,0,1,.04-4.438,25.754,25.754,0,0,1,.614-3.037c.219-.22,0-4.02.289-4.239s.171-1.94.171-1.94l.336-1.952.357-.188-.053-3.273s.03-2.466-.977-3.515c-1.308-.518-1.067.428-.739.972s-.121,1.229,0,1.778A12.352,12.352,0,0,1-.163-41.421C-.3-39.8-.551-38.173-.829-36.555a1.407,1.407,0,0,1-.139.617c-.127.169-.307.256-.3.461.006.171.206.335.2.519s-.32,1.522-.414,2.01c-.145.754-.277,1.512-.374,2.27a4.634,4.634,0,0,0-.056.732c.042,1.37.513,6.883.523,8.718.764.959.74,2.816,1.288,3.524" transform="translate(6.452 55.926)" fill="#93a33d"/>
  <path id="Pfad_5451" data-name="Pfad 5451" d="M0-3.989c.041-.022.115-.008.114.042A1.739,1.739,0,0,0,.157-3.5a5.249,5.249,0,0,0,.989,1.638c.38.525-.315,4.752-.584,6.334a10.658,10.658,0,0,0,.931,6.327,1.777,1.777,0,0,0-.129-.748,16.612,16.612,0,0,1,.041-5.317,36.1,36.1,0,0,1,.613-3.638c.219-.264,0-4.816.289-5.078s.171-2.324.171-2.324l.336-2.338.357-.224L3.12-12.8s.03-2.954-.977-4.211c-1.308-.62-1.067.513-.739,1.165s-.12,1.473,0,2.131A17.433,17.433,0,0,1,.383-7.736C.295-6.485.159-5.236,0-3.989" transform="translate(5.753 23.802)" fill="#6b821c"/>
  <path id="Pfad_5452" data-name="Pfad 5452" d="M-.006-.569S1.109-.437,1.4-.752-.082-2.45-.082-2.45A6.188,6.188,0,0,0-.006-.569" transform="translate(5.194 34.703)" fill="#d1b291"/>
  <path id="Pfad_5453" data-name="Pfad 5453" d="M-.047-.324c.092.131.157.274.259.4C.223-.021.168-.291.2-.3S.272-.274.29-.26c.068.047.142.091.212.136A9.568,9.568,0,0,0-.849-1.4S-.88-1-.887-.571a.078.078,0,0,1,.024.01.589.589,0,0,1,.19.332c0-.034.009-.068.014-.1.011-.068.135.092.128.134.008-.051.055-.247.084-.252s.077.1.092.121a.543.543,0,0,1,.065.152.258.258,0,0,0,.034.1c0-.051-.022-.228-.015-.264s.027-.111.064-.117.153.127.159.137" transform="translate(5.964 33.639)" fill="#826638"/>
  <path id="Pfad_5454" data-name="Pfad 5454" d="M0-.373S.655.035,1-.084.874-1.605.874-1.605A5.773,5.773,0,0,0,0-.373" transform="translate(4.911 20.537)" fill="#d1b291"/>
  <path id="Pfad_5455" data-name="Pfad 5455" d="M-.025-.279c0,.111-.033.221-.03.333C0-.005.1-.2.122-.2s.033.041.039.055c.021.05.047.1.07.149A5.049,5.049,0,0,0-.017-1.2s-.213.245-.428.52a.057.057,0,0,1,.009.013.384.384,0,0,1-.04.27L-.417-.46c.041-.041.042.1.017.124.029-.031.156-.144.178-.138s0,.085,0,.1a.341.341,0,0,1-.033.117A.19.19,0,0,0-.28-.183c.027-.032.1-.152.119-.174s.073-.065.1-.056.036.125.036.134" transform="translate(5.765 20.144)" fill="#826638"/>
  <path id="Pfad_5456" data-name="Pfad 5456" d="M-.082-.565s-1.077.253-1.426-.028S-.369-2.435-.369-2.435A6.294,6.294,0,0,1-.082-.565" transform="translate(7.48 30.828)" fill="#d1b291"/>
  <path id="Pfad_5457" data-name="Pfad 5457" d="M-.028-.347c-.065.141-.1.289-.178.426C-.236-.018-.234-.29-.264-.3s-.069.038-.084.052c-.059.055-.123.106-.184.159A8.392,8.392,0,0,1,.56-1.5s.106.386.2.812a.067.067,0,0,0-.021.012.537.537,0,0,0-.124.35C.6-.354.589-.387.575-.42c-.024-.065-.114.106-.1.147C.459-.322.374-.512.343-.514S.287-.408.276-.385a.483.483,0,0,0-.035.157.251.251,0,0,1-.015.1C.214-.179.2-.356.19-.391S.142-.5.1-.5s-.127.143-.132.152" transform="translate(6.552 29.917)" fill="#826638"/>
  <path id="Pfad_5458" data-name="Pfad 5458" d="M-.082-.565s-1.077.253-1.426-.028S-.369-2.435-.369-2.435A6.294,6.294,0,0,1-.082-.565" transform="translate(8.411 17.935)" fill="#d1b291"/>
  <path id="Pfad_5459" data-name="Pfad 5459" d="M-.028-.347c-.065.141-.1.289-.178.427-.031-.1-.027-.37-.058-.38s-.069.038-.085.052c-.058.055-.122.106-.183.159A8.392,8.392,0,0,1,.56-1.5s.106.386.2.812a.067.067,0,0,0-.021.012.543.543,0,0,0-.125.35C.6-.353.589-.387.575-.42c-.024-.065-.114.106-.1.147-.016-.05-.1-.24-.132-.241S.287-.408.276-.385a.488.488,0,0,0-.035.157.249.249,0,0,1-.015.1C.215-.179.2-.355.19-.391S.142-.5.1-.5s-.126.143-.131.152" transform="translate(7.484 17.006)" fill="#826638"/>
  <path id="Pfad_5460" data-name="Pfad 5460" d="M0-.476a6.276,6.276,0,0,0,2.007.295c.784-.09-.211-1.437-.392-1.87C.633-1.858.407-.968,0-.476" transform="translate(4.761 25.948)" fill="#d1b291"/>
  <path id="Pfad_5461" data-name="Pfad 5461" d="M0-.356A2.168,2.168,0,0,1,.372-.577C.431-.6.224.093.224.093a7.225,7.225,0,0,1,.448-.72A7.306,7.306,0,0,1,.694.148,3.491,3.491,0,0,0,.963-.836c.01-.047.1-.048.128-.01a3.867,3.867,0,0,1,.225.677c0-.078.008-.388.01-.465,0-.038.046-.057.09-.05a1.051,1.051,0,0,1,.3.092c-.175-.367-.421-.746-.5-.94A1.616,1.616,0,0,0,.2-.868c.016.025-.148.3-.2.512" transform="translate(5.13 25.445)" fill="#826638"/>
  <path id="Pfad_5462" data-name="Pfad 5462" d="M0-.033A2.537,2.537,0,0,0,.447.024a2.246,2.246,0,0,0,.792-.117c.045-.016.528-.109.495,0-.02.066.306.262-.412.272A3.754,3.754,0,0,1,.66.243C.587.235.226.244.122.238A2.934,2.934,0,0,1,0-.033" transform="translate(5.258 34.251)" fill="#a8ba63"/>
  <path id="Pfad_5463" data-name="Pfad 5463" d="M-.11-.1A1.268,1.268,0,0,0,.025-.45a4,4,0,0,1-1.283.172,2.519,2.519,0,0,0-.823.022s.013.121.346.128,1.047.064,1.047.064S-.246-.088-.11-.1" transform="translate(7.363 30.742)" fill="#a8ba63"/>
  <path id="Pfad_5464" data-name="Pfad 5464" d="M0,0S.612.175.879.217a6.119,6.119,0,0,0,1.151.1c.3-.03.481-.1.539-.087A1.276,1.276,0,0,1,1.8.6,1.107,1.107,0,0,1,.868.53,3.021,3.021,0,0,0,.2.21C.018.162-.015.107,0,0" transform="translate(4.675 25.467)" fill="#a8ba63"/>
  <path id="Pfad_5465" data-name="Pfad 5465" d="M0,0A1.227,1.227,0,0,0,.109.217a2.282,2.282,0,0,0,.955.057C1.043.2.974.183.729.177A3.371,3.371,0,0,1,0,0" transform="translate(5.32 20.318)" fill="#a8ba63"/>
  <path id="Pfad_5466" data-name="Pfad 5466" d="M0-.582A2.254,2.254,0,0,0,1.4-.676c.5-.311-.287-1.833-.287-1.833A5.075,5.075,0,0,0,0-.582" transform="translate(6.179 14.701)" fill="#baaf7f"/>
  <path id="Pfad_5467" data-name="Pfad 5467" d="M-.021-.3c.04-.04.134-.028.13.029A2.762,2.762,0,0,0,.078,0,.6.6,0,0,1,.271-.36a.079.079,0,0,1,.116.026c.04.153.046.307.081.459A2.975,2.975,0,0,0,.6-.24C.624-.3.728-.279.736-.222a.238.238,0,0,1,0,.027C.756-.256.772-.316.791-.378.8-.418.874-.428.908-.4l.023.021A5.729,5.729,0,0,0,.563-1.3,6.638,6.638,0,0,0-.4.137,4.82,4.82,0,0,1-.021-.3" transform="translate(6.723 13.51)" fill="#826638"/>
  <path id="Pfad_5468" data-name="Pfad 5468" d="M-.035,0s-.89,1.466-.548,1.707.611-.148.611-.148Z" transform="translate(8.709 11.552)" fill="#baaf7f"/>
  <path id="Pfad_5469" data-name="Pfad 5469" d="M0-.314c.01-.064.189-.224.187-.157,0,.051-.063.378-.064.428C.13-.067.2-.367.212-.391.238-.432.331-.418.34-.375s.018.145.024.187A1.4,1.4,0,0,0,.4-.408.306.306,0,0,1,.435-.475L.4-1.353a7.765,7.765,0,0,0-.469.92A.4.4,0,0,1-.03-.469c.024-.019,0,.145.027.155" transform="translate(8.27 12.923)" fill="#826638"/>
  <path id="Pfad_5470" data-name="Pfad 5470" d="M0-.48a10.6,10.6,0,0,0,1.694.235c-.01-.256.029-2.1-.738-1.786A2.434,2.434,0,0,0,.5-1.4,4.313,4.313,0,0,1,0-.48" transform="translate(7.03 11.743)" fill="#baaf7f"/>
  <path id="Pfad_5471" data-name="Pfad 5471" d="M0-.217c.022.091-.043.2-.035.293A1.771,1.771,0,0,0,.077-.107C.143-.222.141.262.141.262s.334-.645.327-.6a6.213,6.213,0,0,0-.1.918c.075-.187.2-.677.2-.677S.6.491.635.4c0-.07,0-.139,0-.209,0-.113-.006-.231.01-.342A.083.083,0,0,1,.729-.214c.048,0,.053.034.056.063a1.014,1.014,0,0,0,.076.28C.9.011.912-.111.945-.231c.008-.028.038-.038.068-.035C.922-.7.741-1.05.37-.9a2.4,2.4,0,0,0-.459.63.134.134,0,0,0-.007.015c.037-.01.081,0,.09.035" transform="translate(7.581 10.62)" fill="#826638"/>
  <path id="Pfad_5472" data-name="Pfad 5472" d="M-.012-.5S.677-.68.644-.784a5.481,5.481,0,0,0-.634-1.23C-.243-2.3-.231-2.1-.231-2.1Z" transform="translate(7.129 10.7)" fill="#baaf7f"/>
  <path id="Pfad_5473" data-name="Pfad 5473" d="M-.035-.324A2.393,2.393,0,0,1-.117-.656c0-.05.08.086.082.086a3.336,3.336,0,0,0-.387-.671c-.254-.286-.241-.087-.241-.087l.11.81c.01,0,0-.284.015-.286a5.443,5.443,0,0,1,.148.56A3.1,3.1,0,0,1-.444-.729a3.245,3.245,0,0,1,.2.412A2.977,2.977,0,0,1-.333-.729c.017,0,.114.171.132.17S-.251-.793-.231-.795a3.2,3.2,0,0,1,.2.471" transform="translate(7.577 9.935)" fill="#967256"/>
  <path id="Pfad_5474" data-name="Pfad 5474" d="M0-.339s.388.223.466.011A2.567,2.567,0,0,0,.248-1.462C.031-1.252,0-.339,0-.339" transform="translate(8.317 8.756)" fill="#494921"/>
  <path id="Pfad_5475" data-name="Pfad 5475" d="M0-.3s.341.173.441.05a.924.924,0,0,0-.115-.971C.038-1.531.084-.581,0-.3" transform="translate(8.286 8.806)" fill="#42301e"/>
  <path id="Pfad_5476" data-name="Pfad 5476" d="M0-.4s.436.224.584-.023A1.589,1.589,0,0,0,.394-1.695C.189-1.842.08-.681,0-.4" transform="translate(7.253 7.681)" fill="#baaf7f"/>
  <path id="Pfad_5477" data-name="Pfad 5477" d="M-.01-.369s.644.182.724-.012S.111-1.4-.113-1.572s.136,1.007.1,1.2" transform="translate(7.638 7.724)" fill="#705b3d"/>
  <path id="Pfad_5478" data-name="Pfad 5478" d="M-.037-.311S-.266-1.1-.375-1.339c-.439.545-.4.9-.063,1.162s.4-.134.4-.134" transform="translate(7.336 7.666)" fill="#705b3d"/>
  <path id="Pfad_5479" data-name="Pfad 5479" d="M0-.337s.621.246.675.051A2.015,2.015,0,0,0,.341-1.44c-.183-.129-.4.69-.341,1.1" transform="translate(7.027 7.41)" fill="#594930"/>
  <path id="Pfad_5480" data-name="Pfad 5480" d="M0,0S.038,1.112.427,1.267s.628.02.633-.069S.279.008,0,0" transform="translate(7.254 5.678)" fill="#493d2d"/>
  <path id="Pfad_5481" data-name="Pfad 5481" d="M-.028-.383s-.537.024-.507-.19.48-1.1.69-1.077S-.028-.383-.028-.383" transform="translate(7.2 7.109)" fill="#876854"/>
  <path id="Pfad_5482" data-name="Pfad 5482" d="M-.042-.243S-.521.14-.727-.007-.61-.686-.46-.969s.341.258.4.635Z" transform="translate(7.566 8.087)" fill="#a58766"/>
  <path id="Pfad_5483" data-name="Pfad 5483" d="M-.035-.644S-.61-.89-.652-1.034A4.25,4.25,0,0,1-.384-2.729c.221-.317.617,1.088.7,1.484s-.347.6-.347.6" transform="translate(7.862 9.437)" fill="#826b47"/>
  <path id="Pfad_5484" data-name="Pfad 5484" d="M0-.479s.6.229.813.108S.882-1.712.683-2.039c-.322-.151-.226.479-.331.8A5.418,5.418,0,0,1,0-.479" transform="translate(7.976 10.084)" fill="#726644"/>
  <path id="Pfad_5485" data-name="Pfad 5485" d="M0-.329s.433.21.537-.019a1.355,1.355,0,0,0-.275-1.03C.064-1.617.091-.739,0-.329" transform="translate(7.875 8.215)" fill="#705b3d"/>
  <path id="Pfad_5486" data-name="Pfad 5486" d="M0-.419S.541.148.868-.561C.886-1.1.674-1.712.443-1.806A8.852,8.852,0,0,0,0-.419" transform="translate(7.789 9.562)" fill="#8e754f"/>
  <path id="Pfad_5487" data-name="Pfad 5487" d="M0-.423a1.3,1.3,0,0,0,1.071.042C.759-.8.822-1.962.537-1.807S0-.423,0-.423" transform="translate(7.113 9.075)" fill="#a08459"/>
  <path id="Pfad_5488" data-name="Pfad 5488" d="M-.13-11.443a2.552,2.552,0,0,1-2.332-.7C-1.776-13.789-.375-20.7-.375-20.7a1.6,1.6,0,0,1,.047-1.4,16.618,16.618,0,0,0,.319-5.31,35.845,35.845,0,0,0-.365-3.66c-.2-.273.326-4.809.056-5.083s-.014-2.327-.014-2.327l-.177-2.35-.342-.24.32-3.914s.17-2.95,1.26-4.161c1.348-.561,1.031.561.659,1.2s.02,1.475-.142,2.128a17.229,17.229,0,0,0,.612,6.011c0,1.95.124,3.9.27,5.85a1.953,1.953,0,0,0,.089.743c.113.207.286.321.262.567-.019.2-.231.391-.243.611s.2,1.835.25,2.423c.083.908.153,1.821.189,2.732a6.45,6.45,0,0,1,0,.877C2.52-24.37,1.6-17.8,1.443-15.6.6-14.488.476-12.266-.13-11.443" transform="translate(9.908 50.456)" fill="#93a33d"/>
  <path id="Pfad_5489" data-name="Pfad 5489" d="M-.158-4c-.039-.024-.114-.013-.117.038a1.689,1.689,0,0,1-.074.439,5.418,5.418,0,0,1-1.1,1.591c-.415.508-.009,4.759.153,6.352a10.786,10.786,0,0,1-1.358,6.275,1.772,1.772,0,0,1,.179-.742,16.616,16.616,0,0,0,.319-5.31A35.849,35.849,0,0,0-2.518.98c-.2-.274.326-4.809.056-5.084s-.015-2.327-.015-2.327l-.176-2.35-.342-.24.319-3.913s.171-2.95,1.261-4.162c1.348-.561,1.031.561.659,1.2s.02,1.475-.142,2.127A17.232,17.232,0,0,0-.286-7.761c0,1.252.053,2.506.128,3.757" transform="translate(12.054 18.407)" fill="#6b821c"/>
  <path id="Pfad_5490" data-name="Pfad 5490" d="M-.079-.567S-1.2-.485-1.469-.813.125-2.442.125-2.442a6.228,6.228,0,0,1-.2,1.875" transform="translate(11.368 31.053)" fill="#d1b291"/>
  <path id="Pfad_5491" data-name="Pfad 5491" d="M-.031-.313c-.1.128-.175.267-.285.39-.006-.1.068-.366.042-.38s-.078.026-.1.038c-.071.045-.147.085-.221.127A9.922,9.922,0,0,1,.843-1.347s0,.395-.019.825A.1.1,0,0,0,.8-.513a.614.614,0,0,0-.213.324c0-.034,0-.068-.008-.1C.573-.36.44-.206.443-.163c0-.051-.038-.25-.067-.256S.293-.325.277-.3A.531.531,0,0,0,.2-.154.266.266,0,0,1,.16-.059c0-.051.037-.227.033-.263S.173-.435.136-.442s-.161.121-.168.13" transform="translate(10.646 29.994)" fill="#826638"/>
  <path id="Pfad_5492" data-name="Pfad 5492" d="M-.062-.384s-.682.378-1.016.243.226-1.513.226-1.513A5.576,5.576,0,0,1-.062-.384" transform="translate(12.645 15.915)" fill="#d1b291"/>
  <path id="Pfad_5493" data-name="Pfad 5493" d="M-.015-.279c0,.111.018.223.008.334C-.06-.007-.143-.2-.167-.2S-.2-.163-.21-.15c-.024.05-.053.1-.08.147A5.081,5.081,0,0,1,.04-1.2s.2.254.392.539a.036.036,0,0,0-.01.012.382.382,0,0,0,.022.27C.425-.4.407-.421.388-.442.35-.484.34-.346.364-.319.335-.351.217-.47.2-.465s-.009.084-.008.1a.391.391,0,0,0,.025.117.173.173,0,0,1,.02.073C.208-.2.145-.328.125-.35S.057-.418.029-.411s-.045.124-.045.132" transform="translate(11.792 15.468)" fill="#826638"/>
  <path id="Pfad_5494" data-name="Pfad 5494" d="M0-.561s1.059.3,1.426.035S.413-2.415.413-2.415A6.372,6.372,0,0,0,0-.561" transform="translate(9.419 26.069)" fill="#d1b291"/>
  <path id="Pfad_5495" data-name="Pfad 5495" d="M-.042-.354c.056.144.082.293.149.434C.144-.016.16-.288.19-.3s.066.041.081.056c.054.057.115.111.172.167A8.17,8.17,0,0,0-.551-1.527s-.133.381-.25.8a.081.081,0,0,1,.02.014.539.539,0,0,1,.1.355c.012-.032.026-.065.041-.1.028-.064.107.111.09.152.021-.048.117-.234.148-.234s.05.108.059.132a.474.474,0,0,1,.025.158.252.252,0,0,0,.009.1c.015-.05.038-.227.054-.26s.056-.105.094-.1.117.147.12.157" transform="translate(10.378 25.203)" fill="#826638"/>
  <path id="Pfad_5496" data-name="Pfad 5496" d="M0-.561s1.059.3,1.426.035S.413-2.415.413-2.415A6.372,6.372,0,0,0,0-.561" transform="translate(9.359 13.155)" fill="#d1b291"/>
  <path id="Pfad_5497" data-name="Pfad 5497" d="M-.042-.354c.056.144.082.293.149.434C.144-.016.16-.288.19-.3s.066.041.081.056c.054.057.115.111.172.167a8.157,8.157,0,0,0-1-1.453s-.132.381-.249.8a.062.062,0,0,1,.019.014.533.533,0,0,1,.1.355c.012-.032.026-.065.041-.1.028-.065.107.111.09.151.021-.049.117-.234.148-.234s.05.108.059.132a.477.477,0,0,1,.025.158.237.237,0,0,0,.009.1c.015-.05.038-.227.053-.26s.056-.105.095-.1.117.147.12.157" transform="translate(10.318 12.272)" fill="#826638"/>
  <path id="Pfad_5498" data-name="Pfad 5498" d="M-.128-.5a6.331,6.331,0,0,1-2.025.206c-.777-.124.309-1.426.518-1.851C-.666-1.905-.5-1.007-.128-.5" transform="translate(12.499 21.342)" fill="#d1b291"/>
  <path id="Pfad_5499" data-name="Pfad 5499" d="M-.094-.372A2.106,2.106,0,0,0-.451-.609c-.057-.031.1.674.1.674a7.2,7.2,0,0,0-.4-.739A7.324,7.324,0,0,0-.822.1a3.428,3.428,0,0,1-.2-.994c-.007-.048-.1-.053-.127-.016a4.113,4.113,0,0,0-.272.667c0-.078.02-.388.022-.465,0-.038-.042-.058-.086-.054a1.069,1.069,0,0,0-.307.078c.2-.358.47-.725.564-.916a1.565,1.565,0,0,1,.969.709c-.018.024.127.3.167.521" transform="translate(12.122 20.812)" fill="#826638"/>
  <path id="Pfad_5500" data-name="Pfad 5500" d="M-.1-.055a2.557,2.557,0,0,1-.45.038A2.188,2.188,0,0,1-1.333-.17c-.044-.017-.519-.131-.494-.018.015.068-.323.248.392.291A3.718,3.718,0,0,0-.777.191c.072,0,.432.02.537.019.011,0,.14-.266.14-.266" transform="translate(11.324 30.522)" fill="#a8ba63"/>
  <path id="Pfad_5501" data-name="Pfad 5501" d="M-.006-.106A1.258,1.258,0,0,1-.117-.458a3.955,3.955,0,0,0,1.269.23,2.5,2.5,0,0,1,.82.058s-.022.121-.354.113S.569-.04.569-.04.128-.083-.006-.106" transform="translate(9.539 25.975)" fill="#a8ba63"/>
  <path id="Pfad_5502" data-name="Pfad 5502" d="M-.143,0s-.623.147-.892.177A6.087,6.087,0,0,1-2.192.223C-2.494.18-2.666.1-2.724.112a1.239,1.239,0,0,0,.744.41A1.109,1.109,0,0,0-1.046.49,3.174,3.174,0,0,1-.36.2C-.172.16-.136.108-.143,0" transform="translate(12.592 20.819)" fill="#a8ba63"/>
  <path id="Pfad_5503" data-name="Pfad 5503" d="M-.06,0A1.22,1.22,0,0,1-.184.213a2.3,2.3,0,0,1-.957.014c.027-.071.1-.087.341-.081A3.464,3.464,0,0,0-.06,0" transform="translate(12.22 15.643)" fill="#a8ba63"/>
  <path id="Pfad_5504" data-name="Pfad 5504" d="M-.085-.6A2.25,2.25,0,0,1-1.48-.752c-.478-.333.412-1.818.412-1.818A4.935,4.935,0,0,1-.085-.6" transform="translate(11.809 10.041)" fill="#baaf7f"/>
  <path id="Pfad_5505" data-name="Pfad 5505" d="M-.053-.309c-.037-.041-.132-.034-.131.024s.018.178.011.275a.587.587,0,0,0-.17-.37A.08.08,0,0,0-.458-.36c-.05.151-.067.3-.112.455a2.845,2.845,0,0,1-.106-.37C-.7-.338-.8-.32-.814-.264c0,.009,0,.018,0,.027C-.831-.3-.844-.359-.858-.422c-.009-.04-.081-.053-.117-.026L-1-.429a5.843,5.843,0,0,1,.43-.9A6.442,6.442,0,0,1,.3.146,4.592,4.592,0,0,0-.053-.309" transform="translate(11.315 8.812)" fill="#826638"/>
  <path id="Pfad_5506" data-name="Pfad 5506" d="M-.009,0S.779,1.5.422,1.729s-.6-.175-.6-.175Z" transform="translate(9.424 6.766)" fill="#baaf7f"/>
  <path id="Pfad_5507" data-name="Pfad 5507" d="M-.024-.319C-.029-.382-.2-.551-.2-.484c0,.05.037.38.035.431C-.174-.078-.222-.381-.235-.4a.08.08,0,0,0-.128.009C-.374-.354-.39-.25-.4-.21c-.025-.047-.009-.17-.022-.22A.246.246,0,0,0-.451-.5l.1-.874a7.6,7.6,0,0,1,.406.938L.013-.472C-.009-.492,0-.327-.024-.319" transform="translate(9.771 9.205)" fill="#826638"/>
  <path id="Pfad_5508" data-name="Pfad 5508" d="M-.095-.494A10.51,10.51,0,0,1-1.8-.335c.028-.254.114-2.1.858-1.749a2.317,2.317,0,0,1,.415.65,4.2,4.2,0,0,0,.435.941" transform="translate(11.158 7.821)" fill="#baaf7f"/>
  <path id="Pfad_5509" data-name="Pfad 5509" d="M-.056-.224c-.028.09.028.2.015.294A1.877,1.877,0,0,1-.146-.119C-.2-.236-.235.248-.235.248s-.29-.66-.285-.61A6.086,6.086,0,0,1-.482.558C-.543.367-.638-.128-.638-.128s-.068.584-.1.492c.006-.071.008-.14.009-.21,0-.113.021-.23.013-.342A.082.082,0,0,0-.79-.255c-.048,0-.055.031-.061.061A.992.992,0,0,1-.944.082C-.971-.038-.98-.159-1-.281-1.009-.31-1.04-.32-1.07-.318c.12-.428.326-.771.685-.6A2.32,2.32,0,0,1,.03-.27a.1.1,0,0,1,.006.015C0-.267-.045-.26-.056-.224" transform="translate(10.632 6.657)" fill="#826638"/>
  <path id="Pfad_5510" data-name="Pfad 5510" d="M-.035-.5S-.711-.707-.672-.81a5.7,5.7,0,0,1,.716-1.2c.273-.275.247-.076.247-.076Z" transform="translate(11.084 6.577)" fill="#baaf7f"/>
  <path id="Pfad_5511" data-name="Pfad 5511" d="M0-.315A2.43,2.43,0,0,0,.105-.643c0-.049-.085.083-.089.082a3.454,3.454,0,0,1,.433-.653C.722-1.489.7-1.289.7-1.289l-.165.8c-.01,0,.014-.283,0-.286A5.537,5.537,0,0,0,.35-.219,3.1,3.1,0,0,0,.437-.7,3.34,3.34,0,0,0,.2-.3,3.036,3.036,0,0,0,.326-.706C.309-.709.2-.54.183-.543S.247-.774.227-.777A3.354,3.354,0,0,0,0-.315" transform="translate(10.667 5.774)" fill="#967256"/>
  <path id="Pfad_5512" data-name="Pfad 5512" d="M-.026-.342s-.4.206-.466-.011A2.612,2.612,0,0,1-.2-1.474c.2.22.171,1.132.171,1.132" transform="translate(10.009 4.374)" fill="#494921"/>
  <path id="Pfad_5513" data-name="Pfad 5513" d="M-.028-.3s-.352.157-.443.03a.931.931,0,0,1,.18-.964c.309-.3.2.647.263.934" transform="translate(10.103 3.294)" fill="#42301e"/>
  <path id="Pfad_5514" data-name="Pfad 5514" d="M-.035-.4s-.45.2-.582-.049A1.613,1.613,0,0,1-.34-1.714C-.126-1.853-.094-.689-.035-.4" transform="translate(11.21 2.225)" fill="#baaf7f"/>
  <path id="Pfad_5515" data-name="Pfad 5515" d="M-.04-.366S-.7-.213-.762-.412s.671-.994.907-1.152-.2,1-.185,1.2" transform="translate(10.827 2.243)" fill="#705b3d"/>
  <path id="Pfad_5516" data-name="Pfad 5516" d="M0-.306s.282-.782.407-1.012C.808-.754.749-.4.391-.155S0-.306,0-.306" transform="translate(11.123 2.203)" fill="#705b3d"/>
  <path id="Pfad_5517" data-name="Pfad 5517" d="M-.038-.341s-.638.219-.677.022A2.053,2.053,0,0,1-.3-1.458c.19-.121.349.706.265,1.117" transform="translate(11.451 1.966)" fill="#594930"/>
  <path id="Pfad_5518" data-name="Pfad 5518" d="M-.063,0S-.177,1.109-.576,1.247s-.629-.008-.627-.1S-.343,0-.063,0" transform="translate(11.33 0.219)" fill="#493d2d"/>
  <path id="Pfad_5519" data-name="Pfad 5519" d="M-.009-.385S.525-.338.51-.553.1-1.672-.106-1.659s.1,1.274.1,1.274" transform="translate(11.294 1.659)" fill="#876854"/>
  <path id="Pfad_5520" data-name="Pfad 5520" d="M0-.238s.453.4.667.266S.6-.655.467-.944.109-.7.027-.327Z" transform="translate(10.872 2.612)" fill="#a58766"/>
  <path id="Pfad_5521" data-name="Pfad 5521" d="M-.018-.639S.572-.859.624-1A4.2,4.2,0,0,0,.472-2.7c-.2-.327-.689,1.059-.795,1.45a.581.581,0,0,0,.305.616" transform="translate(10.522 3.943)" fill="#826b47"/>
  <path id="Pfad_5522" data-name="Pfad 5522" d="M-.05-.486s-.613.2-.819.071.022-1.341.243-1.659c.332-.137.193.488.276.812a5.261,5.261,0,0,0,.3.776" transform="translate(10.289 5.848)" fill="#726644"/>
  <path id="Pfad_5523" data-name="Pfad 5523" d="M-.031-.331S-.477-.14-.566-.374A1.378,1.378,0,0,1-.222-1.39c.214-.23.129.647.191,1.059" transform="translate(10.551 2.725)" fill="#705b3d"/>
  <path id="Pfad_5524" data-name="Pfad 5524" d="M-.048-.425S-.625.118-.9-.6c.018-.537.272-1.14.508-1.224a8.705,8.705,0,0,1,.349,1.4" transform="translate(10.576 4.076)" fill="#8e754f"/>
  <path id="Pfad_5525" data-name="Pfad 5525" d="M-.06-.43A1.308,1.308,0,0,1-1.133-.436C-.792-.84-.776-2-.5-1.836S-.06-.43-.06-.43" transform="translate(11.223 4.76)" fill="#a08459"/>
  <path id="Pfad_5526" data-name="Pfad 5526" d="M-.1-11.445a2.587,2.587,0,0,0,2.376-.591c-.573-1.679-1.5-8.646-1.5-8.646a1.608,1.608,0,0,0,.047-1.4,16.583,16.583,0,0,1,.04-5.317,36.272,36.272,0,0,1,.614-3.638c.219-.264,0-4.816.289-5.078s.171-2.324.171-2.324l.336-2.338L2.628-41l-.053-3.922s.03-2.954-.977-4.211C.29-49.75.531-48.616.859-47.964s-.121,1.472,0,2.13A17.392,17.392,0,0,1-.163-39.859C-.3-37.911-.551-35.968-.829-34.03a1.968,1.968,0,0,1-.139.739c-.127.2-.307.306-.3.553,0,.205.2.4.2.622s-.32,1.823-.414,2.408c-.145.9-.277,1.811-.374,2.719a6.63,6.63,0,0,0-.056.877c.042,1.642.513,8.246.523,10.445.764,1.149.74,3.373,1.288,4.222" transform="translate(13.899 52.991)" fill="#93a33d"/>
  <path id="Pfad_5527" data-name="Pfad 5527" d="M0-6.947c.041-.017.115-.006.114.033a1.06,1.06,0,0,0,.044.343A4.034,4.034,0,0,0,1.146-5.3c.38.407-.315,3.687-.584,4.914a6.64,6.64,0,0,0,.931,4.908,1.106,1.106,0,0,0-.129-.58A10.042,10.042,0,0,1,1.406-.183a22.358,22.358,0,0,1,.613-2.823c.219-.2,0-3.737.289-3.94s.171-1.8.171-1.8l.336-1.814.357-.174L3.12-13.78s.03-2.292-.977-3.267c-1.308-.481-1.067.4-.739.9S1.284-15,1.4-14.49A10.8,10.8,0,0,1,.383-9.854C.295-8.884.159-7.915,0-6.947" transform="translate(13.331 27.139)" fill="#6b821c"/>
  <path id="Pfad_5528" data-name="Pfad 5528" d="M-.006-.569S1.109-.437,1.4-.752-.082-2.45-.082-2.45A6.188,6.188,0,0,0-.006-.569" transform="translate(12.544 38.04)" fill="#d1b291"/>
  <path id="Pfad_5529" data-name="Pfad 5529" d="M-.047-.324c.092.131.157.274.259.4C.223-.021.168-.29.2-.3S.272-.274.29-.26c.068.047.142.091.212.136A9.617,9.617,0,0,0-.849-1.4S-.88-1-.887-.571a.078.078,0,0,1,.024.01.589.589,0,0,1,.19.332c0-.034.009-.068.014-.1.011-.068.135.092.128.134.008-.051.055-.247.084-.252s.077.1.092.121a.543.543,0,0,1,.065.152.258.258,0,0,0,.034.1c0-.051-.022-.228-.015-.264s.027-.111.064-.117.153.127.159.137" transform="translate(13.306 36.976)" fill="#826638"/>
  <path id="Pfad_5530" data-name="Pfad 5530" d="M0-.373S.655.035,1-.084.874-1.605.874-1.605A5.773,5.773,0,0,0,0-.373" transform="translate(12.676 23.423)" fill="#d1b291"/>
  <path id="Pfad_5531" data-name="Pfad 5531" d="M-.025-.279c0,.111-.033.221-.03.333C0-.005.1-.2.122-.2s.033.041.039.055c.021.05.046.1.07.149A5.049,5.049,0,0,0-.017-1.2s-.213.245-.428.52a.044.044,0,0,1,.009.013.385.385,0,0,1-.04.27L-.417-.46c.041-.041.042.1.017.124.029-.031.156-.144.178-.138s0,.085,0,.1a.341.341,0,0,1-.033.117A.19.19,0,0,0-.28-.183c.027-.032.1-.152.119-.174s.073-.065.1-.056.036.125.036.134" transform="translate(13.559 23.032)" fill="#826638"/>
  <path id="Pfad_5532" data-name="Pfad 5532" d="M-.082-.565s-1.077.253-1.426-.028S-.369-2.435-.369-2.435A6.294,6.294,0,0,1-.082-.565" transform="translate(14.968 33.709)" fill="#d1b291"/>
  <path id="Pfad_5533" data-name="Pfad 5533" d="M-.028-.347c-.065.141-.1.289-.178.426C-.236-.018-.234-.29-.264-.3s-.069.038-.084.052c-.059.055-.123.106-.184.159A8.392,8.392,0,0,1,.56-1.5s.106.386.2.812a.067.067,0,0,0-.021.012.537.537,0,0,0-.124.35C.6-.354.589-.387.575-.42c-.024-.065-.114.106-.1.147C.459-.322.374-.512.343-.514S.287-.408.276-.385a.483.483,0,0,0-.035.157.251.251,0,0,1-.015.1C.214-.179.2-.356.19-.391S.142-.5.1-.5s-.127.143-.132.152" transform="translate(14.042 32.802)" fill="#826638"/>
  <path id="Pfad_5534" data-name="Pfad 5534" d="M-.082-.565s-1.077.253-1.426-.028S-.369-2.435-.369-2.435A6.294,6.294,0,0,1-.082-.565" transform="translate(16.053 20.816)" fill="#d1b291"/>
  <path id="Pfad_5535" data-name="Pfad 5535" d="M-.028-.347c-.065.141-.1.289-.178.427-.031-.1-.027-.37-.058-.38s-.069.038-.085.052c-.058.055-.122.106-.183.159A8.392,8.392,0,0,1,.56-1.5s.106.386.2.812a.067.067,0,0,0-.021.012.537.537,0,0,0-.124.35C.6-.353.589-.387.575-.42c-.024-.065-.114.106-.1.147-.016-.05-.1-.24-.132-.241S.287-.408.276-.385a.488.488,0,0,0-.035.157.249.249,0,0,1-.015.1C.215-.179.2-.355.19-.391S.142-.5.1-.5s-.126.143-.131.152" transform="translate(15.127 19.892)" fill="#826638"/>
  <path id="Pfad_5536" data-name="Pfad 5536" d="M0-.476a6.276,6.276,0,0,0,2.007.295c.784-.09-.211-1.437-.392-1.87C.633-1.858.407-.968,0-.476" transform="translate(12.1 28.83)" fill="#d1b291"/>
  <path id="Pfad_5537" data-name="Pfad 5537" d="M0-.356A2.168,2.168,0,0,1,.372-.577C.431-.6.224.093.224.093a7.225,7.225,0,0,1,.448-.72A7.306,7.306,0,0,1,.694.148,3.491,3.491,0,0,0,.963-.836c.01-.047.1-.048.128-.01a3.867,3.867,0,0,1,.225.677c0-.078.008-.388.01-.465,0-.038.046-.057.09-.05a1.051,1.051,0,0,1,.3.092c-.175-.367-.421-.746-.5-.94A1.616,1.616,0,0,0,.2-.868c.016.025-.148.3-.2.512" transform="translate(12.499 28.329)" fill="#826638"/>
  <path id="Pfad_5538" data-name="Pfad 5538" d="M0-.033A2.611,2.611,0,0,0,.447.024a2.246,2.246,0,0,0,.792-.117c.045-.016.528-.109.495,0-.02.066.306.262-.412.272A3.754,3.754,0,0,1,.66.243C.587.235.226.244.122.238A2.934,2.934,0,0,1,0-.033" transform="translate(12.653 37.588)" fill="#a8ba63"/>
  <path id="Pfad_5539" data-name="Pfad 5539" d="M-.11-.1A1.268,1.268,0,0,0,.025-.45a4,4,0,0,1-1.283.172,2.519,2.519,0,0,0-.823.022s.013.121.346.128,1.047.064,1.047.064S-.246-.088-.11-.1" transform="translate(14.782 33.638)" fill="#a8ba63"/>
  <path id="Pfad_5540" data-name="Pfad 5540" d="M0,0S.612.175.879.217a6.119,6.119,0,0,0,1.151.1c.3-.03.481-.1.539-.087A1.276,1.276,0,0,1,1.8.6,1.107,1.107,0,0,1,.868.53,3.021,3.021,0,0,0,.2.21C.018.162-.015.107,0,0" transform="translate(12.015 28.361)" fill="#a8ba63"/>
  <path id="Pfad_5541" data-name="Pfad 5541" d="M0,0A1.227,1.227,0,0,0,.109.217a2.282,2.282,0,0,0,.955.057C1.043.2.974.183.729.177A3.371,3.371,0,0,1,0,0" transform="translate(13.089 23.215)" fill="#a8ba63"/>
  <path id="Pfad_5542" data-name="Pfad 5542" d="M0-.582A2.254,2.254,0,0,0,1.4-.676c.5-.311-.287-1.833-.287-1.833A5.075,5.075,0,0,0,0-.582" transform="translate(13.714 17.582)" fill="#baaf7f"/>
  <path id="Pfad_5543" data-name="Pfad 5543" d="M-.021-.3c.04-.04.134-.028.13.029A2.736,2.736,0,0,0,.078,0,.6.6,0,0,1,.271-.36a.079.079,0,0,1,.116.026c.04.153.046.307.081.459A2.975,2.975,0,0,0,.6-.24C.624-.3.728-.279.736-.222a.244.244,0,0,1,0,.026c.017-.06.033-.121.052-.182C.8-.418.874-.428.908-.4l.023.021A5.729,5.729,0,0,0,.563-1.3,6.646,6.646,0,0,0-.4.137,4.917,4.917,0,0,1-.021-.3" transform="translate(14.265 16.396)" fill="#826638"/>
  <path id="Pfad_5544" data-name="Pfad 5544" d="M-.035,0s-.89,1.466-.548,1.707.611-.148.611-.148Z" transform="translate(16.481 14.435)" fill="#baaf7f"/>
  <path id="Pfad_5545" data-name="Pfad 5545" d="M0-.314c.01-.064.189-.224.187-.157,0,.051-.063.378-.064.428C.13-.067.2-.367.212-.391.238-.432.331-.418.34-.375s.018.145.024.187A1.4,1.4,0,0,0,.4-.408.29.29,0,0,1,.435-.475L.4-1.353a7.765,7.765,0,0,0-.469.92A.4.4,0,0,1-.03-.469c.024-.019,0,.145.027.155" transform="translate(16.051 15.811)" fill="#826638"/>
  <path id="Pfad_5546" data-name="Pfad 5546" d="M0-.48a10.6,10.6,0,0,0,1.694.235c-.01-.256.029-2.1-.738-1.786A2.434,2.434,0,0,0,.5-1.4,4.313,4.313,0,0,1,0-.48" transform="translate(14.717 14.626)" fill="#baaf7f"/>
  <path id="Pfad_5547" data-name="Pfad 5547" d="M0-.217c.022.091-.043.2-.035.293A1.771,1.771,0,0,0,.077-.107C.143-.222.141.262.141.262s.334-.645.327-.6a6.213,6.213,0,0,0-.1.918c.075-.187.2-.677.2-.677S.6.491.635.4c0-.07,0-.139,0-.209,0-.113-.006-.231.01-.343A.083.083,0,0,1,.729-.214c.048,0,.053.034.056.063a1.014,1.014,0,0,0,.076.28C.9.011.912-.111.945-.231c.008-.028.038-.038.068-.035C.922-.7.741-1.05.37-.9a2.4,2.4,0,0,0-.459.63.134.134,0,0,0-.007.015c.037-.01.081,0,.09.035" transform="translate(15.297 13.506)" fill="#826638"/>
  <path id="Pfad_5548" data-name="Pfad 5548" d="M-.012-.5S.677-.68.644-.784a5.481,5.481,0,0,0-.634-1.23C-.243-2.3-.231-2.1-.231-2.1Z" transform="translate(14.734 13.584)" fill="#baaf7f"/>
  <path id="Pfad_5549" data-name="Pfad 5549" d="M-.035-.324A2.393,2.393,0,0,1-.117-.656c0-.05.08.086.082.086a3.336,3.336,0,0,0-.387-.671c-.254-.286-.241-.087-.241-.087l.11.81c.01,0,0-.284.015-.286a5.443,5.443,0,0,1,.148.56A3.1,3.1,0,0,1-.444-.729a3.245,3.245,0,0,1,.2.412A2.977,2.977,0,0,1-.333-.729c.017,0,.114.171.132.17S-.251-.793-.231-.795a3.2,3.2,0,0,1,.2.471" transform="translate(15.167 12.825)" fill="#967256"/>
  <path id="Pfad_5550" data-name="Pfad 5550" d="M0-.339s.388.223.466.011A2.567,2.567,0,0,0,.248-1.462C.031-1.252,0-.339,0-.339" transform="translate(16.115 11.645)" fill="#494921"/>
  <path id="Pfad_5551" data-name="Pfad 5551" d="M0-.3s.341.173.441.05a.924.924,0,0,0-.115-.971C.038-1.531.084-.581,0-.3" transform="translate(16.082 10.687)" fill="#42301e"/>
  <path id="Pfad_5552" data-name="Pfad 5552" d="M0-.4s.436.224.584-.023A1.589,1.589,0,0,0,.394-1.695C.189-1.842.08-.681,0-.4" transform="translate(14.898 9.762)" fill="#baaf7f"/>
  <path id="Pfad_5553" data-name="Pfad 5553" d="M-.01-.369s.644.182.724-.012S.111-1.4-.113-1.572s.136,1.007.1,1.2" transform="translate(15.333 9.786)" fill="#705b3d"/>
  <path id="Pfad_5554" data-name="Pfad 5554" d="M-.037-.311S-.266-1.1-.375-1.339c-.439.545-.4.9-.063,1.162s.4-.134.4-.134" transform="translate(14.885 9.704)" fill="#705b3d"/>
  <path id="Pfad_5555" data-name="Pfad 5555" d="M0-.337s.621.246.675.051A2.015,2.015,0,0,0,.341-1.44c-.183-.129-.4.69-.341,1.1" transform="translate(14.637 9.498)" fill="#594930"/>
  <path id="Pfad_5556" data-name="Pfad 5556" d="M0,0S.038,1.112.427,1.267s.628.02.633-.069S.279.008,0,0" transform="translate(14.929 7.801)" fill="#493d2d"/>
  <path id="Pfad_5557" data-name="Pfad 5557" d="M-.028-.383s-.537.024-.507-.19.48-1.1.69-1.077S-.028-.383-.028-.383" transform="translate(14.758 9.263)" fill="#876854"/>
  <path id="Pfad_5558" data-name="Pfad 5558" d="M-.042-.243S-.521.14-.727-.007-.61-.686-.46-.969s.341.258.4.635Z" transform="translate(15.142 10.034)" fill="#a58766"/>
  <path id="Pfad_5559" data-name="Pfad 5559" d="M-.035-.644S-.61-.89-.652-1.034A4.25,4.25,0,0,1-.384-2.729c.221-.317.617,1.088.7,1.484s-.347.6-.347.6" transform="translate(15.523 11.403)" fill="#826b47"/>
  <path id="Pfad_5560" data-name="Pfad 5560" d="M0-.479s.6.229.813.108S.882-1.712.683-2.039c-.322-.151-.226.479-.331.8A5.372,5.372,0,0,1,0-.479" transform="translate(15.755 12.967)" fill="#726644"/>
  <path id="Pfad_5561" data-name="Pfad 5561" d="M0-.329s.433.21.538-.019a1.36,1.36,0,0,0-.276-1.03C.064-1.617.091-.739,0-.329" transform="translate(15.611 10.192)" fill="#705b3d"/>
  <path id="Pfad_5562" data-name="Pfad 5562" d="M0-.419S.541.148.868-.561C.886-1.1.674-1.712.443-1.806A8.852,8.852,0,0,0,0-.419" transform="translate(15.534 11.396)" fill="#8e754f"/>
  <path id="Pfad_5563" data-name="Pfad 5563" d="M0-.423a1.3,1.3,0,0,0,1.071.042C.759-.8.822-1.962.537-1.807S0-.423,0-.423" transform="translate(14.766 11.961)" fill="#a08459"/>
  <path id="Pfad_5564" data-name="Pfad 5564" d="M-.13-17.706a2.935,2.935,0,0,1-2.332-.581A66.326,66.326,0,0,0-.375-25.435,1.141,1.141,0,0,1-.328-26.6a11.638,11.638,0,0,0,.319-4.432,25.146,25.146,0,0,0-.365-3.054c-.2-.228.326-4.014.056-4.242s-.014-1.942-.014-1.942l-.177-1.961-.342-.2L-.53-45.7s.17-2.462,1.26-3.473c1.348-.468,1.031.468.659,1s.02,1.231-.142,1.776a12.1,12.1,0,0,0,.612,5.017c0,1.628.124,3.257.27,4.882a1.378,1.378,0,0,0,.089.62c.113.173.286.268.262.473-.019.17-.231.326-.243.51s.2,1.532.25,2.023c.083.758.153,1.52.189,2.28a4.6,4.6,0,0,1,0,.732C2.52-28.494,1.6-23.008,1.443-21.176.6-20.247.476-18.393-.13-17.706" transform="translate(2.462 52.617)" fill="#93a33d"/>
  <path id="Pfad_5565" data-name="Pfad 5565" d="M-.158-4c-.039-.024-.114-.013-.117.038a1.689,1.689,0,0,1-.074.439,5.418,5.418,0,0,1-1.1,1.591c-.415.508-.009,4.759.153,6.352A10.775,10.775,0,0,1-2.651,10.69a1.769,1.769,0,0,1,.179-.741,16.642,16.642,0,0,0,.32-5.31A36.107,36.107,0,0,0-2.518.979c-.2-.273.326-4.808.056-5.083s-.014-2.327-.014-2.327l-.177-2.35-.342-.24.319-3.913s.171-2.95,1.261-4.162c1.348-.561,1.031.561.659,1.2s.02,1.476-.142,2.128A17.226,17.226,0,0,0-.286-7.762c0,1.253.053,2.506.128,3.758" transform="translate(4.63 20.568)" fill="#6b821c"/>
  <path id="Pfad_5566" data-name="Pfad 5566" d="M-.079-.567S-1.2-.485-1.469-.813.125-2.442.125-2.442a6.228,6.228,0,0,1-.2,1.875" transform="translate(3.946 32.92)" fill="#d1b291"/>
  <path id="Pfad_5567" data-name="Pfad 5567" d="M-.031-.313c-.1.128-.175.267-.285.39-.006-.1.068-.366.042-.38s-.078.026-.1.038c-.071.045-.147.085-.221.127A9.922,9.922,0,0,1,.843-1.347s0,.395-.019.825A.1.1,0,0,0,.8-.513a.614.614,0,0,0-.213.324c0-.035,0-.068-.008-.1C.573-.36.44-.206.443-.163c0-.051-.038-.25-.067-.256S.293-.325.276-.3A.554.554,0,0,0,.2-.154.266.266,0,0,1,.16-.059c0-.051.037-.227.033-.263S.173-.435.136-.442s-.161.121-.168.13" transform="translate(3.235 31.863)" fill="#826638"/>
  <path id="Pfad_5568" data-name="Pfad 5568" d="M-.062-.384s-.682.378-1.016.243.226-1.513.226-1.513A5.576,5.576,0,0,1-.062-.384" transform="translate(4.838 17.783)" fill="#d1b291"/>
  <path id="Pfad_5569" data-name="Pfad 5569" d="M-.015-.278c0,.111.018.223.008.334C-.06-.006-.143-.2-.167-.2S-.2-.162-.21-.149C-.234-.1-.263-.052-.29,0A5.071,5.071,0,0,1,.04-1.2s.2.253.392.538a.036.036,0,0,0-.01.012.382.382,0,0,0,.022.27L.388-.442C.35-.483.34-.346.363-.319.335-.35.217-.47.2-.465s-.009.084-.008.1a.391.391,0,0,0,.025.117.173.173,0,0,1,.02.073C.208-.2.145-.327.125-.35S.057-.417.029-.41s-.045.124-.045.132" transform="translate(3.957 17.338)" fill="#826638"/>
  <path id="Pfad_5570" data-name="Pfad 5570" d="M0-.561s1.059.3,1.426.035S.413-2.415.413-2.415A6.372,6.372,0,0,0,0-.561" transform="translate(1.907 27.934)" fill="#d1b291"/>
  <path id="Pfad_5571" data-name="Pfad 5571" d="M-.042-.354c.056.144.082.293.149.434C.144-.016.16-.288.19-.3s.066.041.081.056c.054.057.115.111.172.166A8.185,8.185,0,0,0-.551-1.527s-.133.381-.25.8a.081.081,0,0,1,.02.014.537.537,0,0,1,.1.355c.012-.032.026-.065.041-.1.028-.064.107.111.09.152.021-.048.117-.234.148-.234s.05.108.059.132a.474.474,0,0,1,.025.158.252.252,0,0,0,.009.1c.015-.05.038-.227.054-.26s.056-.105.094-.1.117.147.12.157" transform="translate(2.869 27.071)" fill="#826638"/>
  <path id="Pfad_5572" data-name="Pfad 5572" d="M0-.561s1.059.3,1.426.035S.413-2.415.413-2.415A6.372,6.372,0,0,0,0-.561" transform="translate(1.837 15.021)" fill="#d1b291"/>
  <path id="Pfad_5573" data-name="Pfad 5573" d="M-.042-.354c.056.144.082.293.149.434C.144-.016.16-.288.19-.3s.066.041.081.056c.054.057.115.111.172.167a8.157,8.157,0,0,0-1-1.453s-.132.381-.249.8a.062.062,0,0,1,.019.014.534.534,0,0,1,.1.355c.012-.032.026-.065.041-.1.028-.065.107.111.09.151.021-.048.117-.234.148-.233s.05.107.059.131a.477.477,0,0,1,.025.158.236.236,0,0,0,.009.1c.015-.05.038-.227.053-.26s.056-.105.095-.1.117.147.12.157" transform="translate(2.798 14.14)" fill="#826638"/>
  <path id="Pfad_5574" data-name="Pfad 5574" d="M-.128-.5a6.331,6.331,0,0,1-2.025.206c-.777-.124.309-1.426.518-1.851C-.666-1.905-.5-1.007-.128-.5" transform="translate(5.189 23.208)" fill="#d1b291"/>
  <path id="Pfad_5575" data-name="Pfad 5575" d="M-.094-.372A2.106,2.106,0,0,0-.451-.609c-.057-.031.1.674.1.674a7.2,7.2,0,0,0-.4-.739A7.324,7.324,0,0,0-.822.1a3.433,3.433,0,0,1-.2-.994c-.007-.048-.1-.053-.127-.016a3.971,3.971,0,0,0-.271.667c0-.078.019-.388.021-.465,0-.038-.042-.058-.086-.054a1.069,1.069,0,0,0-.307.078c.2-.358.47-.725.564-.916a1.565,1.565,0,0,1,.969.709c-.018.024.127.3.167.521" transform="translate(4.355 22.68)" fill="#826638"/>
  <path id="Pfad_5576" data-name="Pfad 5576" d="M-.1-.055a2.632,2.632,0,0,1-.45.038A2.188,2.188,0,0,1-1.333-.17c-.044-.017-.519-.131-.494-.018.015.068-.323.248.392.291A3.718,3.718,0,0,0-.777.191c.072,0,.432.02.537.019.011,0,.14-.266.14-.266" transform="translate(3.847 32.397)" fill="#a8ba63"/>
  <path id="Pfad_5577" data-name="Pfad 5577" d="M-.006-.106A1.258,1.258,0,0,1-.117-.458a3.955,3.955,0,0,0,1.269.23,2.5,2.5,0,0,1,.82.058s-.022.121-.354.113S.569-.04.569-.04.128-.083-.006-.106" transform="translate(2.093 27.85)" fill="#a8ba63"/>
  <path id="Pfad_5578" data-name="Pfad 5578" d="M-.143,0s-.623.147-.892.177A6.087,6.087,0,0,1-2.192.223C-2.494.18-2.666.1-2.724.112a1.239,1.239,0,0,0,.744.41A1.109,1.109,0,0,0-1.046.49,3.174,3.174,0,0,1-.36.2C-.172.16-.136.108-.143,0" transform="translate(5.282 22.693)" fill="#a8ba63"/>
  <path id="Pfad_5579" data-name="Pfad 5579" d="M-.06,0A1.22,1.22,0,0,1-.184.213a2.3,2.3,0,0,1-.957.014c.027-.071.1-.087.341-.082A3.429,3.429,0,0,0-.06,0" transform="translate(4.409 17.52)" fill="#a8ba63"/>
  <path id="Pfad_5580" data-name="Pfad 5580" d="M-.085-.6A2.244,2.244,0,0,1-1.48-.752c-.478-.333.412-1.818.412-1.818A4.935,4.935,0,0,1-.085-.6" transform="translate(4.43 11.906)" fill="#baaf7f"/>
  <path id="Pfad_5581" data-name="Pfad 5581" d="M-.053-.309c-.037-.041-.132-.034-.131.024s.018.178.011.275a.587.587,0,0,0-.17-.37A.08.08,0,0,0-.458-.36c-.05.151-.067.3-.112.455a3.005,3.005,0,0,1-.107-.37C-.7-.338-.8-.32-.814-.264c0,.009,0,.018,0,.027C-.831-.3-.844-.359-.858-.422c-.009-.04-.081-.053-.117-.026L-1-.429a5.843,5.843,0,0,1,.43-.9A6.442,6.442,0,0,1,.3.146,4.592,4.592,0,0,0-.053-.309" transform="translate(3.52 10.681)" fill="#826638"/>
  <path id="Pfad_5582" data-name="Pfad 5582" d="M-.009,0S.779,1.5.422,1.729s-.6-.175-.6-.175Z" transform="translate(1.808 8.633)" fill="#baaf7f"/>
  <path id="Pfad_5583" data-name="Pfad 5583" d="M-.024-.319C-.029-.382-.2-.551-.2-.484c0,.05.037.38.035.431C-.174-.078-.222-.381-.235-.4c-.022-.042-.116-.034-.128.009S-.39-.25-.4-.21c-.025-.047-.009-.17-.022-.22A.246.246,0,0,0-.451-.5l.1-.874a7.6,7.6,0,0,1,.406.938L.013-.472C-.009-.492,0-.327-.024-.319" transform="translate(2.15 10.02)" fill="#826638"/>
  <path id="Pfad_5584" data-name="Pfad 5584" d="M-.095-.494A10.51,10.51,0,0,1-1.8-.335c.028-.254.114-2.1.858-1.749a2.328,2.328,0,0,1,.415.65,4.2,4.2,0,0,0,.435.941" transform="translate(3.66 8.914)" fill="#baaf7f"/>
  <path id="Pfad_5585" data-name="Pfad 5585" d="M-.056-.224c-.028.09.028.2.015.294A1.877,1.877,0,0,1-.146-.119C-.2-.236-.235.248-.235.248s-.29-.66-.285-.61A6.086,6.086,0,0,1-.482.558C-.543.367-.638-.128-.638-.128s-.068.584-.1.492c.006-.07.008-.14.009-.21,0-.113.021-.23.013-.342A.082.082,0,0,0-.79-.255c-.048,0-.055.031-.061.061A1.024,1.024,0,0,1-.944.082C-.971-.038-.98-.159-1-.281-1.01-.31-1.04-.32-1.07-.318c.12-.428.326-.771.685-.6A2.32,2.32,0,0,1,.03-.27a.1.1,0,0,1,.006.015C0-.267-.045-.26-.056-.224" transform="translate(3.106 8.818)" fill="#826638"/>
  <path id="Pfad_5586" data-name="Pfad 5586" d="M-.035-.5S-.711-.707-.672-.81a5.7,5.7,0,0,1,.716-1.2c.273-.275.247-.076.247-.076Z" transform="translate(3.266 8.738)" fill="#baaf7f"/>
  <path id="Pfad_5587" data-name="Pfad 5587" d="M0-.315A2.43,2.43,0,0,0,.105-.643c0-.049-.085.083-.089.082a3.454,3.454,0,0,1,.433-.653C.722-1.489.7-1.289.7-1.289l-.165.8c-.01,0,.014-.283,0-.286A5.537,5.537,0,0,0,.35-.219,3.1,3.1,0,0,0,.437-.7,3.34,3.34,0,0,0,.2-.3,3.036,3.036,0,0,0,.326-.706C.309-.709.2-.54.183-.543S.247-.774.227-.777A3.354,3.354,0,0,0,0-.315" transform="translate(2.83 7.935)" fill="#967256"/>
  <path id="Pfad_5588" data-name="Pfad 5588" d="M-.026-.342s-.4.206-.466-.01A2.612,2.612,0,0,1-.2-1.474c.2.22.171,1.132.171,1.132" transform="translate(2.415 6.535)" fill="#494921"/>
  <path id="Pfad_5589" data-name="Pfad 5589" d="M-.028-.3s-.352.157-.443.03a.931.931,0,0,1,.18-.964c.309-.3.2.647.263.934" transform="translate(2.52 5.454)" fill="#42301e"/>
  <path id="Pfad_5590" data-name="Pfad 5590" d="M-.035-.4s-.45.2-.582-.049A1.613,1.613,0,0,1-.34-1.714C-.126-1.853-.094-.689-.035-.4" transform="translate(3.792 4.386)" fill="#baaf7f"/>
  <path id="Pfad_5591" data-name="Pfad 5591" d="M-.04-.366S-.7-.213-.762-.412s.671-.994.907-1.152-.2,1-.185,1.2" transform="translate(3.368 4.404)" fill="#705b3d"/>
  <path id="Pfad_5592" data-name="Pfad 5592" d="M0-.306s.282-.782.407-1.012C.808-.754.749-.4.391-.155S0-.306,0-.306" transform="translate(3.285 4.364)" fill="#705b3d"/>
  <path id="Pfad_5593" data-name="Pfad 5593" d="M-.038-.341s-.638.219-.677.021A2.053,2.053,0,0,1-.3-1.458c.19-.121.349.706.265,1.117" transform="translate(3.615 4.126)" fill="#594930"/>
  <path id="Pfad_5594" data-name="Pfad 5594" d="M-.063,0S-.177,1.109-.576,1.247s-.629-.008-.627-.1S-.343,0-.063,0" transform="translate(3.898 2.38)" fill="#493d2d"/>
  <path id="Pfad_5595" data-name="Pfad 5595" d="M-.009-.385S.525-.338.51-.553.1-1.672-.106-1.659s.1,1.274.1,1.274" transform="translate(3.457 3.82)" fill="#876854"/>
  <path id="Pfad_5596" data-name="Pfad 5596" d="M0-.238s.453.4.667.266S.6-.655.467-.944.109-.7.027-.327Z" transform="translate(3.038 4.773)" fill="#a58766"/>
  <path id="Pfad_5597" data-name="Pfad 5597" d="M-.018-.639S.572-.859.624-1A4.2,4.2,0,0,0,.472-2.7c-.2-.327-.689,1.059-.795,1.45a.581.581,0,0,0,.305.616" transform="translate(3.084 6.104)" fill="#826b47"/>
  <path id="Pfad_5598" data-name="Pfad 5598" d="M-.05-.486s-.613.2-.819.071.022-1.341.243-1.659c.332-.137.193.488.276.812a5.261,5.261,0,0,0,.3.776" transform="translate(2.708 8.009)" fill="#726644"/>
  <path id="Pfad_5599" data-name="Pfad 5599" d="M-.031-.331S-.477-.14-.566-.374A1.378,1.378,0,0,1-.222-1.39c.214-.23.129.647.191,1.059" transform="translate(3.035 4.886)" fill="#705b3d"/>
  <path id="Pfad_5600" data-name="Pfad 5600" d="M-.048-.425S-.625.118-.9-.6c.018-.537.272-1.14.508-1.224a8.705,8.705,0,0,1,.349,1.4" transform="translate(3.043 6.237)" fill="#8e754f"/>
  <path id="Pfad_5601" data-name="Pfad 5601" d="M-.06-.43A1.308,1.308,0,0,1-1.133-.436C-.792-.84-.776-2-.5-1.836S-.06-.43-.06-.43" transform="translate(3.779 6.921)" fill="#a08459"/>
</svg>
