<svg id="Gruppe_47681" data-name="Gruppe 47681" xmlns="http://www.w3.org/2000/svg" xmlns:xlink="http://www.w3.org/1999/xlink" width="70.166" height="45.623" viewBox="0 0 70.166 45.623">
  <defs>
    <clipPath id="clip-path">
      <rect id="Rechteck_680" data-name="Rechteck 680" width="70.166" height="45.623" fill="none"/>
    </clipPath>
    <clipPath id="clip-path-3">
      <rect id="Rechteck_678" data-name="Rechteck 678" width="21.235" height="20.435" fill="none"/>
    </clipPath>
  </defs>
  <g id="Gruppe_40573" data-name="Gruppe 40573" clip-path="url(#clip-path)">
    <g id="Gruppe_40572" data-name="Gruppe 40572">
      <g id="Gruppe_40571" data-name="Gruppe 40571" clip-path="url(#clip-path)">
        <path id="Pfad_39626" data-name="Pfad 39626" d="M17.759,5.044l-.509-.378a6.236,6.236,0,0,0-.641-.444,2.7,2.7,0,0,0-1.95-.253,2.661,2.661,0,0,0-.9.422c-.235.176-.363.288-.551.436l-1.045.839-4.1,3.288L6.175,10.466a2.3,2.3,0,0,1-.374.27,1.509,1.509,0,0,1-.378.145,1.585,1.585,0,0,1-.206.035l-.262.029L4.444,11,0,11.494l.055.714,4.467-.2.513-.023.264-.012a2.821,2.821,0,0,0,.327-.033,2.609,2.609,0,0,0,.664-.2,3.4,3.4,0,0,0,.575-.349L8.846,10l4.3-3.013,1.1-.768c.17-.118.392-.279.519-.359a.847.847,0,0,1,.3-.11.82.82,0,0,1,.577.124c.029.013.232.189.389.322l.483.411,3.492,2.969,2.447,2.082a2.7,2.7,0,0,1-1.074.3h.556l4.011,3.114,3.32-2.753-.894-.376,2.78-2.364,3.491-2.969.483-.411c.157-.133.361-.309.389-.322a.821.821,0,0,1,.577-.124.851.851,0,0,1,.3.11c.126.081.348.242.518.359l1.1.768L42.312,10l1.98,1.386a3.387,3.387,0,0,0,.576.349,2.6,2.6,0,0,0,.664.2,2.807,2.807,0,0,0,.327.033l.264.012.513.023,4.467.2.056-.714L46.714,11l-.51-.056-.263-.029a1.585,1.585,0,0,1-.206-.035,1.514,1.514,0,0,1-.378-.145,2.3,2.3,0,0,1-.374-.27L43.1,8.953,39,5.665l-1.045-.839c-.187-.148-.316-.26-.551-.436a2.661,2.661,0,0,0-.9-.422,2.7,2.7,0,0,0-1.95.253,6.222,6.222,0,0,0-.641.444l-.509.378L29.721,7.778,26.726,10a5.268,5.268,0,0,1,4.808-7.451L30.664,0a6.907,6.907,0,0,0-6.907,6.907,6.751,6.751,0,0,0,.09,1.041l0-.007c.033.13.06.45.2,1.706,0,.024,0,.047,0,.07L21.437,7.778,17.759,5.044" fill="#4a851d"/>
        <path id="Pfad_39627" data-name="Pfad 39627" d="M51.685,39.209c0-7.715-5.4-15.069-14.4-13.99a16.993,16.993,0,0,0-8.817,3.9,1.777,1.777,0,0,1-2.195-.054c-2.069-2.248-6.161-3.5-8.987-3.842-9.005-1.08-14.4,6.275-14.4,13.99,0,10.465,10.8,21.421,24.4,22.5,13.6-1.079,24.4-12.036,24.4-22.5" transform="translate(-1.845 -16.086)" fill="#eb2626"/>
        <path id="Pfad_39628" data-name="Pfad 39628" d="M76.848,6.022l-.207-.607c-6.4.5-5.89,6.92-5.89,8.495v2.935l.235,1.481.274.213,3.32-2.753-.894-.377,2.78-2.364,3.491-2.97.483-.41c.157-.133.361-.309.389-.322a.822.822,0,0,1,.577-.123.851.851,0,0,1,.3.11c.126.08.348.242.518.359l1.1.768,4.3,3.013,1.981,1.386a3.41,3.41,0,0,0,.576.349,2.616,2.616,0,0,0,.664.2,2.82,2.82,0,0,0,.327.033l.264.012.513.023,4.467.2.056-.714-4.445-.493-.51-.056-.263-.029a1.718,1.718,0,0,1-.206-.035,1.514,1.514,0,0,1-.378-.145,2.321,2.321,0,0,1-.374-.27l-1.885-1.513-4.1-3.289-1.045-.838c-.188-.148-.316-.26-.551-.436a2.661,2.661,0,0,0-.9-.422,2.693,2.693,0,0,0-1.95.253,6.292,6.292,0,0,0-.641.444l-.509.378-3.678,2.735L72.04,13.473a5.268,5.268,0,0,1,4.808-7.451" transform="translate(-45.314 -3.469)" fill="#345e15"/>
        <path id="Pfad_39629" data-name="Pfad 39629" d="M95.172,39.209c0-7.715-5.4-15.069-14.4-13.99a16.993,16.993,0,0,0-8.817,3.9,1.679,1.679,0,0,1-1.182.348V61.709c13.6-1.079,24.4-12.036,24.4-22.5" transform="translate(-45.331 -16.086)" fill="#bf1f1f"/>
        <path id="Pfad_39630" data-name="Pfad 39630" d="M27.3,39.344a.843.843,0,1,0-.843.843.843.843,0,0,0,.843-.843" transform="translate(-16.405 -24.662)" fill="#fff"/>
        <path id="Pfad_39631" data-name="Pfad 39631" d="M21.574,48.2a1.791,1.791,0,1,0-1.791,1.79,1.791,1.791,0,0,0,1.791-1.79" transform="translate(-11.525 -29.73)" fill="#fff"/>
        <g id="Gruppe_40570" data-name="Gruppe 40570" transform="translate(28.599 23.337)" style="mix-blend-mode: multiply;isolation: isolate">
          <g id="Gruppe_40569" data-name="Gruppe 40569">
            <g id="Gruppe_40568" data-name="Gruppe 40568" clip-path="url(#clip-path-3)">
              <path id="Pfad_39632" data-name="Pfad 39632" d="M84.409,85.361c9.516-3.713,16.273-12.2,16.389-20.435H83.511c-2.248,2.07-3.5,6.161-3.842,8.987a11.974,11.974,0,0,0,4.739,11.448" transform="translate(-79.563 -64.926)" fill="#eb7878"/>
            </g>
          </g>
        </g>
        <path id="Pfad_39633" data-name="Pfad 39633" d="M129.989,61.853H97.34c-2.248,2.07-3.5,6.161-3.842,8.987-1.079,9.006,6.275,14.4,13.99,14.4,10.465,0,21.421-9.787,22.5-23.39" transform="translate(-59.823 -39.62)" fill="#eb2626"/>
        <path id="Pfad_39634" data-name="Pfad 39634" d="M114.721,62.977l-.746,1.235c-.892,1.478-5.812,4.863-6.1,7.244a9.493,9.493,0,0,0-.069,1.121c0,5.49,5.331,7.483,8.914,7.483,6.833,0,14.966-7.07,16.95-16.915l-5.718-.845v-.448Z" transform="translate(-69.057 -39.62)" fill="#ab0000"/>
        <path id="Pfad_39635" data-name="Pfad 39635" d="M139.3,61.853H124.381c0,3.621.391,9.355,3.382,9.355,4.066,0,10.616-3.566,11.535-9.355" transform="translate(-79.673 -39.62)" fill="#eb7226"/>
        <path id="Pfad_39636" data-name="Pfad 39636" d="M119.792,94.4a6.768,6.768,0,0,0,1-1.5l.424-.782s-.365.043-.891.127a5.666,5.666,0,0,0-1.735.478,2.45,2.45,0,0,0-1.065.976,1,1,0,0,0,.065.988c.441.592,1.328.59,2.2-.291" transform="translate(-75.215 -59.012)" fill="#ff9c5e"/>
        <path id="Pfad_39637" data-name="Pfad 39637" d="M114.908,86.194a4.74,4.74,0,0,0,1.455-1.063,9.313,9.313,0,0,0,.63-.691s-.389-.1-.918-.181a4.49,4.49,0,0,0-1.805.026c-1.176.327-1.695.968-1.495,1.554.185.585,1,.82,2.133.355" transform="translate(-72.211 -53.921)" fill="#ff9c5e"/>
        <path id="Pfad_39638" data-name="Pfad 39638" d="M138.11,98.484a1.139,1.139,0,0,0,.5.231.743.743,0,0,0,.427-.027c.546-.2.745-.986.284-2.127a4.371,4.371,0,0,0-1.086-1.442,7.344,7.344,0,0,0-.729-.6l-.059.264a4.2,4.2,0,0,0-.089.654,6.147,6.147,0,0,0,.054,1.788,2.267,2.267,0,0,0,.7,1.261" transform="translate(-87.958 -60.543)" fill="#ff9c5e"/>
        <path id="Pfad_39639" data-name="Pfad 39639" d="M127.236,99.6a1.3,1.3,0,0,0,.6.024,1.113,1.113,0,0,0,.5-.313,2.026,2.026,0,0,0,.449-1.375,8.963,8.963,0,0,0-.281-1.758,5.1,5.1,0,0,1-.085-.627c-.009-.147-.015-.24-.015-.24l-.136.2a5,5,0,0,1-.387.494,10.168,10.168,0,0,0-1.14,1.379,1.961,1.961,0,0,0-.311,1.407,1.186,1.186,0,0,0,.279.525,1.2,1.2,0,0,0,.529.283" transform="translate(-80.961 -61.053)" fill="#ff9c5e"/>
        <path id="Pfad_39640" data-name="Pfad 39640" d="M155.542,89.639c.493-.43.346-1.283-.549-2.1a4.927,4.927,0,0,0-1.574-.872c-.493-.183-.874-.3-.874-.3s.075.38.225.9A4.952,4.952,0,0,0,153.5,88.9c.744.975,1.57,1.184,2.047.737" transform="translate(-97.713 -55.317)" fill="#ff9c5e"/>
        <path id="Pfad_39641" data-name="Pfad 39641" d="M147.81,95c.552-.292.643-1.131-.009-2.165a4.79,4.79,0,0,0-1.3-1.254c-.432-.3-.781-.5-.781-.5a9.116,9.116,0,0,0-.022.932,4.657,4.657,0,0,0,.322,1.775c.513,1.12,1.236,1.508,1.788,1.216" transform="translate(-93.326 -58.338)" fill="#ff9c5e"/>
        <path id="Pfad_39642" data-name="Pfad 39642" d="M163.869,74.317c1.085.56,1.907.428,2.149-.109s-.172-1.229-1.3-1.7a4.4,4.4,0,0,0-1.794-.25,7.54,7.54,0,0,0-.937.088,8.55,8.55,0,0,0,.542.77,4.42,4.42,0,0,0,1.342,1.205" transform="translate(-103.76 -46.279)" fill="#ff9c5e"/>
        <path id="Pfad_39643" data-name="Pfad 39643" d="M159.257,82.513c.964.752,1.8.747,2.154.228.334-.524.04-1.279-1.027-1.9a4.725,4.725,0,0,0-1.738-.5,9.136,9.136,0,0,0-.926-.071s.161.365.42.826a4.8,4.8,0,0,0,1.117,1.42" transform="translate(-101.028 -51.415)" fill="#ff9c5e"/>
      </g>
    </g>
  </g>
</svg>
