<svg xmlns="http://www.w3.org/2000/svg" width="42.855" height="36.461" viewBox="0 0 42.855 36.461">
  <g id="Gruppe_45992" data-name="Gruppe 45992" transform="translate(-7.381 -21.802)">
    <g id="Gruppe_46389" data-name="Gruppe 46389" transform="translate(47.769 40.997)">
      <path id="Pfad_45780" data-name="Pfad 45780" d="M.062.019c-.263-.093-2.1-.651-2.1-.651L-.98,1.753C.608,2.059.7.243.062.019" transform="translate(2.038 0.632)" fill="#2c6811"/>
    </g>
    <g id="Gruppe_46390" data-name="Gruppe 46390" transform="translate(41.727 25.536)">
      <path id="Pfad_45781" data-name="Pfad 45781" d="M.064,0C-.211.041-2.1.407-2.1.407L-.045,2.02C1.5,1.547.728-.1.064,0" transform="translate(2.097 0.004)" fill="#3d8d1d"/>
    </g>
    <g id="Gruppe_46391" data-name="Gruppe 46391" transform="translate(7.381 40.997)">
      <path id="Pfad_45782" data-name="Pfad 45782" d="M.042.071,1.1-2.314s-1.839.559-2.1.651C-1.633-1.439-1.545.377.042.071" transform="translate(1.367 2.314)" fill="#40821d"/>
    </g>
    <g id="Gruppe_46392" data-name="Gruppe 46392" transform="translate(12.937 25.537)">
      <path id="Pfad_45783" data-name="Pfad 45783" d="M.088.012S-1.8-.355-2.073-.395c-.664-.1-1.437,1.547.109,2.019Z" transform="translate(2.865 0.399)" fill="#5baf2f"/>
    </g>
    <g id="Gruppe_46393" data-name="Gruppe 46393" transform="translate(45.253 40.181)">
      <path id="Pfad_45784" data-name="Pfad 45784" d="M0,0,3.339,2.661,4.065,1.28Z" fill="#2c4517"/>
    </g>
    <g id="Gruppe_46394" data-name="Gruppe 46394" transform="translate(8.371 40.181)">
      <path id="Pfad_45785" data-name="Pfad 45785" d="M0,.038.726,1.419,4.065-1.242Z" transform="translate(0 1.242)" fill="#2c4517"/>
    </g>
    <g id="Gruppe_46395" data-name="Gruppe 46395" transform="translate(9.836 39.31)">
      <path id="Pfad_45786" data-name="Pfad 45786" d="M1.131,0H-36.885A19.008,19.008,0,0,0-17.876,18.952,19.008,19.008,0,0,0,1.131,0" transform="translate(36.885)" fill="#499521"/>
    </g>
    <g id="Gruppe_46396" data-name="Gruppe 46396" transform="translate(13.107 21.802)">
      <path id="Pfad_45787" data-name="Pfad 45787" d="M.936.468A15.737,15.737,0,0,0-14.8-15.269,15.737,15.737,0,0,0-30.538.468,15.737,15.737,0,0,0-14.8,16.205,15.737,15.737,0,0,0,.936.468" transform="translate(30.538 15.269)" fill="#6ec246"/>
    </g>
    <g id="Gruppe_46397" data-name="Gruppe 46397" transform="translate(28.844 21.802)">
      <path id="Pfad_45788" data-name="Pfad 45788" d="M.329.135A15.684,15.684,0,0,0-10.485-4.414h0l-.126,0h-.126V6.153a18.023,18.023,0,0,1,2,.11A17.463,17.463,0,0,1,.329.135" transform="translate(10.738 4.416)" fill="#4b9b2a"/>
    </g>
    <g id="Gruppe_46398" data-name="Gruppe 46398" transform="translate(28.766 25.855)">
      <path id="Pfad_45789" data-name="Pfad 45789" d="M.172.938a19.016,19.016,0,0,0,13.29-18.132,18.944,18.944,0,0,0-5.526-13.4A17.463,17.463,0,0,0-5.625-20.527,17.387,17.387,0,0,1-4.057-13.3,17.379,17.379,0,0,1-5.625-6.071,17.511,17.511,0,0,0,.172.938" transform="translate(5.625 30.592)" fill="#5baf2f"/>
    </g>
    <g id="Gruppe_46399" data-name="Gruppe 46399" transform="translate(30.843 25.856)">
      <path id="Pfad_45790" data-name="Pfad 45790" d="M.342,0A17.255,17.255,0,0,0-2.07.5s0,0,0,0a17.459,17.459,0,0,0-9.069,6.128,17.939,17.939,0,0,1,14.2,10.139,24.608,24.608,0,0,1,2.631-.81c.036-.27.068-.54.093-.813.01-.12.02-.239.028-.36.032-.439.054-.881.056-1.327h0l0-.057A18.947,18.947,0,0,0,.342,0" transform="translate(11.143)" fill="#3d8d1d"/>
    </g>
    <g id="Gruppe_46400" data-name="Gruppe 46400" transform="translate(46.693 40.618)">
      <path id="Pfad_45791" data-name="Pfad 45791" d="M.031.021C.057-.217.085-.454.1-.694a.465.465,0,0,1-.073.1.772.772,0,0,1-.223.15,1.99,1.99,0,0,1-.559.164,2.273,2.273,0,0,1-.268.028l.064.62A3.129,3.129,0,0,0-.625.3,2.659,2.659,0,0,0,.031.021" transform="translate(1.02 0.694)" fill="#346916"/>
    </g>
    <g id="Gruppe_46401" data-name="Gruppe 46401" transform="translate(45.323 32.146)">
      <path id="Pfad_45792" data-name="Pfad 45792" d="M.032.027A1.305,1.305,0,0,0,.359-.26C.284-.469.2-.674.118-.88A.441.441,0,0,1,.1-.741.449.449,0,0,1,0-.574a.794.794,0,0,1-.224.152A1.953,1.953,0,0,1-.785-.26a2.171,2.171,0,0,1-.267.029l.063.62A3,3,0,0,0-.658.318,2.522,2.522,0,0,0,.032.027" transform="translate(1.052 0.88)" fill="#346916"/>
    </g>
    <g id="Gruppe_46402" data-name="Gruppe 46402" transform="translate(41.376 26.014)">
      <path id="Pfad_45793" data-name="Pfad 45793" d="M.145.471C.1.95.072,1.225.072,1.225l.619.069S.709,1.011.74.518C.749.27.786-.029.782-.374s0-.733,0-1.156C.752-1.953.722-2.412.69-2.895.628-3.376.573-3.885.482-4.406S.291-5.464.137-6c-.127-.54-.3-1.074-.477-1.609-.193-.528-.378-1.06-.608-1.561-.214-.509-.456-1-.694-1.465s-.485-.912-.738-1.321-.491-.8-.722-1.147c-.462-.7-.877-1.261-1.169-1.653l-.465-.61s.162.228.443.627.672.977,1.109,1.69c.219.356.449.744.678,1.165s.458.87.687,1.338.441.963.635,1.474c.21.5.375,1.035.547,1.56.153.533.308,1.065.413,1.6.132.528.2,1.061.284,1.571.07.513.106,1.012.152,1.484.014.473.028.921.04,1.335C.24-1.109.228-.731.217-.395S.163.231.145.471" transform="translate(4.736 15.365)" fill="#346916"/>
    </g>
    <g id="Gruppe_46403" data-name="Gruppe 46403" transform="translate(30.042 34.161)">
      <path id="Pfad_45794" data-name="Pfad 45794" d="M.061.06A12.45,12.45,0,0,0,1.133.955c.4.288.8.633,1.264.915s.918.614,1.423.875,1,.565,1.539.785c.526.244,1.056.479,1.6.667.531.213,1.071.371,1.591.532s1.036.272,1.521.389c.491.094.952.2,1.386.253a18.827,18.827,0,0,0,2.1.21c.257.008.459.013.6.011l.211,0-.031-.623-.2.01c-.127.007-.32.008-.567.008a18.314,18.314,0,0,1-2.049-.135c-.424-.039-.878-.125-1.362-.2-.479-.1-.987-.194-1.5-.331s-1.051-.276-1.579-.469c-.537-.167-1.067-.38-1.592-.6-.537-.2-1.036-.482-1.544-.724s-.97-.556-1.438-.817S1.63,1.112,1.219.838a12.394,12.394,0,0,1-1.1-.852C-.2-.3-.526-.526-.769-.778l-.648-.635-.565-.553.546.572.627.658c.236.262.552.5.87.8" transform="translate(1.982 1.966)" fill="#346916"/>
    </g>
    <g id="Gruppe_46404" data-name="Gruppe 46404" transform="translate(9.834 25.873)">
      <path id="Pfad_45795" data-name="Pfad 45795" d="M.164,0A19.009,19.009,0,0,0,7.839,31.477,17.525,17.525,0,0,0,13.587,24.5a17.434,17.434,0,0,1,0-14.455A17.464,17.464,0,0,0,.164,0" transform="translate(5.345)" fill="#5baf2f"/>
    </g>
    <g id="Gruppe_46405" data-name="Gruppe 46405" transform="translate(10.803 26.014)">
      <path id="Pfad_45796" data-name="Pfad 45796" d="M.021.328C.107-.182.173-.715.306-1.244c.105-.534.261-1.066.413-1.6.172-.526.337-1.056.547-1.56.194-.511.415-1,.635-1.474s.45-.922.687-1.338.46-.809.678-1.166c.437-.712.831-1.288,1.109-1.689s.443-.627.443-.627l-.465.61c-.292.392-.706.954-1.169,1.653-.232.349-.478.732-.721,1.147s-.491.858-.739,1.32-.479.956-.694,1.466C.8-4,.616-3.466.423-2.938.249-2.4.073-1.869-.054-1.329-.207-.8-.294-.255-.4.263c-.09.52-.144,1.029-.207,1.51-.032.484-.061.943-.089,1.366,0,.424,0,.812,0,1.156s.033.644.042.892c.031.494.048.776.048.776l.619-.069s-.027-.274-.073-.753c-.018-.24-.064-.531-.072-.866S-.157,3.56-.17,3.147c.012-.413.026-.862.04-1.335C-.085,1.34-.049.841.021.328" transform="translate(0.699 10.696)" fill="#499521"/>
    </g>
    <g id="Gruppe_46406" data-name="Gruppe 46406" transform="translate(11.303 34.161)">
      <path id="Pfad_45797" data-name="Pfad 45797" d="M.024.225a18.827,18.827,0,0,0,2.1-.21c.434-.055.9-.158,1.386-.253.486-.116,1-.231,1.522-.389s1.06-.318,1.59-.532a17.235,17.235,0,0,0,1.6-.667c.537-.221,1.033-.525,1.539-.785s.962-.594,1.423-.874.861-.628,1.264-.916A12.294,12.294,0,0,0,13.521-5.3c.318-.294.634-.535.87-.8l.628-.658.546-.572L15-6.769l-.648.635c-.243.251-.567.483-.893.764a12.247,12.247,0,0,1-1.1.853c-.41.273-.815.6-1.283.866s-.929.576-1.438.817S8.633-2.31,8.1-2.11c-.527.223-1.055.436-1.593.6-.528.193-1.064.329-1.579.469s-1.024.233-1.5.331c-.483.075-.938.161-1.363.2A18.314,18.314,0,0,1,.011-.372c-.247,0-.44,0-.567-.008l-.2-.009L-.789.232l.211,0c.143,0,.346,0,.6-.011" transform="translate(0.789 7.322)" fill="#499521"/>
    </g>
    <g id="Gruppe_46407" data-name="Gruppe 46407" transform="translate(12.34 29.577)">
      <path id="Pfad_45798" data-name="Pfad 45798" d="M.183.086A16.736,16.736,0,0,0,2.307-.747c.335-.142.641-.316.935-.474a8.108,8.108,0,0,0,.809-.472c.244-.158.473-.294.666-.429l.489-.366L5.631-2.8l-.441.295-.505.339c-.2.125-.433.248-.683.393a7.781,7.781,0,0,1-.826.428c-.3.141-.609.3-.948.423A16.651,16.651,0,0,1,.095-.213,19.436,19.436,0,0,1-4.048.429,13.935,13.935,0,0,1-5.936.413l-.04.621A14.627,14.627,0,0,0-4.009.954,19.867,19.867,0,0,0,.183.086" transform="translate(5.976 2.804)" fill="#499521"/>
    </g>
    <g id="Gruppe_46408" data-name="Gruppe 46408" transform="translate(9.9 40.618)">
      <path id="Pfad_45799" data-name="Pfad 45799" d="M.031.032.1-.589A2.273,2.273,0,0,1-.173-.617,2,2,0,0,1-.731-.781.8.8,0,0,1-.954-.932a.421.421,0,0,1-.072-.1c.016.24.044.477.07.715A2.6,2.6,0,0,0-.3-.041a3.017,3.017,0,0,0,.33.072" transform="translate(1.026 1.029)" fill="#499521"/>
    </g>
    <g id="Gruppe_46409" data-name="Gruppe 46409" transform="translate(10.98 32.146)">
      <path id="Pfad_45800" data-name="Pfad 45800" d="M.03.036A3.017,3.017,0,0,0,.36.108l.064-.62A2.171,2.171,0,0,1,.157-.542,1.968,1.968,0,0,1-.4-.7.826.826,0,0,1-.625-.856.457.457,0,0,1-.73-1.023a.441.441,0,0,1-.015-.139c-.082.206-.166.411-.242.62A1.309,1.309,0,0,0-.66-.255,2.522,2.522,0,0,0,.03.036" transform="translate(0.988 1.162)" fill="#499521"/>
    </g>
    <g id="Gruppe_46410" data-name="Gruppe 46410" transform="translate(12.194 32.372)">
      <path id="Pfad_45801" data-name="Pfad 45801" d="M.991.335A17.931,17.931,0,0,0-15.659-10.939,17.932,17.932,0,0,0-32.308.335a17.094,17.094,0,0,0,16.649,13.24A17.092,17.092,0,0,0,.991.335" transform="translate(32.308 10.939)" fill="#499521"/>
    </g>
    <g id="Gruppe_46411" data-name="Gruppe 46411" transform="translate(28.844 32.372)">
      <path id="Pfad_45802" data-name="Pfad 45802" d="M.482.3a17.939,17.939,0,0,0-14.2-10.139,18.009,18.009,0,0,0-2-.11v25.89h.087a18.978,18.978,0,0,0,5.061-.71,20.93,20.93,0,0,1-3.908.6q.226-.686.489-1.355A24.893,24.893,0,0,1,.482.3" transform="translate(15.719 9.944)" fill="#317813"/>
    </g>
    <g id="Gruppe_46412" data-name="Gruppe 46412" transform="translate(30.083 41.462)">
      <path id="Pfad_45803" data-name="Pfad 45803" d="M0,.5A20.9,20.9,0,0,0,19.235-16.2,24.85,24.85,0,0,0,0,.5" transform="translate(0 16.196)" fill="#40821d"/>
    </g>
    <g id="Gruppe_46413" data-name="Gruppe 46413" transform="translate(49.318 41.461)">
      <path id="Pfad_45804" data-name="Pfad 45804" d="M0,0Z" fill="#2c6811"/>
    </g>
    <g id="Gruppe_46414" data-name="Gruppe 46414" transform="translate(30.083 41.461)">
      <path id="Pfad_45805" data-name="Pfad 45805" d="M.445.034A24.893,24.893,0,0,0-14.028,14.213q-.263.668-.489,1.355a20.93,20.93,0,0,0,3.908-.6l.152-.043A20.911,20.911,0,0,0,4.717-1.125l-.27.049q-.693.131-1.372.3v0A24.6,24.6,0,0,0,.445.034" transform="translate(14.517 1.125)" fill="#2c6811"/>
    </g>
    <g id="Gruppe_46415" data-name="Gruppe 46415" transform="translate(8.371 41.461)">
      <path id="Pfad_45806" data-name="Pfad 45806" d="M0,0A20.894,20.894,0,0,0,19.235,16.693,24.853,24.853,0,0,0,0,0" fill="#40821d"/>
    </g>
    <g id="Gruppe_46416" data-name="Gruppe 46416" transform="translate(19.301 35.122)">
      <path id="Pfad_45807" data-name="Pfad 45807" d="M.031.046C.207.261.374.517.6.745s.438.493.686.738.514.494.8.732.57.478.881.687a13.176,13.176,0,0,0,1.888,1.14c.31.17.632.289.927.426.305.11.587.232.861.311a11.006,11.006,0,0,0,1.332.354c.165.031.3.055.391.066l.138.019L8.551,4.6l-.128-.01c-.077-.005-.2-.021-.355-.041a10.436,10.436,0,0,1-1.28-.269c-.266-.062-.543-.166-.842-.256-.29-.117-.608-.214-.916-.363A12.969,12.969,0,0,1,3.138,2.645c-.315-.189-.6-.422-.9-.627s-.551-.459-.818-.678S.934.867.705.647.293.189.106-.016-.25-.411-.375-.6l-.344-.472-.3-.412.277.428c.089.136.2.3.32.491s.287.388.453.611" transform="translate(1.019 1.484)" fill="#40821d"/>
    </g>
    <g id="Gruppe_46417" data-name="Gruppe 46417" transform="translate(13.808 40.215)">
      <path id="Pfad_45808" data-name="Pfad 45808" d="M.05.071C.33.408.6.807.954,1.164s.695.768,1.09,1.149.814.768,1.259,1.138c.46.348.9.741,1.392,1.066s.967.674,1.476.951l.747.431.753.377c.489.262.994.441,1.456.651.479.168.923.355,1.351.475a17.362,17.362,0,0,0,2.084.532c.257.046.46.08.605.1l.213.026.053-.621-.2-.018c-.128-.01-.322-.037-.569-.072A17.032,17.032,0,0,1,10.631,6.9c-.421-.1-.859-.271-1.333-.419-.458-.19-.96-.349-1.446-.589L7.1,5.545l-.746-.4c-.511-.256-.992-.581-1.484-.887s-.942-.676-1.409-1.006C3.011,2.9,2.6,2.52,2.179,2.17s-.762-.754-1.119-1.1S.416.336.125.009C-.15-.329-.431-.618-.626-.917s-.386-.542-.534-.75c-.3-.415-.467-.653-.467-.653l.444.669.51.769c.186.306.457.605.722.954" transform="translate(1.627 2.321)" fill="#40821d"/>
    </g>
    <g id="Gruppe_46418" data-name="Gruppe 46418" transform="translate(28.817 35.122)">
      <path id="Pfad_45809" data-name="Pfad 45809" d="M.017.2A11.006,11.006,0,0,0,1.349-.157c.273-.079.556-.2.861-.311.295-.137.616-.256.928-.425A13.493,13.493,0,0,0,5.025-2.033c.31-.209.59-.463.88-.687s.538-.5.8-.732.468-.505.686-.738.393-.484.568-.7.338-.415.453-.61.231-.356.32-.492c.177-.272.277-.428.277-.428s-.108.15-.3.412l-.343.472c-.126.189-.306.371-.482.583s-.364.448-.6.664-.458.464-.716.693-.531.459-.818.678-.582.438-.9.627A12.917,12.917,0,0,1,2.957-1.279c-.308.148-.626.245-.915.363-.3.091-.577.194-.842.256A10.485,10.485,0,0,1-.082-.392c-.156.021-.277.036-.355.041l-.128.01.053.621L-.373.263C-.279.251-.148.228.017.2" transform="translate(0.564 6.42)" fill="#2c5613"/>
    </g>
    <g id="Gruppe_46419" data-name="Gruppe 46419" transform="translate(28.817 40.215)">
      <path id="Pfad_45810" data-name="Pfad 45810" d="M.026.305A17.2,17.2,0,0,0,2.11-.228c.428-.12.872-.306,1.35-.475.463-.209.969-.39,1.457-.65l.753-.377.746-.431c.51-.277.987-.625,1.477-.952s.932-.716,1.392-1.066c.444-.369.85-.77,1.259-1.137s.742-.786,1.09-1.15.624-.754.9-1.091c.265-.349.537-.648.721-.954s.369-.557.511-.769l.444-.669L13.75-9.3l-.535.75c-.194.3-.475.587-.751.927s-.567.713-.935,1.055-.714.739-1.118,1.1c-.418.35-.833.733-1.283,1.083-.468.33-.915.7-1.41,1s-.972.632-1.483.887l-.747.4-.75.345c-.485.24-.987.4-1.445.59C2.818-1,2.38-.834,1.959-.731A16.791,16.791,0,0,1-.073-.283c-.247.035-.442.063-.569.073l-.2.018.053.62L-.579.4C-.434.386-.232.35.026.305" transform="translate(0.846 9.95)" fill="#2c5613"/>
    </g>
    <g id="Gruppe_46420" data-name="Gruppe 46420" transform="translate(22.882 22.965)">
      <path id="Pfad_45811" data-name="Pfad 45811" d="M.021.024a7.106,7.106,0,0,0,.84.712,8.221,8.221,0,0,0,1.073.677,9.9,9.9,0,0,0,2.225.869,7.572,7.572,0,0,0,1.087.211l.039-.623a6.811,6.811,0,0,1-1.017-.1,9.444,9.444,0,0,1-2.2-.634A8.016,8.016,0,0,1,.971.572,6.847,6.847,0,0,1,.086-.05,5.649,5.649,0,0,1-.487-.563L-.7-.768l.19.224A5.782,5.782,0,0,0,.021.024" transform="translate(0.696 0.768)" fill="#5baf2f"/>
    </g>
    <g id="Gruppe_46421" data-name="Gruppe 46421" transform="translate(19.45 25.316)">
      <path id="Pfad_45812" data-name="Pfad 45812" d="M.034.036A6.214,6.214,0,0,0,.646.575a8.5,8.5,0,0,0,.724.557c.26.182.527.375.816.539a10.049,10.049,0,0,0,.882.495,15.516,15.516,0,0,0,3.5,1.3,11.709,11.709,0,0,0,1.692.3L8.3,3.147a11.159,11.159,0,0,1-1.623-.195A15.1,15.1,0,0,1,3.2,1.884a9.761,9.761,0,0,1-.892-.434c-.295-.144-.566-.318-.832-.482A8.393,8.393,0,0,1,.735.462,5.938,5.938,0,0,1,.1-.037,8.924,8.924,0,0,1-.79-.861l-.325-.328.305.346A8.928,8.928,0,0,0,.034.036" transform="translate(1.115 1.189)" fill="#5baf2f"/>
    </g>
    <g id="Gruppe_46422" data-name="Gruppe 46422" transform="translate(28.824 22.965)">
      <path id="Pfad_45813" data-name="Pfad 45813" d="M.1.065A8.152,8.152,0,0,0,1.173-.612a7.106,7.106,0,0,0,.84-.712,5.9,5.9,0,0,0,.528-.568l.19-.224-.209.205a5.777,5.777,0,0,1-.573.513,6.847,6.847,0,0,1-.884.621,7.841,7.841,0,0,1-1.1.56,9.5,9.5,0,0,1-2.2.635,6.8,6.8,0,0,1-1.017.1l.039.621A7.572,7.572,0,0,0-2.125.933,9.942,9.942,0,0,0,.1.065" transform="translate(3.252 2.116)" fill="#40821d"/>
    </g>
    <g id="Gruppe_46423" data-name="Gruppe 46423" transform="translate(28.824 25.316)">
      <path id="Pfad_45814" data-name="Pfad 45814" d="M.156.1c.3-.149.6-.318.881-.495s.558-.358.817-.539a8.5,8.5,0,0,0,.724-.557A6.214,6.214,0,0,0,3.19-2.03a9.052,9.052,0,0,0,.844-.879l.305-.346-.325.328a8.924,8.924,0,0,1-.889.825,6.043,6.043,0,0,1-.636.5,8.546,8.546,0,0,1-.745.506c-.266.164-.537.338-.832.482a9.762,9.762,0,0,1-.892.434A15.038,15.038,0,0,1-3.453.885a11.07,11.07,0,0,1-1.622.2l.039.621a11.709,11.709,0,0,0,1.692-.3A15.534,15.534,0,0,0,.156.1" transform="translate(5.075 3.255)" fill="#40821d"/>
    </g>
    <g id="Gruppe_46424" data-name="Gruppe 46424" transform="translate(35.51 49)">
      <path id="Pfad_45815" data-name="Pfad 45815" d="M.192.047A12.789,12.789,0,0,0,2.666-.291c.359-.083.7-.18,1.026-.284q.238-.312.464-.634l-.522.2c-.333.126-.69.242-1.064.345A12.41,12.41,0,0,1,.176-.234,12.063,12.063,0,0,1-4.356-.727a9.134,9.134,0,0,1-1.9-.808h0a9.212,9.212,0,0,0,1.877.89A12.239,12.239,0,0,0,.192.047" transform="translate(6.261 1.535)" fill="#1f400e"/>
    </g>
    <g id="Gruppe_46425" data-name="Gruppe 46425" transform="translate(31.288 54.863)">
      <path id="Pfad_45816" data-name="Pfad 45816" d="M.119.043a9.349,9.349,0,0,0,.99-.007,8.731,8.731,0,0,0,.987-.1c.273-.036.535-.1.794-.159a20.963,20.963,0,0,0,2.1-1.19l-.5.236c-.221.1-.468.227-.715.336l-.826.288c-.295.071-.595.171-.909.225a8.385,8.385,0,0,1-.956.141,9.008,9.008,0,0,1-.969.048A8.973,8.973,0,0,1-.815-.2,8.476,8.476,0,0,1-2.453-.532a7.17,7.17,0,0,1-1.416-.579s0,0,0,0a7.2,7.2,0,0,0,1.394.643A8.681,8.681,0,0,0-.834-.056a9.3,9.3,0,0,0,.952.1" transform="translate(3.87 1.415)" fill="#1f400e"/>
    </g>
    <g id="Gruppe_46426" data-name="Gruppe 46426" transform="translate(33.75 29.577)">
      <path id="Pfad_45817" data-name="Pfad 45817" d="M.047.033a7.933,7.933,0,0,0,.81.473c.293.157.6.332.934.474a16.954,16.954,0,0,0,2.124.833,19.859,19.859,0,0,0,4.193.867,14.542,14.542,0,0,0,1.967.081l-.04-.623a13.808,13.808,0,0,1-1.888.018A19.454,19.454,0,0,1,4,1.514,16.532,16.532,0,0,1,1.87.8C1.531.675,1.221.519.923.377A7.8,7.8,0,0,1,.1-.051C-.153-.195-.388-.318-.587-.444l-.505-.338-.441-.3.426.317L-.619-.4c.193.136.422.271.666.429" transform="translate(1.533 1.078)" fill="#346916"/>
    </g>
    <g id="Gruppe_46427" data-name="Gruppe 46427" transform="translate(11.771 49)">
      <path id="Pfad_45818" data-name="Pfad 45818" d="M.118.047A12.239,12.239,0,0,0,4.694-.643a9.212,9.212,0,0,0,1.877-.89h0a9.134,9.134,0,0,1-1.9.808A12.063,12.063,0,0,1,.134-.234,12.41,12.41,0,0,1-2.26-.665c-.374-.1-.731-.22-1.064-.345l-.522-.2q.226.322.464.634c.325.1.667.2,1.026.284A12.789,12.789,0,0,0,.118.047" transform="translate(3.845 1.535)" fill="#2c5613"/>
    </g>
    <g id="Gruppe_46428" data-name="Gruppe 46428" transform="translate(17.545 54.863)">
      <path id="Pfad_45819" data-name="Pfad 45819" d="M.116.043a9.349,9.349,0,0,0,.99.007,9.3,9.3,0,0,0,.952-.1A8.681,8.681,0,0,0,3.7-.457,7.347,7.347,0,0,0,5.1-1.1a.008.008,0,0,1,0,0,7.2,7.2,0,0,1-1.416.579A8.476,8.476,0,0,1,2.04-.191,8.956,8.956,0,0,1,1.1-.134,8.976,8.976,0,0,1,.133-.183,8.4,8.4,0,0,1-.824-.324c-.314-.055-.614-.154-.908-.225l-.827-.288c-.247-.109-.495-.233-.715-.336l-.5-.236a20.849,20.849,0,0,0,2.1,1.19c.259.057.52.123.794.159a8.949,8.949,0,0,0,.987.1" transform="translate(3.77 1.408)" fill="#2c5613"/>
    </g>
    <g id="Gruppe_46429" data-name="Gruppe 46429" transform="translate(28.532 21.802)">
      <path id="Pfad_45820" data-name="Pfad 45820" d="M0,.314H.624L.311-10.255Z" transform="translate(0 10.255)" fill="#40821d"/>
    </g>
    <g id="Gruppe_46430" data-name="Gruppe 46430" transform="translate(28.532 32.371)">
      <path id="Pfad_45821" data-name="Pfad 45821" d="M0,.77H.624L.311-25.121Z" transform="translate(0 25.121)" fill="#2c5613"/>
    </g>
  </g>
</svg>
