<svg id="Gruppe_47679" data-name="Gruppe 47679" xmlns="http://www.w3.org/2000/svg" xmlns:xlink="http://www.w3.org/1999/xlink" width="75.224" height="21.026" viewBox="0 0 75.224 21.026">
  <defs>
    <clipPath id="clip-path">
      <rect id="Rechteck_674" data-name="Rechteck 674" width="75.224" height="21.026" fill="none"/>
    </clipPath>
  </defs>
  <g id="Gruppe_40559" data-name="Gruppe 40559" clip-path="url(#clip-path)">
    <path id="Pfad_39552" data-name="Pfad 39552" d="M66.439,19.049c6.9-.736,22.452-1.636,24.335-2.737a6.549,6.549,0,0,0,2.17-8.232,5.517,5.517,0,0,0-6.082-3.232C76.453,7,54.09,2.159,48.714.474a9.178,9.178,0,0,0-11.29,4.667l-.4,1.2c-1.737,5.116.821,10.909,5.233,12.764,2.959,1.244,17.992.608,24.177-.051" transform="translate(-24.376 0)" fill="#4a851d"/>
    <path id="Pfad_39553" data-name="Pfad 39553" d="M97.663,6.707A5.361,5.361,0,0,0,92.489,4.85C82.08,7,59.717,2.161,54.341.476A9.372,9.372,0,0,0,44.9,2.553c6.287,2.14,15.02,4.779,21.722,5.514,10.491,1.15,25.02-.316,31.04-1.361" transform="translate(-30.003 -0.002)" fill="#59a123"/>
    <path id="Pfad_39554" data-name="Pfad 39554" d="M65.931,28.332A92.676,92.676,0,0,0,93.5,22.753a6.734,6.734,0,0,0-.441-3.238l-.844.457c-3.543,1.6-15.348,4.134-28.126,3.522a83.542,83.542,0,0,1-27.1-6.082l-.4,1.341a10.849,10.849,0,0,0,.112,4.375,73.849,73.849,0,0,0,29.228,5.2" transform="translate(-24.336 -11.077)" fill="#345e15"/>
    <path id="Pfad_39555" data-name="Pfad 39555" d="M66.638,41.435c10.5-.049,22.783-3.611,24.666-4.712a6.258,6.258,0,0,0,2.761-4.636A92.682,92.682,0,0,1,66.5,37.666a73.842,73.842,0,0,1-29.228-5.2,9.978,9.978,0,0,0,5.519,7.048c2.959,1.244,14.225,1.968,23.846,1.924" transform="translate(-24.906 -20.412)" fill="#2a4d11"/>
    <path id="Pfad_39556" data-name="Pfad 39556" d="M36.787,14.127a1.249,1.249,0,0,0-1.193.919,1.716,1.716,0,0,0,.4,1.618Z" transform="translate(-23.739 -8.986)" fill="#ebcd94"/>
    <path id="Pfad_39557" data-name="Pfad 39557" d="M207.954,15.483a1.23,1.23,0,0,0,.513-1.489l-1.491-4.085a1.051,1.051,0,0,0-1.308-.69l-6.15,2.04,2.7,7.4Z" transform="translate(-133.319 -5.832)" fill="#4a851d"/>
    <path id="Pfad_39558" data-name="Pfad 39558" d="M203.545,20.766l-2.624-7.133-1.4.465,2.7,7.4Z" transform="translate(-133.319 -8.672)" fill="#345e15"/>
    <path id="Pfad_39559" data-name="Pfad 39559" d="M210.623,20.563a1.23,1.23,0,0,0,.513-1.489l-.7-1.92-6.928,2.8,1.376,3.785Z" transform="translate(-135.988 -10.912)" fill="#345e15"/>
    <path id="Pfad_39560" data-name="Pfad 39560" d="M174.5,26.213c.7-.113,1.231-.41,1.2-.628s-.619-.29-1.31-.179-1.227.385-1.2.608.616.312,1.313.2" transform="translate(-115.725 -16.127)" fill="#5ca624"/>
    <path id="Pfad_39561" data-name="Pfad 39561" d="M142.392,29.444c.7-.03,1.264-.247,1.252-.475s-.587-.369-1.285-.34-1.258.243-1.252.468.582.381,1.285.348" transform="translate(-94.289 -18.209)" fill="#5ca624"/>
    <path id="Pfad_39562" data-name="Pfad 39562" d="M111.454,28.744c.011-.225-.544-.445-1.24-.492s-1.273.06-1.293.292.534.482,1.239.522,1.283-.1,1.294-.322" transform="translate(-72.782 -17.966)" fill="#5ca624"/>
    <path id="Pfad_39563" data-name="Pfad 39563" d="M79.568,24.479c.036-.222-.491-.513-1.178-.651-.683-.154-1.272-.1-1.315.117s.482.528,1.172.684c.693.139,1.284.072,1.321-.15" transform="translate(-51.501 -15.1)" fill="#5ca624"/>
    <path id="Pfad_39564" data-name="Pfad 39564" d="M48.4,16.526c.058-.215-.436-.566-1.1-.8s-1.253-.259-1.32-.044.421.592,1.094.821,1.267.241,1.326.024" transform="translate(-30.718 -9.883)" fill="#5ca624"/>
    <path id="Pfad_39565" data-name="Pfad 39565" d="M169.912,17.939c.7-.1,1.242-.383,1.211-.6s-.616-.3-1.311-.207-1.238.359-1.214.583.612.325,1.313.226" transform="translate(-112.658 -10.871)" fill="#6ec72b"/>
    <path id="Pfad_39566" data-name="Pfad 39566" d="M143.253,19.349c-.008-.221-.582-.384-1.282-.369s-1.266.217-1.264.44.576.394,1.283.376,1.272-.218,1.264-.447" transform="translate(-94.021 -12.073)" fill="#6ec72b"/>
    <path id="Pfad_39567" data-name="Pfad 39567" d="M112.432,19.138c.016-.225-.536-.46-1.232-.524s-1.277.015-1.3.245.522.5,1.228.566,1.291-.063,1.307-.287" transform="translate(-73.434 -11.826)" fill="#6ec72b"/>
    <path id="Pfad_39568" data-name="Pfad 39568" d="M81.553,14.324c.047-.22-.467-.539-1.146-.722-.675-.2-1.267-.187-1.322.03s.455.557,1.137.761c.687.185,1.284.15,1.331-.069" transform="translate(-52.842 -8.562)" fill="#6ec72b"/>
    <path id="Pfad_39569" data-name="Pfad 39569" d="M65.791,15.993c.052-.222-.468-.545-1.153-.761s-1.289-.207-1.346.006.455.569,1.148.78,1.3.19,1.351-.025" transform="translate(-42.289 -9.591)" fill="#5ca624"/>
    <path id="Pfad_39570" data-name="Pfad 39570" d="M96.2,22.123c.029-.227-.522-.483-1.226-.606s-1.3-.051-1.336.171.512.506,1.222.635,1.313.019,1.34-.2" transform="translate(-62.568 -13.648)" fill="#5ca624"/>
    <path id="Pfad_39571" data-name="Pfad 39571" d="M128.242,25.085c0-.226-.574-.416-1.286-.428-.712-.035-1.3.119-1.306.345s.566.436,1.285.471c.72.012,1.3-.163,1.307-.388" transform="translate(-83.961 -15.682)" fill="#5ca624"/>
    <path id="Pfad_39572" data-name="Pfad 39572" d="M158.5,24.454c.717-.057,1.28-.316,1.259-.536s-.611-.333-1.323-.277-1.275.3-1.261.52.607.356,1.324.293" transform="translate(-105.025 -15.029)" fill="#5ca624"/>
    <path id="Pfad_39573" data-name="Pfad 39573" d="M191.394,16.466c.709-.135,1.248-.447,1.207-.668s-.638-.269-1.34-.135-1.244.424-1.211.645.636.3,1.344.158" transform="translate(-126.992 -9.916)" fill="#6ec72b"/>
    <path id="Pfad_39574" data-name="Pfad 39574" d="M191.394,16.466c.709-.135,1.248-.447,1.207-.668s-.638-.269-1.34-.135-1.244.424-1.211.645.636.3,1.344.158" transform="translate(-126.992 -9.916)" fill="#5ca624"/>
    <path id="Pfad_39575" data-name="Pfad 39575" d="M70.065,4.79c.047-.215-.475-.546-1.166-.741s-1.294-.175-1.347.039.466.559,1.163.752,1.3.174,1.349-.049" transform="translate(-45.136 -2.491)" fill="#6ec72b"/>
    <path id="Pfad_39576" data-name="Pfad 39576" d="M98.43,10.873c.023-.224-.532-.478-1.239-.568-.7-.114-1.3-.026-1.331.2s.522.5,1.234.612c.715.091,1.314-.017,1.337-.241" transform="translate(-64.053 -6.523)" fill="#6ec72b"/>
    <path id="Pfad_39577" data-name="Pfad 39577" d="M129,15.452c0-.225-.57-.428-1.282-.452s-1.3.119-1.309.347.563.451,1.282.469,1.3-.138,1.309-.363" transform="translate(-84.466 -9.54)" fill="#6ec72b"/>
    <path id="Pfad_39578" data-name="Pfad 39578" d="M174.691,48.274c.689-.151,1.206-.479,1.161-.694s-.631-.254-1.313-.1-1.2.453-1.165.674.628.277,1.317.124" transform="translate(-115.848 -30.141)" fill="#4a851d"/>
    <path id="Pfad_39579" data-name="Pfad 39579" d="M142.856,53.108c.7-.066,1.249-.31,1.226-.538s-.6-.34-1.294-.274-1.242.306-1.227.53.6.351,1.295.282" transform="translate(-94.592 -33.254)" fill="#4a851d"/>
    <path id="Pfad_39580" data-name="Pfad 39580" d="M112,53.782c0-.225-.56-.418-1.256-.432s-1.266.128-1.275.358.553.448,1.255.457,1.273-.159,1.276-.384" transform="translate(-73.146 -33.936)" fill="#4a851d"/>
    <path id="Pfad_39581" data-name="Pfad 39581" d="M80,51.376c.023-.224-.519-.477-1.211-.565s-1.273-.006-1.3.217.512.49,1.208.592,1.281-.02,1.3-.244" transform="translate(-51.775 -32.296)" fill="#4a851d"/>
    <path id="Pfad_39582" data-name="Pfad 39582" d="M48.578,44.521c.042-.22-.477-.524-1.155-.694s-1.266-.135-1.315.085.466.547,1.152.711,1.276.119,1.319-.1" transform="translate(-30.808 -27.813)" fill="#4a851d"/>
    <path id="Pfad_39583" data-name="Pfad 39583" d="M174.253,39.645c.7-.127,1.232-.439,1.193-.656s-.629-.273-1.322-.147-1.229.415-1.2.638.626.3,1.326.166" transform="translate(-115.55 -24.664)" fill="#4a851d"/>
    <path id="Pfad_39584" data-name="Pfad 39584" d="M141.978,43.57c.708-.049,1.269-.273,1.252-.5s-.6-.361-1.3-.312-1.262.274-1.253.494.593.369,1.3.32" transform="translate(-94.002 -27.191)" fill="#4a851d"/>
    <path id="Pfad_39585" data-name="Pfad 39585" d="M110.805,43.48c.007-.225-.555-.433-1.257-.464s-1.281.082-1.3.31.546.463,1.255.5,1.291-.125,1.3-.35" transform="translate(-72.334 -27.358)" fill="#4a851d"/>
    <path id="Pfad_39586" data-name="Pfad 39586" d="M78.629,39.669c.034-.224-.5-.5-1.194-.637s-1.282-.086-1.323.135.492.52,1.189.667,1.294.054,1.328-.166" transform="translate(-50.858 -24.778)" fill="#4a851d"/>
    <path id="Pfad_39587" data-name="Pfad 39587" d="M47.137,32.058c.056-.214-.446-.563-1.118-.789s-1.264-.246-1.329-.029.431.589,1.112.809,1.277.228,1.334.009" transform="translate(-29.859 -19.777)" fill="#4a851d"/>
    <path id="Pfad_39588" data-name="Pfad 39588" d="M62.43,40.618c.047-.223-.48-.533-1.17-.73s-1.294-.172-1.346.042.467.557,1.166.75,1.3.155,1.35-.061" transform="translate(-40.033 -25.289)" fill="#4a851d"/>
    <path id="Pfad_39589" data-name="Pfad 39589" d="M92.982,46c.024-.227-.533-.469-1.239-.573s-1.3-.017-1.332.206.524.493,1.236.6,1.313-.016,1.335-.236" transform="translate(-60.412 -28.866)" fill="#4a851d"/>
    <path id="Pfad_39590" data-name="Pfad 39590" d="M128.116,48.164c0-.226-.583-.4-1.3-.393-.712-.016-1.293.154-1.3.379s.575.421,1.295.437c.72-.007,1.3-.2,1.3-.422" transform="translate(-83.875 -30.386)" fill="#4a851d"/>
    <path id="Pfad_39591" data-name="Pfad 39591" d="M159.461,46.189c.716-.076,1.272-.35,1.247-.569s-.618-.317-1.328-.242-1.268.329-1.249.553.615.34,1.33.258" transform="translate(-105.664 -28.849)" fill="#4a851d"/>
    <path id="Pfad_39592" data-name="Pfad 39592" d="M190.02,40.341c.7-.167,1.23-.5,1.181-.721s-.648-.241-1.344-.075-1.227.479-1.186.7.647.274,1.348.1" transform="translate(-126.07 -25.086)" fill="#4a851d"/>
    <path id="Pfad_39593" data-name="Pfad 39593" d="M40.9,21.63c.052-.222-.47-.544-1.155-.757s-1.29-.2-1.347.011.457.568,1.151.776,1.3.185,1.351-.03" transform="translate(-25.652 -13.181)" fill="#4a851d"/>
    <path id="Pfad_39594" data-name="Pfad 39594" d="M64.763,29.093c.038-.217-.5-.524-1.192-.688s-1.3-.116-1.344.1.486.537,1.19.7,1.306.116,1.346-.11" transform="translate(-41.578 -18.007)" fill="#4a851d"/>
    <path id="Pfad_39595" data-name="Pfad 39595" d="M94.438,35c.015-.225-.549-.454-1.259-.512-.709-.082-1.3.032-1.323.257s.54.473,1.256.556c.718.059,1.312-.075,1.327-.3" transform="translate(-61.378 -21.92)" fill="#4a851d"/>
    <path id="Pfad_39596" data-name="Pfad 39596" d="M126.431,37.192c.719-.031,1.293-.239,1.283-.464s-.6-.383-1.309-.352-1.287.22-1.283.447.591.406,1.309.368" transform="translate(-83.607 -23.137)" fill="#4a851d"/>
    <path id="Pfad_39597" data-name="Pfad 39597" d="M159.046,35.424c.712-.112,1.263-.381,1.231-.608s-.629-.312-1.335-.2-1.258.37-1.233.594.625.331,1.337.214" transform="translate(-105.382 -21.99)" fill="#4a851d"/>
    <path id="Pfad_39598" data-name="Pfad 39598" d="M198.428,27.164c.69-.281,1.171-.656,1.1-.869s-.687-.17-1.339.1c-.666.241-1.173.588-1.12.8s.665.222,1.36-.029" transform="translate(-131.68 -16.642)" fill="#4a851d"/>
    <path id="Pfad_39599" data-name="Pfad 39599" d="M51.829,8.23a.6.6,0,1,0-.6.658.631.631,0,0,0,.6-.658" transform="translate(-33.831 -4.817)" fill="#fff"/>
    <path id="Pfad_39600" data-name="Pfad 39600" d="M59.619,4.394a1.28,1.28,0,1,0-2.549,0,1.28,1.28,0,1,0,2.549,0" transform="translate(-38.135 -1.906)" fill="#fff"/>
    <path id="Pfad_39601" data-name="Pfad 39601" d="M11.322,22.087l4.144-2.624,2.393-4.545V9.67L15.466,5.125,11.322,2.5H6.537L2.392,5.125,0,9.67v5.248l2.393,4.545,4.144,2.624Z" transform="translate(0 -1.591)" fill="#4a851d"/>
    <path id="Pfad_39602" data-name="Pfad 39602" d="M12.482,22.633,16.318,20.2,18.533,16V11.139L16.318,6.931,12.482,4.5H8.052L4.216,6.931,2,11.139V16L4.216,20.2l3.836,2.429Z" transform="translate(-1.337 -2.864)" fill="#c5ed8e"/>
    <path id="Pfad_39603" data-name="Pfad 39603" d="M13.809,23.256l3.483-2.206L19.3,17.23V12.819L17.292,9,13.809,6.793H9.787L6.3,9l-2.011,3.82V17.23L6.3,21.05l3.483,2.206Z" transform="translate(-2.868 -4.321)" fill="#fff8ba"/>
    <path id="Pfad_39604" data-name="Pfad 39604" d="M29.977,20.838a1.8,1.8,0,0,0,.969.287A2.008,2.008,0,0,0,32.882,19.1c0-.067,0-.134,0-.2a6.663,6.663,0,0,0-3.13-5.762,1.758,1.758,0,0,0-.9-.254,2.048,2.048,0,0,0-1.938,2.134v2.658a2.166,2.166,0,0,0,.967,1.837ZM27.3,17.673V15.016A1.64,1.64,0,0,1,28.851,13.3a1.4,1.4,0,0,1,.721.2A6.239,6.239,0,0,1,32.5,18.9c0,.063,0,.126,0,.188a1.6,1.6,0,0,1-1.554,1.62,1.434,1.434,0,0,1-.777-.231l-2.1-1.328a1.743,1.743,0,0,1-.775-1.473" transform="translate(-17.983 -8.194)" fill="#edcf87"/>
    <path id="Pfad_39605" data-name="Pfad 39605" d="M10.855,21.125a1.8,1.8,0,0,0,.969-.287l2.1-1.328a2.166,2.166,0,0,0,.967-1.837V15.016a2.048,2.048,0,0,0-1.939-2.134,1.759,1.759,0,0,0-.9.254A6.662,6.662,0,0,0,8.917,18.9c0,.067,0,.134,0,.2a2.009,2.009,0,0,0,1.936,2.027M9.3,18.9a6.24,6.24,0,0,1,2.93-5.393,1.4,1.4,0,0,1,.72-.2,1.64,1.64,0,0,1,1.556,1.714v2.658a1.742,1.742,0,0,1-.776,1.473l-2.1,1.328a1.433,1.433,0,0,1-.777.231A1.6,1.6,0,0,1,9.3,19.086c0-.062,0-.125,0-.188" transform="translate(-5.958 -8.194)" fill="#edcf87"/>
    <path id="Pfad_39606" data-name="Pfad 39606" d="M18.783,36.536a5.548,5.548,0,0,0,3.154-.99,2.229,2.229,0,0,0-.091-3.619L19.75,30.6a1.787,1.787,0,0,0-1.934,0l-2.1,1.327a2.23,2.23,0,0,0-.09,3.619,5.549,5.549,0,0,0,3.154.99m-3.655-2.783a1.743,1.743,0,0,1,.782-1.463l2.1-1.327a1.435,1.435,0,0,1,1.551,0l2.1,1.327a1.743,1.743,0,0,1,.782,1.463,1.691,1.691,0,0,1-.7,1.437,5.163,5.163,0,0,1-5.9,0,1.69,1.69,0,0,1-.7-1.437" transform="translate(-9.853 -19.284)" fill="#edcf87"/>
  </g>
</svg>
