<svg xmlns="http://www.w3.org/2000/svg" width="211.5" height="70.232" viewBox="0 0 211.5 70.232">
  <g id="Gruppe_47905" data-name="Gruppe 47905" transform="translate(-22.434 58.417)">
    <path id="Pfad_48529" data-name="Pfad 48529" d="M58.017-49.913v17.542H22.934V-49.913Zm0,0H93.1v17.542H58.017Zm35.083,0h35.083v17.542H93.1Zm35.085,0h35.083v17.542H128.185Zm35.083,0v0Zm0,39.469v0Zm0,0h35.083V7.1H163.268Zm35.083,0h35.083V7.1H198.351Z" transform="translate(0 4.652)" fill="#bbd4b3"/>
    <path id="Pfad_48530" data-name="Pfad 48530" d="M163.512-49.917l69.922,0v17.542l-69.922-.062ZM22.934-10.444H58.017V7.1H22.934Zm35.083,0H93.1V7.1H58.017Zm35.083,0,69.943-.02V7.162L93.1,7.1Z" transform="translate(0 4.652)" fill="#519545"/>
    <g id="Gruppe_47878" data-name="Gruppe 47878" transform="translate(22.934 -58.417)">
      <path id="Pfad_48531" data-name="Pfad 48531" d="M0,4.652V-8.5" transform="translate(0 8.504)" fill="none" stroke="#fff" stroke-width="1"/>
    </g>
    <g id="Gruppe_47879" data-name="Gruppe 47879" transform="translate(22.934 -45.261)">
      <path id="Pfad_48532" data-name="Pfad 48532" d="M0,6.2V-11.339" transform="translate(0 11.339)" fill="none" stroke="#fff" stroke-width="1"/>
    </g>
    <g id="Gruppe_47880" data-name="Gruppe 47880" transform="translate(233.434 -45.261)">
      <path id="Pfad_48533" data-name="Pfad 48533" d="M0,6.2V-11.339" transform="translate(0 11.339)" fill="none" stroke="#fff" stroke-width="1"/>
    </g>
    <g id="Gruppe_47881" data-name="Gruppe 47881" transform="translate(22.934 -27.719)">
      <path id="Pfad_48534" data-name="Pfad 48534" d="M0,3.1v-8.77" transform="translate(0 5.669)" fill="none" stroke="#fff" stroke-width="1"/>
    </g>
    <g id="Gruppe_47882" data-name="Gruppe 47882" transform="translate(22.934 -18.948)">
      <path id="Pfad_48535" data-name="Pfad 48535" d="M0,4.652V-8.5" transform="translate(0 8.504)" fill="none" stroke="#fff" stroke-width="1"/>
    </g>
    <g id="Gruppe_47883" data-name="Gruppe 47883" transform="translate(22.934 -5.793)">
      <path id="Pfad_48536" data-name="Pfad 48536" d="M0,6.2V-11.339" transform="translate(0 11.339)" fill="none" stroke="#fff" stroke-width="1"/>
    </g>
    <g id="Gruppe_47884" data-name="Gruppe 47884" transform="translate(233.434 -5.793)">
      <path id="Pfad_48537" data-name="Pfad 48537" d="M0,6.2V-11.339" transform="translate(0 11.339)" fill="none" stroke="#fff" stroke-width="1"/>
    </g>
    <g id="Gruppe_47885" data-name="Gruppe 47885" transform="translate(58.017 -45.261)">
      <path id="Pfad_48538" data-name="Pfad 48538" d="M0,6.2V-11.339" transform="translate(0 11.339)" fill="none" stroke="#fff" stroke-width="0.5"/>
    </g>
    <g id="Gruppe_47886" data-name="Gruppe 47886" transform="translate(93.101 -45.261)">
      <path id="Pfad_48539" data-name="Pfad 48539" d="M0,6.2V-11.339" transform="translate(0 11.339)" fill="none" stroke="#fff" stroke-width="0.5"/>
    </g>
    <g id="Gruppe_47887" data-name="Gruppe 47887" transform="translate(128.184 -45.261)">
      <path id="Pfad_48540" data-name="Pfad 48540" d="M0,6.2V-11.339" transform="translate(0 11.339)" fill="none" stroke="#fff" stroke-width="0.5"/>
    </g>
    <g id="Gruppe_47888" data-name="Gruppe 47888" transform="translate(163.268 -45.261)">
      <path id="Pfad_48541" data-name="Pfad 48541" d="M0,6.2V-11.339" transform="translate(0 11.339)" fill="none" stroke="#fff" stroke-width="0.5"/>
    </g>
    <g id="Gruppe_47889" data-name="Gruppe 47889" transform="translate(198.351 -45.261)">
      <path id="Pfad_48542" data-name="Pfad 48542" d="M0,6.2V-11.339" transform="translate(0 11.339)" fill="none" stroke="#fff" stroke-width="0.5"/>
    </g>
    <g id="Gruppe_47890" data-name="Gruppe 47890" transform="translate(58.017 -5.793)">
      <path id="Pfad_48543" data-name="Pfad 48543" d="M0,6.2V-11.339" transform="translate(0 11.339)" fill="none" stroke="#fff" stroke-width="0.5"/>
    </g>
    <g id="Gruppe_47891" data-name="Gruppe 47891" transform="translate(93.101 -5.793)">
      <path id="Pfad_48544" data-name="Pfad 48544" d="M0,6.2V-11.339" transform="translate(0 11.339)" fill="none" stroke="#fff" stroke-width="0.5"/>
    </g>
    <g id="Gruppe_47892" data-name="Gruppe 47892" transform="translate(128.184 -5.793)">
      <path id="Pfad_48545" data-name="Pfad 48545" d="M0,6.2V-11.339" transform="translate(0 11.339)" fill="none" stroke="#fff" stroke-width="0.5"/>
    </g>
    <g id="Gruppe_47893" data-name="Gruppe 47893" transform="translate(163.268 -5.793)">
      <path id="Pfad_48546" data-name="Pfad 48546" d="M0,6.2V-11.339" transform="translate(0 11.339)" fill="none" stroke="#fff" stroke-width="0.5"/>
    </g>
    <g id="Gruppe_47894" data-name="Gruppe 47894" transform="translate(198.351 -5.793)">
      <path id="Pfad_48547" data-name="Pfad 48547" d="M0,6.2V-11.339" transform="translate(0 11.339)" fill="none" stroke="#fff" stroke-width="0.5"/>
    </g>
    <g id="Gruppe_47895" data-name="Gruppe 47895" transform="translate(58.017 -58.417)">
      <path id="Pfad_48548" data-name="Pfad 48548" d="M0,4.652V-8.5" transform="translate(0 8.504)" fill="none" stroke="#519545" stroke-width="0.5"/>
    </g>
    <g id="Gruppe_47896" data-name="Gruppe 47896" transform="translate(93.101 -58.417)">
      <path id="Pfad_48549" data-name="Pfad 48549" d="M0,4.652V-8.5" transform="translate(0 8.504)" fill="none" stroke="#519545" stroke-width="0.5"/>
    </g>
    <g id="Gruppe_47897" data-name="Gruppe 47897" transform="translate(128.184 -58.417)">
      <path id="Pfad_48550" data-name="Pfad 48550" d="M0,4.652V-8.5" transform="translate(0 8.504)" fill="none" stroke="#519545" stroke-width="0.5"/>
    </g>
    <g id="Gruppe_47898" data-name="Gruppe 47898" transform="translate(163.268 -58.417)">
      <path id="Pfad_48551" data-name="Pfad 48551" d="M0,4.652V-8.5" transform="translate(0 8.504)" fill="none" stroke="#519545" stroke-width="0.5"/>
    </g>
    <g id="Gruppe_47899" data-name="Gruppe 47899" transform="translate(198.351 -58.417)">
      <path id="Pfad_48552" data-name="Pfad 48552" d="M0,4.652V-8.5" transform="translate(0 8.504)" fill="none" stroke="#519545" stroke-width="0.5"/>
    </g>
    <g id="Gruppe_47900" data-name="Gruppe 47900" transform="translate(58.017 -18.948)">
      <path id="Pfad_48553" data-name="Pfad 48553" d="M0,4.652V-8.5" transform="translate(0 8.504)" fill="none" stroke="#519545" stroke-width="0.5"/>
    </g>
    <g id="Gruppe_47901" data-name="Gruppe 47901" transform="translate(93.101 -18.948)">
      <path id="Pfad_48554" data-name="Pfad 48554" d="M0,4.652V-8.5" transform="translate(0 8.504)" fill="none" stroke="#519545" stroke-width="0.5"/>
    </g>
    <g id="Gruppe_47902" data-name="Gruppe 47902" transform="translate(128.184 -18.948)">
      <path id="Pfad_48555" data-name="Pfad 48555" d="M0,4.652V-8.5" transform="translate(0 8.504)" fill="none" stroke="#519545" stroke-width="0.5"/>
    </g>
    <g id="Gruppe_47903" data-name="Gruppe 47903" transform="translate(163.268 -18.948)">
      <path id="Pfad_48556" data-name="Pfad 48556" d="M0,4.652V-8.5" transform="translate(0 8.504)" fill="none" stroke="#519545" stroke-width="0.5"/>
    </g>
    <g id="Gruppe_47904" data-name="Gruppe 47904" transform="translate(198.351 -18.948)">
      <path id="Pfad_48557" data-name="Pfad 48557" d="M0,4.652V-8.5" transform="translate(0 8.504)" fill="none" stroke="#519545" stroke-width="0.5"/>
    </g>
    <g id="Gruppe" transform="translate(31.481 -56.736)">
      <text id="JAN" transform="translate(0 9)" fill="#2b2e34" font-size="9" font-family="BrandonGrotesque-Regular, Brandon Grotesque" letter-spacing="0.045em"><tspan x="0" y="0">JAN</tspan></text>
      <text id="FEB" transform="translate(35.858 9)" fill="#2b2e34" font-size="9" font-family="BrandonGrotesque-Regular, Brandon Grotesque" letter-spacing="-0.01em"><tspan x="0" y="0">FEB</tspan></text>
      <text id="MAR" transform="translate(69.089 9)" fill="#2b2e34" font-size="9" font-family="BrandonGrotesque-Regular, Brandon Grotesque" letter-spacing="-0.01em"><tspan x="0" y="0">MAR</tspan></text>
      <text id="APR" transform="translate(105.412 9)" fill="#2b2e34" font-size="9" font-family="BrandonGrotesque-Regular, Brandon Grotesque" letter-spacing="-0.01em"><tspan x="0" y="0">APR</tspan></text>
      <text id="M" transform="translate(139.933 8)" fill="#2b2e34" font-size="8" font-family="BrandonGrotesque-Regular, Brandon Grotesque" letter-spacing="-0.058em"><tspan x="0" y="0">M</tspan></text>
      <text id="AY" transform="translate(147.842 9)" fill="#2b2e34" font-size="9" font-family="BrandonGrotesque-Regular, Brandon Grotesque" letter-spacing="-0.058em"><tspan x="0" y="0">AY</tspan></text>
      <text id="JUN" transform="translate(175.699 9)" fill="#2b2e34" font-size="9" font-family="BrandonGrotesque-Regular, Brandon Grotesque" letter-spacing="-0.01em"><tspan x="0" y="0">JUN</tspan></text>
      <text id="JUL" transform="translate(1.086 48.469)" fill="#2b2e34" font-size="9" font-family="BrandonGrotesque-Regular, Brandon Grotesque" letter-spacing="0.045em"><tspan x="0" y="0">JUL</tspan></text>
      <text id="AUG" transform="translate(34.401 47.469)" fill="#2b2e34" font-size="8" font-family="BrandonGrotesque-Regular, Brandon Grotesque" letter-spacing="-0.017em"><tspan x="0" y="0">AUG</tspan></text>
      <text id="SEP" transform="translate(71.262 48.469)" fill="#2b2e34" font-size="9" font-family="BrandonGrotesque-Regular, Brandon Grotesque" letter-spacing="-0.01em"><tspan x="0" y="0">SEP</tspan></text>
      <text id="OCT" transform="translate(105.022 48.469)" fill="#2b2e34" font-size="9" font-family="BrandonGrotesque-Regular, Brandon Grotesque" letter-spacing="-0.01em"><tspan x="0" y="0">OCT</tspan></text>
      <text id="NOV" transform="translate(138.949 48.469)" fill="#2b2e34" font-size="9" font-family="BrandonGrotesque-Regular, Brandon Grotesque" letter-spacing="-0.014em"><tspan x="0" y="0">NOV</tspan></text>
      <text id="DEC" transform="translate(175.021 48.469)" fill="#2b2e34" font-size="9" font-family="BrandonGrotesque-Regular, Brandon Grotesque" letter-spacing="-0.013em"><tspan x="0" y="0">DEC</tspan></text>
    </g>
  </g>
</svg>
