<svg xmlns="http://www.w3.org/2000/svg" xmlns:xlink="http://www.w3.org/1999/xlink" width="211" height="70.001" viewBox="0 0 211 70.001">
  <defs>
    <clipPath id="clip-path">
      <rect width="211" height="70.001" fill="none"/>
    </clipPath>
  </defs>
  <g id="Wiederholungsraster_1" data-name="Wiederholungsraster 1" clip-path="url(#clip-path)">
    <g id="Gruppe_47737" data-name="Gruppe 47737" transform="translate(-22.434 58.417)">
      <path id="Pfad_48356" data-name="Pfad 48356" d="M22.934-49.913h35v17.5h-35Zm35,0h35v17.5h-35Zm35,0h35v17.5h-35Zm105,39.375h35v17.5h-35Z" transform="translate(0 4.621)" fill="#519545"/>
      <path id="Pfad_48357" data-name="Pfad 48357" d="M127.935-49.913h35v17.5h-35Zm35,0h35v17.5h-35Zm35,0h35v17.5h-35Zm-175,39.375h35v17.5h-35Zm35,0h35v17.5h-35Zm35,0h35v17.5h-35Zm35,0h35v17.5h-35Zm35,0h35v17.5h-35Z" transform="translate(0 4.621)" fill="#bbd4b3"/>
      <g id="Gruppe_47710" data-name="Gruppe 47710" transform="translate(22.934 -58.417)">
        <path id="Pfad_48358" data-name="Pfad 48358" d="M0,4.621V-8.5" transform="translate(0 8.504)" fill="none" stroke="#fff" stroke-width="1"/>
      </g>
      <g id="Gruppe_47711" data-name="Gruppe 47711" transform="translate(22.934 -45.293)">
        <path id="Pfad_48359" data-name="Pfad 48359" d="M0,6.162v-17.5" transform="translate(0 11.339)" fill="none" stroke="#fff" stroke-width="1"/>
      </g>
      <g id="Gruppe_47712" data-name="Gruppe 47712" transform="translate(232.934 -45.293)">
        <path id="Pfad_48360" data-name="Pfad 48360" d="M0,6.162v-17.5" transform="translate(0 11.339)" fill="none" stroke="#fff" stroke-width="1"/>
      </g>
      <g id="Gruppe_47713" data-name="Gruppe 47713" transform="translate(22.934 -27.791)">
        <path id="Pfad_48361" data-name="Pfad 48361" d="M0,3.081v-8.75" transform="translate(0 5.669)" fill="none" stroke="#fff" stroke-width="1"/>
      </g>
      <g id="Gruppe_47714" data-name="Gruppe 47714" transform="translate(22.934 -19.042)">
        <path id="Pfad_48362" data-name="Pfad 48362" d="M0,4.621V-8.5" transform="translate(0 8.504)" fill="none" stroke="#fff" stroke-width="1"/>
      </g>
      <g id="Gruppe_47715" data-name="Gruppe 47715" transform="translate(22.934 -5.918)">
        <path id="Pfad_48363" data-name="Pfad 48363" d="M0,6.162v-17.5" transform="translate(0 11.339)" fill="none" stroke="#fff" stroke-width="1"/>
      </g>
      <g id="Gruppe_47716" data-name="Gruppe 47716" transform="translate(232.934 -5.918)">
        <path id="Pfad_48364" data-name="Pfad 48364" d="M0,6.162v-17.5" transform="translate(0 11.339)" fill="none" stroke="#fff" stroke-width="1"/>
      </g>
      <g id="Gruppe_47717" data-name="Gruppe 47717" transform="translate(57.934 -45.293)">
        <path id="Pfad_48365" data-name="Pfad 48365" d="M0,6.162v-17.5" transform="translate(0 11.339)" fill="none" stroke="#fff" stroke-width="0.5"/>
      </g>
      <g id="Gruppe_47718" data-name="Gruppe 47718" transform="translate(92.934 -45.293)">
        <path id="Pfad_48366" data-name="Pfad 48366" d="M0,6.162v-17.5" transform="translate(0 11.339)" fill="none" stroke="#fff" stroke-width="0.5"/>
      </g>
      <g id="Gruppe_47719" data-name="Gruppe 47719" transform="translate(127.934 -45.293)">
        <path id="Pfad_48367" data-name="Pfad 48367" d="M0,6.162v-17.5" transform="translate(0 11.339)" fill="none" stroke="#fff" stroke-width="0.5"/>
      </g>
      <g id="Gruppe_47720" data-name="Gruppe 47720" transform="translate(162.934 -45.293)">
        <path id="Pfad_48368" data-name="Pfad 48368" d="M0,6.162v-17.5" transform="translate(0 11.339)" fill="none" stroke="#fff" stroke-width="0.5"/>
      </g>
      <g id="Gruppe_47721" data-name="Gruppe 47721" transform="translate(197.934 -45.293)">
        <path id="Pfad_48369" data-name="Pfad 48369" d="M0,6.162v-17.5" transform="translate(0 11.339)" fill="none" stroke="#fff" stroke-width="0.5"/>
      </g>
      <g id="Gruppe_47722" data-name="Gruppe 47722" transform="translate(57.934 -5.918)">
        <path id="Pfad_48370" data-name="Pfad 48370" d="M0,6.162v-17.5" transform="translate(0 11.339)" fill="none" stroke="#fff" stroke-width="0.5"/>
      </g>
      <g id="Gruppe_47723" data-name="Gruppe 47723" transform="translate(92.934 -5.918)">
        <path id="Pfad_48371" data-name="Pfad 48371" d="M0,6.162v-17.5" transform="translate(0 11.339)" fill="none" stroke="#fff" stroke-width="0.5"/>
      </g>
      <g id="Gruppe_47724" data-name="Gruppe 47724" transform="translate(127.934 -5.918)">
        <path id="Pfad_48372" data-name="Pfad 48372" d="M0,6.162v-17.5" transform="translate(0 11.339)" fill="none" stroke="#fff" stroke-width="0.5"/>
      </g>
      <g id="Gruppe_47725" data-name="Gruppe 47725" transform="translate(162.934 -5.918)">
        <path id="Pfad_48373" data-name="Pfad 48373" d="M0,6.162v-17.5" transform="translate(0 11.339)" fill="none" stroke="#fff" stroke-width="0.5"/>
      </g>
      <g id="Gruppe_47726" data-name="Gruppe 47726" transform="translate(197.934 -5.918)">
        <path id="Pfad_48374" data-name="Pfad 48374" d="M0,6.162v-17.5" transform="translate(0 11.339)" fill="none" stroke="#fff" stroke-width="0.5"/>
      </g>
      <g id="Gruppe_47727" data-name="Gruppe 47727" transform="translate(57.934 -58.417)">
        <path id="Pfad_48375" data-name="Pfad 48375" d="M0,4.621V-8.5" transform="translate(0 8.504)" fill="none" stroke="#519545" stroke-width="0.5"/>
      </g>
      <g id="Gruppe_47728" data-name="Gruppe 47728" transform="translate(92.934 -58.417)">
        <path id="Pfad_48376" data-name="Pfad 48376" d="M0,4.621V-8.5" transform="translate(0 8.504)" fill="none" stroke="#519545" stroke-width="0.5"/>
      </g>
      <g id="Gruppe_47729" data-name="Gruppe 47729" transform="translate(127.934 -58.417)">
        <path id="Pfad_48377" data-name="Pfad 48377" d="M0,4.621V-8.5" transform="translate(0 8.504)" fill="none" stroke="#519545" stroke-width="0.5"/>
      </g>
      <g id="Gruppe_47730" data-name="Gruppe 47730" transform="translate(162.934 -58.417)">
        <path id="Pfad_48378" data-name="Pfad 48378" d="M0,4.621V-8.5" transform="translate(0 8.504)" fill="none" stroke="#519545" stroke-width="0.5"/>
      </g>
      <g id="Gruppe_47731" data-name="Gruppe 47731" transform="translate(197.934 -58.417)">
        <path id="Pfad_48379" data-name="Pfad 48379" d="M0,4.621V-8.5" transform="translate(0 8.504)" fill="none" stroke="#519545" stroke-width="0.5"/>
      </g>
      <g id="Gruppe_47732" data-name="Gruppe 47732" transform="translate(57.934 -19.042)">
        <path id="Pfad_48380" data-name="Pfad 48380" d="M0,4.621V-8.5" transform="translate(0 8.504)" fill="none" stroke="#519545" stroke-width="0.5"/>
      </g>
      <g id="Gruppe_47733" data-name="Gruppe 47733" transform="translate(92.934 -19.042)">
        <path id="Pfad_48381" data-name="Pfad 48381" d="M0,4.621V-8.5" transform="translate(0 8.504)" fill="none" stroke="#519545" stroke-width="0.5"/>
      </g>
      <g id="Gruppe_47734" data-name="Gruppe 47734" transform="translate(127.934 -19.042)">
        <path id="Pfad_48382" data-name="Pfad 48382" d="M0,4.621V-8.5" transform="translate(0 8.504)" fill="none" stroke="#519545" stroke-width="0.5"/>
      </g>
      <g id="Gruppe_47735" data-name="Gruppe 47735" transform="translate(162.934 -19.042)">
        <path id="Pfad_48383" data-name="Pfad 48383" d="M0,4.621V-8.5" transform="translate(0 8.504)" fill="none" stroke="#519545" stroke-width="0.5"/>
      </g>
      <g id="Gruppe_47736" data-name="Gruppe 47736" transform="translate(197.934 -19.042)">
        <path id="Pfad_48384" data-name="Pfad 48384" d="M0,4.621V-8.5" transform="translate(0 8.504)" fill="none" stroke="#519545" stroke-width="0.5"/>
      </g>
      <g id="Gruppe" transform="translate(31.461 -56.74)">
        <text id="JAN" transform="translate(0 9)" fill="#2b2e34" font-size="9" font-family="BrandonGrotesque-Regular, Brandon Grotesque" letter-spacing="0.045em"><tspan x="0" y="0">JAN</tspan></text>
        <text id="FEB" transform="translate(35.773 9)" fill="#2b2e34" font-size="9" font-family="BrandonGrotesque-Regular, Brandon Grotesque" letter-spacing="-0.01em"><tspan x="0" y="0">FEB</tspan></text>
        <text id="MAR" transform="translate(68.925 9)" fill="#2b2e34" font-size="9" font-family="BrandonGrotesque-Regular, Brandon Grotesque" letter-spacing="-0.01em"><tspan x="0" y="0">MAR</tspan></text>
        <text id="APR" transform="translate(105.161 8)" fill="#2b2e34" font-size="8" font-family="BrandonGrotesque-Regular, Brandon Grotesque" letter-spacing="-0.01em"><tspan x="0" y="0">APR</tspan></text>
        <text id="M" transform="translate(139.601 8)" fill="#2b2e34" font-size="8" font-family="BrandonGrotesque-Regular, Brandon Grotesque" letter-spacing="-0.058em"><tspan x="0" y="0">M</tspan></text>
        <text id="AY" transform="translate(147.491 9)" fill="#2b2e34" font-size="9" font-family="BrandonGrotesque-Regular, Brandon Grotesque" letter-spacing="-0.058em"><tspan x="0" y="0">AY</tspan></text>
        <text id="JUN" transform="translate(175.281 8)" fill="#2b2e34" font-size="8" font-family="BrandonGrotesque-Regular, Brandon Grotesque" letter-spacing="-0.01em"><tspan x="0" y="0">JUN</tspan></text>
        <text id="JUL" transform="translate(1.083 48.375)" fill="#2b2e34" font-size="9" font-family="BrandonGrotesque-Regular, Brandon Grotesque" letter-spacing="0.045em"><tspan x="0" y="0">JUL</tspan></text>
        <text id="AUG" transform="translate(34.319 47.375)" fill="#2b2e34" font-size="8" font-family="BrandonGrotesque-Regular, Brandon Grotesque" letter-spacing="-0.017em"><tspan x="0" y="0">AUG</tspan></text>
        <text id="SEP" transform="translate(71.092 48.375)" fill="#2b2e34" font-size="9" font-family="BrandonGrotesque-Regular, Brandon Grotesque" letter-spacing="-0.01em"><tspan x="0" y="0">SEP</tspan></text>
        <text id="OCT" transform="translate(104.772 48.375)" fill="#2b2e34" font-size="9" font-family="BrandonGrotesque-Regular, Brandon Grotesque" letter-spacing="-0.01em"><tspan x="0" y="0">OCT</tspan></text>
        <text id="NOV" transform="translate(138.619 48.375)" fill="#2b2e34" font-size="9" font-family="BrandonGrotesque-Regular, Brandon Grotesque" letter-spacing="-0.014em"><tspan x="0" y="0">NOV</tspan></text>
        <text id="DEC" transform="translate(174.605 48.375)" fill="#2b2e34" font-size="9" font-family="BrandonGrotesque-Regular, Brandon Grotesque" letter-spacing="-0.013em"><tspan x="0" y="0">DEC</tspan></text>
      </g>
    </g>
  </g>
</svg>
