<svg xmlns="http://www.w3.org/2000/svg" width="211" height="70.001" viewBox="0 0 211 70.001">
  <g id="Gruppe_40685" data-name="Gruppe 40685" transform="translate(-22.434 58.417)">
    <path id="Pfad_39824" data-name="Pfad 39824" d="M22.934-49.913h35v17.5h-35Zm35,0h35v17.5h-35Zm35,0h35v17.5h-35Zm35,0h35v17.5h-35Zm35,0h35v17.5h-35Zm-35,39.375h35v17.5h-35Zm35,0h35v17.5h-35Zm35,0h35v17.5h-35Z" transform="translate(0 4.621)" fill="#519545"/>
    <path id="Pfad_39825" data-name="Pfad 39825" d="M197.934-49.913h35v17.5h-35Zm-175,39.375h35v17.5h-35Zm35,0h35v17.5h-35Zm35,0h35v17.5h-35Z" transform="translate(0 4.621)" fill="#bbd4b3"/>
    <g id="Gruppe_40658" data-name="Gruppe 40658" transform="translate(22.934 -58.417)">
      <path id="Pfad_39826" data-name="Pfad 39826" d="M0,4.621V-8.5" transform="translate(0 8.504)" fill="none" stroke="#fff" stroke-width="1"/>
    </g>
    <g id="Gruppe_40659" data-name="Gruppe 40659" transform="translate(22.934 -45.293)">
      <path id="Pfad_39827" data-name="Pfad 39827" d="M0,6.162v-17.5" transform="translate(0 11.339)" fill="none" stroke="#fff" stroke-width="1"/>
    </g>
    <g id="Gruppe_40660" data-name="Gruppe 40660" transform="translate(232.934 -45.293)">
      <path id="Pfad_39828" data-name="Pfad 39828" d="M0,6.162v-17.5" transform="translate(0 11.339)" fill="none" stroke="#fff" stroke-width="1"/>
    </g>
    <g id="Gruppe_40661" data-name="Gruppe 40661" transform="translate(22.934 -27.792)">
      <path id="Pfad_39829" data-name="Pfad 39829" d="M0,3.081v-8.75" transform="translate(0 5.669)" fill="none" stroke="#fff" stroke-width="1"/>
    </g>
    <g id="Gruppe_40662" data-name="Gruppe 40662" transform="translate(22.934 -19.042)">
      <path id="Pfad_39830" data-name="Pfad 39830" d="M0,4.621V-8.5" transform="translate(0 8.504)" fill="none" stroke="#fff" stroke-width="1"/>
    </g>
    <g id="Gruppe_40663" data-name="Gruppe 40663" transform="translate(22.934 -5.918)">
      <path id="Pfad_39831" data-name="Pfad 39831" d="M0,6.162v-17.5" transform="translate(0 11.339)" fill="none" stroke="#fff" stroke-width="1"/>
    </g>
    <g id="Gruppe_40664" data-name="Gruppe 40664" transform="translate(232.934 -5.918)">
      <path id="Pfad_39832" data-name="Pfad 39832" d="M0,6.162v-17.5" transform="translate(0 11.339)" fill="none" stroke="#fff" stroke-width="1"/>
    </g>
    <g id="Gruppe_40665" data-name="Gruppe 40665" transform="translate(57.934 -45.293)">
      <path id="Pfad_39833" data-name="Pfad 39833" d="M0,6.162v-17.5" transform="translate(0 11.339)" fill="none" stroke="#fff" stroke-width="0.5"/>
    </g>
    <g id="Gruppe_40666" data-name="Gruppe 40666" transform="translate(92.934 -45.293)">
      <path id="Pfad_39834" data-name="Pfad 39834" d="M0,6.162v-17.5" transform="translate(0 11.339)" fill="none" stroke="#fff" stroke-width="0.5"/>
    </g>
    <g id="Gruppe_40667" data-name="Gruppe 40667" transform="translate(127.934 -45.293)">
      <path id="Pfad_39835" data-name="Pfad 39835" d="M0,6.162v-17.5" transform="translate(0 11.339)" fill="none" stroke="#fff" stroke-width="0.5"/>
    </g>
    <g id="Gruppe_40668" data-name="Gruppe 40668" transform="translate(162.934 -45.293)">
      <path id="Pfad_39836" data-name="Pfad 39836" d="M0,6.162v-17.5" transform="translate(0 11.339)" fill="none" stroke="#fff" stroke-width="0.5"/>
    </g>
    <g id="Gruppe_40669" data-name="Gruppe 40669" transform="translate(197.934 -45.293)">
      <path id="Pfad_39837" data-name="Pfad 39837" d="M0,6.162v-17.5" transform="translate(0 11.339)" fill="none" stroke="#fff" stroke-width="0.5"/>
    </g>
    <g id="Gruppe_40670" data-name="Gruppe 40670" transform="translate(57.934 -5.918)">
      <path id="Pfad_39838" data-name="Pfad 39838" d="M0,6.162v-17.5" transform="translate(0 11.339)" fill="none" stroke="#fff" stroke-width="0.5"/>
    </g>
    <g id="Gruppe_40671" data-name="Gruppe 40671" transform="translate(92.934 -5.918)">
      <path id="Pfad_39839" data-name="Pfad 39839" d="M0,6.162v-17.5" transform="translate(0 11.339)" fill="none" stroke="#fff" stroke-width="0.5"/>
    </g>
    <g id="Gruppe_40672" data-name="Gruppe 40672" transform="translate(127.934 -5.918)">
      <path id="Pfad_39840" data-name="Pfad 39840" d="M0,6.162v-17.5" transform="translate(0 11.339)" fill="none" stroke="#fff" stroke-width="0.5"/>
    </g>
    <g id="Gruppe_40673" data-name="Gruppe 40673" transform="translate(162.934 -5.918)">
      <path id="Pfad_39841" data-name="Pfad 39841" d="M0,6.162v-17.5" transform="translate(0 11.339)" fill="none" stroke="#fff" stroke-width="0.5"/>
    </g>
    <g id="Gruppe_40674" data-name="Gruppe 40674" transform="translate(197.934 -5.918)">
      <path id="Pfad_39842" data-name="Pfad 39842" d="M0,6.162v-17.5" transform="translate(0 11.339)" fill="none" stroke="#fff" stroke-width="0.5"/>
    </g>
    <g id="Gruppe_40675" data-name="Gruppe 40675" transform="translate(57.934 -58.417)">
      <path id="Pfad_39843" data-name="Pfad 39843" d="M0,4.621V-8.5" transform="translate(0 8.504)" fill="none" stroke="#519545" stroke-width="0.5"/>
    </g>
    <g id="Gruppe_40676" data-name="Gruppe 40676" transform="translate(92.934 -58.417)">
      <path id="Pfad_39844" data-name="Pfad 39844" d="M0,4.621V-8.5" transform="translate(0 8.504)" fill="none" stroke="#519545" stroke-width="0.5"/>
    </g>
    <g id="Gruppe_40677" data-name="Gruppe 40677" transform="translate(127.934 -58.417)">
      <path id="Pfad_39845" data-name="Pfad 39845" d="M0,4.621V-8.5" transform="translate(0 8.504)" fill="none" stroke="#519545" stroke-width="0.5"/>
    </g>
    <g id="Gruppe_40678" data-name="Gruppe 40678" transform="translate(162.934 -58.417)">
      <path id="Pfad_39846" data-name="Pfad 39846" d="M0,4.621V-8.5" transform="translate(0 8.504)" fill="none" stroke="#519545" stroke-width="0.5"/>
    </g>
    <g id="Gruppe_40679" data-name="Gruppe 40679" transform="translate(197.934 -58.417)">
      <path id="Pfad_39847" data-name="Pfad 39847" d="M0,4.621V-8.5" transform="translate(0 8.504)" fill="none" stroke="#519545" stroke-width="0.5"/>
    </g>
    <g id="Gruppe_40680" data-name="Gruppe 40680" transform="translate(57.934 -19.042)">
      <path id="Pfad_39848" data-name="Pfad 39848" d="M0,4.621V-8.5" transform="translate(0 8.504)" fill="none" stroke="#519545" stroke-width="0.5"/>
    </g>
    <g id="Gruppe_40681" data-name="Gruppe 40681" transform="translate(92.934 -19.042)">
      <path id="Pfad_39849" data-name="Pfad 39849" d="M0,4.621V-8.5" transform="translate(0 8.504)" fill="none" stroke="#519545" stroke-width="0.5"/>
    </g>
    <g id="Gruppe_40682" data-name="Gruppe 40682" transform="translate(127.934 -19.042)">
      <path id="Pfad_39850" data-name="Pfad 39850" d="M0,4.621V-8.5" transform="translate(0 8.504)" fill="none" stroke="#519545" stroke-width="0.5"/>
    </g>
    <g id="Gruppe_40683" data-name="Gruppe 40683" transform="translate(162.934 -19.042)">
      <path id="Pfad_39851" data-name="Pfad 39851" d="M0,4.621V-8.5" transform="translate(0 8.504)" fill="none" stroke="#519545" stroke-width="0.5"/>
    </g>
    <g id="Gruppe_40684" data-name="Gruppe 40684" transform="translate(197.934 -19.042)">
      <path id="Pfad_39852" data-name="Pfad 39852" d="M0,4.621V-8.5" transform="translate(0 8.504)" fill="none" stroke="#519545" stroke-width="0.5"/>
    </g>
    <g id="Gruppe" transform="translate(31.461 -56.74)">
      <text id="JAN" transform="translate(0 9)" fill="#2b2e34" font-size="9" font-family="BrandonGrotesque-Regular, Brandon Grotesque" letter-spacing="0.045em"><tspan x="0" y="0">JAN</tspan></text>
      <text id="FEB" transform="translate(35.773 9)" fill="#2b2e34" font-size="9" font-family="BrandonGrotesque-Regular, Brandon Grotesque" letter-spacing="-0.01em"><tspan x="0" y="0">FEB</tspan></text>
      <text id="MAR" transform="translate(68.925 9)" fill="#2b2e34" font-size="9" font-family="BrandonGrotesque-Regular, Brandon Grotesque" letter-spacing="-0.01em"><tspan x="0" y="0">MAR</tspan></text>
      <text id="APR" transform="translate(105.161 8)" fill="#2b2e34" font-size="8" font-family="BrandonGrotesque-Regular, Brandon Grotesque" letter-spacing="-0.01em"><tspan x="0" y="0">APR</tspan></text>
      <text id="M" transform="translate(139.601 8)" fill="#2b2e34" font-size="8" font-family="BrandonGrotesque-Regular, Brandon Grotesque" letter-spacing="-0.058em"><tspan x="0" y="0">M</tspan></text>
      <text id="AY" transform="translate(147.491 9)" fill="#2b2e34" font-size="9" font-family="BrandonGrotesque-Regular, Brandon Grotesque" letter-spacing="-0.058em"><tspan x="0" y="0">AY</tspan></text>
      <text id="JUN" transform="translate(175.281 8)" fill="#2b2e34" font-size="8" font-family="BrandonGrotesque-Regular, Brandon Grotesque" letter-spacing="-0.01em"><tspan x="0" y="0">JUN</tspan></text>
      <text id="JUL" transform="translate(1.083 48.375)" fill="#2b2e34" font-size="9" font-family="BrandonGrotesque-Regular, Brandon Grotesque" letter-spacing="0.045em"><tspan x="0" y="0">JUL</tspan></text>
      <text id="AUG" transform="translate(34.319 47.375)" fill="#2b2e34" font-size="8" font-family="BrandonGrotesque-Regular, Brandon Grotesque" letter-spacing="-0.017em"><tspan x="0" y="0">AUG</tspan></text>
      <text id="SEP" transform="translate(71.092 48.375)" fill="#2b2e34" font-size="9" font-family="BrandonGrotesque-Regular, Brandon Grotesque" letter-spacing="-0.01em"><tspan x="0" y="0">SEP</tspan></text>
      <text id="OCT" transform="translate(104.772 48.375)" fill="#2b2e34" font-size="9" font-family="BrandonGrotesque-Regular, Brandon Grotesque" letter-spacing="-0.01em"><tspan x="0" y="0">OCT</tspan></text>
      <text id="NOV" transform="translate(138.619 48.375)" fill="#2b2e34" font-size="9" font-family="BrandonGrotesque-Regular, Brandon Grotesque" letter-spacing="-0.014em"><tspan x="0" y="0">NOV</tspan></text>
      <text id="DEC" transform="translate(174.605 48.375)" fill="#2b2e34" font-size="9" font-family="BrandonGrotesque-Regular, Brandon Grotesque" letter-spacing="-0.013em"><tspan x="0" y="0">DEC</tspan></text>
    </g>
  </g>
</svg>
