<svg xmlns="http://www.w3.org/2000/svg" width="210.88" height="69.961" viewBox="0 0 210.88 69.961">
  <g id="Gruppe_47989" data-name="Gruppe 47989" transform="translate(-22.434 58.417)">
    <path id="Pfad_48614" data-name="Pfad 48614" d="M22.934-49.913h34.98v17.491H22.934Zm34.98,0h34.98v17.491H57.914Zm34.98,0h34.98v17.491H92.894Zm34.981,0h34.98v17.491h-34.98Zm34.98,0h34.98v17.491h-34.98Zm34.98,0h34.98v17.491h-34.98ZM22.934-10.56h34.98V6.93H22.934Zm34.98,0h34.98V6.93H57.914Zm34.98,0h34.98V6.93H92.894Zm34.981,0h34.98V6.93h-34.98Zm34.98,0h34.98V6.93h-34.98Zm34.98,0h34.98V6.93h-34.98Z" transform="translate(0 4.614)" fill="#519545"/>
    <g id="Gruppe_47962" data-name="Gruppe 47962" transform="translate(22.934 -58.417)">
      <path id="Pfad_48615" data-name="Pfad 48615" d="M0,4.614V-8.5" transform="translate(0 8.504)" fill="none" stroke="#fff" stroke-width="1"/>
    </g>
    <g id="Gruppe_47963" data-name="Gruppe 47963" transform="translate(22.934 -45.3)">
      <path id="Pfad_48616" data-name="Pfad 48616" d="M0,6.152V-11.339" transform="translate(0 11.339)" fill="none" stroke="#fff" stroke-width="1"/>
    </g>
    <g id="Gruppe_47964" data-name="Gruppe 47964" transform="translate(232.814 -45.3)">
      <path id="Pfad_48617" data-name="Pfad 48617" d="M0,6.152V-11.339" transform="translate(0 11.339)" fill="none" stroke="#fff" stroke-width="1"/>
    </g>
    <g id="Gruppe_47965" data-name="Gruppe 47965" transform="translate(22.934 -27.809)">
      <path id="Pfad_48618" data-name="Pfad 48618" d="M0,3.076V-5.669" transform="translate(0 5.669)" fill="none" stroke="#fff" stroke-width="1"/>
    </g>
    <g id="Gruppe_47966" data-name="Gruppe 47966" transform="translate(22.934 -19.065)">
      <path id="Pfad_48619" data-name="Pfad 48619" d="M0,4.614V-8.5" transform="translate(0 8.504)" fill="none" stroke="#fff" stroke-width="1"/>
    </g>
    <g id="Gruppe_47967" data-name="Gruppe 47967" transform="translate(22.934 -5.948)">
      <path id="Pfad_48620" data-name="Pfad 48620" d="M0,6.152V-11.339" transform="translate(0 11.339)" fill="none" stroke="#fff" stroke-width="1"/>
    </g>
    <g id="Gruppe_47968" data-name="Gruppe 47968" transform="translate(232.814 -5.948)">
      <path id="Pfad_48621" data-name="Pfad 48621" d="M0,6.152V-11.339" transform="translate(0 11.339)" fill="none" stroke="#fff" stroke-width="1"/>
    </g>
    <g id="Gruppe_47969" data-name="Gruppe 47969" transform="translate(57.914 -45.3)">
      <path id="Pfad_48622" data-name="Pfad 48622" d="M0,6.152V-11.339" transform="translate(0 11.339)" fill="none" stroke="#fff" stroke-width="0.5"/>
    </g>
    <g id="Gruppe_47970" data-name="Gruppe 47970" transform="translate(92.894 -45.3)">
      <path id="Pfad_48623" data-name="Pfad 48623" d="M0,6.152V-11.339" transform="translate(0 11.339)" fill="none" stroke="#fff" stroke-width="0.5"/>
    </g>
    <g id="Gruppe_47971" data-name="Gruppe 47971" transform="translate(127.874 -45.3)">
      <path id="Pfad_48624" data-name="Pfad 48624" d="M0,6.152V-11.339" transform="translate(0 11.339)" fill="none" stroke="#fff" stroke-width="0.5"/>
    </g>
    <g id="Gruppe_47972" data-name="Gruppe 47972" transform="translate(162.854 -45.3)">
      <path id="Pfad_48625" data-name="Pfad 48625" d="M0,6.152V-11.339" transform="translate(0 11.339)" fill="none" stroke="#fff" stroke-width="0.5"/>
    </g>
    <g id="Gruppe_47973" data-name="Gruppe 47973" transform="translate(197.834 -45.3)">
      <path id="Pfad_48626" data-name="Pfad 48626" d="M0,6.152V-11.339" transform="translate(0 11.339)" fill="none" stroke="#fff" stroke-width="0.5"/>
    </g>
    <g id="Gruppe_47974" data-name="Gruppe 47974" transform="translate(57.914 -5.948)">
      <path id="Pfad_48627" data-name="Pfad 48627" d="M0,6.152V-11.339" transform="translate(0 11.339)" fill="none" stroke="#fff" stroke-width="0.5"/>
    </g>
    <g id="Gruppe_47975" data-name="Gruppe 47975" transform="translate(92.894 -5.948)">
      <path id="Pfad_48628" data-name="Pfad 48628" d="M0,6.152V-11.339" transform="translate(0 11.339)" fill="none" stroke="#fff" stroke-width="0.5"/>
    </g>
    <g id="Gruppe_47976" data-name="Gruppe 47976" transform="translate(127.874 -5.948)">
      <path id="Pfad_48629" data-name="Pfad 48629" d="M0,6.152V-11.339" transform="translate(0 11.339)" fill="none" stroke="#fff" stroke-width="0.5"/>
    </g>
    <g id="Gruppe_47977" data-name="Gruppe 47977" transform="translate(162.854 -5.948)">
      <path id="Pfad_48630" data-name="Pfad 48630" d="M0,6.152V-11.339" transform="translate(0 11.339)" fill="none" stroke="#fff" stroke-width="0.5"/>
    </g>
    <g id="Gruppe_47978" data-name="Gruppe 47978" transform="translate(197.834 -5.948)">
      <path id="Pfad_48631" data-name="Pfad 48631" d="M0,6.152V-11.339" transform="translate(0 11.339)" fill="none" stroke="#fff" stroke-width="0.5"/>
    </g>
    <g id="Gruppe_47979" data-name="Gruppe 47979" transform="translate(57.914 -58.417)">
      <path id="Pfad_48632" data-name="Pfad 48632" d="M0,4.614V-8.5" transform="translate(0 8.504)" fill="none" stroke="#519545" stroke-width="0.5"/>
    </g>
    <g id="Gruppe_47980" data-name="Gruppe 47980" transform="translate(92.894 -58.417)">
      <path id="Pfad_48633" data-name="Pfad 48633" d="M0,4.614V-8.5" transform="translate(0 8.504)" fill="none" stroke="#519545" stroke-width="0.5"/>
    </g>
    <g id="Gruppe_47981" data-name="Gruppe 47981" transform="translate(127.874 -58.417)">
      <path id="Pfad_48634" data-name="Pfad 48634" d="M0,4.614V-8.5" transform="translate(0 8.504)" fill="none" stroke="#519545" stroke-width="0.5"/>
    </g>
    <g id="Gruppe_47982" data-name="Gruppe 47982" transform="translate(162.854 -58.417)">
      <path id="Pfad_48635" data-name="Pfad 48635" d="M0,4.614V-8.5" transform="translate(0 8.504)" fill="none" stroke="#519545" stroke-width="0.5"/>
    </g>
    <g id="Gruppe_47983" data-name="Gruppe 47983" transform="translate(197.834 -58.417)">
      <path id="Pfad_48636" data-name="Pfad 48636" d="M0,4.614V-8.5" transform="translate(0 8.504)" fill="none" stroke="#519545" stroke-width="0.5"/>
    </g>
    <g id="Gruppe_47984" data-name="Gruppe 47984" transform="translate(57.914 -19.065)">
      <path id="Pfad_48637" data-name="Pfad 48637" d="M0,4.614V-8.5" transform="translate(0 8.504)" fill="none" stroke="#519545" stroke-width="0.5"/>
    </g>
    <g id="Gruppe_47985" data-name="Gruppe 47985" transform="translate(92.894 -19.065)">
      <path id="Pfad_48638" data-name="Pfad 48638" d="M0,4.614V-8.5" transform="translate(0 8.504)" fill="none" stroke="#519545" stroke-width="0.5"/>
    </g>
    <g id="Gruppe_47986" data-name="Gruppe 47986" transform="translate(127.874 -19.065)">
      <path id="Pfad_48639" data-name="Pfad 48639" d="M0,4.614V-8.5" transform="translate(0 8.504)" fill="none" stroke="#519545" stroke-width="0.5"/>
    </g>
    <g id="Gruppe_47987" data-name="Gruppe 47987" transform="translate(162.854 -19.065)">
      <path id="Pfad_48640" data-name="Pfad 48640" d="M0,4.614V-8.5" transform="translate(0 8.504)" fill="none" stroke="#519545" stroke-width="0.5"/>
    </g>
    <g id="Gruppe_47988" data-name="Gruppe 47988" transform="translate(197.834 -19.065)">
      <path id="Pfad_48641" data-name="Pfad 48641" d="M0,4.614V-8.5" transform="translate(0 8.504)" fill="none" stroke="#519545" stroke-width="0.5"/>
    </g>
    <g id="Gruppe" transform="translate(31.456 -56.741)">
      <text id="JAN" transform="translate(0 9)" fill="#2b2e34" font-size="9" font-family="BrandonGrotesque-Regular, Brandon Grotesque" letter-spacing="0.045em"><tspan x="0" y="0">JAN</tspan></text>
      <text id="FEB" transform="translate(35.753 9)" fill="#2b2e34" font-size="9" font-family="BrandonGrotesque-Regular, Brandon Grotesque" letter-spacing="-0.01em"><tspan x="0" y="0">FEB</tspan></text>
      <text id="MAR" transform="translate(68.886 9)" fill="#2b2e34" font-size="9" font-family="BrandonGrotesque-Regular, Brandon Grotesque" letter-spacing="-0.01em"><tspan x="0" y="0">MAR</tspan></text>
      <text id="APR" transform="translate(105.101 8)" fill="#2b2e34" font-size="8" font-family="BrandonGrotesque-Regular, Brandon Grotesque" letter-spacing="-0.01em"><tspan x="0" y="0">APR</tspan></text>
      <text id="M" transform="translate(139.521 8)" fill="#2b2e34" font-size="8" font-family="BrandonGrotesque-Regular, Brandon Grotesque" letter-spacing="-0.058em"><tspan x="0" y="0">M</tspan></text>
      <text id="AY" transform="translate(147.407 9)" fill="#2b2e34" font-size="9" font-family="BrandonGrotesque-Regular, Brandon Grotesque" letter-spacing="-0.058em"><tspan x="0" y="0">AY</tspan></text>
      <text id="JUN" transform="translate(175.181 8)" fill="#2b2e34" font-size="8" font-family="BrandonGrotesque-Regular, Brandon Grotesque" letter-spacing="-0.01em"><tspan x="0" y="0">JUN</tspan></text>
      <text id="JUL" transform="translate(1.083 48.353)" fill="#2b2e34" font-size="9" font-family="BrandonGrotesque-Regular, Brandon Grotesque" letter-spacing="0.045em"><tspan x="0" y="0">JUL</tspan></text>
      <text id="AUG" transform="translate(34.3 47.353)" fill="#2b2e34" font-size="8" font-family="BrandonGrotesque-Regular, Brandon Grotesque" letter-spacing="-0.017em"><tspan x="0" y="0">AUG</tspan></text>
      <text id="SEP" transform="translate(71.052 48.353)" fill="#2b2e34" font-size="9" font-family="BrandonGrotesque-Regular, Brandon Grotesque" letter-spacing="-0.01em"><tspan x="0" y="0">SEP</tspan></text>
      <text id="OCT" transform="translate(104.713 48.353)" fill="#2b2e34" font-size="9" font-family="BrandonGrotesque-Regular, Brandon Grotesque" letter-spacing="-0.01em"><tspan x="0" y="0">OCT</tspan></text>
      <text id="NOV" transform="translate(138.54 48.353)" fill="#2b2e34" font-size="9" font-family="BrandonGrotesque-Regular, Brandon Grotesque" letter-spacing="-0.014em"><tspan x="0" y="0">NOV</tspan></text>
      <text id="DEC" transform="translate(174.506 48.353)" fill="#2b2e34" font-size="9" font-family="BrandonGrotesque-Regular, Brandon Grotesque" letter-spacing="-0.013em"><tspan x="0" y="0">DEC</tspan></text>
    </g>
  </g>
</svg>
