<svg xmlns="http://www.w3.org/2000/svg" width="211.5" height="70.168" viewBox="0 0 211.5 70.168">
  <g id="Gruppe_48017" data-name="Gruppe 48017" transform="translate(-22.434 58.417)">
    <path id="Pfad_48642" data-name="Pfad 48642" d="M22.934-49.913H58.017v17.542H22.934Zm35.083,0H93.1v17.542H58.017Zm35.083,0h35.083v17.542H93.1Zm35.085,0h35.083v17.542H128.185Zm35.083,0h35.083v17.542H163.268Zm35.083,0h35.083v17.542H198.351ZM128.185-10.444h35.083V7.1H128.185Zm35.083,0h35.083V7.1H163.268Zm35.083,0h35.083V7.1H198.351Z" transform="translate(0 4.652)" fill="#519545"/>
    <path id="Pfad_48643" data-name="Pfad 48643" d="M22.934-24.4H58.017V-6.859H22.934Zm35.083,0H93.1V-6.859H58.017Zm35.083,0h35.083V-6.859H93.1Z" transform="translate(0 18.609)" fill="#bbd4b3"/>
    <g id="Gruppe_47990" data-name="Gruppe 47990" transform="translate(22.934 -58.417)">
      <path id="Pfad_48644" data-name="Pfad 48644" d="M0,4.652V-8.5" transform="translate(0 8.504)" fill="none" stroke="#fff" stroke-width="1"/>
    </g>
    <g id="Gruppe_47991" data-name="Gruppe 47991" transform="translate(22.934 -45.261)">
      <path id="Pfad_48645" data-name="Pfad 48645" d="M0,6.2V-11.339" transform="translate(0 11.339)" fill="none" stroke="#fff" stroke-width="1"/>
    </g>
    <g id="Gruppe_47992" data-name="Gruppe 47992" transform="translate(233.434 -45.261)">
      <path id="Pfad_48646" data-name="Pfad 48646" d="M0,6.2V-11.339" transform="translate(0 11.339)" fill="none" stroke="#fff" stroke-width="1"/>
    </g>
    <g id="Gruppe_47993" data-name="Gruppe 47993" transform="translate(22.934 -27.719)">
      <path id="Pfad_48647" data-name="Pfad 48647" d="M0,3.1v-8.77" transform="translate(0 5.669)" fill="none" stroke="#fff" stroke-width="1"/>
    </g>
    <g id="Gruppe_47994" data-name="Gruppe 47994" transform="translate(22.934 -18.948)">
      <path id="Pfad_48648" data-name="Pfad 48648" d="M0,4.652V-8.5" transform="translate(0 8.504)" fill="none" stroke="#fff" stroke-width="1"/>
    </g>
    <g id="Gruppe_47995" data-name="Gruppe 47995" transform="translate(22.934 -5.793)">
      <path id="Pfad_48649" data-name="Pfad 48649" d="M0,6.2V-11.339" transform="translate(0 11.339)" fill="none" stroke="#fff" stroke-width="1"/>
    </g>
    <g id="Gruppe_47996" data-name="Gruppe 47996" transform="translate(233.434 -5.793)">
      <path id="Pfad_48650" data-name="Pfad 48650" d="M0,6.2V-11.339" transform="translate(0 11.339)" fill="none" stroke="#fff" stroke-width="1"/>
    </g>
    <g id="Gruppe_47997" data-name="Gruppe 47997" transform="translate(58.017 -45.261)">
      <path id="Pfad_48651" data-name="Pfad 48651" d="M0,6.2V-11.339" transform="translate(0 11.339)" fill="none" stroke="#fff" stroke-width="0.5"/>
    </g>
    <g id="Gruppe_47998" data-name="Gruppe 47998" transform="translate(93.101 -45.261)">
      <path id="Pfad_48652" data-name="Pfad 48652" d="M0,6.2V-11.339" transform="translate(0 11.339)" fill="none" stroke="#fff" stroke-width="0.5"/>
    </g>
    <g id="Gruppe_47999" data-name="Gruppe 47999" transform="translate(128.184 -45.261)">
      <path id="Pfad_48653" data-name="Pfad 48653" d="M0,6.2V-11.339" transform="translate(0 11.339)" fill="none" stroke="#fff" stroke-width="0.5"/>
    </g>
    <g id="Gruppe_48000" data-name="Gruppe 48000" transform="translate(163.268 -45.261)">
      <path id="Pfad_48654" data-name="Pfad 48654" d="M0,6.2V-11.339" transform="translate(0 11.339)" fill="none" stroke="#fff" stroke-width="0.5"/>
    </g>
    <g id="Gruppe_48001" data-name="Gruppe 48001" transform="translate(198.351 -45.261)">
      <path id="Pfad_48655" data-name="Pfad 48655" d="M0,6.2V-11.339" transform="translate(0 11.339)" fill="none" stroke="#fff" stroke-width="0.5"/>
    </g>
    <g id="Gruppe_48002" data-name="Gruppe 48002" transform="translate(58.017 -5.793)">
      <path id="Pfad_48656" data-name="Pfad 48656" d="M0,6.2V-11.339" transform="translate(0 11.339)" fill="none" stroke="#fff" stroke-width="0.5"/>
    </g>
    <g id="Gruppe_48003" data-name="Gruppe 48003" transform="translate(93.101 -5.793)">
      <path id="Pfad_48657" data-name="Pfad 48657" d="M0,6.2V-11.339" transform="translate(0 11.339)" fill="none" stroke="#fff" stroke-width="0.5"/>
    </g>
    <g id="Gruppe_48004" data-name="Gruppe 48004" transform="translate(128.184 -5.793)">
      <path id="Pfad_48658" data-name="Pfad 48658" d="M0,6.2V-11.339" transform="translate(0 11.339)" fill="none" stroke="#fff" stroke-width="0.5"/>
    </g>
    <g id="Gruppe_48005" data-name="Gruppe 48005" transform="translate(163.268 -5.793)">
      <path id="Pfad_48659" data-name="Pfad 48659" d="M0,6.2V-11.339" transform="translate(0 11.339)" fill="none" stroke="#fff" stroke-width="0.5"/>
    </g>
    <g id="Gruppe_48006" data-name="Gruppe 48006" transform="translate(198.351 -5.793)">
      <path id="Pfad_48660" data-name="Pfad 48660" d="M0,6.2V-11.339" transform="translate(0 11.339)" fill="none" stroke="#fff" stroke-width="0.5"/>
    </g>
    <g id="Gruppe_48007" data-name="Gruppe 48007" transform="translate(58.017 -58.417)">
      <path id="Pfad_48661" data-name="Pfad 48661" d="M0,4.652V-8.5" transform="translate(0 8.504)" fill="none" stroke="#519545" stroke-width="0.5"/>
    </g>
    <g id="Gruppe_48008" data-name="Gruppe 48008" transform="translate(93.101 -58.417)">
      <path id="Pfad_48662" data-name="Pfad 48662" d="M0,4.652V-8.5" transform="translate(0 8.504)" fill="none" stroke="#519545" stroke-width="0.5"/>
    </g>
    <g id="Gruppe_48009" data-name="Gruppe 48009" transform="translate(128.184 -58.417)">
      <path id="Pfad_48663" data-name="Pfad 48663" d="M0,4.652V-8.5" transform="translate(0 8.504)" fill="none" stroke="#519545" stroke-width="0.5"/>
    </g>
    <g id="Gruppe_48010" data-name="Gruppe 48010" transform="translate(163.268 -58.417)">
      <path id="Pfad_48664" data-name="Pfad 48664" d="M0,4.652V-8.5" transform="translate(0 8.504)" fill="none" stroke="#519545" stroke-width="0.5"/>
    </g>
    <g id="Gruppe_48011" data-name="Gruppe 48011" transform="translate(198.351 -58.417)">
      <path id="Pfad_48665" data-name="Pfad 48665" d="M0,4.652V-8.5" transform="translate(0 8.504)" fill="none" stroke="#519545" stroke-width="0.5"/>
    </g>
    <g id="Gruppe_48012" data-name="Gruppe 48012" transform="translate(58.017 -18.948)">
      <path id="Pfad_48666" data-name="Pfad 48666" d="M0,4.652V-8.5" transform="translate(0 8.504)" fill="none" stroke="#519545" stroke-width="0.5"/>
    </g>
    <g id="Gruppe_48013" data-name="Gruppe 48013" transform="translate(93.101 -18.948)">
      <path id="Pfad_48667" data-name="Pfad 48667" d="M0,4.652V-8.5" transform="translate(0 8.504)" fill="none" stroke="#519545" stroke-width="0.5"/>
    </g>
    <g id="Gruppe_48014" data-name="Gruppe 48014" transform="translate(128.184 -18.948)">
      <path id="Pfad_48668" data-name="Pfad 48668" d="M0,4.652V-8.5" transform="translate(0 8.504)" fill="none" stroke="#519545" stroke-width="0.5"/>
    </g>
    <g id="Gruppe_48015" data-name="Gruppe 48015" transform="translate(163.268 -18.948)">
      <path id="Pfad_48669" data-name="Pfad 48669" d="M0,4.652V-8.5" transform="translate(0 8.504)" fill="none" stroke="#519545" stroke-width="0.5"/>
    </g>
    <g id="Gruppe_48016" data-name="Gruppe 48016" transform="translate(198.351 -18.948)">
      <path id="Pfad_48670" data-name="Pfad 48670" d="M0,4.652V-8.5" transform="translate(0 8.504)" fill="none" stroke="#519545" stroke-width="0.5"/>
    </g>
    <g id="Gruppe" transform="translate(31.481 -56.736)">
      <text id="JAN" transform="translate(0 9)" fill="#2b2e34" font-size="9" font-family="BrandonGrotesque-Regular, Brandon Grotesque" letter-spacing="0.045em"><tspan x="0" y="0">JAN</tspan></text>
      <text id="FEB" transform="translate(35.858 9)" fill="#2b2e34" font-size="9" font-family="BrandonGrotesque-Regular, Brandon Grotesque" letter-spacing="-0.01em"><tspan x="0" y="0">FEB</tspan></text>
      <text id="MAR" transform="translate(69.089 9)" fill="#2b2e34" font-size="9" font-family="BrandonGrotesque-Regular, Brandon Grotesque" letter-spacing="-0.01em"><tspan x="0" y="0">MAR</tspan></text>
      <text id="APR" transform="translate(105.412 9)" fill="#2b2e34" font-size="9" font-family="BrandonGrotesque-Regular, Brandon Grotesque" letter-spacing="-0.01em"><tspan x="0" y="0">APR</tspan></text>
      <text id="M" transform="translate(139.933 8)" fill="#2b2e34" font-size="8" font-family="BrandonGrotesque-Regular, Brandon Grotesque" letter-spacing="-0.058em"><tspan x="0" y="0">M</tspan></text>
      <text id="AY" transform="translate(147.842 9)" fill="#2b2e34" font-size="9" font-family="BrandonGrotesque-Regular, Brandon Grotesque" letter-spacing="-0.058em"><tspan x="0" y="0">AY</tspan></text>
      <text id="JUN" transform="translate(175.699 9)" fill="#2b2e34" font-size="9" font-family="BrandonGrotesque-Regular, Brandon Grotesque" letter-spacing="-0.01em"><tspan x="0" y="0">JUN</tspan></text>
      <text id="JUL" transform="translate(1.086 48.469)" fill="#2b2e34" font-size="9" font-family="BrandonGrotesque-Regular, Brandon Grotesque" letter-spacing="0.045em"><tspan x="0" y="0">JUL</tspan></text>
      <text id="AUG" transform="translate(34.401 47.469)" fill="#2b2e34" font-size="8" font-family="BrandonGrotesque-Regular, Brandon Grotesque" letter-spacing="-0.017em"><tspan x="0" y="0">AUG</tspan></text>
      <text id="SEP" transform="translate(71.262 48.469)" fill="#2b2e34" font-size="9" font-family="BrandonGrotesque-Regular, Brandon Grotesque" letter-spacing="-0.01em"><tspan x="0" y="0">SEP</tspan></text>
      <text id="OCT" transform="translate(105.022 48.469)" fill="#2b2e34" font-size="9" font-family="BrandonGrotesque-Regular, Brandon Grotesque" letter-spacing="-0.01em"><tspan x="0" y="0">OCT</tspan></text>
      <text id="NOV" transform="translate(138.949 48.469)" fill="#2b2e34" font-size="9" font-family="BrandonGrotesque-Regular, Brandon Grotesque" letter-spacing="-0.014em"><tspan x="0" y="0">NOV</tspan></text>
      <text id="DEC" transform="translate(175.021 48.469)" fill="#2b2e34" font-size="9" font-family="BrandonGrotesque-Regular, Brandon Grotesque" letter-spacing="-0.013em"><tspan x="0" y="0">DEC</tspan></text>
    </g>
  </g>
</svg>
