<svg xmlns="http://www.w3.org/2000/svg" width="210.88" height="69.961" viewBox="0 0 210.88 69.961">
  <g id="Gruppe_48045" data-name="Gruppe 48045" transform="translate(-22.434 58.417)">
    <path id="Pfad_48671" data-name="Pfad 48671" d="M22.934-49.913h34.98v17.491H22.934Zm34.98,0h34.98v17.491H57.914Zm34.98,0h34.98v17.491H92.894Zm34.981,0h34.98v17.491h-34.98Zm0,39.353h34.98V6.93h-34.98Zm34.98,0h34.98V6.93h-34.98Zm34.98,0h34.98V6.93h-34.98Z" transform="translate(0 4.614)" fill="#519545"/>
    <path id="Pfad_48672" data-name="Pfad 48672" d="M162.855-49.913h34.98v17.491h-34.98Zm34.98,0h34.98v17.491h-34.98ZM22.934-10.56h34.98V6.93H22.934Zm34.98,0h34.98V6.93H57.914Zm34.98,0h34.98V6.93H92.894Z" transform="translate(0 4.614)" fill="#bbd4b3"/>
    <g id="Gruppe_48018" data-name="Gruppe 48018" transform="translate(22.934 -58.417)">
      <path id="Pfad_48673" data-name="Pfad 48673" d="M0,4.614V-8.5" transform="translate(0 8.504)" fill="none" stroke="#fff" stroke-width="1"/>
    </g>
    <g id="Gruppe_48019" data-name="Gruppe 48019" transform="translate(22.934 -45.3)">
      <path id="Pfad_48674" data-name="Pfad 48674" d="M0,6.152V-11.339" transform="translate(0 11.339)" fill="none" stroke="#fff" stroke-width="1"/>
    </g>
    <g id="Gruppe_48020" data-name="Gruppe 48020" transform="translate(232.814 -45.3)">
      <path id="Pfad_48675" data-name="Pfad 48675" d="M0,6.152V-11.339" transform="translate(0 11.339)" fill="none" stroke="#fff" stroke-width="1"/>
    </g>
    <g id="Gruppe_48021" data-name="Gruppe 48021" transform="translate(22.934 -27.809)">
      <path id="Pfad_48676" data-name="Pfad 48676" d="M0,3.076V-5.669" transform="translate(0 5.669)" fill="none" stroke="#fff" stroke-width="1"/>
    </g>
    <g id="Gruppe_48022" data-name="Gruppe 48022" transform="translate(22.934 -19.065)">
      <path id="Pfad_48677" data-name="Pfad 48677" d="M0,4.614V-8.5" transform="translate(0 8.504)" fill="none" stroke="#fff" stroke-width="1"/>
    </g>
    <g id="Gruppe_48023" data-name="Gruppe 48023" transform="translate(22.934 -5.948)">
      <path id="Pfad_48678" data-name="Pfad 48678" d="M0,6.152V-11.339" transform="translate(0 11.339)" fill="none" stroke="#fff" stroke-width="1"/>
    </g>
    <g id="Gruppe_48024" data-name="Gruppe 48024" transform="translate(232.814 -5.948)">
      <path id="Pfad_48679" data-name="Pfad 48679" d="M0,6.152V-11.339" transform="translate(0 11.339)" fill="none" stroke="#fff" stroke-width="1"/>
    </g>
    <g id="Gruppe_48025" data-name="Gruppe 48025" transform="translate(57.914 -45.3)">
      <path id="Pfad_48680" data-name="Pfad 48680" d="M0,6.152V-11.339" transform="translate(0 11.339)" fill="none" stroke="#fff" stroke-width="0.5"/>
    </g>
    <g id="Gruppe_48026" data-name="Gruppe 48026" transform="translate(92.894 -45.3)">
      <path id="Pfad_48681" data-name="Pfad 48681" d="M0,6.152V-11.339" transform="translate(0 11.339)" fill="none" stroke="#fff" stroke-width="0.5"/>
    </g>
    <g id="Gruppe_48027" data-name="Gruppe 48027" transform="translate(127.874 -45.3)">
      <path id="Pfad_48682" data-name="Pfad 48682" d="M0,6.152V-11.339" transform="translate(0 11.339)" fill="none" stroke="#fff" stroke-width="0.5"/>
    </g>
    <g id="Gruppe_48028" data-name="Gruppe 48028" transform="translate(162.854 -45.3)">
      <path id="Pfad_48683" data-name="Pfad 48683" d="M0,6.152V-11.339" transform="translate(0 11.339)" fill="none" stroke="#fff" stroke-width="0.5"/>
    </g>
    <g id="Gruppe_48029" data-name="Gruppe 48029" transform="translate(197.834 -45.3)">
      <path id="Pfad_48684" data-name="Pfad 48684" d="M0,6.152V-11.339" transform="translate(0 11.339)" fill="none" stroke="#fff" stroke-width="0.5"/>
    </g>
    <g id="Gruppe_48030" data-name="Gruppe 48030" transform="translate(57.914 -5.948)">
      <path id="Pfad_48685" data-name="Pfad 48685" d="M0,6.152V-11.339" transform="translate(0 11.339)" fill="none" stroke="#fff" stroke-width="0.5"/>
    </g>
    <g id="Gruppe_48031" data-name="Gruppe 48031" transform="translate(92.894 -5.948)">
      <path id="Pfad_48686" data-name="Pfad 48686" d="M0,6.152V-11.339" transform="translate(0 11.339)" fill="none" stroke="#fff" stroke-width="0.5"/>
    </g>
    <g id="Gruppe_48032" data-name="Gruppe 48032" transform="translate(127.874 -5.948)">
      <path id="Pfad_48687" data-name="Pfad 48687" d="M0,6.152V-11.339" transform="translate(0 11.339)" fill="none" stroke="#fff" stroke-width="0.5"/>
    </g>
    <g id="Gruppe_48033" data-name="Gruppe 48033" transform="translate(162.854 -5.948)">
      <path id="Pfad_48688" data-name="Pfad 48688" d="M0,6.152V-11.339" transform="translate(0 11.339)" fill="none" stroke="#fff" stroke-width="0.5"/>
    </g>
    <g id="Gruppe_48034" data-name="Gruppe 48034" transform="translate(197.834 -5.948)">
      <path id="Pfad_48689" data-name="Pfad 48689" d="M0,6.152V-11.339" transform="translate(0 11.339)" fill="none" stroke="#fff" stroke-width="0.5"/>
    </g>
    <g id="Gruppe_48035" data-name="Gruppe 48035" transform="translate(57.914 -58.417)">
      <path id="Pfad_48690" data-name="Pfad 48690" d="M0,4.614V-8.5" transform="translate(0 8.504)" fill="none" stroke="#519545" stroke-width="0.5"/>
    </g>
    <g id="Gruppe_48036" data-name="Gruppe 48036" transform="translate(92.894 -58.417)">
      <path id="Pfad_48691" data-name="Pfad 48691" d="M0,4.614V-8.5" transform="translate(0 8.504)" fill="none" stroke="#519545" stroke-width="0.5"/>
    </g>
    <g id="Gruppe_48037" data-name="Gruppe 48037" transform="translate(127.874 -58.417)">
      <path id="Pfad_48692" data-name="Pfad 48692" d="M0,4.614V-8.5" transform="translate(0 8.504)" fill="none" stroke="#519545" stroke-width="0.5"/>
    </g>
    <g id="Gruppe_48038" data-name="Gruppe 48038" transform="translate(162.854 -58.417)">
      <path id="Pfad_48693" data-name="Pfad 48693" d="M0,4.614V-8.5" transform="translate(0 8.504)" fill="none" stroke="#519545" stroke-width="0.5"/>
    </g>
    <g id="Gruppe_48039" data-name="Gruppe 48039" transform="translate(197.834 -58.417)">
      <path id="Pfad_48694" data-name="Pfad 48694" d="M0,4.614V-8.5" transform="translate(0 8.504)" fill="none" stroke="#519545" stroke-width="0.5"/>
    </g>
    <g id="Gruppe_48040" data-name="Gruppe 48040" transform="translate(57.914 -19.065)">
      <path id="Pfad_48695" data-name="Pfad 48695" d="M0,4.614V-8.5" transform="translate(0 8.504)" fill="none" stroke="#519545" stroke-width="0.5"/>
    </g>
    <g id="Gruppe_48041" data-name="Gruppe 48041" transform="translate(92.894 -19.065)">
      <path id="Pfad_48696" data-name="Pfad 48696" d="M0,4.614V-8.5" transform="translate(0 8.504)" fill="none" stroke="#519545" stroke-width="0.5"/>
    </g>
    <g id="Gruppe_48042" data-name="Gruppe 48042" transform="translate(127.874 -19.065)">
      <path id="Pfad_48697" data-name="Pfad 48697" d="M0,4.614V-8.5" transform="translate(0 8.504)" fill="none" stroke="#519545" stroke-width="0.5"/>
    </g>
    <g id="Gruppe_48043" data-name="Gruppe 48043" transform="translate(162.854 -19.065)">
      <path id="Pfad_48698" data-name="Pfad 48698" d="M0,4.614V-8.5" transform="translate(0 8.504)" fill="none" stroke="#519545" stroke-width="0.5"/>
    </g>
    <g id="Gruppe_48044" data-name="Gruppe 48044" transform="translate(197.834 -19.065)">
      <path id="Pfad_48699" data-name="Pfad 48699" d="M0,4.614V-8.5" transform="translate(0 8.504)" fill="none" stroke="#519545" stroke-width="0.5"/>
    </g>
    <g id="Gruppe" transform="translate(31.456 -56.741)">
      <text id="JAN" transform="translate(0 9)" fill="#2b2e34" font-size="9" font-family="BrandonGrotesque-Regular, Brandon Grotesque" letter-spacing="0.045em"><tspan x="0" y="0">JAN</tspan></text>
      <text id="FEB" transform="translate(35.753 9)" fill="#2b2e34" font-size="9" font-family="BrandonGrotesque-Regular, Brandon Grotesque" letter-spacing="-0.01em"><tspan x="0" y="0">FEB</tspan></text>
      <text id="MAR" transform="translate(68.886 9)" fill="#2b2e34" font-size="9" font-family="BrandonGrotesque-Regular, Brandon Grotesque" letter-spacing="-0.01em"><tspan x="0" y="0">MAR</tspan></text>
      <text id="APR" transform="translate(105.101 8)" fill="#2b2e34" font-size="8" font-family="BrandonGrotesque-Regular, Brandon Grotesque" letter-spacing="-0.01em"><tspan x="0" y="0">APR</tspan></text>
      <text id="M" transform="translate(139.521 8)" fill="#2b2e34" font-size="8" font-family="BrandonGrotesque-Regular, Brandon Grotesque" letter-spacing="-0.058em"><tspan x="0" y="0">M</tspan></text>
      <text id="AY" transform="translate(147.407 9)" fill="#2b2e34" font-size="9" font-family="BrandonGrotesque-Regular, Brandon Grotesque" letter-spacing="-0.058em"><tspan x="0" y="0">AY</tspan></text>
      <text id="JUN" transform="translate(175.181 8)" fill="#2b2e34" font-size="8" font-family="BrandonGrotesque-Regular, Brandon Grotesque" letter-spacing="-0.01em"><tspan x="0" y="0">JUN</tspan></text>
      <text id="JUL" transform="translate(1.083 48.353)" fill="#2b2e34" font-size="9" font-family="BrandonGrotesque-Regular, Brandon Grotesque" letter-spacing="0.045em"><tspan x="0" y="0">JUL</tspan></text>
      <text id="AUG" transform="translate(34.3 47.353)" fill="#2b2e34" font-size="8" font-family="BrandonGrotesque-Regular, Brandon Grotesque" letter-spacing="-0.017em"><tspan x="0" y="0">AUG</tspan></text>
      <text id="SEP" transform="translate(71.052 48.353)" fill="#2b2e34" font-size="9" font-family="BrandonGrotesque-Regular, Brandon Grotesque" letter-spacing="-0.01em"><tspan x="0" y="0">SEP</tspan></text>
      <text id="OCT" transform="translate(104.713 48.353)" fill="#2b2e34" font-size="9" font-family="BrandonGrotesque-Regular, Brandon Grotesque" letter-spacing="-0.01em"><tspan x="0" y="0">OCT</tspan></text>
      <text id="NOV" transform="translate(138.54 48.353)" fill="#2b2e34" font-size="9" font-family="BrandonGrotesque-Regular, Brandon Grotesque" letter-spacing="-0.014em"><tspan x="0" y="0">NOV</tspan></text>
      <text id="DEC" transform="translate(174.506 48.353)" fill="#2b2e34" font-size="9" font-family="BrandonGrotesque-Regular, Brandon Grotesque" letter-spacing="-0.013em"><tspan x="0" y="0">DEC</tspan></text>
    </g>
  </g>
</svg>
