<svg xmlns="http://www.w3.org/2000/svg" width="211.5" height="70.168" viewBox="0 0 211.5 70.168">
  <g id="Gruppe_47821" data-name="Gruppe 47821" transform="translate(-22.434 58.417)">
    <path id="Pfad_48442" data-name="Pfad 48442" d="M22.934-49.913H58.017v17.542H22.934Zm35.083,0H93.1v17.542H58.017Zm35.083,0h35.083v17.542H93.1Zm35.085,0h35.083v17.542H128.185Zm35.083,0h35.083v17.542H163.268ZM128.185-10.444h35.083V7.1H128.185Zm35.083,0h35.083V7.1H163.268Zm35.083,0h35.083V7.1H198.351Z" transform="translate(0 4.652)" fill="#519545"/>
    <path id="Pfad_48443" data-name="Pfad 48443" d="M198.351-49.913h35.083v17.542H198.351ZM22.934-10.444H58.017V7.1H22.934Zm35.083,0H93.1V7.1H58.017Zm35.083,0h35.083V7.1H93.1Z" transform="translate(0 4.652)" fill="#bbd4b3"/>
    <g id="Gruppe_47794" data-name="Gruppe 47794" transform="translate(22.934 -58.417)">
      <path id="Pfad_48444" data-name="Pfad 48444" d="M0,4.652V-8.5" transform="translate(0 8.504)" fill="none" stroke="#fff" stroke-width="1"/>
    </g>
    <g id="Gruppe_47795" data-name="Gruppe 47795" transform="translate(22.934 -45.261)">
      <path id="Pfad_48445" data-name="Pfad 48445" d="M0,6.2V-11.339" transform="translate(0 11.339)" fill="none" stroke="#fff" stroke-width="1"/>
    </g>
    <g id="Gruppe_47796" data-name="Gruppe 47796" transform="translate(233.434 -45.261)">
      <path id="Pfad_48446" data-name="Pfad 48446" d="M0,6.2V-11.339" transform="translate(0 11.339)" fill="none" stroke="#fff" stroke-width="1"/>
    </g>
    <g id="Gruppe_47797" data-name="Gruppe 47797" transform="translate(22.934 -27.719)">
      <path id="Pfad_48447" data-name="Pfad 48447" d="M0,3.1v-8.77" transform="translate(0 5.669)" fill="none" stroke="#fff" stroke-width="1"/>
    </g>
    <g id="Gruppe_47798" data-name="Gruppe 47798" transform="translate(22.934 -18.948)">
      <path id="Pfad_48448" data-name="Pfad 48448" d="M0,4.652V-8.5" transform="translate(0 8.504)" fill="none" stroke="#fff" stroke-width="1"/>
    </g>
    <g id="Gruppe_47799" data-name="Gruppe 47799" transform="translate(22.934 -5.793)">
      <path id="Pfad_48449" data-name="Pfad 48449" d="M0,6.2V-11.339" transform="translate(0 11.339)" fill="none" stroke="#fff" stroke-width="1"/>
    </g>
    <g id="Gruppe_47800" data-name="Gruppe 47800" transform="translate(233.434 -5.793)">
      <path id="Pfad_48450" data-name="Pfad 48450" d="M0,6.2V-11.339" transform="translate(0 11.339)" fill="none" stroke="#fff" stroke-width="1"/>
    </g>
    <g id="Gruppe_47801" data-name="Gruppe 47801" transform="translate(58.017 -45.261)">
      <path id="Pfad_48451" data-name="Pfad 48451" d="M0,6.2V-11.339" transform="translate(0 11.339)" fill="none" stroke="#fff" stroke-width="0.5"/>
    </g>
    <g id="Gruppe_47802" data-name="Gruppe 47802" transform="translate(93.101 -45.261)">
      <path id="Pfad_48452" data-name="Pfad 48452" d="M0,6.2V-11.339" transform="translate(0 11.339)" fill="none" stroke="#fff" stroke-width="0.5"/>
    </g>
    <g id="Gruppe_47803" data-name="Gruppe 47803" transform="translate(128.184 -45.261)">
      <path id="Pfad_48453" data-name="Pfad 48453" d="M0,6.2V-11.339" transform="translate(0 11.339)" fill="none" stroke="#fff" stroke-width="0.5"/>
    </g>
    <g id="Gruppe_47804" data-name="Gruppe 47804" transform="translate(163.267 -45.261)">
      <path id="Pfad_48454" data-name="Pfad 48454" d="M0,6.2V-11.339" transform="translate(0 11.339)" fill="none" stroke="#fff" stroke-width="0.5"/>
    </g>
    <g id="Gruppe_47805" data-name="Gruppe 47805" transform="translate(198.351 -45.261)">
      <path id="Pfad_48455" data-name="Pfad 48455" d="M0,6.2V-11.339" transform="translate(0 11.339)" fill="none" stroke="#fff" stroke-width="0.5"/>
    </g>
    <g id="Gruppe_47806" data-name="Gruppe 47806" transform="translate(58.017 -5.793)">
      <path id="Pfad_48456" data-name="Pfad 48456" d="M0,6.2V-11.339" transform="translate(0 11.339)" fill="none" stroke="#fff" stroke-width="0.5"/>
    </g>
    <g id="Gruppe_47807" data-name="Gruppe 47807" transform="translate(93.101 -5.793)">
      <path id="Pfad_48457" data-name="Pfad 48457" d="M0,6.2V-11.339" transform="translate(0 11.339)" fill="none" stroke="#fff" stroke-width="0.5"/>
    </g>
    <g id="Gruppe_47808" data-name="Gruppe 47808" transform="translate(128.184 -5.793)">
      <path id="Pfad_48458" data-name="Pfad 48458" d="M0,6.2V-11.339" transform="translate(0 11.339)" fill="none" stroke="#fff" stroke-width="0.5"/>
    </g>
    <g id="Gruppe_47809" data-name="Gruppe 47809" transform="translate(163.267 -5.793)">
      <path id="Pfad_48459" data-name="Pfad 48459" d="M0,6.2V-11.339" transform="translate(0 11.339)" fill="none" stroke="#fff" stroke-width="0.5"/>
    </g>
    <g id="Gruppe_47810" data-name="Gruppe 47810" transform="translate(198.351 -5.793)">
      <path id="Pfad_48460" data-name="Pfad 48460" d="M0,6.2V-11.339" transform="translate(0 11.339)" fill="none" stroke="#fff" stroke-width="0.5"/>
    </g>
    <g id="Gruppe_47811" data-name="Gruppe 47811" transform="translate(58.017 -58.417)">
      <path id="Pfad_48461" data-name="Pfad 48461" d="M0,4.652V-8.5" transform="translate(0 8.504)" fill="none" stroke="#519545" stroke-width="0.5"/>
    </g>
    <g id="Gruppe_47812" data-name="Gruppe 47812" transform="translate(93.101 -58.417)">
      <path id="Pfad_48462" data-name="Pfad 48462" d="M0,4.652V-8.5" transform="translate(0 8.504)" fill="none" stroke="#519545" stroke-width="0.5"/>
    </g>
    <g id="Gruppe_47813" data-name="Gruppe 47813" transform="translate(128.184 -58.417)">
      <path id="Pfad_48463" data-name="Pfad 48463" d="M0,4.652V-8.5" transform="translate(0 8.504)" fill="none" stroke="#519545" stroke-width="0.5"/>
    </g>
    <g id="Gruppe_47814" data-name="Gruppe 47814" transform="translate(163.267 -58.417)">
      <path id="Pfad_48464" data-name="Pfad 48464" d="M0,4.652V-8.5" transform="translate(0 8.504)" fill="none" stroke="#519545" stroke-width="0.5"/>
    </g>
    <g id="Gruppe_47815" data-name="Gruppe 47815" transform="translate(198.351 -58.417)">
      <path id="Pfad_48465" data-name="Pfad 48465" d="M0,4.652V-8.5" transform="translate(0 8.504)" fill="none" stroke="#519545" stroke-width="0.5"/>
    </g>
    <g id="Gruppe_47816" data-name="Gruppe 47816" transform="translate(58.017 -18.948)">
      <path id="Pfad_48466" data-name="Pfad 48466" d="M0,4.652V-8.5" transform="translate(0 8.504)" fill="none" stroke="#519545" stroke-width="0.5"/>
    </g>
    <g id="Gruppe_47817" data-name="Gruppe 47817" transform="translate(93.101 -18.948)">
      <path id="Pfad_48467" data-name="Pfad 48467" d="M0,4.652V-8.5" transform="translate(0 8.504)" fill="none" stroke="#519545" stroke-width="0.5"/>
    </g>
    <g id="Gruppe_47818" data-name="Gruppe 47818" transform="translate(128.184 -18.948)">
      <path id="Pfad_48468" data-name="Pfad 48468" d="M0,4.652V-8.5" transform="translate(0 8.504)" fill="none" stroke="#519545" stroke-width="0.5"/>
    </g>
    <g id="Gruppe_47819" data-name="Gruppe 47819" transform="translate(163.267 -18.948)">
      <path id="Pfad_48469" data-name="Pfad 48469" d="M0,4.652V-8.5" transform="translate(0 8.504)" fill="none" stroke="#519545" stroke-width="0.5"/>
    </g>
    <g id="Gruppe_47820" data-name="Gruppe 47820" transform="translate(198.351 -18.948)">
      <path id="Pfad_48470" data-name="Pfad 48470" d="M0,4.652V-8.5" transform="translate(0 8.504)" fill="none" stroke="#519545" stroke-width="0.5"/>
    </g>
    <g id="Gruppe" transform="translate(31.481 -56.736)">
      <text id="JAN" transform="translate(0 9)" fill="#2b2e34" font-size="9" font-family="BrandonGrotesque-Regular, Brandon Grotesque" letter-spacing="0.045em"><tspan x="0" y="0">JAN</tspan></text>
      <text id="FEB" transform="translate(35.858 9)" fill="#2b2e34" font-size="9" font-family="BrandonGrotesque-Regular, Brandon Grotesque" letter-spacing="-0.01em"><tspan x="0" y="0">FEB</tspan></text>
      <text id="MAR" transform="translate(69.089 9)" fill="#2b2e34" font-size="9" font-family="BrandonGrotesque-Regular, Brandon Grotesque" letter-spacing="-0.01em"><tspan x="0" y="0">MAR</tspan></text>
      <text id="APR" transform="translate(105.412 9)" fill="#2b2e34" font-size="9" font-family="BrandonGrotesque-Regular, Brandon Grotesque" letter-spacing="-0.01em"><tspan x="0" y="0">APR</tspan></text>
      <text id="M" transform="translate(139.933 8)" fill="#2b2e34" font-size="8" font-family="BrandonGrotesque-Regular, Brandon Grotesque" letter-spacing="-0.058em"><tspan x="0" y="0">M</tspan></text>
      <text id="AY" transform="translate(147.842 9)" fill="#2b2e34" font-size="9" font-family="BrandonGrotesque-Regular, Brandon Grotesque" letter-spacing="-0.058em"><tspan x="0" y="0">AY</tspan></text>
      <text id="JUN" transform="translate(175.699 9)" fill="#2b2e34" font-size="9" font-family="BrandonGrotesque-Regular, Brandon Grotesque" letter-spacing="-0.01em"><tspan x="0" y="0">JUN</tspan></text>
      <text id="JUL" transform="translate(1.086 48.469)" fill="#2b2e34" font-size="9" font-family="BrandonGrotesque-Regular, Brandon Grotesque" letter-spacing="0.045em"><tspan x="0" y="0">JUL</tspan></text>
      <text id="AUG" transform="translate(34.401 47.469)" fill="#2b2e34" font-size="8" font-family="BrandonGrotesque-Regular, Brandon Grotesque" letter-spacing="-0.017em"><tspan x="0" y="0">AUG</tspan></text>
      <text id="SEP" transform="translate(71.262 48.469)" fill="#2b2e34" font-size="9" font-family="BrandonGrotesque-Regular, Brandon Grotesque" letter-spacing="-0.01em"><tspan x="0" y="0">SEP</tspan></text>
      <text id="OCT" transform="translate(105.022 48.469)" fill="#2b2e34" font-size="9" font-family="BrandonGrotesque-Regular, Brandon Grotesque" letter-spacing="-0.01em"><tspan x="0" y="0">OCT</tspan></text>
      <text id="NOV" transform="translate(138.949 48.469)" fill="#2b2e34" font-size="9" font-family="BrandonGrotesque-Regular, Brandon Grotesque" letter-spacing="-0.014em"><tspan x="0" y="0">NOV</tspan></text>
      <text id="DEC" transform="translate(175.021 48.469)" fill="#2b2e34" font-size="9" font-family="BrandonGrotesque-Regular, Brandon Grotesque" letter-spacing="-0.013em"><tspan x="0" y="0">DEC</tspan></text>
    </g>
  </g>
</svg>
