<svg xmlns="http://www.w3.org/2000/svg" width="211" height="70.001" viewBox="0 0 211 70.001">
  <g id="Gruppe_40769" data-name="Gruppe 40769" transform="translate(-22.434 58.417)">
    <path id="Pfad_39910" data-name="Pfad 39910" d="M22.934-49.913h35v17.5h-35Zm35,0h35v17.5h-35Zm35,0h35v17.5h-35Zm35,0h35v17.5h-35Zm35,0h35v17.5h-35Zm-35,39.375h35v17.5h-35Zm35,0h35v17.5h-35Zm35,0h35v17.5h-35Z" transform="translate(0 4.621)" fill="#519545"/>
    <path id="Pfad_39911" data-name="Pfad 39911" d="M197.934-49.913h35v17.5h-35Zm-175,39.375h35v17.5h-35Zm35,0h35v17.5h-35Zm35,0h35v17.5h-35Z" transform="translate(0 4.621)" fill="#bbd4b3"/>
    <g id="Gruppe_40742" data-name="Gruppe 40742" transform="translate(22.934 -58.417)">
      <path id="Pfad_39912" data-name="Pfad 39912" d="M0,4.621V-8.5" transform="translate(0 8.504)" fill="none" stroke="#fff" stroke-width="1"/>
    </g>
    <g id="Gruppe_40743" data-name="Gruppe 40743" transform="translate(22.934 -45.293)">
      <path id="Pfad_39913" data-name="Pfad 39913" d="M0,6.162v-17.5" transform="translate(0 11.339)" fill="none" stroke="#fff" stroke-width="1"/>
    </g>
    <g id="Gruppe_40744" data-name="Gruppe 40744" transform="translate(232.934 -45.293)">
      <path id="Pfad_39914" data-name="Pfad 39914" d="M0,6.162v-17.5" transform="translate(0 11.339)" fill="none" stroke="#fff" stroke-width="1"/>
    </g>
    <g id="Gruppe_40745" data-name="Gruppe 40745" transform="translate(22.934 -27.791)">
      <path id="Pfad_39915" data-name="Pfad 39915" d="M0,3.081v-8.75" transform="translate(0 5.669)" fill="none" stroke="#fff" stroke-width="1"/>
    </g>
    <g id="Gruppe_40746" data-name="Gruppe 40746" transform="translate(22.934 -19.042)">
      <path id="Pfad_39916" data-name="Pfad 39916" d="M0,4.621V-8.5" transform="translate(0 8.504)" fill="none" stroke="#fff" stroke-width="1"/>
    </g>
    <g id="Gruppe_40747" data-name="Gruppe 40747" transform="translate(22.934 -5.918)">
      <path id="Pfad_39917" data-name="Pfad 39917" d="M0,6.162v-17.5" transform="translate(0 11.339)" fill="none" stroke="#fff" stroke-width="1"/>
    </g>
    <g id="Gruppe_40748" data-name="Gruppe 40748" transform="translate(232.934 -5.918)">
      <path id="Pfad_39918" data-name="Pfad 39918" d="M0,6.162v-17.5" transform="translate(0 11.339)" fill="none" stroke="#fff" stroke-width="1"/>
    </g>
    <g id="Gruppe_40749" data-name="Gruppe 40749" transform="translate(57.934 -45.293)">
      <path id="Pfad_39919" data-name="Pfad 39919" d="M0,6.162v-17.5" transform="translate(0 11.339)" fill="none" stroke="#fff" stroke-width="0.5"/>
    </g>
    <g id="Gruppe_40750" data-name="Gruppe 40750" transform="translate(92.934 -45.293)">
      <path id="Pfad_39920" data-name="Pfad 39920" d="M0,6.162v-17.5" transform="translate(0 11.339)" fill="none" stroke="#fff" stroke-width="0.5"/>
    </g>
    <g id="Gruppe_40751" data-name="Gruppe 40751" transform="translate(127.934 -45.293)">
      <path id="Pfad_39921" data-name="Pfad 39921" d="M0,6.162v-17.5" transform="translate(0 11.339)" fill="none" stroke="#fff" stroke-width="0.5"/>
    </g>
    <g id="Gruppe_40752" data-name="Gruppe 40752" transform="translate(162.934 -45.293)">
      <path id="Pfad_39922" data-name="Pfad 39922" d="M0,6.162v-17.5" transform="translate(0 11.339)" fill="none" stroke="#fff" stroke-width="0.5"/>
    </g>
    <g id="Gruppe_40753" data-name="Gruppe 40753" transform="translate(197.934 -45.293)">
      <path id="Pfad_39923" data-name="Pfad 39923" d="M0,6.162v-17.5" transform="translate(0 11.339)" fill="none" stroke="#fff" stroke-width="0.5"/>
    </g>
    <g id="Gruppe_40754" data-name="Gruppe 40754" transform="translate(57.934 -5.918)">
      <path id="Pfad_39924" data-name="Pfad 39924" d="M0,6.162v-17.5" transform="translate(0 11.339)" fill="none" stroke="#fff" stroke-width="0.5"/>
    </g>
    <g id="Gruppe_40755" data-name="Gruppe 40755" transform="translate(92.934 -5.918)">
      <path id="Pfad_39925" data-name="Pfad 39925" d="M0,6.162v-17.5" transform="translate(0 11.339)" fill="none" stroke="#fff" stroke-width="0.5"/>
    </g>
    <g id="Gruppe_40756" data-name="Gruppe 40756" transform="translate(127.934 -5.918)">
      <path id="Pfad_39926" data-name="Pfad 39926" d="M0,6.162v-17.5" transform="translate(0 11.339)" fill="none" stroke="#fff" stroke-width="0.5"/>
    </g>
    <g id="Gruppe_40757" data-name="Gruppe 40757" transform="translate(162.934 -5.918)">
      <path id="Pfad_39927" data-name="Pfad 39927" d="M0,6.162v-17.5" transform="translate(0 11.339)" fill="none" stroke="#fff" stroke-width="0.5"/>
    </g>
    <g id="Gruppe_40758" data-name="Gruppe 40758" transform="translate(197.934 -5.918)">
      <path id="Pfad_39928" data-name="Pfad 39928" d="M0,6.162v-17.5" transform="translate(0 11.339)" fill="none" stroke="#fff" stroke-width="0.5"/>
    </g>
    <g id="Gruppe_40759" data-name="Gruppe 40759" transform="translate(57.934 -58.417)">
      <path id="Pfad_39929" data-name="Pfad 39929" d="M0,4.621V-8.5" transform="translate(0 8.504)" fill="none" stroke="#519545" stroke-width="0.5"/>
    </g>
    <g id="Gruppe_40760" data-name="Gruppe 40760" transform="translate(92.934 -58.417)">
      <path id="Pfad_39930" data-name="Pfad 39930" d="M0,4.621V-8.5" transform="translate(0 8.504)" fill="none" stroke="#519545" stroke-width="0.5"/>
    </g>
    <g id="Gruppe_40761" data-name="Gruppe 40761" transform="translate(127.934 -58.417)">
      <path id="Pfad_39931" data-name="Pfad 39931" d="M0,4.621V-8.5" transform="translate(0 8.504)" fill="none" stroke="#519545" stroke-width="0.5"/>
    </g>
    <g id="Gruppe_40762" data-name="Gruppe 40762" transform="translate(162.934 -58.417)">
      <path id="Pfad_39932" data-name="Pfad 39932" d="M0,4.621V-8.5" transform="translate(0 8.504)" fill="none" stroke="#519545" stroke-width="0.5"/>
    </g>
    <g id="Gruppe_40763" data-name="Gruppe 40763" transform="translate(197.934 -58.417)">
      <path id="Pfad_39933" data-name="Pfad 39933" d="M0,4.621V-8.5" transform="translate(0 8.504)" fill="none" stroke="#519545" stroke-width="0.5"/>
    </g>
    <g id="Gruppe_40764" data-name="Gruppe 40764" transform="translate(57.934 -19.042)">
      <path id="Pfad_39934" data-name="Pfad 39934" d="M0,4.621V-8.5" transform="translate(0 8.504)" fill="none" stroke="#519545" stroke-width="0.5"/>
    </g>
    <g id="Gruppe_40765" data-name="Gruppe 40765" transform="translate(92.934 -19.042)">
      <path id="Pfad_39935" data-name="Pfad 39935" d="M0,4.621V-8.5" transform="translate(0 8.504)" fill="none" stroke="#519545" stroke-width="0.5"/>
    </g>
    <g id="Gruppe_40766" data-name="Gruppe 40766" transform="translate(127.934 -19.042)">
      <path id="Pfad_39936" data-name="Pfad 39936" d="M0,4.621V-8.5" transform="translate(0 8.504)" fill="none" stroke="#519545" stroke-width="0.5"/>
    </g>
    <g id="Gruppe_40767" data-name="Gruppe 40767" transform="translate(162.934 -19.042)">
      <path id="Pfad_39937" data-name="Pfad 39937" d="M0,4.621V-8.5" transform="translate(0 8.504)" fill="none" stroke="#519545" stroke-width="0.5"/>
    </g>
    <g id="Gruppe_40768" data-name="Gruppe 40768" transform="translate(197.934 -19.042)">
      <path id="Pfad_39938" data-name="Pfad 39938" d="M0,4.621V-8.5" transform="translate(0 8.504)" fill="none" stroke="#519545" stroke-width="0.5"/>
    </g>
    <g id="Gruppe" transform="translate(31.461 -56.74)">
      <text id="JAN" transform="translate(0 9)" fill="#2b2e34" font-size="9" font-family="BrandonGrotesque-Regular, Brandon Grotesque" letter-spacing="0.045em"><tspan x="0" y="0">JAN</tspan></text>
      <text id="FEB" transform="translate(35.773 9)" fill="#2b2e34" font-size="9" font-family="BrandonGrotesque-Regular, Brandon Grotesque" letter-spacing="-0.01em"><tspan x="0" y="0">FEB</tspan></text>
      <text id="MAR" transform="translate(68.925 9)" fill="#2b2e34" font-size="9" font-family="BrandonGrotesque-Regular, Brandon Grotesque" letter-spacing="-0.01em"><tspan x="0" y="0">MAR</tspan></text>
      <text id="APR" transform="translate(105.161 8)" fill="#2b2e34" font-size="8" font-family="BrandonGrotesque-Regular, Brandon Grotesque" letter-spacing="-0.01em"><tspan x="0" y="0">APR</tspan></text>
      <text id="M" transform="translate(139.601 8)" fill="#2b2e34" font-size="8" font-family="BrandonGrotesque-Regular, Brandon Grotesque" letter-spacing="-0.058em"><tspan x="0" y="0">M</tspan></text>
      <text id="AY" transform="translate(147.491 9)" fill="#2b2e34" font-size="9" font-family="BrandonGrotesque-Regular, Brandon Grotesque" letter-spacing="-0.058em"><tspan x="0" y="0">AY</tspan></text>
      <text id="JUN" transform="translate(175.281 8)" fill="#2b2e34" font-size="8" font-family="BrandonGrotesque-Regular, Brandon Grotesque" letter-spacing="-0.01em"><tspan x="0" y="0">JUN</tspan></text>
      <text id="JUL" transform="translate(1.083 48.375)" fill="#2b2e34" font-size="9" font-family="BrandonGrotesque-Regular, Brandon Grotesque" letter-spacing="0.045em"><tspan x="0" y="0">JUL</tspan></text>
      <text id="AUG" transform="translate(34.319 47.375)" fill="#2b2e34" font-size="8" font-family="BrandonGrotesque-Regular, Brandon Grotesque" letter-spacing="-0.017em"><tspan x="0" y="0">AUG</tspan></text>
      <text id="SEP" transform="translate(71.092 48.375)" fill="#2b2e34" font-size="9" font-family="BrandonGrotesque-Regular, Brandon Grotesque" letter-spacing="-0.01em"><tspan x="0" y="0">SEP</tspan></text>
      <text id="OCT" transform="translate(104.772 48.375)" fill="#2b2e34" font-size="9" font-family="BrandonGrotesque-Regular, Brandon Grotesque" letter-spacing="-0.01em"><tspan x="0" y="0">OCT</tspan></text>
      <text id="NOV" transform="translate(138.619 48.375)" fill="#2b2e34" font-size="9" font-family="BrandonGrotesque-Regular, Brandon Grotesque" letter-spacing="-0.014em"><tspan x="0" y="0">NOV</tspan></text>
      <text id="DEC" transform="translate(174.605 48.375)" fill="#2b2e34" font-size="9" font-family="BrandonGrotesque-Regular, Brandon Grotesque" letter-spacing="-0.013em"><tspan x="0" y="0">DEC</tspan></text>
    </g>
  </g>
</svg>
