<svg xmlns="http://www.w3.org/2000/svg" width="210.88" height="69.961" viewBox="0 0 210.88 69.961">
  <g id="Gruppe_47793" data-name="Gruppe 47793" transform="translate(-22.434 58.417)">
    <path id="Pfad_48413" data-name="Pfad 48413" d="M22.934-49.913h34.98v17.491H22.934Zm34.98,0h34.98v17.491H57.914Zm34.98,0h34.98v17.491H92.894Zm34.981,0h34.98v17.491h-34.98Zm34.98,0h34.98v17.491h-34.98ZM127.875-10.56h34.98V6.93h-34.98Zm34.98,0h34.98V6.93h-34.98Zm34.98,0h34.98V6.93h-34.98Z" transform="translate(0 4.614)" fill="#519545"/>
    <path id="Pfad_48414" data-name="Pfad 48414" d="M197.834-49.913h34.98v17.491h-34.98ZM22.934-10.56h34.98V6.93H22.934Zm34.98,0h34.98V6.93H57.914Zm34.98,0h34.98V6.93H92.894Z" transform="translate(0 4.614)" fill="#bbd4b3"/>
    <g id="Gruppe_47766" data-name="Gruppe 47766" transform="translate(22.934 -58.417)">
      <path id="Pfad_48415" data-name="Pfad 48415" d="M0,4.614V-8.5" transform="translate(0 8.504)" fill="none" stroke="#fff" stroke-width="1"/>
    </g>
    <g id="Gruppe_47767" data-name="Gruppe 47767" transform="translate(22.934 -45.3)">
      <path id="Pfad_48416" data-name="Pfad 48416" d="M0,6.152V-11.339" transform="translate(0 11.339)" fill="none" stroke="#fff" stroke-width="1"/>
    </g>
    <g id="Gruppe_47768" data-name="Gruppe 47768" transform="translate(232.814 -45.3)">
      <path id="Pfad_48417" data-name="Pfad 48417" d="M0,6.152V-11.339" transform="translate(0 11.339)" fill="none" stroke="#fff" stroke-width="1"/>
    </g>
    <g id="Gruppe_47769" data-name="Gruppe 47769" transform="translate(22.934 -27.809)">
      <path id="Pfad_48418" data-name="Pfad 48418" d="M0,3.076V-5.669" transform="translate(0 5.669)" fill="none" stroke="#fff" stroke-width="1"/>
    </g>
    <g id="Gruppe_47770" data-name="Gruppe 47770" transform="translate(22.934 -19.065)">
      <path id="Pfad_48419" data-name="Pfad 48419" d="M0,4.614V-8.5" transform="translate(0 8.504)" fill="none" stroke="#fff" stroke-width="1"/>
    </g>
    <g id="Gruppe_47771" data-name="Gruppe 47771" transform="translate(22.934 -5.948)">
      <path id="Pfad_48420" data-name="Pfad 48420" d="M0,6.152V-11.339" transform="translate(0 11.339)" fill="none" stroke="#fff" stroke-width="1"/>
    </g>
    <g id="Gruppe_47772" data-name="Gruppe 47772" transform="translate(232.814 -5.948)">
      <path id="Pfad_48421" data-name="Pfad 48421" d="M0,6.152V-11.339" transform="translate(0 11.339)" fill="none" stroke="#fff" stroke-width="1"/>
    </g>
    <g id="Gruppe_47773" data-name="Gruppe 47773" transform="translate(57.914 -45.3)">
      <path id="Pfad_48422" data-name="Pfad 48422" d="M0,6.152V-11.339" transform="translate(0 11.339)" fill="none" stroke="#fff" stroke-width="0.5"/>
    </g>
    <g id="Gruppe_47774" data-name="Gruppe 47774" transform="translate(92.894 -45.3)">
      <path id="Pfad_48423" data-name="Pfad 48423" d="M0,6.152V-11.339" transform="translate(0 11.339)" fill="none" stroke="#fff" stroke-width="0.5"/>
    </g>
    <g id="Gruppe_47775" data-name="Gruppe 47775" transform="translate(127.874 -45.3)">
      <path id="Pfad_48424" data-name="Pfad 48424" d="M0,6.152V-11.339" transform="translate(0 11.339)" fill="none" stroke="#fff" stroke-width="0.5"/>
    </g>
    <g id="Gruppe_47776" data-name="Gruppe 47776" transform="translate(162.854 -45.3)">
      <path id="Pfad_48425" data-name="Pfad 48425" d="M0,6.152V-11.339" transform="translate(0 11.339)" fill="none" stroke="#fff" stroke-width="0.5"/>
    </g>
    <g id="Gruppe_47777" data-name="Gruppe 47777" transform="translate(197.834 -45.3)">
      <path id="Pfad_48426" data-name="Pfad 48426" d="M0,6.152V-11.339" transform="translate(0 11.339)" fill="none" stroke="#fff" stroke-width="0.5"/>
    </g>
    <g id="Gruppe_47778" data-name="Gruppe 47778" transform="translate(57.914 -5.948)">
      <path id="Pfad_48427" data-name="Pfad 48427" d="M0,6.152V-11.339" transform="translate(0 11.339)" fill="none" stroke="#fff" stroke-width="0.5"/>
    </g>
    <g id="Gruppe_47779" data-name="Gruppe 47779" transform="translate(92.894 -5.948)">
      <path id="Pfad_48428" data-name="Pfad 48428" d="M0,6.152V-11.339" transform="translate(0 11.339)" fill="none" stroke="#fff" stroke-width="0.5"/>
    </g>
    <g id="Gruppe_47780" data-name="Gruppe 47780" transform="translate(127.874 -5.948)">
      <path id="Pfad_48429" data-name="Pfad 48429" d="M0,6.152V-11.339" transform="translate(0 11.339)" fill="none" stroke="#fff" stroke-width="0.5"/>
    </g>
    <g id="Gruppe_47781" data-name="Gruppe 47781" transform="translate(162.854 -5.948)">
      <path id="Pfad_48430" data-name="Pfad 48430" d="M0,6.152V-11.339" transform="translate(0 11.339)" fill="none" stroke="#fff" stroke-width="0.5"/>
    </g>
    <g id="Gruppe_47782" data-name="Gruppe 47782" transform="translate(197.834 -5.948)">
      <path id="Pfad_48431" data-name="Pfad 48431" d="M0,6.152V-11.339" transform="translate(0 11.339)" fill="none" stroke="#fff" stroke-width="0.5"/>
    </g>
    <g id="Gruppe_47783" data-name="Gruppe 47783" transform="translate(57.914 -58.417)">
      <path id="Pfad_48432" data-name="Pfad 48432" d="M0,4.614V-8.5" transform="translate(0 8.504)" fill="none" stroke="#519545" stroke-width="0.5"/>
    </g>
    <g id="Gruppe_47784" data-name="Gruppe 47784" transform="translate(92.894 -58.417)">
      <path id="Pfad_48433" data-name="Pfad 48433" d="M0,4.614V-8.5" transform="translate(0 8.504)" fill="none" stroke="#519545" stroke-width="0.5"/>
    </g>
    <g id="Gruppe_47785" data-name="Gruppe 47785" transform="translate(127.874 -58.417)">
      <path id="Pfad_48434" data-name="Pfad 48434" d="M0,4.614V-8.5" transform="translate(0 8.504)" fill="none" stroke="#519545" stroke-width="0.5"/>
    </g>
    <g id="Gruppe_47786" data-name="Gruppe 47786" transform="translate(162.854 -58.417)">
      <path id="Pfad_48435" data-name="Pfad 48435" d="M0,4.614V-8.5" transform="translate(0 8.504)" fill="none" stroke="#519545" stroke-width="0.5"/>
    </g>
    <g id="Gruppe_47787" data-name="Gruppe 47787" transform="translate(197.834 -58.417)">
      <path id="Pfad_48436" data-name="Pfad 48436" d="M0,4.614V-8.5" transform="translate(0 8.504)" fill="none" stroke="#519545" stroke-width="0.5"/>
    </g>
    <g id="Gruppe_47788" data-name="Gruppe 47788" transform="translate(57.914 -19.065)">
      <path id="Pfad_48437" data-name="Pfad 48437" d="M0,4.614V-8.5" transform="translate(0 8.504)" fill="none" stroke="#519545" stroke-width="0.5"/>
    </g>
    <g id="Gruppe_47789" data-name="Gruppe 47789" transform="translate(92.894 -19.065)">
      <path id="Pfad_48438" data-name="Pfad 48438" d="M0,4.614V-8.5" transform="translate(0 8.504)" fill="none" stroke="#519545" stroke-width="0.5"/>
    </g>
    <g id="Gruppe_47790" data-name="Gruppe 47790" transform="translate(127.874 -19.065)">
      <path id="Pfad_48439" data-name="Pfad 48439" d="M0,4.614V-8.5" transform="translate(0 8.504)" fill="none" stroke="#519545" stroke-width="0.5"/>
    </g>
    <g id="Gruppe_47791" data-name="Gruppe 47791" transform="translate(162.854 -19.065)">
      <path id="Pfad_48440" data-name="Pfad 48440" d="M0,4.614V-8.5" transform="translate(0 8.504)" fill="none" stroke="#519545" stroke-width="0.5"/>
    </g>
    <g id="Gruppe_47792" data-name="Gruppe 47792" transform="translate(197.834 -19.065)">
      <path id="Pfad_48441" data-name="Pfad 48441" d="M0,4.614V-8.5" transform="translate(0 8.504)" fill="none" stroke="#519545" stroke-width="0.5"/>
    </g>
    <g id="Gruppe" transform="translate(31.456 -56.741)">
      <text id="JAN" transform="translate(0 9)" fill="#2b2e34" font-size="9" font-family="BrandonGrotesque-Regular, Brandon Grotesque" letter-spacing="0.045em"><tspan x="0" y="0">JAN</tspan></text>
      <text id="FEB" transform="translate(35.753 9)" fill="#2b2e34" font-size="9" font-family="BrandonGrotesque-Regular, Brandon Grotesque" letter-spacing="-0.01em"><tspan x="0" y="0">FEB</tspan></text>
      <text id="MAR" transform="translate(68.886 9)" fill="#2b2e34" font-size="9" font-family="BrandonGrotesque-Regular, Brandon Grotesque" letter-spacing="-0.01em"><tspan x="0" y="0">MAR</tspan></text>
      <text id="APR" transform="translate(105.101 8)" fill="#2b2e34" font-size="8" font-family="BrandonGrotesque-Regular, Brandon Grotesque" letter-spacing="-0.01em"><tspan x="0" y="0">APR</tspan></text>
      <text id="M" transform="translate(139.521 8)" fill="#2b2e34" font-size="8" font-family="BrandonGrotesque-Regular, Brandon Grotesque" letter-spacing="-0.058em"><tspan x="0" y="0">M</tspan></text>
      <text id="AY" transform="translate(147.407 9)" fill="#2b2e34" font-size="9" font-family="BrandonGrotesque-Regular, Brandon Grotesque" letter-spacing="-0.058em"><tspan x="0" y="0">AY</tspan></text>
      <text id="JUN" transform="translate(175.181 8)" fill="#2b2e34" font-size="8" font-family="BrandonGrotesque-Regular, Brandon Grotesque" letter-spacing="-0.01em"><tspan x="0" y="0">JUN</tspan></text>
      <text id="JUL" transform="translate(1.083 48.353)" fill="#2b2e34" font-size="9" font-family="BrandonGrotesque-Regular, Brandon Grotesque" letter-spacing="0.045em"><tspan x="0" y="0">JUL</tspan></text>
      <text id="AUG" transform="translate(34.3 47.353)" fill="#2b2e34" font-size="8" font-family="BrandonGrotesque-Regular, Brandon Grotesque" letter-spacing="-0.017em"><tspan x="0" y="0">AUG</tspan></text>
      <text id="SEP" transform="translate(71.052 48.353)" fill="#2b2e34" font-size="9" font-family="BrandonGrotesque-Regular, Brandon Grotesque" letter-spacing="-0.01em"><tspan x="0" y="0">SEP</tspan></text>
      <text id="OCT" transform="translate(104.713 48.353)" fill="#2b2e34" font-size="9" font-family="BrandonGrotesque-Regular, Brandon Grotesque" letter-spacing="-0.01em"><tspan x="0" y="0">OCT</tspan></text>
      <text id="NOV" transform="translate(138.54 48.353)" fill="#2b2e34" font-size="9" font-family="BrandonGrotesque-Regular, Brandon Grotesque" letter-spacing="-0.014em"><tspan x="0" y="0">NOV</tspan></text>
      <text id="DEC" transform="translate(174.506 48.353)" fill="#2b2e34" font-size="9" font-family="BrandonGrotesque-Regular, Brandon Grotesque" letter-spacing="-0.013em"><tspan x="0" y="0">DEC</tspan></text>
    </g>
  </g>
</svg>
