<svg xmlns="http://www.w3.org/2000/svg" width="211" height="70.001" viewBox="0 0 211 70.001">
  <g id="Gruppe_40797" data-name="Gruppe 40797" transform="translate(-22.434 58.417)">
    <path id="Pfad_39939" data-name="Pfad 39939" d="M22.934-49.913h35v17.5h-35Zm35,0h35v17.5h-35Zm35,0h35v17.5h-35Zm35,0h35v17.5h-35Zm35,0h35v17.5h-35Zm35,0h35v17.5h-35Zm-175,39.375h35v17.5h-35Zm35,0h35v17.5h-35Zm35,0h35v17.5h-35Zm35,0h35v17.5h-35Zm35,0h35v17.5h-35Zm35,0h35v17.5h-35Z" transform="translate(0 4.621)" fill="#519545"/>
    <g id="Gruppe_40770" data-name="Gruppe 40770" transform="translate(22.934 -58.417)">
      <path id="Pfad_39940" data-name="Pfad 39940" d="M0,4.621V-8.5" transform="translate(0 8.504)" fill="none" stroke="#fff" stroke-width="1"/>
    </g>
    <g id="Gruppe_40771" data-name="Gruppe 40771" transform="translate(22.934 -45.293)">
      <path id="Pfad_39941" data-name="Pfad 39941" d="M0,6.162v-17.5" transform="translate(0 11.339)" fill="none" stroke="#fff" stroke-width="1"/>
    </g>
    <g id="Gruppe_40772" data-name="Gruppe 40772" transform="translate(232.934 -45.293)">
      <path id="Pfad_39942" data-name="Pfad 39942" d="M0,6.162v-17.5" transform="translate(0 11.339)" fill="none" stroke="#fff" stroke-width="1"/>
    </g>
    <g id="Gruppe_40773" data-name="Gruppe 40773" transform="translate(22.934 -27.791)">
      <path id="Pfad_39943" data-name="Pfad 39943" d="M0,3.081v-8.75" transform="translate(0 5.669)" fill="none" stroke="#fff" stroke-width="1"/>
    </g>
    <g id="Gruppe_40774" data-name="Gruppe 40774" transform="translate(22.934 -19.042)">
      <path id="Pfad_39944" data-name="Pfad 39944" d="M0,4.621V-8.5" transform="translate(0 8.504)" fill="none" stroke="#fff" stroke-width="1"/>
    </g>
    <g id="Gruppe_40775" data-name="Gruppe 40775" transform="translate(22.934 -5.918)">
      <path id="Pfad_39945" data-name="Pfad 39945" d="M0,6.162v-17.5" transform="translate(0 11.339)" fill="none" stroke="#fff" stroke-width="1"/>
    </g>
    <g id="Gruppe_40776" data-name="Gruppe 40776" transform="translate(232.934 -5.918)">
      <path id="Pfad_39946" data-name="Pfad 39946" d="M0,6.162v-17.5" transform="translate(0 11.339)" fill="none" stroke="#fff" stroke-width="1"/>
    </g>
    <g id="Gruppe_40777" data-name="Gruppe 40777" transform="translate(57.934 -45.293)">
      <path id="Pfad_39947" data-name="Pfad 39947" d="M0,6.162v-17.5" transform="translate(0 11.339)" fill="none" stroke="#fff" stroke-width="0.5"/>
    </g>
    <g id="Gruppe_40778" data-name="Gruppe 40778" transform="translate(92.934 -45.293)">
      <path id="Pfad_39948" data-name="Pfad 39948" d="M0,6.162v-17.5" transform="translate(0 11.339)" fill="none" stroke="#fff" stroke-width="0.5"/>
    </g>
    <g id="Gruppe_40779" data-name="Gruppe 40779" transform="translate(127.934 -45.293)">
      <path id="Pfad_39949" data-name="Pfad 39949" d="M0,6.162v-17.5" transform="translate(0 11.339)" fill="none" stroke="#fff" stroke-width="0.5"/>
    </g>
    <g id="Gruppe_40780" data-name="Gruppe 40780" transform="translate(162.934 -45.293)">
      <path id="Pfad_39950" data-name="Pfad 39950" d="M0,6.162v-17.5" transform="translate(0 11.339)" fill="none" stroke="#fff" stroke-width="0.5"/>
    </g>
    <g id="Gruppe_40781" data-name="Gruppe 40781" transform="translate(197.934 -45.293)">
      <path id="Pfad_39951" data-name="Pfad 39951" d="M0,6.162v-17.5" transform="translate(0 11.339)" fill="none" stroke="#fff" stroke-width="0.5"/>
    </g>
    <g id="Gruppe_40782" data-name="Gruppe 40782" transform="translate(57.934 -5.918)">
      <path id="Pfad_39952" data-name="Pfad 39952" d="M0,6.162v-17.5" transform="translate(0 11.339)" fill="none" stroke="#fff" stroke-width="0.5"/>
    </g>
    <g id="Gruppe_40783" data-name="Gruppe 40783" transform="translate(92.934 -5.918)">
      <path id="Pfad_39953" data-name="Pfad 39953" d="M0,6.162v-17.5" transform="translate(0 11.339)" fill="none" stroke="#fff" stroke-width="0.5"/>
    </g>
    <g id="Gruppe_40784" data-name="Gruppe 40784" transform="translate(127.934 -5.918)">
      <path id="Pfad_39954" data-name="Pfad 39954" d="M0,6.162v-17.5" transform="translate(0 11.339)" fill="none" stroke="#fff" stroke-width="0.5"/>
    </g>
    <g id="Gruppe_40785" data-name="Gruppe 40785" transform="translate(162.934 -5.918)">
      <path id="Pfad_39955" data-name="Pfad 39955" d="M0,6.162v-17.5" transform="translate(0 11.339)" fill="none" stroke="#fff" stroke-width="0.5"/>
    </g>
    <g id="Gruppe_40786" data-name="Gruppe 40786" transform="translate(197.934 -5.918)">
      <path id="Pfad_39956" data-name="Pfad 39956" d="M0,6.162v-17.5" transform="translate(0 11.339)" fill="none" stroke="#fff" stroke-width="0.5"/>
    </g>
    <g id="Gruppe_40787" data-name="Gruppe 40787" transform="translate(57.934 -58.417)">
      <path id="Pfad_39957" data-name="Pfad 39957" d="M0,4.621V-8.5" transform="translate(0 8.504)" fill="none" stroke="#519545" stroke-width="0.5"/>
    </g>
    <g id="Gruppe_40788" data-name="Gruppe 40788" transform="translate(92.934 -58.417)">
      <path id="Pfad_39958" data-name="Pfad 39958" d="M0,4.621V-8.5" transform="translate(0 8.504)" fill="none" stroke="#519545" stroke-width="0.5"/>
    </g>
    <g id="Gruppe_40789" data-name="Gruppe 40789" transform="translate(127.934 -58.417)">
      <path id="Pfad_39959" data-name="Pfad 39959" d="M0,4.621V-8.5" transform="translate(0 8.504)" fill="none" stroke="#519545" stroke-width="0.5"/>
    </g>
    <g id="Gruppe_40790" data-name="Gruppe 40790" transform="translate(162.934 -58.417)">
      <path id="Pfad_39960" data-name="Pfad 39960" d="M0,4.621V-8.5" transform="translate(0 8.504)" fill="none" stroke="#519545" stroke-width="0.5"/>
    </g>
    <g id="Gruppe_40791" data-name="Gruppe 40791" transform="translate(197.934 -58.417)">
      <path id="Pfad_39961" data-name="Pfad 39961" d="M0,4.621V-8.5" transform="translate(0 8.504)" fill="none" stroke="#519545" stroke-width="0.5"/>
    </g>
    <g id="Gruppe_40792" data-name="Gruppe 40792" transform="translate(57.934 -19.042)">
      <path id="Pfad_39962" data-name="Pfad 39962" d="M0,4.621V-8.5" transform="translate(0 8.504)" fill="none" stroke="#519545" stroke-width="0.5"/>
    </g>
    <g id="Gruppe_40793" data-name="Gruppe 40793" transform="translate(92.934 -19.042)">
      <path id="Pfad_39963" data-name="Pfad 39963" d="M0,4.621V-8.5" transform="translate(0 8.504)" fill="none" stroke="#519545" stroke-width="0.5"/>
    </g>
    <g id="Gruppe_40794" data-name="Gruppe 40794" transform="translate(127.934 -19.042)">
      <path id="Pfad_39964" data-name="Pfad 39964" d="M0,4.621V-8.5" transform="translate(0 8.504)" fill="none" stroke="#519545" stroke-width="0.5"/>
    </g>
    <g id="Gruppe_40795" data-name="Gruppe 40795" transform="translate(162.934 -19.042)">
      <path id="Pfad_39965" data-name="Pfad 39965" d="M0,4.621V-8.5" transform="translate(0 8.504)" fill="none" stroke="#519545" stroke-width="0.5"/>
    </g>
    <g id="Gruppe_40796" data-name="Gruppe 40796" transform="translate(197.934 -19.042)">
      <path id="Pfad_39966" data-name="Pfad 39966" d="M0,4.621V-8.5" transform="translate(0 8.504)" fill="none" stroke="#519545" stroke-width="0.5"/>
    </g>
    <g id="Gruppe" transform="translate(31.461 -56.74)">
      <text id="JAN" transform="translate(0 9)" fill="#2b2e34" font-size="9" font-family="BrandonGrotesque-Regular, Brandon Grotesque" letter-spacing="0.045em"><tspan x="0" y="0">JAN</tspan></text>
      <text id="FEB" transform="translate(35.773 9)" fill="#2b2e34" font-size="9" font-family="BrandonGrotesque-Regular, Brandon Grotesque" letter-spacing="-0.01em"><tspan x="0" y="0">FEB</tspan></text>
      <text id="MAR" transform="translate(68.925 9)" fill="#2b2e34" font-size="9" font-family="BrandonGrotesque-Regular, Brandon Grotesque" letter-spacing="-0.01em"><tspan x="0" y="0">MAR</tspan></text>
      <text id="APR" transform="translate(105.161 8)" fill="#2b2e34" font-size="8" font-family="BrandonGrotesque-Regular, Brandon Grotesque" letter-spacing="-0.01em"><tspan x="0" y="0">APR</tspan></text>
      <text id="M" transform="translate(139.601 8)" fill="#2b2e34" font-size="8" font-family="BrandonGrotesque-Regular, Brandon Grotesque" letter-spacing="-0.058em"><tspan x="0" y="0">M</tspan></text>
      <text id="AY" transform="translate(147.491 9)" fill="#2b2e34" font-size="9" font-family="BrandonGrotesque-Regular, Brandon Grotesque" letter-spacing="-0.058em"><tspan x="0" y="0">AY</tspan></text>
      <text id="JUN" transform="translate(175.281 8)" fill="#2b2e34" font-size="8" font-family="BrandonGrotesque-Regular, Brandon Grotesque" letter-spacing="-0.01em"><tspan x="0" y="0">JUN</tspan></text>
      <text id="JUL" transform="translate(1.083 48.375)" fill="#2b2e34" font-size="9" font-family="BrandonGrotesque-Regular, Brandon Grotesque" letter-spacing="0.045em"><tspan x="0" y="0">JUL</tspan></text>
      <text id="AUG" transform="translate(34.319 47.375)" fill="#2b2e34" font-size="8" font-family="BrandonGrotesque-Regular, Brandon Grotesque" letter-spacing="-0.017em"><tspan x="0" y="0">AUG</tspan></text>
      <text id="SEP" transform="translate(71.092 48.375)" fill="#2b2e34" font-size="9" font-family="BrandonGrotesque-Regular, Brandon Grotesque" letter-spacing="-0.01em"><tspan x="0" y="0">SEP</tspan></text>
      <text id="OCT" transform="translate(104.772 48.375)" fill="#2b2e34" font-size="9" font-family="BrandonGrotesque-Regular, Brandon Grotesque" letter-spacing="-0.01em"><tspan x="0" y="0">OCT</tspan></text>
      <text id="NOV" transform="translate(138.619 48.375)" fill="#2b2e34" font-size="9" font-family="BrandonGrotesque-Regular, Brandon Grotesque" letter-spacing="-0.014em"><tspan x="0" y="0">NOV</tspan></text>
      <text id="DEC" transform="translate(174.605 48.375)" fill="#2b2e34" font-size="9" font-family="BrandonGrotesque-Regular, Brandon Grotesque" letter-spacing="-0.013em"><tspan x="0" y="0">DEC</tspan></text>
    </g>
  </g>
</svg>
