<svg xmlns="http://www.w3.org/2000/svg" width="211" height="70.001" viewBox="0 0 211 70.001">
  <g id="Gruppe_40713" data-name="Gruppe 40713" transform="translate(-22.434 58.417)">
    <path id="Pfad_39853" data-name="Pfad 39853" d="M22.934-49.913h35v17.5h-35Zm35,0h35v17.5h-35Zm35,0h35v17.5h-35Zm35,0h35v17.5h-35Zm35,0h35v17.5h-35Zm35,0h35v17.5h-35Zm-175,39.375h35v17.5h-35Zm35,0h35v17.5h-35Zm35,0h35v17.5h-35Zm35,0h35v17.5h-35Zm35,0h35v17.5h-35Zm35,0h35v17.5h-35Z" transform="translate(0 4.621)" fill="#519545"/>
    <g id="Gruppe_40686" data-name="Gruppe 40686" transform="translate(22.934 -58.417)">
      <path id="Pfad_39854" data-name="Pfad 39854" d="M0,4.621V-8.5" transform="translate(0 8.504)" fill="none" stroke="#fff" stroke-width="1"/>
    </g>
    <g id="Gruppe_40687" data-name="Gruppe 40687" transform="translate(22.934 -45.293)">
      <path id="Pfad_39855" data-name="Pfad 39855" d="M0,6.162v-17.5" transform="translate(0 11.339)" fill="none" stroke="#fff" stroke-width="1"/>
    </g>
    <g id="Gruppe_40688" data-name="Gruppe 40688" transform="translate(232.934 -45.293)">
      <path id="Pfad_39856" data-name="Pfad 39856" d="M0,6.162v-17.5" transform="translate(0 11.339)" fill="none" stroke="#fff" stroke-width="1"/>
    </g>
    <g id="Gruppe_40689" data-name="Gruppe 40689" transform="translate(22.934 -27.791)">
      <path id="Pfad_39857" data-name="Pfad 39857" d="M0,3.081v-8.75" transform="translate(0 5.669)" fill="none" stroke="#fff" stroke-width="1"/>
    </g>
    <g id="Gruppe_40690" data-name="Gruppe 40690" transform="translate(22.934 -19.042)">
      <path id="Pfad_39858" data-name="Pfad 39858" d="M0,4.621V-8.5" transform="translate(0 8.504)" fill="none" stroke="#fff" stroke-width="1"/>
    </g>
    <g id="Gruppe_40691" data-name="Gruppe 40691" transform="translate(22.934 -5.918)">
      <path id="Pfad_39859" data-name="Pfad 39859" d="M0,6.162v-17.5" transform="translate(0 11.339)" fill="none" stroke="#fff" stroke-width="1"/>
    </g>
    <g id="Gruppe_40692" data-name="Gruppe 40692" transform="translate(232.934 -5.918)">
      <path id="Pfad_39860" data-name="Pfad 39860" d="M0,6.162v-17.5" transform="translate(0 11.339)" fill="none" stroke="#fff" stroke-width="1"/>
    </g>
    <g id="Gruppe_40693" data-name="Gruppe 40693" transform="translate(57.934 -45.293)">
      <path id="Pfad_39861" data-name="Pfad 39861" d="M0,6.162v-17.5" transform="translate(0 11.339)" fill="none" stroke="#fff" stroke-width="0.5"/>
    </g>
    <g id="Gruppe_40694" data-name="Gruppe 40694" transform="translate(92.934 -45.293)">
      <path id="Pfad_39862" data-name="Pfad 39862" d="M0,6.162v-17.5" transform="translate(0 11.339)" fill="none" stroke="#fff" stroke-width="0.5"/>
    </g>
    <g id="Gruppe_40695" data-name="Gruppe 40695" transform="translate(127.934 -45.293)">
      <path id="Pfad_39863" data-name="Pfad 39863" d="M0,6.162v-17.5" transform="translate(0 11.339)" fill="none" stroke="#fff" stroke-width="0.5"/>
    </g>
    <g id="Gruppe_40696" data-name="Gruppe 40696" transform="translate(162.934 -45.293)">
      <path id="Pfad_39864" data-name="Pfad 39864" d="M0,6.162v-17.5" transform="translate(0 11.339)" fill="none" stroke="#fff" stroke-width="0.5"/>
    </g>
    <g id="Gruppe_40697" data-name="Gruppe 40697" transform="translate(197.934 -45.293)">
      <path id="Pfad_39865" data-name="Pfad 39865" d="M0,6.162v-17.5" transform="translate(0 11.339)" fill="none" stroke="#fff" stroke-width="0.5"/>
    </g>
    <g id="Gruppe_40698" data-name="Gruppe 40698" transform="translate(57.934 -5.918)">
      <path id="Pfad_39866" data-name="Pfad 39866" d="M0,6.162v-17.5" transform="translate(0 11.339)" fill="none" stroke="#fff" stroke-width="0.5"/>
    </g>
    <g id="Gruppe_40699" data-name="Gruppe 40699" transform="translate(92.934 -5.918)">
      <path id="Pfad_39867" data-name="Pfad 39867" d="M0,6.162v-17.5" transform="translate(0 11.339)" fill="none" stroke="#fff" stroke-width="0.5"/>
    </g>
    <g id="Gruppe_40700" data-name="Gruppe 40700" transform="translate(127.934 -5.918)">
      <path id="Pfad_39868" data-name="Pfad 39868" d="M0,6.162v-17.5" transform="translate(0 11.339)" fill="none" stroke="#fff" stroke-width="0.5"/>
    </g>
    <g id="Gruppe_40701" data-name="Gruppe 40701" transform="translate(162.934 -5.918)">
      <path id="Pfad_39869" data-name="Pfad 39869" d="M0,6.162v-17.5" transform="translate(0 11.339)" fill="none" stroke="#fff" stroke-width="0.5"/>
    </g>
    <g id="Gruppe_40702" data-name="Gruppe 40702" transform="translate(197.934 -5.918)">
      <path id="Pfad_39870" data-name="Pfad 39870" d="M0,6.162v-17.5" transform="translate(0 11.339)" fill="none" stroke="#fff" stroke-width="0.5"/>
    </g>
    <g id="Gruppe_40703" data-name="Gruppe 40703" transform="translate(57.934 -58.417)">
      <path id="Pfad_39871" data-name="Pfad 39871" d="M0,4.621V-8.5" transform="translate(0 8.504)" fill="none" stroke="#519545" stroke-width="0.5"/>
    </g>
    <g id="Gruppe_40704" data-name="Gruppe 40704" transform="translate(92.934 -58.417)">
      <path id="Pfad_39872" data-name="Pfad 39872" d="M0,4.621V-8.5" transform="translate(0 8.504)" fill="none" stroke="#519545" stroke-width="0.5"/>
    </g>
    <g id="Gruppe_40705" data-name="Gruppe 40705" transform="translate(127.934 -58.417)">
      <path id="Pfad_39873" data-name="Pfad 39873" d="M0,4.621V-8.5" transform="translate(0 8.504)" fill="none" stroke="#519545" stroke-width="0.5"/>
    </g>
    <g id="Gruppe_40706" data-name="Gruppe 40706" transform="translate(162.934 -58.417)">
      <path id="Pfad_39874" data-name="Pfad 39874" d="M0,4.621V-8.5" transform="translate(0 8.504)" fill="none" stroke="#519545" stroke-width="0.5"/>
    </g>
    <g id="Gruppe_40707" data-name="Gruppe 40707" transform="translate(197.934 -58.417)">
      <path id="Pfad_39875" data-name="Pfad 39875" d="M0,4.621V-8.5" transform="translate(0 8.504)" fill="none" stroke="#519545" stroke-width="0.5"/>
    </g>
    <g id="Gruppe_40708" data-name="Gruppe 40708" transform="translate(57.934 -19.042)">
      <path id="Pfad_39876" data-name="Pfad 39876" d="M0,4.621V-8.5" transform="translate(0 8.504)" fill="none" stroke="#519545" stroke-width="0.5"/>
    </g>
    <g id="Gruppe_40709" data-name="Gruppe 40709" transform="translate(92.934 -19.042)">
      <path id="Pfad_39877" data-name="Pfad 39877" d="M0,4.621V-8.5" transform="translate(0 8.504)" fill="none" stroke="#519545" stroke-width="0.5"/>
    </g>
    <g id="Gruppe_40710" data-name="Gruppe 40710" transform="translate(127.934 -19.042)">
      <path id="Pfad_39878" data-name="Pfad 39878" d="M0,4.621V-8.5" transform="translate(0 8.504)" fill="none" stroke="#519545" stroke-width="0.5"/>
    </g>
    <g id="Gruppe_40711" data-name="Gruppe 40711" transform="translate(162.934 -19.042)">
      <path id="Pfad_39879" data-name="Pfad 39879" d="M0,4.621V-8.5" transform="translate(0 8.504)" fill="none" stroke="#519545" stroke-width="0.5"/>
    </g>
    <g id="Gruppe_40712" data-name="Gruppe 40712" transform="translate(197.934 -19.042)">
      <path id="Pfad_39880" data-name="Pfad 39880" d="M0,4.621V-8.5" transform="translate(0 8.504)" fill="none" stroke="#519545" stroke-width="0.5"/>
    </g>
    <g id="Gruppe" transform="translate(31.461 -56.74)">
      <text id="JAN" transform="translate(0 9)" fill="#2b2e34" font-size="9" font-family="BrandonGrotesque-Regular, Brandon Grotesque" letter-spacing="0.045em"><tspan x="0" y="0">JAN</tspan></text>
      <text id="FEB" transform="translate(35.773 9)" fill="#2b2e34" font-size="9" font-family="BrandonGrotesque-Regular, Brandon Grotesque" letter-spacing="-0.01em"><tspan x="0" y="0">FEB</tspan></text>
      <text id="MAR" transform="translate(68.925 9)" fill="#2b2e34" font-size="9" font-family="BrandonGrotesque-Regular, Brandon Grotesque" letter-spacing="-0.01em"><tspan x="0" y="0">MAR</tspan></text>
      <text id="APR" transform="translate(105.161 8)" fill="#2b2e34" font-size="8" font-family="BrandonGrotesque-Regular, Brandon Grotesque" letter-spacing="-0.01em"><tspan x="0" y="0">APR</tspan></text>
      <text id="M" transform="translate(139.601 8)" fill="#2b2e34" font-size="8" font-family="BrandonGrotesque-Regular, Brandon Grotesque" letter-spacing="-0.058em"><tspan x="0" y="0">M</tspan></text>
      <text id="AY" transform="translate(147.491 9)" fill="#2b2e34" font-size="9" font-family="BrandonGrotesque-Regular, Brandon Grotesque" letter-spacing="-0.058em"><tspan x="0" y="0">AY</tspan></text>
      <text id="JUN" transform="translate(175.281 8)" fill="#2b2e34" font-size="8" font-family="BrandonGrotesque-Regular, Brandon Grotesque" letter-spacing="-0.01em"><tspan x="0" y="0">JUN</tspan></text>
      <text id="JUL" transform="translate(1.083 48.375)" fill="#2b2e34" font-size="9" font-family="BrandonGrotesque-Regular, Brandon Grotesque" letter-spacing="0.045em"><tspan x="0" y="0">JUL</tspan></text>
      <text id="AUG" transform="translate(34.319 47.375)" fill="#2b2e34" font-size="8" font-family="BrandonGrotesque-Regular, Brandon Grotesque" letter-spacing="-0.017em"><tspan x="0" y="0">AUG</tspan></text>
      <text id="SEP" transform="translate(71.092 48.375)" fill="#2b2e34" font-size="9" font-family="BrandonGrotesque-Regular, Brandon Grotesque" letter-spacing="-0.01em"><tspan x="0" y="0">SEP</tspan></text>
      <text id="OCT" transform="translate(104.772 48.375)" fill="#2b2e34" font-size="9" font-family="BrandonGrotesque-Regular, Brandon Grotesque" letter-spacing="-0.01em"><tspan x="0" y="0">OCT</tspan></text>
      <text id="NOV" transform="translate(138.619 48.375)" fill="#2b2e34" font-size="9" font-family="BrandonGrotesque-Regular, Brandon Grotesque" letter-spacing="-0.014em"><tspan x="0" y="0">NOV</tspan></text>
      <text id="DEC" transform="translate(174.605 48.375)" fill="#2b2e34" font-size="9" font-family="BrandonGrotesque-Regular, Brandon Grotesque" letter-spacing="-0.013em"><tspan x="0" y="0">DEC</tspan></text>
    </g>
  </g>
</svg>
