<svg xmlns="http://www.w3.org/2000/svg" width="210.88" height="69.961" viewBox="0 0 210.88 69.961">
  <g id="Gruppe_47933" data-name="Gruppe 47933" transform="translate(-22.434 58.417)">
    <path id="Pfad_48558" data-name="Pfad 48558" d="M22.934-49.913h34.98v17.491H22.934Zm34.98,0h34.98v17.491H57.914Zm34.98,0h34.98v17.491H92.894Zm34.981,0h34.98v17.491h-34.98Zm34.98,0h34.98v17.491h-34.98Zm34.98,0h34.98v17.491h-34.98ZM22.934-10.56h34.98V6.93H22.934Zm34.98,0h34.98V6.93H57.914Zm34.98,0h34.98V6.93H92.894Zm34.981,0h34.98V6.93h-34.98Zm34.98,0h34.98V6.93h-34.98Zm34.98,0h34.98V6.93h-34.98Z" transform="translate(0 4.614)" fill="#519545"/>
    <g id="Gruppe_47906" data-name="Gruppe 47906" transform="translate(22.934 -58.417)">
      <path id="Pfad_48559" data-name="Pfad 48559" d="M0,4.614V-8.5" transform="translate(0 8.504)" fill="none" stroke="#fff" stroke-width="1"/>
    </g>
    <g id="Gruppe_47907" data-name="Gruppe 47907" transform="translate(22.934 -45.3)">
      <path id="Pfad_48560" data-name="Pfad 48560" d="M0,6.152V-11.339" transform="translate(0 11.339)" fill="none" stroke="#fff" stroke-width="1"/>
    </g>
    <g id="Gruppe_47908" data-name="Gruppe 47908" transform="translate(232.814 -45.3)">
      <path id="Pfad_48561" data-name="Pfad 48561" d="M0,6.152V-11.339" transform="translate(0 11.339)" fill="none" stroke="#fff" stroke-width="1"/>
    </g>
    <g id="Gruppe_47909" data-name="Gruppe 47909" transform="translate(22.934 -27.809)">
      <path id="Pfad_48562" data-name="Pfad 48562" d="M0,3.076V-5.669" transform="translate(0 5.669)" fill="none" stroke="#fff" stroke-width="1"/>
    </g>
    <g id="Gruppe_47910" data-name="Gruppe 47910" transform="translate(22.934 -19.065)">
      <path id="Pfad_48563" data-name="Pfad 48563" d="M0,4.614V-8.5" transform="translate(0 8.504)" fill="none" stroke="#fff" stroke-width="1"/>
    </g>
    <g id="Gruppe_47911" data-name="Gruppe 47911" transform="translate(22.934 -5.948)">
      <path id="Pfad_48564" data-name="Pfad 48564" d="M0,6.152V-11.339" transform="translate(0 11.339)" fill="none" stroke="#fff" stroke-width="1"/>
    </g>
    <g id="Gruppe_47912" data-name="Gruppe 47912" transform="translate(232.814 -5.948)">
      <path id="Pfad_48565" data-name="Pfad 48565" d="M0,6.152V-11.339" transform="translate(0 11.339)" fill="none" stroke="#fff" stroke-width="1"/>
    </g>
    <g id="Gruppe_47913" data-name="Gruppe 47913" transform="translate(57.914 -45.3)">
      <path id="Pfad_48566" data-name="Pfad 48566" d="M0,6.152V-11.339" transform="translate(0 11.339)" fill="none" stroke="#fff" stroke-width="0.5"/>
    </g>
    <g id="Gruppe_47914" data-name="Gruppe 47914" transform="translate(92.894 -45.3)">
      <path id="Pfad_48567" data-name="Pfad 48567" d="M0,6.152V-11.339" transform="translate(0 11.339)" fill="none" stroke="#fff" stroke-width="0.5"/>
    </g>
    <g id="Gruppe_47915" data-name="Gruppe 47915" transform="translate(127.874 -45.3)">
      <path id="Pfad_48568" data-name="Pfad 48568" d="M0,6.152V-11.339" transform="translate(0 11.339)" fill="none" stroke="#fff" stroke-width="0.5"/>
    </g>
    <g id="Gruppe_47916" data-name="Gruppe 47916" transform="translate(162.854 -45.3)">
      <path id="Pfad_48569" data-name="Pfad 48569" d="M0,6.152V-11.339" transform="translate(0 11.339)" fill="none" stroke="#fff" stroke-width="0.5"/>
    </g>
    <g id="Gruppe_47917" data-name="Gruppe 47917" transform="translate(197.834 -45.3)">
      <path id="Pfad_48570" data-name="Pfad 48570" d="M0,6.152V-11.339" transform="translate(0 11.339)" fill="none" stroke="#fff" stroke-width="0.5"/>
    </g>
    <g id="Gruppe_47918" data-name="Gruppe 47918" transform="translate(57.914 -5.948)">
      <path id="Pfad_48571" data-name="Pfad 48571" d="M0,6.152V-11.339" transform="translate(0 11.339)" fill="none" stroke="#fff" stroke-width="0.5"/>
    </g>
    <g id="Gruppe_47919" data-name="Gruppe 47919" transform="translate(92.894 -5.948)">
      <path id="Pfad_48572" data-name="Pfad 48572" d="M0,6.152V-11.339" transform="translate(0 11.339)" fill="none" stroke="#fff" stroke-width="0.5"/>
    </g>
    <g id="Gruppe_47920" data-name="Gruppe 47920" transform="translate(127.874 -5.948)">
      <path id="Pfad_48573" data-name="Pfad 48573" d="M0,6.152V-11.339" transform="translate(0 11.339)" fill="none" stroke="#fff" stroke-width="0.5"/>
    </g>
    <g id="Gruppe_47921" data-name="Gruppe 47921" transform="translate(162.854 -5.948)">
      <path id="Pfad_48574" data-name="Pfad 48574" d="M0,6.152V-11.339" transform="translate(0 11.339)" fill="none" stroke="#fff" stroke-width="0.5"/>
    </g>
    <g id="Gruppe_47922" data-name="Gruppe 47922" transform="translate(197.834 -5.948)">
      <path id="Pfad_48575" data-name="Pfad 48575" d="M0,6.152V-11.339" transform="translate(0 11.339)" fill="none" stroke="#fff" stroke-width="0.5"/>
    </g>
    <g id="Gruppe_47923" data-name="Gruppe 47923" transform="translate(57.914 -58.417)">
      <path id="Pfad_48576" data-name="Pfad 48576" d="M0,4.614V-8.5" transform="translate(0 8.504)" fill="none" stroke="#519545" stroke-width="0.5"/>
    </g>
    <g id="Gruppe_47924" data-name="Gruppe 47924" transform="translate(92.894 -58.417)">
      <path id="Pfad_48577" data-name="Pfad 48577" d="M0,4.614V-8.5" transform="translate(0 8.504)" fill="none" stroke="#519545" stroke-width="0.5"/>
    </g>
    <g id="Gruppe_47925" data-name="Gruppe 47925" transform="translate(127.874 -58.417)">
      <path id="Pfad_48578" data-name="Pfad 48578" d="M0,4.614V-8.5" transform="translate(0 8.504)" fill="none" stroke="#519545" stroke-width="0.5"/>
    </g>
    <g id="Gruppe_47926" data-name="Gruppe 47926" transform="translate(162.854 -58.417)">
      <path id="Pfad_48579" data-name="Pfad 48579" d="M0,4.614V-8.5" transform="translate(0 8.504)" fill="none" stroke="#519545" stroke-width="0.5"/>
    </g>
    <g id="Gruppe_47927" data-name="Gruppe 47927" transform="translate(197.834 -58.417)">
      <path id="Pfad_48580" data-name="Pfad 48580" d="M0,4.614V-8.5" transform="translate(0 8.504)" fill="none" stroke="#519545" stroke-width="0.5"/>
    </g>
    <g id="Gruppe_47928" data-name="Gruppe 47928" transform="translate(57.914 -19.065)">
      <path id="Pfad_48581" data-name="Pfad 48581" d="M0,4.614V-8.5" transform="translate(0 8.504)" fill="none" stroke="#519545" stroke-width="0.5"/>
    </g>
    <g id="Gruppe_47929" data-name="Gruppe 47929" transform="translate(92.894 -19.065)">
      <path id="Pfad_48582" data-name="Pfad 48582" d="M0,4.614V-8.5" transform="translate(0 8.504)" fill="none" stroke="#519545" stroke-width="0.5"/>
    </g>
    <g id="Gruppe_47930" data-name="Gruppe 47930" transform="translate(127.874 -19.065)">
      <path id="Pfad_48583" data-name="Pfad 48583" d="M0,4.614V-8.5" transform="translate(0 8.504)" fill="none" stroke="#519545" stroke-width="0.5"/>
    </g>
    <g id="Gruppe_47931" data-name="Gruppe 47931" transform="translate(162.854 -19.065)">
      <path id="Pfad_48584" data-name="Pfad 48584" d="M0,4.614V-8.5" transform="translate(0 8.504)" fill="none" stroke="#519545" stroke-width="0.5"/>
    </g>
    <g id="Gruppe_47932" data-name="Gruppe 47932" transform="translate(197.834 -19.065)">
      <path id="Pfad_48585" data-name="Pfad 48585" d="M0,4.614V-8.5" transform="translate(0 8.504)" fill="none" stroke="#519545" stroke-width="0.5"/>
    </g>
    <g id="Gruppe" transform="translate(31.456 -56.741)">
      <text id="JAN" transform="translate(0 9)" fill="#2b2e34" font-size="9" font-family="BrandonGrotesque-Regular, Brandon Grotesque" letter-spacing="0.045em"><tspan x="0" y="0">JAN</tspan></text>
      <text id="FEB" transform="translate(35.753 9)" fill="#2b2e34" font-size="9" font-family="BrandonGrotesque-Regular, Brandon Grotesque" letter-spacing="-0.01em"><tspan x="0" y="0">FEB</tspan></text>
      <text id="MAR" transform="translate(68.886 9)" fill="#2b2e34" font-size="9" font-family="BrandonGrotesque-Regular, Brandon Grotesque" letter-spacing="-0.01em"><tspan x="0" y="0">MAR</tspan></text>
      <text id="APR" transform="translate(105.101 8)" fill="#2b2e34" font-size="8" font-family="BrandonGrotesque-Regular, Brandon Grotesque" letter-spacing="-0.01em"><tspan x="0" y="0">APR</tspan></text>
      <text id="M" transform="translate(139.521 8)" fill="#2b2e34" font-size="8" font-family="BrandonGrotesque-Regular, Brandon Grotesque" letter-spacing="-0.058em"><tspan x="0" y="0">M</tspan></text>
      <text id="AY" transform="translate(147.407 9)" fill="#2b2e34" font-size="9" font-family="BrandonGrotesque-Regular, Brandon Grotesque" letter-spacing="-0.058em"><tspan x="0" y="0">AY</tspan></text>
      <text id="JUN" transform="translate(175.181 8)" fill="#2b2e34" font-size="8" font-family="BrandonGrotesque-Regular, Brandon Grotesque" letter-spacing="-0.01em"><tspan x="0" y="0">JUN</tspan></text>
      <text id="JUL" transform="translate(1.083 48.353)" fill="#2b2e34" font-size="9" font-family="BrandonGrotesque-Regular, Brandon Grotesque" letter-spacing="0.045em"><tspan x="0" y="0">JUL</tspan></text>
      <text id="AUG" transform="translate(34.3 47.353)" fill="#2b2e34" font-size="8" font-family="BrandonGrotesque-Regular, Brandon Grotesque" letter-spacing="-0.017em"><tspan x="0" y="0">AUG</tspan></text>
      <text id="SEP" transform="translate(71.052 48.353)" fill="#2b2e34" font-size="9" font-family="BrandonGrotesque-Regular, Brandon Grotesque" letter-spacing="-0.01em"><tspan x="0" y="0">SEP</tspan></text>
      <text id="OCT" transform="translate(104.713 48.353)" fill="#2b2e34" font-size="9" font-family="BrandonGrotesque-Regular, Brandon Grotesque" letter-spacing="-0.01em"><tspan x="0" y="0">OCT</tspan></text>
      <text id="NOV" transform="translate(138.54 48.353)" fill="#2b2e34" font-size="9" font-family="BrandonGrotesque-Regular, Brandon Grotesque" letter-spacing="-0.014em"><tspan x="0" y="0">NOV</tspan></text>
      <text id="DEC" transform="translate(174.506 48.353)" fill="#2b2e34" font-size="9" font-family="BrandonGrotesque-Regular, Brandon Grotesque" letter-spacing="-0.013em"><tspan x="0" y="0">DEC</tspan></text>
    </g>
  </g>
</svg>
