<svg xmlns="http://www.w3.org/2000/svg" width="211" height="70.001" viewBox="0 0 211 70.001">
  <g id="Gruppe_40741" data-name="Gruppe 40741" transform="translate(-22.434 58.417)">
    <path id="Pfad_39881" data-name="Pfad 39881" d="M22.934-49.913h35v17.5h-35Zm35,0h35v17.5h-35Zm35,0h35v17.5h-35Zm35,0h35v17.5h-35Zm35,0h35v17.5h-35Zm0,39.375h35v17.5h-35Zm35,0h35v17.5h-35Z" transform="translate(0 4.621)" fill="#519545"/>
    <path id="Pfad_39882" data-name="Pfad 39882" d="M197.934-49.913h35v17.5h-35Zm-175,39.375h35v17.5h-35Zm35,0h35v17.5h-35Zm35,0h35v17.5h-35Zm35,0h35v17.5h-35Z" transform="translate(0 4.621)" fill="#bbd4b3"/>
    <g id="Gruppe_40714" data-name="Gruppe 40714" transform="translate(22.934 -58.417)">
      <path id="Pfad_39883" data-name="Pfad 39883" d="M0,4.621V-8.5" transform="translate(0 8.504)" fill="none" stroke="#fff" stroke-width="1"/>
    </g>
    <g id="Gruppe_40715" data-name="Gruppe 40715" transform="translate(22.934 -45.293)">
      <path id="Pfad_39884" data-name="Pfad 39884" d="M0,6.162v-17.5" transform="translate(0 11.339)" fill="none" stroke="#fff" stroke-width="1"/>
    </g>
    <g id="Gruppe_40716" data-name="Gruppe 40716" transform="translate(232.934 -45.293)">
      <path id="Pfad_39885" data-name="Pfad 39885" d="M0,6.162v-17.5" transform="translate(0 11.339)" fill="none" stroke="#fff" stroke-width="1"/>
    </g>
    <g id="Gruppe_40717" data-name="Gruppe 40717" transform="translate(22.934 -27.791)">
      <path id="Pfad_39886" data-name="Pfad 39886" d="M0,3.081v-8.75" transform="translate(0 5.669)" fill="none" stroke="#fff" stroke-width="1"/>
    </g>
    <g id="Gruppe_40718" data-name="Gruppe 40718" transform="translate(22.934 -19.042)">
      <path id="Pfad_39887" data-name="Pfad 39887" d="M0,4.621V-8.5" transform="translate(0 8.504)" fill="none" stroke="#fff" stroke-width="1"/>
    </g>
    <g id="Gruppe_40719" data-name="Gruppe 40719" transform="translate(22.934 -5.918)">
      <path id="Pfad_39888" data-name="Pfad 39888" d="M0,6.162v-17.5" transform="translate(0 11.339)" fill="none" stroke="#fff" stroke-width="1"/>
    </g>
    <g id="Gruppe_40720" data-name="Gruppe 40720" transform="translate(232.934 -5.918)">
      <path id="Pfad_39889" data-name="Pfad 39889" d="M0,6.162v-17.5" transform="translate(0 11.339)" fill="none" stroke="#fff" stroke-width="1"/>
    </g>
    <g id="Gruppe_40721" data-name="Gruppe 40721" transform="translate(57.934 -45.293)">
      <path id="Pfad_39890" data-name="Pfad 39890" d="M0,6.162v-17.5" transform="translate(0 11.339)" fill="none" stroke="#fff" stroke-width="0.5"/>
    </g>
    <g id="Gruppe_40722" data-name="Gruppe 40722" transform="translate(92.934 -45.293)">
      <path id="Pfad_39891" data-name="Pfad 39891" d="M0,6.162v-17.5" transform="translate(0 11.339)" fill="none" stroke="#fff" stroke-width="0.5"/>
    </g>
    <g id="Gruppe_40723" data-name="Gruppe 40723" transform="translate(127.934 -45.293)">
      <path id="Pfad_39892" data-name="Pfad 39892" d="M0,6.162v-17.5" transform="translate(0 11.339)" fill="none" stroke="#fff" stroke-width="0.5"/>
    </g>
    <g id="Gruppe_40724" data-name="Gruppe 40724" transform="translate(162.934 -45.293)">
      <path id="Pfad_39893" data-name="Pfad 39893" d="M0,6.162v-17.5" transform="translate(0 11.339)" fill="none" stroke="#fff" stroke-width="0.5"/>
    </g>
    <g id="Gruppe_40725" data-name="Gruppe 40725" transform="translate(197.934 -45.293)">
      <path id="Pfad_39894" data-name="Pfad 39894" d="M0,6.162v-17.5" transform="translate(0 11.339)" fill="none" stroke="#fff" stroke-width="0.5"/>
    </g>
    <g id="Gruppe_40726" data-name="Gruppe 40726" transform="translate(57.934 -5.918)">
      <path id="Pfad_39895" data-name="Pfad 39895" d="M0,6.162v-17.5" transform="translate(0 11.339)" fill="none" stroke="#fff" stroke-width="0.5"/>
    </g>
    <g id="Gruppe_40727" data-name="Gruppe 40727" transform="translate(92.934 -5.918)">
      <path id="Pfad_39896" data-name="Pfad 39896" d="M0,6.162v-17.5" transform="translate(0 11.339)" fill="none" stroke="#fff" stroke-width="0.5"/>
    </g>
    <g id="Gruppe_40728" data-name="Gruppe 40728" transform="translate(127.934 -5.918)">
      <path id="Pfad_39897" data-name="Pfad 39897" d="M0,6.162v-17.5" transform="translate(0 11.339)" fill="none" stroke="#fff" stroke-width="0.5"/>
    </g>
    <g id="Gruppe_40729" data-name="Gruppe 40729" transform="translate(162.934 -5.918)">
      <path id="Pfad_39898" data-name="Pfad 39898" d="M0,6.162v-17.5" transform="translate(0 11.339)" fill="none" stroke="#fff" stroke-width="0.5"/>
    </g>
    <g id="Gruppe_40730" data-name="Gruppe 40730" transform="translate(197.934 -5.918)">
      <path id="Pfad_39899" data-name="Pfad 39899" d="M0,6.162v-17.5" transform="translate(0 11.339)" fill="none" stroke="#fff" stroke-width="0.5"/>
    </g>
    <g id="Gruppe_40731" data-name="Gruppe 40731" transform="translate(57.934 -58.417)">
      <path id="Pfad_39900" data-name="Pfad 39900" d="M0,4.621V-8.5" transform="translate(0 8.504)" fill="none" stroke="#519545" stroke-width="0.5"/>
    </g>
    <g id="Gruppe_40732" data-name="Gruppe 40732" transform="translate(92.934 -58.417)">
      <path id="Pfad_39901" data-name="Pfad 39901" d="M0,4.621V-8.5" transform="translate(0 8.504)" fill="none" stroke="#519545" stroke-width="0.5"/>
    </g>
    <g id="Gruppe_40733" data-name="Gruppe 40733" transform="translate(127.934 -58.417)">
      <path id="Pfad_39902" data-name="Pfad 39902" d="M0,4.621V-8.5" transform="translate(0 8.504)" fill="none" stroke="#519545" stroke-width="0.5"/>
    </g>
    <g id="Gruppe_40734" data-name="Gruppe 40734" transform="translate(162.934 -58.417)">
      <path id="Pfad_39903" data-name="Pfad 39903" d="M0,4.621V-8.5" transform="translate(0 8.504)" fill="none" stroke="#519545" stroke-width="0.5"/>
    </g>
    <g id="Gruppe_40735" data-name="Gruppe 40735" transform="translate(197.934 -58.417)">
      <path id="Pfad_39904" data-name="Pfad 39904" d="M0,4.621V-8.5" transform="translate(0 8.504)" fill="none" stroke="#519545" stroke-width="0.5"/>
    </g>
    <g id="Gruppe_40736" data-name="Gruppe 40736" transform="translate(57.934 -19.042)">
      <path id="Pfad_39905" data-name="Pfad 39905" d="M0,4.621V-8.5" transform="translate(0 8.504)" fill="none" stroke="#519545" stroke-width="0.5"/>
    </g>
    <g id="Gruppe_40737" data-name="Gruppe 40737" transform="translate(92.934 -19.042)">
      <path id="Pfad_39906" data-name="Pfad 39906" d="M0,4.621V-8.5" transform="translate(0 8.504)" fill="none" stroke="#519545" stroke-width="0.5"/>
    </g>
    <g id="Gruppe_40738" data-name="Gruppe 40738" transform="translate(127.934 -19.042)">
      <path id="Pfad_39907" data-name="Pfad 39907" d="M0,4.621V-8.5" transform="translate(0 8.504)" fill="none" stroke="#519545" stroke-width="0.5"/>
    </g>
    <g id="Gruppe_40739" data-name="Gruppe 40739" transform="translate(162.934 -19.042)">
      <path id="Pfad_39908" data-name="Pfad 39908" d="M0,4.621V-8.5" transform="translate(0 8.504)" fill="none" stroke="#519545" stroke-width="0.5"/>
    </g>
    <g id="Gruppe_40740" data-name="Gruppe 40740" transform="translate(197.934 -19.042)">
      <path id="Pfad_39909" data-name="Pfad 39909" d="M0,4.621V-8.5" transform="translate(0 8.504)" fill="none" stroke="#519545" stroke-width="0.5"/>
    </g>
    <g id="Gruppe" transform="translate(31.461 -56.74)">
      <text id="JAN" transform="translate(0 9)" fill="#2b2e34" font-size="9" font-family="BrandonGrotesque-Regular, Brandon Grotesque" letter-spacing="0.045em"><tspan x="0" y="0">JAN</tspan></text>
      <text id="FEB" transform="translate(35.773 9)" fill="#2b2e34" font-size="9" font-family="BrandonGrotesque-Regular, Brandon Grotesque" letter-spacing="-0.01em"><tspan x="0" y="0">FEB</tspan></text>
      <text id="MAR" transform="translate(68.925 9)" fill="#2b2e34" font-size="9" font-family="BrandonGrotesque-Regular, Brandon Grotesque" letter-spacing="-0.01em"><tspan x="0" y="0">MAR</tspan></text>
      <text id="APR" transform="translate(105.161 8)" fill="#2b2e34" font-size="8" font-family="BrandonGrotesque-Regular, Brandon Grotesque" letter-spacing="-0.01em"><tspan x="0" y="0">APR</tspan></text>
      <text id="M" transform="translate(139.601 8)" fill="#2b2e34" font-size="8" font-family="BrandonGrotesque-Regular, Brandon Grotesque" letter-spacing="-0.058em"><tspan x="0" y="0">M</tspan></text>
      <text id="AY" transform="translate(147.491 9)" fill="#2b2e34" font-size="9" font-family="BrandonGrotesque-Regular, Brandon Grotesque" letter-spacing="-0.058em"><tspan x="0" y="0">AY</tspan></text>
      <text id="JUN" transform="translate(175.281 8)" fill="#2b2e34" font-size="8" font-family="BrandonGrotesque-Regular, Brandon Grotesque" letter-spacing="-0.01em"><tspan x="0" y="0">JUN</tspan></text>
      <text id="JUL" transform="translate(1.083 48.375)" fill="#2b2e34" font-size="9" font-family="BrandonGrotesque-Regular, Brandon Grotesque" letter-spacing="0.045em"><tspan x="0" y="0">JUL</tspan></text>
      <text id="AUG" transform="translate(34.319 47.375)" fill="#2b2e34" font-size="8" font-family="BrandonGrotesque-Regular, Brandon Grotesque" letter-spacing="-0.017em"><tspan x="0" y="0">AUG</tspan></text>
      <text id="SEP" transform="translate(71.092 48.375)" fill="#2b2e34" font-size="9" font-family="BrandonGrotesque-Regular, Brandon Grotesque" letter-spacing="-0.01em"><tspan x="0" y="0">SEP</tspan></text>
      <text id="OCT" transform="translate(104.772 48.375)" fill="#2b2e34" font-size="9" font-family="BrandonGrotesque-Regular, Brandon Grotesque" letter-spacing="-0.01em"><tspan x="0" y="0">OCT</tspan></text>
      <text id="NOV" transform="translate(138.619 48.375)" fill="#2b2e34" font-size="9" font-family="BrandonGrotesque-Regular, Brandon Grotesque" letter-spacing="-0.014em"><tspan x="0" y="0">NOV</tspan></text>
      <text id="DEC" transform="translate(174.605 48.375)" fill="#2b2e34" font-size="9" font-family="BrandonGrotesque-Regular, Brandon Grotesque" letter-spacing="-0.013em"><tspan x="0" y="0">DEC</tspan></text>
    </g>
  </g>
</svg>
