<svg xmlns="http://www.w3.org/2000/svg" width="210.88" height="69.961" viewBox="0 0 210.88 69.961">
  <g id="Gruppe_47877" data-name="Gruppe 47877" transform="translate(-22.434 58.417)">
    <path id="Pfad_48500" data-name="Pfad 48500" d="M22.934-49.913h34.98v17.491H22.934Zm34.98,0h34.98v17.491H57.914Zm34.98,0h34.98v17.491H92.894Zm34.981,0h34.98v17.491h-34.98Zm0,39.353h34.98V6.93h-34.98Zm34.98,0h34.98V6.93h-34.98Zm34.98,0h34.98V6.93h-34.98Z" transform="translate(0 4.614)" fill="#519545"/>
    <path id="Pfad_48501" data-name="Pfad 48501" d="M162.855-49.913h34.98v17.491h-34.98Zm34.98,0h34.98v17.491h-34.98ZM22.934-10.56h34.98V6.93H22.934Zm34.98,0h34.98V6.93H57.914Zm34.98,0h34.98V6.93H92.894Z" transform="translate(0 4.614)" fill="#bbd4b3"/>
    <g id="Gruppe_47850" data-name="Gruppe 47850" transform="translate(22.934 -58.417)">
      <path id="Pfad_48502" data-name="Pfad 48502" d="M0,4.614V-8.5" transform="translate(0 8.504)" fill="none" stroke="#fff" stroke-width="1"/>
    </g>
    <g id="Gruppe_47851" data-name="Gruppe 47851" transform="translate(22.934 -45.3)">
      <path id="Pfad_48503" data-name="Pfad 48503" d="M0,6.152V-11.339" transform="translate(0 11.339)" fill="none" stroke="#fff" stroke-width="1"/>
    </g>
    <g id="Gruppe_47852" data-name="Gruppe 47852" transform="translate(232.814 -45.3)">
      <path id="Pfad_48504" data-name="Pfad 48504" d="M0,6.152V-11.339" transform="translate(0 11.339)" fill="none" stroke="#fff" stroke-width="1"/>
    </g>
    <g id="Gruppe_47853" data-name="Gruppe 47853" transform="translate(22.934 -27.809)">
      <path id="Pfad_48505" data-name="Pfad 48505" d="M0,3.076V-5.669" transform="translate(0 5.669)" fill="none" stroke="#fff" stroke-width="1"/>
    </g>
    <g id="Gruppe_47854" data-name="Gruppe 47854" transform="translate(22.934 -19.065)">
      <path id="Pfad_48506" data-name="Pfad 48506" d="M0,4.614V-8.5" transform="translate(0 8.504)" fill="none" stroke="#fff" stroke-width="1"/>
    </g>
    <g id="Gruppe_47855" data-name="Gruppe 47855" transform="translate(22.934 -5.948)">
      <path id="Pfad_48507" data-name="Pfad 48507" d="M0,6.152V-11.339" transform="translate(0 11.339)" fill="none" stroke="#fff" stroke-width="1"/>
    </g>
    <g id="Gruppe_47856" data-name="Gruppe 47856" transform="translate(232.814 -5.948)">
      <path id="Pfad_48508" data-name="Pfad 48508" d="M0,6.152V-11.339" transform="translate(0 11.339)" fill="none" stroke="#fff" stroke-width="1"/>
    </g>
    <g id="Gruppe_47857" data-name="Gruppe 47857" transform="translate(57.914 -45.3)">
      <path id="Pfad_48509" data-name="Pfad 48509" d="M0,6.152V-11.339" transform="translate(0 11.339)" fill="none" stroke="#fff" stroke-width="0.5"/>
    </g>
    <g id="Gruppe_47858" data-name="Gruppe 47858" transform="translate(92.894 -45.3)">
      <path id="Pfad_48510" data-name="Pfad 48510" d="M0,6.152V-11.339" transform="translate(0 11.339)" fill="none" stroke="#fff" stroke-width="0.5"/>
    </g>
    <g id="Gruppe_47859" data-name="Gruppe 47859" transform="translate(127.874 -45.3)">
      <path id="Pfad_48511" data-name="Pfad 48511" d="M0,6.152V-11.339" transform="translate(0 11.339)" fill="none" stroke="#fff" stroke-width="0.5"/>
    </g>
    <g id="Gruppe_47860" data-name="Gruppe 47860" transform="translate(162.854 -45.3)">
      <path id="Pfad_48512" data-name="Pfad 48512" d="M0,6.152V-11.339" transform="translate(0 11.339)" fill="none" stroke="#fff" stroke-width="0.5"/>
    </g>
    <g id="Gruppe_47861" data-name="Gruppe 47861" transform="translate(197.834 -45.3)">
      <path id="Pfad_48513" data-name="Pfad 48513" d="M0,6.152V-11.339" transform="translate(0 11.339)" fill="none" stroke="#fff" stroke-width="0.5"/>
    </g>
    <g id="Gruppe_47862" data-name="Gruppe 47862" transform="translate(57.914 -5.948)">
      <path id="Pfad_48514" data-name="Pfad 48514" d="M0,6.152V-11.339" transform="translate(0 11.339)" fill="none" stroke="#fff" stroke-width="0.5"/>
    </g>
    <g id="Gruppe_47863" data-name="Gruppe 47863" transform="translate(92.894 -5.948)">
      <path id="Pfad_48515" data-name="Pfad 48515" d="M0,6.152V-11.339" transform="translate(0 11.339)" fill="none" stroke="#fff" stroke-width="0.5"/>
    </g>
    <g id="Gruppe_47864" data-name="Gruppe 47864" transform="translate(127.874 -5.948)">
      <path id="Pfad_48516" data-name="Pfad 48516" d="M0,6.152V-11.339" transform="translate(0 11.339)" fill="none" stroke="#fff" stroke-width="0.5"/>
    </g>
    <g id="Gruppe_47865" data-name="Gruppe 47865" transform="translate(162.854 -5.948)">
      <path id="Pfad_48517" data-name="Pfad 48517" d="M0,6.152V-11.339" transform="translate(0 11.339)" fill="none" stroke="#fff" stroke-width="0.5"/>
    </g>
    <g id="Gruppe_47866" data-name="Gruppe 47866" transform="translate(197.834 -5.948)">
      <path id="Pfad_48518" data-name="Pfad 48518" d="M0,6.152V-11.339" transform="translate(0 11.339)" fill="none" stroke="#fff" stroke-width="0.5"/>
    </g>
    <g id="Gruppe_47867" data-name="Gruppe 47867" transform="translate(57.914 -58.417)">
      <path id="Pfad_48519" data-name="Pfad 48519" d="M0,4.614V-8.5" transform="translate(0 8.504)" fill="none" stroke="#519545" stroke-width="0.5"/>
    </g>
    <g id="Gruppe_47868" data-name="Gruppe 47868" transform="translate(92.894 -58.417)">
      <path id="Pfad_48520" data-name="Pfad 48520" d="M0,4.614V-8.5" transform="translate(0 8.504)" fill="none" stroke="#519545" stroke-width="0.5"/>
    </g>
    <g id="Gruppe_47869" data-name="Gruppe 47869" transform="translate(127.874 -58.417)">
      <path id="Pfad_48521" data-name="Pfad 48521" d="M0,4.614V-8.5" transform="translate(0 8.504)" fill="none" stroke="#519545" stroke-width="0.5"/>
    </g>
    <g id="Gruppe_47870" data-name="Gruppe 47870" transform="translate(162.854 -58.417)">
      <path id="Pfad_48522" data-name="Pfad 48522" d="M0,4.614V-8.5" transform="translate(0 8.504)" fill="none" stroke="#519545" stroke-width="0.5"/>
    </g>
    <g id="Gruppe_47871" data-name="Gruppe 47871" transform="translate(197.834 -58.417)">
      <path id="Pfad_48523" data-name="Pfad 48523" d="M0,4.614V-8.5" transform="translate(0 8.504)" fill="none" stroke="#519545" stroke-width="0.5"/>
    </g>
    <g id="Gruppe_47872" data-name="Gruppe 47872" transform="translate(57.914 -19.065)">
      <path id="Pfad_48524" data-name="Pfad 48524" d="M0,4.614V-8.5" transform="translate(0 8.504)" fill="none" stroke="#519545" stroke-width="0.5"/>
    </g>
    <g id="Gruppe_47873" data-name="Gruppe 47873" transform="translate(92.894 -19.065)">
      <path id="Pfad_48525" data-name="Pfad 48525" d="M0,4.614V-8.5" transform="translate(0 8.504)" fill="none" stroke="#519545" stroke-width="0.5"/>
    </g>
    <g id="Gruppe_47874" data-name="Gruppe 47874" transform="translate(127.874 -19.065)">
      <path id="Pfad_48526" data-name="Pfad 48526" d="M0,4.614V-8.5" transform="translate(0 8.504)" fill="none" stroke="#519545" stroke-width="0.5"/>
    </g>
    <g id="Gruppe_47875" data-name="Gruppe 47875" transform="translate(162.854 -19.065)">
      <path id="Pfad_48527" data-name="Pfad 48527" d="M0,4.614V-8.5" transform="translate(0 8.504)" fill="none" stroke="#519545" stroke-width="0.5"/>
    </g>
    <g id="Gruppe_47876" data-name="Gruppe 47876" transform="translate(197.834 -19.065)">
      <path id="Pfad_48528" data-name="Pfad 48528" d="M0,4.614V-8.5" transform="translate(0 8.504)" fill="none" stroke="#519545" stroke-width="0.5"/>
    </g>
    <g id="Gruppe" transform="translate(31.456 -56.741)">
      <text id="JAN" transform="translate(0 9)" fill="#2b2e34" font-size="9" font-family="BrandonGrotesque-Regular, Brandon Grotesque" letter-spacing="0.045em"><tspan x="0" y="0">JAN</tspan></text>
      <text id="FEB" transform="translate(35.753 9)" fill="#2b2e34" font-size="9" font-family="BrandonGrotesque-Regular, Brandon Grotesque" letter-spacing="-0.01em"><tspan x="0" y="0">FEB</tspan></text>
      <text id="MAR" transform="translate(68.886 9)" fill="#2b2e34" font-size="9" font-family="BrandonGrotesque-Regular, Brandon Grotesque" letter-spacing="-0.01em"><tspan x="0" y="0">MAR</tspan></text>
      <text id="APR" transform="translate(105.101 8)" fill="#2b2e34" font-size="8" font-family="BrandonGrotesque-Regular, Brandon Grotesque" letter-spacing="-0.01em"><tspan x="0" y="0">APR</tspan></text>
      <text id="M" transform="translate(139.521 8)" fill="#2b2e34" font-size="8" font-family="BrandonGrotesque-Regular, Brandon Grotesque" letter-spacing="-0.058em"><tspan x="0" y="0">M</tspan></text>
      <text id="AY" transform="translate(147.407 9)" fill="#2b2e34" font-size="9" font-family="BrandonGrotesque-Regular, Brandon Grotesque" letter-spacing="-0.058em"><tspan x="0" y="0">AY</tspan></text>
      <text id="JUN" transform="translate(175.181 8)" fill="#2b2e34" font-size="8" font-family="BrandonGrotesque-Regular, Brandon Grotesque" letter-spacing="-0.01em"><tspan x="0" y="0">JUN</tspan></text>
      <text id="JUL" transform="translate(1.083 48.353)" fill="#2b2e34" font-size="9" font-family="BrandonGrotesque-Regular, Brandon Grotesque" letter-spacing="0.045em"><tspan x="0" y="0">JUL</tspan></text>
      <text id="AUG" transform="translate(34.3 47.353)" fill="#2b2e34" font-size="8" font-family="BrandonGrotesque-Regular, Brandon Grotesque" letter-spacing="-0.017em"><tspan x="0" y="0">AUG</tspan></text>
      <text id="SEP" transform="translate(71.052 48.353)" fill="#2b2e34" font-size="9" font-family="BrandonGrotesque-Regular, Brandon Grotesque" letter-spacing="-0.01em"><tspan x="0" y="0">SEP</tspan></text>
      <text id="OCT" transform="translate(104.713 48.353)" fill="#2b2e34" font-size="9" font-family="BrandonGrotesque-Regular, Brandon Grotesque" letter-spacing="-0.01em"><tspan x="0" y="0">OCT</tspan></text>
      <text id="NOV" transform="translate(138.54 48.353)" fill="#2b2e34" font-size="9" font-family="BrandonGrotesque-Regular, Brandon Grotesque" letter-spacing="-0.014em"><tspan x="0" y="0">NOV</tspan></text>
      <text id="DEC" transform="translate(174.506 48.353)" fill="#2b2e34" font-size="9" font-family="BrandonGrotesque-Regular, Brandon Grotesque" letter-spacing="-0.013em"><tspan x="0" y="0">DEC</tspan></text>
    </g>
  </g>
</svg>
