<svg xmlns="http://www.w3.org/2000/svg" width="211" height="70.001" viewBox="0 0 211 70.001">
  <g id="Gruppe_47765" data-name="Gruppe 47765" transform="translate(-22.434 58.417)">
    <path id="Pfad_48385" data-name="Pfad 48385" d="M22.934-49.913h35v17.5h-35Zm35,0h35v17.5h-35Zm35,0h35v17.5h-35Zm35,0h35v17.5h-35Zm35,0h35v17.5h-35Zm35,0h35v17.5h-35Zm-175,39.375h35v17.5h-35Zm35,0h35v17.5h-35Zm35,0h35v17.5h-35Zm35,0h35v17.5h-35Zm35,0h35v17.5h-35Zm35,0h35v17.5h-35Z" transform="translate(0 4.621)" fill="#519545"/>
    <g id="Gruppe_47738" data-name="Gruppe 47738" transform="translate(22.934 -58.417)">
      <path id="Pfad_48386" data-name="Pfad 48386" d="M0,4.621V-8.5" transform="translate(0 8.504)" fill="none" stroke="#fff" stroke-width="1"/>
    </g>
    <g id="Gruppe_47739" data-name="Gruppe 47739" transform="translate(22.934 -45.293)">
      <path id="Pfad_48387" data-name="Pfad 48387" d="M0,6.162v-17.5" transform="translate(0 11.339)" fill="none" stroke="#fff" stroke-width="1"/>
    </g>
    <g id="Gruppe_47740" data-name="Gruppe 47740" transform="translate(232.934 -45.293)">
      <path id="Pfad_48388" data-name="Pfad 48388" d="M0,6.162v-17.5" transform="translate(0 11.339)" fill="none" stroke="#fff" stroke-width="1"/>
    </g>
    <g id="Gruppe_47741" data-name="Gruppe 47741" transform="translate(22.934 -27.791)">
      <path id="Pfad_48389" data-name="Pfad 48389" d="M0,3.081v-8.75" transform="translate(0 5.669)" fill="none" stroke="#fff" stroke-width="1"/>
    </g>
    <g id="Gruppe_47742" data-name="Gruppe 47742" transform="translate(22.934 -19.042)">
      <path id="Pfad_48390" data-name="Pfad 48390" d="M0,4.621V-8.5" transform="translate(0 8.504)" fill="none" stroke="#fff" stroke-width="1"/>
    </g>
    <g id="Gruppe_47743" data-name="Gruppe 47743" transform="translate(22.934 -5.918)">
      <path id="Pfad_48391" data-name="Pfad 48391" d="M0,6.162v-17.5" transform="translate(0 11.339)" fill="none" stroke="#fff" stroke-width="1"/>
    </g>
    <g id="Gruppe_47744" data-name="Gruppe 47744" transform="translate(232.934 -5.918)">
      <path id="Pfad_48392" data-name="Pfad 48392" d="M0,6.162v-17.5" transform="translate(0 11.339)" fill="none" stroke="#fff" stroke-width="1"/>
    </g>
    <g id="Gruppe_47745" data-name="Gruppe 47745" transform="translate(57.934 -45.293)">
      <path id="Pfad_48393" data-name="Pfad 48393" d="M0,6.162v-17.5" transform="translate(0 11.339)" fill="none" stroke="#fff" stroke-width="0.5"/>
    </g>
    <g id="Gruppe_47746" data-name="Gruppe 47746" transform="translate(92.934 -45.293)">
      <path id="Pfad_48394" data-name="Pfad 48394" d="M0,6.162v-17.5" transform="translate(0 11.339)" fill="none" stroke="#fff" stroke-width="0.5"/>
    </g>
    <g id="Gruppe_47747" data-name="Gruppe 47747" transform="translate(127.934 -45.293)">
      <path id="Pfad_48395" data-name="Pfad 48395" d="M0,6.162v-17.5" transform="translate(0 11.339)" fill="none" stroke="#fff" stroke-width="0.5"/>
    </g>
    <g id="Gruppe_47748" data-name="Gruppe 47748" transform="translate(162.934 -45.293)">
      <path id="Pfad_48396" data-name="Pfad 48396" d="M0,6.162v-17.5" transform="translate(0 11.339)" fill="none" stroke="#fff" stroke-width="0.5"/>
    </g>
    <g id="Gruppe_47749" data-name="Gruppe 47749" transform="translate(197.934 -45.293)">
      <path id="Pfad_48397" data-name="Pfad 48397" d="M0,6.162v-17.5" transform="translate(0 11.339)" fill="none" stroke="#fff" stroke-width="0.5"/>
    </g>
    <g id="Gruppe_47750" data-name="Gruppe 47750" transform="translate(57.934 -5.918)">
      <path id="Pfad_48398" data-name="Pfad 48398" d="M0,6.162v-17.5" transform="translate(0 11.339)" fill="none" stroke="#fff" stroke-width="0.5"/>
    </g>
    <g id="Gruppe_47751" data-name="Gruppe 47751" transform="translate(92.934 -5.918)">
      <path id="Pfad_48399" data-name="Pfad 48399" d="M0,6.162v-17.5" transform="translate(0 11.339)" fill="none" stroke="#fff" stroke-width="0.5"/>
    </g>
    <g id="Gruppe_47752" data-name="Gruppe 47752" transform="translate(127.934 -5.918)">
      <path id="Pfad_48400" data-name="Pfad 48400" d="M0,6.162v-17.5" transform="translate(0 11.339)" fill="none" stroke="#fff" stroke-width="0.5"/>
    </g>
    <g id="Gruppe_47753" data-name="Gruppe 47753" transform="translate(162.934 -5.918)">
      <path id="Pfad_48401" data-name="Pfad 48401" d="M0,6.162v-17.5" transform="translate(0 11.339)" fill="none" stroke="#fff" stroke-width="0.5"/>
    </g>
    <g id="Gruppe_47754" data-name="Gruppe 47754" transform="translate(197.934 -5.918)">
      <path id="Pfad_48402" data-name="Pfad 48402" d="M0,6.162v-17.5" transform="translate(0 11.339)" fill="none" stroke="#fff" stroke-width="0.5"/>
    </g>
    <g id="Gruppe_47755" data-name="Gruppe 47755" transform="translate(57.934 -58.417)">
      <path id="Pfad_48403" data-name="Pfad 48403" d="M0,4.621V-8.5" transform="translate(0 8.504)" fill="none" stroke="#519545" stroke-width="0.5"/>
    </g>
    <g id="Gruppe_47756" data-name="Gruppe 47756" transform="translate(92.934 -58.417)">
      <path id="Pfad_48404" data-name="Pfad 48404" d="M0,4.621V-8.5" transform="translate(0 8.504)" fill="none" stroke="#519545" stroke-width="0.5"/>
    </g>
    <g id="Gruppe_47757" data-name="Gruppe 47757" transform="translate(127.934 -58.417)">
      <path id="Pfad_48405" data-name="Pfad 48405" d="M0,4.621V-8.5" transform="translate(0 8.504)" fill="none" stroke="#519545" stroke-width="0.5"/>
    </g>
    <g id="Gruppe_47758" data-name="Gruppe 47758" transform="translate(162.934 -58.417)">
      <path id="Pfad_48406" data-name="Pfad 48406" d="M0,4.621V-8.5" transform="translate(0 8.504)" fill="none" stroke="#519545" stroke-width="0.5"/>
    </g>
    <g id="Gruppe_47759" data-name="Gruppe 47759" transform="translate(197.934 -58.417)">
      <path id="Pfad_48407" data-name="Pfad 48407" d="M0,4.621V-8.5" transform="translate(0 8.504)" fill="none" stroke="#519545" stroke-width="0.5"/>
    </g>
    <g id="Gruppe_47760" data-name="Gruppe 47760" transform="translate(57.934 -19.042)">
      <path id="Pfad_48408" data-name="Pfad 48408" d="M0,4.621V-8.5" transform="translate(0 8.504)" fill="none" stroke="#519545" stroke-width="0.5"/>
    </g>
    <g id="Gruppe_47761" data-name="Gruppe 47761" transform="translate(92.934 -19.042)">
      <path id="Pfad_48409" data-name="Pfad 48409" d="M0,4.621V-8.5" transform="translate(0 8.504)" fill="none" stroke="#519545" stroke-width="0.5"/>
    </g>
    <g id="Gruppe_47762" data-name="Gruppe 47762" transform="translate(127.934 -19.042)">
      <path id="Pfad_48410" data-name="Pfad 48410" d="M0,4.621V-8.5" transform="translate(0 8.504)" fill="none" stroke="#519545" stroke-width="0.5"/>
    </g>
    <g id="Gruppe_47763" data-name="Gruppe 47763" transform="translate(162.934 -19.042)">
      <path id="Pfad_48411" data-name="Pfad 48411" d="M0,4.621V-8.5" transform="translate(0 8.504)" fill="none" stroke="#519545" stroke-width="0.5"/>
    </g>
    <g id="Gruppe_47764" data-name="Gruppe 47764" transform="translate(197.934 -19.042)">
      <path id="Pfad_48412" data-name="Pfad 48412" d="M0,4.621V-8.5" transform="translate(0 8.504)" fill="none" stroke="#519545" stroke-width="0.5"/>
    </g>
    <g id="Gruppe" transform="translate(31.461 -56.74)">
      <text id="JAN" transform="translate(0 9)" fill="#2b2e34" font-size="9" font-family="BrandonGrotesque-Regular, Brandon Grotesque" letter-spacing="0.045em"><tspan x="0" y="0">JAN</tspan></text>
      <text id="FEB" transform="translate(35.773 9)" fill="#2b2e34" font-size="9" font-family="BrandonGrotesque-Regular, Brandon Grotesque" letter-spacing="-0.01em"><tspan x="0" y="0">FEB</tspan></text>
      <text id="MAR" transform="translate(68.925 9)" fill="#2b2e34" font-size="9" font-family="BrandonGrotesque-Regular, Brandon Grotesque" letter-spacing="-0.01em"><tspan x="0" y="0">MAR</tspan></text>
      <text id="APR" transform="translate(105.161 8)" fill="#2b2e34" font-size="8" font-family="BrandonGrotesque-Regular, Brandon Grotesque" letter-spacing="-0.01em"><tspan x="0" y="0">APR</tspan></text>
      <text id="M" transform="translate(139.601 8)" fill="#2b2e34" font-size="8" font-family="BrandonGrotesque-Regular, Brandon Grotesque" letter-spacing="-0.058em"><tspan x="0" y="0">M</tspan></text>
      <text id="AY" transform="translate(147.491 9)" fill="#2b2e34" font-size="9" font-family="BrandonGrotesque-Regular, Brandon Grotesque" letter-spacing="-0.058em"><tspan x="0" y="0">AY</tspan></text>
      <text id="JUN" transform="translate(175.281 8)" fill="#2b2e34" font-size="8" font-family="BrandonGrotesque-Regular, Brandon Grotesque" letter-spacing="-0.01em"><tspan x="0" y="0">JUN</tspan></text>
      <text id="JUL" transform="translate(1.083 48.375)" fill="#2b2e34" font-size="9" font-family="BrandonGrotesque-Regular, Brandon Grotesque" letter-spacing="0.045em"><tspan x="0" y="0">JUL</tspan></text>
      <text id="AUG" transform="translate(34.319 47.375)" fill="#2b2e34" font-size="8" font-family="BrandonGrotesque-Regular, Brandon Grotesque" letter-spacing="-0.017em"><tspan x="0" y="0">AUG</tspan></text>
      <text id="SEP" transform="translate(71.092 48.375)" fill="#2b2e34" font-size="9" font-family="BrandonGrotesque-Regular, Brandon Grotesque" letter-spacing="-0.01em"><tspan x="0" y="0">SEP</tspan></text>
      <text id="OCT" transform="translate(104.772 48.375)" fill="#2b2e34" font-size="9" font-family="BrandonGrotesque-Regular, Brandon Grotesque" letter-spacing="-0.01em"><tspan x="0" y="0">OCT</tspan></text>
      <text id="NOV" transform="translate(138.619 48.375)" fill="#2b2e34" font-size="9" font-family="BrandonGrotesque-Regular, Brandon Grotesque" letter-spacing="-0.014em"><tspan x="0" y="0">NOV</tspan></text>
      <text id="DEC" transform="translate(174.605 48.375)" fill="#2b2e34" font-size="9" font-family="BrandonGrotesque-Regular, Brandon Grotesque" letter-spacing="-0.013em"><tspan x="0" y="0">DEC</tspan></text>
    </g>
  </g>
</svg>
