<svg xmlns="http://www.w3.org/2000/svg" width="210.88" height="69.961" viewBox="0 0 210.88 69.961">
  <g id="Gruppe_47849" data-name="Gruppe 47849" transform="translate(-22.434 58.417)">
    <path id="Pfad_48471" data-name="Pfad 48471" d="M22.934-49.913h34.98v17.491H22.934Zm0,39.353h34.98V6.93H22.934Zm34.98,0h34.98V6.93H57.914Zm34.98,0h34.98V6.93H92.894Zm34.981,0h34.98V6.93h-34.98Zm34.98,0h34.98V6.93h-34.98Zm34.98,0h34.98V6.93h-34.98Z" transform="translate(0 4.614)" fill="#bbd4b3"/>
    <path id="Pfad_48472" data-name="Pfad 48472" d="M45.611-49.913h34.98v17.491H45.611Zm34.98,0h34.98v17.491H80.591Zm34.981,0h34.98v17.491h-34.98Zm34.98,0h34.98v17.491h-34.98Zm34.98,0h34.98v17.491h-34.98Z" transform="translate(12.303 4.614)" fill="#519545"/>
    <g id="Gruppe_47822" data-name="Gruppe 47822" transform="translate(22.934 -58.417)">
      <path id="Pfad_48473" data-name="Pfad 48473" d="M0,4.614V-8.5" transform="translate(0 8.504)" fill="none" stroke="#fff" stroke-width="1"/>
    </g>
    <g id="Gruppe_47823" data-name="Gruppe 47823" transform="translate(22.934 -45.3)">
      <path id="Pfad_48474" data-name="Pfad 48474" d="M0,6.152V-11.339" transform="translate(0 11.339)" fill="none" stroke="#fff" stroke-width="1"/>
    </g>
    <g id="Gruppe_47824" data-name="Gruppe 47824" transform="translate(232.814 -45.3)">
      <path id="Pfad_48475" data-name="Pfad 48475" d="M0,6.152V-11.339" transform="translate(0 11.339)" fill="none" stroke="#fff" stroke-width="1"/>
    </g>
    <g id="Gruppe_47825" data-name="Gruppe 47825" transform="translate(22.934 -27.809)">
      <path id="Pfad_48476" data-name="Pfad 48476" d="M0,3.076V-5.669" transform="translate(0 5.669)" fill="none" stroke="#fff" stroke-width="1"/>
    </g>
    <g id="Gruppe_47826" data-name="Gruppe 47826" transform="translate(22.934 -19.065)">
      <path id="Pfad_48477" data-name="Pfad 48477" d="M0,4.614V-8.5" transform="translate(0 8.504)" fill="none" stroke="#fff" stroke-width="1"/>
    </g>
    <g id="Gruppe_47827" data-name="Gruppe 47827" transform="translate(22.934 -5.948)">
      <path id="Pfad_48478" data-name="Pfad 48478" d="M0,6.152V-11.339" transform="translate(0 11.339)" fill="none" stroke="#fff" stroke-width="1"/>
    </g>
    <g id="Gruppe_47828" data-name="Gruppe 47828" transform="translate(232.814 -5.948)">
      <path id="Pfad_48479" data-name="Pfad 48479" d="M0,6.152V-11.339" transform="translate(0 11.339)" fill="none" stroke="#fff" stroke-width="1"/>
    </g>
    <g id="Gruppe_47829" data-name="Gruppe 47829" transform="translate(57.914 -45.3)">
      <path id="Pfad_48480" data-name="Pfad 48480" d="M0,6.152V-11.339" transform="translate(0 11.339)" fill="none" stroke="#fff" stroke-width="0.5"/>
    </g>
    <g id="Gruppe_47830" data-name="Gruppe 47830" transform="translate(92.894 -45.3)">
      <path id="Pfad_48481" data-name="Pfad 48481" d="M0,6.152V-11.339" transform="translate(0 11.339)" fill="none" stroke="#fff" stroke-width="0.5"/>
    </g>
    <g id="Gruppe_47831" data-name="Gruppe 47831" transform="translate(127.874 -45.3)">
      <path id="Pfad_48482" data-name="Pfad 48482" d="M0,6.152V-11.339" transform="translate(0 11.339)" fill="none" stroke="#fff" stroke-width="0.5"/>
    </g>
    <g id="Gruppe_47832" data-name="Gruppe 47832" transform="translate(162.854 -45.3)">
      <path id="Pfad_48483" data-name="Pfad 48483" d="M0,6.152V-11.339" transform="translate(0 11.339)" fill="none" stroke="#fff" stroke-width="0.5"/>
    </g>
    <g id="Gruppe_47833" data-name="Gruppe 47833" transform="translate(197.834 -45.3)">
      <path id="Pfad_48484" data-name="Pfad 48484" d="M0,6.152V-11.339" transform="translate(0 11.339)" fill="none" stroke="#fff" stroke-width="0.5"/>
    </g>
    <g id="Gruppe_47834" data-name="Gruppe 47834" transform="translate(57.914 -5.948)">
      <path id="Pfad_48485" data-name="Pfad 48485" d="M0,6.152V-11.339" transform="translate(0 11.339)" fill="none" stroke="#fff" stroke-width="0.5"/>
    </g>
    <g id="Gruppe_47835" data-name="Gruppe 47835" transform="translate(92.894 -5.948)">
      <path id="Pfad_48486" data-name="Pfad 48486" d="M0,6.152V-11.339" transform="translate(0 11.339)" fill="none" stroke="#fff" stroke-width="0.5"/>
    </g>
    <g id="Gruppe_47836" data-name="Gruppe 47836" transform="translate(127.874 -5.948)">
      <path id="Pfad_48487" data-name="Pfad 48487" d="M0,6.152V-11.339" transform="translate(0 11.339)" fill="none" stroke="#fff" stroke-width="0.5"/>
    </g>
    <g id="Gruppe_47837" data-name="Gruppe 47837" transform="translate(162.854 -5.948)">
      <path id="Pfad_48488" data-name="Pfad 48488" d="M0,6.152V-11.339" transform="translate(0 11.339)" fill="none" stroke="#fff" stroke-width="0.5"/>
    </g>
    <g id="Gruppe_47838" data-name="Gruppe 47838" transform="translate(197.834 -5.948)">
      <path id="Pfad_48489" data-name="Pfad 48489" d="M0,6.152V-11.339" transform="translate(0 11.339)" fill="none" stroke="#fff" stroke-width="0.5"/>
    </g>
    <g id="Gruppe_47839" data-name="Gruppe 47839" transform="translate(57.914 -58.417)">
      <path id="Pfad_48490" data-name="Pfad 48490" d="M0,4.614V-8.5" transform="translate(0 8.504)" fill="none" stroke="#519545" stroke-width="0.5"/>
    </g>
    <g id="Gruppe_47840" data-name="Gruppe 47840" transform="translate(92.894 -58.417)">
      <path id="Pfad_48491" data-name="Pfad 48491" d="M0,4.614V-8.5" transform="translate(0 8.504)" fill="none" stroke="#519545" stroke-width="0.5"/>
    </g>
    <g id="Gruppe_47841" data-name="Gruppe 47841" transform="translate(127.874 -58.417)">
      <path id="Pfad_48492" data-name="Pfad 48492" d="M0,4.614V-8.5" transform="translate(0 8.504)" fill="none" stroke="#519545" stroke-width="0.5"/>
    </g>
    <g id="Gruppe_47842" data-name="Gruppe 47842" transform="translate(162.854 -58.417)">
      <path id="Pfad_48493" data-name="Pfad 48493" d="M0,4.614V-8.5" transform="translate(0 8.504)" fill="none" stroke="#519545" stroke-width="0.5"/>
    </g>
    <g id="Gruppe_47843" data-name="Gruppe 47843" transform="translate(197.834 -58.417)">
      <path id="Pfad_48494" data-name="Pfad 48494" d="M0,4.614V-8.5" transform="translate(0 8.504)" fill="none" stroke="#519545" stroke-width="0.5"/>
    </g>
    <g id="Gruppe_47844" data-name="Gruppe 47844" transform="translate(57.914 -19.065)">
      <path id="Pfad_48495" data-name="Pfad 48495" d="M0,4.614V-8.5" transform="translate(0 8.504)" fill="none" stroke="#519545" stroke-width="0.5"/>
    </g>
    <g id="Gruppe_47845" data-name="Gruppe 47845" transform="translate(92.894 -19.065)">
      <path id="Pfad_48496" data-name="Pfad 48496" d="M0,4.614V-8.5" transform="translate(0 8.504)" fill="none" stroke="#519545" stroke-width="0.5"/>
    </g>
    <g id="Gruppe_47846" data-name="Gruppe 47846" transform="translate(127.874 -19.065)">
      <path id="Pfad_48497" data-name="Pfad 48497" d="M0,4.614V-8.5" transform="translate(0 8.504)" fill="none" stroke="#519545" stroke-width="0.5"/>
    </g>
    <g id="Gruppe_47847" data-name="Gruppe 47847" transform="translate(162.854 -19.065)">
      <path id="Pfad_48498" data-name="Pfad 48498" d="M0,4.614V-8.5" transform="translate(0 8.504)" fill="none" stroke="#519545" stroke-width="0.5"/>
    </g>
    <g id="Gruppe_47848" data-name="Gruppe 47848" transform="translate(197.834 -19.065)">
      <path id="Pfad_48499" data-name="Pfad 48499" d="M0,4.614V-8.5" transform="translate(0 8.504)" fill="none" stroke="#519545" stroke-width="0.5"/>
    </g>
    <g id="Gruppe" transform="translate(31.456 -56.741)">
      <text id="JAN" transform="translate(0 9)" fill="#2b2e34" font-size="9" font-family="BrandonGrotesque-Regular, Brandon Grotesque" letter-spacing="0.045em"><tspan x="0" y="0">JAN</tspan></text>
      <text id="FEB" transform="translate(35.753 9)" fill="#2b2e34" font-size="9" font-family="BrandonGrotesque-Regular, Brandon Grotesque" letter-spacing="-0.01em"><tspan x="0" y="0">FEB</tspan></text>
      <text id="MAR" transform="translate(68.886 9)" fill="#2b2e34" font-size="9" font-family="BrandonGrotesque-Regular, Brandon Grotesque" letter-spacing="-0.01em"><tspan x="0" y="0">MAR</tspan></text>
      <text id="APR" transform="translate(105.101 8)" fill="#2b2e34" font-size="8" font-family="BrandonGrotesque-Regular, Brandon Grotesque" letter-spacing="-0.01em"><tspan x="0" y="0">APR</tspan></text>
      <text id="M" transform="translate(139.521 8)" fill="#2b2e34" font-size="8" font-family="BrandonGrotesque-Regular, Brandon Grotesque" letter-spacing="-0.058em"><tspan x="0" y="0">M</tspan></text>
      <text id="AY" transform="translate(147.407 9)" fill="#2b2e34" font-size="9" font-family="BrandonGrotesque-Regular, Brandon Grotesque" letter-spacing="-0.058em"><tspan x="0" y="0">AY</tspan></text>
      <text id="JUN" transform="translate(175.181 8)" fill="#2b2e34" font-size="8" font-family="BrandonGrotesque-Regular, Brandon Grotesque" letter-spacing="-0.01em"><tspan x="0" y="0">JUN</tspan></text>
      <text id="JUL" transform="translate(1.083 48.353)" fill="#2b2e34" font-size="9" font-family="BrandonGrotesque-Regular, Brandon Grotesque" letter-spacing="0.045em"><tspan x="0" y="0">JUL</tspan></text>
      <text id="AUG" transform="translate(34.3 47.353)" fill="#2b2e34" font-size="8" font-family="BrandonGrotesque-Regular, Brandon Grotesque" letter-spacing="-0.017em"><tspan x="0" y="0">AUG</tspan></text>
      <text id="SEP" transform="translate(71.052 48.353)" fill="#2b2e34" font-size="9" font-family="BrandonGrotesque-Regular, Brandon Grotesque" letter-spacing="-0.01em"><tspan x="0" y="0">SEP</tspan></text>
      <text id="OCT" transform="translate(104.713 48.353)" fill="#2b2e34" font-size="9" font-family="BrandonGrotesque-Regular, Brandon Grotesque" letter-spacing="-0.01em"><tspan x="0" y="0">OCT</tspan></text>
      <text id="NOV" transform="translate(138.54 48.353)" fill="#2b2e34" font-size="9" font-family="BrandonGrotesque-Regular, Brandon Grotesque" letter-spacing="-0.014em"><tspan x="0" y="0">NOV</tspan></text>
      <text id="DEC" transform="translate(174.506 48.353)" fill="#2b2e34" font-size="9" font-family="BrandonGrotesque-Regular, Brandon Grotesque" letter-spacing="-0.013em"><tspan x="0" y="0">DEC</tspan></text>
    </g>
  </g>
</svg>
