<svg xmlns="http://www.w3.org/2000/svg" width="211" height="70.001" viewBox="0 0 211 70.001">
  <g id="Gruppe_47709" data-name="Gruppe 47709" transform="translate(-22.434 58.417)">
    <path id="Pfad_48327" data-name="Pfad 48327" d="M22.934-49.913h35v17.5h-35Zm35,0h35v17.5h-35Zm35,0h35v17.5h-35Zm35,0h35v17.5h-35Zm35,0h35v17.5h-35Zm-35,39.375h35v17.5h-35Zm35,0h35v17.5h-35Zm35,0h35v17.5h-35Z" transform="translate(0 4.621)" fill="#519545"/>
    <path id="Pfad_48328" data-name="Pfad 48328" d="M197.934-49.913h35v17.5h-35Zm-175,39.375h35v17.5h-35Zm35,0h35v17.5h-35Zm35,0h35v17.5h-35Z" transform="translate(0 4.621)" fill="#bbd4b3"/>
    <g id="Gruppe_47682" data-name="Gruppe 47682" transform="translate(22.934 -58.417)">
      <path id="Pfad_48329" data-name="Pfad 48329" d="M0,4.621V-8.5" transform="translate(0 8.504)" fill="none" stroke="#fff" stroke-width="1"/>
    </g>
    <g id="Gruppe_47683" data-name="Gruppe 47683" transform="translate(22.934 -45.293)">
      <path id="Pfad_48330" data-name="Pfad 48330" d="M0,6.162v-17.5" transform="translate(0 11.339)" fill="none" stroke="#fff" stroke-width="1"/>
    </g>
    <g id="Gruppe_47684" data-name="Gruppe 47684" transform="translate(232.934 -45.293)">
      <path id="Pfad_48331" data-name="Pfad 48331" d="M0,6.162v-17.5" transform="translate(0 11.339)" fill="none" stroke="#fff" stroke-width="1"/>
    </g>
    <g id="Gruppe_47685" data-name="Gruppe 47685" transform="translate(22.934 -27.791)">
      <path id="Pfad_48332" data-name="Pfad 48332" d="M0,3.081v-8.75" transform="translate(0 5.669)" fill="none" stroke="#fff" stroke-width="1"/>
    </g>
    <g id="Gruppe_47686" data-name="Gruppe 47686" transform="translate(22.934 -19.042)">
      <path id="Pfad_48333" data-name="Pfad 48333" d="M0,4.621V-8.5" transform="translate(0 8.504)" fill="none" stroke="#fff" stroke-width="1"/>
    </g>
    <g id="Gruppe_47687" data-name="Gruppe 47687" transform="translate(22.934 -5.918)">
      <path id="Pfad_48334" data-name="Pfad 48334" d="M0,6.162v-17.5" transform="translate(0 11.339)" fill="none" stroke="#fff" stroke-width="1"/>
    </g>
    <g id="Gruppe_47688" data-name="Gruppe 47688" transform="translate(232.934 -5.918)">
      <path id="Pfad_48335" data-name="Pfad 48335" d="M0,6.162v-17.5" transform="translate(0 11.339)" fill="none" stroke="#fff" stroke-width="1"/>
    </g>
    <g id="Gruppe_47689" data-name="Gruppe 47689" transform="translate(57.934 -45.293)">
      <path id="Pfad_48336" data-name="Pfad 48336" d="M0,6.162v-17.5" transform="translate(0 11.339)" fill="none" stroke="#fff" stroke-width="0.5"/>
    </g>
    <g id="Gruppe_47690" data-name="Gruppe 47690" transform="translate(92.934 -45.293)">
      <path id="Pfad_48337" data-name="Pfad 48337" d="M0,6.162v-17.5" transform="translate(0 11.339)" fill="none" stroke="#fff" stroke-width="0.5"/>
    </g>
    <g id="Gruppe_47691" data-name="Gruppe 47691" transform="translate(127.934 -45.293)">
      <path id="Pfad_48338" data-name="Pfad 48338" d="M0,6.162v-17.5" transform="translate(0 11.339)" fill="none" stroke="#fff" stroke-width="0.5"/>
    </g>
    <g id="Gruppe_47692" data-name="Gruppe 47692" transform="translate(162.934 -45.293)">
      <path id="Pfad_48339" data-name="Pfad 48339" d="M0,6.162v-17.5" transform="translate(0 11.339)" fill="none" stroke="#fff" stroke-width="0.5"/>
    </g>
    <g id="Gruppe_47693" data-name="Gruppe 47693" transform="translate(197.934 -45.293)">
      <path id="Pfad_48340" data-name="Pfad 48340" d="M0,6.162v-17.5" transform="translate(0 11.339)" fill="none" stroke="#fff" stroke-width="0.5"/>
    </g>
    <g id="Gruppe_47694" data-name="Gruppe 47694" transform="translate(57.934 -5.918)">
      <path id="Pfad_48341" data-name="Pfad 48341" d="M0,6.162v-17.5" transform="translate(0 11.339)" fill="none" stroke="#fff" stroke-width="0.5"/>
    </g>
    <g id="Gruppe_47695" data-name="Gruppe 47695" transform="translate(92.934 -5.918)">
      <path id="Pfad_48342" data-name="Pfad 48342" d="M0,6.162v-17.5" transform="translate(0 11.339)" fill="none" stroke="#fff" stroke-width="0.5"/>
    </g>
    <g id="Gruppe_47696" data-name="Gruppe 47696" transform="translate(127.934 -5.918)">
      <path id="Pfad_48343" data-name="Pfad 48343" d="M0,6.162v-17.5" transform="translate(0 11.339)" fill="none" stroke="#fff" stroke-width="0.5"/>
    </g>
    <g id="Gruppe_47697" data-name="Gruppe 47697" transform="translate(162.934 -5.918)">
      <path id="Pfad_48344" data-name="Pfad 48344" d="M0,6.162v-17.5" transform="translate(0 11.339)" fill="none" stroke="#fff" stroke-width="0.5"/>
    </g>
    <g id="Gruppe_47698" data-name="Gruppe 47698" transform="translate(197.934 -5.918)">
      <path id="Pfad_48345" data-name="Pfad 48345" d="M0,6.162v-17.5" transform="translate(0 11.339)" fill="none" stroke="#fff" stroke-width="0.5"/>
    </g>
    <g id="Gruppe_47699" data-name="Gruppe 47699" transform="translate(57.934 -58.417)">
      <path id="Pfad_48346" data-name="Pfad 48346" d="M0,4.621V-8.5" transform="translate(0 8.504)" fill="none" stroke="#519545" stroke-width="0.5"/>
    </g>
    <g id="Gruppe_47700" data-name="Gruppe 47700" transform="translate(92.934 -58.417)">
      <path id="Pfad_48347" data-name="Pfad 48347" d="M0,4.621V-8.5" transform="translate(0 8.504)" fill="none" stroke="#519545" stroke-width="0.5"/>
    </g>
    <g id="Gruppe_47701" data-name="Gruppe 47701" transform="translate(127.934 -58.417)">
      <path id="Pfad_48348" data-name="Pfad 48348" d="M0,4.621V-8.5" transform="translate(0 8.504)" fill="none" stroke="#519545" stroke-width="0.5"/>
    </g>
    <g id="Gruppe_47702" data-name="Gruppe 47702" transform="translate(162.934 -58.417)">
      <path id="Pfad_48349" data-name="Pfad 48349" d="M0,4.621V-8.5" transform="translate(0 8.504)" fill="none" stroke="#519545" stroke-width="0.5"/>
    </g>
    <g id="Gruppe_47703" data-name="Gruppe 47703" transform="translate(197.934 -58.417)">
      <path id="Pfad_48350" data-name="Pfad 48350" d="M0,4.621V-8.5" transform="translate(0 8.504)" fill="none" stroke="#519545" stroke-width="0.5"/>
    </g>
    <g id="Gruppe_47704" data-name="Gruppe 47704" transform="translate(57.934 -19.042)">
      <path id="Pfad_48351" data-name="Pfad 48351" d="M0,4.621V-8.5" transform="translate(0 8.504)" fill="none" stroke="#519545" stroke-width="0.5"/>
    </g>
    <g id="Gruppe_47705" data-name="Gruppe 47705" transform="translate(92.934 -19.042)">
      <path id="Pfad_48352" data-name="Pfad 48352" d="M0,4.621V-8.5" transform="translate(0 8.504)" fill="none" stroke="#519545" stroke-width="0.5"/>
    </g>
    <g id="Gruppe_47706" data-name="Gruppe 47706" transform="translate(127.934 -19.042)">
      <path id="Pfad_48353" data-name="Pfad 48353" d="M0,4.621V-8.5" transform="translate(0 8.504)" fill="none" stroke="#519545" stroke-width="0.5"/>
    </g>
    <g id="Gruppe_47707" data-name="Gruppe 47707" transform="translate(162.934 -19.042)">
      <path id="Pfad_48354" data-name="Pfad 48354" d="M0,4.621V-8.5" transform="translate(0 8.504)" fill="none" stroke="#519545" stroke-width="0.5"/>
    </g>
    <g id="Gruppe_47708" data-name="Gruppe 47708" transform="translate(197.934 -19.042)">
      <path id="Pfad_48355" data-name="Pfad 48355" d="M0,4.621V-8.5" transform="translate(0 8.504)" fill="none" stroke="#519545" stroke-width="0.5"/>
    </g>
    <g id="Gruppe" transform="translate(31.461 -56.74)">
      <text id="JAN" transform="translate(0 9)" fill="#2b2e34" font-size="9" font-family="BrandonGrotesque-Regular, Brandon Grotesque" letter-spacing="0.045em"><tspan x="0" y="0">JAN</tspan></text>
      <text id="FEB" transform="translate(35.773 9)" fill="#2b2e34" font-size="9" font-family="BrandonGrotesque-Regular, Brandon Grotesque" letter-spacing="-0.01em"><tspan x="0" y="0">FEB</tspan></text>
      <text id="MAR" transform="translate(68.925 9)" fill="#2b2e34" font-size="9" font-family="BrandonGrotesque-Regular, Brandon Grotesque" letter-spacing="-0.01em"><tspan x="0" y="0">MAR</tspan></text>
      <text id="APR" transform="translate(105.161 8)" fill="#2b2e34" font-size="8" font-family="BrandonGrotesque-Regular, Brandon Grotesque" letter-spacing="-0.01em"><tspan x="0" y="0">APR</tspan></text>
      <text id="M" transform="translate(139.601 8)" fill="#2b2e34" font-size="8" font-family="BrandonGrotesque-Regular, Brandon Grotesque" letter-spacing="-0.058em"><tspan x="0" y="0">M</tspan></text>
      <text id="AY" transform="translate(147.491 9)" fill="#2b2e34" font-size="9" font-family="BrandonGrotesque-Regular, Brandon Grotesque" letter-spacing="-0.058em"><tspan x="0" y="0">AY</tspan></text>
      <text id="JUN" transform="translate(175.281 8)" fill="#2b2e34" font-size="8" font-family="BrandonGrotesque-Regular, Brandon Grotesque" letter-spacing="-0.01em"><tspan x="0" y="0">JUN</tspan></text>
      <text id="JUL" transform="translate(1.083 48.375)" fill="#2b2e34" font-size="9" font-family="BrandonGrotesque-Regular, Brandon Grotesque" letter-spacing="0.045em"><tspan x="0" y="0">JUL</tspan></text>
      <text id="AUG" transform="translate(34.319 47.375)" fill="#2b2e34" font-size="8" font-family="BrandonGrotesque-Regular, Brandon Grotesque" letter-spacing="-0.017em"><tspan x="0" y="0">AUG</tspan></text>
      <text id="SEP" transform="translate(71.092 48.375)" fill="#2b2e34" font-size="9" font-family="BrandonGrotesque-Regular, Brandon Grotesque" letter-spacing="-0.01em"><tspan x="0" y="0">SEP</tspan></text>
      <text id="OCT" transform="translate(104.772 48.375)" fill="#2b2e34" font-size="9" font-family="BrandonGrotesque-Regular, Brandon Grotesque" letter-spacing="-0.01em"><tspan x="0" y="0">OCT</tspan></text>
      <text id="NOV" transform="translate(138.619 48.375)" fill="#2b2e34" font-size="9" font-family="BrandonGrotesque-Regular, Brandon Grotesque" letter-spacing="-0.014em"><tspan x="0" y="0">NOV</tspan></text>
      <text id="DEC" transform="translate(174.605 48.375)" fill="#2b2e34" font-size="9" font-family="BrandonGrotesque-Regular, Brandon Grotesque" letter-spacing="-0.013em"><tspan x="0" y="0">DEC</tspan></text>
    </g>
  </g>
</svg>
