<svg xmlns="http://www.w3.org/2000/svg" width="210.88" height="69.961" viewBox="0 0 210.88 69.961">
  <g id="Gruppe_40123" data-name="Gruppe 40123" transform="translate(-22.434 58.417)">
    <path id="Pfad_39060" data-name="Pfad 39060" d="M22.934-49.913h34.98v17.489H22.934Zm34.98,0h34.98v17.489H57.914Zm34.98,0h34.98v17.489H92.894Zm34.981,0h34.98v17.489h-34.98Zm34.98,0h34.98v17.489h-34.98Zm0,39.349h34.98V6.924h-34.98Zm34.98,0h34.98V6.924h-34.98Z" transform="translate(0 4.62)" fill="#bbd4b3"/>
    <path id="Pfad_39061" data-name="Pfad 39061" d="M197.834-49.913h34.98v17.489h-34.98ZM22.934-10.564h34.98V6.924H22.934Zm34.98,0h34.98V6.924H57.914Zm34.98,0h34.98V6.924H92.894Zm34.981,0h34.98V6.924h-34.98Z" transform="translate(0 4.62)" fill="#519545"/>
    <g id="Gruppe_40096" data-name="Gruppe 40096" transform="translate(22.934 -58.417)">
      <path id="Pfad_39062" data-name="Pfad 39062" d="M0,4.62V-8.5" transform="translate(0 8.504)" fill="none" stroke="#fff" stroke-width="1"/>
    </g>
    <g id="Gruppe_40097" data-name="Gruppe 40097" transform="translate(22.934 -45.302)">
      <path id="Pfad_39063" data-name="Pfad 39063" d="M0,6.16v-17.5" transform="translate(0 11.339)" fill="none" stroke="#fff" stroke-width="1"/>
    </g>
    <g id="Gruppe_40098" data-name="Gruppe 40098" transform="translate(232.814 -45.302)">
      <path id="Pfad_39064" data-name="Pfad 39064" d="M0,6.16v-17.5" transform="translate(0 11.339)" fill="none" stroke="#fff" stroke-width="1"/>
    </g>
    <g id="Gruppe_40099" data-name="Gruppe 40099" transform="translate(22.934 -27.811)">
      <path id="Pfad_39065" data-name="Pfad 39065" d="M0,3.08V-5.669" transform="translate(0 5.669)" fill="none" stroke="#fff" stroke-width="1"/>
    </g>
    <g id="Gruppe_40100" data-name="Gruppe 40100" transform="translate(22.934 -19.069)">
      <path id="Pfad_39066" data-name="Pfad 39066" d="M0,4.62V-8.5" transform="translate(0 8.504)" fill="none" stroke="#fff" stroke-width="1"/>
    </g>
    <g id="Gruppe_40101" data-name="Gruppe 40101" transform="translate(22.934 -5.956)">
      <path id="Pfad_39067" data-name="Pfad 39067" d="M0,6.16v-17.5" transform="translate(0 11.339)" fill="none" stroke="#fff" stroke-width="1"/>
    </g>
    <g id="Gruppe_40102" data-name="Gruppe 40102" transform="translate(232.814 -5.956)">
      <path id="Pfad_39068" data-name="Pfad 39068" d="M0,6.16v-17.5" transform="translate(0 11.339)" fill="none" stroke="#fff" stroke-width="1"/>
    </g>
    <g id="Gruppe_40103" data-name="Gruppe 40103" transform="translate(57.93 -45.302)">
      <path id="Pfad_39069" data-name="Pfad 39069" d="M0,6.16v-17.5" transform="translate(0 11.339)" fill="none" stroke="#fff" stroke-width="0.5"/>
    </g>
    <g id="Gruppe_40104" data-name="Gruppe 40104" transform="translate(92.894 -45.302)">
      <path id="Pfad_39070" data-name="Pfad 39070" d="M0,6.16v-17.5" transform="translate(0 11.339)" fill="none" stroke="#fff" stroke-width="0.5"/>
    </g>
    <g id="Gruppe_40105" data-name="Gruppe 40105" transform="translate(127.874 -45.302)">
      <path id="Pfad_39071" data-name="Pfad 39071" d="M0,6.16v-17.5" transform="translate(0 11.339)" fill="none" stroke="#fff" stroke-width="0.5"/>
    </g>
    <g id="Gruppe_40106" data-name="Gruppe 40106" transform="translate(162.854 -45.302)">
      <path id="Pfad_39072" data-name="Pfad 39072" d="M0,6.16v-17.5" transform="translate(0 11.339)" fill="none" stroke="#fff" stroke-width="0.5"/>
    </g>
    <g id="Gruppe_40107" data-name="Gruppe 40107" transform="translate(197.818 -45.302)">
      <path id="Pfad_39073" data-name="Pfad 39073" d="M0,6.16v-17.5" transform="translate(0 11.339)" fill="none" stroke="#fff" stroke-width="0.5"/>
    </g>
    <g id="Gruppe_40108" data-name="Gruppe 40108" transform="translate(57.93 -5.956)">
      <path id="Pfad_39074" data-name="Pfad 39074" d="M0,6.16v-17.5" transform="translate(0 11.339)" fill="none" stroke="#fff" stroke-width="0.5"/>
    </g>
    <g id="Gruppe_40109" data-name="Gruppe 40109" transform="translate(92.894 -5.956)">
      <path id="Pfad_39075" data-name="Pfad 39075" d="M0,6.16v-17.5" transform="translate(0 11.339)" fill="none" stroke="#fff" stroke-width="0.5"/>
    </g>
    <g id="Gruppe_40110" data-name="Gruppe 40110" transform="translate(127.874 -5.956)">
      <path id="Pfad_39076" data-name="Pfad 39076" d="M0,6.16v-17.5" transform="translate(0 11.339)" fill="none" stroke="#fff" stroke-width="0.5"/>
    </g>
    <g id="Gruppe_40111" data-name="Gruppe 40111" transform="translate(162.854 -5.956)">
      <path id="Pfad_39077" data-name="Pfad 39077" d="M0,6.16v-17.5" transform="translate(0 11.339)" fill="none" stroke="#fff" stroke-width="0.5"/>
    </g>
    <g id="Gruppe_40112" data-name="Gruppe 40112" transform="translate(197.818 -5.956)">
      <path id="Pfad_39078" data-name="Pfad 39078" d="M0,6.16v-17.5" transform="translate(0 11.339)" fill="none" stroke="#fff" stroke-width="0.5"/>
    </g>
    <g id="Gruppe_40113" data-name="Gruppe 40113" transform="translate(57.93 -58.417)">
      <path id="Pfad_39079" data-name="Pfad 39079" d="M0,4.62V-8.5" transform="translate(0 8.504)" fill="none" stroke="#519545" stroke-width="0.5"/>
    </g>
    <g id="Gruppe_40114" data-name="Gruppe 40114" transform="translate(92.894 -58.417)">
      <path id="Pfad_39080" data-name="Pfad 39080" d="M0,4.62V-8.5" transform="translate(0 8.504)" fill="none" stroke="#519545" stroke-width="0.5"/>
    </g>
    <g id="Gruppe_40115" data-name="Gruppe 40115" transform="translate(127.874 -58.417)">
      <path id="Pfad_39081" data-name="Pfad 39081" d="M0,4.62V-8.5" transform="translate(0 8.504)" fill="none" stroke="#519545" stroke-width="0.5"/>
    </g>
    <g id="Gruppe_40116" data-name="Gruppe 40116" transform="translate(162.854 -58.417)">
      <path id="Pfad_39082" data-name="Pfad 39082" d="M0,4.62V-8.5" transform="translate(0 8.504)" fill="none" stroke="#519545" stroke-width="0.5"/>
    </g>
    <g id="Gruppe_40117" data-name="Gruppe 40117" transform="translate(197.818 -58.417)">
      <path id="Pfad_39083" data-name="Pfad 39083" d="M0,4.62V-8.5" transform="translate(0 8.504)" fill="none" stroke="#519545" stroke-width="0.5"/>
    </g>
    <g id="Gruppe_40118" data-name="Gruppe 40118" transform="translate(57.93 -19.069)">
      <path id="Pfad_39084" data-name="Pfad 39084" d="M0,4.62V-8.5" transform="translate(0 8.504)" fill="none" stroke="#519545" stroke-width="0.5"/>
    </g>
    <g id="Gruppe_40119" data-name="Gruppe 40119" transform="translate(92.894 -19.069)">
      <path id="Pfad_39085" data-name="Pfad 39085" d="M0,4.62V-8.5" transform="translate(0 8.504)" fill="none" stroke="#519545" stroke-width="0.5"/>
    </g>
    <g id="Gruppe_40120" data-name="Gruppe 40120" transform="translate(127.874 -19.069)">
      <path id="Pfad_39086" data-name="Pfad 39086" d="M0,4.62V-8.5" transform="translate(0 8.504)" fill="none" stroke="#519545" stroke-width="0.5"/>
    </g>
    <g id="Gruppe_40121" data-name="Gruppe 40121" transform="translate(162.854 -19.069)">
      <path id="Pfad_39087" data-name="Pfad 39087" d="M0,4.62V-8.5" transform="translate(0 8.504)" fill="none" stroke="#519545" stroke-width="0.5"/>
    </g>
    <g id="Gruppe_40122" data-name="Gruppe 40122" transform="translate(197.818 -19.069)">
      <path id="Pfad_39088" data-name="Pfad 39088" d="M0,4.62V-8.5" transform="translate(0 8.504)" fill="none" stroke="#519545" stroke-width="0.5"/>
    </g>
    <g id="Gruppe" transform="translate(31.46 -56.74)">
      <text id="JAN" transform="translate(0 7)" fill="#2b2e34" font-size="7" font-family="BrandonGrotesque-Regular, Brandon Grotesque" letter-spacing="0.045em"><tspan x="0" y="0">JAN</tspan></text>
      <text id="FEB" transform="translate(35.749 7)" fill="#2b2e34" font-size="7" font-family="BrandonGrotesque-Regular, Brandon Grotesque" letter-spacing="-0.01em"><tspan x="0" y="0">FEB</tspan></text>
      <text id="MAR" transform="translate(68.879 7)" fill="#2b2e34" font-size="7" font-family="BrandonGrotesque-Regular, Brandon Grotesque" letter-spacing="-0.01em"><tspan x="0" y="0">MAR</tspan></text>
      <text id="APR" transform="translate(105.092 7)" fill="#2b2e34" font-size="7" font-family="BrandonGrotesque-Regular, Brandon Grotesque" letter-spacing="-0.01em"><tspan x="0" y="0">APR</tspan></text>
      <text id="MAY" transform="translate(142.396 7)" fill="#2b2e34" font-size="7" font-family="BrandonGrotesque-Regular, Brandon Grotesque" letter-spacing="-0.058em"><tspan x="0" y="0">MAY</tspan></text>
      <text id="JUN" transform="translate(175.165 7)" fill="#2b2e34" font-size="7" font-family="BrandonGrotesque-Regular, Brandon Grotesque" letter-spacing="-0.01em"><tspan x="0" y="0">JUN</tspan></text>
      <text id="JUL" transform="translate(1.083 45.371)" fill="#2b2e34" font-size="6" font-family="BrandonGrotesque-Regular, Brandon Grotesque" letter-spacing="0.045em"><tspan x="0" y="0">JUL</tspan></text>
      <text id="AUG" transform="translate(34.296 45.371)" fill="#2b2e34" font-size="6" font-family="BrandonGrotesque-Regular, Brandon Grotesque" letter-spacing="-0.017em"><tspan x="0" y="0">AUG</tspan></text>
      <text id="SEP" transform="translate(71.046 45.371)" fill="#2b2e34" font-size="6" font-family="BrandonGrotesque-Regular, Brandon Grotesque" letter-spacing="-0.01em"><tspan x="0" y="0">SEP</tspan></text>
      <text id="OCT" transform="translate(104.703 46.371)" fill="#2b2e34" font-size="7" font-family="BrandonGrotesque-Regular, Brandon Grotesque" letter-spacing="-0.01em"><tspan x="0" y="0">OCT</tspan></text>
      <text id="NOV" transform="translate(138.526 45.371)" fill="#2b2e34" font-size="6" font-family="BrandonGrotesque-Regular, Brandon Grotesque" letter-spacing="-0.014em"><tspan x="0" y="0">NOV</tspan></text>
      <text id="DEC" transform="translate(174.489 46.371)" fill="#2b2e34" font-size="7" font-family="BrandonGrotesque-Regular, Brandon Grotesque" letter-spacing="-0.013em"><tspan x="0" y="0">DEC</tspan></text>
    </g>
  </g>
</svg>
