<svg id="Layer_1" data-name="Layer 1" xmlns="http://www.w3.org/2000/svg" viewBox="0 0 1024 1024"><defs><style>.cls-1{fill:none;stroke:#231f20;stroke-linecap:round;stroke-linejoin:round;stroke-width:113.36px;}</style></defs><path class="cls-1" d="M271.54,730.38A330.08,330.08,0,0,1,189,511.53c0-183,148.32-331.28,331.29-331.28a332.4,332.4,0,0,1,79.39,9.57"/><path class="cls-1" d="M756.74,280.57a330.47,330.47,0,0,1,93.71,257.15c-14,182.43-173.15,319-355.58,305a332.45,332.45,0,0,1-73.11-13.9"/><path class="cls-1" d="M336.1,557.11,272.38,728.42a24.88,24.88,0,0,1-31.9,14.6L69.17,679.3"/><path class="cls-1" d="M689.11,461.4l62-171.93a24.87,24.87,0,0,1,31.75-14.92l171.93,62"/></svg>