<?xml version="1.0" encoding="UTF-8"?>
<svg id="Layer_1" data-name="Layer 1" xmlns="http://www.w3.org/2000/svg" viewBox="0 0 1807.56 232.04">
  <defs>
    <style>
      .cls-1 {
        fill: #01161e;
      }

      .cls-2 {
        fill: #087f8c;
      }
    </style>
  </defs>
  <path class="cls-1" d="m263.53,41.08h51.93v188.97h-51.93V41.08Z"/>
  <path class="cls-1" d="m348.65,213.29l18.08-38.45c16.76,11.17,40.75,18.4,64.74,18.4s31.22-7.23,31.22-16.43c0-31.88-109.44-6.9-109.44-78.55,0-35.49,31.88-60.8,84.79-60.8,23.99,0,49.95,4.93,68.36,16.43l-16.76,38.45c-17.09-10.52-35.82-14.46-53.57-14.46-22.35,0-31.55,7.56-31.55,17.42,0,30.89,109.44,7.56,109.44,77.23,0,35.82-30.89,61.13-85.45,61.13-30.24,0-62.11-7.89-79.86-20.38Z"/>
  <path class="cls-1" d="m977.59,41.08h51.93v148.55h92.35v40.42h-144.27V41.08Z"/>
  <path class="cls-1" d="m544.85,148.55V41.08h51.93v105.82c0,29.25,13.15,44.37,38.12,44.37s37.47-15.12,37.47-44.37V41.08h51.27v107.47c0,52.58-32.86,85.12-89.39,85.12s-89.39-32.54-89.39-85.12Z"/>
  <path class="cls-2" d="m1389.38,148.55V41.08h51.92v105.82c0,29.25,13.15,44.37,38.12,44.37s37.47-15.12,37.47-44.37V41.08h51.27v107.47c0,52.58-32.86,85.12-89.39,85.12s-89.39-32.54-89.39-85.12Z"/>
  <g>
    <polygon class="cls-1" points="96.62 102.7 52.87 0 0 0 70 164.32 96.62 102.7"/>
    <polygon class="cls-1" points="193.9 0 94.47 229.72 94.61 230.05 147.19 230.05 246.77 0 193.9 0"/>
  </g>
  <path class="cls-2" d="m1303.93,156.11c29.91-12.82,47.32-38.12,47.32-72.63,0-51.6-38.45-83.48-99.91-83.48h-99.58v43.38h96.62c32.54,0,48.97,14.79,48.97,40.09s-16.43,40.09-48.97,40.09h-96.62v106.48h53.24v-64.09h48.97l44.37,64.09h57.18l-51.6-73.94Z"/>
  <polygon class="cls-1" points="844.49 86.76 784.35 230.05 734.07 230.05 818.86 41.08 870.12 41.08 955.24 230.05 903.97 230.05 844.49 86.76"/>
  <polygon class="cls-2" points="1746.61 41.08 1746.61 67.71 1746.61 70.61 1746.61 145.41 1746.61 145.46 1659.52 41.08 1616.8 41.08 1616.8 64.75 1616.8 139.64 1616.8 200.57 1616.8 230.05 1667.74 230.05 1667.74 200.57 1667.74 125.75 1754.83 230.05 1797.56 230.05 1797.56 217.33 1797.56 206.51 1797.56 206.41 1797.56 131.66 1797.56 70.61 1797.56 67.71 1797.56 41.08 1746.61 41.08"/>
</svg>