<?xml version="1.0" encoding="UTF-8"?>
<svg id="Layer_1" data-name="Layer 1" xmlns="http://www.w3.org/2000/svg" viewBox="0 0 1797.75 231.57">
  <defs>
    <style>
      .cls-1 {
        fill: #fff;
      }

      .cls-2 {
        fill: #087f8c;
      }
    </style>
  </defs>
  <path class="cls-1" d="m262.83,40.97h51.79v188.46h-51.79V40.97Z"/>
  <path class="cls-1" d="m347.72,212.72l18.03-38.35c16.72,11.14,40.64,18.35,64.57,18.35s31.14-7.21,31.14-16.39c0-31.79-109.15-6.88-109.15-78.34,0-35.4,31.79-60.64,84.56-60.64,23.93,0,49.82,4.92,68.18,16.39l-16.72,38.35c-17.04-10.49-35.73-14.42-53.43-14.42-22.29,0-31.47,7.54-31.47,17.37,0,30.81,109.15,7.54,109.15,77.02,0,35.73-30.81,60.96-85.22,60.96-30.15,0-61.95-7.87-79.65-20.32Z"/>
  <path class="cls-1" d="m543.39,148.15V40.97h51.79v105.54c0,29.17,13.11,44.25,38.02,44.25s37.37-15.08,37.37-44.25V40.97h51.13v107.18c0,52.44-32.78,84.89-89.15,84.89s-89.15-32.45-89.15-84.89Z"/>
  <path class="cls-1" d="m979.98,40.97h51.79v148.15h92.1v40.31h-143.89V40.97Z"/>
  <path class="cls-2" d="m1390.66,148.15V40.97h51.79v105.54c0,29.17,13.11,44.25,38.02,44.25s37.37-15.08,37.37-44.25V40.97h51.13v107.18c0,52.44-32.78,84.89-89.15,84.89s-89.15-32.45-89.15-84.89Z"/>
  <g>
    <polygon class="cls-1" points="96.36 102.42 52.73 0 0 0 69.81 163.88 96.36 102.42"/>
    <polygon class="cls-1" points="193.38 0 94.21 229.1 94.36 229.44 146.8 229.44 246.11 0 193.38 0"/>
  </g>
  <path class="cls-2" d="m1305.45,155.69c29.83-12.78,47.2-38.02,47.2-72.44,0-51.46-38.35-83.25-99.64-83.25h-99.31v43.27h96.36c32.45,0,48.84,14.75,48.84,39.99s-16.39,39.99-48.84,39.99h-96.36v106.2h53.1v-63.91h48.84l44.25,63.91h57.03l-51.46-73.75Z"/>
  <polygon class="cls-1" points="847.23 86.53 787.25 229.44 737.1 229.44 821.67 40.97 872.8 40.97 957.69 229.44 906.56 229.44 847.23 86.53"/>
  <polygon class="cls-2" points="1746.81 40.77 1746.81 67.4 1746.81 70.39 1746.81 145.15 1659.72 40.77 1616.99 40.77 1616.99 64.44 1616.99 139.32 1616.99 200.26 1616.99 229.74 1667.93 229.74 1667.93 200.26 1667.93 125.44 1755.02 229.74 1797.75 229.74 1797.75 217.02 1797.75 206.2 1797.75 131.52 1797.75 67.4 1797.75 40.77 1746.81 40.77"/>
</svg>