<?xml version="1.0" encoding="utf-8"?>
<!-- Generator: Adobe Illustrator 27.4.0, SVG Export Plug-In . SVG Version: 6.00 Build 0)  -->
<svg version="1.1" id="Layer_1" xmlns="http://www.w3.org/2000/svg" xmlns:xlink="http://www.w3.org/1999/xlink" x="0px" y="0px"
	 viewBox="0 0 687.6 902.4" style="enable-background:new 0 0 687.6 902.4;" xml:space="preserve">
<style type="text/css">
	.st0{fill:#FFFFFF;stroke:#000000;}
	.st1{fill:#008FC1;stroke:#000000;stroke-linecap:round;stroke-linejoin:round;}
	.st2{fill:#BBAE7B;stroke:#000000;}
	.st3{fill:#008FC1;stroke:#000000;}
	.st4{fill:#944784;stroke:#000000;}
	.st5{fill:#DADADA;stroke:#000000;stroke-linecap:round;stroke-linejoin:round;}
	.st6{fill:#FFFFFF;stroke:#000000;stroke-linecap:round;stroke-linejoin:round;}
</style>
<g id="Gruppe_17" transform="translate(702.78 1615.155)">
	<path id="Pfad_27" class="st0" d="M-650.1-1119.7c0,0,2.8-1.3,3.6,2.1c0.8,3.4,1.5,7.5,3.1,8.4s4.5-0.6,6,1.8
		c1.5,2.4,4.2,1.8,6.7,1.4c2.5-0.5,3.9-1.6,5.1-1.5c1.2,0.1,3.1-0.9,4.5-2.8c1.4-1.9,4.2-2.7,7.3-2.2c3.1,0.5,4.3-0.2,6.3-3.6
		c2-3.5,2.8-5.2,5.1-5.2c2.3,0,1.8-1.3,3.3-3.1c1.5-1.8,3.3-3.7,5.7-3.3c2.4,0.4,7.5,0.6,7.5-3.6c0,0,0.3-2.7-0.8-3
		c-1-0.3-0.8-2.7,2.8-1.6s4.2,0.2,4.8,1.2c0.6,1.1,1.2,1.5,1.2,2.8s2.4,2.8,3.3,2.8c0.9,0,3.6,1.5,3.7,2.2c0.1,0.7,0.6,2.1,0.6,2.1
		s0.9,2.1,2.1,0.6s4.3-0.2,4.8,0.8c0.5,0.9,2.2,2.4,0.9,3.7s-3,1.2-2.8,2.1s-0.2,1.3,2.1,1.8c2.2,0.4,1.5,1.8,3,1.8s5.8,1.8,2.1,2.7
		s-4.3,1.5-4.5,2.4c-0.2,0.9-2.1,2.2-2.1,2.2s-0.6,1.8,2.1,1.3c2.7-0.4,4.2-0.8,3.9,0.6c-0.3,1.3,2.1,1.5,2.2,3.1
		c0.1,1.6,2.7,4.3,0.8,5.1s-2.8,1.8-1.6,3c1.2,1.2,3.3,2.7,3,4.5c-0.3,1.8,0.6,4.3,1.2,4.6c0.9,0.6,1.2,1.9,0.6,2.8
		c-0.8,1.3-0.6,5.1,1.2,6.7c1.8,1.6,1.8,5.8,0.9,7.3s-4.2,4.6-4.2,6.3s-0.3,1.6-1.8,2.4c-1.5,0.8-4.2,4.3-4.2,4.3s-2.2,2.7-2.1,5.4
		c0.1,2.7,0.3,9.1,0.3,9.1s-0.8,1.3,2.1,2.4c2.8,1.1,2.4,1.8,0.9,3.6c-1.5,1.8-2.8,4.2-2.8,5.8c0,1.6,1.6,6.3-0.1,8.2
		c-1.8,1.9-1.8,5.7-1.5,7.8c0.3,2.1-0.9,6.3-1.5,7.3c0,0-2.7,4.5-1.6,8.8c1.1,4.3-0.9,4.2-1.8,6.1c-0.8,1.3-1,2.9-0.6,4.3
		c0.3,1.5-0.2,4.6-1.2,5.2s-3.6,2.7-2.8,4.6c0.8,1.9,1.6,3.6,2.4,3.6c0.8,0,2.1,2.4-0.9,2.7s-3,3.7-3,3.7s0,6-1.2,7.2
		s-3.3,3.1-3.6,4.3c-0.3,1.2-1.4,1.2-1.8-0.8c-0.4-2-2.7-1.6-2.7-1.6s-3.3,0.6-5.7-3.7c-2.4-4.3-6.9-6.7-9.6-5.8s-2.4,2.1-2.4,2.1
		s-2.8,0.9-4.2-1.3s-3.3,0.9-3.7,1.5c-0.4,0.6-3.9,4.2-2.8,5.7c1.1,1.5,1.6,4.3,0.8,5.8c-0.6,1.3-0.8,2.8-0.8,4.2c0,0,0.9,2.1-4.3,3
		s-5.8,3.6-5.8,3.6s-5.2,4.2-7.6,0.2c-2.4-4-3-4.8-4.2-3.3s-2.4,2.7-2.4,2.7s-1.8,1.2-1.8,2.2s-1.5,1.3-1.5-0.6s-1.5-1.3-0.8-3.9
		c0.5-1.4-0.2-2.9-1.5-3.6c0,0-2.4-0.9-1.6-4.2c0.8-3.3-0.6-5.7-1.6-5.7c-1,0-2.1-0.6-3,0.6c-0.9,1.2-0.9,2.7-0.9,4.3
		s-1.5,3.7-2.4,3.7c-0.9,0-3-0.6-3-2.2s-1.2-1-1.2-4.8s0.3-7.5,3-6c1.2,0,2.3,0.6,3,1.5c0.9,1.5,2.2,2.2,1.6-0.2
		c-0.6-2.4-3-1.6-1.8-6.3c0,0,0-1.8-1.5-1.2s-1.6-0.2-1.5-1.8c0.1-1.6-3.3-1.8,0.6-4.6s4.8-6,2.7-7.6c-2.1-1.6-3.3-3.7-1.2-4.8
		c2.1-1.1,0.9-4.3,0.9-4.3s0.6-3.6,1.8-4.6s2.7-3,3.9-9.1c1.2-6.1-0.6-10.2-0.8-12.6c-0.1-2.4,1.5-1.3,2.2,0.3s1.6,4.6,2.8,5.7
		s3.7,2.1,0.8-1.6s-0.8-3.6,0.2-4.3c0.9-0.7,3.6-3.6,3.6-5.4s0-4.3-1.8-4.8c-1.8-0.5-3.6-2.2-4.3-0.9c-0.7,1.3-1.2,2.7-1.3,4.2
		c-0.2,1.3-2.7,2.8-1.8-0.9c0.9-3.7-0.3-4.6,0.3-7.2c0.6-2.6-2.2-7.3,0.8-8.7c3-1.4,5.1,0,4.6-6.9c-0.5-6.9,0.9-8.2,1.3-10.5
		c0.5-2.3-0.6-5.7-3.6-6.1s-0.3-1.8,0-2.7c0.3-0.9,2.1-2.2,0.9-5.2c-0.6-1.6-1.2-3.2-1.6-4.8c-0.4-1.4-1.4-2.6-2.7-3.3
		c-2.1-0.9-0.1-2.1,0-2.8c0.2-0.7-0.3-3.9-2.7-2.7c-2.4,1.2-4.8,1.2-5.1-0.2c-0.3-1.3-2.2-0.6-2.2,0.6s-2.4,0.6-0.9-3.3
		c1.5-3.9,1.6-3.7,2.8-3.6s1.6-1.8,0.2-4.5c-1.5-2.7-3.3-2.2-0.6-5.7c2.7-3.5,2.8-5.4,3.7-6.1c1.2-1.1,1.5-2.9,0.9-4.3
		C-649.9-1115.2-652-1117.8-650.1-1119.7z"/>
</g>
<path id="Pfad_1" class="st0" d="M81.2,70.2c0,0-6-1.1-8.7-0.3s-2.7-1.5-3-2.5s-1.2-2.5-2.7-2.5c-1.4-0.2-2.8-0.5-4-1.1
	c0,0-3.3,0.4-4.2,1.9s-6.7,2.7-9.3,1.9s-3.4,0.4-5.2,0.8s-4,1.1-5.5,1.1s-4.9-1.2-7.2,0s-4,1.8-5.5,1.5s-2.7-0.4-4.2,0.8
	s-3.3,2.5-1.8,4.9c1.5,2.5,1.8,4,1.8,5.2c0.1,1.8,1.1,3.4,2.7,4.2c1.9,1.1,3.7,1.9,3.7,4.5s-0.4,8.7,3,11.7l3.7,3.7
	c1.5-1.2,3.2-2.2,4.9-3c1.9-0.8,6-1.9,7-2.2s7-2.7,9.3-2.5c2.2,0.3,5.5-2.7,5.5-5.2s1.8-6,5.2-4.9c3.4,1.1,5.5-0.8,7-2.7
	s3.3-4.9,4.8-6.3S83.4,72.9,81.2,70.2z"/>
<path id="Pfad_2" class="st0" d="M34.7,106.5c1.5-1.2,3.2-2.2,4.9-3c1.9-0.8,6-1.9,7-2.2s7-2.7,9.3-2.5c2.2,0.3,5.5-2.7,5.5-5.2
	s1.8-6,5.2-4.9s5.5-0.8,7-2.7s3.3-4.9,4.8-6.3s4.9-6.4,2.7-9.3c0,0,1.8-4.5,4.5-3.3s2.5-0.8,3.4-2.2c0,0,2.2-5.5,6.4-7.2
	c4.2-1.8,5.2-4,5.7-5.5s0-4.2-1.8-4.9s-4.8-4.5,0-5.5c0,0,4,0.8,6-1.2s3.7-1.1,4.5-4.8s2.5-4,4.5-3.7s5.7-4.2,6,0c0,0,0,7-1.9,9.4
	c0,0-3.3,3.3-0.4,5.5c2.7,2.2,2.7,3.3,3,4.5s2.2,1.8,3.4,2.7c1.2,1.1,1.5,3.7,1.5,4.8s1.1,1.5,2.7,1.8c-1.4,1.8-3,3.5-4.8,4.9
	c-2.2,1.8-4.5,6.3-6.4,4s-4.8-0.8-3.4,1.9c0.8,1.6,2.1,3,3.7,3.7c2.5,1.1,1.5,1.9,1.2,3.7s-0.8,2.2-1.8,4.8s1.1,8.2,4,10
	c0,0,5.5,5.7,5.2,9.7l0.3,7.5c0,0-0.4,4.2,1.8,4.8c2.2,0.5,4.5,4.5,4.2,7s-0.4,3.3-0.4,3.3s-3.3-2.7-6.3-1.2s-4.2,1.8-3.3,3.7
	c1.1,1.9,0,6.3-3.3,3s-0.4-6.4-5.5-4.9c0,0-5.5-0.5-4,2.7c0,0,2.5,3.3,1.5,5.2s0.4,4.5,1.1,5.2c0.4,0.8,0,7.8,1.9,9.4
	c1.6,1.3,2.6,3.2,2.7,5.2c0,1.5,4.9,2.2,7,1.9c1.9-0.3,4.5,1,5.2,1c0.8,0.1,1.5,0.2,2.2,0.5c-0.2,1.6-0.2,3.3,0,4.9
	c0.4,1.8,2.5,5.2,4.5,5.7s1.1,4.9,3.3,6.7s5.5,3.7,5.5,7s-0.4,6.3-0.4,7.8s1.2,13.5-3,5.2c-0.1-1.7-1.6-3-3.3-2.9
	c-0.3,0-0.6,0.1-0.9,0.2c-3.7,1-2.7-6.4-7.5-1.9s-3.4,5.2-8.2,7s-7.9,1.5-10,0c-1.9-1.5-10.5-4.5-12.7,0.3c0,0-1.9,2.7-4.2,1
	c-2.2-1.8-5.5-5.5-8.7-1c-3.3,4.5-4.9,4.8-5.2,7.2c-0.4,2.6-1.7,5-3.7,6.7c-1.8,1.5-3.4,3-3.3,6c0.3,3-1.8,3.7-2.7,3.4
	c-1.1-0.3-2.7,0.3-4,3.3c-1.2,3-4.9,0.5-6-0.5c-1.1-1-5.2-2.7-7.5-1c0,0,0-5.2-3.7-3.3s-5.7,0.5-7.2-0.5c-1.5-1-4.8-0.5-6-0.3
	c-1.2,0.3-6-1.8-6.7-3s-2.2-1.8-4.5-1.2c-2.2,0.5-4.5-2.5-5.7-4.2c-1.2-1.8-5.7-4.2-7.9-4.2s-1.5-3.3-1.1-4.9c0,0-4.2-5.2-1.8-7
	c1.4-1.3,1.6-3.5,0.3-4.9c0,0,0,0,0,0c-2.2-2.7-2.5-6,1.9-8.2c1.4-1.1,2.4-2.7,2.5-4.5c0.3-3,1.5-4.5,4-4s3.4-0.8,4-4.2
	c0.4-3.4-1.9-1.5-2.7-2.5c-0.9-1.4-0.9-3.1,0-4.5c1.1-1.9-1.1-4.8-4-5.5s-5.7-1.2-6.7-4c0,0-4.2-2.7-2.2-6.4c0,0,2.7-3.4-0.8-4.9
	s-3.3-1.9-2.5-4.2c0,0-2.5-0.5-1.5-2.5c0,0-2.5-3.4,2.7-4c0,0,3.7-2.7,6.3-0.5s4.8,1.2,5.7,0c1.1-1.2,9-4.2,10.9-4.5
	s4.8-0.5,4.9-4.5c0.3-4-0.8-3.3,1.8-5.2l3-3C38,110.8,37,109.5,34.7,106.5z"/>
<path id="Pfad_3" class="st1" d="M53.5,223.1c2.2-1.8,6.4,0,7.5,1s4.8,3.4,6,0.5s3-3.4,4-3.3c1.1,0.3,3-0.5,2.7-3.4s1.5-4.5,3.3-6
	c2-1.7,3.3-4.1,3.7-6.7c0.3-2.5,1.9-2.7,5.2-7.2s6.4-0.8,8.7,1s4.2-1,4.2-1c2.2-4.8,10.8-1.8,12.7-0.3s5.2,1.8,10,0s3.4-2.5,8.2-7
	s3.7,3,7.5,1.9c1.6-0.6,3.4,0.2,4,1.8c0.1,0.3,0.2,0.6,0.2,0.9c2.4,4.8,3,2.8,3.1,0c0,0,4.8-1,5.8,1c1.1,1.9,3,4,5.2,3.4
	c2.2-0.5,4.8-1,5.5,0.8s4.8-0.8,2.5,4.5s-8.2,6.3-4.2,9.3c0,0,1.5,1.8,4.2,0s7.9-3,7,1.8c-1.1,4.8,2.7,3.4,4.8,3.7
	c0,0-1.9,3.7,1.8,5.5c0,0,4.2,1,3,4.8s0,4.5,1.5,6s6,1.8,6.7,4.5s2.7,2.7,5.2,1.9c-1,1.8-2.3,3.4-3.7,4.8c0,0-4.5,0.3-4.9-1.9
	s-2.2-3.7-4.2-3.4s0.8,1.5,0.8,2.7s-1.2,1.8-3.7-0.3c-2.5-1.9-7.9-8.2-10.2-7.5s0.3-1-4-4.2c-4.2-3.3-7-5.2-8.5-7.8
	s-5.5-1.9-6.3-6.4c0,0-3-1.8-3,1c0,2.7-1.5,3.4-3.4,1.5s-1.1-4.2-2.7-5.2c-1.8-1-5.7-1.2-8.7-3.3c-3-1.9-13.5-6-16.5-2.7
	s-6.4,2.2-8.2,3s-6.4,3.3-7.5,6.3s-0.4,8.2-6,6.7c0,0-4.9,1.2-6.4,4.5s-1.9,5.5-3.7,7.2c-1.8,1.8-1.5,4.2-3.3,5.7s-7.5,6.4-13.8,7.2
	s-13.2,0.8-14.5,3c-1.2,2.2-3.7,0.8-4.8-0.3s-5.2,0-5.2,0l-1.1-3.7c0,0-2.5-3.3,0.4-5.7s3.7-3.7,3.7-5.5s2.2-2.2,3.4-2.2
	s1.9-2.5,3.4-4S53.5,229.4,53.5,223.1z"/>
<path id="Pfad_4" class="st0" d="M384.8,133.7c0,0-3.1-2.8-2.7-5.1s-1.4-5.7-3-5.8s-0.6-4.5,0-8.1s-0.1-4.3-3.1-3s-3.9,1.5-5.8-0.3
	s-6.1,0.3-8.8,1.5s-8.2,1.2-7.6-3c0.5-3.1-1-6.2-3.9-7.6c0,0-3.9-1.4-1.5-5.4s1.5-6.9,3.9-9.1s2.4-4.8,0.3-7.5s0.3-2.8-3.6-4.6
	s-1.3-4.5,0.9-8.1s3-4.2,5.1-4.5s2.2-1.6,2.7-3.6s1.6-3.1,4.2-2.7s6,0.9,3.6-2.4s-0.1-3.9,2.7-3.1s3.9,3.3,5.2-0.9s-0.1-6.6-0.1-6.6
	c2.4,1.1,4.9,1.9,7.5,2.2c3.7,0.4,4.6,0.3,5.7,1.4s5.4-0.6,8.4,2.7s7.2,4.3,9.9,3.7s11.1-1.4,14.2,1.5S424,58,424,58
	c1.1,0.4,1.7,1.6,1.3,2.7c0,0.1-0.1,0.2-0.1,0.3c-0.9,2.2,0.8,4.8-2.2,5.2s-5.7,3.9-8.2,5.1s-5.2,4.6-6.1,5.4s-1.3,3,0.1,5.1
	s1.4,4.2,6.1,5.2s9.1,1.4,9.6,2.7s-2.1,3.1-3.3,3.9s-7.5,3.3-6.6,7.3s2.8,3.7,3.9,5.4s2.4,2.2,4.2,1.4s3.6,1.4,3.6,2.1
	s-1.6,3.3-3.1,4.2c-1.8,1.4-2.2,3.9-0.8,5.7c0.4,0.5,0.9,0.9,1.4,1.2c3.6,2.2,8.7,5.7,8.4,8.4s0.6,5.2,2.1,6s2.8,5.7-0.3,5.4
	c0,0-3.6,1.2-4.2,2.8s-2.2-0.1-2.8-1.2c-0.6-0.8-1.5-1.3-2.4-1.6c0,0,2.4-2.1,1.2-4.6s-0.8-3.9-3.3-5.7s-4.2-6.3-7.2-6
	s-3.3,3.1-4.2,4.6s-3.9,6.6-10.5,3.3c0,0-0.8-2.2,2.2-2.2c0,0,3.7-1.4-0.8-3.6s-6.6-2.4-8.1-2.4s-5.7-0.3-5.4,2.8c0,0-3,0.6-0.8,1.8
	s2.4,2.8,0.6,3.3C387.1,132.5,385.9,133,384.8,133.7z"/>
<path id="Pfad_5" class="st0" d="M255.6,94.6c5.1,0.6,0.1,8.4-0.9,9.7s-1.6,2.1,0.8,4.6c2.4,2.5,2.4,3.7,5.4,1.2s4.2,0.6,6.1,0.6
	s5.1-3.6,5.1-5.2s0.8-4.2,1.6-4.5s3.3-3.6,3.3-5.1s0-4.5,1.6-4.2s5.4-0.1,6-2.1c0.6-1.8,2.6-2.8,4.4-2.3c0.1,0,0.3,0.1,0.4,0.2
	c1.9,0.9,2.8-2.1,3.7-3s2.7-0.1,4.8,3.1s3.7,2.2,5.4,0.9s2.1-5.1,1.6-7.6s0-3.1,5.7-2.2s3.1-0.3,6.9-2.2s2.2-7.8,2.2-9.6
	s0-3.1-1.6-2.4s-4.2,0.3-3.1-1.2s0.1-1.2-1.2-4.3s3.1-7.8,4.3-8.2s2.2-2.4-0.6-3.1s-0.3-2.4,1.5-3s2.8-1.6,4.3-0.1s4.2,1.2,3.1-1.2
	s1.2-4.6,2.1-5.7s2.8-3,2.8-4.5s1.5-2.7,3-0.8s4.8,2.8,5.2,5.1s1.6,3.1,3.1,1.6s4.6-1.2,4.6-1.2c3.6,0.3,2.4-1.8,3.7-3.9
	s1.2-6.7,1.2-6.7c-0.7-1.8-1.2-3.6-1.5-5.5c-0.8-4-0.9-3.7-3.4-4.9c-2.6-1.4-4-4.4-3.3-7.3c0.2-1.1,1.1-2,2.2-2.1
	c1.6-0.1,2.8-1.5,2.7-3.1c0,0,0,0,0,0c0-1.4,0-2.8-1.9-2.8s-7.3-0.9-9.3,1.1s-18.3,10.2-22.8,6.3s-8.7-6.3-12.1-4.2
	c-2.5,1.4-5.6,1.2-7.9-0.4C291,1,287.4,0,284.7,0.7s-5.8,2.8-8.7,2.7c-1.2,0.6-1.8,2-1.5,3.3c0.3,2.5-2.4,5.4-3.4,6.1
	s-2.2,3.7-9.3,3.6c-7.2-0.1-1.5-1.8-4.9-4.8c0,0-4.6-2.4-5.4-3.4s-4.3-0.8-5.5-0.3s-3.9,1.1-4.6,1.5s-2.7,3.9-3.9,5.4
	s-2.7,2.7-2.1,7.3s1.1,4.8,1.9,4.8c1.1,0,1.5,2.8,1.2,4.2s-0.3,1.2-0.3,1.2s0.3,4.3,2.5,5.4s8.1,3.3,8.5,5.7
	c0.3,2.4,0.4,5.7-0.3,6.3c-0.9,0.6-5.4-0.8-5.7,1.8c-0.3,2.7,1.4,5.8,0.4,9.7s-3.4,3.7-3.1,6.9s0.9,5.5-3.3,7.2
	c-1.7,0.9-2.9,2.6-3.1,4.5c-0.4,3.3-0.8,3.9,0.3,4.9s1.4,3.9,0,4.2s-1.8,1.2-0.9,2.4c1.1,1.2,2.7,2.7,3.3,4c0.4,1.2,1.1,4.8,5.5,2.5
	s2.1-2.7,6.9-3C253.9,94.6,253.9,93.1,255.6,94.6z"/>
<g id="Gruppe_7" transform="translate(766.444 1160.329)">
	<g id="Gruppe_5">
		<path id="Pfad_6" class="st2" d="M-488.7-984.7c-1.6-0.6-0.6-2.7-3.1-4.2s-2.2-3.1-1.8-4.6s-0.3-3-1.8-2.4
			c-1.5,0.6-4.5-0.2-3.9-2.2s-1.2-2.8-4.8-2.8s-3,0-5.2-5.4c-2.2-5.4-6.3-7.6-8.1-9.6c-1.8-2-3.7-0.6-7.6-3.1
			c-3.9-2.5-0.1-7.2,1.6-8.2c1.8-1-0.1-2.8,1.2-3.9c1.4-1.1,1.2-5.2,0.2-7.5c-1.1-2.3-0.8-7.6,1.2-8.7c2-1.1,3-3.9,3.6-5.1
			c1.5-2.6,3.2-5.1,5.2-7.3c1.6-1.5,1.6-5.8,1.6-5.8c-1.8-1.4-1.8,0.1-6.4,0.3c-4.8,0.3-2.4,0.8-6.9,3s-4.9-1.2-5.5-2.5
			c-0.5-1.2-2.2-2.7-3.3-4c-1-1.2-0.5-2.1,0.9-2.4c1.3-0.3,1.2-3,0-4.2c-1.2-1.2-0.9-1.8-0.3-4.9c0.2-1.9,1.4-3.6,3.1-4.5
			c4.2-1.6,3.7-4,3.3-7.2c-0.3-3.1,2.2-3,3.1-6.9c0.9-3.9-0.8-7.2-0.5-9.7c0.3-2.7,4.8-1.2,5.7-1.8s0.8-3.9,0.3-6.3
			c-0.3-2.4-6.3-4.6-8.5-5.7s-2.5-5.4-2.5-5.4c-1.1,0.3-2.2,0.4-3.3,0.5c-1.6,0-2.7,0.2-3.6-1.2c-0.8-0.9-1.9-1.5-3.1-1.5
			c-0.8,0-2.5-1.8-1.3-3.3c1.2-1.5-0.8-3.4-2.7-2.4c-2,1-5.4,0.8-6.3,0.8c-1,0-1.6,1.3-2.2,2.7c-0.6,1.2-4.5,3.9-2.5,5.7
			c2,1.8,0.3,3.3-0.2,4.2c-0.3,0.9-0.9,2.5,2.2,4.2s5.5,0.9,3.3,4.3c-2.1,3.4-4.5,2.8-3.6,4.2c0.9,1.4,2.2,2.2,2.2,3.3
			c0,1.1-0.5,5.4-2.7,4.9c-2.1-0.3-4.2-3.4-4.8-5.2c-0.5-1.8,0-10.5-6.1-7.6c-6.1,2.9-6,2.5-6.7,1.6c-1-0.9-2.5-0.9-3.4,0.1
			c-0.1,0.2-0.3,0.3-0.4,0.5c-1,1.6-6.6,4.9-9.6,0.3s-4.2-6-5.4-6.7c-1.2-0.7-1.5-2.5-0.3-4c0.9-1,0.9-2.6-0.2-3.5
			c-0.3-0.2-0.6-0.4-0.9-0.5c-1.6-0.5-1.9-1.4-3-2.8c-1.1-1.5-2.7-1.2-4.2,0c-1.5,1.2-3,1-2.7,3.6c0.3,2.7,1.2,12.1-2.4,17.4
			c0,0-2.7,2.7-3.3,4.5c-0.5,1.8-1.2,2.1-2.4,2.1s-2.8,1.5-3.6,2.1c-0.8,0.6-2.7,1.2-1.8,3.1c0.9,1.9,0.6,3.3-1.2,2.8
			c-1.8-0.5-3.4-0.3-3.6,1.8c-0.2,2.1-1.8,4-0.1,6.3c1.6,2.3,2.7,3.3,2.4,5.2s-0.9,2.4-2.1,2.7c-1.2,0.3-2.3,1.1-2.8,2.2
			c-0.3,0.9-4,4.8-4.8-1.8c-0.8-6.6-0.4-7.6-2.5-8.7c-1.9-1.1-4.8-2.5-2.2-4.8c2.5-2.4,3.3-2.1,1.2-4.9c-2.1-2.8-2.4-2.2-3.9-2.1
			c-0.6,1-1.5,1.8-2.5,2.2c-1.4,0.5-2.5,1.5-3.3,2.7c-0.6,0.9-3.3,1.8-4,3.7c-0.7,1.9-2.7,4.5-0.3,7.8c0,0,1.6,1.9-2.1,4
			c0,0-2.7,2.7-1.8,4.5c0.8,1.8,1.8,2.8,1.9,3.7c0,0,0.9,1.5-0.1,2.4c0,0,5.5,5.7,5.2,9.7l0.3,7.5c0,0-0.5,4.2,1.8,4.8
			c2.2,0.5,4.5,4.5,4.2,7c-0.3,2.5-0.5,3.3-0.5,3.3s-3.3-2.7-6.3-1.2s-4.2,1.8-3.3,3.7c1,1.9,0,6.3-3.3,3c-3.3-3.3-0.5-6.4-5.5-4.9
			c0,0-5.5-0.4-4,2.7c0,0,2.5,3.3,1.5,5.2c-1,1.9,0.5,4.5,1.1,5.2c0.4,0.8,0,7.8,1.9,9.4c1.6,1.3,2.6,3.2,2.7,5.2
			c0,1.5,4.9,2.2,7,1.9c1.9-0.3,4.5,1,5.2,1c0.8,0.1,1.5,0.2,2.2,0.5c-0.2,1.6-0.2,3.3,0,4.9c0.5,1.8,2.5,5.2,4.5,5.7s1,4.9,3.3,6.7
			s5.5,3.7,5.5,7s-0.5,6.3-0.5,7.8v0.8c0.8-0.6,6.1-0.8,6.1-0.8c4.9-0.8,1.8-4,1.8-4c-3.3-3.3,0.5-5.2,1.8-6.4
			c1.2-1.2,2.2-3.4-0.8-5.5c-3-1.9-0.8-4-0.8-4c1.9-0.3,3.3-1.9,5.2-5.5c1.9-3.4,5.5-6.4,7.9-6.3c1.2,0.3,2.4-0.4,2.6-1.6
			c0-0.1,0-0.2,0.1-0.3c-0.5-1.9,0.8-2.7,3.3-3c2.6-0.3,4.5,1.9,6.7,4.2c2.2,2.3,3.7-1,3.7-1c0.8-1.2,2.5-1.2,4.9,0.8
			c2.5,1.9,3-1.2,3-1.2c0.5-2.7,4.2-0.8,6.4-0.8s4.2,3,4,4.8c-0.3,1.8,1.8,2.5,4,1.8c2.2-0.7,6,1,6.4,3.7c0.4,2.7,3,6,6.7,5.2
			s6.3,2.5,6.3,2.5c3.3,5.5,12.3,1.9,13,0.8c0.7-1.2,3-5.2,4.9,1.2s9.4,3.4,11.5,2.2c1.9-1.2,5.7-3.7,8.7,0.8c3,4.5,5.7,2.7,5.7,2.7
			c2.5-1.9,13-1.2,13-1.2C-484.9-983.2-487-984.3-488.7-984.7z"/>
	</g>
	<g id="Gruppe_6">
		<path id="Pfad_7" class="st0" d="M-488.7-984.7c-1.6-0.6-0.6-2.7-3.1-4.2s-2.2-3.1-1.8-4.6s-0.3-3-1.8-2.4
			c-1.5,0.6-4.5-0.2-3.9-2.2s-1.2-2.8-4.8-2.8s-3,0-5.2-5.4c-2.2-5.4-6.3-7.6-8.1-9.6c-1.8-2-3.7-0.6-7.6-3.1
			c-3.9-2.5-0.1-7.2,1.6-8.2c1.8-1-0.1-2.8,1.2-3.9c1.4-1.1,1.2-5.2,0.2-7.5c-1.1-2.3-0.8-7.6,1.2-8.7c2-1.1,3-3.9,3.6-5.1
			c1.5-2.6,3.2-5.1,5.2-7.3c1.6-1.5,1.6-5.8,1.6-5.8c-1.8-1.4-1.8,0.1-6.4,0.3c-4.8,0.3-2.4,0.8-6.9,3s-4.9-1.2-5.5-2.5
			c-0.5-1.2-2.2-2.7-3.3-4c-1-1.2-0.5-2.1,0.9-2.4c1.3-0.3,1.2-3,0-4.2c-1.2-1.2-0.9-1.8-0.3-4.9c0.2-1.9,1.4-3.6,3.1-4.5
			c4.2-1.6,3.7-4,3.3-7.2c-0.3-3.1,2.2-3,3.1-6.9c0.9-3.9-0.8-7.2-0.5-9.7c0.3-2.7,4.8-1.2,5.7-1.8s0.8-3.9,0.3-6.3
			c-0.3-2.4-6.3-4.6-8.5-5.7s-2.5-5.4-2.5-5.4c-1.1,0.3-2.2,0.4-3.3,0.5c-1.6,0-2.7,0.2-3.6-1.2c-0.8-0.9-1.9-1.5-3.1-1.5
			c-0.8,0-2.5-1.8-1.3-3.3c1.2-1.5-0.8-3.4-2.7-2.4c-2,1-5.4,0.8-6.3,0.8c-1,0-1.6,1.3-2.2,2.7c-0.6,1.2-4.5,3.9-2.5,5.7
			c2,1.8,0.3,3.3-0.2,4.2c-0.3,0.9-0.9,2.5,2.2,4.2s5.5,0.9,3.3,4.3c-2.1,3.4-4.5,2.8-3.6,4.2c0.9,1.4,2.2,2.2,2.2,3.3
			c0,1.1-0.5,5.4-2.7,4.9c-2.1-0.3-4.2-3.4-4.8-5.2c-0.5-1.8,0-10.5-6.1-7.6c-6.1,2.9-6,2.5-6.7,1.6c-1-0.9-2.5-0.9-3.4,0.1
			c-0.1,0.2-0.3,0.3-0.4,0.5c-1,1.6-6.6,4.9-9.6,0.3s-4.2-6-5.4-6.7c-1.2-0.7-1.5-2.5-0.3-4c0.9-1,0.9-2.6-0.2-3.5
			c-0.3-0.2-0.6-0.4-0.9-0.5c-1.6-0.5-1.9-1.4-3-2.8c-1.1-1.5-2.7-1.2-4.2,0c-1.5,1.2-3,1-2.7,3.6c0.3,2.7,1.2,12.1-2.4,17.4
			c0,0-2.7,2.7-3.3,4.5c-0.5,1.8-1.2,2.1-2.4,2.1s-2.8,1.5-3.6,2.1c-0.8,0.6-2.7,1.2-1.8,3.1c0.9,1.9,0.6,3.3-1.2,2.8
			c-1.8-0.5-3.4-0.3-3.6,1.8c-0.2,2.1-1.8,4-0.1,6.3c1.6,2.3,2.7,3.3,2.4,5.2s-0.9,2.4-2.1,2.7c-1.2,0.3-2.3,1.1-2.8,2.2
			c-0.3,0.9-4,4.8-4.8-1.8c-0.8-6.6-0.4-7.6-2.5-8.7c-1.9-1.1-4.8-2.5-2.2-4.8c2.5-2.4,3.3-2.1,1.2-4.9c-2.1-2.8-2.4-2.2-3.9-2.1
			c-0.6,1-1.5,1.8-2.5,2.2c-1.4,0.5-2.5,1.5-3.3,2.7c-0.6,0.9-3.3,1.8-4,3.7c-0.7,1.9-2.7,4.5-0.3,7.8c0,0,1.6,1.9-2.1,4
			c0,0-2.7,2.7-1.8,4.5c0.8,1.8,1.8,2.8,1.9,3.7c0,0,0.9,1.5-0.1,2.4c0,0,5.5,5.7,5.2,9.7l0.3,7.5c0,0-0.5,4.2,1.8,4.8
			c2.2,0.5,4.5,4.5,4.2,7c-0.3,2.5-0.5,3.3-0.5,3.3s-3.3-2.7-6.3-1.2s-4.2,1.8-3.3,3.7c1,1.9,0,6.3-3.3,3c-3.3-3.3-0.5-6.4-5.5-4.9
			c0,0-5.5-0.4-4,2.7c0,0,2.5,3.3,1.5,5.2c-1,1.9,0.5,4.5,1.1,5.2c0.4,0.8,0,7.8,1.9,9.4c1.6,1.3,2.6,3.2,2.7,5.2
			c0,1.5,4.9,2.2,7,1.9c1.9-0.3,4.5,1,5.2,1c0.8,0.1,1.5,0.2,2.2,0.5c-0.2,1.6-0.2,3.3,0,4.9c0.5,1.8,2.5,5.2,4.5,5.7s1,4.9,3.3,6.7
			s5.5,3.7,5.5,7s-0.5,6.3-0.5,7.8v0.8c0.8-0.6,6.1-0.8,6.1-0.8c4.9-0.8,1.8-4,1.8-4c-3.3-3.3,0.5-5.2,1.8-6.4
			c1.2-1.2,2.2-3.4-0.8-5.5c-3-1.9-0.8-4-0.8-4c1.9-0.3,3.3-1.9,5.2-5.5c1.9-3.4,5.5-6.4,7.9-6.3c1.2,0.3,2.4-0.4,2.6-1.6
			c0-0.1,0-0.2,0.1-0.3c-0.5-1.9,0.8-2.7,3.3-3c2.6-0.3,4.5,1.9,6.7,4.2c2.2,2.3,3.7-1,3.7-1c0.8-1.2,2.5-1.2,4.9,0.8
			c2.5,1.9,3-1.2,3-1.2c0.5-2.7,4.2-0.8,6.4-0.8s4.2,3,4,4.8c-0.3,1.8,1.8,2.5,4,1.8c2.2-0.7,6,1,6.4,3.7c0.4,2.7,3,6,6.7,5.2
			s6.3,2.5,6.3,2.5c3.3,5.5,12.3,1.9,13,0.8c0.7-1.2,3-5.2,4.9,1.2s9.4,3.4,11.5,2.2c1.9-1.2,5.7-3.7,8.7,0.8c3,4.5,5.7,2.7,5.7,2.7
			c2.5-1.9,13-1.2,13-1.2C-484.9-983.2-487-984.3-488.7-984.7z"/>
	</g>
</g>
<path id="Pfad_8" class="st0" d="M53.5,223.1c2.2-1.8,6.4,0,7.5,1s4.8,3.4,6,0.5s3-3.4,4-3.3c1.1,0.3,3-0.5,2.7-3.4s1.5-4.5,3.3-6
	c2-1.7,3.3-4.1,3.7-6.7c0.3-2.5,1.9-2.7,5.2-7.2s6.4-0.8,8.7,1s4.2-1,4.2-1c2.2-4.8,10.8-1.8,12.7-0.3s5.2,1.8,10,0s3.4-2.5,8.2-7
	s3.7,3,7.5,1.9c1.6-0.6,3.4,0.2,4,1.8c0.1,0.3,0.2,0.6,0.2,0.9c2.4,4.8,3,2.8,3.1,0c0,0,4.8-1,5.8,1c1.1,1.9,3,4,5.2,3.4
	c2.2-0.5,4.8-1,5.5,0.8s4.8-0.8,2.5,4.5s-8.2,6.3-4.2,9.3c0,0,1.5,1.8,4.2,0s7.9-3,7,1.8c-1.1,4.8,2.7,3.4,4.8,3.7
	c0,0-1.9,3.7,1.8,5.5c0,0,4.2,1,3,4.8s0,4.5,1.5,6s6,1.8,6.7,4.5s2.7,2.7,5.2,1.9c-1,1.8-2.3,3.4-3.7,4.8c0,0-4.5,0.3-4.9-1.9
	s-2.2-3.7-4.2-3.4s0.8,1.5,0.8,2.7s-1.2,1.8-3.7-0.3c-2.5-1.9-7.9-8.2-10.2-7.5s0.3-1-4-4.2c-4.2-3.3-7-5.2-8.5-7.8
	s-5.5-1.9-6.3-6.4c0,0-3-1.8-3,1c0,2.7-1.5,3.4-3.4,1.5s-1.1-4.2-2.7-5.2c-1.8-1-5.7-1.2-8.7-3.3c-3-1.9-13.5-6-16.5-2.7
	s-6.4,2.2-8.2,3s-6.4,3.3-7.5,6.3s-0.4,8.2-6,6.7c0,0-4.9,1.2-6.4,4.5s-1.9,5.5-3.7,7.2c-1.8,1.8-1.5,4.2-3.3,5.7s-7.5,6.4-13.8,7.2
	s-13.2,0.8-14.5,3c-1.2,2.2-3.7,0.8-4.8-0.3s-5.2,0-5.2,0l-1.1-3.7c0,0-2.5-3.3,0.4-5.7s3.7-3.7,3.7-5.5s2.2-2.2,3.4-2.2
	s1.9-2.5,3.4-4S53.5,229.4,53.5,223.1z"/>
<path id="Pfad_9" class="st0" d="M374.3,367.7c-1.5,0.9-2.7,1.6-3.6-0.6s-1.8-1.8-2.8-3.3s-2.8-2.4-4.8-0.1s-1.8-0.6-3.7-1.5
	s-1.8-2.1-1.8-4.3s-0.1-2.7-2.4-5.4s-0.8-4.2-0.9-7.6s-0.9-4.5-0.6-7.8s-0.9-4.5-1.2-6.9s0-4.2-1.6-5.8s-1.6-1.3-1.8-2.8
	s2.4-2.8,2.1-4.8s-0.6-3.6-2.4-2.1s-4.9,1.4-6.3,1.9s-3.1,2.8-4.6-0.1s-2.4-3.1-3.3-5.5s-5.4-2.4-7-2.1s-2.4-0.9-2.1-2.7
	s1.4-1.5,2.4-3s0.1-1.8,0-2.2s-2.1-0.5-2.8,0.9s-3,0.5-3.3,0c-0.9-0.8-1.8-1.6-2.8-2.2c-0.6-0.5-1.1-1.1-1.4-1.8
	c-0.7,0.6-1.1,1.5-1.2,2.4c-0.3,3,0.3,4.5-2.4,5.4s-2.7,2.7-0.3,5.1s-0.8,3.6-2.8,2.4s-2.7,0.9-4.2,3s0.3,3.6,2.1,3.1
	s2.8,2.1,2.8,4.3s2.4,2.4,3.7,1.6s3-1.4,3.9,1.5s-3.1,3.7-4.2,3.7c-1.3,0.1-2.5,0.7-3.3,1.6c-0.6,0.9-3.6,2.2-5.2,0.3
	s-3.1-1.2-3.9,0.3s0.3,1.5-2.8,2.7s-5.2,6.6-4.3,9.9s0.6,4.6,0.1,11.8s-3,6.6-4.3,6.7l0,0v1.9c0.1,1.2,2.4,1.4,2.4,1.4
	c1.5,0.1,3.6,0.6,2.8,2.7s-3.9,2.8-3,4.8s2.4,2.4,3.6,3.9s5.8,2.4,6.9,1.5s2.7-0.8,3.7,2.1s1.8,4.5,1.8,6s0.1,6,2.7,6.9
	s3.1,0.8,3.6,2.4s0.6,6.7,3,6.9s4.6,0.3,5.2,1.6s3.9,3.1,5.2,3.1c1.3,0.1,2.6-0.8,2.8-2.1c0.1-1.4,0.1-4.2,0.8-4.8s2.7-3.1,2.8-0.9
	s0.9,4.2,2.2,3.1s2.7-1.8,3.6-4.5s1.5-3,2.8-3.7s1.6-2.2,3-3.3s4.2-4.8,6.9-5.2s5.1,0.1,5.7-1.3s2.1-1.5,3.9-1.4s4.2,0.1,5.2-1.6
	s2.8-3,3.1-3.9c0,0,1.2-3,2.4-3.9c1.9-1.7,2.9-4.2,2.7-6.7C377,365,375.8,366.8,374.3,367.7z"/>
<path id="Pfad_10" class="st0" d="M328.3,272.2c-3-1.9-4-0.8-4.5,1s-1.9,3.4-4.9,1.8c-3-1.8-3.4,0.5-3.3,3.4c0.3,3,0.3,5.7-1.2,6.4
	s-2.2,3-2.2,3l0,0c4.5,0.8,3.7,4.2,4.9,4.9s2.1-0.8,3.7-2.2s4.3,0,6.1,0s1.8,1.8,1.2,3.3s-6,1.8-7.5,1.8c-1,0-2.5-0.5-3.6,0.6l0,0
	c0,0,0.5,2.1,1.3,2.7c1,0.6,2,1.4,2.8,2.2c0.3,0.5,2.7,1.4,3.3,0s2.7-1.3,2.8-0.9s1,0.8,0,2.2s-2.1,1.2-2.4,3s0.3,2.8,2.1,2.7
	s6-0.1,7,2.1s1.9,2.5,3.3,5.5s3.3,0.6,4.6,0.1s4.3-0.3,6.3-1.9s2.2,0.1,2.4,2.1s-2.4,3.3-2.1,4.8s0.1,1.2,1.8,2.8s1.5,3.3,1.6,5.8
	s1.5,3.6,1.2,6.9s0.3,4.3,0.6,7.8s-1.4,4.8,0.9,7.6s2.4,3.1,2.4,5.4s0,3.3,1.8,4.3s1.6,3.7,3.7,1.5s3.9-1.4,4.8,0.1s1.8,1.2,2.8,3.3
	s2.1,1.5,3.6,0.6s2.4-2.4,2.7,1.2s-1.4,5.8-2.7,6.7s-2.4,3.9-2.4,3.9l0,0c0.3-0.9,2.7,0.3,4.2,0.3s5.2,3.3,5.2,4.8
	c1.5-0.5,2.9-1,4.3-1.6c2.5-1,3.4-2.5,4.2-4.8s1.5-3.7,3.4-3.7s6.3-0.8,7.8-0.5s3.7,0.5,5.2-1.5s8.2-4.2,10.8-4
	c-0.2-1.8-0.9-3.4-1.8-4.9c-1.5-2.2-2.5-7-2.5-10.5c0-3.1-1.1-6.1-3-8.5c-1.5-1.8-1.2-8.5-3.3-12c-2.1-4.2-3.5-8.8-4-13.5
	c-0.5-4.8,1-9.3-2.5-10.8s-4.9-2.7-6.7-2.5c-1.8,0.3-5.2-1-7.9-3.3s-4.5-5.5-6.4-7.2c-1.9-1.8-6-7.5-9.3-10s-3-5.2-3-5.2
	s0.5-3-3.3-3.3s-5.5-1.8-8.7-3.3c-0.6,1.4-1,2.9-1,4.5c0.1,1.8-0.5,3-1.8,3c-1.7,0.1-3.2,0.9-4.2,2.2c-1.5,1.8-3.3,1.2-3.4-0.3
	c-0.3-1.5,0.5-4.5-2.7-3.3c-3.3,1.2-4,0-1.2-3c2.7-3-1.2-2.5-1.2-2.5s-2.1,1.9-3,3c-0.9,1.2-1.9,0-4.2,0.5c-1.5,0.3-3-0.7-3.3-2.3
	c0-0.1,0-0.3,0-0.4v-2.1L328.3,272.2z"/>
<path id="Pfad_11" class="st0" d="M417.1,368.6c-2.5-0.3-9.3,1.9-10.8,4c-1.5,1.9-3.7,1.8-5.2,1.5s-5.7,0.5-7.8,0.5
	s-2.7,1.5-3.4,3.7c-0.6,2.2-2.1,4-4.2,4.8c-2.5,1-4.3,1.6-4.3,1.6s-1.3,3.6-0.8,5.7s-3.7,1.5-5.2,0.8s-6.6-1.2-6.9,0.8
	s-0.9,2.4-1.2,4.3c-0.2,1.6-1.2,3-2.7,3.6c-1.3,0.6-1.5,2.2-0.1,3.6s2.8,4.5,2.4,6.9c-0.3,2.5,0.3,5.1,1.6,7.2
	c1,1.3,2.4,4.2,4.6,4.3c1.7,0,3.1,1.1,3.6,2.7c0.3,1,3.1,1.5,0.8,2.7s-3.1-1.2-3.9,2.1s-2.7,2.2-3.3,0.9s-3,0.6-4.3-1.6
	s-5.1-2.2-6-1.4s-2.4,2.8-3.3,3.7c-1.1,1.4-1.5,3.1-1.2,4.8c0.3,1.9-0.1,2.2,0.6,3.9s1.5,0.3,2.4-0.6s2.7-1.5,3.6,0.3
	s2.2,2.8,4.2,2.7s3,0.8,3.3,2.2s0.8,4.3,3.6,4.8s3.3,1.6,3,3s-1.8,4.6,0.9,6s3.6,1.6,4.2,3s1.5,2.8,3.3,3c1.5,0,3,0.2,4.5,0.6
	c1.2,0.5,1.8-0.3,1.8-1.8s1.8-2.1,3.1-1.5s3.3,0.3,3.9,1.6s2.1,4.3,5.4,4.2s4.8-0.8,5.7,0.3c1,1.2,1.6,2.7,1.8,4.2
	c1,0,1.9,0.3,2.7,0.9c0.9,1,1.9,0.3,3.1,0s2.4,0.2,2.5-1.2c0.1-1.2,1.5-1.2,2.7-0.8s2.5-1.5,3.6-2.2s3-1.2,1.3-4.2s-2.2-3.3-1.8-5.5
	s1.6-0.3,2.8,0s1.9-0.8,2.4-1.6s3-2.5,4.8-1.2s3.6,2.2,4.3,2.2s3.1-0.3,3.3,1.6c0.1,1.8,0.5,4.5,0.5,4.5s1.4,3.9,4.2,2.4
	s2.5-1,4-3.4s3-4.8,3.6-5.8s3-5.4,4.8-7.2s3.9-2.4,3.1-5.5c-0.8-0.8-1.7-1.5-2.7-2.1c-1.2-0.5-1.8-1.9-1.4-3.1
	c0.3-0.9,0.3-6.3-2.5-7.6c-2.8-1.2-5.1-3.9-7.2-4.8c-1.9-0.9-3.6-2.4-5.7-7.9s-4.2-5.2-6.1-7.6c-2.2-2.6-4.6-5-7.2-7.2
	c-1.8-1.2-4-4.9-4.2-6.9c-0.3-1.8-2.7-7-4.2-9.6s-4.5-5.8-4.2-8.4s-0.5-5.7-0.5-7.2C417.1,370.8,417.1,368.6,417.1,368.6z"/>
<path id="Pfad_12" class="st3" d="M507.5,621.4c-1.5-2.3-3.1-4.5-4.8-6.6c0,0,3-1.5,3.3-2.2c0.4-1.2,0.7-2.5,0.8-3.7
	c0-1,0.6-1.9,1.8-3.3c1.2-1.2,0.6-1.2,0.6-3.3s1.6-0.6,3.1-0.5c1.1,0.2,2.3-0.3,3-1.2c0.6-0.7,0.8-1.7,0.6-2.5
	c0.3-0.8,0.4-1.7,0.5-2.5c0-1.2-1.8-1.6-3.4-1.6c-1.6,0-2.8-2.7-2.8-3.7c-0.1-1-0.5-2-1.2-2.7c-0.7-1-1.3-2-1.8-3
	c-0.6-1.1-1.5-2-2.7-2.5c-1-0.3-1.8-1.2-2.1-2.2c-0.7-1.5-1.5-2.9-2.5-4.2c-0.6-0.7-1-1.4-1.3-2.2c-0.5-1-1.2-1.3-2.2-2.8
	s-0.3-2.5-0.3-3.3c-0.1-1.1,0.2-2.1,0.8-3c0.8-1.2,0.5-2.2-1.2-2.7c-1.1-0.3-2.1-0.9-2.8-1.8c-1.4-1.2-1.9-4.5-1.9-5.8
	c0.1-1.6-0.1-3.2-0.6-4.8c-0.6-1.9-0.1-2.8,0.3-4.3s2.4-0.3,3.3-0.6c1-0.3,2.1-1.2,4.6-0.5c2.5,0.6,1.6-1.6,2.5-3.3
	c1.1-2.2,2-4.4,2.7-6.7c0.2-0.9,0.3-1.9,0.3-2.8c0,0,2.2-1.6,4.3-0.3c1.2,0.9,2.9,1,4.2,0.3c0.9-0.3,5.7-1.9,7.6-2.1
	c1.8-0.2,4.6-2.2,4.6-2.2s2.4-3.3,3.4-2.8s1-1.2,2.1,1.3c1.2,2.7,2.1,3,2.7,4.2c0.7,1.3,1.6,2.4,2.7,3.3c0.8,0.6,1.6,2.1,0.1,2.7
	c-1.5,0.5-4.6-0.5-4.3,1s0.5,2.2,1.2,2.7c0.9,0.5,3.3,1.6,3.9,2.7c0.6,1.1,2.1,1,3,1c0.9,0,6.4-1,7.3,1.8c1,2.8,1,4.2,1.6,5.8
	c0.6,1.8,6.6,10,9.7,10.9c0.8,0.2,1.6,0.6,2.1,1.2c0.6,0.9,2.5,0.3,2.8-0.9c0.3-1.2,2.1-3.1,3-3c0.9,0.1,2.5-0.5,3,0
	c0.5,0.5,4.3-0.3,5.7,1.6c1.2,1.8,1.3,2.7,2.4,3.4s2.7,2.7,1.2,4.3c-1.4,1.6-1.9,4-2.7,4.6s-0.3,2.5,0.5,3.1s1,3.1,0.9,4.5
	c-0.1,1.4,0,3.7,1.6,3.7c1.6,0,3.9-0.3,5.1,2.1l2.7,3.1c0,0-10.8,16-15.4,21.1c0,0-3.9-3.1-5.7-2.7s-2.7,0.6-3.4,1.2
	c-0.9,0.5-2.5-0.3-3.9,1.5s-1.6,2.7-1.6,3.9s-1.3,3.6-1.8,4.5s-2.7,1-2.7,2.5c0,1.3,0.6,2.7,0,3.7c-0.6,1.2-3.1,1.5-4.6,0
	s-2.2-1-3.1-0.3s-1.6,1.9-2.8,2.4c-1.2,0.3-3-0.5-4.2-0.2s-4,2.8-5.8-0.2c-1.8-3-2.7-3.7-2.2-4.8s0.3-2.7-3-1.8s-5.1,0.3-5.4-0.3
	c-0.3-0.8-1.5-2.5-2.5-2.5c-1,0-2.7,0.5-2.7,1.8c0,1.2-0.3,3.7-1.2,4.5s-3.4,2.4-3.3,3.7C509.6,625.3,508.5,623.4,507.5,621.4z"/>
<path id="Pfad_13" class="st4" d="M586.2,589l-2.7-3.1c-1.2-2.5-3.4-2.1-5.1-2.1s-1.8-2.4-1.6-3.7s-0.2-3.9-0.9-4.5
	s-1.2-2.5-0.5-3.1s1.3-3,2.7-4.6s-0.3-3.6-1.2-4.3c-1-0.8-1.2-1.6-2.4-3.4c-1.2-1.8-5.1-1.2-5.7-1.6c-0.4-0.5-2.1,0.2-3,0
	c-0.9-0.2-2.7,1.8-3,3c-0.3,1.2-2.2,1.8-2.8,0.9c-0.5-0.6-1.3-1-2.1-1.2c-3.1-1-9.1-9.3-9.7-10.9c-0.6-1.8-0.6-3-1.6-5.8
	s-6.4-1.8-7.3-1.8c-0.9,0-2.4,0-3-1c-0.6-1-3-2.1-3.9-2.7c-0.9-0.5-1-1.2-1.2-2.7c-0.3-1.5,2.8-0.5,4.3-1c1.5-0.5,0.6-1.9-0.2-2.7
	c-1.1-0.9-2-2.1-2.7-3.3c-0.6-1.2-1.5-1.5-2.7-4.2c-1.2-2.7-1-1-2.1-1.3s-3.4,2.8-3.4,2.8s-2.7,2.1-4.6,2.2
	c-2.6,0.5-5.2,1.2-7.6,2.1c-1.3,0.8-3,0.7-4.2-0.3c-2.1-1.3-4.3,0.3-4.3,0.3c-0.9-0.3-1.9-2.7-3.6-4.2s-4.3-1.3-5.5-1.2
	c-1.2,0.3-6.1-0.5-7.2-0.8s-1.2-2.2-1.6-4.6s0.5-4.8,0.6-6.3s1-2.7-0.3-3.7c-1.2-1.2-3.1-1-5.4-0.9s-2.8-1.2-2.8-1.8
	c0-0.5,0.5-0.9-0.8-2.5s-2.7-2.7-0.9-4.2c1.8-1.6,1.6-3.4,1.2-4.2c-0.7-1.2-1.3-2.4-1.8-3.6c-0.5-1.2-1.2-1.2-3-1.8
	c-0.8-0.3-1.7-0.5-2.5-0.5c-0.2-1.2-0.1-2.5,0.5-3.6c0.5-0.5,0.6-1.2,0.1-2.5c-0.4-1-0.3-2.1,0.3-3c0.5-0.9,0.8-2.7,1.2-3.3
	c0.3-0.6,1.2-1.2,1.5,0.1s2.1,1.6,2.5,0.9s1.6-0.9,1.9-1.6s1.5-0.6,2.1-0.9c0.7-0.5,1.4-0.9,2.1-1.2c1.2-0.4,2.1-1.4,2.2-2.7
	c0.3-1.6-2.1-1.8-3.6-3.3c-1.5-1.3-0.3-3.7,0.3-4.6s0.5-3,0.5-4s1.9-2.7,1.9-2.7s4.8-0.3,5.7,0.3c0.9,0.8,5.1,0.9,6.4,1.2
	s4.9,1.6,8.7,0.8s7-2.4,10.5,0c3.5,2.4,5.8,1.2,7.3,1.2c1.5-0.1,5.5-1,5.5-1s12.4-3.6,16.2,1c0,0,2.5,2.4,2.4,5.4s-0.3,3.6,0.3,4.5
	c0.5,0.9,0.3,4.8-1.3,5.8c-1.8,1.2-8.7,4.9-10.5,5.4s-7.2,3-7.2,6s0,8.4,1.9,9.7c1.9,1.3,5.7,2.5,8.5,4.6c2.7,1.9,5.3,4,7.8,6.1
	c0.9,0.9,15.1,9.7,21,12.7s14.2,6,15.9,7.5c1.6,1.5,13.2,7.9,19.3,9.7c6.1,1.8,6.4,0.8,8.7,5.1c0,0,1.2,2.4,2.1,2.4
	c1.3,0.1,2.5,0.9,3,2.1c0.4,1.3,4,6.4,11.7,10.3c7.8,3.9,5.8-0.5,10.2,4c4.4,4.5,6.9,6.3,10.2,6.7c3.3,0.3,5.5-1,8.7,4
	c3.3,4.9,3.6,5.5,3.6,7.3c0,0,0,1.8,1.2,2.2c1.1,0.1,2.1,0.8,2.7,1.8c0.8,1.2,1.6,4.3,4.6,5.2s5.2,1.9,6.3,4.5
	c0.6,1.5,1.5,2.9,2.5,4.2c0,0,1.6,2.1,1.6,3.4c0.5,1.5,1.8,2.6,3.3,3c2,0.5,3.4,2.3,3.3,4.3c0.1,3,0.5,6,1,9c0.5,1.3,0.3,4.3-1,5.1
	c-1.2,0.8-6.3,8.1-5.2,16.3c0,0,0.8,5.1-1.2,5.7c-1.8,0.5-3.6-1.3-4-2.1c-1.5-2-3.9-3-6.3-2.7c-3.7,0.3-5.5-2.1-6.9-3.9s-7-7-6-10.6
	s2.2-11.8-3.1-13.9c-5.4-2.1-5.7-4.8-5.7-4.8c-1.2-2.6-4-4.2-6.9-3.9c-5.2,0.3-16,2.7-21.9-2.8c-5.8-5.7-8.2-4.8-10.5-7
	c-2.3-2.2-1.5-2.5-0.4-2.7c1-0.3,2.2-3.1,0-3.4s-5.4-2.4-5.7-4c-0.3-1.6-4.3-2.1-5.8-1.9s-3.7-0.6-6.4,2.5
	C588.2,585.7,587.1,587.3,586.2,589z"/>
<path id="Pfad_14" class="st0" d="M510.5,627.1c-0.1-1.3,2.7-3,3.3-3.7c0.7-1.4,1.1-2.9,1.2-4.5c0-1.2,1.8-1.8,2.7-1.8
	c1,0,2.2,1.8,2.5,2.5s2.1,1.2,5.4,0.3c3.3-0.9,3.3,0.6,3,1.8c-0.3,1.2,0.3,1.8,2.2,4.8s4.8,0.5,5.8,0.2c1-0.3,2.8,0.5,4.2,0.2
	c1.2-0.3,1.9-1.6,2.8-2.4c0.9-0.8,1.6-1.2,3.1,0.3s4,1.2,4.6,0s0-2.4,0-3.7s2.2-1.6,2.7-2.5c0.5-0.9,1.8-3.3,1.8-4.5
	s0.3-1.9,1.6-3.9c1.4-1.8,3-1,3.9-1.5s1.8-0.6,3.4-1.2c1.8-0.5,5.7,2.7,5.7,2.7c-1,1.2-2.2,2.3-3.4,3.3c-1.5,1-1.6,2.7-1.2,5.4
	s2.2,9.9-1.2,13.5s-6.3,7.3-6.6,8.4c-0.3,1.1-1.2,4.2,0.8,5.7c2,1.5,3,1.8,2.4,3.7s-0.8,5.8,3.7,5.8c4.5,0,7.6-0.3,7.6-0.3
	s5.2-0.9,5.7,3.3s1.8,5.1,3,5.2c1.3,0,2.6,0.7,3.3,1.8c1.2,1.3,2.8,2.1,4.5,2.4c1.2,0.3,3.1,0.8,3.3,2.2s1.8,3,3.1,3.7
	s5.2,2.1,2.2,5.7c-3,3.6-3.1,6-1.8,9.7c1.2,3,1.1,6.3-0.1,9.3c-1,2.4,0.6,5.2,2.2,6.7c1.6,1.5,4.3,2.8,2.4,3.7s-3.6,6.1-3.9,7.2
	c-0.3,1.1-1.8,3.3-4.3,2.1c-2.5-1.2-5.7-4.2-9-3c-3.3,1.2-11.8,4.3-12.7,4.5s-9.1,2.7-10.3,6.1s-2.8,4.5-3.7,5.1
	c-0.9,0.6-0.3,3,0.6,4.6s1.6,8.2,1.3,12c-0.3,3.8,0.9,10.3-2.1,11.7c-2.7,1.4-5.3,3-7.8,4.8c0,0-2.4,1.8-3.9,0.3s-2.7,1.3-3.6,2.2
	s-3.3,4.6-3.3,5.8c-0.4,2.7-2.2,5-4.8,5.8c-3.6,1.3-3.3,4.5-3.7,6c-0.4,1.5-0.8,9.3-3,10.8s-3.1,5.1-7.6,3.3s-13.3-0.8-13.3-0.8
	s-10.3,1.2-10.2-8.4c0,0,0-4.6-1.8-7.2s0.1-2.7,1.3-3.6s-0.9-3.9-0.6-5.8s3.1-6.1,7.5-6.9s6.3-2.8,6.6-4.8s3.9-9.7,6.6-13.5
	s0.8-5.7-0.6-6.3c-1.3-0.6-4.5-4.2-3.7-7.5s3.1-2.7,4.6-3.6s3.7-3.7,8.1-3.1c4.4,0.6,10.6,1.5,12.9-4.8s-2.1-11.2-5.1-13.3
	s-3.6-6.6-3.3-8.8c0.3-2.2,1.6-21.7-3.6-29.4s-3.6-9.3-6.9-11.1c-3.3-1.8-1.2-4.8-0.9-6.1s-3.7-4.6-3-8.8S510.5,627.1,510.5,627.1z"
	/>
<path id="Pfad_15" class="st4" d="M498,764.9c-0.2,2-1.8,3.5-3.7,3.4c0,0-3.3,1.8-3.3,4.2c0,2.5-0.3,5.5-1.5,6.7s-0.5,1-3.3,4.2
	c-2.7,3.3-3.7,3-4.9,3.7s-1.5,3.7-1.5,3.7s-1.8,3.4-3,4c-1.2,0.5-4.5,2.5-5.5,5.2c-0.6,1.6-1.6,3-3,4c0,0-4.9,7.5-4.5,9.7
	s-0.3,4.8-1.2,5.5c-1.1,1.1-1.6,2.5-1.5,4c0.3,0.8-0.8,1.5-2.2,2.5s-3.4,3-3.4,7.5v6.3c0.1,2.1,1.4,4,3.3,4.9c3.3,1.5,6.4,4.2,7,6.4
	c0.5,2.2-2.7,1.9-2.7,1.9s-3.4,3.7-0.3,5.2c0,0,1.8-0.5,1.8,1.2s0.8,3,1.9,3.3s2.5,0.5,1.2,2.5c-1.2,1.9,1.9,4.2,1.9,4.2
	s0.5,4.5-1.8,1.9s-2.2,1.2-2.2,1.2l-3,1.2c0,0-10.5,12-8.5,17.7s0.5,7.9,0.5,7.9s-1.2,1.8-2.5,0.8c-1.2-1-1.8,3-3.3,0.5
	s-5.2-3.7-5.2-3.7s-3.7-1.9-4.9-1.9c-2,0-4,0.3-6,0.8c-1.5,0.5-6.4,1.9-12.4-4.8c-1.6-1.8-3.7-3-6-3.4c-3.4-0.5-5.2-1.5-5.5-3.7
	s-3.7-7.9-4.8-12.4s-9.4-13.8-21.3-13.5c0,0-8.7,0.5-12.3-2.5c-3.4-3-11.5-5.7-11.5-5.7s-2.5-1-4.8-6s-6.3-5.2-6.3-5.2s-7,1-9.3-4.5
	c0,0-1.9-3.3-5.2-3.4c-1.1-0.8-1.8-2.1-1.9-3.4c-0.3-2.2-3.4-4.9-4.9-5.7s-9.4-2.5-10.5-4.9c-1.6-3-4.6-5-7.9-5.2h-12.7
	c0,0-3.7,0.3-4-2.5c-0.3-2.7-1.9-5.5-4.8-5.2c-2.7,0.3-4.2-3.3-4.9-6c-0.5-1.6-1.4-3.1-2.7-4.2c0,0-2.5-0.8,0.5-4s3.7-0.3,4.9-4
	s0-7.9,1.5-9s-0.3-8.2,4.5-9.4c2.7-0.6,5.2-1.7,7.5-3.3c0,0,1.5-1.5,3-1.2s1.9,0,1.8-2.5c-0.3-2.5,0.5-3.3,2.5-1.5
	c1.9,1.8,3.3,3.7,3.3,6.7c0,1.7,0.5,3.4,1.5,4.8c0,0,2.5,2.7,5.7,1.5c1.9-0.7,4-1.2,6-1.5c0,0,3,0.5,3-3s0.5-7.9,4.9-7.5
	s5.5,1.8,8.7,0.3c3.3-1.5,7.9-0.5,8.5,3c0.5,3.4,1.8,6.7,4.9,6.7c3.3,0,5.5-1.2,6.4,1.2c1,2.5,0.5,3.3,3.4,5.7
	c1.5,1.2,2.9,2.6,4,4.2c0,0,2.5,5.2,7.5,2.5s11.7-6,14.7-4.8s6,1.8,8.2,1s4,0.3,7.2,1.5c3.3,1.2,10.2-1.2,10.2-1.2
	c2.1-0.9,4.5-1.2,6.7-0.8c3.7,0.8,6-0.3,8.5-1.5s7-8.2,12.7-7.2s3.4-2.5,8.5,0c4.9,2.5,4.5,5.2,11.2,4.2s5.7-2.2,7-4
	c1-1.6,1.8-3.2,2.5-4.9c0,0,2.7-1.9,3,2.7c0.3,4.8,4.9,0,4.9,0s4-2.2,6.4-3.3c2.5-1,6.7-4,8.7-2.7C495,762.8,496.6,763.8,498,764.9z
	"/>
<path id="Pfad_16" class="st4" d="M391.6,507.3c1.4,0.3,3.6-1.6,6.3-3.3s3.1-3.7,2.1-4.8s-0.1-4.5-0.3-6.1s1.2-3.1,2.2-3.1
	c1.3,0,2.4-0.7,3-1.8c0.9-1.5,2.2-0.9,3.3-0.3s0.6,2.2,0.6,5.2s4.5,1.6,4.5,1.6c2.8,0,1.2-4.8,0.8-6.7s2.8-4.8,2.8-4.8
	c3.9-1,4,2.8,4.2,4c0,0.7,0.6,1.2,1.3,1.1c0.2,0,0.5-0.1,0.6-0.2c0.6-0.5,2.4,0.8,3.6,0.6s2.7,1.6,2.8,2.7c0.3,1.2,0.8,0.8,4.5,2.2
	c2.4,0.9,4.6,2.3,6.3,4.2c1,0.8,1.8,1.2,3,0.9s4.2-0.5,5.7,0.5c1.5,1,2.1,0.9,2.1,0s0.6-1.5,1-2.4c0.3-0.9,1.9-1.5,2.7-1.8
	c1.2-0.3,2.3-0.9,3.1-1.8c1.4-1.5,1.9-0.3,2.8,1.6c0.9,1.8,1.6,0.5,3.4-0.3c1.2-0.5,2.3-1.5,2.8-2.7c0.5-0.8,2.8-0.9,2.8-0.9
	c0.9,0,1.7,0.1,2.5,0.5c1.8,0.6,2.5,0.8,3,1.8c0.5,1.3,1.1,2.5,1.8,3.6c0.5,0.6,0.6,2.5-1.2,4.2s-0.3,2.5,0.9,4.2s0.8,1.9,0.8,2.5
	c0,0.5,0.6,1.8,2.8,1.8c2.2-0.1,4.2-0.3,5.4,0.9c1.2,1.2,0.3,2.2,0.3,3.7c-0.1,1.5-1.2,3.9-0.6,6.3c0.5,2.4,0.5,4.2,1.6,4.6
	s6.1,1,7.2,0.8c1.2-0.3,3.9-0.5,5.5,1.2c1.6,1.5,2.7,3.9,3.6,4.2c0,0-0.1,1.5-0.3,2.8c-0.7,2.3-1.6,4.6-2.7,6.7
	c-0.9,1.8,0,4-2.5,3.3c-1.6-0.4-3.2-0.2-4.6,0.4c-1,0.3-3-0.9-3.3,0.6s-0.9,2.5-0.3,4.3c0.5,1.6,0.7,3.2,0.6,4.8
	c0,1.3,0.6,4.8,1.9,5.8c0.8,0.8,1.8,1.5,2.8,1.8c1.6,0.3,1.8,1.5,1.2,2.7c-0.5,0.9-0.7,2-0.8,3c0,0.8-0.8,1.8,0.3,3.3
	s1.8,1.9,2.2,2.8c0.4,0.8,0.8,1.5,1.3,2.2c1,1.3,1.8,2.7,2.5,4.2c0.3,1,1.1,1.9,2.1,2.2c1.1,0.6,2,1.5,2.7,2.5
	c0.6,1.1,1.2,2.5,1.8,3c0.7,0.7,1.1,1.7,1.2,2.7c0,1.2,1.2,3.7,2.8,3.7s3.4,0.4,3.4,1.6c0,0.9-0.2,1.7-0.4,2.5
	c0.2,0.9,0,1.8-0.6,2.5c-0.7,0.9-1.9,1.3-3,1.2c-1.5-0.2-3.1-1.8-3.1,0.4s0.5,2.1-0.6,3.3c-1.2,1.2-1.8,2.1-1.8,3.3
	c0,1.3-0.2,2.6-0.8,3.7c-0.5,0.8-3.3,2.2-3.3,2.2s-1.2-1.5-4.3-1.2c-1.5,0.4-2.9,1-4.2,1.8c-0.9,0.8-0.8,1.2-1.2,2.2
	c-0.4,1-1.2,1.6-2.2,1.8c-0.9,0-1.7,0-2.5-0.2c0,0-1.9,0.3-2.5-0.9c-0.5-1.2-2.8-2.1-3.9-2.1s-1.4-1.2-1.4-2.1
	c0-0.9,0.9-2.7-1.6-3.7c-2.5-1.2-3.7-1.9-4.2-3c-0.5-1.8-2-3.1-3.9-3.3c-2.7-0.3-3.3-0.9-4.3-2.1s-3.3-3.1-4.8-3.4
	c-1.5-0.3-4-1.5-2.1-3.9c1.3-1.5,2-3.3,2.2-5.2c0.3-2.1,0.3-2.5,1.4-3.3c1-0.6,2.1-4.2,0.9-6.4c-1.2-2.2-2.4-3-2.5-4.6
	c-0.3-1.7-0.9-3.3-1.8-4.8c-0.6-1.2-2.2-3-2.4-4.9s-0.6-2.4-2.1-3.4s-2.5-2.2-3.6-1.8c-1.1,0.4-2.1,0.3-3.1,1.3
	c-1,1-3.1,0.4-4.2,0.3c-1.2-0.2-4.2,0.5-5.4,0.5s-5.5-0.5-7.2,0.2c-1.2,0.5-2.3,1.1-3.4,1.8c-1.5,0.9-2.2,2.2-3.3,1.6
	c-0.9-0.6-1.3-1.7-0.8-2.7c0.4-0.8,1.1-1.5,1.9-1.9c1.3-0.7,2.5-1.5,3.6-2.4c0.9-0.4,1.2-1.8,2.2-1.8c1-0.2,1.9-4.2,1.2-5.7
	c-0.9-1.3-1.6-1.6-2.5-1.5c-0.9,0.1-2.8,0.2-2.8-1.2c0-1.4-0.5-2.2-1.2-2.4s-2.7-0.9-2.2-1.9s-0.9-2.2-1.5-2.2c-0.8,0-1.5,0.4-1.8,1
	c-0.4,0.7-1,1.3-1.8,1.5c-0.6,0.2-1.2,1.5-2.2,1.6c-1.2,0.1-2.2-0.6-2.7-1.6c-0.3-0.8-1.8-1-2.5-0.9c-0.8,0.3-1.2,1.3-1.6,1.8
	c-0.4,0.4-2.5,1.5-2.5-0.9s1.3-5.2,0.6-7.8s-2.2-2.5-2.2-4.5c0-2,0.3-3.3-1.2-3.7c-1.5-0.4-3-2.7-4-2.7s-1.2-3.4-0.8-4.5
	s-1.9-2.5-2.7-4S394.7,511,391.6,507.3z"/>
<path id="Pfad_17" class="st4" d="M398.5,548.1c0,0-1.8-1.8-2.4,0.2c-0.3,1.2-0.8,2.3-1.4,3.3c-0.3,0.3-0.6,1.8,0.6,2.1
	c1.2,0.3,2.5-1.2,3-0.6c0.7,0.5,1.6,0.4,2.2-0.3c0.1-0.1,0.2-0.3,0.2-0.5C401.3,550.8,399.2,548.4,398.5,548.1z"/>
<path id="Pfad_18" class="st4" d="M405.5,546.7c0,0-1.2,1-0.6,1.8c0.5,0.9,0.9,1,1.5,0.3c0.6-0.6,0.6-1.6,0.8-2.2
	C407.3,546.1,406.4,545.8,405.5,546.7z"/>
<path id="Pfad_19" class="st4" d="M419.8,566.8c0,0-0.8,1.3-1.8,1.5s-1.2,1-1.9,1c-0.9-0.2-1-1.8,0.3-2.5c1.2-0.8,1.6-1.5,2.4-1.6
	C419.5,565,420.1,566,419.8,566.8z"/>
<path id="Pfad_20" class="st4" d="M290.8,363.8c-1.4,0.1-2.8,0.3-3.6,1.5s-3.1,1.2-3.1,1.2c-3.7,0.1-4.5,3-1.4,5.1s-0.1,2.8-0.1,4.3
	s-0.9,2.8-2.2,4.3c-1.4,1.4-3.5,1.9-5.4,1.3c-1.8-0.5-3.6-0.6-3.3,3c0.3,3.6,2.1,2.4,1.8,6.1s-4.8,1.2-4.8,1.2
	c-4.5-0.6-5.7,2.7-5.7,2.7l1.2,0.6c2.2,0.6,7.6,10.6,8.4,14.7s1.8,1.5,3.7,10.8c1.9,9.3,6.6,8.7,8.5,9c2.1,0.3,3.3,5.1,4.3,6.9
	s5.2,3.3,8.4,4.8s2.2,6.7,2.8,10.8s4.8,3.9,5.7,5.8s-0.3,1.8,3.3,3.1s3.6,3.6,3.6,3.6c0,3.7,2.1,3.7,2.8,4.5c1.7,1.5,3,3.3,3.7,5.4
	c1,3,2.7,2.8,3.7,5.1c0.8,1.7,2.5,2.7,4.3,2.7c1.8,0,3.3,1.3,3.6,3c0.6,2.4,3,2.1,4.5,1.8s3.7,0.9,5.7,3s3.6,4.5,5.7,6.1
	s0.6,5.1,1.2,6s3.9,0.8,5.1,0.2s1.6-2.7,4.2-2.2s5.8-2.8,6.7-3.1s3.1-1.5,4.5,2.1s5.7,4.6,7.5,6.9s4.8,1.2,6-0.8s3.6-1.8,6-1.6
	s3.6,3.7,3.6,3.7c1.4,0.3,3.6-1.6,6.3-3.3s3.1-3.7,2.1-4.8s-0.1-4.5-0.3-6.1s1.2-3.1,2.2-3.1c1.3,0,2.4-0.7,3-1.8
	c0.9-1.5,2.2-0.9,3.3-0.3s0.6,2.2,0.6,5.2s4.5,1.6,4.5,1.6c2.8,0,1.2-4.8,0.8-6.7s2.8-4.8,2.8-4.8s-1.5-0.9-1.8-1.6
	s-2.2-2.2-2.8-3.1s-0.1-4.5-0.1-4.5s-1.2-0.9-1.2-1.8s-1.2-3-1.8-4.2s-2.2-0.6-5.7-0.3s-4.8-2.8-5.4-4.2s-2.7-1.2-3.9-1.6
	s-3.1,0-3.1,1.5s-0.8,2.2-1.8,1.8s-2.7-0.3-4.5-0.6c-1.6-0.3-2.9-1.5-3.3-3c-0.5-1.4-1.3-1.6-4.2-3s-1.4-4.6-0.9-6s-0.1-2.4-3-3
	s-3.1-3.3-3.6-4.8c-0.3-1.5-1.8-2.5-3.3-2.2c-1.8,0.1-3.1-0.8-4.2-2.7s-2.7-1.4-3.6-0.3s-1.6,2.2-2.4,0.6s-0.1-1.8-0.6-3.9
	c-0.5-1.7,0-3.5,1.2-4.8c1-0.9,2.4-2.8,3.3-3.7s4.6-0.9,6,1.3s3.6,0.3,4.3,1.6s2.7,2.2,3.3-0.9s1.5-0.9,3.9-2.1s-0.6-1.6-0.8-2.7
	s-1.4-2.4-3.6-2.7s-3.6-3-4.6-4.3c-1.4-2.1-2-4.7-1.6-7.2c0.5-2.5-1.2-5.7-2.4-6.9s-1.2-3,0.1-3.6c1.5-0.6,2.5-2,2.7-3.6
	c0.3-1.9,0.8-2.4,1.2-4.3s5.4-1.5,6.9-0.8s5.8,1.3,5.2-0.8s0.8-5.7,0.8-5.7c0-1.5-3.7-4.8-5.2-4.8s-3.7-1.3-4.2-0.3
	s-2.1,2.1-3.1,3.9s-3.3,1.8-5.2,1.6s-3.3-0.1-3.9,1.3s-2.8,0.9-5.7,1.4s-5.7,4.2-6.9,5.2s-1.6,2.7-3,3.3s-1.8,1.2-2.8,3.7
	c-0.7,1.9-1.9,3.4-3.6,4.5c-1.4,0.9-2.1-0.9-2.2-3.1s-2.2,0.1-2.8,0.9s-0.6,3.6-0.8,4.8c-0.3,1.3-1.5,2.2-2.8,2.1
	c-1.4,0-4.6-1.8-5.2-3.1s-2.8-1.5-5.2-1.6s-2.7-5.2-3-6.9s-1.2-1.5-3.6-2.4s-2.7-5.4-2.7-6.9s-0.8-3.1-1.8-6s-2.7-3-3.7-2.1
	s-5.8,0-6.9-1.5s-2.7-1.8-3.6-3.9s2.2-2.8,3-4.8s-1.4-2.4-2.8-2.7c0,0-2.2-0.3-2.4-1.3v-2.7L290.8,363.8z"/>
<g id="Gruppe_12" transform="translate(832.022 1345.336)">
	<g id="Gruppe_11" transform="translate(0 0)">
		<path id="Pfad_21" class="st0" d="M-519.9-1057.4l-2.2-0.3c-2.5-0.3-4.5-2.2-7.2-4.8c-2.7-2.6-7.5-2.2-8.2-4c-1-2.2-2.2-4.2-3.7-6
			c-1.9-2.5-1.9-8.2-1.9-8.2c0-4.2,4.2-4.9,4.8-6.7c0.5-1.8,1.5-3,0.5-4.5s-3.7,0.4-5.5,0.8c-1.8,0.3-3.4,0-3.3-2.5
			c0.3-2.5-0.3-2.2-3.3-2.2s-3.7-0.3-5.2-4.2c-1.5-3.9-3.4-0.3-5.7-0.8c-2.3-0.4-2.7,0.8-4.8,1.5s-4,0.8-3.4,3.3
			c0.5,2.5-1.2,3-1.9,1.5c-0.7-1.5,0,0-3.7,0c-3.7,0-4.2-1.9-4.2-1.9c-0.3-4-3-1.8-5.7,0.5c-2.7,2.2-4.8,1.5-6-1.9
			c-1.2-3.4-3.3-2.2-5.2-2.7s-3-1.5-5.2,0.8s-3.4-0.8-4.8-1.9s-3-1.9-4-6.7c-1-4.8-3.4-2.5-5.2-4.5c-1.5-1.7-3.7-2.7-6-2.7
			c-1.9,0-4.5-0.3-6-3.7c-0.7-1.9-2.3-3.4-4.2-4c-3.3-0.8-5.2-5.2-5.7-7.9c-0.5-2.7-2.2-3.3-6-4.5c-3.8-1.2-6.7,4-8.5,5.7
			c-1.5,1.7-2.9,3.4-4.2,5.2l0,0c0,0-1.9,3.7,1.8,5.5c0,0,4.2,1.1,3,4.8s0,4.5,1.5,6s6,1.8,6.7,4.5c0.7,2.7,2.7,2.7,5.2,1.9
			c-1,1.8-2.3,3.4-3.7,4.8c0,0,3,0.2,4.5,1.8s3.3,3.1,4.3,4.8c1,1.7,5.7,6.3,5.7,15.9c0,0,0.6,15.3,0,18c-0.6,2.7-1.5,4.8,0.9,7.2
			c2.4,2.4,6.7,10.3,6.7,14.8c0,4.5,2.4,3.1,3.3,5.1c0.9,2-1.2,4.3,0.2,7.5s1.6,6.9,0.8,8.4s-2.1,5.8-4.3,7.8
			c-2.2,2-1.6,3.6-0.9,4.5c0.7,0.9,3.7,2.2,8.2-0.3c0,0,6.1-1.5,8.2,3.3s1.6,6.1,0.3,8.2s-2.8,2.1-1.2,3.6c1.6,1.5,3.6,0,6.7,2.7
			c3.1,2.7,5.2,4.8,6,6.9c0.8,2.1,0.1,1.4,3.3,3.1c3.2,1.8,1.5,3.9,1.5,5.2c-0.1,1.9,1.3,3.6,3.1,3.9c2.4,0.3,2.4,3.3,2.1,4.6
			s-0.6,3.1-2.7,3.3c-2.1,0.2-3.1,0.6-2.8,2.4c0.6,2.2,1.9,4.1,3.7,5.4c1.5,0.9,3.3,0.6,3.6-1.5c0.3-2.1,2.1-4.5,4.6-3.1
			c0,0,4.5,2.7,6.3,3c0,0,1.2-3.1,5.7-2.7c0,0,4.6,2.7,4.8-1.2s-1.6-2.7-1.8-6.1s1.5-3.6,3.3-3c1.9,0.6,4,0.1,5.4-1.3
			c1.2-1.5,2.2-2.8,2.2-4.3s3.3-2.2,0.1-4.3c-3.1-2.1-2.4-4.8,1.4-5.1c0,0,2.4,0,3.1-1.2c0.7-1.2,2.2-1.3,3.6-1.5s3.9,0.3,4.3-6.7
			c0.4-7,0.8-8.4-0.1-11.8c-0.9-3.4,1.2-8.8,4.3-9.9c3.1-1.1,2.1-1.2,2.8-2.7c0.7-1.5,2.2-2.2,3.9-0.3c1.7,1.9,4.5,0.6,5.2-0.3
			c0.9-0.9,2-1.5,3.3-1.6c0.9,0,5.1-0.9,4.2-3.7c-0.9-2.8-2.7-2.2-3.9-1.5c-1.2,0.7-3.7,0.6-3.7-1.6c0-2.2-1.2-4.6-2.8-4.3
			c-1.6,0.3-3.6-1.2-2.1-3.1s2.1-4.2,4.2-3c2.1,1.2,5.1,0,2.8-2.4c-2.3-2.4-2.4-4.2,0.3-5.1c2.7-0.9,2.1-2.4,2.4-5.4
			s3.1-3.9,4.6-3.9s6.7-0.3,7.5-1.8s0.8-3.3-1.2-3.3s-4.5-1.5-6.1,0s-2.4,3-3.7,2.2C-516.6-1053.2-515.4-1056.7-519.9-1057.4z"/>
		<path id="Pfad_22" class="st0" d="M-633.9-994c-0.8,0.5-1.4,1.2-1.9,1.9c-0.8,1.2-2.7,0.3-4-0.8c-1.2-1-6,0.8-5.7,2.7
			c0.3,2,1.5,3.7,5.5,3.4c4-0.3,6.4-2.2,7.9-1.5c1.5,0.7,3,2.2,4.8,0.3c1.8-1.9,2.7-7.2-1-6c-0.9,0.5-1.9,0.9-3,1
			C-632.4-992.8-632.4-994.5-633.9-994z"/>
	</g>
</g>
<path id="Pfad_23" class="st4" d="M281.7,179.9c2.7,0,7,2.2,10.9,6.7c4,4.5,7.9-1,7.9-1c1.8-4,10.8-2.7,12.7-3.3
	c1.9-0.5,1.8-1.5,4-1.5s8.2,4.5,9.3,5.2s4.2,0.5,7-0.3c2.7-0.8,2.5,3.4,2.7,5.2c0.3,1.8,1,2.5,1.2,5.2c0.3,2.7,2.2,2.5,2.2,2.5
	s-0.5-3.9,1.8-3.9c0,0,4.2-0.6,4.5-3.1s3.3-4.5,1.4-7.2c-2-2.7-4.3-7.3-6.3-7.8c-2-0.5-3.9-3.9-3.6-7.8s-1.3-5.2-3.7-4.3
	s-1.6-3.1-1.2-4.2s-0.6-2.8-1.6-1.4c-1,1.5-2.7-2.1,0.3-3s6.3-3.7,5.1-6.9c-1.2-3.2,1.2-4.5,4.6-6.7s4.8-3.1,7.2-3.1
	s3.7-0.1,4.6-1.4c0.9-1.2,3.7,0.1,0.8,2.1c-3,2-4.2,0.1-5.7,3.1s2.8,2.4,4.8,1.6s6.6-1.8,9.1-2.8c2.6-1.1,5-2.5,7.2-4.2
	c1.3-1.2,7.2-3.6,12.3-3.3c1.1-0.1,2.2-0.4,3.1-0.9c0,0-3.1-2.8-2.7-5.1s-1.4-5.7-3-5.8c-1.7-0.1-0.6-4.5,0-8.1
	c0.6-3.6-0.2-4.3-3.1-3c-3,1.3-3.9,1.5-5.8-0.3s-6.1,0.3-8.8,1.5s-8.2,1.2-7.6-3c0.5-3.1-1-6.2-3.9-7.6c0,0-3.9-1.4-1.5-5.4
	c2.4-4,1.5-6.9,3.9-9.1c2.4-2.2,2.4-4.8,0.3-7.5c-2.1-2.7,0.3-2.8-3.6-4.6c-3.9-1.8-1.3-4.5,0.9-8.1s3-4.2,5.1-4.5
	c2.1-0.3,2.2-1.6,2.7-3.6c0.5-2,1.6-3.1,4.2-2.7s6,0.9,3.6-2.4c-2.4-3.3-0.2-3.9,2.7-3.1c2.8,0.8,3.9,3.3,5.2-0.9
	c1.3-4.2-0.2-6.6-0.2-6.6s-2.1-2.8-5.2-2.8c-3.1,0-5.8-0.1-5.7-2.8c0.1-2.7-3.3-9.1-9.1-10.5c0,0,0.1,4.6-1.2,6.7
	c-1.4,2.1-0.2,4.3-3.7,3.9c0,0-3.1-0.3-4.6,1.2s-2.8,0.6-3.1-1.6s-3.7-3.1-5.2-5.1c-1.5-2-3-0.8-3,0.8s-1.8,3.6-2.8,4.5
	s-3,3.3-2.1,5.7c0.9,2.4-1.6,2.7-3.1,1.2s-2.4-0.3-4.3,0.1s-4.3,2.2-1.5,3c2.8,0.8,1.6,2.8,0.6,3.1c-1,0.3-5.7,5.1-4.3,8.2
	s2.1,2.8,1.2,4.3c-0.9,1.5,1.5,1.8,3.1,1.2s1.6,0.8,1.6,2.4s1.5,7.6-2.2,9.6c-3.7,2-1.3,3.1-6.9,2.2s-6-0.3-5.7,2.2s0,6.3-1.6,7.6
	s-3.1,2.4-5.4-0.9c-2.3-3.3-3.9-4.2-4.8-3.1c-0.9,1.1-1.6,3.9-3.7,3c-1.7-0.8-3.7-0.2-4.6,1.5c-0.1,0.2-0.2,0.4-0.2,0.6
	c-0.5,1.9-4.3,2.4-6,2.1c-1.7-0.3-1.6,2.7-1.6,4.2s-2.4,4.6-3.3,5.1c-0.9,0.5-1.6,2.8-1.6,4.5s-3,5.2-5.1,5.2
	c-2.1,0-3.1-3.1-6.1-0.6s-3,1.5-5.4-1.2s-1.8-3.3-0.8-4.6s6-9.1,0.9-9.7c0,0,0,4.3-1.6,5.8c-2,2.2-3.8,4.7-5.2,7.3
	c-0.6,1.2-1.6,4.2-3.6,5.1s-2.1,6.3-1.2,8.7s1.2,6.3-0.1,7.5s0.8,2.8-1.2,3.9s-5.7,5.7-1.6,8.2s6,1.4,7.6,3.1s5.8,4.2,8.1,9.6
	c2.3,5.4,1.5,5.4,5.2,5.4s5.4,0.8,4.8,2.8c-0.6,2.1,2.4,2.8,3.9,2.2s2.2,0.9,1.8,2.4c-0.4,1.5-0.8,3.1,1.8,4.6s1.5,3.6,3.1,4.2
	S281.5,177.1,281.7,179.9z"/>
<path id="Pfad_24" class="st4" d="M344.1,146.3c-0.8,0.8-4.2,4.8-4.8,6.9c-0.2,0.8,0.2,1.7,1.1,1.9c0.8,0.2,1.7-0.2,1.9-1
	c0.3-1.2,2.7-4,4.2-5.8c0.5-0.6,0.5-1.5-0.1-2.1c0,0,0,0,0,0C345.6,145.6,344.6,145.7,344.1,146.3z"/>
<path id="Pfad_25" class="st4" d="M337.6,156.5c-0.7,1.5-0.9,3.3-0.5,4.9c0.2,0.6,0.8,0.9,1.4,0.8s0.9-0.8,0.8-1.4
	c-0.2-1.1-0.1-2.3,0.3-3.3c0.3-0.5,0-1.2-0.5-1.5c0,0-0.1,0-0.1,0c-0.4-0.3-1-0.1-1.3,0.3C337.7,156.4,337.6,156.5,337.6,156.5z"/>
<g id="Gruppe_16" transform="translate(1067.498 1580.931)">
	<path id="Pfad_26" class="st0" d="M-650.7-1098.3c0,0-1.5-0.9-1.8-1.6s-2.2-2.2-2.8-3.1c-0.6-0.9-0.2-4.5-0.2-4.5s-1.2-0.9-1.2-1.8
		c1,0,1.9,0.3,2.7,0.9c0.9,1,1.9,0.3,3.1,0c1.2-0.3,2.4,0.2,2.5-1.2c0.2-1.2,1.5-1.2,2.7-0.8c1.2,0.5,2.5-1.5,3.6-2.2
		c1.1-0.7,3-1.2,1.3-4.2c-1.6-3-2.2-3.3-1.8-5.5c0.4-2.2,1.6-0.3,2.8,0c1.2,0.3,1.9-0.8,2.4-1.6c0.5-0.9,3-2.5,4.8-1.2
		s3.6,2.2,4.3,2.2c0.7,0,3.1-0.3,3.3,1.6c0.1,1.8,0.5,4.5,0.5,4.5s1.3,3.9,4.2,2.4s2.5-1.1,4-3.4c1.5-2.4,3-4.8,3.6-5.8
		c0.6-1,3-5.4,4.8-7.2c1.8-1.8,3.9-2.4,3.1-5.5c1.2,0.7,2.5,1.3,3.9,1.8c1.8,0.4,5.4,1.6,6.4,3c1.2,1.3,4.6,3.1,4.8,4.6
		c0.3,1.5,4.2,4.2,5.7,4.3c0,0-1.9,1.6-1.9,2.7s0.2,3.1-0.5,4c-0.6,0.9-1.8,3.3-0.3,4.6s3.9,1.6,3.6,3.3s-1.2,2.5-2.2,2.7
		c-0.8,0.3-1.5,0.7-2.1,1.2c-0.6,0.3-1.8,0.2-2.1,0.9c-0.3,0.8-1.6,0.9-1.9,1.6c-0.3,0.7-2.1,0.5-2.5-0.9c-0.4-1.4-1.2-0.8-1.5-0.2
		c-0.3,1.1-0.7,2.2-1.2,3.3c-0.6,0.9-0.7,2-0.3,3c0.4,0.8,0.4,1.8-0.2,2.5c-0.5,1.1-0.7,2.4-0.5,3.6c0,0-2.4,0.2-2.8,0.9
		c-0.6,1.2-1.6,2.2-2.8,2.7c-1.8,0.8-2.7,2.1-3.4,0.3c-0.9-1.8-1.5-3.1-2.8-1.6s-2.5,1.3-3.1,1.8c-0.6,0.3-2.2,1-2.7,1.8
		c-0.3,0.9-1,1.5-1,2.4s-0.6,1.1-2.1,0c-1.5-1-4.6-0.9-5.7-0.4c-1.1,0.4-1.9-0.2-3-0.9c-1.9-1.7-4-3.2-6.3-4.2
		c-3.6-1.5-4.2-1.2-4.5-2.2c-0.3-1.2-1.6-2.8-2.8-2.7c-1.2,0.1-3-1.2-3.6-0.6c-0.5,0.4-1.2,0.4-1.7-0.1c-0.2-0.2-0.3-0.5-0.3-0.8
		C-646.7-1095.4-646.8-1099.3-650.7-1098.3z"/>
</g>
<path id="Pfad_28" class="st0" d="M338.8,274.4c0,0,4-0.5,1.2,2.5c-2.7,3-1.9,4.2,1.2,3c3.3-1.2,2.5,1.8,2.7,3.3
	c0.3,1.5,1.9,1.9,3.4,0.3c1-1.3,2.5-2.1,4.2-2.2c1.2,0,1.9-1.2,1.8-3c0.1-1.6,0.4-3.1,1-4.5c0,0-6.3-2.2-8.5-5.7s-4.9-6.4-7.9-10.5
	s-7.2-13.2-7.2-16.9s-0.3-13.8-0.3-22.9s-0.8-9.4,0-12s-0.3-8.2,2.2-9.3s1.8,0.8,1.9,2.2c0.3,1.5,1.2,2.5,3.3,1.9l1.8-1.5
	c0,0-1.9,0.3-2.2-2.5c-0.3-2.7-1-3.4-1.2-5.2c-0.3-1.8,0-6-2.7-5.2s-6,1-7,0.3s-7-5.2-9.3-5.2s-1.9,1-4,1.5
	c-1.9,0.5-10.9-0.8-12.7,3.3c0,0-4,5.5-7.9,1c-4-4.5-8.2-6.7-10.9-6.7c0,0-10.5-0.8-13,1.2c0,0-2.7,1.8-5.7-2.7s-6.7-1.9-8.7-0.8
	s-9.4,4.2-11.5-2.2c-1.9-6.4-4.2-2.5-4.9-1.2s-9.7,4.8-13-0.8c0,0-2.5-3.3-6.3-2.5s-6.3-2.5-6.7-5.2s-4.2-4.5-6.4-3.7s-4.2,0-4-1.8
	c0.3-1.8-1.8-4.8-4-4.8s-6-1.9-6.4,0.8c0,0-0.4,3.3-3,1.2c-2.5-1.9-4.2-1.9-4.9-0.8c0,0-1.5,3.3-3.7,1s-4.2-4.5-6.7-4.2
	s-3.7,1-3.3,3c-0.2,1.3-1.3,2.1-2.6,2c0,0-0.1,0-0.1,0c-2.5-0.3-6,2.7-7.9,6.3c-1.9,3.4-3.3,5.2-5.2,5.5c0,0-2.2,1.9,0.8,4
	c3,1.9,1.9,4.2,0.8,5.5c-1.2,1.2-4.9,3.3-1.8,6.4c0,0,3.3,3.3-1.8,4c0,0-5.4,0.1-6.1,0.8c0.2,1.5,0.2,3,0.1,4.5c0,0,4.8-1,5.8,1
	c1.1,1.9,3,4,5.2,3.4c2.2-0.5,4.8-1,5.5,0.8s4.8-0.8,2.5,4.5s-8.2,6.3-4.2,9.3c0,0,1.5,1.8,4.2,0s7.9-3,7,1.8
	c-1.1,4.8,2.7,3.4,4.8,3.7c0,0,2.5-3.4,4.2-5.2c1.8-1.8,4.8-7,8.5-5.7c3.7,1.2,5.5,1.8,6,4.5s2.5,7.2,5.7,7.9c0,0,2.7,0.5,4.2,4
	c1.5,3.4,4,3.7,6,3.7c2.3,0,4.5,1,6,2.7c1.8,1.9,4.2-0.3,5.2,4.5s2.7,5.5,4,6.7s2.5,4.2,4.8,1.9s3.3-1.2,5.2-0.8s4-0.8,5.2,2.7
	s3.3,4.2,6,1.9s5.5-4.5,5.7-0.5c0,0,0.5,1.9,4.2,1.9s3-1.5,3.7,0s2.5,1,1.9-1.5c-0.5-2.5,1.5-2.5,3.4-3.3s2.5-1.9,4.8-1.5
	s4.2-3.3,5.7,0.8s2.2,4.2,5.2,4.2s3.4-0.3,3.3,2.2c-0.3,2.5,1.5,2.7,3.3,2.5s4.5-2.2,5.5-0.8s0,2.7-0.5,4.5s-4.8,2.5-4.8,6.7
	c0,0,0,5.7,1.9,8.2c1.5,1.8,2.8,3.8,3.7,6c0.8,1.8,5.5,1.5,8.2,4s4.8,4.5,7.2,4.8l2.2,0.3c0,0,0.8-2.2,2.2-3s1.5-3.4,1.2-6.4
	s0.3-5.2,3.3-3.4s4.5,0,4.9-1.8s1.5-3,4.5-1c0.3-1.2,1.3-2.2,2.5-2.4c2.2-0.6,3.1-2.1,4.5-1.8s3.3,0.5,3.4,1.9
	C339.1,271.6,341.1,271.4,338.8,274.4z"/>
<path id="Pfad_29" class="st0" d="M507.5,621.4c-1.5-2.3-3.1-4.5-4.8-6.6c0,0,3-1.5,3.3-2.2c0.4-1.2,0.7-2.5,0.8-3.7
	c0-1,0.6-1.9,1.8-3.3c1.2-1.2,0.6-1.2,0.6-3.3s1.6-0.6,3.1-0.5c1.1,0.2,2.3-0.3,3-1.2c0.6-0.7,0.8-1.7,0.6-2.5
	c0.3-0.8,0.4-1.7,0.5-2.5c0-1.2-1.8-1.6-3.4-1.6c-1.6,0-2.8-2.7-2.8-3.7c-0.1-1-0.5-2-1.2-2.7c-0.7-1-1.3-2-1.8-3
	c-0.6-1.1-1.5-2-2.7-2.5c-1-0.3-1.8-1.2-2.1-2.2c-0.7-1.5-1.5-2.9-2.5-4.2c-0.6-0.7-1-1.4-1.3-2.2c-0.5-1-1.2-1.3-2.2-2.8
	s-0.3-2.5-0.3-3.3c-0.1-1.1,0.2-2.1,0.8-3c0.8-1.2,0.5-2.2-1.2-2.7c-1.1-0.3-2.1-0.9-2.8-1.8c-1.4-1.2-1.9-4.5-1.9-5.8
	c0.1-1.6-0.1-3.2-0.6-4.8c-0.6-1.9-0.1-2.8,0.3-4.3s2.4-0.3,3.3-0.6c1-0.3,2.1-1.2,4.6-0.5c2.5,0.6,1.6-1.6,2.5-3.3
	c1.1-2.2,2-4.4,2.7-6.7c0.2-0.9,0.3-1.9,0.3-2.8c0,0,2.2-1.6,4.3-0.3c1.2,0.9,2.9,1,4.2,0.3c0.9-0.3,5.7-1.9,7.6-2.1
	c1.8-0.2,4.6-2.2,4.6-2.2s2.4-3.3,3.4-2.8s1-1.2,2.1,1.3c1.2,2.7,2.1,3,2.7,4.2c0.7,1.3,1.6,2.4,2.7,3.3c0.8,0.6,1.6,2.1,0.1,2.7
	c-1.5,0.5-4.6-0.5-4.3,1s0.5,2.2,1.2,2.7c0.9,0.5,3.3,1.6,3.9,2.7c0.6,1.1,2.1,1,3,1c0.9,0,6.4-1,7.3,1.8c1,2.8,1,4.2,1.6,5.8
	c0.6,1.8,6.6,10,9.7,10.9c0.8,0.2,1.6,0.6,2.1,1.2c0.6,0.9,2.5,0.3,2.8-0.9c0.3-1.2,2.1-3.1,3-3c0.9,0.1,2.5-0.5,3,0
	c0.5,0.5,4.3-0.3,5.7,1.6c1.2,1.8,1.3,2.7,2.4,3.4s2.7,2.7,1.2,4.3c-1.4,1.6-1.9,4-2.7,4.6s-0.3,2.5,0.5,3.1s1,3.1,0.9,4.5
	c-0.1,1.4,0,3.7,1.6,3.7c1.6,0,3.9-0.3,5.1,2.1l2.7,3.1c0,0-10.8,16-15.4,21.1c0,0-3.9-3.1-5.7-2.7s-2.7,0.6-3.4,1.2
	c-0.9,0.5-2.5-0.3-3.9,1.5s-1.6,2.7-1.6,3.9s-1.3,3.6-1.8,4.5s-2.7,1-2.7,2.5c0,1.3,0.6,2.7,0,3.7c-0.6,1.2-3.1,1.5-4.6,0
	s-2.2-1-3.1-0.3s-1.6,1.9-2.8,2.4c-1.2,0.3-3-0.5-4.2-0.2s-4,2.8-5.8-0.2c-1.8-3-2.7-3.7-2.2-4.8s0.3-2.7-3-1.8s-5.1,0.3-5.4-0.3
	c-0.3-0.8-1.5-2.5-2.5-2.5c-1,0-2.7,0.5-2.7,1.8c0,1.2-0.3,3.7-1.2,4.5s-3.4,2.4-3.3,3.7C509.6,625.3,508.5,623.4,507.5,621.4z"/>
<path id="Pfad_30" class="st5" d="M131.9,53.7c-0.3-1.2,0.4-4.5,1.1-6s3.7-4,5.5-3.3s2.2-1.1,4.2-1.5s2.7,2.5,2.7,2.5s-6,4.8-9,6
	s-1.9,2.5-1.5,4.9c0.4,2.5-1.2,6.1-1.2,6.1c-0.6,1-1.5,1.8-2.5,2.2c-1.4,0.5-2.5,1.5-3.3,2.7c-0.6,0.9-3.3,1.8-4,3.7
	s-2.7,4.5-0.3,7.8c0,0,1.6,1.9-2.1,4c0,0-2.7,2.7-1.8,4.5c0.8,1.8,1.8,2.8,1.9,3.7c0,0,0.9,1.5-0.1,2.4c-3-1.8-4.9-7.5-4-10
	c1.1-2.5,1.5-3,1.8-4.8s1.2-2.7-1.2-3.7c-1.6-0.8-3-2.1-3.7-3.7c-1.2-2.7,1.5-4.2,3.4-1.9s4.2-2.2,6.4-4c1.7-1.5,3.3-3.2,4.8-4.9
	C130.4,58.9,132.2,54.9,131.9,53.7z"/>
<path id="Pfad_31" class="st6" d="M335.8,277.4c-0.9,1.2-1.9,0-4.2,0.5c-1.5,0.3-3-0.7-3.3-2.3c0-0.1,0-0.3,0-0.4v-3
	c0.3-1.2,1.3-2.2,2.5-2.4c2.2-0.6,3.1-2.1,4.5-1.8s3.3,0.5,3.4,1.9c0.3,1.5,2.2,1.4,0,4.3C338.8,274.4,336.7,276.2,335.8,277.4z"/>
</svg>
