<svg width="20" height="20" viewBox="0 0 20 20" fill="none" xmlns="http://www.w3.org/2000/svg">
<g clip-path="url(#clip0_133_476)">
<path d="M9.99991 1.80235C12.6705 1.80235 12.9858 1.81176 14.0399 1.86118C15.014 1.90588 15.5434 2.06824 15.8964 2.20471C16.3623 2.38588 16.6964 2.60235 17.047 2.95294C17.3976 3.30353 17.614 3.63529 17.7952 4.10353C17.9317 4.45647 18.094 4.98588 18.1387 5.96C18.1858 7.01412 18.1976 7.33176 18.1976 10C18.1976 12.6682 18.1881 12.9859 18.1387 14.04C18.094 15.0141 17.9317 15.5435 17.7952 15.8965C17.614 16.3624 17.3976 16.6965 17.047 17.0471C16.6964 17.3976 16.3646 17.6141 15.8964 17.7953C15.5434 17.9318 15.014 18.0941 14.0399 18.1388C12.9858 18.1859 12.6705 18.1976 9.99991 18.1976C7.32932 18.1976 7.01403 18.1882 5.95991 18.1388C4.98579 18.0941 4.45638 17.9318 4.10344 17.7953C3.63756 17.6141 3.30344 17.3976 2.95285 17.0471C2.60226 16.6965 2.38579 16.3647 2.20462 15.8965C2.06815 15.5435 1.90579 15.0141 1.86109 14.04C1.81403 12.9859 1.80226 12.6682 1.80226 10C1.80226 7.33176 1.81168 7.01412 1.86109 5.96C1.90579 4.98588 2.06815 4.45647 2.20462 4.10353C2.38579 3.63765 2.60226 3.30353 2.95285 2.95294C3.30344 2.60235 3.63521 2.38588 4.10344 2.20471C4.45638 2.06824 4.98579 1.90588 5.95991 1.86118C7.01403 1.81412 7.33168 1.80235 9.99991 1.80235ZM9.99991 0C7.28462 0 6.94344 0.0117647 5.87756 0.0611765C4.81403 0.110588 4.08697 0.277647 3.44932 0.527059C2.79285 0.783529 2.23521 1.12471 1.67756 1.68C1.12226 2.23529 0.778735 2.79294 0.524617 3.45176C0.277559 4.08706 0.108147 4.81412 0.0587351 5.88C0.0093233 6.94588 -0.00244141 7.28706 -0.00244141 10.0024C-0.00244141 12.7176 0.0093233 13.0588 0.0587351 14.1247C0.108147 15.1882 0.275206 15.9153 0.524617 16.5529C0.781088 17.2094 1.12226 17.7671 1.67756 18.3247C2.23285 18.88 2.7905 19.2235 3.44932 19.4776C4.08462 19.7247 4.81168 19.8941 5.87756 19.9435C6.94344 19.9929 7.28462 20.0047 9.99991 20.0047C12.7152 20.0047 13.0564 19.9929 14.1223 19.9435C15.1858 19.8941 15.9129 19.7271 16.5505 19.4776C17.207 19.2212 17.7646 18.88 18.3223 18.3247C18.8776 17.7694 19.2211 17.2118 19.4752 16.5529C19.7223 15.9176 19.8917 15.1906 19.9411 14.1247C19.9905 13.0588 20.0023 12.7176 20.0023 10.0024C20.0023 7.28706 19.9905 6.94588 19.9411 5.88C19.8917 4.81647 19.7246 4.08941 19.4752 3.45176C19.2187 2.79529 18.8776 2.23765 18.3223 1.68C17.767 1.12471 17.2093 0.781177 16.5505 0.527059C15.9152 0.28 15.1881 0.110588 14.1223 0.0611765C13.0564 0.0117647 12.7152 0 9.99991 0Z" fill="#01161E"/>
<path d="M9.99984 4.86597C7.16455 4.86597 4.86572 7.16479 4.86572 10.0001C4.86572 12.8354 7.16455 15.1342 9.99984 15.1342C12.8351 15.1342 15.134 12.8354 15.134 10.0001C15.134 7.16479 12.8351 4.86597 9.99984 4.86597ZM9.99984 13.3342C8.15984 13.3342 6.66572 11.8424 6.66572 10.0001C6.66572 8.15773 8.15749 6.66597 9.99984 6.66597C11.8422 6.66597 13.334 8.15773 13.334 10.0001C13.334 11.8424 11.8422 13.3342 9.99984 13.3342Z" fill="#01161E"/>
<path d="M15.3387 5.86118C16.0014 5.86118 16.5387 5.32392 16.5387 4.66118C16.5387 3.99844 16.0014 3.46118 15.3387 3.46118C14.6759 3.46118 14.1387 3.99844 14.1387 4.66118C14.1387 5.32392 14.6759 5.86118 15.3387 5.86118Z" fill="#01161E"/>
</g>
<defs>
<clipPath id="clip0_133_476">
<rect width="20" height="20" fill="white"/>
</clipPath>
</defs>
</svg>
