<svg width="20" height="20" viewBox="0 0 20 20" fill="none" xmlns="http://www.w3.org/2000/svg">
<g clip-path="url(#clip0_133_480)">
<path d="M11.4397 8.9367C11.7172 8.62334 11.9447 8.30747 12.2297 8.03923C13.1047 7.21196 14.1397 6.79581 15.3497 6.80584C16.0147 6.81085 16.6697 6.85849 17.3097 7.044C18.7747 7.46766 19.6247 8.48045 20.0322 9.91439C20.3372 10.9898 20.3922 12.0954 20.3947 13.2034C20.3997 15.5399 20.3872 17.8788 20.3947 20.2152C20.3947 20.4333 20.3347 20.491 20.1197 20.491C18.9197 20.4809 17.7172 20.4809 16.5172 20.491C16.3047 20.491 16.2597 20.4283 16.2597 20.2278C16.2672 18.0041 16.2672 15.7805 16.2597 13.5544C16.2597 12.9979 16.2222 12.4388 16.0672 11.8973C15.7797 10.8996 15.0672 10.3907 14.0247 10.4459C12.5997 10.5211 11.8597 11.228 11.6797 12.6795C11.6372 13.0254 11.6147 13.3739 11.6172 13.7224C11.6172 15.8858 11.6172 18.0493 11.6222 20.2127C11.6222 20.4283 11.5697 20.491 11.3497 20.491C10.1397 20.4809 8.92973 20.4809 7.71973 20.491C7.52473 20.491 7.46973 20.4408 7.46973 20.2428C7.47473 15.961 7.47473 11.6767 7.46973 7.39496C7.46973 7.18188 7.53973 7.13424 7.73973 7.13424C8.88723 7.14176 10.0372 7.14427 11.1847 7.13424C11.3972 7.13424 11.4497 7.20193 11.4472 7.40248C11.4347 7.91389 11.4422 8.42529 11.4422 8.93921L11.4397 8.9367Z" fill="#01161E"/>
<path d="M4.46488 13.8303C4.46488 15.9486 4.46238 18.0669 4.46988 20.1852C4.46988 20.4209 4.41238 20.4911 4.16988 20.4886C2.96988 20.476 1.76988 20.4785 0.567383 20.4886C0.374883 20.4886 0.317383 20.4409 0.317383 20.2429C0.322383 15.9536 0.322383 11.6643 0.317383 7.3725C0.317383 7.19451 0.359883 7.13184 0.547383 7.13184C1.76488 7.13936 2.98238 7.14186 4.19988 7.13184C4.43488 7.13184 4.46488 7.21958 4.46488 7.42264C4.45988 9.55851 4.46238 11.6944 4.46238 13.8303H4.46488Z" fill="#01161E"/>
<path d="M4.79502 2.39158C4.79502 3.72274 3.72002 4.80572 2.39502 4.80572C1.09002 4.80822 0.00501721 3.72274 1.72121e-05 2.41414C-0.00498279 1.08799 1.08002 0 2.40252 0C3.71502 0 4.79502 1.08047 4.79752 2.39158H4.79502Z" fill="#01161E"/>
</g>
<defs>
<clipPath id="clip0_133_480">
<rect width="20" height="20" fill="white"/>
</clipPath>
</defs>
</svg>
