<?xml version="1.0" encoding="utf-8"?>
<!-- Generator: Adobe Illustrator 25.2.0, SVG Export Plug-In . SVG Version: 6.00 Build 0)  -->
<svg version="1.1" id="Layer_1" xmlns="http://www.w3.org/2000/svg" xmlns:xlink="http://www.w3.org/1999/xlink" x="0px" y="0px"
	 viewBox="0 0 343.9 153.6" style="enable-background:new 0 0 343.9 153.6;" xml:space="preserve">
<style type="text/css">
	.st0{fill:#7DB642;}
</style>
<path class="st0" d="M180.1,37.7C171,25.1,162,12.6,153,0.2V0c1.2,0.1,2.4,0.2,3.6,0.3c7.1,0.9,13.9,3.1,20.2,6.6
	c9,5,16.4,12.4,21.5,21.3c0.3,0.5,0.5,1.3,1,1.5s1.2-0.1,1.8-0.2c4-0.6,8.1-0.6,12.1-0.3c5.7,0.4,11.3,1.8,16.5,4.2
	c13.4,6.2,21.9,16.5,25.5,30.9c0.8,3.4,1.3,6.8,1.3,10.3c0.3,11.3-2.8,21.6-9.8,30.5c-6.3,8-15,13.6-24.8,16.1
	c-4.9,1.3-9.9,1.9-15,1.7c-9.9-0.1-19.5-3.2-27.6-8.9c-8.9-6.2-15.2-15.5-17.7-26.1c-1.2-4.8-1.7-9.8-1.4-14.8
	c1-14.6,7.4-26.3,19.2-35L180.1,37.7z M189.2,50.3c-1.8,1.4-3.4,3-4.8,4.8c-4.3,5.6-6.8,12.3-7,19.4c-0.3,6.2,1,12.3,3.8,17.8
	c6.1,11.8,19.1,18.4,32.2,16.2c8.9-1.3,16.8-6.7,21.2-14.6c5.4-9.2,6.1-19,2.9-29c-3.7-12.2-14.8-20.7-27.5-21.2
	c-1.7-0.1-3.4,0-5.1,0c3.3,11.3,4.9,23.1,4.6,34.8C202.8,69.1,196,59.7,189.2,50.3L189.2,50.3z"/>
<path class="st0" d="M127.5,83c1.7,3.1,3.3,6.2,5,9.2c4.4,8.1,8.7,16.2,13.1,24.3c1.1,2.1,0,4-2.4,4c-4.5,0-9,0-13.4,0
	c-1.1,0.1-2.2-0.6-2.7-1.7c-5.1-10.1-10.1-20.2-15.2-30.3c-0.7-1.3-1.3-2.7-2-4c-0.1-0.2-0.4-0.4-0.6-0.4c-4.6,0-9.2,0-13.9,0H95
	v33.4c0.2,1.5-0.8,2.8-2.3,3c-0.2,0-0.5,0-0.7,0H80.4c-1.4,0.1-2.7-0.9-2.8-2.3c0-0.2,0-0.3,0-0.5c0-29.1,0-58.3,0-87.4
	c-0.1-1.5,1.1-2.8,2.6-2.8c0.1,0,0.1,0,0.2,0c12.7,0,25.4,0,38.2,0c7.9,0,15.4,3.2,20.8,9c4,4.1,6.6,9.3,7.4,14.9
	c1.5,8.4-1.1,17.1-7.1,23.2c-3.2,3.5-7.1,6.2-11.5,8l-0.5,0.2L127.5,83z M95.1,69.8H117c0.6,0,1.2-0.1,1.8-0.2
	c6.9-1.3,11.7-7.7,11-14.7c-0.9-6.5-6.4-11.4-13-11.5H95.1V69.8z"/>
<path class="st0" d="M305.4,56.9l1.9-3.1c5.1-8.3,10.2-16.7,15.3-25c0.4-0.8,1.3-1.3,2.2-1.2h15.5c1-0.1,1.9,0.4,2.4,1.3
	c0.4,0.8,0.3,1.9-0.2,2.6l-15.7,24.4c-3.5,5.5-7,10.9-10.5,16.3c-0.3,0.4-0.3,0.9,0,1.3c9,14.3,17.9,28.5,26.9,42.8
	c0.3,0.4,0.5,0.9,0.6,1.4c0.4,1.6-0.7,2.9-2.6,2.9s-3.9,0-5.8,0h-8.3c-1.1,0.1-2.2-0.5-2.7-1.5c-6.1-9.9-12.3-19.7-18.5-29.6
	c-0.5-0.8-0.5-0.8-1.1,0c-6,9.8-12.1,19.6-18.1,29.4c-0.6,1.1-1.7,1.7-2.9,1.6c-4.5,0-9.1,0-13.6,0h-0.3c-1,0.1-2-0.4-2.6-1.3
	c-0.5-0.9-0.3-2,0.3-2.7c7.3-11.7,14.7-23.3,22-35c1.7-2.7,3.4-5.5,5.2-8.2c0.2-0.2,0.2-0.6,0-0.8L270.2,34l-1.6-2.5
	c-0.6-0.8-0.7-1.8-0.2-2.6c0.5-0.9,1.4-1.3,2.4-1.3c5,0,10.1,0,15.1,0c1.1-0.1,2.2,0.5,2.7,1.5c2.1,3.4,4.1,6.9,6.2,10.3l10.3,17
	L305.4,56.9z"/>
<path class="st0" d="M17.4,43.5v24.9h0.8c10.5,0,21,0,31.6,0c1.6-0.1,2.9,1.1,3,2.7c0,0.1,0,0.2,0,0.3c-0.1,3.4,0,6.8,0,10.3
	c0.1,1.5-1,2.7-2.5,2.8c-0.1,0-0.2,0-0.3,0H17.3v0.8c0,10.8,0,21.6,0,32.4c0.1,1.6-1.2,2.9-2.7,3c-0.1,0-0.2,0-0.3,0
	c-3.8-0.1-7.7,0-11.5,0c-1.4,0.1-2.7-0.9-2.8-2.4c0-0.2,0-0.4,0-0.6V30.3c-0.2-1.4,0.9-2.6,2.3-2.8c0.2,0,0.4,0,0.5,0h53.6
	c1.4-0.1,2.6,0.9,2.8,2.2c0,0.2,0,0.4,0,0.5v10.4c0.1,1.4-0.9,2.6-2.3,2.8c-0.2,0-0.4,0-0.5,0h-39V43.5z"/>
<g>
	<path class="st0" d="M166,143.8c2.3,0,4.5,0,6.8,0c0-1.5,0-3.1,0-4.7c-0.5,0-0.9,0-1.4,0c0-0.8,0-1.6,0-2.5c2.2,0,4.4,0,6.6,0
		c0,0.8,0,1.6,0,2.4c-0.5,0-0.9,0-1.4,0c0,4,0,8,0,12c0.5,0,1,0,1.5,0c0,0.9,0,1.7,0,2.5c-2.2,0-4.4,0-6.6,0c0-0.8,0-1.6,0-2.5
		c0.5,0,1,0,1.5,0c0-1.6,0-3.1,0-4.6c-2.3,0-4.5,0-6.9,0c0,1.5,0,3,0,4.6c0.5,0,0.9,0,1.4,0c0,0.9,0,1.7,0,2.5c-2.2,0-4.4,0-6.6,0
		c0-0.8,0-1.6,0-2.5c0.5,0,0.9,0,1.5,0c0-4,0-8,0-12c-0.5,0-0.9,0-1.4,0c0-0.9,0-1.7,0-2.5c2.2,0,4.4,0,6.6,0c0,0.8,0,1.6,0,2.4
		c-0.5,0-0.9,0-1.4,0C166,140.7,166,142.2,166,143.8z"/>
	<path class="st0" d="M288.9,153.6c0-0.8,0-1.6,0-2.5c0.5,0,1,0,1.6,0c0-4,0-8,0-12c-0.6,0-1.1,0-1.7,0c0-0.8,0-1.6,0-2.5
		c0.2,0,0.4,0,0.6,0c2.3,0,4.6,0,6.9,0c0.7,0,1.4,0,2,0.2c2.1,0.3,3.3,1.7,3.5,3.8c0.1,1.9-0.9,3.4-2.9,4.1c0.2,0.1,0.3,0.1,0.5,0.1
		c1.9,0.4,3.1,1.6,3.4,3.3c0.3,2-0.5,3.7-2.2,4.7c-1.2,0.7-2.5,0.9-3.8,0.9c-2.5,0-5,0-7.4,0C289.2,153.7,289.1,153.7,288.9,153.6z
		 M294.2,146.3c0,1.7,0,3.2,0,4.8c0.9,0,1.7,0.1,2.5,0c1.4-0.1,2.3-1.1,2.3-2.4c0-1.1-0.8-2.1-2.1-2.3
		C296.1,146.3,295.2,146.4,294.2,146.3z M294.2,139.1c0,1.6,0,3,0,4.6c1-0.1,1.9-0.1,2.8-0.4c1-0.3,1.5-1.2,1.4-2.3
		c-0.1-1-0.6-1.6-1.7-1.8C295.9,139.1,295.1,139.1,294.2,139.1z"/>
	<path class="st0" d="M77.4,151.1c0,0.9,0,1.7,0,2.5c-1.1,0-2.2,0.1-3.3,0c-0.4,0-0.8-0.4-1.1-0.8c-0.9-1.3-1.7-2.6-2.5-3.9
		c-0.2-0.3-0.4-0.6-0.6-1c-0.5-1-1.2-1.4-2.4-1.2c0,1.4,0,2.8,0,4.3c0.5,0,0.9,0,1.4,0c0,0.9,0,1.7,0,2.5c-2.2,0-4.4,0-6.6,0
		c0-0.8,0-1.6,0-2.5c0.5,0,1,0,1.5,0c0-4,0-8,0-12c-0.5,0-1,0-1.6,0c0-0.8,0-1.6,0-2.5c0.2,0,0.3,0,0.5,0c2.6,0,5.1,0,7.7,0
		c0.8,0,1.7,0.1,2.4,0.4c1.8,0.7,2.8,2.4,2.7,4.3c-0.1,2-1.3,3.6-3.2,4.2c-0.1,0-0.2,0.1-0.5,0.1c1.3,0.6,1.7,1.8,2.4,2.8
		c0.3,0.4,0.5,0.8,0.8,1.3C75.7,150.6,76.2,151.4,77.4,151.1z M67.6,144.1c1-0.1,2-0.1,3-0.3s1.5-1,1.5-2.2s-0.4-2.1-1.5-2.3
		c-1-0.2-2-0.2-3.1-0.3C67.6,140.8,67.6,142.4,67.6,144.1z"/>
	<path class="st0" d="M209.1,153.6c0-0.9,0-1.6,0-2.5c0.5,0,1,0,1.5,0c0-4,0-8,0-12c-0.5,0-1,0-1.6,0c0-0.9,0-1.6,0-2.5
		c0.2,0,0.4,0,0.6,0c2.5,0,5,0,7.6,0c0.6,0,1.2,0,1.8,0.2c2.2,0.6,3.4,2.2,3.4,4.4c0,2-1.3,3.8-3.3,4.4c-0.1,0-0.2,0.1-0.4,0.1
		c1,0.4,1.5,1.2,1.9,1.9s0.8,1.3,1.2,2c0.5,0.8,0.9,1.8,2.2,1.5c0,0.9,0,1.7,0,2.5c-1.1,0-2.2,0.1-3.2-0.1c-0.5-0.1-1.1-0.6-1.5-1.1
		c-0.9-1.4-1.7-2.8-2.6-4.2c-0.1-0.1-0.1-0.3-0.2-0.4c-0.6-1-1-1.2-2.3-1c0,0.2,0,0.3,0,0.5c0,1.3,0,2.5,0,3.9c0.5,0,1,0,1.5,0
		c0,0.9,0,1.7,0,2.5C213.5,153.6,211.3,153.6,209.1,153.6z M214.2,144.1c1-0.1,1.9,0,2.9-0.2c1.1-0.2,1.6-1,1.6-2.2
		c0-1.3-0.4-2.2-1.5-2.4c-1-0.2-2-0.2-3-0.3C214.2,140.8,214.2,142.4,214.2,144.1z"/>
	<path class="st0" d="M122.4,151.1c0,0.9,0,1.7,0,2.5c-1.1,0-2.1,0.1-3.2,0c-0.4-0.1-1-0.4-1.2-0.8c-0.9-1.3-1.6-2.6-2.5-3.9
		c-0.2-0.3-0.4-0.6-0.5-0.9c-0.5-1-1.2-1.4-2.4-1.2c0,1.4,0,2.9,0,4.4c0.5,0,0.9,0,1.4,0c0,0.8,0,1.6,0,2.5c-2.2,0-4.3,0-6.5,0
		c0-0.8,0-1.6,0-2.5c0.5,0,0.9,0,1.4,0c0-4,0-8,0-12c-0.5,0-1,0-1.6,0c0-0.9,0-1.6,0-2.4l0.1-0.1c3.1,0,6.2-0.1,9.2,0.1
		c2.4,0.2,3.9,1.8,4,4c0.2,2.4-1.1,4.2-3.4,4.8c0,0-0.1,0-0.2,0.1c1,0.4,1.5,1.3,2,2.1c0.4,0.7,0.8,1.4,1.2,2.1
		C120.7,150.7,121.3,151.4,122.4,151.1z M112.6,144c0.9,0,1.8,0.1,2.6,0c1.2-0.1,1.9-1,1.9-2.3c0-1.4-0.5-2.2-1.7-2.4
		c-0.9-0.2-1.8-0.1-2.8-0.2C112.6,140.8,112.6,142.4,112.6,144z"/>
	<path class="st0" d="M337.8,139.1c0-0.9,0-1.7,0-2.5c1.9,0,3.9,0,5.8,0c0,0.8,0,1.6,0,2.4l-0.1,0.1c-0.8-0.1-1.4,0.3-1.9,0.9
		c-1.3,1.6-2.6,3.1-3.9,4.7c1.2,1.6,2.4,3.1,3.6,4.7c0.1,0.1,0.2,0.3,0.3,0.4c1,1.2,1,1.2,2.5,1.4c0,0.8,0,1.6,0,2.4
		c-2.4,0-4.7,0-7.1,0c0-0.8,0-1.6,0-2.5c0.4,0,0.8,0,1.2,0c-1-1.2-1.9-2.4-2.8-3.6c-1,1.2-2,2.4-3.1,3.6c0.4,0,0.8,0,1.2,0.1
		c0,0.8,0,1.6,0,2.5c-2.1,0-4.2,0-6.3,0c0-0.8,0-1.6,0-2.4c0.1,0,0.1-0.1,0.1-0.1c1,0.2,1.6-0.3,2.2-1.1c1.3-1.6,2.7-3.2,4.1-4.8
		c-0.2-0.3-0.4-0.5-0.6-0.7c-1.2-1.6-2.5-3.2-3.7-4.8c-0.4-0.5-0.8-0.7-1.3-0.6c-0.2,0-0.3,0-0.5,0c0-0.8,0-1.6,0-2.4
		c2.4,0,4.7,0,7.1,0c0,0.8,0,1.6,0,2.5c-0.5,0-0.9,0-1.4,0c0.9,1.2,1.8,2.3,2.7,3.4c1-1.1,2-2.3,3-3.4
		C338.7,139.1,338.3,139.1,337.8,139.1z"/>
	<path class="st0" d="M324.2,145.2c0,1.5-0.2,2.9-0.8,4.2c-0.9,2.2-2.6,3.6-4.9,4.3c-1.8,0.5-3.5,0.5-5.3,0.1
		c-2.5-0.6-4.3-2.1-5.2-4.6c-1.2-3.4-1-6.7,1.2-9.7c1.7-2.2,4-3.1,6.8-3c1.1,0,2.3,0.2,3.4,0.6c2.8,1,4.2,3.3,4.6,6.1
		C324.1,143.8,324.2,144.5,324.2,145.2z M320.3,145.3c0-1.4-0.2-2.7-0.8-3.9c-0.8-1.5-2-2.3-3.7-2.3s-3.1,0.7-3.8,2.2
		c-1.2,2.5-1.2,5.2,0,7.7c0.8,1.6,2.3,2.2,4,2.1c1.6-0.1,2.8-0.8,3.5-2.2C320.1,147.7,320.3,146.5,320.3,145.3z"/>
	<path class="st0" d="M37,145.2c-0.1,1.5-0.3,2.9-0.9,4.3c-0.9,2-2.3,3.4-4.5,4.1c-2.2,0.7-4.4,0.7-6.5-0.1c-2-0.7-3.5-1.9-4.2-3.9
		c-1.4-3.6-1.3-7.2,1.2-10.4c1.7-2.1,4-2.9,6.6-2.9c1.4,0,2.7,0.2,4,0.9c2.3,1.2,3.5,3.1,4,5.6C36.8,143.6,36.9,144.4,37,145.2z
		 M33.2,145.2c-0.2-1.3-0.3-2.5-0.8-3.6c-0.8-1.6-2-2.4-3.8-2.5c-1.8,0-3.2,0.8-3.9,2.4c-1,2.4-1,4.8-0.1,7.2
		c0.8,1.8,2.3,2.5,4.2,2.4c1.8-0.1,3-1,3.6-2.7C32.8,147.4,32.9,146.3,33.2,145.2z"/>
	<path class="st0" d="M228.7,139.1c-0.6,0-1,0-1.5,0c0-0.8,0-1.6,0-2.4c2.2,0,4.3,0,6.6,0c0,0.8,0,1.6,0,2.4c-0.5,0-0.9,0-1.4,0
		c0,0.2,0,0.4,0,0.6c0,2.5,0,5.1,0,7.6c0,0.6,0.1,1.1,0.2,1.7c0.3,1.3,1.2,2,2.6,2.1c0.1,0,0.1,0,0.2,0c3,0.1,4.2-1,4.2-4.1
		c0-2.5,0-4.9,0-7.4c0-0.2,0-0.3,0-0.5c-0.6,0-1.2,0-1.8,0c0-0.8,0-1.6,0-2.5c2.2,0,4.3,0,6.5,0c0,0.8,0,1.6,0,2.4
		c-0.5,0-0.9,0-1.5,0c0,0.3,0,0.5,0,0.8c0,2.8,0,5.6-0.1,8.4c0,0.6-0.1,1.2-0.3,1.7c-0.6,2.1-1.9,3.2-4,3.7c-1.7,0.3-3.4,0.4-5,0.1
		c-3.1-0.5-4.6-2.1-4.6-5.3c-0.1-2.9,0-5.8,0-8.7C228.7,139.6,228.7,139.4,228.7,139.1z"/>
	<path class="st0" d="M42.6,139.1c-0.5,0-1,0-1.5,0c0-0.8,0-1.6,0-2.5c2.2,0,4.3,0,6.5,0c0,0.8,0,1.6,0,2.4c-0.4,0-0.9,0-1.5,0
		c0,0.3,0,0.5,0,0.7c0,2.5,0,5,0,7.5c0,3.6,2,4.1,4.6,3.7c1.5-0.2,2.4-1.2,2.5-2.8c0.1-1.3,0.1-2.5,0.1-3.8c0-1.7,0-3.5,0-5.3
		c-0.6,0-1.2,0-1.8,0c0-0.9,0-1.6,0-2.5c2.2,0,4.3,0,6.5,0c0,0.8,0,1.6,0,2.4c-0.5,0-0.9,0-1.5,0c0,0.3,0,0.5,0,0.8
		c0,2.8,0,5.6-0.1,8.4c0,0.5-0.1,0.9-0.2,1.4c-0.5,2.3-1.8,3.6-4.1,4.1c-1.7,0.4-3.4,0.4-5.1,0.1c-3.1-0.6-4.4-2.1-4.5-5.2
		c-0.1-2.9,0-5.7,0-8.6C42.6,139.7,42.6,139.5,42.6,139.1z"/>
	<path class="st0" d="M143.1,148.5c1.2,0,2.3,0,3.5,0c0,0.7,0,1.5,0,2.2c1.5,0.5,2.9,0.6,4.4,0.2c0.4-0.1,0.9-0.5,1.2-0.9
		c0.7-1,0.4-2.1-0.7-2.5c-1.1-0.5-2.3-0.7-3.5-1.1c-0.7-0.2-1.4-0.4-2.1-0.7c-1.7-0.7-2.6-1.9-2.7-3.8c-0.1-1.9,0.5-3.5,2.2-4.5
		c1.4-0.8,2.9-1,4.4-1.1c1.8,0,3.5,0.2,5.2,0.7c0.4,0.1,0.6,0.3,0.5,0.7c0,1.1,0,2.3,0,3.5c-1.1,0-2.1,0-3.2,0c0-0.7,0-1.3,0-2
		c-1.3-0.4-2.6-0.6-3.8-0.2c-0.4,0.2-0.9,0.5-1.2,0.8c-0.8,1-0.4,2.2,0.8,2.6c1,0.3,2,0.5,2.9,0.8c0.8,0.2,1.6,0.4,2.3,0.7
		c1.7,0.7,2.8,1.9,2.9,3.8c0.1,1.9-0.4,3.6-2,4.8c-1.3,1-2.9,1.3-4.5,1.3c-2,0.1-4.1-0.2-6-0.7c-0.5-0.1-0.6-0.3-0.6-0.8
		C143.1,151.1,143.1,149.8,143.1,148.5z"/>
	<path class="st0" d="M125.9,153.6c0-0.9,0-1.6,0-2.5c0.5,0,1,0,1.5,0c0-4,0-8,0-12c-0.6,0-1.1,0-1.7,0c0-0.8,0-1.6,0-2.5
		c4.1,0,8.3,0,12.5,0c0,1.6,0,3.3,0,4.9c-0.9,0-1.8,0-2.8,0c-0.1-0.8-0.1-1.6-0.2-2.4c-1.4,0-2.7,0-4.1,0c0,1.5,0,2.9,0,4.4
		c1.4,0,2.8,0,4.2,0c0,0.9,0,1.7,0,2.6c-1.4,0-2.8,0-4.2,0c0,1.7,0,3.2,0,4.9c1.4,0,2.7,0,4.2,0c0.1-0.9,0.1-1.8,0.2-2.7
		c1,0,1.9,0,2.9,0c-0.1,1.8-0.1,3.5-0.2,5.3C134,153.6,130,153.6,125.9,153.6z"/>
	<path class="st0" d="M12.6,139.1c-0.6,0-1.1,0-1.6,0c0-0.8,0-1.6,0-2.4c2,0,4.1,0,6.1,0c0,0.8,0,1.6,0,2.4l-0.1,0.1
		c-0.9-0.2-1.4,0.3-2,1c-1.5,2.1-3,4.2-4.6,6.3c-0.2,0.2-0.3,0.6-0.3,0.9c0,1.2,0,2.4,0,3.7c0.5,0,1,0,1.5,0c0,0.9,0,1.7,0,2.5
		c-2.2,0-4.3,0-6.5,0c0-0.8,0-1.6,0-2.5c0.4,0,0.9,0,1.4,0c0-0.8-0.1-1.5,0-2.3c0.1-1.4-0.3-2.5-1.1-3.5c-1.4-1.8-2.7-3.7-4.1-5.5
		c-0.4-0.5-0.7-0.8-1.4-0.7c-0.1,0-0.2,0-0.4,0c0-0.8,0-1.6,0-2.4c2.2,0,4.4,0,6.7,0c0,0.8,0,1.6,0,2.4c-0.4,0-0.8,0-1.2,0
		c1.2,1.8,2.4,3.4,3.6,5.2C10.1,142.6,11.3,140.9,12.6,139.1z"/>
	<path class="st0" d="M275,141.5c-0.9,0-1.8,0-2.8,0c-0.1-0.8-0.1-1.5-0.2-2.3c-1,0-2,0-3,0c0,4,0,7.9,0,11.9c0.5,0,0.9,0,1.5,0
		c0,0.9,0,1.7,0,2.5c-2.2,0-4.3,0-6.6,0c0-0.8,0-1.6,0-2.5c0.5,0,0.9,0,1.4,0c0-4,0-8,0-12c-1,0-1.9,0-3,0c-0.1,0.8-0.1,1.5-0.2,2.3
		c-1,0-1.9,0-2.8,0c0-1.6,0-3.2,0-4.8c5.2,0,10.4,0,15.6,0C275,138.2,275,139.8,275,141.5z"/>
	<path class="st0" d="M194.1,139.1c-0.6,0-1.2,0-1.8,0c0-0.8,0-1.6,0-2.4c4.1,0,8.1,0,12.3,0c0,1.6,0,3.2,0,4.9c-0.9,0-1.8,0-2.8,0
		c-0.1-0.8-0.1-1.6-0.2-2.4c-1.3,0-2.6,0-3.9,0c0,1.5,0,3,0,4.6c1.5,0,3,0,4.6,0c0,0.9,0,1.8,0,2.7c-1.5,0-3,0-4.6,0
		c0,1.6,0,3.1,0,4.7c0.6,0,1.2,0,1.8,0c0,0.9,0,1.7,0,2.5c-2.3,0-4.6,0-7,0c0-0.8,0-1.6,0-2.5c0.5,0,0.9,0,1.4,0
		C194.1,147.1,194.1,143.2,194.1,139.1z"/>
	<path class="st0" d="M91,151.1c0.5,0,1,0,1.5,0c0-4,0-8,0-12c-0.5,0-1.1,0-1.7,0c0-0.9,0-1.6,0-2.5c4.1,0,8.1,0,12.3,0
		c0,1.6,0,3.3,0,4.9c-0.9,0-1.8,0-2.8,0c-0.1-0.8-0.1-1.6-0.2-2.4c-1.3,0-2.6,0-3.9,0c0,1.5,0,3,0,4.6c1.5,0,3,0,4.6,0
		c0,0.9,0,1.7,0,2.6c-1.5,0-3,0-4.6,0c0,1.6,0,3.1,0,4.7c0.6,0,1.2,0,1.8,0c0,0.8,0,1.6,0,2.5c-2.3,0-4.6,0-6.9,0
		C91,152.8,91,152,91,151.1z"/>
	<path class="st0" d="M253.8,151.1c0.5,0,0.9,0,1.4,0c0,0.8,0,1.6,0,2.5c-2.2,0-4.4,0-6.6,0c0-0.8,0-1.6,0-2.5c0.5,0,1,0,1.5,0
		c0-4,0-8,0-12c-0.5,0-0.9,0-1.4,0c0-0.8,0-1.6,0-2.5c2.2,0,4.4,0,6.6,0c0,0.8,0,1.6,0,2.4c-0.5,0-0.9,0-1.5,0
		C253.8,143.1,253.8,147.1,253.8,151.1z"/>
</g>
</svg>
