<?xml version="1.0" encoding="utf-8"?>
<!-- Generator: Adobe Illustrator 25.2.0, SVG Export Plug-In . SVG Version: 6.00 Build 0)  -->
<svg version="1.1" id="Layer_1" xmlns="http://www.w3.org/2000/svg" xmlns:xlink="http://www.w3.org/1999/xlink" x="0px" y="0px"
	 viewBox="0 0 343.9 157.4" style="enable-background:new 0 0 343.9 157.4;" xml:space="preserve">
<style type="text/css">
	.st0{fill:#7DB642;}
	.st1{fill:#FFFFFF;}
</style>
<path class="st0" d="M180.1,40.2C171,27.7,162,15.1,153,2.7V2.5c1.2,0.1,2.4,0.2,3.6,0.3c7.1,0.9,13.9,3.1,20.2,6.6
	c9,5,16.4,12.4,21.5,21.3c0.3,0.5,0.5,1.3,1,1.5c0.5,0.2,1.2-0.1,1.8-0.2c4-0.6,8.1-0.6,12.1-0.3c5.7,0.4,11.3,1.8,16.5,4.2
	c13.4,6.2,21.9,16.5,25.5,30.9c0.8,3.4,1.3,6.8,1.3,10.3c0.3,11.3-2.8,21.6-9.8,30.5c-6.3,8-15,13.6-24.8,16.1
	c-4.9,1.3-9.9,1.9-15,1.7c-9.9-0.1-19.5-3.2-27.6-8.9c-8.9-6.2-15.2-15.5-17.7-26.1c-1.2-4.8-1.7-9.8-1.4-14.8
	c1-14.6,7.4-26.3,19.2-35L180.1,40.2z M189.2,52.8c-1.8,1.4-3.4,3-4.8,4.8c-4.3,5.6-6.8,12.3-7,19.4c-0.3,6.2,1,12.3,3.8,17.8
	c6.1,11.8,19.1,18.4,32.2,16.2c8.9-1.3,16.8-6.7,21.2-14.6c5.4-9.2,6.1-19,2.9-29c-3.7-12.2-14.8-20.7-27.5-21.2
	c-1.7-0.1-3.4,0-5.1,0c3.3,11.3,4.9,23.1,4.6,34.8C202.8,71.6,196,62.2,189.2,52.8L189.2,52.8z"/>
<path class="st1" d="M127.5,85.5c1.7,3.1,3.3,6.2,5,9.2c4.4,8.1,8.7,16.2,13.1,24.3c1.1,2.1,0,4-2.4,4c-4.5,0-9,0-13.4,0
	c-1.1,0.1-2.2-0.6-2.7-1.7C122,111.2,117,101.1,111.9,91c-0.7-1.3-1.3-2.7-2-4c-0.1-0.2-0.4-0.4-0.6-0.4c-4.6,0-9.2,0-13.9,0H95V120
	c0.2,1.5-0.8,2.8-2.3,3c-0.2,0-0.5,0-0.7,0H80.4c-1.4,0.1-2.7-0.9-2.8-2.3c0-0.2,0-0.3,0-0.5c0-29.1,0-58.3,0-87.4
	c-0.1-1.5,1.1-2.8,2.6-2.8c0.1,0,0.1,0,0.2,0c12.7,0,25.4,0,38.2,0c7.9,0,15.4,3.2,20.8,9c4,4.1,6.6,9.3,7.4,14.9
	c1.5,8.4-1.1,17.1-7.1,23.2c-3.2,3.5-7.1,6.2-11.5,8l-0.5,0.2L127.5,85.5z M95.1,72.4H117c0.6,0,1.2-0.1,1.8-0.2
	c6.9-1.3,11.7-7.7,11-14.7c-0.9-6.5-6.4-11.4-13-11.5H95.1V72.4z"/>
<path class="st1" d="M305.4,59.4l1.9-3.1c5.1-8.3,10.2-16.7,15.3-25c0.4-0.8,1.3-1.3,2.2-1.2h15.5c1-0.1,1.9,0.4,2.4,1.3
	c0.4,0.8,0.3,1.9-0.2,2.6l-15.7,24.4c-3.5,5.5-7,10.9-10.5,16.3c-0.3,0.4-0.3,0.9,0,1.3c9,14.3,17.9,28.5,26.9,42.8
	c0.3,0.4,0.5,0.9,0.6,1.4c0.4,1.6-0.7,2.9-2.6,2.9s-3.9,0-5.8,0h-8.3c-1.1,0.1-2.2-0.5-2.7-1.5c-6.1-9.9-12.3-19.7-18.5-29.6
	c-0.5-0.8-0.5-0.8-1.1,0c-6,9.8-12.1,19.6-18.1,29.4c-0.6,1.1-1.7,1.7-2.9,1.6c-4.5,0-9.1,0-13.6,0h-0.3c-1,0.1-2-0.4-2.6-1.3
	c-0.5-0.9-0.3-2,0.3-2.7c7.3-11.7,14.7-23.3,22-35c1.7-2.7,3.4-5.5,5.2-8.2c0.2-0.2,0.2-0.6,0-0.8l-24.6-38.5l-1.6-2.5
	c-0.6-0.8-0.7-1.8-0.2-2.6c0.5-0.9,1.4-1.3,2.4-1.3c5,0,10.1,0,15.1,0c1.1-0.1,2.2,0.5,2.7,1.5c2.1,3.4,4.1,6.9,6.2,10.3l10.3,17
	L305.4,59.4z"/>
<path class="st1" d="M17.4,46v24.9h0.8c10.5,0,21,0,31.6,0c1.6-0.1,2.9,1.1,3,2.7c0,0.1,0,0.2,0,0.3c-0.1,3.4,0,6.8,0,10.3
	c0.1,1.5-1,2.7-2.5,2.8c-0.1,0-0.2,0-0.3,0H17.3v0.8c0,10.8,0,21.6,0,32.4c0.1,1.6-1.2,2.9-2.7,3c-0.1,0-0.2,0-0.3,0
	c-3.8-0.1-7.7,0-11.5,0c-1.4,0.1-2.7-0.9-2.8-2.4c0-0.2,0-0.4,0-0.6V32.8c-0.2-1.4,0.9-2.6,2.3-2.8c0.2,0,0.4,0,0.5,0h53.6
	c1.4-0.1,2.6,0.9,2.8,2.2c0,0.2,0,0.4,0,0.5v10.4c0.1,1.4-0.9,2.6-2.3,2.8c-0.2,0-0.4,0-0.5,0H17.4L17.4,46z"/>
<g>
	<path class="st1" d="M165.7,144.7c2.3,0,4.5,0,6.8,0c0-1.5,0-3.1,0-4.6c-0.5,0-0.9,0-1.4,0c0-0.8,0-1.6,0-2.4c2.2,0,4.3,0,6.6,0
		c0,0.8,0,1.6,0,2.4c-0.5,0-0.9,0-1.4,0c0,4,0,8,0,12c0.5,0,0.9,0,1.5,0c0,0.9,0,1.7,0,2.5c-2.2,0-4.4,0-6.6,0c0-0.8,0-1.6,0-2.5
		c0.5,0,1,0,1.5,0c0-1.6,0-3.1,0-4.6c-2.3,0-4.5,0-6.8,0c0,1.5,0,3,0,4.6c0.5,0,0.9,0,1.4,0c0,0.9,0,1.7,0,2.5c-2.2,0-4.3,0-6.5,0
		c0-0.8,0-1.6,0-2.5c0.5,0,0.9,0,1.4,0c0-4,0-8,0-12c-0.5,0-0.9,0-1.4,0c0-0.9,0-1.6,0-2.5c2.2,0,4.3,0,6.5,0c0,0.8,0,1.6,0,2.4
		c-0.5,0-0.9,0-1.4,0C165.7,141.6,165.7,143.1,165.7,144.7z"/>
	<path class="st1" d="M288.2,154.5c0-0.8,0-1.6,0-2.5c0.5,0,1,0,1.6,0c0-4,0-8,0-12c-0.6,0-1.1,0-1.7,0c0-0.8,0-1.6,0-2.5
		c0.2,0,0.4,0,0.6,0c2.3,0,4.6,0,6.9,0c0.7,0,1.4,0,2,0.2c2.1,0.3,3.3,1.7,3.5,3.8c0.1,1.9-0.9,3.4-2.9,4.1c0.2,0.1,0.3,0.1,0.5,0.1
		c1.9,0.4,3.1,1.6,3.4,3.3c0.3,2-0.5,3.7-2.2,4.6c-1.2,0.7-2.5,0.9-3.8,0.9c-2.5,0-4.9,0-7.4,0C288.4,154.5,288.3,154.5,288.2,154.5
		z M293.4,147.2c0,1.7,0,3.2,0,4.8c0.9,0,1.7,0.1,2.5,0c1.4-0.1,2.2-1.1,2.3-2.3c0-1.1-0.8-2.1-2.1-2.3
		C295.3,147.2,294.4,147.3,293.4,147.2z M293.4,140c0,1.6,0,3,0,4.6c1-0.1,1.9-0.1,2.8-0.4c1-0.3,1.5-1.2,1.4-2.3
		c-0.1-1-0.6-1.6-1.7-1.8C295.1,140,294.3,140,293.4,140z"/>
	<path class="st1" d="M77.4,152c0,0.9,0,1.7,0,2.5c-1.1,0-2.2,0.1-3.3,0c-0.4,0-0.8-0.4-1.1-0.8c-0.9-1.3-1.6-2.6-2.5-3.9
		c-0.2-0.3-0.4-0.6-0.6-1c-0.5-1-1.2-1.4-2.4-1.2c0,1.4,0,2.8,0,4.3c0.5,0,0.9,0,1.4,0c0,0.9,0,1.7,0,2.5c-2.2,0-4.4,0-6.6,0
		c0-0.8,0-1.6,0-2.5c0.5,0,0.9,0,1.5,0c0-4,0-8,0-12c-0.5,0-1,0-1.6,0c0-0.8,0-1.6,0-2.5c0.2,0,0.3,0,0.5,0c2.6,0,5.1,0,7.7,0
		c0.8,0,1.7,0.1,2.4,0.4c1.8,0.7,2.8,2.3,2.7,4.3c-0.1,2-1.3,3.6-3.2,4.2c-0.1,0-0.2,0.1-0.5,0.1c1.3,0.6,1.7,1.8,2.4,2.8
		c0.3,0.4,0.5,0.8,0.8,1.3C75.7,151.5,76.2,152.2,77.4,152z M67.7,145c1-0.1,2-0.1,3-0.3c1-0.2,1.5-1,1.5-2.2c0-1.2-0.4-2.1-1.5-2.3
		c-1-0.2-2-0.2-3.1-0.3C67.7,141.7,67.7,143.3,67.7,145z"/>
	<path class="st1" d="M208.6,154.5c0-0.9,0-1.6,0-2.5c0.5,0,1,0,1.5,0c0-4,0-7.9,0-11.9c-0.5,0-1,0-1.6,0c0-0.9,0-1.6,0-2.5
		c0.2,0,0.4,0,0.6,0c2.5,0,5,0,7.5,0c0.6,0,1.2,0,1.8,0.2c2.2,0.5,3.4,2.1,3.4,4.4c0,2-1.3,3.7-3.3,4.4c-0.1,0-0.2,0.1-0.4,0.1
		c1,0.4,1.4,1.2,1.9,1.9c0.4,0.7,0.8,1.3,1.2,2c0.5,0.8,0.9,1.8,2.2,1.5c0,0.9,0,1.7,0,2.5c-1.1,0-2.2,0.1-3.2-0.1
		c-0.5-0.1-1.1-0.6-1.5-1.1c-0.9-1.4-1.7-2.8-2.6-4.2c-0.1-0.1-0.1-0.3-0.2-0.4c-0.6-1-1-1.2-2.3-1c0,0.1,0,0.3,0,0.5
		c0,1.3,0,2.5,0,3.9c0.5,0,1,0,1.5,0c0,0.9,0,1.7,0,2.5C213,154.5,210.8,154.5,208.6,154.5z M213.7,145c1-0.1,1.9,0,2.9-0.2
		c1.1-0.2,1.6-1,1.6-2.2c0-1.3-0.4-2.2-1.5-2.4c-1-0.2-2-0.2-3-0.3C213.7,141.7,213.7,143.3,213.7,145z"/>
	<path class="st1" d="M122.2,152c0,0.9,0,1.7,0,2.5c-1.1,0-2.1,0.1-3.2,0c-0.4-0.1-1-0.4-1.2-0.8c-0.9-1.3-1.6-2.6-2.4-3.9
		c-0.2-0.3-0.4-0.6-0.5-0.9c-0.5-1-1.2-1.4-2.4-1.2c0,1.4,0,2.9,0,4.3c0.5,0,0.9,0,1.4,0c0,0.8,0,1.6,0,2.5c-2.2,0-4.3,0-6.5,0
		c0-0.8,0-1.6,0-2.5c0.5,0,0.9,0,1.4,0c0-4,0-8,0-12c-0.5,0-1,0-1.6,0c0-0.9,0-1.6,0-2.4c0,0,0.1-0.1,0.1-0.1c3.1,0,6.1-0.1,9.2,0.1
		c2.4,0.2,3.8,1.8,4,4c0.2,2.4-1.1,4.1-3.4,4.8c0,0-0.1,0-0.2,0.1c1,0.4,1.4,1.3,1.9,2.1c0.4,0.7,0.8,1.4,1.2,2.1
		C120.6,151.6,121.1,152.2,122.2,152z M112.4,144.9c0.9,0,1.8,0.1,2.6,0c1.2-0.1,1.9-1,1.9-2.3c0-1.4-0.5-2.2-1.7-2.4
		c-0.9-0.2-1.8-0.1-2.8-0.2C112.4,141.7,112.4,143.3,112.4,144.9z"/>
	<path class="st1" d="M336.8,140.1c0-0.9,0-1.6,0-2.5c1.9,0,3.9,0,5.8,0c0,0.8,0,1.6,0,2.4c0,0-0.1,0.1-0.1,0.1
		c-0.8-0.1-1.3,0.3-1.9,0.9c-1.2,1.6-2.6,3.1-3.9,4.7c1.2,1.6,2.4,3.1,3.6,4.7c0.1,0.1,0.2,0.3,0.3,0.4c1,1.2,1,1.2,2.5,1.4
		c0,0.8,0,1.6,0,2.4c-2.3,0-4.7,0-7.1,0c0-0.8,0-1.6,0-2.5c0.4,0,0.8,0,1.2,0c-1-1.2-1.9-2.4-2.8-3.6c-1,1.2-2,2.4-3.1,3.6
		c0.4,0,0.8,0,1.2,0.1c0,0.8,0,1.6,0,2.5c-2.1,0-4.1,0-6.2,0c0-0.8,0-1.6,0-2.4c0.1,0,0.1-0.1,0.1-0.1c1,0.2,1.6-0.3,2.2-1.1
		c1.3-1.6,2.7-3.1,4.1-4.8c-0.2-0.3-0.4-0.5-0.6-0.7c-1.2-1.6-2.5-3.2-3.6-4.8c-0.4-0.5-0.7-0.7-1.3-0.6c-0.2,0-0.3,0-0.5,0
		c0-0.8,0-1.6,0-2.4c2.4,0,4.7,0,7.1,0c0,0.8,0,1.6,0,2.5c-0.5,0-0.9,0-1.4,0c0.9,1.2,1.8,2.3,2.7,3.4c1-1.1,2-2.2,3-3.4
		C337.8,140.1,337.3,140.1,336.8,140.1z"/>
	<path class="st1" d="M323.3,146c0,1.4-0.2,2.9-0.8,4.2c-0.9,2.2-2.6,3.6-4.9,4.2c-1.8,0.5-3.5,0.5-5.3,0.1
		c-2.5-0.6-4.3-2.1-5.2-4.5c-1.2-3.4-1-6.7,1.2-9.7c1.7-2.2,4-3.1,6.7-3c1.1,0,2.3,0.2,3.4,0.6c2.8,1,4.2,3.3,4.6,6.1
		C323.2,144.7,323.3,145.4,323.3,146z M319.4,146.2c0-1.4-0.2-2.7-0.8-3.8c-0.8-1.5-2-2.3-3.7-2.3c-1.7,0-3.1,0.7-3.8,2.2
		c-1.2,2.5-1.2,5.1,0,7.7c0.8,1.6,2.2,2.2,4,2.1c1.6-0.1,2.8-0.8,3.5-2.2C319.3,148.6,319.4,147.3,319.4,146.2z"/>
	<path class="st1" d="M37.1,146.1c-0.1,1.5-0.3,2.9-0.9,4.2c-0.9,2-2.3,3.4-4.4,4c-2.2,0.7-4.3,0.7-6.5,0c-2-0.6-3.4-1.9-4.2-3.9
		c-1.4-3.6-1.3-7.2,1.2-10.3c1.7-2.1,4-2.9,6.6-2.8c1.4,0,2.7,0.2,4,0.9c2.3,1.2,3.5,3.1,4,5.6C37,144.5,37,145.3,37.1,146.1z
		 M33.3,146.1c-0.1-1.3-0.3-2.5-0.8-3.6c-0.8-1.6-2-2.4-3.8-2.5c-1.8,0-3.2,0.8-3.9,2.4c-1,2.3-1,4.8-0.1,7.1
		c0.8,1.8,2.3,2.5,4.2,2.4c1.8-0.1,3-1,3.6-2.6C33,148.3,33.1,147.2,33.3,146.1z"/>
	<path class="st1" d="M228.2,140c-0.6,0-1,0-1.5,0c0-0.8,0-1.6,0-2.4c2.2,0,4.3,0,6.5,0c0,0.8,0,1.6,0,2.4c-0.5,0-0.9,0-1.4,0
		c0,0.2,0,0.4,0,0.6c0,2.5,0,5.1,0,7.6c0,0.6,0.1,1.1,0.2,1.7c0.3,1.3,1.2,2,2.6,2.1c0.1,0,0.1,0,0.2,0c3,0.1,4.2-1,4.2-4.1
		c0-2.4,0-4.9,0-7.3c0-0.2,0-0.3,0-0.5c-0.6,0-1.2,0-1.8,0c0-0.8,0-1.6,0-2.5c2.2,0,4.3,0,6.5,0c0,0.8,0,1.6,0,2.4
		c-0.5,0-0.9,0-1.5,0c0,0.3,0,0.5,0,0.8c0,2.8,0,5.6-0.1,8.4c0,0.6-0.1,1.2-0.3,1.7c-0.6,2.1-1.9,3.2-4,3.6c-1.7,0.3-3.3,0.4-5,0.1
		c-3.1-0.5-4.5-2.1-4.6-5.3c-0.1-2.9,0-5.8,0-8.6C228.2,140.5,228.2,140.3,228.2,140z"/>
	<path class="st1" d="M42.7,140c-0.5,0-1,0-1.5,0c0-0.8,0-1.6,0-2.5c2.2,0,4.3,0,6.5,0c0,0.8,0,1.6,0,2.4c-0.4,0-0.9,0-1.5,0
		c0,0.3,0,0.5,0,0.7c0,2.5,0,5,0,7.5c0,3.6,2,4.1,4.6,3.7c1.5-0.2,2.4-1.2,2.5-2.8c0.1-1.3,0.1-2.5,0.1-3.8c0-1.7,0-3.5,0-5.3
		c-0.6,0-1.2,0-1.8,0c0-0.9,0-1.6,0-2.5c2.2,0,4.3,0,6.5,0c0,0.8,0,1.6,0,2.4c-0.5,0-0.9,0-1.5,0c0,0.3,0,0.5,0,0.8
		c0,2.8,0,5.6-0.1,8.3c0,0.5-0.1,0.9-0.2,1.4c-0.5,2.2-1.8,3.6-4.1,4.1c-1.7,0.4-3.4,0.4-5.1,0.1c-3.1-0.6-4.4-2.1-4.5-5.2
		c-0.1-2.9,0-5.7,0-8.6C42.7,140.6,42.7,140.4,42.7,140z"/>
	<path class="st1" d="M142.8,149.4c1.2,0,2.3,0,3.5,0c0,0.7,0,1.5,0,2.2c1.5,0.5,2.9,0.6,4.4,0.2c0.4-0.1,0.9-0.5,1.1-0.9
		c0.7-1,0.4-2.1-0.7-2.5c-1.1-0.5-2.3-0.7-3.5-1.1c-0.7-0.2-1.4-0.4-2.1-0.7c-1.7-0.7-2.6-1.9-2.7-3.7c-0.1-1.9,0.5-3.5,2.2-4.5
		c1.4-0.8,2.9-1,4.4-1c1.7,0,3.5,0.2,5.2,0.7c0.4,0.1,0.6,0.3,0.5,0.7c0,1.1,0,2.3,0,3.5c-1.1,0-2.1,0-3.2,0c0-0.7,0-1.3,0-2
		c-1.3-0.4-2.6-0.6-3.8-0.2c-0.4,0.2-0.9,0.5-1.2,0.8c-0.8,1-0.4,2.2,0.8,2.6c1,0.3,2,0.5,2.9,0.8c0.8,0.2,1.6,0.4,2.3,0.7
		c1.7,0.7,2.8,1.9,2.9,3.7c0.1,1.9-0.4,3.6-2,4.8c-1.3,1-2.9,1.3-4.5,1.3c-2,0.1-4.1-0.2-6-0.7c-0.5-0.1-0.6-0.3-0.6-0.8
		C142.9,152,142.8,150.7,142.8,149.4z"/>
	<path class="st1" d="M125.7,154.5c0-0.9,0-1.6,0-2.5c0.5,0,1,0,1.5,0c0-4,0-8,0-12c-0.6,0-1.1,0-1.7,0c0-0.8,0-1.6,0-2.5
		c4.1,0,8.2,0,12.4,0c0,1.6,0,3.3,0,4.9c-0.9,0-1.8,0-2.8,0c-0.1-0.8-0.1-1.6-0.2-2.4c-1.4,0-2.7,0-4.1,0c0,1.5,0,2.9,0,4.4
		c1.4,0,2.8,0,4.2,0c0,0.9,0,1.7,0,2.6c-1.4,0-2.8,0-4.2,0c0,1.7,0,3.2,0,4.8c1.4,0,2.7,0,4.1,0c0.1-0.9,0.1-1.8,0.2-2.7
		c1,0,1.9,0,2.9,0c-0.1,1.8-0.1,3.5-0.2,5.3C133.8,154.5,129.8,154.5,125.7,154.5z"/>
	<path class="st1" d="M12.8,140c-0.6,0-1.1,0-1.6,0c0-0.8,0-1.6,0-2.4c2,0,4.1,0,6.1,0c0,0.8,0,1.6,0,2.4c0,0-0.1,0.1-0.1,0.1
		c-0.9-0.2-1.4,0.3-1.9,1c-1.5,2.1-3,4.2-4.5,6.3c-0.2,0.2-0.3,0.6-0.3,0.9c0,1.2,0,2.4,0,3.7c0.5,0,1,0,1.5,0c0,0.9,0,1.7,0,2.5
		c-2.2,0-4.3,0-6.5,0c0-0.8,0-1.6,0-2.5c0.4,0,0.9,0,1.4,0c0-0.8-0.1-1.5,0-2.3c0.1-1.4-0.2-2.5-1.1-3.5c-1.4-1.8-2.7-3.7-4-5.5
		c-0.4-0.5-0.7-0.8-1.4-0.7c-0.1,0-0.2,0-0.4,0c0-0.8,0-1.6,0-2.4c2.2,0,4.4,0,6.7,0c0,0.8,0,1.6,0,2.4c-0.4,0-0.8,0-1.2,0
		c1.2,1.8,2.4,3.4,3.6,5.2C10.3,143.5,11.5,141.8,12.8,140z"/>
	<path class="st1" d="M274.3,142.4c-0.9,0-1.8,0-2.8,0c-0.1-0.8-0.1-1.5-0.2-2.3c-1,0-2,0-3,0c0,4,0,7.9,0,11.9c0.5,0,0.9,0,1.4,0
		c0,0.9,0,1.7,0,2.5c-2.2,0-4.3,0-6.5,0c0-0.8,0-1.6,0-2.5c0.5,0,0.9,0,1.4,0c0-4,0-7.9,0-11.9c-1,0-1.9,0-3,0
		c-0.1,0.7-0.1,1.5-0.2,2.3c-1,0-1.9,0-2.8,0c0-1.6,0-3.2,0-4.8c5.2,0,10.3,0,15.6,0C274.3,139.2,274.3,140.7,274.3,142.4z"/>
	<path class="st1" d="M193.6,140c-0.6,0-1.2,0-1.7,0c0-0.8,0-1.6,0-2.4c4.1,0,8.1,0,12.3,0c0,1.6,0,3.2,0,4.9c-0.9,0-1.8,0-2.8,0
		c-0.1-0.8-0.1-1.6-0.2-2.4c-1.3,0-2.6,0-3.9,0c0,1.5,0,3,0,4.6c1.5,0,3,0,4.6,0c0,0.9,0,1.8,0,2.7c-1.5,0-3,0-4.6,0
		c0,1.6,0,3.1,0,4.6c0.6,0,1.2,0,1.8,0c0,0.9,0,1.7,0,2.5c-2.3,0-4.6,0-6.9,0c0-0.8,0-1.6,0-2.5c0.5,0,0.9,0,1.4,0
		C193.6,148,193.6,144.1,193.6,140z"/>
	<path class="st1" d="M90.9,152c0.5,0,0.9,0,1.4,0c0-4,0-7.9,0-11.9c-0.5,0-1.1,0-1.7,0c0-0.8,0-1.6,0-2.5c4,0,8.1,0,12.3,0
		c0,1.6,0,3.2,0,4.9c-0.9,0-1.8,0-2.8,0c-0.1-0.8-0.1-1.6-0.2-2.4c-1.3,0-2.6,0-3.9,0c0,1.5,0,3,0,4.6c1.5,0,3,0,4.6,0
		c0,0.9,0,1.7,0,2.6c-1.5,0-3,0-4.6,0c0,1.6,0,3.1,0,4.7c0.6,0,1.2,0,1.8,0c0,0.8,0,1.6,0,2.5c-2.3,0-4.6,0-6.9,0
		C90.9,153.7,90.9,152.9,90.9,152z"/>
	<path class="st1" d="M253.1,152c0.5,0,0.9,0,1.4,0c0,0.8,0,1.6,0,2.5c-2.2,0-4.4,0-6.6,0c0-0.8,0-1.6,0-2.5c0.5,0,1,0,1.5,0
		c0-4,0-8,0-12c-0.5,0-0.9,0-1.4,0c0-0.8,0-1.6,0-2.5c2.2,0,4.3,0,6.6,0c0,0.8,0,1.6,0,2.4c-0.5,0-0.9,0-1.5,0
		C253.1,144,253.1,148,253.1,152z"/>
</g>
</svg>
