<svg id="Layer_1" data-name="Layer 1" xmlns="http://www.w3.org/2000/svg" viewBox="0 0 28 28"><defs><style>.cls-1{fill:none;stroke:#655953;stroke-miterlimit:10;stroke-width:3px;}</style></defs><path class="cls-1" d="M3.72,9.58v8.84A2.61,2.61,0,0,0,5,20.69l7.66,4.43a2.61,2.61,0,0,0,2.62,0L23,20.7a2.64,2.64,0,0,0,1.31-2.28V9.58A2.64,2.64,0,0,0,23,7.3L15.31,2.88a2.61,2.61,0,0,0-2.62,0L5,7.3A2.64,2.64,0,0,0,3.72,9.58Z"/><line class="cls-1" x1="14.01" y1="14" x2="3.73" y2="8.06"/><line class="cls-1" x1="14.01" y1="25.88" x2="14.01" y2="14"/><line class="cls-1" x1="8.87" y1="23.18" x2="8.87" y2="11.3"/><line class="cls-1" x1="14" y1="14.01" x2="24.28" y2="8.07"/><line class="cls-1" x1="8.87" y1="11.3" x2="19.16" y2="5.36"/></svg>