<svg id="Layer_1" data-name="Layer 1" xmlns="http://www.w3.org/2000/svg" viewBox="0 0 28 28"><defs><style>.cls-1{fill:none;stroke:#655953;stroke-linecap:round;stroke-linejoin:round;stroke-width:3px;}</style></defs><g id="Blog_Icon" data-name="Blog Icon"><path id="Path_1658" data-name="Path 1658" class="cls-1" d="M22.54,24.24H6a3.44,3.44,0,0,1-3.43-3.43V5.44A1.69,1.69,0,0,1,4.2,3.75H17.93a1.69,1.69,0,0,1,1.68,1.69h0V20.35a6.11,6.11,0,0,0,.07.86C20,23,21.14,24.24,22.54,24.24Z"/><line id="Line_586" data-name="Line 586" class="cls-1" x1="6.76" y1="8.93" x2="15.37" y2="8.93"/><line id="Line_587" data-name="Line 587" class="cls-1" x1="6.76" y1="13.47" x2="15.37" y2="13.47"/><line id="Line_588" data-name="Line 588" class="cls-1" x1="6.76" y1="18.08" x2="12.25" y2="18.08"/><path id="Path_1659" data-name="Path 1659" class="cls-1" d="M23.8,11a1.68,1.68,0,0,1,1.68,1.68h0v7.66a5,5,0,0,1-.07.86c-.3,1.73-1.47,3-2.86,3s-2.57-1.3-2.87-3a5.07,5.07,0,0,1-.07-.86V11Z"/></g></svg>