<svg id="Layer_1" data-name="Layer 1" xmlns="http://www.w3.org/2000/svg" viewBox="0 0 2000 2000"><defs><style>.cls-1{fill:none;stroke:#896c5d;stroke-miterlimit:10;stroke-width:60px;}</style></defs><path class="cls-1" d="M1354,893.37l-350.09,202.12c-6.38,3.69-3.29,13.48,4.06,12.82l222.19-19.84a128.53,128.53,0,0,0,52.66-16.62l71.18-41V1304a43.64,43.64,0,0,1-21.85,37.84l-322.86,186.42a66,66,0,0,1-66,0l-155.58-89.82-172.93-99.85a32.43,32.43,0,0,1-16.21-28.08V893l.19-.12.17-.09L976,675.1l.28-.16L1354,893Z"/><line class="cls-1" x1="976.68" y1="1111" x2="598.96" y2="892.92"/><line class="cls-1" x1="976.76" y1="1547.33" x2="976.76" y2="1111.17"/><line class="cls-1" x1="787.67" y1="1448.16" x2="787.67" y2="1012"/><line class="cls-1" x1="1354.02" y1="893.34" x2="1353.97" y2="893.37"/><polyline class="cls-1" points="976.88 1111.08 976.75 1111.15 976.29 1111.42"/><path class="cls-1" d="M598.59,892.67,431.79,704.45A33.62,33.62,0,0,1,440,652.83L758.19,469.28A33.63,33.63,0,0,1,800,475.94L975.92,675"/><path class="cls-1" d="M1568.13,907.45,1354,1030.84l-71.18,41a128.53,128.53,0,0,1-52.66,16.62L1011.86,1108c-8.27.74-11.76-10.29-4.57-14.44l346.68-200,204-18.32C1576.43,873.52,1584.22,898.18,1568.13,907.45Z"/><polyline class="cls-1" points="975.92 1111.17 976.69 1111.1 976.88 1111.08"/></svg>