<svg id="Layer_1" data-name="Layer 1" xmlns="http://www.w3.org/2000/svg" viewBox="0 0 2000 2000"><defs><style>.cls-1{fill:none;stroke:#add24d;stroke-linecap:round;stroke-miterlimit:10;stroke-width:60px;}</style></defs><path id="Contact_Icon" data-name="Contact Icon" class="cls-1" d="M585.37,461.92c-84.15.5-144.57,96.09-163.56,166.63a246.34,246.34,0,0,0,0,121.18C477,992.27,661.14,1198,661.14,1198s211.57,236.48,475.48,321c95.84,30.72,152.3,22.09,190.81,6.06a345.26,345.26,0,0,0,84.8-57.54c51-41.15,84.83-67.43,84.83-103,0-72.74-171.68-264.57-264-263.73-30.93.28-123,116.92-148,121.39-86.63,15.6-356.86-249.51-363-338.05C718.5,831,866.79,755.47,842.78,683.05,810.44,585.19,667.17,461.41,585.37,461.92Z"/></svg>