<svg id="Layer_1" data-name="Layer 1" xmlns="http://www.w3.org/2000/svg" viewBox="0 0 2000 2000"><defs><style>.cls-1{fill:none;stroke:#add24d;stroke-linecap:round;stroke-miterlimit:10;stroke-width:60px;}</style></defs><path class="cls-1" d="M632.54,465.22C549,465.7,489,560.59,470.21,630.56c-14.06,52.2-5.33,96.85,0,120.24C525,991.53,707.69,1195.72,707.69,1195.72s210,234.73,472,318.65c95.12,30.48,151.14,21.93,189.39,6,27.54-11.45,47.12-27.23,84.18-57.11,50.66-40.85,84.17-67,84.17-102.21,0-72.15-170.39-262.59-262-261.77-30.7.27-122,116-146.83,120.48-86.12,15.45-354.18-247.66-360.28-335.52-3.65-52.73,143.58-127.72,119.78-199.58C855.91,587.58,713.71,464.74,632.54,465.22Z"/></svg>