<svg id="Layer_1" data-name="Layer 1" xmlns="http://www.w3.org/2000/svg" viewBox="0 0 2000 2000"><defs><style>.cls-1{fill:none;stroke:#add24d;stroke-linecap:round;stroke-miterlimit:10;stroke-width:60px;}</style></defs><path class="cls-1" d="M617.1,630.19A530.54,530.54,0,0,0,467.64,1000"/><path class="cls-1" d="M998,467.67l-1.8,0"/><path class="cls-1" d="M467.64,1000c0,144.59,57.67,275.69,151.23,371.62"/><path class="cls-1" d="M618.87,1371.62c95.73,98.17,229,159.48,376.7,160.68"/><path class="cls-1" d="M617.1,630.19c96-99.36,230.28-161.46,379.09-162.5"/><path class="cls-1" d="M1380.66,627.89c-95.55-97.73-228.41-158.8-375.55-160.18"/><path class="cls-1" d="M1532.36,1000c0-144.83-57.86-276.13-151.7-372.11"/><path class="cls-1" d="M998,467.67l2,0c1.71,0,3.41.05,5.11.07"/><path class="cls-1" d="M1003.3,1532.32c-1.1,0-2.2,0-3.3,0l-2,0"/><path class="cls-1" d="M1380.09,1372.69c-95.9,97.79-229.21,158.73-376.79,159.63"/><path class="cls-1" d="M1380.09,1372.69c94.17-96,152.27-227.57,152.27-372.69"/><path class="cls-1" d="M998,1532.33c-.81,0-1.61,0-2.42,0"/><line class="cls-1" x1="1282.62" y1="1000" x2="997.99" y2="1000"/><line class="cls-1" x1="467.64" y1="1000" x2="717.48" y2="1000"/><line class="cls-1" x1="467.64" y1="1000" x2="466.84" y2="1000"/><line class="cls-1" x1="1282.62" y1="1000" x2="1532.36" y2="1000"/><line class="cls-1" x1="717.48" y1="1000" x2="997.99" y2="1000"/><line class="cls-1" x1="997.99" y1="472.5" x2="997.99" y2="754.8"/><line class="cls-1" x1="997.99" y1="1247.26" x2="997.99" y2="1000"/><line class="cls-1" x1="997.99" y1="1532.76" x2="997.99" y2="1532.33"/><line class="cls-1" x1="997.99" y1="467.67" x2="997.99" y2="467.24"/><line class="cls-1" x1="997.99" y1="1000" x2="997.99" y2="754.8"/><line class="cls-1" x1="997.99" y1="472.5" x2="997.99" y2="468.89"/><line class="cls-1" x1="997.99" y1="1532.33" x2="997.99" y2="1247.26"/><line class="cls-1" x1="997.99" y1="468.89" x2="997.99" y2="467.67"/><path class="cls-1" d="M996.19,467.69l1.8,1.2"/><path class="cls-1" d="M1282.62,1000a639.46,639.46,0,0,0-66.88-283.3"/><path class="cls-1" d="M1000.65,470.68a645.1,645.1,0,0,1,215.09,246"/><path class="cls-1" d="M1003.3,1532.32a645,645,0,0,0,213.8-247"/><path class="cls-1" d="M1003.3,1532.32l-3.85,2.64"/><path class="cls-1" d="M1217.1,1285.34a639.57,639.57,0,0,0,65.54-282.93c0-.81,0-1.61,0-2.41"/><path class="cls-1" d="M998,468.89l2.66,1.79"/><path class="cls-1" d="M999.45,1535q-2-1.32-3.88-2.66"/><path class="cls-1" d="M783.88,718.48A639.53,639.53,0,0,0,717.48,1000"/><path class="cls-1" d="M1000.65,470.68q2.22-1.5,4.46-3"/><path class="cls-1" d="M782.27,1284.67a639.51,639.51,0,0,1-64.81-281.44c0-1.08,0-2.15,0-3.23"/><path class="cls-1" d="M782.27,1284.67a644.91,644.91,0,0,0,213.3,247.63"/><path class="cls-1" d="M998,472.5a645.11,645.11,0,0,0-214.11,246"/><path class="cls-1" d="M998,472.5l2.66-1.82"/><path class="cls-1" d="M1215.74,716.7A641.13,641.13,0,0,1,998,754.8"/><path class="cls-1" d="M1215.74,716.7a640.9,640.9,0,0,0,164.92-88.81"/><path class="cls-1" d="M998,754.8h-.66a641.09,641.09,0,0,1-213.45-36.33"/><path class="cls-1" d="M617.1,630.19a640.43,640.43,0,0,0,166.78,88.29"/><path class="cls-1" d="M998,1247.26a640.64,640.64,0,0,0-215.72,37.41"/><path class="cls-1" d="M618.87,1371.62a640.53,640.53,0,0,1,163.4-86.95"/><path class="cls-1" d="M1380.09,1372.69a640.31,640.31,0,0,0-163-87.35"/><path class="cls-1" d="M998,1247.26h.77a640.75,640.75,0,0,1,218.34,38.09"/></svg>