<svg id="Layer_1" data-name="Layer 1" xmlns="http://www.w3.org/2000/svg" viewBox="0 0 2000 2000"><defs><style>.cls-1{fill:none;stroke:#add24d;stroke-linecap:round;stroke-miterlimit:10;stroke-width:60px;}</style></defs><g id="Blog_Icon" data-name="Blog Icon"><path id="Path_1658" data-name="Path 1658" class="cls-1" d="M1447.52,1539.78H579.41A180.27,180.27,0,0,1,399.59,1360V555.35a88.13,88.13,0,0,1,88.13-88.13h718.52a88.13,88.13,0,0,1,88.13,88.13v780.81a267.64,267.64,0,0,0,3.77,44.95C1313.24,1471.92,1374.49,1539.78,1447.52,1539.78Z"/><line id="Line_586" data-name="Line 586" class="cls-1" x1="621.6" y1="738.26" x2="1072.09" y2="738.26"/><line id="Line_587" data-name="Line 587" class="cls-1" x1="621.6" y1="975.68" x2="1072.09" y2="975.68"/><line id="Line_588" data-name="Line 588" class="cls-1" x1="621.6" y1="1217.15" x2="908.97" y2="1217.15"/><path id="Path_1659" data-name="Path 1659" class="cls-1" d="M1513.41,847.61a88.13,88.13,0,0,1,88.13,88.13h0v400.58a265.56,265.56,0,0,1-3.77,45c-15.42,90.77-76.67,158.55-149.89,158.55S1313.44,1472,1298,1381.27a267.64,267.64,0,0,1-3.77-45V847.61Z"/></g></svg>