<svg id="Layer_1" data-name="Layer 1" xmlns="http://www.w3.org/2000/svg" viewBox="0 0 1024 1024"><defs><style>.cls-1{fill:none;stroke:#231f20;stroke-linecap:round;stroke-linejoin:round;stroke-width:100px;}</style></defs><path class="cls-1" d="M479.69,348.66a1650.62,1650.62,0,0,1,155.64,235.5A1654.24,1654.24,0,0,1,779.51,944.63"/><path class="cls-1" d="M730.68,685.22a162.06,162.06,0,0,1-19.78,19.12c-95.26,77.28-249,14-303.7-84.68-36.27-65.42-51.56-135.49-54.63-202.74C344.42,238.3,422.41,79.37,422.41,79.37,428.08,217.7,665.65,289.9,734.48,373.58,798.26,451.11,819.13,584,730.68,685.22Z"/><path class="cls-1" d="M388,815.82C161.5,662.63,156.87,327.21,156.87,327.21,191,388,269.92,407.26,352.57,416.92c3.07,67.25,18.36,137.32,54.63,202.74,54.71,98.7,208.44,162,303.7,84.68q-1.8,11.6-4.79,23.41C671.7,863.47,488.29,883.62,388,815.82Z"/><path class="cls-1" d="M648.87,734.47A1656.65,1656.65,0,0,1,867.13,936.92"/><path class="cls-1" d="M329.9,541.37q23.61,10.86,48.54,23.3"/></svg>