<svg xmlns="http://www.w3.org/2000/svg" viewBox="0 0 1000 1000">
    <defs>
        <style>
            .cls-1 {
                fill: #919191;
            }

            .cls-2 {
                fill: #fff;
            }

        </style>
    </defs>
    <g id="right_chevron_icon">
        <rect class="cls-1" x="2.12" y="1.62" width="996.75" height="996.75" />
        <g id="WfuXmo">
            <path class="cls-2" d="M533.73,998.38c-.7-8.76-2-17.51-2-26.26-.14-110.72-.6-221.44.36-332.15.19-20.72-6.12-26.83-26.32-25.62-27.95,1.66-56.09-.2-84.11.65-14.69.45-21.43-3.55-21.11-19.6q1.2-60.87,0-121.77c-.29-15.5,5.4-20.81,20.65-20.49,35.35.75,70.73.24,108.55.24.7-9.16,1.76-16.89,1.81-24.63.18-33.95,0-67.9.09-101.85C531.82,227.14,604,151.51,704,147.81c40.54-1.5,81.18.08,121.77-.56,14.27-.22,19.57,4.78,19.27,19.28q-1.12,54.24,0,108.5c.29,14.23-4.45,20-19,19.59-26.56-.68-53.15-.51-79.71,0-32.67.68-52.43,19.85-53.3,52.32-.78,28.77.43,57.59-.49,86.35-.49,15.4,4.93,20.69,20.36,20.28,33.93-.9,67.9-.35,101.86-.19,7.92,0,15.85.83,26.85,1.46-3.88,32.56-7.38,63.06-11.18,93.52-1.82,14.62-5.75,29.16-6,43.77-.29,20.26-10.44,23.6-28,23-33.06-1.22-66.2-.35-103.26-.35V998.38Z" />
        </g>
    </g>
</svg>
