<svg xmlns="http://www.w3.org/2000/svg" viewBox="0 0 1000 1000">
    <defs>
        <style>
            .cls-1 {
                fill: #919191;
            }

            .cls-2 {
                fill: #fffdfe;
            }

        </style>
    </defs>
    <g id="right_chevron_icon">
        <rect class="cls-1" x="1" y="0.5" width="999" height="999" />
        <path class="cls-2" d="M866.36,542.51c-.11-39.28,0-78.56-.33-117.84-.3-37-.21-74-5.27-110.8-4.48-32.53-14.53-63.23-33.22-90.49C803,187.5,769.71,163,728.2,149.62c-24.14-7.77-49-11-74.14-12.77-31.45-1.34-62.92-2.09-94.4-2-64.1.15-128.2-.86-192.29,1.28-32.17,1.06-64.12,3.44-95,13.6-29.33,9.65-55.07,24.91-77,46.84-21.54,21.55-36.33,47-45.79,75.75-1.2,3.64-2.31,7.3-3.45,10.95-9.9,37.09-10.17,75.16-11,113.11-.64,27.43-.39,54.87-.56,82.31,0,1.94-.18,3.88-.28,5.81.09,5.67.25,11.34.26,17q0,37.93,0,75.85c0,7.25.74,14.46-.38,21.75-.55,3.51.78,7.28.88,10.94.8,29,1.32,58.14,6.12,86.79A218.13,218.13,0,0,0,158.57,752a184.63,184.63,0,0,0,31.62,47.43c7.23,6.9,14,14.46,21.83,20.53,10.74,8.27,22,15.84,34.61,21.36,19.76,8.64,39.93,16,61.22,19.32a392,392,0,0,0,46.68,4.15c63.9,2.07,127.82,1.47,191.73,1.6,4.52,0,9.06-.65,13.56.36,19.52-.34,39-.53,58.56-1,13.46-.36,26.93-1,40.38-1.8,43.19-2.56,84.17-12.45,120.65-37,14-10.82,27.15-22.44,38.48-36.17,18.94-23,30.57-49.4,37.92-77.9,5.08-19.68,6.79-39.81,8.09-60.07,2.24-34.81,1.7-69.67,2.72-104.49C866.53,546.39,866.36,544.45,866.36,542.51ZM800,596.8c0,2.27-.28,4.52-.43,6.79-.73,32.74-.19,65.61-8.9,97.6-6.16,22.65-16.57,42.91-34.29,58.87a107.55,107.55,0,0,1-29.92,21.24c-21.59,10.17-44.49,15-68.18,16.48-56.25,3.53-112.58,2.62-168.88,2.7-17,0-34.08-.11-51.12-.17-7.45.06-14.89.3-22.33.15-28.5-.58-57-.73-85.4-3.7-19-2-37.31-6.45-54.66-14.56-3.05-1.43-6.28-2.62-8.84-5-30-17.55-48.18-43.89-57.16-77.1-5-18.42-6.59-37.24-7.43-56.17-.87-19.6-1.6-39.2-1.5-58.82-.63-15.19-.57-30.39-.28-45.58q-.24-33.24-.46-66.48a22.38,22.38,0,0,1,.48-3.31c-.45-30.7,0-61.38.94-92.05.55-17.34,1.09-34.68,3.32-51.93,8.22-63.64,44.37-106.52,108.82-118.68,25-4.71,50.38-5.18,75.68-5.64q112.75-2.07,225.52.06c20.28.38,40.65.54,60.73,3.78,36.75,5.94,70,18.9,93.49,49.82,15.41,20.28,23,43.7,26.3,68.57,4.68,35.49,4.49,71.27,4.71,107C800.52,486.06,800.63,541.43,800,596.8Z" />
        <path class="cls-2" d="M674.7,429.43c-.72-1.44-1.48-2.86-2.14-4.33-18.78-41.65-48.08-73.9-89.53-93C511,299,442.94,307.19,380.2,356.19c-11.19,8.74-20.61,19.34-29.52,30.21-6.21,7.58-10.71,16.55-16,24.9-3.21,7.69-7.55,14.84-10.24,22.83-4.71,14-9.37,28-10.47,42.85-.29,3.84-2.06,7.36-1.85,11.37.52,10,.64,20.07.92,30.1.67,4.66,1.26,9.33,2,14,13.65,81,80.87,147.17,167.51,155.28a184.87,184.87,0,0,0,45.15-1.15c45-6.84,82.66-27.38,113.15-61.15a203,203,0,0,0,20.53-28.24c22.47-37.39,30.34-77.72,25.32-120.83C684.88,460.12,680,444.74,674.7,429.43Zm-57.83,106a154.63,154.63,0,0,1-11.18,26.48,109.15,109.15,0,0,1-20.76,26.57c-1.21,1.16-2.12,3-4.29,2.76C561,610.48,536.88,620.23,510,622c-46.9,3.08-84.09-15.52-111-53.87a105.05,105.05,0,0,1-18.65-48.48c-3.91-20.62-1.64-40.73,5.42-60.3,18.68-51.75,70.87-85.43,124.08-80.29,57.37,5.53,102,46.4,110.94,102.21A114,114,0,0,1,616.87,535.39Z" />
        <path class="cls-2" d="M695.82,261.5a43.9,43.9,0,0,0-.45,87.8,43.9,43.9,0,1,0,.45-87.8Z" />
    </g>
</svg>
