<svg id="Layer_1" data-name="Layer 1" xmlns="http://www.w3.org/2000/svg" viewBox="0 0 2000 2000"><defs><style>.cls-1,.cls-2,.cls-4{fill:none;}.cls-1,.cls-2,.cls-3,.cls-4{stroke:#896c5d;stroke-miterlimit:10;}.cls-1{stroke-width:40px;}.cls-2,.cls-4{stroke-width:60px;}.cls-3{fill:#896c5d;}.cls-4{stroke-linecap:round;}</style></defs><path class="cls-1" d="M791.2,913.52v179.54a53.28,53.28,0,0,0,26.65,46.16L973.33,1229a53.31,53.31,0,0,0,53.3,0l155.49-89.77a53.3,53.3,0,0,0,26.64-46.16V913.52a53.3,53.3,0,0,0-26.64-46.16l-155.49-89.77a53.31,53.31,0,0,0-53.3,0L817.85,867.36A53.28,53.28,0,0,0,791.2,913.52Z"/><line class="cls-1" x1="1000.22" y1="1003.24" x2="791.43" y2="882.69"/><line class="cls-1" x1="1000.26" y1="1244.41" x2="1000.26" y2="1003.33"/><line class="cls-1" x1="895.74" y1="1189.6" x2="895.74" y2="948.51"/><line class="cls-1" x1="1000" y1="1003.47" x2="1208.78" y2="882.93"/><line class="cls-1" x1="895.87" y1="948.51" x2="1104.65" y2="827.97"/><rect class="cls-2" x="703.7" y="464.14" width="592.61" height="1078.66" rx="88.1"/><rect class="cls-3" x="841.22" y="450.88" width="308.18" height="115.57" rx="57.79"/><line class="cls-4" x1="877.15" y1="1444.55" x2="1130.03" y2="1444.55"/></svg>