<svg xmlns="http://www.w3.org/2000/svg" viewBox="0 0 216.39 272.12"><defs><style>.cls-1,.cls-2{fill:#fff;}.cls-1{stroke:#fff;stroke-width:14px;}.cls-1,.cls-14,.cls-15{stroke-miterlimit:10;}.cls-15,.cls-3{fill:#5f4d8c;}.cls-4{fill:#1d1d1b;}.cls-5{fill:#806eb0;}.cls-6{fill:#5f8dc0;}.cls-7{fill:#fcf0a4;}.cls-8{fill:#c9bb72;}.cls-9{fill:#4373a4;}.cls-10{fill:#89acd3;}.cls-11{fill:#3a628c;}.cls-12{fill:#305278;}.cls-13{fill:#babbbb;}.cls-14{fill:none;}.cls-14,.cls-15{stroke:#1d1d1b;stroke-width:2px;}</style></defs><g id="Ebene_8" data-name="Ebene 8"><path class="cls-1" d="M292.39,93.93C289.6,70.83,275.64,66,275.64,66c-17.23-.63-27.82,5.92-27.82,5.92-22.57,17.13-35.61,17.18-35.61,17.18-23.34-2.22-35.52-22.19-35.52-22.19-2.74,11.36,8.18,25.41,8.18,25.41C173.42,104.71,159,117.08,159,117.08a86.79,86.79,0,0,0,36.17-14.56,41.35,41.35,0,0,0-8.76,9.32l-.89-1.21-1.45-.24s-17.36,9.41-27.92,56l-59,0L132.46,213l-15.38,13.45,66.14,83.24,97.54-121.86-73.62-1.45c-.38-13.42,1.57-27.34,8.82-34.91l-.74-.36a9.33,9.33,0,0,0,.94.29c21.89,1.59,34.36,9.05,48.89,7s12.08-14.29,12.08-14.29c1.59-6.36-.91-9.87-.91-9.87-1.49,4.24-3.37,5.53-3.37,5.53s-8.85-3.27-12.08-5.39a4.33,4.33,0,0,1-2.07-5.1,4.91,4.91,0,0,0-2.74,1.59l-3.51-3.56A81.4,81.4,0,0,0,266,107.65c2.45,3.08,2.16,8.71,2.16,8.71,3.66-3.66,4.62-13.53,4.62-13.53a11.87,11.87,0,0,1,2.84-1.49c3.08,4.29,2.27,7.8,2.27,7.8,3.12-3.18,3.85-10,3.85-10l3.8-1.35a9.77,9.77,0,0,1,2.4,6.69S293.16,100,292.39,93.93Zm-94.23,23.44a43.54,43.54,0,0,0-4.27,4.7l0-.06A48.7,48.7,0,0,1,198.16,117.37Zm16,110.23A109.7,109.7,0,0,1,208.07,204l38.22.77-34.42,43.1-1.59-1.18-11.23-10.11-15.19,20.21-23.18-31Z" transform="translate(-83.08 -48.84)"/><path class="cls-2" d="M293.45,263.55l-9.3-71.36-6,2.78-167.72.19L96.55,263.6H251.33s5.24.21,12-.05h30.08" transform="translate(-83.08 -48.84)"/><polygon class="cls-2" points="163.17 129.14 165.26 113.91 132.81 108.78 130.83 107.19 123.04 128.97 133.01 139.03 179.53 138.56 180.23 133.5 187.74 138 208.67 136.6 214.69 129.09 163.17 129.14"/></g><g id="shading"><polygon class="cls-3" points="12.05 116.49 158.37 116.49 155.63 134.66 47.27 134.66 101.22 205.81 116.36 186.1 129.3 197.73 100.55 232.43 12.05 116.49"/><path class="cls-4" d="M240.29,166.33l-2.44,16.17H128.34l56,73.8,15.27-19.89L211,246.67l-27.33,33L97.16,166.33H240.29m2.32-2H93.11l2.46,3.22,86.5,113.32,1.52,2,1.61-1.94,27.33-33,1.23-1.48-1.43-1.28-11.42-10.27-1.61-1.45L198,235.19,184.31,253l-51.94-68.5h107.2l.26-1.7,2.44-16.17.34-2.3Z" transform="translate(-83.08 -48.84)"/><polygon class="cls-5" points="103.37 209.71 109.66 203.55 51.27 140.29 46.26 133.66 154.77 133.66 155.83 126.96 31.31 126.92 42.29 140.24 42.22 140.27 97.98 214.76 101.87 219.72 110.67 209.76 103.37 209.71"/><polygon class="cls-6" points="33.1 177.04 47.33 164.81 100.47 233.34 161.18 156.86 76.64 154.84 69.8 163.28 64.01 155.37 47.94 135.1 202.56 135.15 100.61 262.01 33.1 177.04"/><path class="cls-4" d="M133.09,184.94l150.47.05L183.7,309.25,117.56,226l12.7-10.91,53.28,68.7,62.75-79.06-87-2.08-6.33,7.82-5-6.87-14.81-18.67m-4.14-2,2.57,3.24,14.79,18.65,5,6.83,1.53,2.1,1.63-2,5.72-7.05,82,2-58.67,73.91-51.72-66.69-1.29-1.66L129,213.58l-12.7,10.91-1.46,1.26,1.2,1.5,66.13,83.24,1.56,2,1.57-1.95,99.86-124.26,2.61-3.25h-4.17l-150.47-.05Z" transform="translate(-83.08 -48.84)"/><path class="cls-6" d="M186,108.22s-25.14,14.12-34,83.23l-2,33.69,64.39,2.28s-16.36-56.76,2.12-76.06l-20.27-49.47Z" transform="translate(-83.08 -48.84)"/><path class="cls-7" d="M183.2,226.87S172,152.64,199.66,136.66c0,0,4.09,12.13,16.8,15.26,0,0-18.15,14.73-1.78,76.09Z" transform="translate(-83.08 -48.84)"/><path class="cls-8" d="M194.63,148.76s-.1,7.85,9.39,16.18c0,0-3.42.24-7.32-3.18,0,0-.77,9.48,11.12,23.58,0,0-1.49-23.44,8.66-34a22.56,22.56,0,0,1-16.8-15.25Z" transform="translate(-83.08 -48.84)"/><path class="cls-4" d="M189.17,164.72a45.22,45.22,0,0,0,14.05,4.19S195.18,171,189.17,164.72Z" transform="translate(-83.08 -48.84)"/><path class="cls-4" d="M197.31,149.22a35.18,35.18,0,0,0,9.65,6.34A11.74,11.74,0,0,1,197.31,149.22Z" transform="translate(-83.08 -48.84)"/><path class="cls-4" d="M185,184.22a64.76,64.76,0,0,0,16.88,5.42S191.87,191,185,184.22Z" transform="translate(-83.08 -48.84)"/><path class="cls-9" d="M181,188.66s-22.81-9.14,7.51-80.56c0,0-24.31,4.11-36,80-.17,1.11-2.36,35.92-2.52,37,0,0,24.33,15.46,32.73,4C184.85,226.14,180.65,190.39,181,188.66Z" transform="translate(-83.08 -48.84)"/><path class="cls-9" d="M181.54,146.18s-1.6,13.35,12.64,23.55c0,0-12.38-26.95-6.29-38.44S181.54,146.18,181.54,146.18Z" transform="translate(-83.08 -48.84)"/><path class="cls-8" d="M184.79,159.55l2-6s5.31,12.2,7.53,16.26C194.32,169.77,187.44,165.3,184.79,159.55Z" transform="translate(-83.08 -48.84)"/><polygon class="cls-10" points="69.68 209.8 99.9 246.48 131.86 208.65 120.48 209.76 100.46 234.96 80.92 209.73 69.68 209.8"/></g><g id="base"><path class="cls-6" d="M276,65.94s14,4.81,16.75,27.91c.77,6-4.43,10.59-4.43,10.59a9.75,9.75,0,0,0-2.41-6.69l-3.8,1.35s-.72,6.78-3.85,10c0,0,.82-3.51-2.26-7.8a11.68,11.68,0,0,0-2.84,1.49s-1,9.87-4.62,13.53c0,0,.29-5.63-2.17-8.71a81.4,81.4,0,0,1-13.57,19.73l3.51,3.56a4.91,4.91,0,0,1,2.75-1.59,4.31,4.31,0,0,0,2.07,5.1c3.22,2.12,12.08,5.39,12.08,5.39s1.87-1.29,3.37-5.53c0,0,2.5,3.51.91,9.87,0,0,2.45,12.27-12.08,14.29s-27-5.44-48.9-7a27,27,0,0,1-16.8-15.25,52.42,52.42,0,0,0-7.31,27.14s-16.08-24.83,6.11-46c0,0-12.85,11.5-21.61,35.42,0,0-3.27-34.7,19.83-51.21,0,0-14,11.65-37.4,15.5,0,0,14.44-12.37,25.9-24.74,0,0-10.93-14.05-8.18-25.41,0,0,12.17,20,35.51,22.19,0,0,13.05-.05,35.62-17.18C248.15,71.86,258.74,65.31,276,65.94Z" transform="translate(-83.08 -48.84)"/></g><g id="Ebene_5" data-name="Ebene 5"><path class="cls-2" d="M288.05,105s6-4.57,5-11.38c0,0-3.37.36-9,1.58,0,0,4.33,4.78,4.14,9.81" transform="translate(-83.08 -48.84)"/><path class="cls-2" d="M274.33,98.5s4.37,5.62,3.27,11.94c0,0,7.22-7.77,3.57-14.54Z" transform="translate(-83.08 -48.84)"/><path class="cls-2" d="M265.15,105.77s1.67-3.83,8.25-5.76c0,0-1.09,14.63-5.33,17C268.07,117.05,268,108.77,265.15,105.77Z" transform="translate(-83.08 -48.84)"/><path class="cls-11" d="M272,144.18a50.39,50.39,0,0,1-7.61-.83l-.1,0c-9.27-2.6-19.51-7.25-31.3-14.22-9.66-5.39-15.11-6.22-15.16-6.23l-1.74-.25,1.1-1.37c1.1-1.35,27.17-33.11,56.4-33.11a37.82,37.82,0,0,1,20,5.71l2.47,1.51-2.87.34c-.19,0-19.24,2.35-27.18,12.45-3.11,4.94-11.82,16.56-13.94,19.38,1.68,2.1,8.49,9.59,22.35,13.15l.22.06.17.14a1.83,1.83,0,0,1,.69,2C275.11,144,273.52,144.18,272,144.18Z" transform="translate(-83.08 -48.84)"/><path class="cls-4" d="M273.61,89.15a36.69,36.69,0,0,1,19.49,5.57S273.5,97,265.22,107.58c-3.47,5.52-14.38,20-14.38,20s6.61,9.82,23.36,14.12c0,0,1.83,1.52-2.18,1.52a48.44,48.44,0,0,1-7.44-.82c-6.87-1.92-16.62-5.58-31.06-14.11-10-5.59-15.53-6.36-15.53-6.36s26.53-32.74,55.62-32.74m0-2v0h0c-29.7,0-56.07,32.12-57.17,33.48l-2.23,2.75,3.5.49s5.36.84,14.81,6.11c11.86,7,22.17,11.69,31.52,14.31l.1,0,.11,0a51,51,0,0,0,7.77.84c1.12,0,3.73,0,4.45-2a2.82,2.82,0,0,0-1-3.08l-.34-.29-.44-.11c-12.48-3.2-19.1-9.65-21.33-12.21,2.72-3.62,10.53-14.09,13.49-18.77,7.69-9.73,26.29-12,26.47-12l5.75-.67-4.93-3a38.81,38.81,0,0,0-20.54-5.86Z" transform="translate(-83.08 -48.84)"/><path class="cls-2" d="M267.54,100.51C259.11,97,261.94,88,262,87.94l.12-.37,9.07-2.84-.72,1.55a22.06,22.06,0,0,0-1.88,13.36l.36,1.45Z" transform="translate(-83.08 -48.84)"/><path class="cls-4" d="M269.76,86a22.58,22.58,0,0,0-1.93,13.86c-7.89-3.32-5.15-11.65-5.15-11.65L269.76,86m2.8-2.45-3.25,1-7.07,2.21-.74.23-.24.73c-1.1,3.34-1.26,10.45,6,13.5l2.77,1.16-.73-2.91a21.29,21.29,0,0,1,1.83-12.86l1.44-3.08Z" transform="translate(-83.08 -48.84)"/><path class="cls-2" d="M255.19,107c-3.17-1.25-5.33-3.15-6.39-5.67a11.31,11.31,0,0,1,0-8l.11-.26,10.1-5L258.12,90a25.83,25.83,0,0,0-1.93,16.09l.39,1.44Z" transform="translate(-83.08 -48.84)"/><path class="cls-4" d="M257.44,89.66a26.35,26.35,0,0,0-2,16.61c-9.69-3.79-6-12.71-6-12.71l7.94-3.9m3.13-3.21-3.79,1.87-7.94,3.89-.51.25-.22.52a12.11,12.11,0,0,0,0,8.62c1.15,2.71,3.44,4.75,6.81,6.06l2.78,1.09-.79-2.88a25.15,25.15,0,0,1,1.89-15.58l1.77-3.84Z" transform="translate(-83.08 -48.84)"/><path class="cls-2" d="M240.56,135.33l0-.37c0-.24-.53-5.87,3.77-8.1l1.08-.56,0,1.22c0,2.39.52,8.93,2.46,10.49l-.86,1.22Z" transform="translate(-83.08 -48.84)"/><path class="cls-4" d="M244.64,127.52s.09,9,2.74,11.07l-6.11-3.7s-.53-5.34,3.37-7.37m1.47-2.45L244,126.19c-4.75,2.46-4.2,8.59-4.18,8.85l.08.74.64.39,6.11,3.71,1.72-2.46c-1.43-1.14-2.15-6.59-2.18-9.91l0-2.44Z" transform="translate(-83.08 -48.84)"/><path class="cls-12" d="M232.94,128.15s11.56-11.58.89-21.76a123.94,123.94,0,0,0-16.09,15.77S227,123.79,232.94,128.15Z" transform="translate(-83.08 -48.84)"/><path class="cls-2" d="M232,130.56l.12-.54c.05-.22,1.28-5.57,5.78-7.82l1.54-.77-.48,1.65c0,.06-1.6,5.61-.25,9.81l.6,1.84Z" transform="translate(-83.08 -48.84)"/><path class="cls-4" d="M238.22,122.87s-1.69,5.78-.24,10.25l-5.15-2.93s1.15-5.2,5.39-7.32m2.4-2.88-3.07,1.54c-4.82,2.41-6.13,8.09-6.19,8.33l-.24,1.08,1,.55,5.15,2.94,3.35,1.91-1.18-3.68c-1.29-4,.23-9.32.25-9.37l1-3.3Z" transform="translate(-83.08 -48.84)"/><path class="cls-2" d="M259.25,128.79" transform="translate(-83.08 -48.84)"/><path class="cls-2" d="M252.72,141.34l0-.41c-1.22-10.6,6.58-12.75,6.66-12.77l1.08-.28-.14,1.1c-.65,5.05,3,16,3,16.13l.57,1.7Z" transform="translate(-83.08 -48.84)"/><path class="cls-4" d="M259.53,128.89c-.67,5.28,3.06,16.46,3.06,16.46l-9.17-4.5c-1.16-10.08,6.11-12,6.11-12m1.77-2-2.14.56c-.09,0-8.52,2.34-7.23,13.58l.09.81.74.36,9.17,4.5,3.21,1.58-1.13-3.4c-1-3-3.51-11.75-3-15.79l.28-2.2Z" transform="translate(-83.08 -48.84)"/><path class="cls-2" d="M270.29,146.51c-4,0-4.81-.29-4.94-1.09s.91-1.22,1.54-1.43c4.9-1.62,8.94-10,9-10.08l.38-.81.73.52c2.93,2.06,2.25,10.93,2.16,11.94l-.06.64-.65,0s-4.59.27-8.14.27Z" transform="translate(-83.08 -48.84)"/><path class="cls-4" d="M276.55,134.23c2.66,1.88,1.84,11.26,1.84,11.26s-4.54.27-8.1.27c-3.23,0-5.67-.22-3.16-1,5.26-1.75,9.42-10.48,9.42-10.48M276,132l-.77,1.6c-1.08,2.27-4.73,8.44-8.53,9.7-.63.21-2.29.76-2.05,2.26s1.93,1.72,5.68,1.72c3.57,0,8-.26,8.19-.27l1.29-.08.11-1.29c.21-2.4.65-10.41-2.47-12.62L276,132Z" transform="translate(-83.08 -48.84)"/><path class="cls-9" d="M215.69,121.6a31.62,31.62,0,0,1,3.51-4.07c12-12.93,43.37-41.74,73.42-25.44,0,0-2-21.58-16.65-26.44l-7.85.09A36.49,36.49,0,0,1,278.18,78s-13.62-4.34-25.12,3.12a205,205,0,0,0-19.19,14s-5.92,3.26-16.65.81l-6.32,2.37-11.26,7.57s13.66,1.21,11.55,7.27S215.69,121.6,215.69,121.6Z" transform="translate(-83.08 -48.84)"/><path class="cls-2" d="M209.8,100.85s3.72,4.58,11,.36,7.31-4.64,7.31-4.64L217,96.06l-8.23,4Z" transform="translate(-83.08 -48.84)"/><path class="cls-13" d="M212.78,97.51s-.1,3.27,6.08,4.88l-5.12.39-2.81-.86-2.21-1.84Z" transform="translate(-83.08 -48.84)"/><path class="cls-4" d="M199.64,105.88S212.06,94.57,217.48,95c7.41.32,12.73,1.83,16.39.09,0,0-3.5,3.28-16.84,1.61C213.5,96.93,204.71,103.12,199.64,105.88Z" transform="translate(-83.08 -48.84)"/><path class="cls-4" d="M227.57,97s-4.13,7.19-9.91,7-6.83-2-7.28-2.5c0,0,6.35,1.73,9.56-.1S227.57,97,227.57,97Z" transform="translate(-83.08 -48.84)"/><path class="cls-2" d="M294.3,91.3s1.42,4.88-.69,9.12,5-.48,5-.48l.67-4.36Z" transform="translate(-83.08 -48.84)"/><path class="cls-10" d="M277.65,145.44c-25.64-.19-32.28-11.29-51-18.54-18.86-9.53-28.49.13-28.49.13-1.73,17.42,18.39,24.62,18.39,24.62C229,153,234,154.4,247,157.57c16.51,3.23,21,.63,21,.63C281.5,153.43,277.65,145.44,277.65,145.44Z" transform="translate(-83.08 -48.84)"/><polygon class="cls-2" points="176.09 78.4 179.2 78.13 178.77 75.13 176.09 78.4"/><path class="cls-10" d="M177.05,66.64s11.13,25.12,38.82,23.84c10.85-2.47,19.32-9.91,19.32-9.91L226,84.13l-10,3.75-4.5.26-8.27-1.8-7.48-3.5-5.78-4-7-6-4.11-5.61Z" transform="translate(-83.08 -48.84)"/><path class="cls-10" d="M179.81,71.61s22.95,23.68,15.35,31.24c0,0,15.4-9.67,29.26-15.35L215,89.61l-8.52-2-9.77-3.75-9.53-6.64Z" transform="translate(-83.08 -48.84)"/><path class="cls-4" d="M265.62,77s.77-4.49,12.56,1.06C278.18,78,266.05,78.75,265.62,77Z" transform="translate(-83.08 -48.84)"/><path class="cls-6" d="M199.64,105.88s16.24-1,16.05,15.72l-21.35-4.36,2.22-9.43Z" transform="translate(-83.08 -48.84)"/></g><g id="base_Kopie" data-name="base Kopie"><path class="cls-14" d="M216.22,152c-18.48,19.29-2.12,76.05-2.12,76.05l-64.39-2.27,2-33.69c8.86-69.12,32.65-81.79,32.65-81.79l1.44.24" transform="translate(-83.08 -48.84)"/><path class="cls-4" d="M273.65,65.89c.76,0,1.53,0,2.32,0,0,0,14,4.81,16.75,27.91.77,6-4.43,10.59-4.43,10.59a9.75,9.75,0,0,0-2.41-6.69l-3.8,1.35s-.72,6.78-3.85,10c0,0,.82-3.51-2.26-7.8a11.68,11.68,0,0,0-2.84,1.49s-1,9.87-4.62,13.53c0,0,.29-5.63-2.17-8.71a81.4,81.4,0,0,1-13.57,19.73l3.51,3.56a4.91,4.91,0,0,1,2.75-1.59,4.31,4.31,0,0,0,2.07,5.1c3.22,2.12,12.08,5.39,12.08,5.39s1.87-1.29,3.37-5.53c0,0,2.5,3.51.91,9.87,0,0,2.45,12.27-12.08,14.29a36.42,36.42,0,0,1-5.07.35c-12.53,0-24.51-6-43.83-7.38a27,27,0,0,1-16.8-15.25,52.42,52.42,0,0,0-7.31,27.14s-16.08-24.83,6.11-46c0,0-12.85,11.5-21.61,35.42,0,0-3.11-33,18.16-49.94,1.1-.79,1.67-1.27,1.67-1.27-.57.41-1.13.84-1.67,1.27A87.33,87.33,0,0,1,159.3,117s14.44-12.37,25.9-24.74c0,0-10.93-14.05-8.18-25.41,0,0,12.17,20,35.51,22.19,0,0,13.05-.05,35.62-17.18,0,0,9.65-6,25.5-6M176.2,61.7l-1.13,4.68c-2.44,10.12,4.78,21.76,7.54,25.72-11.05,11.74-24.47,23.26-24.61,23.38l-5.43,4.66,7.06-1.17a92.79,92.79,0,0,0,25.08-7.88c-11.92,17.71-9.94,40.65-9.83,41.81l.83,8.8,3-8.3a112.06,112.06,0,0,1,6.18-13.91,37.74,37.74,0,0,0,.19,9,42.84,42.84,0,0,0,5.57,15.87l3.68,5.68v-6.77a53,53,0,0,1,5.24-22.88A28.66,28.66,0,0,0,216,153.31l.16,0h.17a145.84,145.84,0,0,1,24.51,4.25c7,1.68,13.07,3.13,19.46,3.13a39.29,39.29,0,0,0,5.35-.37c5.25-.73,9.12-2.79,11.49-6.13a14.64,14.64,0,0,0,2.35-10.06c1.58-6.92-1.2-10.94-1.33-11.11l-2.23-3.14-1.28,3.64a13.69,13.69,0,0,1-2,3.86c-3-1.14-8.32-3.32-10.47-4.73-1.67-1.1-1.41-2.38-1.28-2.75l1.33-3-3.35.35a5.33,5.33,0,0,0-2.47.87l-.87-.88a81.87,81.87,0,0,0,10.63-15,17.16,17.16,0,0,1,.33,4l-.27,5.19,3.68-3.68c3.46-3.46,4.73-11,5.09-13.78l.19-.11a7.83,7.83,0,0,1,1.08,4.83l-1.62,6.92,5-5.09c2.75-2.79,3.85-7.57,4.24-9.88l1.25-.45a7.63,7.63,0,0,1,1.16,4.13l-.38,4.91,3.69-3.23c.24-.22,6-5.35,5.09-12.34-2.91-24.06-17.46-29.34-18.08-29.55l-.28-.1H276c-.79,0-1.6,0-2.39,0v0h0c-16.24,0-26.14,6-26.55,6.26l-.08,0-.08.06C226.24,86,213.72,87,212.6,87c-21.95-2.14-33.76-21-33.88-21.22L176.2,61.7Z" transform="translate(-83.08 -48.84)"/><path class="cls-6" d="M184.74,108.89s8.23-3.8,15-3.2l-4.6-2.78-13-2.74Z" transform="translate(-83.08 -48.84)"/><path class="cls-4" d="M199.59,140.37s-5.44-9.89-5.8-20.24a93.06,93.06,0,0,0,7,18.21c5,10.14.14,3.11.14,3.11Z" transform="translate(-83.08 -48.84)"/><path class="cls-6" d="M194.15,121.51s.72,2,1.68,5.16,4-4.55,4-4.55l2.84-6.67-5.51,1.37Z" transform="translate(-83.08 -48.84)"/><path class="cls-10" d="M196.36,100.89a6.48,6.48,0,0,1-1.2,2l2.37-1.5Z" transform="translate(-83.08 -48.84)"/><path class="cls-2" d="M279.91,129.9l-5.45-2.18.38-.44-2.22-4.55-3.53,3.62L262.94,125l-5.13,1.15,5.69-3.61,3.95-1.47s.22-7.56-1.42-11.31c0,0-7.94,13-14,17.72l1.79,1.2,1.59.94s1.73-2.18,5.87-2.58a19.31,19.31,0,0,0,0,7.06A50.53,50.53,0,0,0,271.83,139,32.66,32.66,0,0,0,276,132s5.66,2.36,3.77,14.84,3.23-.09,3.23-.09Z" transform="translate(-83.08 -48.84)"/><path class="cls-2" d="M259.68,133a20.62,20.62,0,0,1-.15-4.14s-2.62.5-4.88,4l3.37,1.46Z" transform="translate(-83.08 -48.84)"/></g><g id="Ebene_9" data-name="Ebene 9"><path class="cls-2" d="M251.9,258.64s14.09.68,25.26-1.43.4,3.69.4,3.69l-20.62.93C256.89,261.83,251.9,258.64,251.9,258.64Z" transform="translate(-83.08 -48.84)"/><polygon class="cls-15" points="195.78 143.44 188.33 143.44 167.05 143.44 160.66 143.44 129.57 143.44 122.45 156.69 117.35 147.33 115.59 143.44 98.82 143.44 90.04 143.44 78.69 143.44 72.86 143.44 69.93 143.44 50.27 143.44 43.53 143.44 33.73 143.42 20.52 208.91 46.24 208.94 135.47 208.94 167.62 208.94 187.25 208.94 197.89 208.94 203.67 208.87 195.78 143.44"/></g><g id="font"><path class="cls-2" d="M111.65,252.63c.81-2.91,1.78-8.82,2.92-14.66l8-41.79h4l19.52,34.26,20.09-34.26h4.13l6.56,41.88A104.12,104.12,0,0,0,180,252.63H162.43c0-4-2.1-13.44-3.23-21.78l-13.37,22.68H143l-13.29-22.85c-1.7,8.51-3.56,18.07-3.64,21.95Z" transform="translate(-83.08 -48.84)"/><path class="cls-2" d="M198.32,252.63c.08-2.51.24-6.48.24-12.06v-12L185.2,207.52a117.17,117.17,0,0,0-7.37-10.37h19.11a54.19,54.19,0,0,0,3.08,6.08l7,11.82L214,203.47a53.27,53.27,0,0,0,3.4-6.32H235c-2.59,3.32-5.59,7.94-8.26,12.07l-12.39,19.2v12.15c0,5.58.16,9.55.32,12.06Z" transform="translate(-83.08 -48.84)"/><path class="cls-2" d="M279.08,250.76c-4.94.65-9.35,2.93-18.5,2.93-18.55,0-30.37-12.88-30.37-28.84s11.5-28.83,30-28.83c7.29,0,9.72,1.13,14.17,1.62l1.73,17.17c-3.73-3.81-10.15-5.26-15.26-5.26-9,0-14.82,6.72-14.82,15.3s6.64,15.39,14.58,15.39a1.75,1.75,0,0,0,1-.16v-2.59c0-5.51-.16-8.26-.32-10.69h15.55c-.24,2.43.9,5.6.9,11.11Z" transform="translate(-83.08 -48.84)"/><polygon class="cls-3" points="194.48 176.95 197 200.92 200.25 200.66 196.43 176.37 194.48 176.95"/></g></svg>