<svg id="Layer_1" data-name="Layer 1" xmlns="http://www.w3.org/2000/svg" viewBox="0 0 28 28"><defs><style>.cls-1{fill:#655953;stroke:#655953;stroke-linecap:round;stroke-linejoin:round;}</style></defs><path class="cls-1" d="M8.88,9.06,3.26,1.24c.26,0,.5,0,.75.06A11.55,11.55,0,0,1,8.2,2.67a11.69,11.69,0,0,1,4.46,4.42c.06.11.11.27.21.32s.24,0,.36,0a11.8,11.8,0,0,1,2.52-.06,10.26,10.26,0,0,1,3.43.87,9.16,9.16,0,0,1,5.28,6.4,9.65,9.65,0,0,1,.27,2.14,9.52,9.52,0,0,1-7.17,9.67,10.26,10.26,0,0,1-3.12.36,10.14,10.14,0,0,1-5.73-1.84A9.21,9.21,0,0,1,5,19.51a9.92,9.92,0,0,1-.28-3.07,9.51,9.51,0,0,1,4-7.27Zm1.87,2.61a5.85,5.85,0,0,0-1,1,7,7,0,0,0-1.45,4,7.2,7.2,0,0,0,.79,3.7,6.32,6.32,0,0,0,6.69,3.33,6.09,6.09,0,0,0,4.42-3,7.14,7.14,0,0,0,.59-6,6.22,6.22,0,0,0-5.72-4.41H14a24.19,24.19,0,0,1,1,7.23Z"/></svg>