<svg id="Layer_1" data-name="Layer 1" xmlns="http://www.w3.org/2000/svg" viewBox="0 0 28 28"><defs><style>.cls-1{fill:none;stroke:#655953;stroke-linecap:round;stroke-linejoin:round;stroke-width:3px;}</style></defs><path class="cls-1" d="M11,9.24a2.67,2.67,0,0,1,.66-2.35,2.46,2.46,0,0,1,3.06-.21,2.43,2.43,0,0,1,1,2.52,2.34,2.34,0,0,1-.48,1c-.85,1-1.58,1-2,1.86a2.17,2.17,0,0,0-.16,1.26"/><line class="cls-1" x1="13.36" y1="16.86" x2="13.36" y2="16.86"/><path class="cls-1" d="M24.61,7.9v7.66a5.05,5.05,0,0,1-4.57,5v5.29l-5.26-5.26H7.15a5.06,5.06,0,0,1-5.05-5V7.9A5.06,5.06,0,0,1,7.15,2.85H19.56A5.06,5.06,0,0,1,24.61,7.9Z"/></svg>