<svg id="Layer_1" data-name="Layer 1" xmlns="http://www.w3.org/2000/svg" viewBox="0 0 2000 2000"><defs><style>.cls-1{fill:none;stroke:#896c5d;stroke-linecap:round;stroke-miterlimit:10;stroke-width:70px;}</style></defs><path class="cls-1" d="M1674.51,1067.11l-607.65-578a97,97,0,0,0-133.72,0l-607.65,578"/><path class="cls-1" d="M1450,862.44v552.13a116.55,116.55,0,0,1-116.55,116.55H666.6a116.55,116.55,0,0,1-116.55-116.55V862.44"/><path class="cls-1" d="M849.11,1492.58v-333c0-40.13,32.29-72.66,72.11-72.66h157.56c39.82,0,72.11,32.53,72.11,72.66v333"/><path class="cls-1" d="M635.17,772.54V509.18a37.28,37.28,0,0,1,37.28-37.27h71.3A37.27,37.27,0,0,1,781,509.18V633.8"/></svg>