<svg id="Layer_1" data-name="Layer 1" xmlns="http://www.w3.org/2000/svg" viewBox="0 0 2000 2000"><defs><style>.cls-1,.cls-2{fill:none;stroke:#896c5d;stroke-miterlimit:10;stroke-width:70px;}.cls-1{stroke-linecap:round;}</style></defs><path class="cls-1" d="M1170.1,1121.29c170.05,32.09,290.25,110.87,290.25,203,0,120.58-206.11,218.34-460.35,218.34s-460.35-97.76-460.35-218.34c0-90.44,115.94-168,281.16-201.19"/><path class="cls-2" d="M1170.1,635.32a170.18,170.18,0,0,1-106.74,157.91v395.69a145.48,145.48,0,0,1-24.23,80.4l-26.64,40.16a11.74,11.74,0,0,1-19.58,0l-26.63-40.16a145.41,145.41,0,0,1-24.24-80.4V795.29a170.12,170.12,0,1,1,228.06-160Z"/></svg>