<svg id="Layer_1" data-name="Layer 1" xmlns="http://www.w3.org/2000/svg" viewBox="0 0 54.45 64.67"><defs><style>.cls-1{fill:#E0E0E0;}</style></defs><path class="cls-1" d="M14.25,19.82,0,.08,0,0C.67.05,1.29.08,1.92.15A29.5,29.5,0,0,1,12.53,3.61a29.6,29.6,0,0,1,11.3,11.21c.16.28.28.68.53.81s.62-.05.93-.09a28.35,28.35,0,0,1,6.38-.16,26,26,0,0,1,8.68,2.21A23.18,23.18,0,0,1,53.75,33.8a25.55,25.55,0,0,1,.69,5.43A24.19,24.19,0,0,1,36.26,63.75a27.06,27.06,0,0,1-7.91.91A25.7,25.7,0,0,1,13.82,60,23.37,23.37,0,0,1,4.51,46.3a24.65,24.65,0,0,1-.72-7.79A24.07,24.07,0,0,1,13.88,20.1ZM19,26.43A14.71,14.71,0,0,0,16.51,29a17.57,17.57,0,0,0-3.67,10.19,18,18,0,0,0,2,9.37A16.05,16.05,0,0,0,31.8,57,15.48,15.48,0,0,0,43,49.33,18.15,18.15,0,0,0,44.5,34.1,15.77,15.77,0,0,0,30,22.94c-.88,0-1.77,0-2.7,0a60.32,60.32,0,0,1,2.41,18.31Z"/></svg>