<svg xmlns="http://www.w3.org/2000/svg" width="35" height="35" viewBox="0 0 35 35">
  <path id="Icon_awesome-phone-alt" data-name="Icon awesome-phone-alt" d="M34,24.733l-7.656-3.281a1.641,1.641,0,0,0-1.914.472l-3.391,4.143A25.338,25.338,0,0,1,8.928,13.953l4.143-3.391a1.637,1.637,0,0,0,.472-1.914L10.261.992a1.652,1.652,0,0,0-1.88-.95L1.271,1.682A1.641,1.641,0,0,0,0,3.281,31.716,31.716,0,0,0,31.719,35a1.641,1.641,0,0,0,1.6-1.271l1.641-7.109A1.66,1.66,0,0,0,34,24.733Z" transform="translate(0 0)" fill="#5f85db"/>
</svg>
